<?xml version="1.0" encoding="utf-8"?>
<!-- Generator: Adobe Illustrator 23.0.2, SVG Export Plug-In . SVG Version: 6.00 Build 0)  -->
<svg version="1.1" id="Capa_1" xmlns="http://www.w3.org/2000/svg" xmlns:xlink="http://www.w3.org/1999/xlink" x="0px" y="0px"
	 viewBox="0 0 694 601.5" style="enable-background:new 0 0 694 601.5;" xml:space="preserve">
<style type="text/css">
	.st0{opacity:0.503;}
	.st1{fill:#333333;stroke:#333333;stroke-width:3;}
</style>
<g id="Grupo_345" transform="translate(155.668 264.197)" class="st0">
	<g id="Grupo_344" transform="translate(0 0)">
		<path id="Trazado_19598" class="st1" d="M221.6,120.5c-2.1-0.8-3.5-0.4-5.3,0.6c-5.5,2.9-12.2,0-13.4-5.8c-0.5-2.6-1.6-3.1-4-3.1
			c-38.6-0.1-77.2-0.3-115.8-0.6c-0.8,0-1.6,0-2.4,0c-0.5,4.1-1.3,7.9-5.4,9.4c-2.1,0.7-4.4,0.9-6.7,0.6c-2.8-0.4-5.3-1-8.3,0
			c-3.2,1-6.7,0-9-2.4c-1.5,2-4.1,2.8-6.5,2.2c-5.8-1-8.6-3.6-9.7-9.4c-0.4-2-1.2-2.6-3.2-2.6c-3.7,0-7.5-0.4-11.2-0.6
			c-7.3-0.3-14.6-1.7-21.9-0.4c-1.2,0.2-2.5,0.1-3.6-0.2c-2.8-0.6-5.5-1.7-8.3-2c-6.9-0.9-13.8-1.3-20.7-2.4
			c-12.7-2-25.7-2.7-37.2-9.7c-3.4,4.1-0.8,12.6,4.8,15c1.8,0.8,3.7,1.4,5.6,1.8c5.9,1.3,11.8,2.5,17.7,3.7c0.6,0.2,1.2,0.5,1.8,0.8
			l-0.3,0.8c-9.5-1.7-19.1-2.9-28.2-7.3c0,1-0.1,1.7,0,2.3c1.4,10.5,4.7,20.7,9.7,30c8.5,15.7,20.4,28.5,34.3,39.5
			c8.1,6.4,16.8,12.1,25.9,17.1c2.3-1.2,4.1-2.7,6.2-3.2c2.1-0.5,4.4-0.1,6.8-0.1c0.1-0.9,0-1.6,0.1-2.3c0.8-5,3.1-9.1,7.6-11.6
			c0.4-0.3,1.1-0.1,1.7-0.1c-0.2,0.5-0.3,1.2-0.7,1.5c-4.1,2.8-5.9,7.1-6.9,11.7c-0.2,0.9,0.5,2,1,2.9c0.7,1.1,1.5,2.1,2.3,3.1
			l-0.7,0.7c-0.9-0.8-1.8-1.5-2.7-2.3c-3.6-3.1-9-2.8-12.1,0.8c-1.7,2-2.5,4.6-2,7.2c1.2,5.9,6.7,10,12.7,9.3c1-0.1,2-0.2,3.3-0.3
			c0.1,9.2,2.6,18.2,7.3,26c-0.9-0.1-1.8-0.3-2.6-0.8c-3.7-1.7-9.6,0.5-11.9,4.4c-2.1,3.7-1,7.4,3.2,10.2c5.3,3.5,11.1,4.2,17.3,3.1
			c4.2-0.6,7.9-3,10-6.7c1.8-3,1.4-5.6-1.3-7.8c-1.2-1-1.3-1.9-1.1-3.4c0.6-5.4,0.9-10.8,1.2-16.3c-0.1-1.6-0.3-3.1-0.6-4.7
			c0.6-0.1,1.3-0.1,1.9-0.1c4.1,0.5,8.3-1.2,10.9-4.4c1.9-2.2,3.2-4.8,4.1-7.6c1.2-4.2-1.5-7.9-6.5-9.8c-1.3-0.5-3.2-0.4-3.5-2.5
			c4-0.4,8.6,1.8,10.4,5.2c4.1,7.7,0.1,13.4-5.5,18.8c2.6,0.7,4.9,1.5,7.2,2c11.2,2.6,22.3,5.6,33.6,7.7c17.7,3.2,35.6,4.9,53.5,5.3
			c19.7,0.5,39.5-0.6,59.1-3.3c6.2-0.9,12.4-2.1,18.6-3.1c0.9,0,1.9,0,2.8,0.2l-0.1,0.8c-0.4,0.2-0.9,0.3-1.3,0.4
			c-14.2,1.8-28.4,4-42.7,5.4c-19.9,2.1-39.8,1.5-59.6-0.3c-22-1.9-43.7-5.6-64.8-12c-5.4-1.6-10.5-2.3-15.9-0.3
			c1,6.1,0.7,12.3-0.7,18.2c-0.1,0.7,0,1.4,0.5,2c4.2,5.2,3.5,10.8-1.8,14.7c-6.8,5-18.9,5-26.3-0.1c-3.3-2.3-6-5.1-5.4-9.4
			c0.6-4.4,3.8-6.9,7.8-8.3c1.8-0.7,3.9-0.7,6.2-1.1c-3.7-6.2-5.7-13.3-5.8-20.5c-1.5,0-2.7,0.1-3.9,0c-7.5-0.7-13.6-7.9-11.8-14.5
			c0.9-3.2-0.3-4.1-2.7-5.5C-21.8,186.8-38,174.2-51,157.6c-11.1-14.2-18.5-30-20.3-48.2c-0.2-1.4-0.6-2.9-1.2-4.2
			c-3.7-8.8-0.2-14.4,8-17.7c1.6-0.7,3.3-1.2,4.9-1.7c0.3-16.1,4.4-21.1,20.8-26c-3.4-8.4-3.8-16.8,3.4-23.4
			c7.1-6.6,15.3-6.6,23.9-1.9c-0.1-1.1-0.2-1.7-0.3-2.3C-13.2,20-5.7,4.4,9.5,1.3c8.6-1.7,18,1.9,22.5,9.3c0.8,1.3,1.4,2.7,2.4,4.6
			c4.2-18.4,10.8-35,21.5-49.9c10.4-14.9,24.5-26.8,40.9-34.6c-3.6-2.7-3.6-2.6-6.7-0.5C77-60.6,61.1-62.5,49.4-70
			c-0.6-0.5-1-1.2-0.9-1.9c0.7-1.9,1.1-4,3.4-5.1c2.2-1.1,4.6-1.1,6.1,0.7c1.4,1.8,1.2,4.4-0.5,5.9c-0.5,0.6-1.2,1-2,1.8
			c1.3,0.6,2.3,1,3.3,1.5c2.5,1.3,4.8,0.6,6.8-1c2.3-1.9,2.8-5.2,1.4-7.8c-1.2-2.2-3.1-2.6-6.3-1.5c-0.4,0.1-0.9,0.1-1.4,0.1
			c1.5-2.9,3.3-5.6,0.3-8.3c-0.8-0.7-1.9-1-2.9-0.9c-2.1,0.9-4.2,1.9-6.2,3.1c0-0.5-0.2-1.4,0-1.9c1.3-2.5,5.5-3.8,8.5-2.6
			c1.2,0.5,2.7,1.2,3,2.2c0.7,1.9,0.6,4,0.9,6.1c7.3,1.1,8.9,8.5,2.4,13.9c1.3,0.2,2.7,0.4,4,0.5c6,0,11.8-1.5,17.1-4.3
			c3.8-1.7,6.2-5.6,6-9.8c-5.7-1-11.3-1.6-16.6-3c-5.5-1.4-10.4-4.5-14-8.9c0.8,0.1,1.5,0.4,2.1,0.8c8,5.4,17.5,8,27.1,7.5
			c1.6,0.1,3-1,3.2-2.5c1.3-4.4,2.7-8.7,4.1-13c0.5-1.6,1.1-3.1,1.6-4.7c-0.2-0.1-0.5-0.2-0.7-0.3c-0.6,0-1.1,0.1-1.7,0.1
			c-4.9,0.4-9.8-0.6-14.2-2.9c-0.9-0.6-1.8-1.3-2.6-2.1l0.4-0.6c0.5,0.1,1,0.2,1.5,0.3c4.8,2.4,10,2.9,15.2,2.9
			c2.6,0,4.1-0.9,4.8-3.4c0.6-1.6,1.3-3.2,2.1-4.7c2-4,4.1-7.9,6.3-12.1c-1.1-0.3-2-0.6-2.9-0.9c-16-4.9-30.8-13.3-43.1-24.6
			c-0.5-0.6-1-1.3-1.4-2l0.6-0.5c0.7,0.5,1.4,1,2.1,1.6c12.9,10.8,27.7,19,43.7,24.2c1.6,0.5,2.4,0.2,3.4-1.2
			c5.3-7.2,10.6-14.4,16.1-21.4c1.3-1.6,1.1-2.5-0.1-3.9c-3.8-4.2-8.4-7.5-13.6-9.8c-0.9-0.5-1.8-1.2-2.6-1.9l0.6-0.7
			c7.6,2.1,13.4,6.9,17.7,12.9c7.5-6.5,14.8-12.8,22.2-19.1c3.3-2.8,3.4-2.7,1.6-6.7c-7-15.6-19-25.5-34.9-31
			c-0.7-0.3-1.4-0.7-2.1-1.1l0.3-0.9c2.4,0.5,4.9,0.7,7.1,1.7c11.3,4.7,19.4,13.2,26.3,22.9c2.5,3.5,4.2,7.6,6.3,11.5
			c0.1,0,0.2,0,0.3,0c7.3-4.2,14.5-8.3,21.8-12.5c0.7-0.5,1.2-1.4,1.2-2.3c-0.9-4-1.9-8.1-3.1-12c-0.6-1.5-1.4-3-2.4-4.3
			c-2.4,1.2-4.3,2.9-6.3,3c-2,0.1-4.1-1.4-6.3-2.2c-3.2,4-7.5,4.2-11.8,0.4c-4.2-3.6-4.1-7.5-0.2-11.6c-0.4-2.1-1.2-3.9-1-5.6
			c0.4-2.5-1-2.8-2.8-3.2c-6-1.5-12.1-1.7-18.2-0.8c-6.7,1.1-13.7,1.5-19.4,5.9c-0.3,0.1-0.6,0.2-0.9,0.3
			c-5.7,1.4-11.5,2.9-17.2,4.3c-2,0.3-3.4,2.2-3.1,4.1c0,0,0,0,0,0c5,1.3,6.8,3,6.8,6.7c0.1,4.3-2.1,6.5-8.3,8.2
			c-1,4.9-2.9,6.9-7.1,6.7c-1.9,0-4.5-0.3-5.4-1.5c-1.6-2.1-2-5-2.9-7.4l-6-2.5c-11.4,9-20.6,20.6-26.8,33.8
			c3.5,1.1,4.4,3.5,3.9,6.6c4.2,0.8,5.7,2,6.1,4.9c0.6,4.5-2.4,6.3-6.1,7.6c0.1,2.5-0.6,4.5-3,5.5c-3,1.4-6.5,0.7-8.8-1.6
			c-0.7,4.1-1.3,7.9-1.9,11.7c-2.2,12.8-1.3,25.9,2.7,38.2c0.3,0.9-0.1,2-0.2,3.1h-1.2c-0.3-1.9-0.6-3.7-0.9-5.6
			c-0.1-0.4-0.4-0.8-0.5-1.3c-0.4-1.6-0.7-3.2-1.1-4.8c-0.1-0.6,0-1.3-0.2-1.9c-0.5-1.8-1-3.5-1.3-5.3c-0.9-13.4,0.5-26.8,4-39.7
			c5.4-20.3,15.5-37.7,31.9-51.1c13.3-10.9,28.9-17.1,45.8-20.1c0.5-0.1,0.9-0.2,1.3-0.5c5.9-3.6,12.5-5.2,19.2-6.2
			c8.8-1.3,17.9-0.3,26.2,2.9c15.9,5.9,25.6,17,27.6,34.1c0.6,4.8,2.4,9.1,4.3,13.4c0.9,2,1.9,2.2,4,1.4c8.8-3.2,17.7-6.1,26.6-9
			c0.8-0.3,1.8,0.2,2.7,0.3l0,0.7c-1.8,0.5-3.5,1.1-5.3,1.7c-12.9,3.9-25.7,8.3-37.8,14.4c-20.9,10.6-37.1,26.5-50.1,45.7
			C116.2-107.9,109-89.6,102.7-71c-0.3,0.8-1.3,1.3-2,1.9c-0.5,0.4-1.2,0.4-1.8,0.7c-5.1,3-10.5,5.7-15.3,9.1
			C65-46.3,51.8-28.9,43.4-7.8C38.3,5,35,18.5,33.6,32.2c-2,18.9-2.7,37.8,1.7,56.5c0.6,2.6,1.5,5.2,2.5,8.2c1.7-2.3,3-4.2,4.5-5.9
			c9.6-11.2,21.2-11.1,30.5,0.5c3.7,4.7,6.2,10.2,7.2,16.1c0.4,2,1.2,2.8,3.3,2.8c4.7-0.1,9.3,0.3,14,0.3
			c34.3,0.1,68.5,0.2,102.8,0.2c1.5,0,2.2-0.4,2.3-2c0.5-5.3,2.1-10.4,4.8-15c2.8-5.1,6.8-9.3,12.3-11.4c6.3-2.4,11.8-0.2,16.8,3.9
			c1.8,1.5,3.4,3.2,5.3,4.9c3.5-5.4,6.2-11.3,8.1-17.5c3-9.6,3.4-19.4,2.9-29.3c-0.6-13.6-5-26.1-11.8-37.9c-0.7-1.1-1.2-1.6-2.7-1
			c-12.5,5.1-25.7,8.1-39.2,8.7c-7.5,0.3-15-0.4-22.5-0.7c-0.7-0.2-1.4-0.4-2-0.8l0.2-0.8c0.9,0,1.7-0.1,2.6,0
			c14.5,1.5,29.1,0.6,43.3-2.8c15-3.4,29.1-9.8,41.6-18.6c12.4-8.9,23.4-19.5,34.3-30c10.8-10.4,20.6-21.7,28-34.9
			c3.1-5.5,5.8-11.2,5.8-17.9c-0.3-26.6-3.9-52.8-7.8-79.1c-0.8-5.5-3.3-9.9-8.1-12.3c-5.2-2.7-10.7-4.8-16.3-6.4
			c-19.6-5.3-39.4-4.3-59.2-0.4c-3.8,0.7-7.5,1.5-11.3,2.3l-0.3-0.9c1.3-0.6,2.6-1.1,3.9-1.5c10.9-2.6,22.1-4.2,33.4-4.6
			c15.9-0.5,31.4,1.4,46.2,7.8c7,3,12.2,7.8,13.4,15.8c1.3,8.3,2.8,16.6,3.6,24.9c1.5,15.2,2.7,30.4,3.8,45.6
			c0.5,4.7,0.4,9.4-0.3,14.1c-1.8,10.1-7.8,18.3-13.8,26.4c-9.9,13.3-22.1,24.5-34.2,35.8c-9.6,8.9-19.6,17.4-31.1,23.8
			c-3.4,1.9-6.9,3.5-10.5,5.3c1.5,2.6,2.9,5.1,4.4,7.5c0.5,0.6,1.1,1,1.8,1.2c8.6,3.6,16.2,9.2,22.4,16.1c2.4,2.6,4.7,5.3,7.2,8.2
			c1.8-4.8,4.9-8.9,9-12c5.1-3.7,11.6-5.9,13.8-4.1c-0.9,0.3-1.7,0.5-2.4,0.7c-7.7,1.9-13.8,6.1-17.7,13.1c-1.4,2.5-1.4,4.5,0.5,7
			c10.9,14.7,17.9,31.1,22.3,48.8c1.2,5,2,10,3,15.2l14.6-1.3c-8.1-8.9-9.8-18.6-6.6-29.1c-2.5-0.4-5-0.3-7.2-1.1
			c-8.7-3.1-15.4-12.8-15.5-22.1c-0.2-12.1,11.5-20.9,23-17.1c6.3,2.1,10.1,6.7,11,13.4c0.9,5.2-1.3,10.5-5.6,13.5
			c-3.5,2.8-8.5,2.4-11.5-0.9c-2.8-2.8-3.1-7.6-0.6-10.5c0.7-0.7,1.7-1.1,2.7-1.2c0.4,0,0.9,1,1.8,2.2c-3.4-0.7-4,0.9-4.3,2.8
			c-0.5,2.9,1.2,5.8,4,6.8c5,1.9,10.5-1.7,11.7-7.5c1.7-8-3.8-16.4-11.4-17.5c-9.3-1.4-17.5,4.5-18.7,13
			c-1.4,9.9,5.9,19.1,11.8,22.2c3.7,2.1,8.1,2.5,12,1c7.5-2.6,11.4-8.3,13.4-15.6c1.5-5.7,1.1-11.6-1-17.1c-0.3-1-0.4-2.1-0.4-3.1
			l1.3-0.3l3.2,13c4.5,1.1,9,2.1,13.5,3.1c0.6,0.1,1.2-0.1,1.6-0.5c4.4-4,4.7-10.8,0.7-15.2c-0.4-0.5-0.9-0.9-1.4-1.3
			c-3-2.1-6.2-2.5-9.4-0.6c-2.8,1.4-4.3,4.5-3.9,7.5c0.3,2.4,2.2,4.3,4.7,4.6c2.2,0.1,4-1.3,4.7-3.8c0.2-0.4,0.4-0.9,0.6-1.3
			l0.6,0.1c0,0.9-0.1,1.8-0.3,2.7c-0.6,2-2.4,3.4-4.5,3.6c-2.2,0.4-4.5-0.6-5.8-2.4c-1.8-2.1-2.1-5.1-0.9-7.6c1.3-3.4,4.4-5.7,8-6
			c7.8-0.8,13.9,7.3,11.2,15c-0.9,2.1-2,4.2-3.2,6.2c1.4,0.8,2.7,1.6,3.9,2.5c1.2,1,2,0.7,2.9-0.2c2.5-2.6,4.1-6,4.6-9.5
			c1.8-9.4-4.4-18.5-13.8-20.3c-2.6-0.5-5.3-0.4-7.9,0.3c-4.3,1.1-7.5,3.7-10.5,6.8c-0.5,0.5-1.5,0.6-2.3,0.9l-0.9-2.9l2.3,1
			c7.5-8.9,20-9.8,27.7-3.7c3.8,3,6.3,7.5,6.7,12.3c0.9,6.3-1.5,12.7-6.5,16.7c0.2,0.3,0.4,0.5,0.6,0.8c8.2,7.3,13.5,16,13.7,27.3
			c0,0.5,0.9,1.2,1.5,1.5c1.5,0.9,3.3,1.4,4.7,2.5c5.1,4.1,5.9,9,3,15.8c-0.5,1.1-0.8,2.3-0.9,3.5c-1.3,11.7-4.8,23-10.5,33.3
			c-8.1,14.9-19.5,27-32.4,37.8c-0.7,0.5-1.4,0.8-2.2,1.2l-0.5-0.7c11.1-9.2,21.3-19.2,29.2-31.3c8.1-12.1,13.2-25.9,14.9-40.4
			c-0.8,0.2-1.4,0.4-1.9,0.5c-3.8,1.2-7.5,3-11.3,3.6c-13.3,2.2-26.6,4.3-39.9,5.8c-14.3,1.6-28.6,2.4-42.9,3.4
			c-1.1,0-2.1-0.1-3.2-0.3l0.1-0.6c0.3-0.1,0.6-0.2,0.9-0.2c19-1.7,38.1-3,57-5.1c11.2-1.2,22.3-3.7,33.5-5.6
			c6.1-1,9.6-4.7,10.4-10.9c0.3-2.3,0.3-4.5-1.7-6.5c-2.6,3.8-6.7,4.6-10.5,5.9c-0.9,0.2-1.8,0.7-2.5,1.3c-4.2,4.7-9.7,8.1-15.8,9.8
			c-9.2,2.7-18,2.3-26.1-3.5c-1-0.6-2.1-0.8-3.2-0.7c-23.2,1.5-46.4,3-69.6,4.5c-2.1,0.1-3.8,0.2-4.2,2.8c-0.4,1.1-1,2.1-1.8,2.8
			c-3.5,3.9-9.4,4.6-12.7,1.5C228,120.7,224.8,121.8,221.6,120.5z M251.5,25.8c3.3,12.1,3.8,24.4,2.5,36.9
			c-1,10.6-4.6,20.8-10.4,29.7c-0.3,0.7-0.3,1.6,0.1,2.3c2.4,4,4.1,8.2,4,12.9c0,1.6,0.6,1.9,2,1.9c11-0.6,22-1.1,33-1.7
			c6.3-0.3,12.5-0.9,18.8-1.2c2.2-0.1,2.9-0.9,2.6-3.1c-1.4-11.1-4.7-21.6-9-31.9c-7.1-17-16.9-32.2-30.2-45.1
			c-4.9-4.8-10.7-8.7-16.9-11.5C249.3,18.9,250.6,22.3,251.5,25.8L251.5,25.8z M3.3,73c4.5,3.8,5.1,10.5,1.3,15
			c-3.1,3.7-8.4,4.9-12.8,2.7c-8.7-4.1-12.9-16.5-8.3-24.9c4.3-7.9,13.7-10.1,22-5.4c14.5,8.3,18.1,28.6,7.3,41.2
			c-1.7,1.7-3.4,3.3-5.2,4.9l26.6,1.8c0.9-3,1.7-5.6,2.4-8.3c0.1-0.5,0-1-0.2-1.4c-4.6-12-5.7-24.6-6.3-37.2
			c-0.1-1.4-0.6-2.8-1.6-3.8c-3.8-3.4-7.7-6.6-11.7-9.5c-1.3-0.8-2.8-1.1-4.3-0.8C8.3,48,4,47.6,0.2,45.9c-3.4-1.5-6-0.6-8.8,0.7
			C-20.5,52.5-28.2,66.7-26.8,80c1,9.7,4.8,17.8,13.1,23.2c11.6,7.5,25.6,2.8,29.9-11.7c3.6-12-2-23.3-11.3-29.2
			c-7.4-4.7-16-2.7-19.8,4.5c-4.1,7.7,0.1,19.4,8,22.3c4.6,1.7,8.7,0.4,11.1-3.5c2.2-3.6,1.3-8.1-2.1-11.3c-0.6-0.5-1.2-1-1.8-1.5
			l0.4-1C1.5,72.1,2.4,72.5,3.3,73z M340.6,60.1c10.5,0.8,19.3,10.5,18.9,20.5c-0.5,13.1-16.8,22.9-27.7,16.7
			c-5.8-3.4-8.1-10.6-5.5-17.2c2.3-5.9,8.7-9.3,14.9-7.7c2.7,0.5,4.8,2.7,5.2,5.5c0.6,2.4-0.4,4.9-2.4,6.3c-0.8,0.4-1.6,0.6-2.5,0.8
			l-0.3-0.7c0.2-0.3,0.4-0.7,0.7-0.9c2.3-1.3,3.2-3.2,2.5-5.8c-0.6-2-3-3.5-5.6-3.7c-4.8-0.1-9.1,2.8-10.9,7.2
			c-2,4.7-0.7,10,3.1,13.3c3.1,2.8,7.4,3.7,11.5,2.6c6.4-1.3,11.6-5.8,13.9-11.9c1.9-4.5,1.4-9.7-1.3-13.8c-4.4-7-14.1-11-22.2-9.2
			c-1.1,0.3-2.1,1-2.8,1.9c-2.7,4.7-6.8,8.4-11.8,10.4c-1.2,0.5-2.2,2.5-2.6,4c-4,14.3,4.7,30.4,22,31.4c8.1,0.5,15.6-1.3,22.1-6.3
			c8.5-6.6,10.5-15.4,7.8-25.4c-3.4-12.8-15.7-25.1-30.3-26c-0.9-0.1-1.8-0.1-2.7,0.1c-0.6,0.2-1,0.6-1.2,1.2
			c-0.5,2.1-0.9,4.3-1.3,6.7C335,60,337.8,59.8,340.6,60.1L340.6,60.1z M181.8-187.7c-1.5,0.7-3.1,1.4-4.6,2.2
			c-29.4,16.1-52.6,38.5-68.6,68.2c-7,13.2-12.1,27.4-15,42.2c-0.5,2.6,1.3,2.8,2.8,3.5c3.3,1.6,3.9,1.3,5-1.9
			c7.9-22.4,17.7-43.7,32.5-62.5c13.6-17.3,30.2-30.6,50.6-39.2c0.8-0.3,1.6-0.8,2.3-1.1L181.8-187.7z M29.8,55.8
			c0.1-0.6,0.2-1.1,0.2-1.6c1.1-11.2,2.2-22.4,3.3-33.6c0.4-4.5-1.6-8.1-4.4-11.2c-9-9.8-25-8.5-33.1,2.5c-3.9,5.3-6.2,11-6,17.7
			C-10,37-6.6,42,0.6,44.3c7.7,2.4,15.2,2.1,21.8-3.2c6.3-5.1,7.7-13.2,3.5-18.9c-3.3-4.3-8.6-5.9-12.9-3.9c-5.3,2.6-8.9,9-7.7,14
			c1.1,3.6,4.4,6.1,8.2,6.2c2.3,0,4.3-1.4,5.1-3.5c0.9-2.2,0.4-4.7-1.2-6.4c-0.4-0.6-0.7-1.3-0.9-2c0.8,0.1,1.6,0.4,2.3,0.9
			c2.2,2,2.7,6.1,1.2,9.1c-1.5,2.8-4.6,4.3-7.8,3.9c-7.1-1.2-10.9-8.6-8-15.6c2.3-5.4,7.5-9.2,12.8-9c6,0.2,10,3.5,12.3,8.9
			c2.4,5.4-0.1,13.5-5.6,17.9c-2,1.4-4,2.7-6.1,3.9L29.8,55.8z M220.5,118.1c3.6,3,10.4,0.1,11.4-4.4c0.2-0.9,0.1-1.9,0.2-2.9
			c0.1-1,0.3-2,0.5-3c0.6,1,1.6,2.1,1.6,3.1c0,1.5-0.3,2.9-0.9,4.2c-0.7,1.8,0,2.6,1.7,2.6c4.6,0.2,10.2-1.9,10.8-8.2
			c0.7-8.6-3-15.2-9.3-20.5c-2.1-1.8-4.5-3.4-7.1-4.6c-6.7-3-12-0.1-16.5,4.8c-5.9,6.5-8.5,14.4-8.6,23c0,4.1,2.2,7.1,5.4,7.8
			c3.9,1,7.9-0.9,9.6-4.5c0.6-1.4,1.1-2.9,1.5-4.3c0.2-0.6,0.6-1.2,1.2-2.4C223.6,112.9,221.6,115.5,220.5,118.1L220.5,118.1z
			 M55.5,119.8c2.3,1.1,4.9,0.9,7-0.5c-0.9-2.2-1.8-4.2-2.4-6.2c-0.2-0.7,0.3-1.6,0.4-2.4c0.5,0.6,0.9,1.2,1.3,1.8
			c0.6,1.4,1.3,2.8,2.1,4.1c2,3.2,5.8,4.6,9.4,3.4c3.2-1,5.1-3.4,4.9-7.5c-0.5-11.1-4.9-20.3-14.6-26.4c-3.8-2.4-7.5-1.9-11.4-0.2
			c-9.4,4.1-16,14.4-15.5,24.2c0.3,6,4.3,9.8,10.3,9.6c2.6-0.1,3-1,2.3-3.4c-0.4-1.9-0.5-3.8-0.4-5.7c0-0.4,0.6-0.9,0.9-1.3l0.8,0.2
			C50,114,50.8,117.9,55.5,119.8L55.5,119.8z M-26.7,65.4c-0.1-0.8-0.5-1.5-1.2-1.9c-8-3.2-15.8-3.1-22.5,2.7
			c-6.9,5.9-9,13.6-6.8,22.3c0.5,2,1.3,3.8,2.4,5.6c2.3,3.8,5.2,6.4,10.1,6.7c4.3,0.2,8.5,1.3,12.8,1.8c2.6,0.3,7.9-4.2,8.1-6.8
			c0-0.6-0.2-1.1-0.5-1.6c-3.1-5.6-4.5-12-4.3-18.3c0.1-1-0.3-2-1-2.7c-4.1-2.5-8.5-2.9-12.8-0.5c-4.1,2.3-6.5,5.8-6.2,10.8
			c0.4,5.2,5,9.1,10.2,8.7c0.1,0,0.2,0,0.2,0c3-0.3,5.3-2.7,5.4-5.7c0.1-2.8-1.4-4.6-4.6-5.5c-0.5-0.2-1-0.8-1.4-1.2
			c0.6-0.3,1.3-0.5,1.9-0.5c3.5,0.6,6,3.7,5.9,7.3c-0.3,4.1-3.6,7.3-7.7,7.5c-4.3,0.3-8.3-2.1-10.2-5.9c-2.4-4.1-2-9.2,0.9-12.9
			c3.6-5,10.1-7.1,15.9-5c1.1,0.4,2.3,0.9,3.6,1.4C-27.8,69.5-27.1,67.5-26.7,65.4L-26.7,65.4z M-28.8,59.4c-3.4-2.1-5.1-6-4.3-9.9
			c0.6-3.9,4.3-7.7,8.1-8.6c4.4-1,8.5-0.2,11.6,2.8c2.1,2.1,3.8,2,6,0.8c0.6-0.3,1.1-0.6,1.6-0.8c-1.7-2.5-3-5.2-5.1-7.1
			c-2.1-1.8-4.6-3-7.3-3.5c-6.9-1.5-13.2,0.1-17.7,6c-4.5,6-5.1,12.6-1.8,19.3c0.7,0.9,1.6,1.6,2.7,1.8c2.5,0.9,5.2,1.3,7.7,2.2
			c1.4,0.5,2.1,0.5,2.3-1.3C-26.4,60.6-27.6,60.1-28.8,59.4L-28.8,59.4z M87.7-214.6l-0.5-0.6l-6.8,2.9c4.8,2.6,5.8,4.1,4.9,6.7
			c-0.9,2.4-3.4,3.7-5.9,3.2c-2.7-0.6-3.6-2.8-3-7.5l-7.7,5.2c1.5,2.7,1.8,2.8,5.7,2.6c0.2,1.7,0.4,3.5,0.8,5.2c0.6,2.3,2.6,3.9,5,4
			c2.3,0.4,4.5-0.8,5.4-3c0.5-1.1,0.3-2.5,0.4-4.1c2.8,0,6.1-0.1,7.8-3.4c0.7-1.3,0.9-2.7,0.6-4.1c-0.6-1.6-1.7-3-3.2-3.8
			c-1.3-0.6-3.2,0.2-5,0.5L87.7-214.6z M163.1-212.5c-1.8,0.2-3.6-0.7-4.4-2.4c-1.4-2.8,0-4.8,2.3-7.1l-8-3.6
			c-1.5,3.7,0.9,5.9,2.4,8.3c-4,1.7-5.2,3.1-4.8,5.9c0.4,2.7,3.4,5.2,6.8,5.7c2.9,0.5,4.5-0.5,5.9-3.7c1.1,0.7,2.3,1.3,3.5,1.8
			c1.3,0.5,2.6,0.6,4,0.5c3.4-0.6,4.1-2.8,1.9-5.3c-1.1-1.2-2.2-2.4-3.4-3.5c-0.6-0.5-1.2-0.9-1.9-1.4
			C167-214.6,165.9-212.7,163.1-212.5L163.1-212.5z M-17.9,51c1.5-1.2,3.1-2.2,4.5-3.5c0.4-0.6,0.4-1.3,0.1-1.9
			c-2.6-3-6.5-4.3-10.4-3.6c-3.6,0.5-6.7,3.1-7.8,6.6c-1.4,4.3,0.9,9,5.2,10.4c1.3,0.4,2.3,0.3,3.1-1.1c0.8-1.4,1.8-2.7,2.8-4
			c1.4-1.8,1.1-3-1-3.8c-0.7-0.3-1.5-0.4-2.2-0.6C-21.1,48.2-19.5,49.7-17.9,51z M34.3-146.4c1.7,1.4,4.1,1.6,5.9,0.4
			c1.9-1.3,2.5-3.1,1.1-5.2c5.4-1,7.7-3.4,6.7-6.8c-0.8-3-2.9-3.7-7.2-2.1c0.4-0.9,0.7-1.6,0.9-2.3c0.5-1.8,0.4-3.5-1.4-4.5
			c-0.7-0.2-1.5,0-2.1,0.5c-0.8,1.8-1.6,3.7-2.2,5.6c4.4,1.6,5.4,2.9,4.6,5.3c-0.9,2.5-3.3,3.2-6.7,1.9
			C32.3-150.2,32.4-148.2,34.3-146.4z M-58.9,88.4c-0.4-0.5-1-0.8-1.7-0.7c-2.5,0.8-5,1.9-7.4,3c-1.9,1-1.8,2.6,0.1,3.7
			c4.2,2.6,9,3.6,13.7,4.5C-55.8,95.2-57.3,91.8-58.9,88.4z M368.1,96.8c2,0.4,7.3-1.7,8.2-3.5c0.2-0.8,0-1.7-0.6-2.4
			c-1.6-1-3.2-1.9-4.9-2.7L368.1,96.8z M-22.5,98l-4.9,5.3l11.1,1.2L-22.5,98z M54.1-70.3c1.8-0.1,3.2-1.6,3.1-3.4c0,0,0,0,0,0
			c0.1-2.3-1.6-2.5-3.3-2.4c-1.6-0.1-2.9,1.1-3,2.7c-0.1,1.6,1.2,3.1,2.8,3.1C53.8-70.3,54-70.3,54.1-70.3L54.1-70.3z M83.9-207.5
			c-0.2-1.9-1.6-2.3-3.2-2.3c-1.6-0.2-3,1-3.2,2.6c0,0.2,0,0.4,0,0.6c0,1.5,1.3,2.8,2.9,2.8C82.4-204,83.9-205.6,83.9-207.5
			L83.9-207.5z M159.9-217.1c-0.3,1.7,1.1,2.8,2.8,3c1.6,0.2,3.5-1.5,3.1-3c-0.4-1.4-1.6-2.6-2.5-3.9l-1.2,0.1
			C161.4-219.6,160.2-218.4,159.9-217.1L159.9-217.1z M37.3-159c-1.3-0.2-2.4,0.7-2.6,2c0,0.2,0,0.5,0,0.7c0.1,0.8,1.5,2.1,2,2
			c1.2-0.2,2.2-1.3,3.2-2C39.6-158.4,38.8-159,37.3-159z"/>
		<path id="Trazado_19599" class="st1" d="M227,228.1c1.6-0.3,3.3-0.4,4.8-0.8c8.8-2.3,17.6-4.8,26.4-7.1c1.5-0.3,3.1-0.3,4.7,0
			c1.6,0.1,3.2,0.4,5,0.7c-0.1,0.7-0.1,1.4-0.2,2.1c-0.8,5.1-0.5,10.3,0.7,15.3c0.4,1.5,0.3,2.7-1,3.9c-2,1.8-2.3,4.2-1.8,7.4
			c0.5-1.3,1.1-2.6,1.7-3.8c0.7-1.1,1.6-2,2.3-3.1c0.5-0.7,1.2-1.7,1-2.4c-1.6-7-2.2-14-0.6-21.1c0-0.1-0.1-0.3-0.2-0.6
			c-0.5,0-1,0-1.6,0c-6.7,0.3-12.8-4-14.8-10.5c-1.5-5.1,0.6-9.4,5.7-10.9c2-0.5,4-0.7,6-0.5c2.4-0.1,4.5,1.6,4.9,4
			c0.3,1.1,0.8,2.1,1.4,3.1c0.2,0.4,0.9,0.5,1.3,0.7c0.1-0.5,0.4-1.1,0.2-1.5c-0.6-1.6-1.4-3.1-2-4.7c-1.4-3.6-1.5-7.6-0.4-11.3
			c1.4-4.4,4.8-6.4,9.2-6.9c4.9-0.5,8.3,1.9,10.7,5.9c0.9,1.6,1.7,3.3,2.2,5.1c0.8,2.2,1.3,4.4-1.3,6c-0.7,0.4-0.9,1.5-1.3,2.3
			l0.6,0.2c1.7-1.3,3.5-2.5,5.3-3.5c3.2-1.4,7-0.6,9.4,2.1c2.2,2.8,2.8,6.6,1.4,9.9c-2.4,4.9-7.8,7.7-13.2,6.7
			c-1.7-0.3-2.2,0.1-2.3,1.7c-0.2,7.9-2.5,15.7-6.6,22.5c-0.3,0.8-0.6,1.5-0.7,2.4c3.5-2.1,6.5-2.5,9.6-1.2
			c4.9,2.1,7.4,6.8,5.2,10.7c-1.1,1.8-2.7,3.2-4.5,4.3c-3.7,2.3-8.1,3.3-12.4,2.9c-1.1-0.1-2.2,0.1-3.2,0.5c0.8,0.4,1.6,1.3,2.4,1.3
			c6.1,0.3,11.9-0.9,16.7-5c5.3-4.5,5.1-11.1-0.8-14.7c-2.6-1.7-5.9-2.3-9.1-3.5c3.4-6.1,5.2-12.9,5.4-19.9
			c3.8,0.5,7.6-0.5,10.7-2.7c4.4-3.2,6.3-8.1,4.7-13.3c-0.6-1.9,0.6-2.2,1.7-2.9c6.6-4.3,13.2-8.6,19.8-12.9c0.6-0.5,1.2-1,1.8-1.6
			l-0.3-0.7c-0.7,0.3-1.4,0.6-2.1,1c-6.7,4.4-13.3,8.7-20,13.1c-1.3,0.9-2.2,1-3.5-0.2c-2.9-2.9-7.2-3.8-11-2.3
			c-2.2-11.5-7.2-16.4-15.9-15.9c-4.1,0.3-7.8,2.1-9.4,6c-1.3,3.4-1.5,7.3-2.2,10.9c-1.8-0.2-4.1-0.9-6.3-0.7
			c-9,1.1-13.1,9.9-8.3,18c1.3,2.3,3.3,4.1,5.4,6.6l-31.7,8.2L227,228.1z"/>
		<path id="Trazado_19600" class="st1" d="M-31.5,117.9c98.9,9.9,198,9.6,297.2,5.8l0.1-1.2c-0.5-0.2-1-0.3-1.5-0.4
			c-5.9,0.3-11.8,0.7-17.8,0.9c-54.6,2-109.1,2.5-163.7,0.6c-29.2-1-58.3-2.9-87.4-4.6c-7.6-0.5-15.2-1.6-22.8-2.4
			c-1.4-0.1-2.8-0.1-4.2,0.1L-31.5,117.9z"/>
		<path id="Trazado_19601" class="st1" d="M139.9,33.3c-3.9,0-7,1.7-9.9,3.7l-0.6-0.4c1.7-2.6,3.2-5.4,5.1-7.9
			c2-2.5,4.3-4.6,6.8-7.1c-5.6,1-16.5,16-15.5,21.4c1.6-1.5,2.9-3,4.4-4.2c1.6-1.2,3.3-2.2,5.1-3c-3.5,6.2-3.8,12.7-3,19.7
			c5.5-4.5,10.9-8.6,18.1-10.2l8.7,27.3c2.9-1.4,5.2-3.7,6.6-6.6c3.3-6.7,6.3-13.6,9-20.5c0.9-2.2,1.7-2.3,3.5-1.5
			c4.9,1.9,9.3,4.7,13.2,8.2c0.6,0.5,1.2,0.9,2.3,1.7c0.4-7.3,0.3-13.7-3.8-20.2c4.6,1.4,7.1,4.4,9.8,7.3
			c2.1-3.6-8.4-18.9-14.9-21.3c4.6,4.4,8.8,9.2,11.7,15.5c-3.6-1.7-6.5-4.1-10.6-3.8c5.6,5.2,6.7,11.6,6.2,18.9
			c-2.9-1.9-5.6-3.9-8.4-5.5c-2.3-1.1-4.6-2.1-6.9-3c-1.6-0.7-2.3-0.2-3,1.5c-2.5,6.6-5.1,13.2-8,19.6c-1.2,2.6-3.4,4.9-5.6,7.8
			c-1-3.8-1.6-6.8-2.6-9.8c-1.8-5.4-3.8-10.7-5.8-16.1c-0.6-1.6-1.6-1.2-2.8-0.8c-4.9,1.6-9.5,4-13.5,7.2c-0.6,0.4-1.1,0.8-2.1,1.5
			C133.4,45.1,134.2,38.5,139.9,33.3z"/>
		<path id="Trazado_19602" class="st1" d="M95.8-167.9c3,4,0.2,9.8-5.1,11.1c-0.9,0.2-2.2,0.7-2.4,1.4c-1.7,5.2-4.6,6.9-9.9,5.7
			c-2.7-0.4-4.7-2.8-4.5-5.5c-0.1-1.1,0-2.2,0-3.4c-3.2,0.2-5.5-1-6.5-3.7c-1.3-3.6-1.2-7.2,1.2-10.4c1.4-1.9,3.4-3.1,5.7-2.4
			c1.9,0.6,2.9,0.2,3.9-1.6c1.6-2.9,5.6-3.8,9.1-2.4c2.8,1.1,3.6,3,2.9,6.9c-0.1,0.4-0.1,0.8-0.1,0.5
			C92.3-170.4,94.6-169.5,95.8-167.9z M75.6-156.2c0.3,2.8,2.6,4.9,5.4,5c2.7,0.3,4.7-0.8,5.5-3.4c0.3-1,0-2.2-0.1-3.6
			c1,0,2.1-0.1,3.3-0.2c3.4-0.3,5.8-3.2,5.6-6.6c-0.1-1-0.4-2-1-2.9c-1-1.8-3.2-2.5-5.1-1.7c-0.7,0.3-1.3,0.5-2.5,1
			c0.7-1.3,1.1-2.1,1.5-3c1.1-2.4,0.6-4.9-1-6c-2.1-1.2-4.8-0.9-6.5,0.9c-0.7,0.8-1.3,1.6-1.8,2.6c-0.4,0.9-0.8,1.8-1.2,2.8
			c-2.3-1.8-4.5-3.4-7.2-1.2c-2,1.7-2.7,5.3-1.6,8.4c1.1,3.2,2.6,4.1,6.6,4C75.3-158.7,75.4-157.4,75.6-156.2z"/>
		<path id="Trazado_19603" class="st1" d="M307.1-82.4c4.7,6.9,9.7,8.4,16.1,4.8c2.9-1.6,3.9-3.1,3.2-4.7c-1.3,1-2.5,2-3.9,2.9
			c-6,4.1-12.4,1.7-14.3-5.3c-0.1-0.7,0-1.4,0.2-2.1c2.6-9,3.7-18.4,3.5-27.7l-0.8-0.3c-0.4,1-1.1,1.9-1.1,2.9
			c-0.1,7.5-0.5,15-2.7,22.3c-1.7,5.9-4.3,11.3-10.5,13.9c-4.3,1.8-7.6,0.8-10.7-2.7c-0.6-0.5-1.3-0.9-2-1.2c0,0.8,0.2,1.6,0.5,2.3
			c4.3,5.8,12.6,5.9,18.1,0.3C304.5-78.8,305.8-80.6,307.1-82.4z"/>
		<path id="Trazado_19604" class="st1" d="M134.4-193.9c3.5,1.3,3.3,4.2,2.8,6.4c2,1.6,4.2,2.5,5.1,4.2c2.2,3.9-0.2,8-4.9,9.2
			c-0.7,0.2-1.7,0.8-1.8,1.4c-1,3.8-3.3,5.4-7.4,4.8c-3.9-0.5-5.2-2-5.1-6.2v-1.6c-4.9-0.8-7.3-4-6.4-8.5c0.9-4.9,3.8-6.7,8.7-5.6
			C128.3-193.9,131.1-195.1,134.4-193.9z M131.1-169.3c2.4-0.6,3.5-2.8,2.6-5.9c0.8,0,1.6-0.1,2.3-0.1c3.5-0.2,6-2.9,5.7-6
			c-0.4-3.4-3.1-4.9-6.3-3.4c-0.4,0.1-0.8,0.2-1.3,0.3c1.4-3,3.4-6-0.4-8.1c-2.6-1.4-4.7,0.2-7.6,5.5c-2-1.3-4.1-2.8-6.3-0.7
			c-2,2-2.2,4.5-1.4,7c0.8,2.8,2.8,4.1,5.7,3.6C125.3-170.3,127.2-168.3,131.1-169.3z"/>
		<path id="Trazado_19605" class="st1" d="M62.8-117.6c-2-2.9-1.6-6.2,0.3-9.2c1.2-1.9,3-3.3,5.3-2.4c1.7,0.6,2.1,0.1,3-1.2
			c1.6-2.6,5.1-3.4,8-2.1c2.4,1,2.9,2.5,2.3,6.1c0,0.2,0.1,0.4,0,0.2c1.8,1.1,3.5,1.7,4.5,2.8c3,3.4,1,8.4-3.8,9.9
			c-0.9,0.3-2.1,1-2.2,1.7c-0.8,3.9-4,5.1-7.9,4.5c-3.3-0.5-4.4-2-4.5-6.1v-0.6C65.8-115.5,63.8-116.2,62.8-117.6z M78.6-131.4
			c-2.7-1.3-4.7,0-7.7,5.4c-2-1.4-4.2-2.7-6.3-0.6c-1.9,2-2.1,4.5-1.1,7.1c0.9,2.6,2.8,3.7,5.7,3.1c0.2,2.7-0.2,5.6,2.5,7
			c1.3,0.6,2.8,0.7,4.2,0.5c2.2-0.3,3.4-2.8,2.7-5.4c6.4-1.2,8.2-2.9,7.5-6.9c-0.6-2.9-2.3-3.6-6.9-2.8
			C81.1-128.4,81-130.2,78.6-131.4L78.6-131.4z"/>
		<path id="Trazado_19606" class="st1" d="M10.7-44.2c4.1,0.8,7.3,4,8.2,8c1,3.9-0.7,8-4.1,10.1c-2.3,1.5-4.6,0.6-7.1,0.3
			c-5.8-0.7-8.2-3.1-8.2-9C-1.2-42,4.6-45.1,10.7-44.2z M6.3-34.2c0.6-0.4,2.2,0,2.9,0.6c1.2,1,0.5,2.9-1.1,3.8
			c-1.9,1.1-4.9,0.1-6-2.1c-1-2-0.2-4.1,2.1-5.2c3.6-1.7,9.7,1.7,9.5,5.6c-0.1,2-1.9,3.8-3,5.7c2.4,0.1,4.6-1.1,5.9-3.1
			c2.8-3.7,1.8-9.7-2.1-12.7c-4-3.1-10-2.7-12.7,1.1c-2.4,3.3-2.1,7-0.5,10.5c1.1,2.5,3.5,3.6,6.3,3.3c2.2-0.2,4.4-1,5-3.2
			c0.3-1.5-0.1-3.1-1-4.4c-1.4-2-3.9-3-6.3-2.4c-1.6,0.4-3,1.6-2.7,3.5c0.4,2.2,2,2.9,4.6,2.7C5.8-31.7,4.6-32.9,6.3-34.2L6.3-34.2z
			"/>
		<path id="Trazado_19607" class="st1" d="M-40.3,14.8c0.7,0.3,1.5,0.9,2.2,0.8c4.5-0.7,7.4-5.3,6.7-10.3c-0.9-5.7-6.3-9.7-12-8.8
			c-1.4,0.2-2.7,0.7-3.8,1.4c-3.4,2.1-4.6,6.6-3.3,11.6c0.9,3.4,3.5,5.2,7.7,5.4C-42,15-41.1,14.9-40.3,14.8c0.3-0.3,0.6-0.7,1-1
			c3.2-2.4,3.7-5,1.2-7.8c-2.8-3.3-7.2-3.9-9.6-1c-0.8,1.1-1,2.5-0.6,3.7c0.7,1.9,2.6,2.9,4.6,2.5c1.2-0.3,2.2-1.1,2.9-2.1
			c0.3-0.5-0.4-2-1-2.5c-0.4-0.4-1.6,0-2.4,0.1c0,0.9,0.2,1.9,0.3,2.8c0,0.2,0.7,0.3,1.1,0.4c-2.7,0.9-4.4-0.1-4.6-2.2
			c-0.2-1,1-2.8,2.1-3.4c3-1.7,8.1,1.7,8,5.1c-0.1,1-0.5,2-1.2,2.8c-2.5,2.7-7.7,2.3-9.9-0.7c-1.8-2.5-2.1-7.9-0.5-10.5
			c2.2-3.7,7-4.8,11.7-2.8c4,2,6.1,6.5,5,10.8C-33.6,13.1-36.4,15.2-40.3,14.8z"/>
		<path id="Trazado_19608" class="st1" d="M161.6-136.4c-1.3,0.6-2.6,1-3.9,1.4c-4.1,1.4-5.7,3.8-5.6,8.1c0.1,0.6,0.1,1.3,0.1,1.9
			c-0.1,0.6-0.4,1.1-0.6,1.6c-0.5-0.3-1.4-0.5-1.5-1c-0.8-2.4-1.3-4.8-1.5-7.3c-0.1-3.9,1.8-6.2,5.5-7.3c3.3-1,6.6-1.8,10.1-2.7
			C165-138.8,163.6-137.4,161.6-136.4z M150.8-130.8c1.9-5.7,7.3-5.6,11-8C155.1-138.3,149.9-136.4,150.8-130.8z"/>
		<path id="Trazado_19609" class="st1" d="M311.4-118.3c-0.2-14.8-1-29.4-3.7-44c-0.8,4.9,0,9.7,0.4,14.5c0.4,5,0.7,10.1,1.4,15.1
			C310.2-127.9,309.1-122.9,311.4-118.3z"/>
		<path id="Trazado_19610" class="st1" d="M148.5-102.7c10,3.1,18.6,0.6,25.9-6.7c5.7-5.6,8.7-13.4,8-21.4l-1-0.3
			c-0.2,0.9-0.4,1.7-0.5,2.6c-0.5,9.1-4.1,16.6-11.9,21.8c-5.5,3.6-11.6,4.5-18,4.1C150.1-102.7,149.3-102.7,148.5-102.7z"/>
		<path id="Trazado_19611" class="st1" d="M305.6-163.8c0.2-0.6,0.8-1.3,0.7-1.8c-0.7-3.6-6.2-7.9-9.8-7.5c-1.4,0.2-2.7,1-3.5,2.1
			c-0.4,0.5,0.5,2.6,1.3,3.1c3,2,6.2,3.8,9.4,5.5C305.2-161.6,305.3-162.9,305.6-163.8c-3.3-1.8-6.6-3.4-9.9-5.2
			c-0.4-0.4-0.6-1-0.5-1.6c0.4-0.5,1-0.7,1.6-0.7c0.6,0,1.3,0.2,1.9,0.4C302.2-169.8,303.9-166.8,305.6-163.8z"/>
		<path id="Trazado_19612" class="st1" d="M332.5-16.1c5.1-3,11.6-1.2,14.6,3.9c1.9,3.6,2.1,7.2-0.3,10.6c-2.3,3.2-5.4,4.3-9.2,2.7
			c-0.2,0-0.3,0-0.5,0c-5.8-0.5-8.2-3-8.4-9C328.8-11.2,329.4-14.1,332.5-16.1z M341.7-1.7l-1.9,2.4c3.1,0.6,6.1-1.1,7.2-4.1
			c2-4.9-0.4-10.6-5.3-12.6c-2.8-1.1-5.9-0.9-8.5,0.6c-3.4,2-4.7,7.7-2.7,11.9c1.6,3.3,5.5,4.7,8.7,3.1
			C340.1-0.7,340.9-1.2,341.7-1.7L341.7-1.7z"/>
		<path id="Trazado_19613" class="st1" d="M308.3-164c2.6-3.4,4.2-8,9.8-6.9c-0.5,2.9-2.8,3.4-4.5,4.5c-1.7,1.1-3.3,2.1-5,3.1
			l0.6,1.1c1.9-1,3.9-1.9,5.8-3c1.5-0.9,2.9-2,4.1-3.3c1-0.9,1-2.5,0.1-3.4c-0.3-0.3-0.7-0.5-1.1-0.7
			C314.1-174.2,307.6-168.8,308.3-164z"/>
		<path id="Trazado_19614" class="st1" d="M172.2,25.6l-4.6-0.5l0.3,4.3h-3.7l-0.1,0.7l6.1,1.7l-1-5.4l5.5,2.4
			c0.1-4.5-5.5-10.5-9.4-9.3C168.8,20.6,171,22.5,172.2,25.6z"/>
		<path id="Trazado_19615" class="st1" d="M-19.6-79.1c1.6-4-0.1-8.6-4-10.5c-3.6-1.8-8.6-0.4-10.3,2.8c-2.9,5.2,0.1,10.6,5.8,11.6
			c3.3,0.6,5.9,0.4,8-2.4C-19.9-78.1-19.7-78.6-19.6-79.1c-1.7,1.6-3,4.1-6.2,3.8c3.3-4.9,3.4-5,0.9-7.3c1.2,1.7,1.9,3.3,0.3,5
			c-2.3,2.4-6.8,2-8.5-0.9c-1.7-2.6-1.6-6,0.2-8.5c1.5-2.2,4.1-3.2,6.7-2.6c3.2,0.6,5.6,2.4,6.4,5.6C-19.5-82.4-19.5-80.7-19.6-79.1
			z"/>
		<path id="Trazado_19616" class="st1" d="M40,191.9c-0.9,1-1.6,1.5-1.7,2c-1.1,3.7-2.1,7.5-3.1,11.2l0.8,0.4c0.7-1,1.3-2,1.9-3.1
			c1.6-3.7,1.6-3.7,5-6l-2.8-0.6L40,191.9z"/>
		<path id="Trazado_19617" class="st1" d="M28.9,185.3c-3.1-0.4-5.5,1.9-6.2,5.6c-0.8,3.9,1.9,9.6,5.5,10.6
			c-0.3-0.6-0.6-1.2-0.9-1.8C22.5,193.5,22.8,190.3,28.9,185.3z"/>
		<path id="Trazado_19618" class="st1" d="M280.9,200.7c3.9-0.9,6.7-6.9,5.8-11c-0.8-3.5-3.5-5.8-6.6-5.2
			C288.7,189.3,285.7,194.9,280.9,200.7z"/>
		<path id="Trazado_19619" class="st1" d="M382.4-52.6c-1.5-3.2-4.2-4.1-7.4-4c-2.8,0.1-5.3,1.2-6.4,4c-1.4,3-0.9,6.5,1.2,8.9
			c1.1,1.4,5.9,2.8,6.7,2c1.4-1.4,3.7-2.5,3-5.1c-0.1-0.1-0.1-0.2-0.2-0.3c-0.6,3.4-2,4.7-5,4.7c-2.8,0.1-4.6-1.6-5.3-4.7
			c-0.8-3.6,0.2-6.5,2.7-8c3-1.6,6.6-1.1,9.1,1.1C381.3-53.5,381.9-53.1,382.4-52.6L382.4-52.6z"/>
		<path id="Trazado_19620" class="st1" d="M50.7-101.7l-7-13.2C42.4-110.9,46.8-102.8,50.7-101.7z"/>
		<path id="Trazado_19621" class="st1" d="M40.6-78c2.5-4.2,4.1-4.5,9.3-1.7c-0.1-2.5-3.8-4.7-6.3-3.5c-1.4,0.8-2.7,1.8-3.8,3
			c-0.4,0.4-0.1,1.5-0.1,2.3L40.6-78z"/>
		<path id="Trazado_19622" class="st1" d="M26.5,251c-2.3,0-4.5,0.4-6.5-0.1c-2.5-0.6-2.6-3-2.4-5.2l-0.8-0.1
			c-0.2,1-0.7,2.1-0.5,3.1c0.3,2.2,2.1,3.8,4.3,4C22.8,252.9,25,253,26.5,251z"/>
		<path id="Trazado_19623" class="st1" d="M291.8,244.4c0,2.8,0,5.3-2.6,5.8c-1.9,0.4-4.1-0.2-6.7-0.4c1.1,1.5,2.9,2.4,4.7,2.3
			c2.3,0.3,4.6-1,5.6-3.1C293.5,247.6,293.8,246.1,291.8,244.4z"/>
		<path id="Trazado_19624" class="st1" d="M294.7,209.1c2.8,0.4,5.5-0.4,7.7-2.2c1.9-1.2,2.6-3.6,1.9-5.7c-1.3,1.8-2.3,3.9-3.9,5.1
			c-1.6,1.2-3.9,1.5-5.9,2.1L294.7,209.1z"/>
		<path id="Trazado_19625" class="st1" d="M15.5,209.3c-4.5-1.4-9.4-1.6-9.5-7.5c-1.3,1.1-1.4,3-0.4,4.3
			C7.3,208.8,11.6,210.5,15.5,209.3z"/>
		<path id="Trazado_19626" class="st1" d="M325.1,30.3c-0.1-0.7-0.4-1.4-0.8-2c-3.4-3.9-6.6-5.6-8.5-4.6l8.5,6.7L325.1,30.3z"/>
		<path id="Trazado_19627" class="st1" d="M50.6,206.8c-3,5.2-7.3,6.8-13,5c2,2.2,4.6,2.4,7.1,1.6C47.8,212.6,50.2,210,50.6,206.8z"
			/>
		<path id="Trazado_19628" class="st1" d="M104.6-211.5c1.1,1.7,3.7,1.5,9.6-0.7C112.9-213.9,107.9-213.6,104.6-211.5z"/>
		<path id="Trazado_19629" class="st1" d="M303.3-72.4c-0.2,2.9,1.3,4.5,3.9,4.6c2.6,0.1,4.9-1.7,4.7-4.4
			C309.1-68.9,306.1-68.6,303.3-72.4z"/>
		<path id="Trazado_19630" class="st1" d="M258.8,206c0.3,2.9,2.3,5.4,5.1,6.3c2.6,1.2,5.8,0.8,7.9-1.2
			C266.2,212.7,261.7,211.5,258.8,206z"/>
		<path id="Trazado_19631" class="st1" d="M374.1-45.3c-3.7-0.7-4.3-2.1-2.3-4.9l-0.5-0.3c-0.4,0.9-1.5,2.1-1.2,2.7
			c0.7,1.3,1.7,2.4,3,3.1c0.6,0.3,2.1-0.3,2.7-0.9c0.4-0.8,0.4-1.8,0-2.6c-0.1-0.4-1.4-0.3-2.1-0.4c0,0.8-0.1,1.6,0,2.4
			C373.6-45.9,373.8-45.7,374.1-45.3z"/>
		<path id="Trazado_19632" class="st1" d="M37.5-81.9c1.4-1.5,1.4-1.5-1.4-5.6C34.3-86.2,34.7-84.8,37.5-81.9z"/>
		<path id="Trazado_19633" class="st1" d="M311,20.2l-9.5-0.7C303.2,21.7,307.9,21.9,311,20.2z"/>
		<path id="Trazado_19634" class="st1" d="M37.3,183.4c-1.5,2.7,1.2,4.2,0.8,6.5C40.1,188.1,39.9,186.8,37.3,183.4z"/>
		<path id="Trazado_19635" class="st1" d="M31.9,179.6c-2.4-0.8-4.3-1.5-6.4,0.2C27.3,181.1,30.3,181.1,31.9,179.6z"/>
		<path id="Trazado_19636" class="st1" d="M382.4-52.7l0.5,8C384.5-46.3,384.4-50.6,382.4-52.7L382.4-52.7z"/>
		<path id="Trazado_19637" class="st1" d="M-39,116.4l4.5,0.6l0.2-1.1l-4.4-0.7L-39,116.4z"/>
		<path id="Trazado_19638" class="st1" d="M269.2,123.1h4.4C272.2,121.3,270.9,121.4,269.2,123.1z"/>
		<path id="Trazado_19639" class="st1" d="M76.8-165c0-2.6,2.1-4.6,4.6-4.6c0,0,0,0,0,0c3-0.1,5,1.7,5,4.4c-0.1,2.7-2.3,4.9-5,4.9
			C78.9-160.4,76.8-162.4,76.8-165z M81.9-161.9c1.8-0.3,3.1-2,2.8-3.9c-0.3-2.1-2-2.2-3.5-2.1c-1.6,0-2.9,1.4-2.8,3
			c0,0,0,0.1,0,0.1C78.7-163.1,80.2-161.8,81.9-161.9L81.9-161.9z"/>
		<path id="Trazado_19640" class="st1" d="M125.7-181.4c0-2.2,1.8-3.9,4-3.9c0,0,0.1,0,0.1,0c2.5,0,4.4,1.8,4.3,4
			c-0.2,2.4-2.2,4.1-4.6,4.1c-2.1,0-3.8-1.6-3.8-3.7C125.7-181.2,125.7-181.3,125.7-181.4z M129.7-178.8c1.8,0.3,2.8-1.1,2.9-2.8
			c0.1-1.7-1.1-2.2-2.6-2.2c-1.7,0-2.8,0.7-3,3.3C127.7-180,128.6-179,129.7-178.8L129.7-178.8z"/>
		<path id="Trazado_19641" class="st1" d="M74.6-124.5c2.5,0.1,4.1,1.8,4,3.9c-0.2,2.3-2.1,4-4.5,4c-2.1,0-3.8-1.8-3.7-3.9
			c0-0.1,0-0.1,0-0.2c0-2.2,1.7-3.9,3.9-3.9C74.4-124.5,74.5-124.5,74.6-124.5z M71.9-120.5c-0.3,1.1,0.4,2.2,1.5,2.5
			c0.3,0.1,0.6,0.1,0.9,0c1.2-0.5,2.2-1.5,2.7-2.8c0.2-0.4-1.2-1.6-2.5-3.1C73.4-122.4,72.2-121.6,71.9-120.5z"/>
		<path id="Trazado_19642" class="st1" d="M341.7-1.7c1.9-0.7,1.6-2.3,1.4-3.7c-0.7-3.8-6-6.5-9.4-4.7c-1.3,0.7-2.2,2-2.4,3.5
			c0.2,1.4,1,2.6,2.3,3.3c1.5,0.5,3.1,0.5,4.5-0.1c1.6-0.7,1.5-3.3,0-4c-0.9-0.3-1.8-0.2-2.6,0.3c-0.4,0.3-0.2,1.5,0,2.3
			c0.1,0.4,0.6,0.7,1,1.1c-2.5,0.2-4.2-1-4.3-2.8c-0.1-1.9,1.7-3.5,3.9-3.6C340.2-10,342.9-6.2,341.7-1.7L341.7-1.7z"/>
		<path id="Trazado_19643" class="st1" d="M-28.9-78.9c-3.5-0.7-4.1-2.4-2.1-5l-0.7-0.3c-0.4,1-1.4,2.2-1.1,2.8c0.6,1.3,1.7,2.3,3,3
			c0.7,0.3,2.1-0.4,2.8-1.1c0.4-0.3,0.2-1.8-0.2-2.3c-0.3-0.4-1.4-0.3-2.2-0.4c0,0.8,0,1.6,0,2.4C-29.1-79.4-29-79.1-28.9-78.9z"/>
	</g>
</g>
</svg>
