<?xml version="1.0" encoding="utf-8"?>
<!-- Generator: Adobe Illustrator 23.0.2, SVG Export Plug-In . SVG Version: 6.00 Build 0)  -->
<svg version="1.1" id="Capa_1" xmlns="http://www.w3.org/2000/svg" xmlns:xlink="http://www.w3.org/1999/xlink" x="0px" y="0px"
	 viewBox="0 0 601 797.4" style="enable-background:new 0 0 601 797.4;" xml:space="preserve">
<style type="text/css">
	.st0{opacity:0.5;}
	.st1{fill:#333333;stroke:#333333;stroke-width:3;}
</style>
<g id="Grupo_340" transform="translate(135.604 161.638)" class="st0">
	<path id="Trazado_19535" class="st1" d="M356.8,243.1c-2.4,3-4.9,6-7.1,9.1c-6.6,9.3-7.9,19.8-5,30.4c4.8,17.6,6.4,35.9,4.9,54.1
		c-0.2,2,0,4,0,6.2l4.7,0.6c0.2-0.4,0.3-0.7,0.5-1.1c1.3-14.2,2.6-28.5,4-42.7c1-11.7,3.5-23.2,7.4-34.2c1.1-2.4,2.3-4.8,3.6-7.1
		l1.1,0.6c-0.3,0.7-0.6,1.5-0.8,2.2c-2,5.7-4.5,11.3-5.9,17.1c-5.1,20.9-5.9,42.5-7.7,63.8c-0.1,0.7,0.6,2.1,1.2,2.2
		c4.3,0.9,8.6,1.6,13.5,2.5c-1.2-13.7,0.2-27.5,4.2-40.6c4.3-14.5,13.8-33.7,18.1-36.1c-1.4,2.9-2.7,5.6-4.1,8.2
		c-6.7,12.6-12.1,25.6-14.9,39.7c-1.7,8.8-2.6,17.6-1.4,26.5c0.1,1,0.6,2.5,1.2,2.7c3.2,0.8,6.4,1.2,9.8,1.8c0-1.1,0-1.4,0-1.7
		c-0.1-0.7-0.3-1.5-0.4-2.2c-1.8-11.6-3.1-23.2-0.8-34.9c3-15.3,10.4-28.3,20.3-40c3-3.3,5.5-7,7.5-10.9
		c5.7-12.2-4.1-26.8-17.5-26.4c-8.8,0.2-17.5,2.2-25.6,5.6c-0.9,0.4-2.2,0.1-3.3,0.1l0-0.9l7-3.3l-0.2-0.8l-22.1,3.2
		c1.2-1,2.6-1.7,4.1-2c13.7-3.3,27.7-3.6,41.7-3.1c13.8,0.4,23.4,14.7,17.6,27.3c-2.6,5.7-6.8,10.7-10.7,15.7
		c-6.8,8.8-12.3,18.2-15.6,28.9c-4.1,13.5-3,27-1,40.6c0.8,5.4,0.9,5.3,6.4,6.3c3.6,0.7,6.6,1.6,7.6,6.1c2.6,12.3,2.8,25.1,0.7,37.5
		c-0.9,5.3-1,5.3-6.4,6.1c-1.1,0.3-2.1,0.4-3.2,0.4c-2.6-0.2-3.2,1.2-3.4,3.5c-1.1,12.4-2.4,24.8-3.6,37.2c-0.2,1-0.5,2-0.9,2.9
		l-0.5-0.2l3.7-42.7c-7.6,0.9-15.1-0.3-20.9,5.5c-0.9,0.8-2,1.4-3.1,1.7c-0.8,0.1-1.5,0.2-2.3,0.1l-0.2-0.9
		c6.8-2.3,11.2-7.2,15.3-12.6c5.6-7.5,11.1-15.2,16.5-22.8c0.5-0.8,0.3-3-0.3-3.4c-1.5-1-3-0.9-4.2,1.2c-2.8,5.4-5.9,10.6-9.2,15.6
		c-5,7.4-10.7,14.2-18.7,18.6c-1.1,0.5-2.3,0.8-3.4,1.1l-0.3-0.9c8.4-3.8,14.3-10.3,19.6-17.6c0.6-0.8,0.9-1.8,0.8-2.8
		c-1-4.1-2.3-8.1-3.5-12.2c-2.3,0.6-3.4,3.1-2.1,5.7l-5.2,2c0.1-0.4,0.2-0.9,0.3-1.4c0-0.8-0.1-1.6-0.1-2.4c-0.7,0.3-1.9,0.4-2.2,1
		c-0.7,1.5-1.3,3-1.8,4.6l-3.2,0.7l-0.4-3.9c-1.2,0.2-2.4,0.3-3.6,0.6c-1,0.3-2,0.7-2.9,1.1c-0.3,7.9-5,14.7-9.6,14.1
		c2.2-2.4,4.6-4.6,6.6-7.2c0.9-1.1,2-2.9-0.3-4.1c-1.8-0.9-3.5-2.6-5.5,0.3c-1.8,2.5-4,4.9-6.3,6.9c-1.8,1.4-3.8,2.7-5.8,3.9
		l-0.5-0.7c1.1-0.8,2.2-1.7,3.2-2.7c3.4-3.6,7.1-7,9.9-11c3.2-4.5,2.5-7.9-1.3-12.4c-2.3,3.1-4.4,6.3-6.9,9.2
		c-4.2,4.9-6.4,6.1-9.5,5.5c0.4-0.4,0.9-0.7,1.4-1c5.5-2.9,9.2-7.4,12.3-12.6c1.5-2.5,1.8-4.7,0.2-7.4c-3.6-6.1-6.7-12.6-10.3-18.7
		c-8-13.7-15.3-28-24.6-40.8c-10.5-14.4-22.8-27.4-34.4-41c-1.3-1.2-2.8-1.9-4.5-2.1c-6.4-0.9-12.9-0.1-18.8,2.4
		c-7.7,3-15.3,6.6-23.3,9c-11.2,3.5-22.7,3.8-33.9-0.1c-5.4-1.9-9.8-2.1-14.9,0.8c-8.7,5-17.9,9.2-25.2,16.4
		c-1.5,1.5-2.7,3.2-4.4,5.3c-0.1-1.1-0.2-1.5-0.1-1.8c0.3-0.7,0.7-1.3,1.2-1.9c8.8-10.7,21.5-15.5,33.2-22.5c-2-0.6-4-1.2-5.8-0.8
		c-4.2,1.1-8.2,2.7-12.2,4.2c-0.8,0.3-1.9,0.6-2.1,1.1c-0.9,3.1-3.5,4.2-6,5.6c-8.7,4.6-17.2,9.5-26.1,13.7
		c-12.4,5.9-24.9,11.4-37.7,16.6c-2.9,1.2-3.4,2.2-3,5c1.1,7.5,1.9,15,2.9,22.5c0.2,1.2,0.7,2.3,1.4,3.2
		c10.2,12.7,23,21.1,38.9,24.5c15.9,3.4,32,4.3,48.2,4.2c8.8-0.1,17.5-1.1,26-3.1c20.8-4.8,38.5-15.5,53.8-30.5
		c2.5-2.4,5-4.8,3.2-8.8l0.6-0.4c9.7,23,25.8,41.2,43.9,57.9c-1.4-0.3-2.6-1-3.6-1.9c-6.3-6.4-12.5-12.8-18.8-19.2
		c-0.8-0.8-1.9-1.8-2.8-1.7c-4.3,0.4-8.5,1.2-12.3,1.7l-1.7,52.9l63.5-6.7l0.1,1.3c-10.5,1.2-21,2.4-31.6,3.5
		c-10.1,1.1-20.3,2.1-30.4,3.2c-1.1,0.3-2,1.1-2.3,2.2c-0.8,4.9-1.1,9.9-1.8,14.8c-0.2,1.8-0.9,3.5-1.8,5c-2.3,3.8-2.5,3.7,1,6.7
		c0.9-0.4,1.8-1.2,2.6-1.2c6.6,0.6,13.1,1.2,19.7,2.1c6.7,0.8,12.9,2.9,17.7,8c2.6,2.8,2.2,5.2-1.1,7c-4,2.1-8.1,4.2-12.1,6.2
		c-10.1,4.8-19.7,11.5-32,8.6c-0.2,2.9-1.9,3.1-4.1,3.1c-4.3-0.1-8.7,0.1-13,0.1c-4.2-0.1-4.6-0.5-5-4.6c-0.3-4.2-0.7-8.4-1-12.6
		c-0.2-2.3-0.3-4.5-0.2-6.8c0-0.8,0.3-1.6,0.9-2.2c1.6-1.6,1.6-5-0.5-5.8c-2.6-1-2.8-2.9-3.2-5.1c-1.1-6.3-2.2-12.6-3.3-18.9
		c-0.3-1.6-0.7-2.5-2.7-2.3c-22.6,2.5-45.2,4.9-67.8,7.3c-20.9,2.2-41.8,4.1-62.7,7c-10.1,1.4-19.1-0.6-27.9-5
		c-3-1.5-6.2-2.8-9.7-4.3c-0.1,0.9,0,1.7,0,2.6c1.3,8.2,2.7,16.5,3.9,24.7c3.2,20.7,10.2,40.2,18.8,59.2c1.2,2.7,2.7,3.9,5.4,3.9
		c9.7,0,19.5,0.6,29.2,0c24-1.5,48-3.3,72-5.3c16.8-1.3,33.7-3,50.5-4.5c15.1-1.4,30.2-2.9,45.3-4.4c14.4-1.5,28.9-3.1,43.3-4.7
		c15.4-1.7,30.7-3.8,45.6-8.3c2.2-0.5,3.9-2.3,4.2-4.6c1.9-9.7,3.8-19.3,5.7-29c0.3-1.5,0.7-3,1.1-4.6l1,0.2c0.1,0.6,0,1.2,0,1.8
		c-2.1,10.9-4.3,21.9-6.4,32.8c-0.5,2.7-1.7,4.3-4.4,4.6c-2.3,0.3-3.1,1.6-3.3,3.9c-0.6,5.7-1.5,11.4-2.3,17c-2.2,15-4.5,30-6.7,45
		c-0.6,3.9-2.6,6.3-6,6.4c-3.1,0.1-5-1.8-5.8-5.7c-3.5-18.5-5.7-37-5.6-55.9c0-1.3,0-2.5,0-4c-1.9,0.1-3.3,0.1-4.7,0.3
		c-10.6,1.2-21.1,2.5-31.6,3.6c-16.4,1.8-32.7,3.7-49.1,5.2c-21.9,2.1-43.8,4-65.7,5.7c-23.9,1.9-47.7,3.8-71.6,5.4
		c-2.8,0.2-3.5,1.1-3.7,3.8c-1.3,20.3-2.9,40.6-4.4,61c-0.4,3.5-3.4,6.1-6.9,6c-3.4,0-6.3-2.5-6.8-5.8c-1-7.3-1.6-14.6-2.7-21.9
		c-2-13.1-4.2-26.1-6.3-39.1c-0.3-1.9-1.3-2.4-3-2.7c-2.7-0.5-5.3-1.2-7.8-2.3c-11.8-4.8-22-12.4-32.2-19.9
		c-4.4-3.3-8.8-6.5-13.6-10.1c-0.5,1.9-0.8,3.1-1.1,4.3c-2.1,8.5-4.1,17.1-6.2,25.6c-0.8,3.3-3.2,4.8-6.5,4.4
		c-3.1-0.2-5.4-2.7-5.4-5.8c-0.5-11.3-1-22.5-1.4-33.8c0-1.5,0.2-3,0.5-4.5l1,0.1c0.2,2.3,0.5,4.7,0.6,7c0.4,10,0.8,19.9,1.1,29.9
		c0.1,2.8,0.8,4.7,3.8,5c3,0.3,4.3-1.4,4.9-4.3c1.8-8.2,3.8-16.5,6-24.6c0.7-2.6,1.6-4.8-1.3-6.6c0.1-0.4,0.3-0.7,0.4-1.1
		c16.5,11,31.1,24.8,49.7,32.4c-0.7-2.4-1.6-4.8-2.6-7.1c-3.4-8.6-7.4-17.1-9.9-26c-3.2-11.2-5.5-22.7-7.8-34.2
		c-1.6-8.1-2.8-16.2-3.6-24.4c-1.8-19.7-2.8-39.6-4.9-59.3c-1.1-10.4-3.7-20.7-5.5-31c-0.1-1-0.1-2.1,0-3.1l1.4,0l6.8,36.9
		c3.1-1.9,6-3.8,9.1-5.5c1.6-0.8,1.9-1.7,1.4-3.3c-1.3-3.9-2.4-7.9-3.5-11.8c-0.3-1.2-0.5-2.4-0.6-3.7l1.1-0.2
		c0.3,0.7,0.6,1.4,0.9,2.1c1.3,4.4,2.6,8.7,3.8,13.1c0.5,1.7,1.1,2.6,3.2,2.1c2.3-0.5,4.8-0.4,7.1-0.8c1.4-0.4,2.7-1,4-1.7l5.5,3.2
		c-1.7,0.2-2.8,0.5-3.8,0.6c-4.4,0.3-8.9,0.4-13.3,0.9c-5.1,0.6-9.7,2.6-13.3,7.2c33,1.9,65.4,1.6,98,0.7
		c-24.1-1.9-46.4-7.7-62.6-28.7l-1.1,14.3l-1-0.1c-0.1-0.4-0.1-0.8-0.2-1.2c2.3-28.3-4.6-54.9-15.3-80.6
		c-5.5-13.2-15.8-21.2-30.3-22.2c-5.8-0.4-11.7,1.2-17.6,1.9c-4,0.4-7.4,3.1-8.7,6.9c-3.8,9.5-3.1,18.9,2.6,27.3
		c4.9,7.2,10.9,13.6,16.4,20.4c2,2.5,3.9,5.1,5.8,7.6l-1.1,0.9c-1.2-1.3-2.4-2.6-3.5-3.9c-1.6-1.9-2.8-3.9-5.8-4.7
		c-15.9-4-31.9-8-47.6-12.7c-9.7-2.8-14.4-16.5-9.5-25.4c0.4-1.1,0.5-2.2,0.1-3.3c-1.6-7-4-13.8-4.9-20.8c-2.3-18.5-3.9-37.1-6-55.6
		c-4.1-35.7-8.5-71.4-12.8-107.1c-0.5-4-1-7.9-1.5-11.9l1.1-0.2c0.4,1.1,0.7,2.3,1,3.5c2.5,19.6,5.2,39.1,7.5,58.7
		c2.5,20.5,4.7,41.1,6.9,61.7c2.1,20.1,3.1,40.4,7.5,60.3c0.9,3.9,2,7.8,2.9,10.9l21-7.6c-0.2-0.8-0.5-1.6-0.7-2.4
		c-6.1-16.1-9.5-33.2-10-50.5c-0.6-34.8-0.2-69.6-0.2-104.4c0.2-0.9,0.4-1.7,0.8-2.5l1.2,0.2c0,9,0,18,0,26.9
		c-0.1,24.8-0.6,49.7-0.2,74.5c0.2,18.5,3.4,36.7,9.6,54.2c1,2.7,1.9,3.6,5,2.8c9.9-2.7,19.9-5.3,30-7.2
		c18.2-3.3,33.8,5.1,42.4,22.2c0.5,0.9,1,1.8,1.5,2.8c0.3-1.4,0.4-2.8,0.2-4.2C72.3,247.2,71,227.1,70,207c-0.1-2.9-0.9-5.7-2.5-8.1
		c-2-3.1-3.6-6.4-4.7-9.9c-4.4-13.2-3.1-26.5-0.3-39.7c2.7-12.6,8.7-23.7,16.3-33.9c12.3-16.5,27.9-29.5,45.2-40.5
		c1.1-0.7,2.7-1.8,2.8-2.8c0.4-3.8,2.3-6.4,5.7-8.3c-0.4-0.4-0.9-0.8-1.4-1.1c-17.4-10.6-31.2-24.4-39.7-43.2c-0.8-1.2-2-1.9-3.4-2
		c-41.1,0.3-82.1,2.9-123.1,5.7c-2.6,0.2-5.2,0.5-8.6,0.8C-36,31-30.9,39.1-26.6,47.7c6.4,12.7,9.4,23.3,8.3,26.9
		c-0.2-0.1-0.5-0.1-0.6-0.2c-0.3-0.8-0.6-1.6-0.8-2.4c-2-9.6-5.6-18.9-10.6-27.4c-4.7-8.3-9.9-16.2-18-21.8
		c-9-6.2-21.7-7.3-29.6,1.6c-0.3,0.3-0.9,0.3-1.3,0.4l-0.6-0.7c1.2-1.5,2.6-2.8,4.1-4c9-6,18-4.4,27.1,0.3c1.7,0.9,3.5,1.4,5.4,1.4
		c8.7-0.4,17.3-1.2,26-1.6c34.5-1.5,69.1-3,103.6-4.5c1-0.1,2-0.2,2.8-0.3C87.7,9,86,3.1,84.9-3c-2.2-12-2.2-24.3,0.1-36.2
		c0.2-1.3-0.1-2.5-0.8-3.6c-8.6-12.9-9-26.1-1.2-39.5c2.3-4,5.5-7.5,8.2-11.3l1.2,0.5c0.3,1.6,0.7,3.3,0.9,4.9
		c0.7,8.3,4.6,14.7,11.3,19.6c0.8,0.5,1.8,0.7,2.7,0.4c8.9-4.6,18.4-6.9,28.2-8.2c1.8-0.2,2.3-0.9,2.2-2.7
		c-0.6-12.1,4.9-21.4,13.8-29c1.2-1,2.5-1.8,3.7-2.7c0.4,0.6,0.6,0.8,0.6,1c0,0.8,0,1.5-0.1,2.3c-1,7.6,1.2,15.3,6,21.3
		c2.8,3.6,5.5,7.5,10.6,8.4c11.1,1.9,22.2,3.8,33.3,5.7c1.1,0.3,2.3,0.2,3.3-0.2c5.8-2.9,8.1-2.4,12.3,2.6c1.5,1.7,3.3,3,5.4,3.8
		c5.8,2.3,11.9,3.9,17.6,6.5c19.5,8.8,38.9,17.8,58.3,26.9c3.8,1.8,8.2,3.5,10.6,6.6c5.3,6.8,8.4,15,9,23.6
		c1,12.4-3.2,23.6-8.2,34.7c-5.1,11.3-12.1,21-23,27.2c-3.2,1.6-5.4,4.7-6,8.2c-2.2,10.1-5.2,20.1-7.8,30.1
		c-0.8,2.9-1.6,5.7-2.6,9.4c3.3-1.1,5.8-2.1,8.3-2.7c4.6-1.2,9.1-3,13.8-3.2c9-0.3,16-4.2,21.8-10.6c3.9-4.3,8-8.1,13.4-10.5
		c8.2-3.7,16.8-2.5,25.3-1.7c0.8,0.1,2,1.4,2.2,2.3c1.2,5.5,2.8,11,3.1,16.6c1.2,20,1.9,40,2.8,60.1c0.1,1.2,0,2.5,0,3
		c2.8,1,5.3,1.2,6.8,2.6c4,3.4,5.3,8.1,4.6,13.2c-0.5,4.6-3.8,8.4-8.3,9.4c-2.6,0.7-3,1.9-3,4.3c0,10.3-0.1,20.6-0.2,30.9
		c0,1.2-0.2,2.4-0.4,4.1c-9.7-4.2-17.8-0.5-25.8,3.6c7-6,14.9-8.4,24.2-6c0.2-0.8,0.4-1.6,0.5-2.4c0.1-10.6,0.3-21.2,0.2-31.9
		c-0.3-1.2-1.1-2.3-2.2-2.8c-4-1.6-7.2-4.6-9.1-8.4c-2.1-4.4-2.9-9-0.5-13.5c2.5,0.4,4.6,0.8,6.7,1c4.4,0.5,5.2-0.3,5.1-4.8
		c-0.3-13.7-0.3-27.3-1.2-41c-0.7-11.5-2.4-23-3.7-34.5c-0.3-2.8-1.5-4.2-4.6-4.7c-14.2-2.2-25.9,1.3-35.3,12.7
		c-5.4,6.5-12.7,10.4-21.6,10.2c-2.3-0.1-4.5,0.2-6.7,0.8c-6.5,2.1-12.9,4.5-19.3,6.6c-1.7,0.6-2.4,1.4-2.1,3.3
		c0.8,4.9,1.4,9.9,2.1,14.8c3.4,23.4,6,46.8,7.1,70.5c0.9,20.5,2.6,40.9,3.9,61.3c0.1,0.4,0.3,0.9,0.6,1.3c1-0.5,1.9-0.8,2.8-1.2
		c6.1-3,12.2-6.1,18.4-8.9c4.3-2,8.8-3.6,13.2-5.4c6.4-2.7,10.6-8.1,15.4-12.7c1.1-1,2.3-1.8,3.5-2.6l1.2,1.4l-7.8,6.2l0.6,0.8
		l15.9-2.5c-0.2,0.8-0.5,1.1-0.9,1.2c-1,0.3-2.1,0.6-3.2,0.8c-7.9,1.3-15.9,2-22.2,7.8c-0.1,0.1-0.2,0.1-0.3,0.1
		c-12.1,5.6-24.1,11.2-36.2,16.6c-1.1,0.5-2.9,0-4.2-0.4c-2.5-0.8-5-1.9-7.5-2.8c-0.1,0.6,0,1.2,0.4,1.7c9.4,11,19.7,21.4,28.1,33.1
		c9.4,12.9,17.2,26.9,25.4,40.6c1.8,3,3.7,4.6,7.2,5c4.9,0.6,9.7,1.6,14.8,2.5c0.1-1.1,0.3-1.7,0.3-2.3c0.6-19.4,0.8-38.7-4.6-57.7
		c-3.3-11.8-1.3-23.3,6.7-33.1C351.7,246.9,354.5,245.2,356.8,243.1L356.8,243.1z M86-35.1c-4.6,35.4,5.6,65.4,34,88.2
		c19.5,15.6,42.1,23.4,66.9,25.6c20.7,1.9,41.7,0.6,62-3.9c15-3.4,29.4-9.2,42.4-17.3c9.7-5.9,15.8-14.8,20.6-24.8
		c5.3-10.9,9.3-22.1,8.6-34.6c-0.5-8.5-3.8-15.9-8.1-23c-0.7-0.9-1.7-1.7-2.8-2.1c-29-16.1-59-29.8-90.7-39.8
		c-2.4-0.7-4.8-1.4-7.1-2.2c-3-1.1-5.3-0.1-6.3,2.6c-1.2,3.2-2.1,6.5-2.8,9.9c-0.1,0.9,0.2,1.9,0.8,2.6c4.7,5.9,4.3,12.2,1.6,18.6
		c-0.5,1.1-2.3,2.5-3.4,2.4c-1.5-0.3-2.8-1.3-3.5-2.7c-2.5-6.5-2.9-12.8,2-18.6c0.6-0.8,0.9-1.7,0.9-2.7c0.1-4.9,1.9-9.7,5.2-13.4
		c-3.7-0.9-6.9-2.1-10.2-2.5c-10.5-1.4-21-2.5-31.5-3.8c-2.5-0.5-5-1.1-7.5-2c-0.7-0.2-1.8-0.8-2-0.6c-3.8,3.7-8.8,2.8-13.3,3.6
		c-4.9,0.9-9.9,1.5-14.7,2.5c-8.5,1.7-16.6,4.9-23.9,9.6c-1.1,0.7-2.5,1.1-3.9,1c-2.2-0.3-3.3,0.1-3.2,2.6c0.1,2.4-0.4,4.3-3.7,3.1
		C90.2-49.4,87-42.4,86-35.1z M152.7,145.2c1.4,16.4,3,32.8,4.3,49.2c0.2,3.1,1.4,5,4.3,6c3.2,1,6.4,1.5,9.1-1.2
		c0.6-0.7,1.2-1.5,1.7-2.3c3.3,5.7,4.4,11,2.4,16.6c-2.2,6.3-6.7,9.9-14.3,9.4c0.6,4.7,1.3,9,1.7,13.4c0.1,1-0.7,2.1-1,3.2
		c-0.3,0.9-0.5,1.8-0.6,2.8c-0.2,2.8-0.4,5.6-0.5,8.4l-1.1,0.1c-0.1-2.3-0.3-4.7-0.2-7c0.1-5.3,0.6-10.6,0.6-15.9
		c0-5-1.9-7.3-6.5-8.7c-0.9-0.2-1.8,0.1-2.5,0.7c-1.7,4-5.3,4.3-8.9,4.9c-9.4,1.6-18.8,0.4-28.1-1.1c-11.8-1.9-23-5.2-33-11.9
		c-2.8-1.9-5.4-4.2-8.5-6.7c-0.1,1-0.2,2-0.2,3.1c0.7,12.9,1.3,25.8,2.1,38.6c0.6,9.2,1.3,18.4,2.2,27.5c0.4,3.3,1,6.6,1.9,9.8
		c2,7.1,4.2,14.1,6.5,21.8c4.3-1.6,8.6-2.9,12.6-4.8c18.4-9,36.8-18.1,55.2-27.2c2.6-1.1,4.4-3.7,4.6-6.5c0.3-3.2,0.7-6.5,1.1-9.7
		c0.1-1.2,0.4-2.5,1-3.6c1.5,4.4-0.5,8.8-0.4,14l13.3-4.6l0.5-1c-10.4-3.3-8.9-12.2-10.8-19.5l1-0.5c0.4,0.8,0.8,1.6,1.1,2.4
		c3.1,15.2,0.7,11.5,13.3,18.4c18.9,10.3,38,9,57.2,0.5c5.5-2.5,11.2-4.6,17-6.4c8.9-2.5,17.6-0.5,26,2.7c1.1,0.4,2.2,0.8,3.8,1.5
		c0-1.7,0.1-3,0-4.2c-2-30.1-3.7-60.1-6.2-90.2c-1.5-17.9-4.5-35.7-6.8-53.5c-0.2-2-1.4-2.5-3-2.8c-16.7-3-32.9-2.4-47.2,8
		c-11.2,8.2-23.8,10.4-37.2,9.5c-9.8-0.7-19.2-2.9-28-7.6c-0.2-0.1-0.6,0-1.3,0C151.5,129,152,137.1,152.7,145.2z M158.7,122.1
		c3.6-7.3-1.1-16-8.7-16.1c-3.8-0.1-7.7,0.8-12.3,1.3l-11.1-32.5c-6,4.3-12.2,8.3-18,12.7c-16.4,12.6-30,27.7-39.1,46.5
		c-6.4,13.2-9.1,27.9-7.8,42.6c1.7,20.2,12.9,33.4,31.5,40.1c8.4,3,17.4,4.3,26.1,6.3c1.2,0.2,2.4,0.2,3.6,0.2
		c-2.6-7-1.9-13.4,0.3-19.8c0.6-1.7-0.2-2.4-1.8-3c-8.7-3.7-16.6-8.7-21.7-16.9c-7.1-11.4-6-23.4-1-35.2c1.7-4.1,4.1-7.8,6.3-11.7
		l1.3,0.7c-0.7,1.2-1.2,2.4-2,3.6c-4.1,6.3-6.8,13.4-7.7,20.8c-1.7,15.5,5.5,26.2,18.3,33.7c9.1,5.3,18.6,8.6,29.5,6.3
		c1.2-0.3,3,1.2,4.2,2.2c0.8,0.7,1.1,2,1.6,2.8c1.8-2.6,3.6-5,5.2-7.6c0.3-0.9,0.4-1.9,0.2-2.8c-2.1-25-4.1-50.1-6.2-75.1
		c-0.1-1,0-2,0-3.5L158.7,122.1z M54.7,410.5c0.1,0.5,0.1,1.1,0.1,1.6c-1.2,6.8,1.9,10.5,8.2,12.6c6.1,2,12,4.8,18.8,7.5l1.1-19.3
		l0.9,0c1.5,6,0.4,12.2,0.4,18.9c47.3-5.1,94.1-10.1,141.3-15.1c-0.1-1.6-0.1-3-0.3-4.3c-1.7-9.8-3.2-19.7-5.2-29.4
		c-1.5-7.5-6.7-11.9-13.8-14.5c-7.8-2.9-15.6-1.3-23.5-0.9c-37,2.3-74.1,2.6-111.1,1c-5.5-0.3-11-0.6-16.5-0.9c-1.1-0.1-2.1,0-3.2,0
		C52.9,382.2,53.8,396.4,54.7,410.5L54.7,410.5z M207.3,367.4c8.2,2.8,13.1,8.3,14.5,17c2.5,14.9,5.1,29.9,7.8,44.8
		c0.4,1.5,1.4,2.7,2.8,3.4c11.1,5,22.1-0.6,28.3-8.7c0.6-0.9,0.9-2,0.9-3c1.8-20.7,3.7-41.4,2.1-62.3c-0.4-4-1.2-7.9-2.3-11.7
		c-1.3-4.5-5.6-6.1-9.4-7.7c-0.6-0.2-1.8,0.4-2.5,1c-12.1,10.2-26.1,17.8-41.3,22.4c-2.3,0.7-4.7,1.3-7.1,2l-0.1,0.9
		C203.1,366,205.2,366.7,207.3,367.4L207.3,367.4z M138.8,75.6c4.8,8.4,9.8,16.8,14.7,25.1c1.7,2.9,3.7,5.6,5.5,8.4
		c2.1,3.3,2.9,7.3,2.4,11.2c-0.2,1.5-0.2,2.6,1.7,3.2c15.2,4.2,30.3,5.4,45.1-1.1c3.8-1.7,7.2-4.3,10.7-6.6c0.6-0.6,0.9-1.5,0.7-2.4
		c-2.3-8.6-4.7-17.1-7.3-25.6c-0.5-1.5-1.7-2.8-2.9-4.6c-0.6,0.6-1.1,1.2-1.5,1.9c-4.5,9.1-12.3,12.8-21.9,12.9
		c-9.9,0.2-18.5-3.8-26.4-9.5c-7.1-5.3-13.4-11.6-18.6-18.9c-0.6-0.8-1.2-1.5-2.1-2.5C137.3,70.3,137.4,73.1,138.8,75.6z
		 M395.7,398.3c0.8-0.1,1.8-1.7,2.1-2.8c2.9-12.7,2.1-25.3-0.2-38c-0.7-3.6-2.2-5-5.9-5.5c-16-1.9-32-1-48-0.3
		c-2.7,0.1-5.3,0.4-8.4,0.6c2.7,5.2,5.2,10.1,7.6,15c2.9,5.9,2.9,5.9,1.2,12.1l3.9,2.4c-0.7-3.5,1.4-3.6,3.5-4.3
		c6.8-2.4,13.5-5.2,20.2-8c5.2-2.3,10.8-3.3,16.4-2.9c4.5,0.3,6.1,2.6,3.6,6.2c-5.7,8.4-11.8,16.5-17.7,24.7
		c-0.7,0.9-1.4,1.8-2.2,2.7l0.3,0.8C380.1,400.1,387.9,399.3,395.7,398.3z M16.4,287.6c-6.2-9.4-8.6-19.6-4.4-30.5
		c0.6-1.7,1.6-3.3,2.6-5.4c-1.2,0.1-2.4,0.3-3.6,0.5c-9.6,2.8-19.4,5.4-28.9,8.6c-13.7,4.5-13,17.9-6.4,26.5
		c1.1,1.5,3.4,2.1,5.3,2.9c12.3,5.2,25.3,8,38.3,10.7c2.7,0.6,5.5,1.1,8.7,1.8C23.8,297.3,19.8,292.7,16.4,287.6L16.4,287.6z
		 M236.9,89.6c1.7,1.7,1.8,3.1,0.7,5.1c-0.5,1.2-0.5,2.5,0,3.7c2.8,7.2,7.6,10.7,15.8,9.5c3.6-0.5,7.5,0.9,11.2,1.3
		c1.6,0.2,3.2,0.1,4.7-0.2c2.3-0.4,3.5-1.8,4.1-4.2c3.2-12.6,6.7-25.1,10-37.6c0.2-0.9,0.3-1.9,0.5-3.7
		c-17.1,8.9-35.7,14.4-54.8,16.2l-0.4,0.9C231.5,83.6,234.1,86.7,236.9,89.6L236.9,89.6z M93.1,538.1c1.8,13.2,3.5,26.4,5.1,39.6
		c0.6,5.3,3.1,5.6,6.4,5.2c2.5-0.3,4-1.5,4.2-4.4c0.7-9.3,1.7-18.6,2.3-27.8c0.8-10.8,1.4-21.6,2.2-32.4c0.2-2.5-0.5-3.2-3-3
		c-5.6,0.4-11.3,0.5-16.9,0.7c-1.1,0.1-2.3,0.2-3.9,0.4C90.8,523.8,92.1,531,93.1,538.1z M344.9,493.7c-1,0.5-1.7,1.5-1.8,2.7
		c0.6,12,1.2,24,2.1,36c0.5,6.4,1.7,12.7,2.5,19c0.2,1.3,0.5,2.5,0.7,3.8c0.4,2.3,1.9,3.2,4.2,3.2c2.4-0.1,3.5-1.4,3.9-3.6
		c2.5-16.9,5.1-33.8,7.6-50.7c0.7-4.8,1.5-9.6,2.4-14.7C359.1,490.9,352,492.2,344.9,493.7z M270.5,445.2l0.5-1l-6.9-1
		c-7,12.8-18.5,9.6-29.9,8.9c0.3,3.5,0.3,7,0.9,10.5c0.2,0.9,2,1.9,3.2,2.1c14.6,2.6,28.7,1.5,42-5.4c0.6-0.4,1.3-0.7,2.1-0.9
		c2.6-0.6,3.7-2.1,3.4-4.9c-0.2-1.8,0.5-3.6,0.6-5.5c0-0.8-0.2-1.6-0.4-2.4l-2.6,0.5l0.9,3.7l-5.6-2.9l1.3-1.6
		c-0.7-0.2-1.4-0.6-1.8-0.4c-1.3,0.5-2.5,1.3-4.4,2.2L270.5,445.2z M143.8,69.5l-0.5,0.8c2.6,2.9,5.1,5.9,7.9,8.7
		c8.4,8.6,17.8,15.4,30,17.3c10.8,1.7,20.1-2.3,25-10.9c0.6-1.3,1.1-2.6,1.4-4C185.3,81.3,163.9,78.9,143.8,69.5L143.8,69.5z
		 M140.6,83c-2.8-4.7-5.6-9.6-3.9-15.6c0.1-0.4-1.7-2-2.6-2c-3.7,0.2-6.3,3.9-5.4,8.1c1,4.8,2.3,9.6,3.9,14.3
		c1.7,5.2,3.7,10.4,5.5,15.6c0.6,1.8,1.5,2.3,3.6,1.9c3.9-0.7,7.9-0.8,11.9-1.1C149.2,97.1,144.8,90.1,140.6,83L140.6,83z
		 M254.6,471.2c11.2,3.8,20.2-1.8,29.5-6.4c4.9-2.4,9.7-4.8,14.5-7.3c1.5-0.8,3.5-1.4,2.2-3.8s-2.8-1.5-4.5-0.6
		c-10,5.2-20,10.3-30.9,13.2c-8,2.1-16.1,1.2-24.2,0.4c-1.7-0.2-3.4-0.5-5.7-0.8c-0.1,2.3-0.1,4.6,0.1,7c0.5,0.9,1.4,1.6,2.4,1.7
		c5.1,0.2,10.2,0.1,15.4,0.1L254.6,471.2z M172.8,203.1c0.2-0.1-0.2-1.7-0.5-3.1c-4.8,3.6-9.1,3.2-13.8,0.8
		c-2.9-1.5-4.6,1.1-4.9,3.2c-0.6,4.9-3.9,5.6-7.7,5.9c-2,0.1-3,1-2.7,3.1c0.2,1.6,0.2,3.2,0.3,4.6c0.4,0.2,0.7,0.5,0.8,0.4
		c5.1-1.1,9.4-0.2,14.3,2.4c6,3.2,13.2-1.5,14.2-8.3c-1.8,0.7-3.6,1.4-5.4,1.8c-1.7,0.2-3.4,0.1-5-0.4c4.5-1.5,10.5-0.7,11.6-8.2
		c-4.5,1.4-8.1,3.8-12,2.3C165.6,206.2,169.2,204.8,172.8,203.1z M125.4,202.8c-2.6,5-2.8,10.6-2,16.4c0.4,3.1,2.1,5,5.7,4.7
		c4.6-0.4,9.3-0.5,13.5-0.7l-1.1-19.3L125.4,202.8z M352.7,171.3c-0.2,4.1,0.8,5.4,5.1,5.9c3,0.2,6.1,0.2,9.1,0.1
		c-3.7,2.5-7.4,1.8-11.1,1.4c2.6,4.8,8.7,7.1,13,5.3c5.3-2.4,7.8-8.4,5.8-13.9c-0.6-1.7-1.4-3.4-2.5-4.9c-1.9-2.5-4.7-3.3-6.4-1.5
		c-3,3.3-6.6,2.7-10.2,2.3c-1.3-0.1-2.8-1.2-3.3,1c-0.5,2.1,1,2.9,2.5,3c2.6,0.2,5.1,0.2,7.7,0c1.2-0.2,2.5-0.6,3.6-1l0.3,1.1
		C362.1,172.7,357.4,172.3,352.7,171.3L352.7,171.3z M231.1,102.5c2.1-3.6,3.8-6.4,5.3-9.4c0.3-0.6-0.2-1.8-0.8-2.5
		c-2-2.4-4.4-4.5-6.3-7c-2.1-2.9-4.6-3.7-8-3.2c-3.6,0.5-7.3,0.7-10.9,1l-0.5,0.9L231.1,102.5z M85.5-63.2
		c0.4-6.5,2.1-12.9,3.9-19.5C92-75.2,97-70,102.6-65.3l1.6-1.2c-7.7-5.9-12.6-13.4-12.6-23.6C80.2-80.9,73.5-59.7,86.3-44
		C86-50.4,85.1-56.9,85.5-63.2z M253.1,337.5c8.3,3.7,11.9,10.7,12.1,20l12.4-1.7l-16.9-26.2L253.1,337.5z M139.8-77.2
		c4.9,0.6,5,0.2,5.9-4.3c1.2-6.1,3-12,4.5-18.1l1.4,0c0.4,0.7,0.7,1.5,0.9,2.3c0.9,7.4,4.5,13.2,10.1,17.9c1,0.7,2.2,1,3.4,1
		c-7.9-8.1-13-17.3-11.8-29.4C144.1-101.8,137.7-87.6,139.8-77.2z M230.5,433.7c0.3,2.4,0.7,4.7,1.2,7c0.3,1,1.1,1.8,2,2.2
		c9.4,2.9,18.7,1.5,24.9-7.6c1.5-2.2,1.8-5.2,2.7-7.8l-0.9-0.6C251.9,434.9,242.4,438.6,230.5,433.7z M333.5,349
		c0.6,0.7,1.5,1,2.4,1c10-0.3,20.1-0.7,30.1-1.1c0.9-0.1,1.9-0.3,2.8-0.6c-13.3-2.4-25.8-4.7-38.2-7c-0.3-0.1-0.6,0.1-1.2,0.3
		C330.7,344.2,331.9,346.7,333.5,349L333.5,349z M241.1,451.1c4.2,0.1,8.4-0.1,12.5-0.7c3.2-0.5,6-2.5,7.5-5.3l-4-4.4
		c-3.4,1.5-6.5,3.6-10,4.3c-3.4,0.7-7,0.2-10.8,0.2C236.3,450.6,236.3,450.9,241.1,451.1L241.1,451.1z M88.4-49.6l3.8-9.6l2.6,1
		l0.4-5.8h5.8c-2.3-2.4-4.2-4.3-6-6.2c-1.7-1.9-3.2-4-5.1-6.3C86.6-64.3,86.1-56.3,88.4-49.6z M235.7,98.5c-0.6,0.8-1.1,1.4-1.4,1.9
		c-1.1,2-2.3,3.5-5,3.9c-4.4,0.8-6.9,4.4-6.9,8.8l18.8-5.8L235.7,98.5z M220.2,109.7l8-7.8l-12.7-11.7l-0.8,0.4L220.2,109.7z
		 M203.5-51.3c-0.9-2-2.6-2-3.6,0c-2.6,4.9-2.6,10.7,0,15.5c1,2,2.7,2,3.5,0c0.9-2.5,1.7-5.1,2.3-7.7
		C205.2-46.2,204.5-48.8,203.5-51.3L203.5-51.3z M374.6,370.8c-1.8,2.2-0.5,8.9,2.1,12.3L385,369l-0.7-0.9
		C380.9,368.4,377.1,367.8,374.6,370.8z M150.4-93.6l-3.2,15.3l0.9,0.5c1.7-1.7,4.6,0.1,6.1-2.7c0.3-0.5,3.1,0.5,4.5,0.7L150.4-93.6
		z M297.1,450.9l0.1-1l-9-4.2l-1.2,10.5L297.1,450.9z M142.8,208.9l6.4-1.2l-3.3-5l-1.1,0.1L142.8,208.9z M210.7-70.9l9.4,2.8
		C216.7-73,214.4-73.6,210.7-70.9L210.7-70.9z"/>
	<path id="Trazado_19536" class="st1" d="M-74,46.3c-0.8,0.4-1.6,0.8-2.4,1.3c-2.2,1.6-3.8,1.3-4.7-1.3c-0.7-2.7-1.3-5.4-1.7-8.1
		c-1.5,3.4-0.5,6.3,0.1,9.1c0.9,4.8,2.3,9.6,3.2,14.5c3.5,20.1,6.8,40.1,10.3,60.2c3.3,19.3,6.6,38.6,10,57.9
		c2.8,16.2,5.8,32.4,8.6,48.6c1,5.9,1.8,11.8,2.8,17.6c0.1,1,0.7,1.8,1.4,2.4c-10.7-65.8-21.7-131.5-33.5-197.5
		C-76,51.4-75.3,48.6-74,46.3L-74,46.3z"/>
	<path id="Trazado_19537" class="st1" d="M54.6,324.8c-1.5-6.4-3.6-12.6-7.3-18.1c-2.7-3.9-5.8-7.5-9.2-10.8
		c-5.5-5.6-10.5-11.4-14.1-18.5c-3.3-6.6-1.7-10.1,5.4-12c9.8-2.5,17.7,0.5,22.8,9.2c8.4,14.4,14.1,29.9,18.3,45.9
		c1.5,5.7,2.7,11.5,4,17.2l1.1,0c0.1-1.4,0.1-2.9,0-4.3c-4.2-20.7-11.4-40.7-21.3-59.3c-6.4-12.1-16.7-13.1-27.8-9.6
		c-5.6,1.7-7.4,6.5-4.6,12c3.8,7.5,8,14.7,14.6,20.1c8.1,6.7,12.7,15.4,15.7,25.2c0.4,1.1,0.9,2.2,1.4,3.3L54.6,324.8z"/>
	<path id="Trazado_19538" class="st1" d="M-16.1,435c-14.4-58.8-20.5-119-28.3-178.9l-1.6,0.3c7.6,59.9,14.5,120,28.1,178.9
		L-16.1,435z"/>
	<path id="Trazado_19539" class="st1" d="M345.8,133.1c-2.5,0.8-4.8,1.8-7,3.2c-4.1,2.5-5.2,2-5.5-2.8c-0.5-6.7-0.7-13.4-1.4-20
		c-0.3-3,0.8-3.9,3.5-4.7c3.8-1.1,7.4-2.9,11.1-4.3c1.5-0.4,3-0.8,4.6-1V133C348.6,133,347.1,132.7,345.8,133.1z M344.5,131.4
		c4.1-0.8,5-2.8,4.9-6.6c-0.2-6.4-0.1-12.9-0.1-19.1c-4.7,1.8-9.4,3.5-14,5.4c-0.9,0.5-1.5,1.5-1.6,2.5c0.5,7.1,1.2,14.2,1.9,21.9
		C338.9,133.9,341.6,131.9,344.5,131.4L344.5,131.4z"/>
	<path id="Trazado_19540" class="st1" d="M353,142.8c-5,5.6-11.9,1.1-17.5,4.1c-6-2.6-9.6,2.9-14.4,4.2c-5.2,1.5-10.4,2.7-15.6,4.2
		c-1.8,0.6-3.7,1.4-5.4,2.2l0.3,1.1c0.8,0,1.6-0.1,2.4-0.3c6.3-1.7,12.7-3.5,19-5.3c1.6-0.5,3.5-1,4.7-2.1c2.3-2.3,4.8-2.2,7.7-2.4
		c5.5-0.4,11.1-1.2,16.5-2.2c1.1-0.2,2-1.4,2.9-2.1L353,142.8z"/>
	<path id="Trazado_19541" class="st1" d="M344.3,187.8c-0.1-0.3,0-1.6-0.5-1.8c-1-0.5-2.2-0.6-3.3-0.4c-7.7,2.6-15.3,5.5-23.1,8
		c-3.4,1.1-7,1.3-10.5,1.8c-2.4,0.2-4.6,1.4-5.9,3.4c0.6,0.3,0.9,0.7,1.1,0.6c4.1-0.8,8.2-1.5,12.2-2.6c3.1-0.9,6-2.4,9-3.5
		c4.1-1.4,8.2-2.5,12.3-3.7c1.3-0.4,2.7-0.8,4-1.1C340.9,188.1,342.2,188.1,344.3,187.8z"/>
	<path id="Trazado_19542" class="st1" d="M345.8,157.8c-12.1-0.2-40.2,6.8-44.5,10.9l0.2,0.9c3.5-1.1,7-2.2,10.4-3.2
		c3.7-1.1,7.4-2.3,11.1-3.3c3.7-1,7.3-1.9,11-2.5C337.8,159.9,341.8,160.9,345.8,157.8z"/>
	<path id="Trazado_19543" class="st1" d="M300.7,210.1c1.6-0.8,3.1-1.6,4.7-2.5c4.5-2.8,9.8-4.1,15.1-3.9c2.7,0.1,5.6-1.1,8.3-2.1
		c2.4-0.9,4.8-1.9,7.1-3.1c1.8-0.9,3.5-1.9,5.2-2.8l-0.7-1.3c-4.3,1.9-8.5,4-12.9,5.6c-2.6,1-5.3,1.5-8.1,1.5
		c-7-0.2-12.9,2.2-18.2,6.3c-0.4,0.4-0.8,0.9-1,1.5L300.7,210.1z"/>
	<path id="Trazado_19544" class="st1" d="M394.7,267.3c3.9-5.2,7.5-10.6,6.4-17.8c-0.3-2.2-1.9-4-4.1-4.5c-7-2.2-14.7-0.2-19.6,5.3
		c-0.4,0.4-1,0.7-1.1,1.6c0.6-0.4,1.2-0.6,1.8-1.1c5.1-3.8,10.7-6,17.3-4.8c2.7,0.5,3.9,1.8,4.2,4.4c0.4,4.4-1.1,8.3-3.2,12
		c-0.8,1.5-1.7,2.9-2.5,4.4L394.7,267.3z"/>
	<path id="Trazado_19545" class="st1" d="M328,111.8c-1.1-0.1-2.4-0.7-3.4-0.4c-1.8,0.7-3.6,1.5-5.2,2.6c-2.3,1.4-4.4,2.7-7.2,0.9
		c-0.8-0.4-1.7-0.5-2.5-0.1c-3,2.4-6.5,1.9-10,2c-1,0.2-2.1,0.5-3,0.9c5.9,3.4,10.9-1.2,16,0c6.1,1.5,9.1-5.9,15-4.5L328,111.8z"/>
	<path id="Trazado_19546" class="st1" d="M350.4,414.2c-3.4,1.8-6.8,3.7-10.3,5.3c-0.9,0.2-1.8-0.1-2.4-0.7c-1.2-2-2.2-4-3.2-6.1
		l12.9-4.7l-0.4-1.2c-3,1-6.1,1.9-9.1,2.9c-2.4,0.9-4.8,1.7-6.4-1.3c-0.2-0.4-0.9-0.4-1.7-0.7c2.2,4.1,4.3,7.9,6.4,11.6
		c1.2,2.1,2.7,2.5,4.8,1.4c2.4-1.3,4.9-2.3,7.1-3.7C349.2,416.5,349.7,415.2,350.4,414.2L350.4,414.2z"/>
	<path id="Trazado_19547" class="st1" d="M44.1,97.9c3.3,0.4,5.7,1.7,6,5.2c0.1,2.7-1.8,5.1-4.4,5.6c-2.9,0.4-5.4-0.4-6.9-3.1
		c-1.4-2.5-0.6-3.8,3.9-7.3c-2.2-0.7-4,0.1-5.2,2.4c-1.6,2.9-0.7,6.5,2.1,8.3c3.2,2.1,7.4,1.8,10.2-0.7c2.5-2.6,3-5.9,0.9-8.5
		C49,97.7,46.9,96.4,44.1,97.9z"/>
	<path id="Trazado_19548" class="st1" d="M44.1,195.9c3.2,0.7,6.1,1.7,5.9,5.6c0,2.6-1.9,4.9-4.4,5.3c-2.7,0.6-6.1-1-7-3.5
		c-1.5-3.9,1.8-5.2,4.5-7.1c-2.8-1.4-4.1,0.5-5.3,1.9c-1.8,2.5-1.5,5.9,0.7,8c2.8,2.6,7,3,10.2,1c2.8-1.8,3.9-5.2,2.6-8.3
		C49.9,196,47.5,194.9,44.1,195.9z"/>
	<path id="Trazado_19549" class="st1" d="M298,126.1c1.5-0.2,3-0.5,4.4-0.7c1.6-0.2,3.2-0.8,4.7-0.6c2.4,0.4,4.7,1.7,7.1-0.1
		c0.3-0.2,0.6-0.2,0.9-0.1c3.8,2.6,6.8,0.4,9.9-2.4c-1.1,0-2.4-0.4-3.3,0.1c-2,1.1-3.8,2.1-5.9,0.3c-0.3-0.2-0.6-0.3-0.9-0.2
		c-4.4,0.4-8.8,0.8-13.2,1.3c-1.4,0.1-2.7,0.5-4.1,0.8L298,126.1z"/>
	<path id="Trazado_19550" class="st1" d="M260.8,260.4c-2.6,0.4-4.9,1.5-6.2,4c-0.5,0.9-0.2,3,0.4,3.4c1.7,1.1,3.9,2.2,5.7,2
		c3.1-0.2,5.4-6.1,3.5-9.4c-0.2,1-0.3,2-0.6,3.1c-0.7,3.6-2.8,5.5-5.3,4.7c-1.1-0.4-2-1.1-2.6-2.2c-0.2-0.5,0.8-1.9,1.5-2.5
		c1.2-0.9,2.5-1.7,3.9-2.5L260.8,260.4z"/>
	<path id="Trazado_19551" class="st1" d="M324.7,132.3c-7.4,2.2-15.5,2-22.3,6.4l0.3,0.9l22.4-6.2L324.7,132.3z"/>
	<path id="Trazado_19552" class="st1" d="M-67.5,33.6c7.2-1.9,7.8,4.3,10.3,8.4c0.7-3.3-1.5-7.9-4.2-9.4
		C-63.7,31.3-65.4,31.5-67.5,33.6z"/>
	<path id="Trazado_19553" class="st1" d="M-74,46.3l3.8-10.2C-73.3,36.3-75.9,42.5-74,46.3L-74,46.3z"/>
	<path id="Trazado_19554" class="st1" d="M350.4,414.2c2.8,0.7,3.7,0.5,6-1.5l-1-3.8l-0.9-0.1l-0.3,3.8
		C353.3,413,351.9,413.6,350.4,414.2L350.4,414.2z"/>
	<path id="Trazado_19555" class="st1" d="M5.2,464.7l5.5,4.4C11.3,466.9,8.7,464.6,5.2,464.7z"/>
	<path id="Trazado_19556" class="st1" d="M-17.8,82.8l0.5,8.1l0.9,0v-8.2L-17.8,82.8z"/>
	<path id="Trazado_19557" class="st1" d="M316.6,390.2c1.7,3.8,3.7,5,6.6,4.4L316.6,390.2z"/>
	<path id="Trazado_19558" class="st1" d="M-54.3,54.6l-0.7-6.7l-1.5,0.2l0.7,6.7L-54.3,54.6z"/>
	<path id="Trazado_19559" class="st1" d="M-16.6,440.7l1.5,6.7C-13.1,445.2-13.5,443.1-16.6,440.7z"/>
	<path id="Trazado_19560" class="st1" d="M-1.7,458l-5-3.8l-0.9,1l4.8,3.9L-1.7,458z"/>
	<path id="Trazado_19561" class="st1" d="M356.8,243.1l6.5-2.5l-0.5-1.1C360.3,239.3,357.9,240.8,356.8,243.1L356.8,243.1z"/>
	<path id="Trazado_19562" class="st1" d="M172.5-40.2c3.7,0,6.8-2.9,7.1-6.6c-0.1-3.9-3.3-6.9-7.2-6.8c-3.7,0.1-6.7,3-6.8,6.7
		C165.7-43.1,168.8-40.2,172.5-40.2z"/>
	<path id="Trazado_19563" class="st1" d="M293.1,5.3c-0.6,2.5-1.4,5-1.8,7.5c-1.2,7.7-3.6,15.2-7.1,22.1c-4,8.1-9.5,7.7-16.9,4.8
		c-0.8-0.3-1.1-2.1-1.5-3.2c-2,1.2-1.9,3.1,0.6,4.6c4.5,2.8,12,2.4,16.4-1c2.4,2.7,3.2,7.7,8.1,7.2c2-0.2,3.8-2.1,5.7-3.2l-0.7-1.1
		c-1.1,0.7-2.2,1.4-3.3,2.1c-1.5,1.2-3.6,1-4.8-0.5c0,0-0.1-0.1-0.1-0.1c-2.9-3.1-3.4-5.7-1.5-9.6c4.4-9.1,6.6-18.7,8.1-28.6
		c0-0.3-0.1-0.6-0.2-0.9L293.1,5.3z"/>
	<path id="Trazado_19564" class="st1" d="M166.6-67.4c3.2,0,5.8,1.9,5.9,4.3c0.1,2.5-2.3,4.7-5.7,4.2c-6.1-0.7-11.5,0-16.1,4.7
		C151.7-58.8,162.4-67.4,166.6-67.4z M166.9-60.4c1.4-0.2,2.6-1.5,3.9-2.4c-1.3-1-2.5-2.6-4-2.8c-3.8-0.5-5.9,2.6-8.5,4.5l0.3,0.8
		C161.4-60.2,164.2-60.2,166.9-60.4L166.9-60.4z"/>
	<path id="Trazado_19565" class="st1" d="M288.7-24.4c2.9-2.2,4-0.2,5,1.3c1,1.7,1.8,3.5,2.6,5.3c1-3.7-2.2-9-5.3-9.2
		c-1.1,0-2.3,0.4-3,1.3c-0.4,0.5-0.2,2.1,0.3,2.9c1.5,2.4,4.1,4.1,6.9,4.6L288.7-24.4z"/>
	<path id="Trazado_19566" class="st1" d="M299.9-16.2c1.7,1.5,2.9,1.7,5.4-0.1c1.3-0.9,2.1-2.7,3.1-4.1c-1.5-0.9-3.1-2.5-4.6-2.5
		c-2.5-0.1-4.5,1.6-5.9,5c1.3-0.7,1.8-1,2.3-1.3c1.1-0.7,2-1.8,3.1-2.1c0.9-0.2,2.1,0.5,3.2,0.8c-0.4,0.9-0.7,2.1-1.4,2.5
		C303.5-17.2,301.7-16.7,299.9-16.2z"/>
	<path id="Trazado_19567" class="st1" d="M275.9,45.3c-1,2.9,0.2,4.5,2.1,5.3c2.7,1.2,4.8-0.1,6.8-2.4
		C281.2,49.2,277.4,51.5,275.9,45.3z"/>
	<path id="Trazado_19568" class="st1" d="M296.1-13.7l-1.9,11.5l0.8,0.2c1.8-3.6,1.7-7.6,2.4-11.4L296.1-13.7z"/>
	<path id="Trazado_19569" class="st1" d="M251.9,168.1c-1.5,0.7-3,1.2-4.4,2c-4.1,2.3-8.3,3.4-13.1,2.2c-2-0.5-4.2,0.4-6.4,0.4
		c-3.3,0.1-6.6,0.1-9.9,0c-3.2-0.1-6.4-0.7-9.6-0.6c-9.4,0.3-18.8,0.8-28.1,1.2c-0.9,0-1.8,0.2-2.5,0.7c0.7,0.4,1.3,1,2,1
		c8.2-0.1,16.4-0.1,24.6-0.6c4.9-0.4,9.6-0.7,14.5,0.4c2.9,0.7,6.2-0.1,9.2-0.3c2.1-0.1,4.5-0.9,6.3-0.3c4.6,1.6,8.5,0.1,12.4-1.9
		c1.9-1,3.7-2.1,5.6-3.2L251.9,168.1z"/>
	<path id="Trazado_19570" class="st1" d="M251.1,155c-0.7-0.1-1.3-0.1-2,0c-4.4,1.3-8.9,2.5-13.2,4c-2.8,1-5.4,2.6-8.2,3.7
		c-1.5,0.6-3.3,0.4-4.9,0.7c-0.9,0.1-2,0.1-2.6,0.7c-1.8,1.7-3.4,1.8-5.4,0.3c-5.9-4.2-12.4-2.8-18.8-1.9c-4.6,0.6-9.2,1-13.8,1.5
		c-0.4,0.1-0.8,0.2-1.1,0.4l0,0.9c1.9,0.3,3.8,0.4,5.7,0.4c4.5-0.5,9-1.3,13.5-2.1c5.2-0.9,10.1-0.6,14.3,3.1
		c1.9,1.6,3.8,1.9,5.7-0.1c0.7-0.7,1.9-0.7,2.9-1c2.1-0.6,4.3-1,6.3-1.6c3.4-1.1,6.9-2.3,10.3-3.5c3.2-1.1,6.4-2.3,9.6-3.6
		C250,156.7,250.3,155.9,251.1,155z"/>
	<path id="Trazado_19571" class="st1" d="M185.9,186.7c2.3-0.3,4.5-0.6,6.8-0.8c2.5-0.2,5-1,7.3-0.5c7.5,1.6,14.6-0.1,21.8-1.5
		c3.7-0.7,7.6-0.4,11.5-0.6c4.6-0.3,9.2-0.5,13.8-1c0.9-0.1,1.7-1.5,3.2-2.8c-5.1,0.9-9.3,1.5-13.4,2.2c-0.6,0.2-1.3,0.2-1.9,0
		c-6.2-2.2-12.1,0.4-18.2,1.1c-5.1,0.6-10.3,0.5-15.4,0.8c-5.2,0.3-10.4,0.8-15.7,1.2L185.9,186.7z"/>
	<path id="Trazado_19572" class="st1" d="M248.2,225.3c-1.6,2.9-4,2.8-6.6,2.3c-1.7-0.3-3.4-0.6-5.1-1.1c-2.5-0.8-5.2-0.2-7.1,1.6
		c-1.7,1.4-3.9,2-6.1,1.9c-5.4-0.6-10.8-0.3-16.1,0.9c-3.5,0.9-7.3,0.7-10.9,0.9c-1.1,0.1-2.3,0-3.5,0l-0.2,0.9c0.8,0.4,1.6,1,2.4,1
		c3.9-0.1,7.9,0.1,11.6-0.8c5.2-1.4,10.7-1.8,16.1-1.1c3.3,0.6,6.8-0.4,9.3-2.6c1.4-1.1,4.2-0.9,6.3-0.8c2.4,0.1,4.8,1.2,7.3,1.2
		C248,229.8,249,228,248.2,225.3z"/>
	<path id="Trazado_19573" class="st1" d="M194.3,218.7c3.1,0.3,6.3,0.8,9.4,1c9.3,0.4,18.6-0.1,27.6-3.1c1.6-0.5,3.2-0.7,4.8-0.7
		c4.2-0.1,8.4,0,12.7,0l0.3-1.7c-0.7-0.3-1.4-0.5-2.2-0.6c-2.9,0.2-5.7,0.5-8.6,0.7c-2.1,0.1-4.5-0.3-6.4,0.3
		c-11.2,3.7-22.6,3.3-34.1,2.5c-1.2,0-2.4,0.1-3.5,0.2L194.3,218.7z"/>
	<path id="Trazado_19574" class="st1" d="M219.1,127.2l-2.8,10l-5.7-7.9l-1.2,0.5l-2,9.3c-2.9-2.1-2.6-7.1-6.5-8.1l-0.7,0.7
		c1.1,2,2.3,4,3.4,6c1.1,2,2.1,4,3.1,6l1.5-0.1l2.5-11.1l5.4,9.4h1l3.4-14.2L219.1,127.2z"/>
	<path id="Trazado_19575" class="st1" d="M238.7,138.9l5.3-14.5l2.8,11.6l1.4-0.4c-0.7-5.1-1.5-10.1-4.9-15.3l-4.8,13.5
		c-2-3.9-3.7-7.2-5.4-10.6c-0.1-0.1-0.7,0-1.2,0.1l5.9,15.7L238.7,138.9z"/>
	<path id="Trazado_19576" class="st1" d="M199.6,144.7c-0.7,0.1-1.5,0.3-2.2,0.4c-1,0.1-2.4,0.4-2.8-0.1c-0.5-0.9-0.5-2-0.2-2.9
		c0.6-1.7,1.9-3.2,2.4-4.9c0.3-1.4,0.3-2.9-0.3-4.2c-0.2-0.6-1.9-0.6-3.3-0.4c2.5,2.4,1.7,4.4,0.3,6.5c-0.4,0.7-0.8,1.5-1,2.4
		c-0.7,2-2,4.4,0.4,5.8s4.9,0.6,6.8-1.5L199.6,144.7z"/>
	<path id="Trazado_19577" class="st1" d="M223.9,126.7l4.3-0.7c1.1,2.4,1.8,4.7-0.6,6c0.9,1.4,2.7,3.1,2.3,3.9
		c-0.6,1.5-2.4,2.6-4.1,4.2c0.6,0.1,1.8,0.7,2.5,0.3c1.4-0.7,3.6-2,3.5-3c-0.2-4-0.9-7.9-1.9-11.7
		C229.2,123.2,226.7,123.5,223.9,126.7z"/>
	<path id="Trazado_19578" class="st1" d="M259,347.3c-0.3,1.4-0.6,2.8-1.1,4.2c-0.4,1.2-1.2,2.3-2.1,3.2c-2,1.6-3.9,0.5-5-1.2
		c-0.4-0.6,0.8-2.4,1.6-3.4c1.1-0.9,2.3-1.7,3.6-2.3c-2.9-0.5-5.8,1-7.1,3.6c-1,2.4,0.7,3.6,2.4,4.6c2.6,1.5,5.4,1.1,6.8-1.5
		c1.2-2.1,1.6-4.7,2.4-7L259,347.3z"/>
	<path id="Trazado_19579" class="st1" d="M339.9,129.8l-0.4-6.7l1.1-0.2l0.8,4.2l1,0.4c0.6-1.4,1.9-3,1.6-4c-1.1-3,0.4-5.5,0.9-8.2
		c0.2-1.1-0.2-2.3-0.9-3.2c-0.6-0.4-2.5,0-3,0.6c-1,1.4-1.7,3-2.1,4.7c-0.7,2.6-1.2,5.3-1.5,7.9c-0.1,1.5,0.8,3.1,1.2,4.6
		L339.9,129.8z"/>
</g>
</svg>
