<?xml version="1.0" encoding="utf-8"?>
<!-- Generator: Adobe Illustrator 23.0.2, SVG Export Plug-In . SVG Version: 6.00 Build 0)  -->
<svg version="1.1" id="Capa_1" xmlns="http://www.w3.org/2000/svg" xmlns:xlink="http://www.w3.org/1999/xlink" x="0px" y="0px"
	 viewBox="0 0 558.4 730.8" style="enable-background:new 0 0 558.4 730.8;" xml:space="preserve">
<style type="text/css">
	.st0{opacity:0.503;}
	.st1{fill:#333333;stroke:#333333;stroke-width:3;}
</style>
<g id="Grupo_346" transform="translate(142.106 193.096)" class="st0">
	<path id="Trazado_19644" class="st1" d="M42.9,341c-0.4-0.9-0.7-1.8-1-2.7c-4.9-18.3-9.5-36.7-11.5-55.5c-1.9-17.1-2-34.1,2.4-50.9
		c0.8-2.3,0.2-4.8-1.4-6.5c-5.4-6.5-9.6-13.8-12.4-21.8c-0.4-0.9-0.8-1.8-1.3-2.6c-10.1,3.3-17.5,9.6-23,18.3
		c-10.6,16.5-13.8,34.9-11.7,54.1c0.8,7.8,3,15.5,4.5,23.2c0.1,1,0.2,2,0.2,2.9l-1,0.2c-0.7-2.2-1.5-4.4-2.2-6.6
		c-3.8-13.7-5.7-27.6-3.6-41.7c2.7-18.4,8.9-35.3,24.1-47.4c2.8-2.2,6.4-3.4,9.5-5.2c1-0.6,2.4-1.8,2.3-2.5
		c-1.1-9.1,2.5-16.9,6.2-24.7c7-14.6,13.8-29.3,20.7-43.9c15.2-32.3,32.3-63.5,56.2-90.4c9.4-10.8,20.9-19.7,33.8-26
		c0.4-0.2,0.9-0.5,1.6-1c-1.6-2.5-3.1-4.9-4.6-7.4c-13.2-22.5-18.7-46.7-16.2-72.7c0-0.6,0.1-1.2,0.2-1.9c1.5-6.9,0.6-12.1-5.3-17.6
		c-7.1-6.6-11.1-16-13.7-25.5c-0.9-3.5-0.4-4.1,3.2-3.8c3.6,0.3,7.2,0.8,10.9,1.2l-2.8-14.4c4.1-1.3,8.5-1.1,12.5,0.6
		c5.5,2.6,10.9,5.5,16,8.9c1.6,1.2,3.6,1.4,5.4,0.6c15.6-6.3,31.1-12.9,47-18.4c20.8-7.2,42.2-11.9,63.9-15.4
		c27.4-4.3,54.9-5.2,82.5-4.6c2.7,0.1,5.5-0.2,8,0.4c2,0.5,3.6,1.8,4.7,3.5c7.2,15.1,13.1,30.6,14.3,47.5c0.8,11.1-2.1,21.5-6,31.6
		c-9.3,24.1-25.8,42.6-45.6,58.6c-21,17-44.6,29.1-70.3,37.3c-1.3,0.4-2.5,1-3.8,1.5c3.7,7.3,7.3,14.3,10.7,21.3
		c6.5,13.5,12.5,27.3,16.2,41.8c2.3,9.1,3.4,18.6,4.8,28c0.2,2.1,1.3,3.9,3.1,5c13.5,8.8,27.6,9.3,42.3,3.3c1.6-0.7,3.2-1.6,4.8-2.2
		c3.5-1.1,6.1-4,6.9-7.6c1-4.1,2.9-5,7.2-5.1c0.6,0,1.2-0.6,1.7-0.9c1.6-1.1,3-2.7,4.8-3.2c6.6-2,9.5-0.2,10.2,5.5
		c0.3,2.2,0.6,4.3,0.8,6.5c0.6,10.8-8,17.9-18.5,14.9c-2.9-0.8-4.3-0.2-6.1,2c-12.2,15.5-27.7,26.1-47.1,30.6
		c-2.5,0.7-5.1,1.1-7.7,1.2c-2.9,0-3.5,1.4-4.1,3.8c-2.6,10.7-4.6,21.6-8.3,31.9c-5.7,15.8-12.8,31.1-19.1,46.7
		c-1.1,2.7-1.8,5.5-1.9,8.4c0,5.5-1.5,10.9-4.4,15.7c-0.6,0.6-1.3,1-2.2,1c3.5-8,4.7-12,4.3-16.2c-3,1.9-6.1,3-6.1,7.6
		c0,3.4-1.5,6.9-2.4,10.5l1.4,0.4c-2.8,0.3-0.6,5.3-4.5,4.7c-1-0.1-2.4,1.3-3.3,2.3c-1.4,1.4-2.6,2.1-3.9-0.5
		c9.5-3,8.4-11.6,10.7-18.5l-0.6-0.6c-3,1.3-6,2.6-8.9,4c-0.4,0.2-0.5,1.1-0.6,1.6c-0.9,3.9-2.4,7.9-2.4,11.8c0,6.5-4.5,5.8-8.5,6.3
		c-1.3,0.2-2.7,0.2-4.6,0.3c4.8,10.4,11.2,20,18.8,28.5c5.4-10.3,7.8-21,9.4-31.9l0.9-0.2c0.3,1.1,0.9,2.3,0.8,3.4
		c-1.7,12.7-5.6,25-11.4,36.4c-10.9,21.9-27.4,38.8-47.5,52c-14.4,9.4-29.7,17.5-44.5,26.3c-0.9,0.5-2.1,1.7-2.1,2.6
		c-0.1,18-0.1,36-0.1,54.7c1-0.8,1.6-1.2,2.1-1.7c5.1-5.1,10.4-9.9,17.2-12.5c8.2-3.2,16.1-2.6,22.8,3.4c7,6.2,6.8,17.6-0.6,25.5
		c-11.8,12.7-26.8,17.4-43.8,15.5c-5.4-0.6-10.2-3.1-12.5-8.6c-1.5-3.4-1.7-6.9,0.4-10.1c1.3-2,0.7-2.8-0.8-4.3
		c-12.8-12.3-25.5-24.7-38.1-37.2c-1.5-1.5-2.7-2.4-5-1c-4,2.3-8.2,4.5-12.4,6.4c-2.4,1.1-5.1,1.6-7.6,2.7c-2,0.9-3.8,2.4-5.8,3.4
		c-7.9,4-15.8,8-23.6,12c-0.8,0.4-1.5,0.9-1.8,1.1c5.8,3.9,11.9,7.4,17.1,11.7c7.7,6.3,10.2,15.9,7.2,24.1
		c-2.7,7.4-10.3,11.8-18.8,10.5c-6.8-1.1-13.1-4.5-17.9-9.5c-0.6-0.7-0.9-1.6-0.9-2.5c6.1,3.3,11.1,8.3,19.1,9.6l-11.4-7.7l0.6-1.2
		c1.3,0.3,2.6,0.8,3.8,1.4c4.3,2.7,4.5,2.8,8.3-0.4c5.4-4.6,9.5-10.2,10.7-17.4c0.2-1.3-0.1-2.6-0.8-3.6
		c-5.5-6.3-12.9-9.7-20.3-12.9c-0.6-0.1-1.2-0.1-1.8,0.1c-4.2,1-7.3-0.8-8.1-5.2c-0.4-2.6-1-4.4-4.1-4.2c-3.2,0.1-5.3,1.7-5.8,4.9
		c-1.1,7.6,2,14,5.4,20.4c0.6,0.9,1.1,1.8,1.5,2.7c0.2,0.9,0,1.8-0.4,2.6c-5.1-6.9-7.9-14.5-9.6-23c-0.4,1.5-0.7,2.9-0.8,4.5
		c0.3,8.5,4.5,15.4,8.9,22.2c0.7,1.3,1.3,2.6,1.8,3.9l-1.1,0.7c-1.8-2.3-3.7-4.5-5.3-7c-3.6-5.8-6.2-12-6.6-18.9s2.2-12.2,7.7-14.4
		c2.5-1,5.4-0.9,8.3-1.3c5.6-21.1,15.7-40.9,23.8-61.4c1.2-3.2,1.4-5.5-0.9-8.4c-10.5-13.7-19.7-28.3-27.4-43.8
		c-0.6-1.2-0.7-2.6-0.5-3.9c14.6,28.2,33.7,53,54.3,76.8c20.5,23.7,41.7,46.8,66.1,66.7l0.7-0.5c-9.7-14.6-19.4-29.2-29-43.8
		c-9.6-14.5-20.1-28.5-28.5-43.7l1.3-0.9c20.5,28.8,38.8,59,59.9,87.9c0.4-1.7,0.6-3.5,0.7-5.2c0.3-33.1,0.2-66.2,0.9-99.3
		c0.5-20.9,2.1-41.8,3.3-62.7c0.3-3,1.1-6,2.4-8.8c-2.5,17.7-2.5,35.5-3.1,53.2c-0.5,17.8-1,35.6-1.5,54.2c3.7-1.9,6.7-3.5,9.7-5
		c24.7-12.3,47-27.7,65.2-48.7c6.9-7.9,12.9-16.6,17.7-25.9c0.5-1.2,0.3-2.6-0.4-3.8c-7.1-8-13-17-17.5-26.7c-1-2.3-2.4-2.9-4.7-3
		c-3.2-0.1-6.4-0.6-10.2-0.9l2.2-6c-0.8-0.1-1.7-0.1-2.5,0c-16.7,3-33,1.9-48.6-4.9c-1.7-0.7-2.8-0.7-3.6,0.9
		c-3.4,6.4-8.5,6.8-14.9,5.2c-10.4-2.7-20.4-6.5-29.9-11.4c-2.7-1.3-5.3-2.9-8.1-4c-1.1-0.3-2.2-0.2-3.1,0.5
		c-10.7,10.2-24.4,16.6-39.1,18.3c-2.3,0.3-3.6,1.1-3.1,3.7c1.7,9.6,3.2,19.3,5.1,28.9c1.7,8.6,3.8,17,5.7,25.6
		c0.1,0.9,0.1,1.8,0,2.8L42.9,341z M313.7-159.5c-26,0.5-51.8,3-77.1,8.6c-17,3.8-33.7,9.1-50.5,13.6c-4.1,1.1-6.2,2.5-6.6,7.6
		c-0.9,12.4-4.1,24.5-9.4,35.7c-10.8,23-27.2,40.5-50.3,51.5c-2,1-2.8,2.1-2.2,4.3c2.3,7.9,4,16,6.7,23.6
		c5.1,14.1,13.2,26.4,25,35.8c7.1,5.6,14.9,9.4,24.4,8.1c6.1-0.9,12.2-1.2,18.3-1.8c21.8-2.3,43.2-7.8,63.5-16.4
		c22.3-9.5,42.9-21.9,61-38.1c16.9-15.1,31.7-31.8,38.7-54c3.3-10.6,5.9-21.4,4-32.5c-1.5-8.5-3.6-16.8-6.2-25
		c-2-5.9-4.4-11.6-7.2-17.2c-0.9-1.4-2.4-2.4-4.1-2.6C332.4-158.9,323-159.1,313.7-159.5z M125.8,17.8c-1,0.7-2,1.3-2.9,1.9
		c-9.2,6.8-17.6,14.6-25,23.3c-22.1,25.9-38.1,55.5-52.5,86.2c-7.3,15.6-14.5,31.3-21.9,46.8c-1.2,2.2-1.3,4.8-0.2,7.1
		c5,11.5,12.3,21.8,21.5,30.2c10.5,9.8,22.7,17,35.1,23.9c18,10.1,37.5,15.6,57.8,18.4c1.4,0.1,2.7-0.5,3.6-1.5
		c11.9-16.5,20.8-35.1,26.3-54.7c1-3.5,1.6-7.1,2.5-10.8c-5.9,1.5-11.2,3.3-16.6,4.1c-24.5,4-46.2-2-64.2-19.6
		c-9.7-9.4-16.2-21-22.4-32.8c-0.3-0.8-0.5-1.6-0.6-2.5l1-0.6c0.9,0.9,1.7,1.9,2.4,3c4.2,6.6,8.2,13.5,12.7,19.9
		c18.6,26.7,47.8,35.6,77.6,28c17.5-4.5,31.6-14.8,43.3-28.4c1.8-2.1,1.3-6.1-0.8-8.9c-1.9-2.5-3.6-0.5-5.2,0.2
		c-15.5,6.5-30.9,7.1-45.9-1.3c-12.5-7-21.2-17.6-27.2-30.4c-9.2-19.8-11-41-10.9-62.5c0.1-0.8,0.4-1.5,0.8-2.2l0.9,0.1
		c0.1,0.8,0.4,1.7,0.5,2.5c1.2,11.3,2,22.6,3.6,33.8c2.3,16.5,7.8,31.7,19.2,44.2c9.2,10.1,20.2,16.9,34.3,17.5
		c7.8,0.3,8,0.2,10.2-7.2c4.9-16.3,7.6-33.1,8.2-50.1c0.7-18.3,0-36.7-2-54.9c-0.2-2.2-0.7-2.9-3-2.3c-8.5,2.3-17.1,1.4-25.2-1.3
		C148,33.1,135,29.1,125.8,17.8z M210.5,156c-0.7,0.7-1.3,1.3-1.9,2.1c-8.9,11.8-20.5,21.4-33.8,27.8c-1.7,0.8-2.9,2.4-3.1,4.3
		c-0.9,4.1-1.7,8.1-2.8,12.1c-6.5,23.6-18.2,44.5-33.3,63.6c-0.6,0.9-1.2,1.9-1.7,2.9c6.6,1.6,12.6,3.4,18.6,4.6
		c11.2,2.1,22.7,1.9,33.8-0.7c1-0.3,1.8-0.9,2.4-1.8c4.4-6.6,9.1-12.9,12.8-19.8c6.5-12.3,12.6-24.8,18.5-37.3
		c7.8-16.4,13.1-34,15.5-52.1c3.1-23.9,1.8-48.2-3.7-71.6c-3.7-15.9-8.6-31.5-12.9-47.2c-0.1-0.3-0.2-0.5-0.4-0.7
		c-4.1,2.4-7.7,5.6-12,6.9c-4.3,1.3-9.2,0.9-14.3,1.2c3.8,34,1.8,68.1-9.2,101.9c1.3-0.1,2.6-0.3,3.8-0.7c4.8-1.8,9.7-3.8,14.5-5.7
		c2.9-1.2,4.6-3.1,5.5-6.4c1.1-3.6,2.7-8.1,8.4-6.4c0.4,0.1,1.1-0.8,1.6-1.1c2.4-1.4,4.8-3.4,7.4-4.1c4.3-1.2,7.4,0.9,8.1,5
		c0.7,3.7,1.1,7.4,1.2,11.1c0,7.2-4,11.9-11.1,13.4C218.7,157.9,214.6,158.1,210.5,156L210.5,156z M196.9,263
		c7.5,0.7,19.4-2.4,27.2-7c5-2.9,10.4-5.5,10.8-12.5c0-0.4,0.4-0.7,0.6-1.1c12.5-25.5,22.4-51.8,27.6-79.8c4.7-24.9,3.6-50.6-3.2-75
		c-4.4-16-10-31.7-16.6-46.9c-1.9-4.4-4.1-8.8-6.1-12.8l-18.8,5.6c2.6,8,5.4,15.9,7.9,23.9c6.9,21.6,11.1,44,12.6,66.6
		c1.1,19.2,0.1,38.3-4.7,57c-6.2,24.2-17,46.5-29,68.3C202.7,253.8,199.8,258.2,196.9,263z M28.5,375.6c-5.9,14.3-12,28.4-17.7,42.6
		c-2.8,6.9-5,14.1-7.1,21.2c-0.8,2.8-1.2,6.3,1.5,8.5c2.6,2.1,5.3,0,7.9-0.8c0.1,0,0.2-0.1,0.3-0.2c10.2-5.2,20.3-10.4,30.5-15.5
		c7.6-3.8,15.2-7.3,23-11L28.5,375.6z M97.1-117.5c2.1,8.7,6.4,15.4,10.3,22.4c4.1,7.3,11.7,10.6,18.3,15.1l-0.5,1l-7-1.8
		c-1.4,7.8-2.5,15.5-1.6,23.7c5.1-4.4,9.5-9.1,14.1-13.8c13.8-14,25.5-29.3,31.3-48.4c0.9-3,1.5-6.1,2.2-9.2l-0.9-0.9
		c-9.3,4.1-18.5,8.1-27.8,12.2c-3.9,1.7-5.9,5-7.4,8.8c0.5,0.5,1,0.9,1.4,1.3c2.2,2.3,4.4,4.7,6.5,7.1c0.4,0.4,0.1,1.4,0.2,2.2
		c-0.6-0.2-1.3-0.4-1.9-0.7c-0.3-0.2-0.6-0.5-0.9-0.9c-6.4-8-15.3-13.7-25.3-16.1C104.7-116.4,101.1-116.8,97.1-117.5z M267.2,158.5
		c0.8,0,1.7,0,2.5,0c20.4-2.7,36.7-12.7,50.2-27.9c0.5-0.5,0.7-1.2,0.7-1.9c-1-2.6-2.2-5-3.4-7.8c-16.6,7.7-33,8.1-48.7-2.3
		L267.2,158.5z M117.1-43.9c18-9.2,32.6-21.3,43.6-37.8c10.5-15.8,14.8-33.5,17.2-52.8c-3.9,1.5-7.2,2.7-10.4,4.1
		c-0.6,0.3-1,1.4-1.2,2.3c-2.1,11.9-6.6,23.3-13.1,33.4c-9.1,14.4-20.6,26.8-33.4,37.9C115.4-52.9,115.9-49.1,117.1-43.9z
		 M35.1,230.1c-0.4,1.1-0.7,2.3-1,3.4c-2.5,14.2-3.2,28.6-2,42.9c0.2,2,1.2,2,2.7,1.9c8.9-1,17.5-3.8,25.3-8.2
		c5.3-2.9,10-6.7,14.1-11.1C59.9,251.1,46.5,242.3,35.1,230.1z M113.2,465.5c-2.4,2.5-3,4.8-1.9,7.9c1.9,5.7,6.6,8.6,13.3,7.6
		c12-1.7,22.1-7.5,31.6-14.5c0.8-0.6,1.2-1.6,1.2-2.6c-1.1-7-3.6-13.5-8.1-18.9c-2.7-3.2-4.7-3.8-8-1.3c-5.4,4-10.4,8.5-15.4,12.9
		c-1,1-1.6,2.3-1.6,3.7c-0.1,6.3-5.2,10-10.4,5.3C113.7,465.6,113.4,465.6,113.2,465.5L113.2,465.5z M219.1,141.2
		c11.8-5.3,12-5.4,9.7-8.8c-3.2,3.6-8.3,4.9-12.8,3.1c-2.7-0.9-4,0.1-5.2,1.8c-2.3,3.3-2.2,12.5,0.1,15.5c0.4,0.4,1,0.7,1.6,0.9
		c5.4,1.9,11.4,0.7,15.8-3c0.8-0.9,1.5-1.8,2.2-2.9c-6.6,1.8-6.6,1.8-9,0.1c2.4-1,4.7-1.8,6.8-2.9c2.4-1.3,3.9-3.1,2.3-6
		C222.2,142.5,222.2,142.5,219.1,141.2L219.1,141.2z M188.8,30.3c0.8,3.6,1.4,6.9,2.3,10c0.4,1,1.2,1.7,2.2,1.9
		c7.8,0.7,15.1-0.9,21.3-6c0.5-0.4,1.4-1.2,1.3-1.6c-0.7-2.6-1.7-5-3-7.3c-0.5-0.7-2.7-0.3-4.2-0.3c-0.8,0.1-1.6,0.2-2.5,0.4
		C200.4,28.3,194.5,29.3,188.8,30.3L188.8,30.3z M109.1-130.5c1,4.5,1.9,8.4,3,12.3c0.3,0.9,1,1.7,1.9,2.2c4,2,8,3.8,11.9,5.6
		l8.7-9.5C127.5-125.4,119.9-130.9,109.1-130.5z M121,255.7c-4.5-1.3-8.8-2.6-13.1-3.8c-0.7-0.1-1.5,0.3-1.9,0.8
		c-2.2,5.1-4.4,10.4-6.6,15.9c3.4,1.2,7.2,2.6,11,3.9c0.7,0.1,1.4-0.1,1.9-0.5C116.1,267.1,119.1,261.6,121,255.7L121,255.7z
		 M73,255.6c1.6-5.4,3.2-10.4,4.6-15.5c0-0.8-0.4-1.6-1.1-2.1c-2.9-1.8-5.9-3.4-8.8-5.2c-1.5-0.9-2.4-0.8-2.9,1.1
		c-1.1,4.2-2.3,8.4-3.4,12.6c-0.2,0.9,0.1,1.8,0.7,2.4C65.6,251.3,69.3,253.4,73,255.6L73,255.6z M138.3,258.7
		c-3.6-0.6-6.4-1.2-9.3-1.6c-5.5-0.8-5.4-0.7-7.8,4.3c-1.9,4.1-4.3,7.9-6.7,12.3c3.2,0.5,6.3,1.1,9.4,1.4c0.8,0,1.6-0.3,2.1-0.9
		C129.9,269.4,133.8,264.4,138.3,258.7L138.3,258.7z M105.3,251.4c-4.2-1.7-7.6-2.8-10.7-4.3c-2.1-1-2.7-0.2-3.3,1.6
		c-1.1,3.1-2.2,6.2-3.4,9.3c-1.7,4.4-1.7,4.3,2.6,6.4c1.5,0.9,3.1,1.6,4.7,2.3c0.9,0.2,1.8-0.1,2.4-0.7
		C100.2,261.3,102.6,256.5,105.3,251.4L105.3,251.4z M52.8,223.3c-1.3,5.4-2.6,10.2-3.8,15.1c-0.1,0.5,0,1,0.3,1.5
		c3.1,2.4,6.2,4.8,9.3,7.1c1.6-5.3,3-9.9,4.2-14.6c0.1-1.1-0.3-2.2-1.1-3C59.3,227.4,56.5,225.8,52.8,223.3L52.8,223.3z M84.3,261.3
		c2-5.2,4-10.1,5.8-15c0-0.7-0.3-1.3-0.8-1.6c-2.9-1.6-5.9-3-8.9-4.6c-0.4,0.5-0.7,1-1,1.5c-0.8,1.9-1.5,3.9-2,5.9
		C74.9,258.6,73.4,255.9,84.3,261.3L84.3,261.3z M149.2,441.4c5.6,6.1,8.8,13.3,10.6,21.3c3.4-2.6,7.4-8.9,7.8-12.4
		c0-0.9-0.2-1.8-0.7-2.5C163.3,442.4,155.9,439.7,149.2,441.4L149.2,441.4z M20.1,488.8c6.1,4.7,11.4,4.1,14.9-2.2
		c1.5-3,2.4-6.3,2.5-9.7c0.1-2.8-1.3-5.7-2-8.6C28.4,481.7,28.1,482.1,20.1,488.8L20.1,488.8z M197.3,280.1c3.2-0.2,6.4-0.4,9.5-0.8
		c0.9,0,1.8-0.5,2.3-1.2c2.2-4.6,3.5-9.6,3.7-14.7c-3.2,0.5-6.1,0.9-8.9,1.4c-0.8,0.2-1.5,0.8-1.9,1.6
		C200.4,270.8,199,275.2,197.3,280.1z M42.7,215c-1.5,5.2-2.8,9.8-4,14.3c-0.1,0.5,0,1,0.3,1.4c2.5,2.5,5.1,4.9,7.6,7.2
		c1.5-5,3-9.5,4.3-14.1c0.2-0.8,0.1-1.7-0.4-2.4C48.3,219.4,45.9,217.6,42.7,215z M33,204.6c-2.4,4.5-4.9,9.1-3.9,13.5
		c0.8,3.6,4.4,6.5,7,10c1.8-4.9,3.3-9.1,4.8-13.3c0.2-0.7,0.1-1.4-0.3-1.9C38.3,210.2,35.8,207.5,33,204.6z M332.6,111.2
		c-0.4,0.7-0.9,1.3-1.5,1.9c-0.7,0.4-1.5,0.6-2.3,0.7c0.1-0.7,0.3-1.4,0.6-2.1c0.5-1,1.4-1.8,1.9-2.8c0.2-0.5,0.3-1.5,0-1.6
		c-0.6-0.3-1.3-0.4-1.9-0.2c-0.8,0.4-1.5,1-2,1.9c-0.7,2.1-1,4.3-1.6,6.5c-1,3.2-0.4,6.3,2,8.4c2.3,2.1,8.5,1.7,10.5,0.1
		L332.6,111.2z M134,481.8c18.2-2.2,34.3-13.8,34.7-25.2C160.9,470.6,146.9,475.4,134,481.8L134,481.8z M26.8,214.7
		c1.5-3.9,3.1-7.9,4.6-11.8c0.1-0.2,0-0.4-0.1-0.6c-1.7-2.6-3.4-5.2-5.3-8.1C21.7,201.4,20.5,208.1,26.8,214.7z M200.3,266l-1-1
		c-1.5,0.2-3.7-0.1-4.2,0.8c-2.9,4.3-5.3,8.9-7.9,13.4l0.9,1.1c2.1-0.5,5.2-0.3,6.1-1.6C196.7,274.7,198.3,270.2,200.3,266z
		 M217.3,37.3c-7.8,6-16,8.6-25.5,7.2c0.1,0.9,0.6,1.7,1.2,2.2C200.3,51.1,213.9,46.2,217.3,37.3L217.3,37.3z M21.3,183
		c-3.2,4.6-3.3,15.7-0.7,18c1.2-2.9,3.4-5.8,3.5-8.8C24.3,189.3,22.4,186.3,21.3,183z M132.9,21.9c1,0.8,2.1,1.6,3.3,2.3
		c0.8,0.4,2,0.8,2.7,0.5c2-1.2,3.9-2.6,5.7-4C142.5,15.9,138.4,17.3,132.9,21.9z M130.3,20l9.1-4.9l-2.9-3.3l-9.1,5L130.3,20z
		 M344.9,106.7l0.8-0.8c-1.2-1-2.2-2.7-3.5-2.9c-1.9-0.4-3.8-0.1-5.5,0.9c-0.9,0.6-0.5,3-0.6,4.6L344.9,106.7z M337.7,115.4
		c2.3-0.6,4.8-1.2,7.1-2c0.7-0.4,1.1-1.2,1.1-2c-0.1-0.7-0.9-1.8-1.5-1.8c-1.7-0.1-3.5,0.1-5.2,0.5
		C336.1,110.9,335.8,112.3,337.7,115.4L337.7,115.4z M140.5,26.5c6.2,3.7,4.5,4,9.9-1.6C146.6,21.4,145.6,21.5,140.5,26.5
		L140.5,26.5z M179.8,31.4c1.6,6.8,1.8,6.9,8,4.3C186.3,30.1,186,30,179.8,31.4L179.8,31.4z M148.5,30.3c5.8,3.2,6.9,3.1,8.8-1.3
		C153.3,25.8,152,26,148.5,30.3L148.5,30.3z M221.8,24.4c0.5,1.4,1,2.8,1.6,4.2c1,2.3,2.7,0.5,4,0.3c0.8-0.5,1.3-1.4,1.4-2.3
		C228,22.7,226.3,22.2,221.8,24.4L221.8,24.4z M179,37.2c-0.6-1.8-0.8-3.9-1.9-5.2c-0.6-0.8-2.7-0.4-4.1-0.6
		C172.5,37.9,172.8,38.2,179,37.2L179,37.2z M338.9,117.6l-0.6,1.3c1.5,1.1,3.5,3.3,4.6,3c2.2-0.7,3.3-3.1,2.6-6.2L338.9,117.6z
		 M164.9,35.8c4.7,1.5,5.9,1.5,5.8,0c0-1.4-0.7-3.5-1.7-4C166.6,30.6,165.7,31.7,164.9,35.8z M214.9,26c0.6,1.5,1.4,2.9,2.3,4.3
		c0.5,0.6,1.9,0.6,2.9,0.5c0.3,0,0.8-1.3,0.8-1.9C220.5,25.4,218.4,24.4,214.9,26L214.9,26z M322.8,118.3c-3.6,1.4-3.5,5.2,0,8.4
		C325.9,123.9,323.1,121.3,322.8,118.3z M235.7,25.5c-2.1-5.2-2.5-5.4-6.1-3l2.3,4.9L235.7,25.5z M156.2,33.6l6.5,1.9
		c0.2-2.1,1.6-3.8-1.1-5.1C158.4,29,158.5,32.2,156.2,33.6L156.2,33.6z M207.1,154.5c1.4-1.7,0.5-6.7-1.6-7.4l-1.8,1.2L207.1,154.5z
		 M219.2,133l0.4,0.9l6.4-2.5l-0.4-0.9C223,130.2,220.7,130.6,219.2,133L219.2,133z"/>
	<path id="Trazado_19645" class="st1" d="M-76.4,18.7c-4.7,0.4-5.6,3.8-6.4,7.1c-2.8,11.6-4.7,23.3-2.3,35.2
		c2.7,13.8,10.7,24.3,21.3,33.1c11.5,9.4,24.8,15,39.1,18.4c10.5,2.5,21.2,4.1,31.8,6.2c0.9,0.3,1.7,0.7,2.5,1.3
		c-0.9,0.3-2,0.9-2.8,0.8c-14.2-2.1-28.3-4.5-42-9.1c-18-6-33.8-15.4-44.3-31.8c-5.5-8.3-8.4-18-8.5-28c-0.1-9.5,0.7-18.9,3.7-28
		c0.7-2,1.8-3.9,3.2-5.5C-80,16.7-78.3,16.8-76.4,18.7z"/>
	<path id="Trazado_19646" class="st1" d="M352.1,73.9c14.9,12.6,22.8,29.1,26.1,47.9c2,11.6,0.9,27.8-2.5,30.8
		c2-14.8,1.8-28.8-2.6-42.4C368.6,96.6,361.3,84.7,352.1,73.9z"/>
	<path id="Trazado_19647" class="st1" d="M-103.7,60.7c0.2,1.3,0.5,2.6,0.7,3.8c2.6,18.1,12.2,32.2,26.3,43
		c7.5,5.7,16.2,10,24.4,14.9c0.9,0.5,1.9,1,3.1,1.7c-2.9,1.6-16.2-5-26.5-12.9c-16.6-12.7-28.1-28.4-29.1-50.1L-103.7,60.7z"/>
	<path id="Trazado_19648" class="st1" d="M78.6,472.4c0.7,0.6,1.3,1.2,1.7,1.9c7.8,16.2,20.7,26,38.2,29.3
		c7.6,1.4,15.5,2.1,22.8-2.5l0.7,0.8c-0.6,0.8-1.3,1.5-2.1,2.1c-5.9,3.3-12.3,3-18.6,2.2c-18.8-2.4-32.8-12-41.9-28.7
		c-0.7-1.5-1.3-2.9-1.8-4.5L78.6,472.4z"/>
	<path id="Trazado_19649" class="st1" d="M-35.2,467.7c-1.3-0.4-2.4-0.4-2.6-0.8c-4.2-7.5-8.3-15.1-7.3-24c1-9.8,7.6-15.3,15.8-19.3
		c3.1-1.3,6.2-2.3,9.4-3.1c1-0.2,2.1-0.3,3.2-0.2l0.3,1.2c-3.2,1.3-6.7,2.3-9.7,3.9c-4.2,2.3-8.8,4.4-12.2,7.7
		c-5.9,5.8-5.7,13.3-3.1,20.7C-39.8,458.2-37.6,462.4-35.2,467.7z"/>
	<path id="Trazado_19650" class="st1" d="M340.4,83.6c9.7,0.8,24,26,20.5,36c-0.7-1.4-1.4-2.2-1.5-3.1c-1.2-11.6-6.7-21-15.1-28.9
		C343.2,86.6,342.1,85.4,340.4,83.6z"/>
	<path id="Trazado_19651" class="st1" d="M-21.3,469.8c-6.4-7.6-7.2-16.5-4.9-25.8c1.4-5.8,6.6-11.9,11.2-12.6
		c-5.4,5.6-9.1,11.3-10.1,18.5s1.7,13.4,5.5,19.5L-21.3,469.8z"/>
	<path id="Trazado_19652" class="st1" d="M134.7,489.8c-1.9,3-5,3.8-8.2,4c-8.5,0.5-15.4-3.5-22-7.9l0.4-1.1
		c0.8,0.2,1.5,0.4,2.2,0.7c3,1.5,6,3.3,9.1,4.7C122.2,492.6,128.4,493,134.7,489.8z"/>
	<path id="Trazado_19653" class="st1" d="M54.4,365.6c-3.5-0.7-7.3-9.3-6.1-13.5L54.4,365.6z"/>
	<path id="Trazado_19654" class="st1" d="M-6.5,317.5c-2.6-4.7-4.2-9.9-6.1-14.9l1.1-0.5l6.5,14.7L-6.5,317.5z"/>
	<path id="Trazado_19655" class="st1" d="M16.1,465.7l-3.9-3.3l3.3-4.3l3.6,2.5L16.1,465.7z"/>
	<path id="Trazado_19656" class="st1" d="M19.9,462.2l4.5,2.1l-2.1,5.8l-4.7-2.9l2.5-1.7L19.9,462.2z"/>
	<path id="Trazado_19657" class="st1" d="M1,473.7c2.2,2.4,4.1,4.5,6,6.6c0,0,0,0.2,0,0.3C2.9,480.7,0.8,478.4,1,473.7z"/>
	<path id="Trazado_19658" class="st1" d="M229,276.8l-0.9-5.3l1.5-0.3l1,5.3L229,276.8z"/>
	<path id="Trazado_19659" class="st1" d="M345-74.6c-3.8,7.6-9.6,7.2-15.1-0.8c-3.4,4.8-7.7,7.8-13.7,6.3c-1.9-0.5-3.5-1.9-5.2-2.9
		l0.5-1c0.4,0.1,1,0,1.3,0.3c4.4,4.5,12.4,2.2,15.1-3.2c1.9-3.7,3-7.7,3.3-11.8c0.3-8.9-0.3-17.9-0.6-26.8
		c-0.3-7.6-0.7-15.2-1.1-22.8c-0.1-0.9,0.3-1.9,1-2.5c0.2,0.7,0.4,1.5,0.5,2.3c0.7,15.5,1.5,31,2,46.5c0.1,3.5-0.8,7-0.9,10.5
		c-0.2,2,0,4,0.6,6c1.6,4.2,5,5.1,8.8,2.6C342.6-72.8,343.8-73.7,345-74.6z"/>
	<path id="Trazado_19660" class="st1" d="M231.8-123.2c-0.8-0.1-1.7-0.3-2.5-0.6c-7.7-3.3-14.8-2.1-20.7,3.6
		c-3.8,3.7-6.8,8.3-10.2,12.5c-0.4,0.4-0.7,0.8-1.1,1.2l-0.7-0.4c0.3-1.1,0.8-2.1,1.2-3.1c4.8-8.3,10.8-15.3,20.4-18
		c4.3-1.2,8.9-0.3,12.4,2.4c0.4,0.3,0.8,0.7,1,1.1C231.8-124.3,231.8-124,231.8-123.2z"/>
	<path id="Trazado_19661" class="st1" d="M191.2-120c-5-3.1-5.3-11.5-0.3-14c3.1-1.5,6.7-2.1,10.1-2.8c0.4-0.1,1.8,1.8,1.7,2
		c-1,1.6-2,3.7-3.6,4.2c-4.9,1.6-7.4,4.7-7.5,9.8C191.6-120.5,191.3-120.3,191.2-120z M190.2-124.6c1.1-6.4,8.5-5.6,11-10.6
		c-2.9,0.3-5.8,0.9-8.6,2C189.1-131.6,188.4-129.2,190.2-124.6L190.2-124.6z"/>
	<path id="Trazado_19662" class="st1" d="M328.1-141.7c-0.5,0.6-1.3,1.7-1.5,1.6c-3.5-1.6-7.1-3.3-9.5-7.3c0.9-0.6,1.9-1,2.9-1.3
		c2.6-0.2,7.3,2.8,8.3,5.2C328.4-142.9,328.1-142.2,328.1-141.7c-3.2-4.3-5.2-5.5-8.2-4.9C321.7-143.8,324.8-142,328.1-141.7z"/>
	<path id="Trazado_19663" class="st1" d="M330.2-141.5c0.4-3.6,1.7-6,4.4-6.8c1.7-0.4,3.5,0.1,4.8,1.2c1.5,1.6-0.3,3-1.7,3.9
		c-1.8,1.2-3.8,2.2-5.7,3.3l-0.7-1.1c1.6-1,3.3-2,4.8-3.1c0.7-0.7,1.2-1.4,1.6-2.2c-1.1-0.1-2.6-0.6-3.2-0.1
		C333-145.2,331.9-143.5,330.2-141.5z"/>
	<path id="Trazado_19664" class="st1" d="M325.3-67.3c3.6,2.5,3.6,2.5,8.5,1.5c-1,2-3.3,3-5.4,2.4C326.4-63.9,325.2-65,325.3-67.3z"
		/>
	<path id="Trazado_19665" class="st1" d="M120.7-87.3c-8.6-6.1-15.2-13.8-18.8-23.8c-1-2.7,0-3.8,2.8-3.2c11,2.5,19.1,9.2,25.9,17.8
		c1.2,1.6-0.3,4.2-2.4,4.7c-0.9,0.3-1.7,0.7-2.4,1.2C124.2-89.6,122.6-88.5,120.7-87.3z M128.3-94.5c-1.9-6.5-17.6-17.6-24.5-17.4
		c3.7,7.7,8.3,14.5,14.9,20.1l0.8-2.4l5.1,3.3C122.3-97,126.6-94.1,128.3-94.5L128.3-94.5z"/>
	<path id="Trazado_19666" class="st1" d="M144.6,456.8l-2.9-0.8l-1.2,3c-2.9-1.3,0.8-6.1-4.7-5.9l6.6-3.7L144.6,456.8z"/>
	<path id="Trazado_19667" class="st1" d="M134.8,455.8c0.8,1.4,1.8,3,2.6,4.6c0.2,0.3-0.4,1-0.6,1.5c-2.5-1.8-3.2,1.6-5.6,2l0.9-3.7
		l-3-1.3L134.8,455.8z"/>
</g>
</svg>
