<?xml version="1.0" encoding="utf-8"?>
<!-- Generator: Adobe Illustrator 23.0.2, SVG Export Plug-In . SVG Version: 6.00 Build 0)  -->
<svg version="1.1" id="Capa_1" xmlns="http://www.w3.org/2000/svg" xmlns:xlink="http://www.w3.org/1999/xlink" x="0px" y="0px"
	 viewBox="0 0 614 850.2" style="enable-background:new 0 0 614 850.2;" xml:space="preserve">
<style type="text/css">
	.st0{opacity:0.504;}
	.st1{fill:#333333;stroke:#333333;stroke-width:3;}
</style>
<g id="Grupo_343" transform="translate(177.893 125.666)" class="st0">
	<path id="Trazado_19580" class="st1" d="M50.6,655.2c-6.3-16.6-5.2-32.8-4.5-48.9c1.4-33.7,2.8-67.4,4.3-101.2
		c0.4-6,1.1-11.9,2.2-17.8c0.4-2.1,1.8-4,3-6.6c-2.1,0.1-3.7,0.2-5.3,0.3c-10,0.6-19.7,0-29.2-3.7c-14.8-5.7-29.6-4.8-44.3,1.1
		c-4.9,2-9.9-0.1-14.9-0.1l0-1.6c1.7-0.1,3.5-0.2,5.2-0.3c1.9,0,3.8,0,6.1,0l0.7-11.1l1.6-0.1l0.8,10.2c2.4,0.3,3.4-0.6,3.4-2.9
		c0-8.4,0-16.8-0.1-25.2c0-0.9-1.2-1.8-1.8-2.7c-0.6,1-1.7,2-1.7,3c-0.2,4.4-0.1,8.8-0.1,13.2l-1.2,0.3c-0.4-0.9-1.1-1.9-1.2-2.8
		c-0.1-8.8-0.2-17.5,0-26.3c0.1-4.9,3.4-7.6,8.3-8.2c1.8-0.3,3.4-1.1,4.7-2.2c4.3-3.4,8.5-7,12.9-10.6c-2.4-2.1-1-4.5,1.2-7.3
		c5.3-6.6,7.9-14,9-22.6c1.5-11.2,3.8-22.3,6.9-33.2c8.7-32.5,20.7-63.8,33.7-94.8c4.5-10.8,10.7-21,16.1-31.5
		c1.4-2.7,2.3-5.6,3.6-8.4c3.3-7.1,6.7-14.1,10.3-21.6c-5.1-1.8-10.9-3.6-16.5-5.8c-32.3-12.8-62.2-29.7-87.4-53.7
		c-13.2-12.5-25.2-26.2-34.2-42.2c-6.7-12-9.2-25-9.7-38.5c-0.5-16.4,0.4-32.6,5.8-48.3c5.8-16.7,17.1-28.9,31.7-38.2
		c2-1.1,4.3-1.7,6.6-1.7c23.9-1.3,47.8-2.5,71.7-3.7c0.6,0,1.2,0.1,1.9,0.1l0.3,1c-1.5,0.5-3,0.9-4.5,1.1
		c-23.3,1.2-46.6,2.3-69.8,3.6c-2.7,0.3-5.4,1.3-7.6,2.8C-54-16.2-63.4,6.1-64.7,32.5c-0.7,13.9-0.7,27.8,3,41.4
		c3.1,11.5,9.1,21.4,16.3,30.8c21,27.3,47.4,48.2,77.9,64.2c18.5,9.7,37.7,17.7,58,23c27.8,7.5,57,7.8,85,1.1
		c44-10.6,75-36.8,95-76.8c3.6-7.1,6.1-14.8,9.2-22.2c0.9-2.2,0.4-3.6-1.5-5.2C245.4,62.5,218,31.5,194.7-3.2
		c-3.3-5-6.1-10.3-9.4-15.2c-1.1-1.7-2.6-2.9-4.5-3.6c-22.5-7-45.8-11.3-69.3-13c-15.2-1.2-30.5-1.8-45.8-2.7
		c-1.6-0.1-3.2-0.6-4.5-1.5c20.1-1.1,40.1,0.3,60,2.6c20.1,2.3,40,5.8,60.4,12.2c-1.6-3.4-2.9-5.7-3.8-8.3
		c-3.3-9.2-7.1-18.3-9.3-27.7c-1.2-5.1-0.2-11.1,1-16.4c1.2-4.7,5.5-7,10.5-7.4c9.9-0.8,18.4,3.2,26.8,7.6
		c15.7,8.3,29.6,19.2,42.6,31.2c3,2.8,4.7,2.5,7.3-0.3c5.2-5.7,10.5-11.3,16.2-16.5c1.6-1.5,5.2-2.5,7.2-1.7
		c5.6,2.2,11.4,4.7,16.1,8.3c17.8,13.7,32.3,30.4,42.1,50.9c1.3,3,2.4,6.2,3.1,9.4c1,3.9-0.1,7.1-3.1,10c-6.2,5.9-12,12-18.1,18
		c-1.7,1.7-1.8,2.7-0.5,4.8c8.5,13.5,16.3,27.3,21.1,42.5c2.2,7,3.9,14,3,21.4c-0.4,2.1-0.9,4.1-1.7,6.1c-3.2-1.1-5.6-2.1-8.1-2.7
		c-9.6-2.3-18.4-6.6-26.7-11.8C276.9,73.8,251.5,49,228.2,22c-15.8-18.3-30-37.8-41.6-59.1c-6.6-12.1-11.9-24.7-14.5-38.5
		c-2.7,4.8-2.2,10-1.2,15c3.3,16.2,10.7,30.7,19.2,44.7c23.5,39.1,53.8,73.7,89.4,102.2c11.8,9.5,24.2,18.1,38.7,23.3
		c5.7,2.1,11.5,3.3,17.5,1c0.6-0.2,1.5,0.3,2.3,0.5c-0.6,0.7-1.1,1.6-1.8,1.9c-6.2,2.5-12.3,1.1-18.3-0.8
		c-11.5-3.7-21.5-10.2-31.4-17.1c-1.1-0.8-2.3-1.5-3.9-2.6c-9.7,28.8-24.4,53.9-47.6,73.8c3.2,2.2,6.2,4,9,6.2
		c13.3,10,23.6,22.7,32.9,36.2c14.9,21.7,27,44.8,34.1,70.3c3.3,11.7,5.4,23.7,2.8,35.8c-1.8,8.3-4.4,16.4-7,24.6
		c-1.5,4.9-1.7,10-0.5,15c4.5,19.9,7.6,40,6.6,60.6c-0.5,11.4-2.4,22.5-6.7,33.1c-0.3,1-0.6,1.9-0.6,3c-3.5,31.5-6.9,63-10.7,94.5
		c-2.6,21.6-5.8,43.1-8.8,64.7c-0.1,0.5-0.2,1-0.3,1.5c-1.7,7.1-1.7,7.1-8.3,10.1l1,4.4l5.2-4.3c2.1,3.5,4.2,6.7,6.2,10.1
		c3.3,5.7,6.5,11.4,9.8,17.1c1.4,2.4,1.1,4.3-1.2,5.9c-6.6,4.5-13.2,9-20,13.5c-2.2-2.9-3.7-2.3-6-0.2c-5.3,4.9-11.9,8.1-19,9.1
		c-12.2,1.8-24.4,3.7-36.6,5.4c-3.2,0.3-6.4,0.4-9.5,0.3c-3.8,0-6.6-1.1-6.1-5.7c-7.6-0.9-14.1,7.1-22.5,2.4
		c-3.7,1.1-7.9,2.8-12.4,3.6c-10.9,2-21.6-0.8-32.2-2.4c-8.8-1.3-17.4-3.7-26-5.9c-3.8-1-5-3.5-2.6-6.5c3.2-4,6.8-8.1,11.2-10.4
		c8.3-4.3,17.3-7.3,26-10.9c4.9-2,9.7-4.3,15-6.6l3.8,4.4c0.5-4.8-0.1-8.4-1.9-11.7c-0.4-0.7-2.3-0.8-3.4-0.6
		c-2.1,0.4-4.3-0.5-5.6-2.3c-13.2-15.7-22.3-33.7-29.6-52.6c-10.9-28-18.1-57.2-23.8-86.7c-2.4-12.2-4.3-24.5-6.5-36.8
		c-0.1-0.7-0.4-1.4-0.8-2.1c-9.5-12.2-14.7-26.6-20.5-40.6c-3.2-7.8-6.1-15.6-9.1-23.5c-0.4-0.9-0.9-1.8-1.7-3.3
		c-3,4.3-5.5,8.4-8.4,12.1c-3.4,4.2-7.4,8-10.6,12.3c-3,3.9-5.2,8.4-7.9,12.5c-2.3,3.6-2.6,7.2-2.4,11.5c0.5,13.5,0.3,27,0.1,40.5
		c0,3.4,1.1,5.1,4.4,5c8.3-0.2,16.6,0.1,24.7-0.8c13.5-1.5,19.6,3.8,19,17.5c-0.5,12-1.4,23.9-1.5,35.9c-0.1,8.2,1.1,16.5,1.2,24.7
		c0.1,10.6-0.1,21.1-0.6,31.7c-0.8,15.4-1.9,30.8-3.2,46.1c-0.4,5.2-1.8,10.2-2.7,15.4c-0.2,1.1-0.2,2.1,0.1,3.2
		c2.4,6,1,10.3-4.1,12.3c-3.7,1.5-10.4,0-11.5-6.7c-0.2-0.5-0.4-1.1-0.7-1.6l-9.3,1.7c1,2,1.5,4.1,2.7,5.4c3.9,4,4.5,9.5,1.2,13.4
		c-3.6,4.1-9.8,4.7-14.1,1.4c-4.2-3.4-4.8-8.6-1.8-13.3c1.2-1.9,1.5-4.3,2.4-7l-57-3.6c-2.7,9.2-6.2,11.8-12.2,8.9
		c3.3-1.6,8-0.6,8.7-5.3c0.1-1.2-0.1-2.4-0.6-3.5c-1.9,2.4-1.2,7.3-6.2,6.1c-3.3-0.8-3.6-3.5-3-6.5c-2.6,1.5-2.6,1.5-0.7,7.5
		c-2.9,0.3-3.6-0.9-4-7.8l-11-0.7c-3,5.1,3.5,6.2,3.1,10.6c-1.1-0.9-2.1-1.7-3.2-2.6c-2.4-2.3-6-2.7-8.9-1.1c-2.7,1.2-4.3,3.9-4,6.8
		c0.2,3.2,2.1,5.3,5.1,6.5c3.1,1.2,5.7,0.3,8-1.8c0.9-1.1,2-2,3.3-2.6c-0.1,1,0.1,2.1-0.4,2.9c-2.8,4.4-9.9,5.6-14.2,2.4
		c-4.3-3.1-5.3-9.1-2.3-13.4c0.1-0.2,0.2-0.3,0.3-0.4c3.3-4.4,2.1-7.9-2.9-9.4c-1.4-0.4-2.7-2.3-3.5-3.7c-0.5-1.2-0.6-2.5-0.4-3.8
		c0.3-3.9-1.1-6.6-4.4-8.9c-1.4-0.9-2.2-3.5-2.4-5.5c-0.2-2.3,0.7-4.8,0.7-7.2c0.1-10.1,0.1-20.3,0-30.5c-0.2-25.1,0.3-50.2,3-75.2
		c0.3-3,0.7-6.1,1.2-9.1c0.2-0.8,0.5-1.6,0.9-2.4l1,0.2c0.1,1.7,0.1,3.3,0,5c-3.6,30-4.8,60.2-3.3,90.4c0.5,9.3,0,18.6-1.4,27.7
		c-0.6,2.4,0.5,4.9,2.6,6.2c6.1,4.5,13.2,7.3,20.7,8.2c11.2,1.4,22.5,2.2,33.9,2.3c13.9,0.1,27.8,0.3,41.4,3.2
		c0.5,0.1,1,0.1,1.5,0.2c9,1,14-2.2,15.6-11.1c1.1-6.1,1.6-12.4,1.5-18.6c0-9.3-1.2-18.6-1-27.9c0.3-13.2,1.5-26.4,2.1-39.6
		c0.6-14,1.1-28,1.5-42c0-2.8-0.4-5.6-1.1-8.3c-1.4-6.8-7-9-12.6-9.9c-11.4-1.9-22.9-3.9-34.4-4.4c-15.2-0.6-30.5,0.3-45.8,0.5
		c-1.1-0.1-2.2-0.2-3.3-0.4v-1.2c3.4-0.5,6.9-1.2,10.3-1.3c24.6-0.9,49.2-1.2,73.4,4.4c2.9,0.8,5.8,1.9,8.5,3.3
		c3.4,1.4,5.7,4.6,6,8.3c0.7,7.1,1.9,14.2,1.6,21.3c-0.9,17.5-2.8,35-3.7,52.6c-0.5,10,0.5,20.1,0.5,30.1c0,9.8-0.1,19.6-0.5,29.4
		c-0.3,3.3-1.1,6.5-2.4,9.6c-2.2,5.6-8.7,8.8-16,7.5c-12.8-2.2-25.8-3.4-38.7-3.5c-11.8-0.1-23.6-0.7-35.4-2
		c-6.3-0.7-12.5-3.1-18.9-4.8c0,2-0.4,4.5,0.2,6.7c0.3,1.1,2.3,2.3,3.6,2.4c16.9,1.3,33.8,2.5,50.7,3.6c13.9,0.9,27.7,1.8,41.6,2.5
		C35.6,655.5,42.8,655.2,50.6,655.2z M215.3,475.3c2.2,0.5,4,1,5.9,1.3c14.9,2.7,29.8,5.2,44.7,7.9c8.5,1.6,8.5,1.7,10.1-6.5
		c1.7-8.9,3.3-17.8,4.8-26.7c0.2-1.1-0.6-2.4-1-3.6c-0.9,0.5-2.2,0.7-2.7,1.4c-4.8,8.5-17.2,13.6-29.7,8.8
		c-4.8-1.8-9.4-4.2-12.6-8.4l8.6-7.1l-0.6-1.1l-9.6-2.2l0.2-1.5l10.6,1.2v-10.1l1.5,0.3c2.5,8.3,1.4,15.6-6.5,21.2
		c4.6,3.6,4.9,3.8,8.1-0.5c2.3-3.1,3.8-6.8,5.6-10.2c0.5-0.9,0.8-1.8,1.2-2.7l1.3,0.6c0.4,7.1-4.4,12-8.7,17.3
		c2.8,1.5,5,2.8,7.4,0.6c3.9-3.5,7.3-7.4,8.4-12.9c0.3-0.7,0.7-1.4,1.3-2l1,0.6c0.6,6.7-4,11.1-8,15.8c10.6,1.1,23.1-7.4,19.5-22.1
		c-0.9-3.5-2.2-6-6.1-6.7c-2.2-0.5-4.3-1.5-6.3-2.7c-3.8-2.4-8.5-3-12.8-1.7c-1,0.3-2.2-0.2-3.4-0.3l0-1.5l6.6-0.8
		c-3.2-3.4-4.2-6.9-0.5-10.3c0.2,0.8,0.2,1.6,0,2.3c-1.5,3.8-0.9,5,2.9,6c1.3,0.4,2.6,0.9,3.8,1.6c4.6,2,9.1,4.5,13.9,6.1
		c7.3,2.4,7.8,1.8,9.3-5.5c0.9-4.4,1.7-8.8,2.6-13.3c-6.2-0.9-12.4-0.2-16.5-5.6c4.7,0.9,9,1.9,13.3,2.6c3,0.5,4.5-0.6,5.3-3.9
		c0.9-4,2.7-7.9,4.1-11.8l1.5,0.4c-0.3,1.4-0.6,2.8-1,4.2c-2.3,9.3-4.8,18.5-6.8,27.8c-1.5,7.4-1.2,7.4-7.9,9l1.3,14.8
		c7.9,1.6,15.1-1.4,22.4-3.3c3.3-0.8,4.7-3,5.4-6.1c2.4-11.3,3.9-22.7,2.8-34.1c-1.3-13.9-3.4-27.8-5.2-41.6
		c-0.3-1.7-0.8-3.5-1.3-5.1l-0.9,0l-6.4,25.3c-0.7-2.5-1.2-5-0.6-7.2c4.4-17.5,8.8-35,13.7-52.4c2.1-7.3,3.7-14.7,2.4-22.2
		c-1.9-10.2-3.4-20.7-7-30.4c-10.9-30.1-26.3-57.7-48.6-81.1c-6.2-6.5-13.9-11.7-21-17.4c-1.8-1.5-3.3-1.1-5.4,0.2
		c-9.3,5.7-18.8,11.1-28.1,16.6c-1.3,0.7-2.4,1.7-3.1,3c-8.4,18.8-21.8,32.2-41.6,38.1c-24.1,7.3-51.2-1.4-60.1-28.8
		c-1.8-5.5-6.6-3.7-10.1-5.1c-1-0.4-3.5,1.5-4.5,2.9c-7.2,9.6-11.5,20.6-14.7,32c-6.7,23.9-13.4,47.8-15.7,72.6
		c-1.2,12.8-1.9,25.8-0.7,38.4c1.4,16.4,5.3,32.4,11.7,47.6c6.8,15.7,13.1,31.7,19.6,47.6c0.9,2.6,3.2,4.3,5.9,4.6
		c22.1,3.5,44.2,7.4,66.3,10.9c19.5,3.2,39.3,4.2,59,2.7c2.6-0.2,3.7-1,4.1-3.8c0.6-4.9,1.7-9.6,2.8-15l3.4,1.9
		c-0.9,1.4-2,2.4-2.2,3.6C219.5,451.6,217.4,463.3,215.3,475.3L215.3,475.3z M198.5,504.4l1.4-0.5c0.6,1,1.1,2,1.4,3
		c1.4,5.4,2.6,10.9,4,16.3c4.1,15.6,7.8,31.3,12.5,46.8c4.4,14.5,9.7,28.6,14.6,43c0.9,2.8,2.5,3.7,5.4,3.3
		c5.4-0.7,10.9-0.8,16.3-1.6c8-1.2,16-2.7,23.9-4.3c2.4-0.5,5.5-0.9,6-4.4c1-7.2,2.2-14.3,3.2-21.5c2.9-22.2,5.8-44.4,8.5-66.7
		c1.7-14,3.2-28.1,4.6-42.1c0.1-1.1-0.8-3.1-1.7-3.4c-5.8-2.1-10.1-6.2-14.4-10.4c-0.8-0.7-1.7-1.3-2.5-1.8l-5.2,28.8L213,477.4
		l0.4-7.9c-2.1,0-3.6,0-5.1,0c-12.5-0.2-25.1,0.5-37.4-1c-18.2-2.1-36.2-5.6-54.3-8.4c-1.2,0-2.5,0.4-3.4,1.2
		c-3.3,2.5-6.2,5.7-9.7,7.7c-7,3.9-7.2,3.7-5.7,11.8c5.9,30.4,12.9,60.5,23.4,89.6c6.3,17.5,14.3,34.2,25.1,49.4
		c0.9,1.2,2.8,2.7,4.1,2.6c13.2-1.1,26.3-2.2,39.5-3.9c5.9-0.7,6-1.5,6.4-7.4c0.9-14.9,2.2-29.7,2.6-44.6
		c0.5-18.1,0.3-36.2,0.3-54.3C199.1,509.6,198.7,507,198.5,504.4z M251.1-40.8c-5.1-4.4-9.8-8.7-14.7-12.6
		c-12.3-9.9-24.9-19.4-39.8-25.1c-5.1-1.8-10.5-2.9-15.9-3.2c-4.7-0.3-6,1.8-5.4,6.4c1.5,11.5,6.1,22,11.3,32.2
		C197.8-21,212.3-0.9,228.3,18c24.3,28.7,51.3,54.5,83.3,74.6c7.9,4.9,16.2,9,25.8,9.8c3.5,0.3,4.9-1.2,4.4-4.3
		c-0.9-5.9-1.6-11.9-3.3-17.5c-4.4-14-11.5-26.8-19.2-39.2c-0.9-1.5-1.9-2.8-3.4-4.9c-3.2,3.4-6,6.3-8.7,9.3
		c-3.2,3.6-7,3.7-11.1,2.3c-2.2-0.8-4.2-1.7-6.2-2.9c-14.4-8.6-25.7-20.6-35.9-33.7c-6.9-9-13.2-18.4-16.4-29.4
		c-1.4-4.9-0.9-9.1,3.3-12.8C244.4-33.7,247.5-37.1,251.1-40.8z M270.9-55.6c-1.3,1.2-2.3,2-3.2,2.8c-8.3,8-16.5,16.2-25,24.1
		c-2.9,2.7-3.8,5.6-2.7,9.2c0.7,2.5,1.5,4.9,2.5,7.2c8.5,18.2,21,33.2,36.2,46c5.5,4.6,11.9,8.1,18.1,11.7c2.6,1.7,6,1.3,8-1.1
		c9.1-9.2,18.2-18.4,27.3-27.5c0.5-0.6,0.8-1.2,1.1-1.8c-16.1-5.6-27.3-17.1-38-29C284.7-26.1,275.3-39.1,270.9-55.6L270.9-55.6z
		 M48.4,584.6l0.9,0c-0.2,3.9-0.5,7.9-0.6,11.8c-0.5,16.8-2.4,33.6,1.4,50.2c1.2,5.3,2.5,7,7,7.6c6.1,0.8,9.6-0.8,11.4-5.7
		c1.1-2.9,1.8-5.8,2.1-8.9c1.6-20.6,3.5-41.1,4.5-61.7c0.5-11.4-1-22.8-1.1-34.2c0-12.7,0.6-25.4,0.9-38.2c0.1-4.8,0.6-9.7,0.4-14.5
		c-0.2-6.2-4.5-11-9.4-11.3c-5.6-0.3-10.5,3.7-11.3,9.3c-0.9,6.4-1.7,12.9-2.1,19.4C51,533.8,49.8,559.2,48.4,584.6z M63.3,234.6
		l-1-0.4c-1.8,3.4-3.8,6.7-5.3,10.3c-12.5,29.5-24.2,59.2-33.6,89.8c-4.9,16-9.4,32.2-11.3,49c-0.2,1.5,0,3.8,0.9,4.4
		c7.9,5.8,16.1,11.5,24.2,17c1.8,1.2,3.5,0.9,4.9-1.1c3.2-4.6,6.4-9.2,9.9-13.5c4.5-5.4,6.3-11,3-17.7c-0.5-1.4-0.9-2.9-1.1-4.4
		c-5.5-19.8-7.3-40.4-5.3-60.8c2-20.7,6.5-40.9,11.7-61C61.2,242.4,62.3,238.5,63.3,234.6L63.3,234.6z M247.8,638
		c0.7-5-1-8.5-3.2-11.8c-0.4-0.5-1-0.8-1.6-0.8c-7.5,0.2-10.2-5.2-12.7-10.8c-10.6-23.9-16.6-49.3-23.4-74.4
		c-1.4-5.3-2.7-10.6-4-15.9c-0.8,0.5-1.1,1-1.1,1.4c-0.3,18.5-0.3,36.9-0.9,55.4c-0.4,11.6-1.4,23.1-2.9,34.6
		c-0.6,4.7,0,10.5-5.8,13.2c-0.5,0.2-0.6,1.6-0.5,2.4c0.7,3.4,1.5,6.9,2.4,10.5l6.2-2.5l6.1,26.5l37.5-30.5L247.8,638z M339.4,5.5
		c-0.8-3.1-1.9-6.2-3.1-9.1c-8.6-18.2-21.4-33.1-36.5-46.2c-5.7-4.9-11.6-9.5-19-11.7c-5-1.5-7.9,0.9-6.9,6.1c0.6,3.1,1.6,6.1,2.9,9
		c8.5,18.3,21.3,33.2,36.4,46.3c5.8,5,11.8,9.6,19.3,11.8C336.9,13,339.5,11.1,339.4,5.5z M218.9,658.9c5.7,2.1,9.6,5.7,12.8,10.3
		c0.9,1.1,2.3,1.7,3.8,1.6c8.8-0.7,17.4-2.3,25.4-6.2c11.4-5.6,19.8-14.9,28.9-23.4c0.8-0.9,1-2.2,0.6-3.3c-2.1-4.3-4.5-8.4-7-13
		c-1.2,1.2-2.5,2.4-3.9,3.5c-5.4,3.8-10.6,7.9-16.3,11.1c-4.8,2.9-10.8,3.1-15.8,0.6c-3.3-1.7-5.3-1.6-7.3,1.2
		c-0.9,1.3-1.7,2.8-2.5,4.2c1.4,0.6,2.7,1.2,4.1,1.8c0.2,0.1,0.2,0.4,0.3,0.6l-1.3-1.3l-4.3,3.3l2,0.9l-8.9-1.2l0.2,3.6l4.7,1.3
		c-1.5,1.2-3.1,1.3-4.1,2c-0.9,0.7-1.1,2.1-1.8,3.5C226.2,655.7,222,655.2,218.9,658.9L218.9,658.9z M127.8,654.5l-0.3,1.4
		c5.8,5.2,5.9,5.5,8.7,13c0.4,1.1,2,2.7,3.1,2.7c8.9,0.2,18,1.6,26.5-0.2c12-2.6,23.4-7.5,35-11.6c0.9-0.7,1.5-1.7,1.4-2.9
		c-0.9-4.8-2.1-9.5-3.4-14.7c-3.3,1.5-6,2.9-8.8,4c-11.6,4.5-23.1,8.1-33.4-3c-2,0.9-4,1.8-5.9,2.9c-0.9,0.6-1.5,1.6-1.6,2.6
		c0,0.6,1.2,1.4,1.9,1.9c0.7,0.4,1.3,0.7,2.1,1l-5.6,3l0.5-0.8l-7.7-3.8l-1.2,3.9l4.1,2.1l-7.4,2.8l-0.5-3.1L127.8,654.5z
		 M216,455.5c-44,3.5-86.3-7.1-129.9-13.9c2.9,4.8,4.8,9.1,10.3,10.3c6.9,1.5,13.7,3.9,20.6,5.6c28.6,6.9,58,10.1,87.5,9.5
		c9.9-0.1,9.9-0.1,11.7-9.6C216.2,456.7,216.1,456.1,216,455.5L216,455.5z M-17.7,474.3c13.1-4.7,25.8-2.9,38.7,0v-36.4
		c-2.6,1.2-4.8,2.6-7.2,3.2c-9.3,2.6-17.2-0.7-24.6-6.1c-1.4-1-4-2.1-4.9-1.5c-1.3,0.9-2.3,3.3-2.3,5c-0.2,10.6-0.1,21.1-0.1,31.7
		C-18.1,471.4-17.9,472.5-17.7,474.3z M106.4,197.8c3.7,12.8,28.2,29,43.2,23.6c4-1.4,7.8-3.1,11.4-5.3c9.4-5.7,16.9-13.5,23.4-22.5
		C158.6,200.1,132.8,202.2,106.4,197.8z M180.6,675.3c1.1,4.8,3.8,4.1,6.8,3.1c4.1-1.4,8.3-2.4,12.4-3.8c5.5-1.7,6.1-7.3,3.3-11.9
		c-0.6-0.5-1.5-0.7-2.2-0.5c-5.6,1.7-11.2,3.3-16.7,5.4c-10.4,4-20.7,7.7-32.1,7.1c-13.3-0.8-26.5-3.3-39.2-7.6
		c-2.9-1-4.5-0.5-5.7,2.2c-1.5,3.4,1.6,3.4,3.3,4.3c1.1,0.6,2.4,0.9,3.6,1.1c11.1,1.9,22.3,3.8,33.4,5.8
		C158.9,682.6,170,682.6,180.6,675.3L180.6,675.3z M279,665.5c6-4.1,12-8.1,17.9-12.3c0.7-0.5,1.5-2.2,1.2-2.7
		c-1.6-2.9-3.6-5.6-5.5-8.5c-5,4.5-9.4,8.6-13.9,12.5c-6.7,5.8-13.4,11.6-22.2,14.3c-15.7,4.9-31.7,6-48,5.1c-3.2-0.2-5,0.8-5.1,4
		c-0.2,3.6,2.8,2.9,4.7,2.8c9.1-0.6,18.3-1.2,27.3-2.4c7.7-1,15.3-2.5,22.8-4.4c6.9-1.8,12.4-6.1,17.1-11.7L279,665.5z M1.2,408.9
		l26.4,15.4l8.7-16.1l-24.7-17L1.2,408.9z M195.5,190.3l-1.2-1.2c-2.2,1.5-4.2,3.1-6.2,4.9c-6.1,6.2-11.7,13.1-18.2,18.8
		c-8.2,7.3-17.6,13.3-29.2,11.9c-16.4-1.9-29-10.2-36.9-25c-1-1.9-1.9-3.5-4.8-2.4c0.6,1.7,1,3.3,1.6,4.7
		c9.4,21.7,31.1,29,52.8,24.2c13-2.8,23.4-10.3,32-20.2C189.5,201.2,193.2,196.2,195.5,190.3L195.5,190.3z M163.1,632.2
		c0.4,3.9,1.4,7.3,1.1,10.6c-0.5,4,1.6,4.9,4.6,5.3c7.5,1.1,14.4-1.1,21-4.1c0.7-0.3,1.4-2,1.2-3c-0.3-3-1-6-1.9-9
		c-0.3-1-2-2.4-2.9-2.3C178.5,630.4,170.8,631.3,163.1,632.2z M248.4,625.8c0.8,3.6,2,7.1,2.4,10.7c0.2,2.4,1.1,3.1,3.3,3
		c8.5-0.4,15.2-4.9,21.1-10.3c1-0.9,0.3-3.8,0-5.7c-0.1-0.5-1.8-1.2-2.7-1.1C264.3,623.5,256.3,624.7,248.4,625.8z M235.3,619.6
		c1.9,1.2,3.1,2.3,4.4,2.7c1.7,0.5,3.5,0.7,5.3,0.5c11.2-1.3,22.4-2.8,33.6-4.2c3.8-0.5,3.7-3.4,3.9-5.8L235.3,619.6z M194.4,621.1
		l-43.5,4.7c1.4,2.3,2.5,4.4,5.7,4.1c11.1-1.2,22.3-2.4,33.4-3.5C193.7,626.1,194.6,623.9,194.4,621.1z M133.6,671.3l0.7-1.2
		c-1.3-5.1-3.8-9.5-8.5-12.3c-0.8-0.5-2.1-1.1-2.7-0.7c-3.8,2-7.5,4.3-11.2,6.4l0.4,1.6L133.6,671.3z M206.3,670.6l0.9,1h23
		c-3.1-5.5-6.8-9-12.2-10.4c-0.9-0.2-2.3-0.4-2.8,0C212.1,664.2,209.2,667.4,206.3,670.6z M282,457.9c5.4-1.3,9.9-2.4,14.4-3.6
		c5.5-1.4,7.1-3.4,7.6-9.4c-6.2,1.3-12.4,2.4-18.5,3.8c-0.9,0.3-1.6,1-1.9,1.9C282.8,452.7,282.6,454.8,282,457.9L282,457.9z
		 M95.8,469.6c6.2-2.6,11.9-4.9,15.7-10.8l-18.4-5.3L95.8,469.6z M285.9,459.7c4.7,4.8,8.7,8.8,15.1,10.3l1.5-14.5L285.9,459.7z
		 M19.7,424.4l0.4-1.4c-4.8-2.8-9.4-5.9-14.5-8.1c-3.3-1.4-6.6,0.3-9.2,2.1l6.2,6.6L19.7,424.4z M26.3,477.4c0.4-0.7,0.7-1.4,1-2.2
		c0-9.3,0.1-18.5,0-27.8c0-0.8-1.1-1.5-1.7-2.3c-0.6,0.8-1.8,1.7-1.9,2.5c-0.1,8.5-0.2,17,0,25.5C23.7,474.4,25.1,475.6,26.3,477.4z
		 M41.3,678.3c4.1,0.2,7.6-2.9,7.9-7c0.2-4.1-2.9-7.6-7-7.9c-0.3,0-0.5,0-0.8,0c-4,0-7.7,3.5-7.7,7.4S37.2,678.2,41.3,678.3z
		 M9.2,426.6c4.5,1.9,8.1,3.1,11.2,5c1.5,1,2.4,3.3,3.1,5.2c0.4,1.1-0.1,2.6,0.2,3.8c0.2,0.8,1.1,1.4,1.7,2.1
		c0.6-0.6,1.8-1.2,1.9-1.8c0.1-3.3,0.5-6.7-0.3-9.8c-0.5-1.8-3-3.9-4.9-4.2C18.2,426.2,14.2,426.6,9.2,426.6z M-4.6,420.3
		c-3.7,0.1-9.4,5-9.4,7.8c0.1,1.4,0.9,2.8,2,3.7c1.2,0.5,2.5,0.3,3.6-0.4c2.1-1.7,4-3.5,5.6-5.6c0.7-0.9,1.6-2.6,1.2-3.2
		C-2.4,421.7-3.5,420.9-4.6,420.3z M-1.9,438.4c2.8-2.4,5.6-4.5,7.8-7c0.9-1,1.1-3.8,0.3-4.6c-1.5-1.6-3.8-1.8-5.6,0.3
		c-1.6,1.8-3.4,3.3-5,5.1c-0.8,1-1.5,2.1-2.2,3.2L-1.9,438.4z M-15.4,426.8c-6.6-0.1-8.5,1.6-8.6,6.6c-0.1,1.9-0.1,3.8,0.1,5.7
		c0.3,1.2,0.9,2.3,1.6,3.3c0.8-1,1.5-2.1,2-3.3c0.9-2.3,1.4-4.7,2.2-7C-17.3,430.3-16.4,428.5-15.4,426.8L-15.4,426.8z M1.2,439.3
		c5.8,1.2,10.3-0.5,12.5-5c0.5-1,0.1-3.2-0.6-3.8c-1.3-0.5-2.7-0.4-3.8,0.4C6.5,433.4,4,436.3,1.2,439.3L1.2,439.3z M58.7,656.5
		c-1,2.9-0.3,4.5,2.3,5.8c2.8,1.4,6.3,0.4,8-2.3c1.2-2.1,1.5-4.2-1.2-6.6c0.2,3.3,1.7,6.3-1.9,7.8C61.4,663.1,60.7,658.9,58.7,656.5
		L58.7,656.5z M-59.1,657.3c2.1-1.5,5.8,1.2,5.6-2.9c-0.1-1.1-3.4-2-5.1-2.9l-0.8,1.1L-59.1,657.3z M37.5,657.2
		c-0.4,3.3-0.1,4.8,2.7,4.1c1.4-0.3,4.2,0.4,3.2-2C43,658.1,39.8,657.9,37.5,657.2L37.5,657.2z M14.5,439l5.4-4.5
		C17.3,432.8,17.3,432.8,14.5,439z"/>
	<path id="Trazado_19581" class="st1" d="M-24,95.3c1.5,1.4,2.9,2.9,4.4,4.3c3.1,3,5.1,3.3,8.2,0.3c2.2-2.3,4.1-4.8,5.8-7.5
		c0.5-0.8,0.7-1.8,0.4-2.8c-6.9-18.9-6.9-38.7-7-58.4c0-3.8,0-7.6,0-11.3l1.3-0.3c0.5,1.3,0.8,2.6,1,3.9c0.4,11.6,0,23.2,1.1,34.7
		c0.9,9.7,3.2,19.3,5.5,28.7c1.9,7.9,6.9,11.2,15.1,11.4c1.9,0,3.8,0,5.7-0.1c5.3-0.3,5.6-0.7,6.1-6.1c0-0.3,0.4-0.5,1.5-1.8
		c0.6,2.4,1.6,4.2,1.2,5.6c-0.7,1.7-1.9,3.1-3.6,3.9c-8.9,3.4-19,1.2-25.7-5.6c-2.1,2.5-4.1,5.2-6.3,7.5c-2.2,2.3-5.2,3.7-8.3,2.4
		c-3.5-1.5-5.7-4.5-7.7-7.5L-24,95.3z"/>
	<path id="Trazado_19582" class="st1" d="M146.6,19.1c0-5.7,4.7-10.2,10.3-10.2s10.2,4.7,10.2,10.3c0,5.6-4.7,10.2-10.3,10.2
		C151.2,29.2,146.7,24.7,146.6,19.1z"/>
	<path id="Trazado_19583" class="st1" d="M184.2,17.8c-0.6-1-1.3-1.9-1.9-2.9c-3.2-5.1-8.6-8.5-14.6-9.2c-2.8-0.2-5.5-1-7.9-2.4
		c-1.7-1.4-2.8-3.3-3.1-5.5c-0.3-2.5,1.3-4.4,4-5.3c3.8-1.2,7.9-1.2,10.2,1.9c5.2,6.8,9.7,14.1,14.5,21.2c0.3,0.4,0,1.2-0.1,1.8
		L184.2,17.8z M175.6,4.9l1-0.5c-2.8-3.1-5.3-6.7-8.7-8.9c-1.8-1.2-5.2-0.3-7.8,0c-0.5,0.1-1.4,2.8-1.1,3.2c1.7,1.7,3.7,3,5.9,3.9
		C168.4,3.8,172.1,4.2,175.6,4.9z"/>
	<path id="Trazado_19584" class="st1" d="M18.3,640.6c-0.8-0.3-1.6-0.8-2.3-1.4c-3.5-4.1-5.9-8.8-6-14.1
		c-0.3-11.9-0.4-23.9-0.4-35.8c0.2-1.9,0.5-3.7,1-5.5l1.2,0.1c0.2,0.8,0.3,1.5,0.4,2.3c0.3,7.7,0.6,15.5,0.8,23.2
		c0.2,3.2,0.1,6.4-0.2,9.5c-1,6.8,0.9,13.7,5.2,18.9c0.4,0.6,0.8,1.2,1.1,1.9L18.3,640.6z"/>
	<path id="Trazado_19585" class="st1" d="M-11.9,544c-2.9,3.5-32.2,4.4-51.2,1.9c1.5-0.9,2.2-1.7,3-1.7c3.3-0.1,6.7-0.6,9.9,0
		c11.5,2.1,22.9,0.4,34.3-0.2C-14.7,544-13.5,544-11.9,544z"/>
	<path id="Trazado_19586" class="st1" d="M-63.4,505.1c0.5-0.2,0.9-0.4,1.4-0.5c3.2-0.2,6.3-0.4,9.5-0.4c13.1,0.2,26.3,0.5,39.2,0.8
		C-17,507.8-48.8,508.7-63.4,505.1z"/>
	<path id="Trazado_19587" class="st1" d="M-7.4-3c0.8-0.9,1.6-1.8,2.5-2.6C-2.8-7-0.5-8.2,1.5-9.7c0.8-0.7,1.1-2,1.7-3.1
		c-1.4-0.2-3.2-1.1-4-0.5c-2,1.5-3.7,3.3-5.2,5.3c-1.3,1.6-2.3,3.5-4.3,5.1c0-1-0.4-2.2,0.1-2.8c2.1-3.1,4.1-6.5,6.7-9
		c1.4-1.3,4.2-1.7,6.2-1.4c3.2,0.5,3,2.5,1.9,5.5C3-6.3-0.9-5.4-3.9-3.1C-4.7-2.6-5.7-2.2-6.7-2L-7.4-3z"/>
	<path id="Trazado_19588" class="st1" d="M-14.8-1c-1.4,0.4-2.8,1.4-3.6,1.1c-2.7-1.2-5.6-2.5-7.7-4.5c-1.3-1.3-2.2-4.5-1.5-6
		c0.7-1.5,3.6-2.6,5.6-2.8c3.9-0.5,8.8,3.7,9.5,7.4c0.1,0.6-0.4,1.3-0.8,2.5c-0.9-1.3-1.8-2.5-2.8-3.7c-1.2-1.2-2.5-2.9-4-3.3
		c-1.6-0.4-3.5,0.5-5.2,0.8c0.6,1.4,0.8,3.4,1.8,4.1C-21.1-3.8-18.3-2.7-14.8-1z"/>
	<path id="Trazado_19589" class="st1" d="M-55.3,479.1c-3.3,1.7-6.7,3.3-6.4,8h6.1c-3.9,2.1-7.3,3.1-9.4,5.3
		c-2.1,2.2-2.9,5.6-4.7,9.3c-1.1-3.7-0.1-6.1,1.3-8.5c1.7-2.9,2.8-6.1,4.6-8.9c1.5-2.2,3.3-4.3,5.3-6.1c0.5-0.5,1.9-0.2,2.9-0.2
		L-55.3,479.1z"/>
	<path id="Trazado_19590" class="st1" d="M13.1,482.3c-10.7-4-21.4-4.2-32.9-0.5C-16.3,475.7,6.7,475.2,13.1,482.3z"/>
	<path id="Trazado_19591" class="st1" d="M-55.1,661.5c2.7,0.3,4.6,1.7,4.5,4.9c-0.1,3.1-2.1,4.5-5,4.5c-2.5,0.1-4.6-1.7-4.7-4.2
		c0-0.2,0-0.4,0-0.6C-60.1,663.1-58.4,661.6-55.1,661.5z M-52,666.4c-1.5-1.1-2.4-2.3-3.3-2.3c-1,0-1.9,1.2-2.8,1.9
		c0.8,0.9,1.6,2.3,2.6,2.6C-54.7,668.8-53.6,667.5-52,666.4L-52,666.4z"/>
	<path id="Trazado_19592" class="st1" d="M6.8,105c0.5,3.7-2,7.1-5.7,7.6c-3.8,0.6-8.9-2.7-9.2-6.4c2.8,1.3,5.4,3.7,7.9,3.5
		C2.1,109.5,4.3,106.7,6.8,105z"/>
	<path id="Trazado_19593" class="st1" d="M-42.8,478h-7.6l0-1.1h7.6L-42.8,478z"/>
	<path id="Trazado_19594" class="st1" d="M268.1,402.3c-5,0.7-6.2-6.7-11.8-3.4c0.8-9.9,1.4-19.2,2.5-28.5c2.8-23.6,6.4-47.2,4-71.1
		c-0.9-9-3.1-17.5-7.9-25.2c-0.5-0.9-0.8-2-0.6-3.1c3.6,1.6,4.8,4.9,6.1,8c5.6,13.2,6.5,27.2,5.6,41.2c-1.2,18.8-3.4,37.5-5.1,56.2
		c-0.5,4.8-0.9,9.6-1.4,14.4c-0.3,2.6,0.4,4.6,2.8,6.1C264.3,398.2,265.9,400.2,268.1,402.3z"/>
	<path id="Trazado_19595" class="st1" d="M253.9,408.8l1-6.4l1.6,0.2l-0.6,6.3L253.9,408.8z"/>
	<path id="Trazado_19596" class="st1" d="M66.2,593.7l3.9,0.7c-1.8,2.7-11.5,2.6-15.6,0.1c5.3-3.2,4.4-9.2,6.1-14
		c4.1-11.7,1.2-23.1-2.6-34.3c-0.6-1.8-2.1-3.2-3.7-5.5l15.9,0.9l0.1,1.1L67,544c1.5,8.3,4.2,16.5,4,24.6
		C70.9,576.8,68,585,66.2,593.7z M59.4,543.9c7.5,16.5,6.5,32.9,0.5,49.8c1.7-0.4,3.3-0.9,3.7-2c1.2-3.1,1.9-6.3,2.9-9.5
		c3.9-12,2.1-23.6-1.8-35.2C64.1,545.1,63.5,542.7,59.4,543.9L59.4,543.9z"/>
	<path id="Trazado_19597" class="st1" d="M46.4,670.6c-0.3,3.1-1.8,4.9-4.8,5s-4.9-1.6-5-4.5c-0.1-2.9,1.5-4.7,4.7-4.8
		C44.4,666.1,45.9,667.8,46.4,670.6z M44.9,670.8c-1.6-1.1-2.6-2.4-3.4-2.2c-1,0.2-1.7,1.6-2.5,2.5c0.8,0.7,1.6,2,2.5,2
		C42.5,673.1,43.4,671.9,44.9,670.8z"/>
</g>
</svg>
