<?xml version="1.0" encoding="utf-8"?>
<!-- Generator: Adobe Illustrator 23.0.2, SVG Export Plug-In . SVG Version: 6.00 Build 0)  -->
<svg version="1.1" id="Capa_1" xmlns="http://www.w3.org/2000/svg" xmlns:xlink="http://www.w3.org/1999/xlink" x="0px" y="0px"
	 viewBox="0 0 522.9 407.9" style="enable-background:new 0 0 522.9 407.9;" xml:space="preserve">
<style type="text/css">
	.st0{opacity:0.504;}
	.st1{fill:#333333;stroke:#333333;stroke-width:3;}
</style>
<g id="Grupo_348" transform="translate(146.624 303.891)" class="st0">
	<g id="Grupo_347" transform="translate(0 0)">
		<path id="Trazado_19668" class="st1" d="M214.8-38.9c0.6,0.4,1.3,0.9,1.9,1.3c6.1,3.9,9.2,12,0.8,18.1c-4.3,3.1-8.7,6-13.3,8.6
			c-9.8,5.5-20.4,9.3-31.5,11.2c-11.7,2.1-23.5,3.8-35.4,5.2c-20.8,2.5-41.6,3.6-62.3-0.2c-5.9-1.1-11.7-2.8-17.6-4.3
			C57,1,56.6,0.4,56.1,0c0.6-0.1,1.2-0.4,1.7-0.3c14.7,4.7,29.9,6.4,45.3,6.4c15.1,0,30-1.4,45-3.1c17.4-2,34.5-5.1,50.6-12.5
			c7-3.2,13.8-7,19.5-12.3c2.2-2,3.7-4.5,3.2-7.6c-0.7-4.4-6.9-9.9-11.4-10.1c-4.6-0.2-9.3-0.3-13.9-0.2c-0.7,0-1.5,0.8-2,1.4
			c-1.2,1.3-1.9,3.2-3.4,4.1c-2.5,1.6-5.2,2.7-8.1,3.4c-7,1.4-14.1,2.4-21.1,3.4c-6.9,1-13.8,2.1-20.8,2c-4-0.1-8,1.1-12,1.7
			c-1,0.1-2,0.2-3,0.1c-2.2-0.1-4.4-0.4-6.6-0.3c-6.7,0.3-13.5,1.5-20.2,1.1c-10.9-0.7-21.8-2.2-32.7-3.6c-4.9-0.6-9.7-1.7-14.5-2.7
			c-0.5-0.1-0.9-0.6-1.4-0.9l0.3-0.6c0.8,0.2,1.7,0.4,2.5,0.6c3.4,0.7,6.8,1.5,10.2,1.9c10.5,1.2,20.9,2.6,31.4,3.4
			c6.9,0.5,13.9,0.3,20.9,0.3c0.5,0,1-0.3,1.5-0.3c2.6-0.1,5.2-0.2,7.8-0.3c1.1,0,2.2,0.3,3.3,0.1c5.7-1.5,11.6-2.2,17.5-1.8
			c1.2,0.1,2.4,0,3.5-0.2c9.2-1.3,18.4-2.3,27.5-3.9c4.1-0.8,8.1-2,12-3.6c2.1-0.6,3.7-2.3,4.2-4.4c2.1-8.8,4.8-17.5,6.5-26.3
			c1-5.7,1.5-11.4,1.5-17.1c0.1-5.9-1.8-10.9-7.6-13.9c-2.3-1.4-4.6-2.9-6.8-4.5c-15.7-10.5-32-19.8-50-25.9c-6-2-12.2-3.5-18.3-5.3
			l-0.7,1.1l2.5,0.9l-0.7,0.9l-4.9-2.6l-0.5,3l-0.5,0l-0.6-2.9l-3.9,2l-0.4-0.6l2.5-2.2L111-133c-3.8-0.2-7.6-0.5-11.4-0.6
			c-10.7-0.2-21.2,1.3-30.8,6.3c-1.5,0.8-2.4,0.5-3.7-0.3c-5.2-3.1-10.4-6.3-15.8-9.1c-3.3-1.7-5.1-0.7-5.8,2.8
			c-1.5,7.1-0.5,14.4,2.7,20.8c0.6,1.3,0.8,2.7,0.5,4.1c-0.9,2.9-2.2,5.6-3.3,8.4c-2.7,7.1-6.2,14.1-7.9,21.5
			c-2.2,9.5-3.1,19.3-4.6,29c-0.1,1-0.4,2-0.6,3l-0.7-0.1c0.1-1.9,0.3-3.7,0.5-5.6c1.2-12.9,2.9-25.8,7.9-37.9
			c2.4-6,5-11.9,7.6-17.8c0.6-1.4,0.4-3-0.4-4.3c-3.3-7-4.5-14.3-2.5-21.9c1-3.9,3.1-5,6.8-3.3c4.1,1.8,8.1,4.1,12.1,6.3
			c2,1.1,3.7,2.4,5.6,3.7c0.2-0.4,0.3-0.5,0.3-0.7c0-0.5-0.2-1-0.2-1.5c-0.7-5,0-10.1,2.1-14.7c1.4-2.8,3.1-3.3,5.7-1.6
			c4.2,2.6,7.6,6.3,10,10.7c0.6,1.1,1.1,1.9,2.7,1.6c7.6-1,15.3-1,22.9,0c0.8,0.1,1.6,0.1,2.6,0.1c-0.5-5-0.9-9.8-1.5-14.5
			c-0.2-1.2-0.7-2.3-1.5-3.2c-4.1-4-8.2-8-12.4-11.9c-1.3-1.2-3.1-2-4.5-3.1c-0.7-0.5-1.1-1.3-1.2-2.1c0-0.7,0.8-1.4,1.4-2
			c0.9-0.7,2-1,2.8-1.8c2.5-2.4,4.9-4.9,7.3-7.3c0.6-0.6,1.1-1.2,1.8-2c-15.2-2.2-20.6-6.3-24-18.6c-0.3,0-0.7,0-1.1,0
			c-2.2,0.1-4.7-1.1-5.3-2.8c-0.7-1.9-0.2-4,1.4-5.2c0.4-0.5,0.6-1.1,0.5-1.7c-0.3-2.1,0.8-4.2,2.8-5c0.6-0.3,1-0.7,1.3-1.3
			c1-2.4,2.9-2.9,4.7-1c0.8,0.9,1.6,1.9,2.2,2.9c6.4-3.4,19.6-4.4,22.2-1.3c-0.9,0-1.5,0-2.1,0c-3.4-0.1-6.8-0.4-10.2-0.2
			c-9.9,0.5-16.2,7.4-15.1,16.2c0.8,6.7,8.1,14.5,15,15.7c8.1,1.3,16.3,1.3,24.4,0c2.5-0.4,4.8-1.4,6.7-2.9
			c8.5-6.5,8.1-16.3-0.7-21.9c-4.4-2.8-9-5.3-14.3-6c-0.8-0.2-1.5-0.5-2.2-0.9l0.3-0.7c4-0.1,7.6,2,11.3,3.1
			c0.2-0.2,0.3-0.3,0.3-0.4c0-5.2,0-10.3-0.1-15.5c0-0.5-0.9-1.3-1.5-1.5c-4.7-1.8-6.8-5-6.2-9.9c0.7-6.1,6.7-9.9,11.6-7
			c2.4,1.5,4.1,4.1,6.3,6.1c0.8,0.8,1.7,1.3,2.8,1.6c2.6,0.3,5.1,0.3,7.7,0.5c0.5,0.1,1.1,0.2,1.6,0.4l-0.1,0.6
			c-0.7,0-1.4,0.1-2.1,0.1c-2.4,0-4.7-0.1-7.1,0c-0.7,0-1.7,0.5-1.9,1c-0.9,2.8-3.1,4.4-5.6,5.6c-1.1,0.4-1.7,1.4-1.5,2.5
			c0.1,5.1,0.3,10.2,0.2,15.3c-0.2,1.9,0.7,3.7,2.3,4.7c5.4,3.6,7.4,9.4,5.6,15.2c-1.2,3.4-3.3,6.3-6.1,8.5
			c-2.9,2.4-6.4,2.9-9.9,3.2c-1.1,0.1-2.1,0.1-2.4,1.6c-1.4,6.2-3,12.5-4.5,18.7c-0.1,0.6-0.1,1.3,0,1.9c0,0.9-0.2,1.8-0.1,2.7
			c0,1.7-0.4,3.8,0.3,5c0.8,1.3,1,2.8,0.6,4.3c-0.2,0.6-0.2,1.1-0.2,1.7c0.3,3.6,0.7,7.2,1,10.8c0.1,1.5,0.6,2.1,2.2,2.4
			c11.4,2.1,22.5,5.5,33,10.2c16.9,7.4,32.4,17.2,47.4,27.9c1.5,1.2,2.7,2.7,3.5,4.4c2.1,4.1,2,8.5,1.9,13c-0.2,9.6-2.5,19-4.8,28.2
			c-0.7,2.8-1.5,5.5-2.3,8.4c0.9,0.1,1.6,0.2,2.2,0.2c4.6,0.1,9.1,0.2,13.7,0.3c41.9,0.7,83.7,1.5,125.6,2.2
			c4.9,0.1,9.7,0.2,14.6,0.3c0.6,0.1,1.3,0.3,1.9,0.5l-0.2,0.8c-46-0.9-91.9-1.7-137.9-2.6L214.8-38.9z M109.8-157.3
			c-0.8-1.4-0.9-2.6,0.5-3.6c0.5-0.3,0.9-0.8,1.1-1.3c1.7-6.5,3.3-12.9,5-19.8c-3.1,0-5.8-0.1-8.5,0.1c-0.5,0-1,0.6-1.4,1
			c-3.3,3.3-6.6,6.6-10,10c-1.2,1-1.4,2.8-0.4,4c0.1,0.1,0.2,0.2,0.3,0.3c4.6,4.6,9.3,9,14,13.4c0.1,0.1,0.3,0,1.1,0.1
			C111-154.5,110.5-155.9,109.8-157.3z M129.4-233.2c1.4-0.7,2.5-1.8,3.4-3c0.6-1.1,0.9-3.1,0.3-4c-1.5-2.3-3.4-4.4-5.6-6
			c-4.9-3.5-9.7,1.4-10.2,5.6c0,0.5,0,1,0,1.5C117.1-233.1,123.6-229.9,129.4-233.2L129.4-233.2z M84.5-134.1
			c-1.8-3.6-4.4-6.9-7.5-9.4c0,0-0.1-0.1-0.2-0.1c-4.7-3.6-6.3-3.1-7.7,2.7c-1,3.9-1.5,7.9-0.4,11.8L84.5-134.1z M126.7-216.2
			c-0.1-4.3-0.1-8.5-0.3-12.8c0-0.5-0.5-1-0.8-1.5c-0.3,0.5-0.8,1-0.8,1.5c0,4.8,0,9.7,0.2,14.5c0.1,0.9,0.4,1.8,0.7,2.7l0.9-0.2
			C126.7-213.3,126.7-214.7,126.7-216.2z M82.5-212.3c-0.9-1-1.5-2.4-3-0.7c-1.3,1.4-1.4,3.6-0.1,4.7c2.3,2,3.2,1.6,4.8-2.4
			C83.6-211.2,83.1-211.7,82.5-212.3L82.5-212.3z M79.3-206.7c-1.1-0.8-2.2-1-2.6,0.3c-0.3,1-0.2,2.1,0.4,3c0.7,0.7,1.7,1.1,2.7,1.2
			c1.8,0.3,2-0.1,2.1-3C81-205.6,80.1-206.2,79.3-206.7L79.3-206.7z M85.4-212.4c0.5-0.4,1-0.8,1.3-1.3c-0.9-1.2-1.9-2.4-3-3.5
			c-0.7,0.4-1.4,0.9-2.1,1.4C83.1-214.3,84.2-213.3,85.4-212.4L85.4-212.4z"/>
		<path id="Trazado_19669" class="st1" d="M-96.6-209.4c0.2,0.5,0.3,1,0.3,1.5c-0.1,1.7,0,3.4,0.1,5.1c0.2,0.9,0.7,1.7,1.4,2.3
			c1.5,1.6,3.4,2.8,4.7,4.6c2.6,3.7,3.5,8.1,3.8,12.5c0.4,8.7-1.4,17.1-3.2,25.6c-0.9,4.2-2,8.4-5.4,11.3c-1.1,0.9-1.6,2.3-1.5,3.7
			c0.4,19,0.9,38,1.3,57c0,0.4,0.1,0.8,0.2,1.2c0.8-3.7,0.9-7.4,1.4-11.1c0.6-4.7,1.5-9.4,2.4-14.1c0.1-0.7,1.2-1.3,1.8-1.9
			c0.5,0.7,1.4,1.2,1.6,2c0.8,2.5,1.3,5.1,1.5,7.8c0.1,9.5,0,19,0,28.5c0,1.6-0.2,3.2-0.4,5.2c1.3-3,2.2-5.7,3.4-8.2
			c0.5-1,1.8-1.6,2.8-2.4c0.5,1.1,1.3,2.2,1.3,3.3c0,3.8-0.3,7.6-0.6,11.5c-0.2,2.4-0.7,4.8-1.1,7.4c1.8-1.9,3.1-3.6,4.8-5
			c1.5-1.3,2.7-0.8,2.9,1.1c0.2,1.6,0.1,3.2-0.2,4.8c-1.1,5.1-4.1,9.4-7.1,13.6c-0.4,0.6-0.8,1.3-1.4,2.2c37-0.3,73.6-0.5,110.2-0.8
			l0,0.9c-0.8,0.1-1.6,0.2-2.5,0.2C-9.6-39.3-44.8-39-80-38.8c-3.6,0-5.2,1.8-6.8,4.2l0.4,0.6l3.4-3.1c0,1-0.4,1.9-1,2.6
			c-3,2.7-10.4,3.1-13.9,0.8c-0.3-0.3-0.6-0.6-0.7-1c-1.3-3.5-1.9-3.9-5.3-3.9c-5.7,0.1-11.5,0.1-17.2,0.2c-0.8,0-1.6-0.1-2.4-0.2
			l0-0.9h22c-0.7-1.3-1-1.9-1.3-2.6c-1.8-3.3-3.9-6.4-5.4-9.8c-1.1-2.5-1.9-5.2-2.2-8c-0.3-2.6,1.4-3.4,3.7-2.1
			c0.9,0.5,1.8,1.2,2.9,1.9c0-0.7,0-1,0-1.4c-0.5-4.8-1-9.7-1.4-14.5c-0.1-1.7,0-3.4,0.3-5c0.2-0.7,0.7-1.4,1.4-1.7
			c0.4-0.1,1.3,0.6,1.6,1.1c0.7,1.3,1.3,2.6,1.8,4c0.7,1.8,1.2,3.7,1.8,5.6l0.5-0.1c-1-25.3-2.1-50.6-3.1-75.8l1.1,0l3,72
			c0.4-2.5,0.5-4.9,0.4-7.4c-0.4-19.3-0.9-38.6-1.3-57.9c-0.2-1.9-0.5-3.7-1-5.5c0-0.5-0.1-1.1,0-1.6l0.5,0l1.2,1.6
			c2.1-1.3,3.6-3.2,4.3-5.5c3.7-10.4,5.4-21.3,4.9-32.3c-0.1-3.9-1.4-7.8-3.6-11c-1.2-1.6-2.5-3.2-4.8-3.7l-0.6,3.7l-0.6-0.1
			l-0.4-3.9c-1,0.7-1.9,1-2.3,1.7c-1.3,2.4-3,4.8-3.6,7.4c-2.3,9.8-0.6,19.5,1.5,29.1c0.8,3.8,2,7.4,3.1,11.2
			c-1.8,0.2-1.8,0.2-2-1.1c-0.1-0.7-0.2-1.4-0.4-2.2c-1.4-7.8-3.1-15.6-4.1-23.5c-0.6-5.4-0.2-10.8,1.4-16
			c1.8-6.7,1.9-13.3-1.6-19.5c-0.7-1.4-1.3-2.8-1.8-4.2c-2.8-8.2-4.6-16.8-5.3-25.5c-0.6-6.5-0.9-13.1-0.9-19.6
			c0.1-4.9,1.9-9.7,6.2-12.3c3.1-1.8,3.4-4,3.2-6.8c-0.1-1.1,0-2.2,0.1-3.3c0.1-0.4,0.3-0.8,0.5-1.2l0.7,0.1c0,2.6,0,5.2,0,7.8
			c0,1.8-0.8,2.7-2.3,3.6c-1.7,1-3.2,2.3-4.4,3.8c-3.2,4.6-3.5,9.9-3.1,15.3c0.8,11.8,2,23.5,5.5,34.8c1,3.4,2.6,6.5,4,9.8l0.9-0.1
			c0.8-2.3,1.8-4.6,2.5-7c3-10.6,5-21.4,5.9-32.3c0.5-5.4,0.8-10.9-1-16.2c-1.1-3.2-2.6-6.2-5.9-7.9c-0.5-0.2-0.7-0.9-1.4-1.8
			c3.5,0.9,6.3,3.4,7.5,6.8c1.9,4.7,2.7,9.9,2.2,15c-1,13.5-2.8,27-7.2,39.9c-0.7,2-2.1,3.9-2.2,5.9c-0.3,3.2,0.2,6.4,0.4,9.9
			c0.9-0.8,1.4-1.5,2.1-1.7c2.4-0.8,2.4-2.6,2.3-4.6c-0.1-1.6,0-3.2,0-4.9L-96.6-209.4z M-90-48.9c0.7-7.8,1.9-15.7,2.2-23.5
			c0.4-9.8,0.3-19.6,0.2-29.4c0-2.8-0.9-5.5-1.4-8.3l-1,0c-0.5,1.5-0.9,3.1-1.2,4.7c-2.9,21.1-4,42.4-3.4,63.7c0,1.6,0,3.2,0,4.8
			l-0.7,0c-0.6-7.6-1.2-15.1-2-22.7c-0.8-7.5-2.1-14.9-5.6-21.7l-0.8,0c-0.3,1.5-0.4,3.1-0.4,4.6c0.5,6.1,1,12.2,1.9,18.2
			c0.4,2.8,2.1,5.3,2.8,8.1c0.9,3.6,1.4,7.4,2.1,11.1c0.1,0.5,0.1,1,0,1.5c-0.9,2.4-0.3,3.1,2.1,3.8c4,1.3,6.9,0.2,9.2-3.3
			c3.4-5.2,7-10.3,10.3-15.6c0.8-1.5,1.3-3.1,1.6-4.8c0.2-1.1,0.1-2.2-0.3-3.2c-4.6,3.2-7.1,7.8-9.6,12.4c-2.4,4.5-4.4,9.3-6.8,14.6
			C-90.7-39.3-90.4-44.1-90-48.9L-90-48.9z M-89.8-42c5.9-4.5,11.8-29.6,8.4-36C-87.2-66.5-87.9-54.3-89.8-42L-89.8-42z
			 M-100.6-49.9c-1-3.1-2.3-6-4.1-8.7c-0.8-1.2-2.7-1.8-4-2.6c-0.1,1.5-0.7,3.3-0.1,4.5c1.5,3.6,3.4,7.1,5.2,10.6
			c1.4,2.7,3,5.2,4.5,7.8l0.9-0.2C-98.8-42.3-99.6-46.1-100.6-49.9L-100.6-49.9z"/>
		<path id="Trazado_19670" class="st1" d="M57.4,76.8c-5.1-1.3-10.2-2.9-15.2-4.4c-5.5-1.5-10-5.4-12.4-10.5
			c-2.5-5.2-1.5-9,3.5-11.9c4.8-2.8,10.1-4,15.5-4.8c12.5-1.7,24.6-0.1,36.6,3.8c5,1.6,8.5,4.8,11.4,8.9c1.7,2.4,1.7,5.7-0.2,8
			c-1.3,1.6-2.8,3-4.5,4.2c-8.3,5.4-17.6,7-28,7.2C61.8,77.4,59.6,77.2,57.4,76.8z M91.4,54.1l0.1-0.6c-1.2-0.7-2.5-1.4-3.8-2
			c-13.8-5.4-28-7.4-42.6-4.1c-3.9,0.8-7.8,2.2-11.4,4c-4.8,2.4-5.3,5.4-2.9,10.2c2.8,5.8,7.9,8.4,13.6,10.4
			c7.6,2.7,15.3,4.7,23.5,4c8.4-0.7,16.6-2.2,23.8-7.2c1.4-1,2.7-2.2,3.8-3.6c1.3-1.6,1.6-3.8,0.7-5.6c-1.2-2.6-2-3-4.8-2.4
			c-5.5,1.1-11.1,2.2-16.7,3.3c-0.5,0.1-1,0.1-1.4,0l-0.2-0.8L91.4,54.1z"/>
		<path id="Trazado_19671" class="st1" d="M202.3,39.3c-1.2,0.5-2.1,0.4-2.5-0.8c-0.7-2.2-1.1-4.4-1.7-6.8c0.4,0.1,0.3,0,0.2,0.1
			c-0.4,0.2-0.8,0.4-1.2,0.6c-3.2,1.7-7.1,1.9-10.4,0.4c-1.7-0.7-1.9-1.7-1-3c0.8-1.2,1.8-2.2,2.7-3.3c-7.1-3.2-12.1-10.2-11.3-16.2
			c4.3,2.3,9.8,2.2,11.9,7.8c-2.9-3.1-6.6-4.8-10.9-5.7c1.6,6.3,4.7,10.8,11,12.6c0.7,0.3,1.4,0.8,2,1.4c-1.3,0.9-2.6,1.9-3.8,2.9
			c-1,1.1-1,2,0.7,2.5c4,1.2,7.5,0.2,10.6-1.5c-0.4-2.7-0.7-5.2-1-7.6c0-0.4-0.2-0.8-0.5-1.2c-1.9-1.4-3.8-2.7-6.2-4.4
			c-0.1,3.1,0,5.5,1.8,7.3c1.5,1.6,3.4,2.9,5.4,4.6c-5.3-0.8-8.9-5.8-8.1-11c0.1-0.8,0.3-1.5,0.6-2.3l6.9,4.5l2.1-5.8l4.4,5.5
			c1.5-1.6,1.6-4.4,4.5-5l0.8,3.7l11.1-8.7c-0.1,0.5-0.1,1-0.3,1.2c-3.1,3.1-4.1,7.3-5.9,11.1c-0.8,1.5-1.9,2.8-3.2,3.9
			c-1.7,1.6-4.5,1.4-5.9,3.6c0,0-0.2-0.1-0.4-0.2c3.7-9.5,3.8-10.2,2-12.9l-5.2,12.9c-0.3-1.7-0.2-3.4,0.3-5
			c1.1-3.2,0.7-5.2-2.3-7.7c-0.9,4-1.7,7.7-0.1,11.6c0.2,0.6,0.2,1.3,0.2,2c0.2,2.2,0.3,4.4,0.5,6.6c0.1,1.7,1.1,1.7,2.3,1
			c0.7-0.3,1.4-0.8,1.9-1.4c1.1-1.6,2.1-3.2,3.2-5C207.7,34.9,205.5,38,202.3,39.3z M208.1,26c3.3-0.3,6.8-5.9,6.9-11.1
			C211.6,18.1,208.4,21.1,208.1,26L208.1,26z"/>
		<path id="Trazado_19672" class="st1" d="M-44.3-6.4c-3.6-1.8-6.3-5-7.4-8.9c-1-2.9-0.4-5.3,2.4-6.5c3.2-1.5,6.5-2.5,10-3
			c11.5-1.5,22.4,1,32.6,6.5c2.5,1.4,3.6,3.8,4.8,6.1c1.3,2.7-0.3,5.6-3.6,7.6c-5.3,3.2-11.1,4-18.8,4.1C-30.7,0-37.5-3.2-44.3-6.4z
			 M-6.8-16.2l0.2-0.7c-2.2-1.2-4.5-2.3-6.8-3.3c-9.6-3.5-19.5-5.2-29.7-2.9c-1.7,0.4-3.3,0.9-4.8,1.7c-3,1.5-3.7,3.4-2.5,6.5
			c1.3,3.4,3.9,6.2,7.2,7.7c7.8,4,16,6.3,24.9,5.2c4.3-0.5,8.5-1.4,12.1-3.8C-4.8-6.8-3.7-8.2-3-9.8c0.9-2.5-0.9-4.3-3.5-3.9
			c-3.8,0.5-7.6,1-11.4,1.4c-0.5,0-1.1,0-1.6,0l-0.2-1L-6.8-16.2z"/>
		<path id="Trazado_19673" class="st1" d="M301.2-21.7c3.7,1.3,7.5,2.8,10.3,5.8c1.6,1.7,2.5,3.7,1.4,6c-1.4,3.1-3.6,5.6-6.9,6.7
			c-10.7,3.5-21.1,3-31.3-2.1c-3.7-1.8-7-4-9.2-7.6c-1.2-1.9-1-4.4,0.5-6.1c2.1-2.4,4.6-4.3,7.9-4.6c3.4-0.3,6.7-0.7,10.1-1.1
			C289.9-24.7,295.7-23.7,301.2-21.7z M282.3-15l-0.4,0.9c-1.9-0.7-3.9-1.3-5.8-2c-2.1-0.8-4.2-1.7-6.4-2.5c-2-0.8-3.6,0.1-3.6,2.2
			c0,1.2,0.3,2.4,0.9,3.5c2.9,4.2,7.3,6.3,11.9,8c2.6,0.9,5.3,1.6,8.1,2.2c6.5,1.4,12.7-0.1,18.9-1.9c2.9-0.9,4.7-3.2,6-5.9
			c1.1-2.2-0.3-3.8-1.8-5.2c-3.8-3.3-8.5-4.9-13.3-6.1c-7.9-2-16.1-2.1-24.1-0.2c-0.6,0.1-1.2,0.4-1.8,0.6l0,0.6L282.3-15z"/>
		<path id="Trazado_19674" class="st1" d="M104.8-106.3c0-4.5-2.1-7.3-5.3-7.7c-2.5-0.5-5.1,0.7-6.4,3c-1.5,2.6-1.7,5.8-0.4,8.5
			c1.1,2.6,3.9,4.1,6.7,3.6c2.8-0.5,4.9-2.8,5.2-5.6C104.8-105.1,104.8-105.7,104.8-106.3z"/>
		<path id="Trazado_19675" class="st1" d="M183.1,32.3c-0.5-0.3-1-0.6-1.5-0.9c-3.8-2-4.3-1.9-6.5,0.5c-2,2.2-2.1,4.8-0.3,7.5
			c2.7,3.9,6.6,6.2,10.8,8.1c11.2,5.1,22.6,5.1,34.2,1.5c4.1-1.3,7.3-4.4,8.8-8.3c1.5-3.4-1.4-7.7-6.1-8.6c1.3,1,2.2,1.7,3.1,2.5
			c2.7,2.4,2.9,4.3,1,7.4c-1.7,3-4.5,5.2-7.8,6.1c-7.3,1.9-14.7,3.2-22.2,1.6c-6.8-1.4-13.2-3.7-18.5-8.3c-1.1-1-2-2.1-2.8-3.4
			c-1.3-2.1-0.7-4.8,1.3-6.2c0,0,0,0,0,0c0.6-0.3,1.3-0.4,2-0.3c1.4,0.3,2.8,0.9,4.1,1.3L183.1,32.3z"/>
		<path id="Trazado_19676" class="st1" d="M202.8-31.7c1.6,3.9-0.6,6.4-3.1,8.7c-7.1,6.5-15.7,11.1-24.9,13.5
			c-13.3,3.8-26.9,3.8-40.6,3.2c-2-0.1-3.9,0-5.9,0.4c0.4,0.2,0.8,0.3,1.3,0.4c13.6,1,27.3,1.4,40.7-1.6c11.6-2.5,22-7.4,30.5-15.9
			c1.3-1.4,2.3-3,3-4.8c0.4-1.2,0-2.7-0.1-4L202.8-31.7z"/>
		<path id="Trazado_19677" class="st1" d="M204.4,4.4c-1.4-3.3-2.5-6.6-6.4-8.5l-3,11l-7.7-7.8c-0.1,5-1,9.8,1.5,14.2
			c0.9,1.7,2.8,2.5,4.7,2.1c-5.6-2.7-5.4-7.6-5.4-13c2.3,1.7,4,3.4,6,4.6c2.4,1.5,1,4.6,3.6,6.6c-1.1-5.3-0.8-10.7,0.9-15.9
			c4.9,4.1,5.8,9,3.9,14.7l0.8,0l5.3-13.5C206,0,205.8,2.6,204.4,4.4z"/>
		<path id="Trazado_19678" class="st1" d="M23.9-33.2c-0.9,2.1-0.5,4.5,0.9,6.3c1.4,2.1,3.2,4,5.3,5.5C46.4-10.6,64.2-5.1,83.8-6.1
			c0.8,0,1.5-0.2,2.3-0.3l0-0.6c-0.8,0-1.6,0-2.4,0c-14.5,0-28.6-2.4-41.7-8.8c-4.3-2.1-8.4-4.5-12.4-7.1c-3.4-2.2-5.5-5.3-5.2-9.6
			C24.4-32.6,24.2-32.8,23.9-33.2z"/>
		<path id="Trazado_19679" class="st1" d="M190.6-43.8c-0.5,0.4-0.9,0.7-1.4,1.2c-1,1.2-2.2,2-3.8,1c-1.5-0.9-2.5-3.4-2.2-4.7
			c1-4.1,2.3-8.2,2.6-12.4c0.6-7.8,0.6-15.6,0.9-23.4c0-0.5-0.3-1-0.7-1.3c-0.2,0.8-0.3,1.5-0.4,2.3c-0.4,8.8-0.6,17.7-1.3,26.5
			c-0.3,3-1.3,5.9-2.7,8.5c-1.4,2.9-5.9,4.2-8.7,2.8c-0.8-0.4-1.1-1.6-1.7-2.4c-1.3,1.8-0.5,3.5,1.9,3.8c3.5,0.5,5.6,0,8.9-2.3
			c1.5,2,2.4,5.1,5.9,4C189.7-40.6,190.8-42.1,190.6-43.8z"/>
		<path id="Trazado_19680" class="st1" d="M2.6,1.9c3.1,7.4,42,28.6,54.4,29.5C37.3,25,18.8,15,2.6,1.9z"/>
		<path id="Trazado_19681" class="st1" d="M-95.3-17c0.9,0.5,1.8,0.9,2.7,1.2c11.3,2.5,21.1-0.6,29.4-8.5c2.1-2,3.5-4.4,3-7.4
			c-0.2-1.3-0.7-2.3-2.3-2.4c1.8,4.3,1.3,6.5-2.5,9.8c-8.3,7.1-17.8,9.8-28.5,6.9c-0.5-0.1-0.9-0.2-1.4-0.3L-95.3-17z"/>
		<path id="Trazado_19682" class="st1" d="M63.2-16.9c3.9,3.6,32.1,5.7,37.7,2.5c-6.2,0-12.5,0.3-18.7-0.1
			C75.9-14.8,69.7-16,63.2-16.9z"/>
		<path id="Trazado_19683" class="st1" d="M65.1-125.7c-0.4-0.5-0.6-1.1-1.1-1.4c-4.3-2.7-8.5-5.6-12.9-8c-4.2-2.3-6.8-0.8-7.1,4
			c-0.5,6.2,1.8,11.7,4.3,17.1c0.2,0.4,0.7,0.6,1.4,0.7c-1-2.1-1.8-4.2-2.5-6.4c-0.9-3.1-1.5-6.3-2.2-9.4c-0.1-0.8-0.1-1.6,0.1-2.4
			c0.6-3.3,2.2-4.3,5.1-2.7c4.2,2.3,8.2,4.9,12.2,7.4c0.8,0.5,1.5,1,2.3,1.5L65.1-125.7z"/>
		<path id="Trazado_19684" class="st1" d="M52.5,83.8c0.7,0.3,1.4,0.5,2.1,0.7c13.6,2.8,27.8,0.7,39.9-6c2.7-1.3,4.6-3.8,5.2-6.8
			c-0.5,0.4-0.9,0.5-0.9,0.8c-1,3.1-3.5,4.7-6.1,6c-12.4,5.9-25.4,7.7-38.9,4.7c-0.3,0-0.7,0-1,0L52.5,83.8z"/>
		<path id="Trazado_19685" class="st1" d="M32.3-5.2c-4.5-2.3-9.2-4.4-13.6-7c-5.2-3.1-9.9-6.8-13.3-12c-2.5-3.9-3.5-7.9-1.3-12.3
			c0.2-0.5,0.2-1,0-1.5c-1.6,1-2.1,2.7-2.3,4.4c-0.6,5.4,1.9,9.7,5.3,13.5c4.7,5,10.4,9.1,16.8,11.9C26.6-7,29.4-6,32.2-4.9
			L32.3-5.2z"/>
		<path id="Trazado_19686" class="st1" d="M134.7-71.7c0.1,13.8-0.5,27.5-3.4,41.1l1.2,0.1C135.1-44.2,136.8-57.8,134.7-71.7z"/>
		<path id="Trazado_19687" class="st1" d="M52.8-113.4c2.4-3.2,0.6-6.5-0.7-9.9c1.1,0.8,2.2,1.6,3.3,2.3c1.9,1,2.8,0.4,2.7-1.7
			c-0.1-0.9-0.3-1.8-0.5-3.1c1.2,0.5,2.1,0.9,3.1,1.2c0.9,0.3,1.8,0.6,2.7,0.8l0.3-0.7l-9.1-4.7l2.8,6.9l-0.8,0.5l-7.4-5.7l-0.5,0.4
			c0.2,0.8,0.5,1.5,0.8,2.3c0.6,1.3,1.6,2.4,1.9,3.7C52-118.5,52.4-115.9,52.8-113.4z"/>
		<path id="Trazado_19688" class="st1" d="M144.2-17.4c7.2,4,34.4-0.7,38.2-6.4c-5.9,2.8-11.9,5.4-18.5,5.6
			C157.5-17.9,151.1-17.6,144.2-17.4z"/>
		<path id="Trazado_19689" class="st1" d="M189.1,63.2c0.5,0.2,1.1,0.4,1.7,0.6c9.9,1.7,19.7,1.8,29.3-1.2c5.9-1.9,10.9-5,14.1-10.5
			c0.3-0.5,0.4-1.1,0.4-1.7c-0.8,1.2-1.6,2.3-2.6,3.4c-5.2,6.3-12.3,8.8-20.1,9.8c-6.8,0.8-13.7,0.5-20.5-0.8
			c-0.7-0.1-1.5-0.1-2.2-0.2L189.1,63.2z"/>
		<path id="Trazado_19690" class="st1" d="M118-29.2c0.4-0.4,0.7-0.9,0.9-1.5c0.7-3.6,1.8-7.2,1.9-10.8c0.3-8.2,0.1-16.5,0.1-24.7
			c0-0.4-0.2-0.7-0.6-0.9c0,12.6,0.3,25.3-3,37.6L118-29.2z"/>
		<path id="Trazado_19691" class="st1" d="M161.7,43.5c-8.9,0.2-17.1,0.7-25.3,0.5c-8.2-0.2-16.4-1-24.5-1.5
			C115.1,45,153.1,46,161.7,43.5z"/>
		<path id="Trazado_19692" class="st1" d="M83.7-110.7c1.4-3.1,2.7-6.1,4.3-9.1c0.8-1.5,2.2-2.7,4-1.8c1.2,0.5,2.2,1.5,2.7,2.8
			c0.5,1.9-1.4,2.6-2.7,3.5c-2.3,1.5-4.5,3.2-6.7,4.9c-0.4,0.3-0.8,0.7-1.5,1.3C83.7-110,83.6-110.4,83.7-110.7z M91.9-116.9
			c0.7-0.4,1.3-1,1.5-1.8c0.1-0.4-0.9-1.4-1.5-1.5c-0.9-0.2-1.8,0-2.5,0.6c-1.3,1.9-2.4,3.9-3.5,5.9C88.4-115,90.2-115.9,91.9-116.9
			L91.9-116.9z"/>
		<path id="Trazado_19693" class="st1" d="M64.6-33.1l1.1-30.7C63.6-53.8,63-43.4,64-33.2L64.6-33.1z"/>
		<path id="Trazado_19694" class="st1" d="M270.1-1.7c-3.7,9.4-11,15.5-18.3,21.6c-0.6,0.5-1.2,1.1-2.2,2
			C256,20.7,271.1,2.8,270.1-1.7z"/>
		<path id="Trazado_19695" class="st1" d="M108.4-200.4c0.1-0.7,0.3-1.1,0.2-1.4c-1.2-2.3-3.5-3.9-6.1-4.2c-2.3-0.2-4.6,0.9-5.8,2.9
			c-0.5,0.9-0.6,1.9-0.4,2.9c0.9,2.8,6.6,5.2,10.3,3.9c-1.1-0.3-1.6-0.4-2.1-0.6c-2.1-0.7-4.2-1.6-6.2-2.6c-1.6-1-1.5-2.3,0-3.6
			c2.1-2.1,5.5-2.1,7.6,0c0,0,0.1,0.1,0.1,0.1C106.8-202.3,107.4-201.5,108.4-200.4z"/>
		<path id="Trazado_19696" class="st1" d="M97.9-31.6c2.9-10.4,4.1-21.2,3.5-31.9L97.9-31.6z"/>
		<path id="Trazado_19697" class="st1" d="M209.2,32.3c-0.7,2.2,0.5,4.6,2.7,5.3c0.1,0,0.2,0.1,0.3,0.1c4.3,1,7.9-0.3,11.4-3.3
			c-2.9-2.2-4.4-6-8.8-6.1l7.3,6C216.9,38,212.7,37.2,209.2,32.3z"/>
		<path id="Trazado_19698" class="st1" d="M68.9,18c-12.6-1.9-24.1-6.8-35.9-12C36.6,9.9,63.2,18.8,68.9,18z"/>
		<path id="Trazado_19699" class="st1" d="M-71.2-35.5c-1.3,4.1-5.1,4.9-8.4,6c-5.5,2-11.4,2.5-17.2,1.5c-0.7-0.1-1.4,0.1-1.9,0.4
			c0.4,0.3,0.9,0.6,1.4,0.7C-89.3-25.5-81-27-73.9-31C-72.2-31.9-70.6-33.1-71.2-35.5z"/>
		<path id="Trazado_19700" class="st1" d="M212.5,26.3c1.9,1.2,4.4,1,6.1-0.5c3.1-2.2,4.9-5.4,6.4-8.8c0.8-1.9,1.4-3.8,2.1-5.7
			l-0.7-0.4l-4,2.7h2.6C224.5,19,219.4,24.4,212.5,26.3z"/>
		<path id="Trazado_19701" class="st1" d="M238.1-3.8c6.5-3.9,11.4-8.9,11.7-16.9c0.1-4.2-1.6-7.9-4.2-9.4
			C253-18.5,246.6-10.9,238.1-3.8z"/>
		<path id="Trazado_19702" class="st1" d="M85.1-59.4l-2.8,26.7l0.9,0.1c1.8-8.8,2.3-17.7,2.5-26.7L85.1-59.4z"/>
		<path id="Trazado_19703" class="st1" d="M141.1-64.5c0.1,8.9,0.7,17.9-1.5,26.7C142.8-40.2,143-58.4,141.1-64.5z"/>
		<path id="Trazado_19704" class="st1" d="M73.7-59.5l-3,25.8C72.7-35.9,74.9-55.7,73.7-59.5z"/>
		<path id="Trazado_19705" class="st1" d="M233.1,23.7c-3.2-2.9-9.3-2.8-10.6,0.4c2.9-1.7,6.4-1.8,9.4-0.2
			c-4.4,3.8-9.1,4.5-14.6,3.2C220.3,30.7,229.4,28.6,233.1,23.7z"/>
		<path id="Trazado_19706" class="st1" d="M127.8-32.5l1.9-20.3l-0.9-0.1l-2.1,20.3L127.8-32.5z"/>
		<path id="Trazado_19707" class="st1" d="M188.2-85c1.6,1,3.7,0.7,4.9-0.7c1.3-1.2,1.5-3.2,0.4-4.6c-0.4-0.6-1-1-1.7-1.1
			c-2-0.2-5,3.2-4.9,5.8c0.8-1.1,1.6-2.2,2.6-3.2c0.8-0.6,1.7-1,2.6-1.2c0.1,0,0.9,1.1,0.8,1.5c-0.3,1-0.9,1.9-1.6,2.5
			C190.3-85.5,189.2-85.2,188.2-85z"/>
		<path id="Trazado_19708" class="st1" d="M184.4-85c-1.4-0.4-2.4-0.4-3.1-0.9c-0.9-0.7-1.5-1.6-2-2.5c-0.2-0.3,0.4-1.4,0.8-1.6
			c0.6-0.2,1.3-0.1,1.7,0.3c1.2,1.1,2.2,2.5,3.3,3.8c0.5-2.5-2.8-6-5.1-5.5c-1.6,0.3-2.5,2.7-1.7,4.6
			C179.1-84.8,181.8-83.8,184.4-85z"/>
		<path id="Trazado_19709" class="st1" d="M93.9-56l-3.4,19.7C93.2-42.5,94.3-49.2,93.9-56z"/>
		<path id="Trazado_19710" class="st1" d="M110.6-31.9l1.3-19.2l-0.6,0l-1.8,19.2L110.6-31.9z"/>
		<path id="Trazado_19711" class="st1" d="M183.4,24.2l-7.3,1.5c1.3,3.7,4.9,4.7,9.1,2.9c-2.6-0.1-5.3,0.5-8-2.1l6.2-1.4L183.4,24.2
			z"/>
		<path id="Trazado_19712" class="st1" d="M180.6,3.5c-1.1,4.8,0.4,7.9,3.7,7.1c-2.7-1.1-3.3-3.1-2.9-6.2l4,2.4
			C185.6,5.2,184,3.9,180.6,3.5z"/>
		<path id="Trazado_19713" class="st1" d="M148.3-49.6l-2.7,14.3C148.3-39.8,148.8-44.6,148.3-49.6z"/>
		<path id="Trazado_19714" class="st1" d="M211.1,2.8l-1.7,9.5c1.9-0.6,3.3-5,2.4-9.3L211.1,2.8z"/>
		<path id="Trazado_19715" class="st1" d="M240.8,28.3l7.7-4.7l-0.6-0.9l-7.7,4.6L240.8,28.3z"/>
		<path id="Trazado_19716" class="st1" d="M178.5-39.9c-0.4,1.9,0.2,2.8,1.6,3.1c2.3,0.5,4-0.7,4.6-3.2
			C182.6-38.7,180.6-36.5,178.5-39.9z"/>
		<path id="Trazado_19717" class="st1" d="M154.5,24.9c4.7,1.3,9.7,1.1,14.3-0.6c-2.4,0.3-4.7,0.9-7.1,1S156.9,25,154.5,24.9z"/>
		<path id="Trazado_19718" class="st1" d="M36.6-35.2c1.8,2.4,5.1,3.5,6.9,2.5L36.6-35.2z"/>
		<path id="Trazado_19719" class="st1" d="M35.7-35.1L29.4-39C29.2-37.4,31.9-35.4,35.7-35.1z"/>
		<path id="Trazado_19720" class="st1" d="M21.1,44.1c3.2,0.7,6.6,0.3,9.6-1.1L21.1,44.1z"/>
		<path id="Trazado_19721" class="st1" d="M78.4-41l-1.2,5.7C78.8-36.2,79.3-38.2,78.4-41z"/>
		<path id="Trazado_19722" class="st1" d="M221,4.6L216.3,8C218.1,8.8,219.4,7.9,221,4.6z"/>
		<path id="Trazado_19723" class="st1" d="M215.2,7.1c2.4-1.4,3.2-3.5,2.3-5.7L215.2,7.1z"/>
		<path id="Trazado_19724" class="st1" d="M216.8-0.1c-2.7,0.9-3.6,2.1-3.2,4L216.8-0.1z"/>
		<path id="Trazado_19725" class="st1" d="M123.4-243.5v3.4l3.3,0.2c0.2-0.3,0.4-1.8,2-1l-0.9-3.1
			C126.5-241.9,125.2-241.2,123.4-243.5z"/>
	</g>
</g>
</svg>
