<?xml version="1.0" encoding="utf-8"?>
<!-- Generator: Adobe Illustrator 23.0.2, SVG Export Plug-In . SVG Version: 6.00 Build 0)  -->
<svg version="1.1" id="Capa_1" xmlns="http://www.w3.org/2000/svg" xmlns:xlink="http://www.w3.org/1999/xlink" x="0px" y="0px"
	 viewBox="0 0 145 38.9" style="enable-background:new 0 0 145 38.9;" xml:space="preserve">
<style type="text/css">
	.st0{fill:#FC960B;}
	.st1{fill:#E965C6;}
	.st2{fill:#0EA7B3;}
	.st3{fill:#7AEB58;}
	.st4{fill:#85FFD5;}
</style>
<path id="Trazado_5019_5_" class="st4" d="M20.5,12.8c0.5-0.8,1-1.5,1.5-0.6c0,0.1,0.1-0.1,0.2-0.3c0.4-0.9,1.3-1.6,2.3-1.5
	c3.4-0.3,6.8-0.5,10.1-0.9c1.2-0.2,2.5,0.2,3.7,0.2c2.7-0.2,5.5-0.2,8.2,0.1c5.2,0.7,10.3,0.8,15.5,1.9c2.3,0.5,4.5,0.6,6.8,1.1
	c3.9,0.8,7.8,1.7,11.6,2.8c1.5,0.4,3,0.4,4.5,0.9c3.7,1.3,7.4,1.6,11.2,2.6c3,0.8,6,0.8,9,1.8c1.6,0.5,3.2-0.7,4.7,1.6
	c0.1,0.1,0.2,0,0.3-0.1c0.7-0.7,1.4-0.4,2.1-0.3c2.1,0.5,4.3,0.9,6.4,1.2c1.7,0.1,3.5,1.3,5.2-0.6c0.5-0.6,1.2-0.1,1.7-1.7
	c-0.1-1-0.5,0.3-0.7-0.8c0.2-0.6,0.4-0.6,0.7-0.5c1,0.2,2.1,0.4,3.1,0.5c1.5,0.2,3,0.7,4.5-1.3c0.2-0.2,0.4-0.5,0.6-0.3
	c1.3,1,2.5-0.2,3.8-0.6c1.2-0.2,2.3-1,2.8-2.2c0.5-1,1-1.4,1.6-1.2c1,0.3,2.1,0.1,3-0.4c-9.1-3.8-18-11.7-27.3-12.3
	c0.2,1,0.4,1,0.6,1c3.2,0.7,6.2,1.9,9,3.6c1.8,1.1,3.6,1.6,5.4,3.1c0.7,0.5,1.2,1.2,1.3,2c-0.3,1.1-0.6,0.7-0.9,0.6
	c-1-0.4-2-0.8-2.9-1.2c-0.4-0.2-0.4-0.1-0.8,1.5c-0.2,0.9-0.6,1.2-1,1.1c-0.6-0.1-1.3-0.1-1.9,0c-2.5,0.3-4.9,0.7-7.4,0.8
	c-0.9,0.1-1.8-0.6-2.7-0.6c-2,0-4-0.2-6-0.6c-3.8-0.8-7.7-1.1-11.5-1.6c-1.9-0.1-3.7-0.4-5.5-0.9c-3.4-1.2-6.7-1-10.1-2
	c-1.5-0.4-3.1-0.5-4.6-0.8c-2.4-0.6-4.7-1.7-7.1-1.9c-3.2-0.3-6.4-1.3-9.6-1.7c-0.5-0.1-0.7-1.5-1.1-1.3c-0.8,0.3-0.4-2.3-0.8-3
	c-0.5,0.6-0.8,1.4-0.9,2.2c-0.1,1.6-0.5,1.6-0.9,1.6c-3.1-0.3-6.2-0.6-9.3-0.9c-0.5,0-1-0.1-1.2-1.7c-0.1-0.6-0.4-1.1-0.5-0.5
	c-0.2,2.3-1,1.6-1.4,2.7c0.2,2,1,0.5,1.4,2.3c-1.5,0.3-3,1.3-4.4,0.6c-0.6-0.2-1.2-0.3-1.8-0.3c-1.4-0.2-2.7,0.7-4,0.6
	c-2.2-0.2-4.3-1-6.5,0.7c-0.3,0.2-0.6,0.1-0.9,0.1C25.9,7.1,22.3,7.6,19,8.7c-0.6,0.2-1.2,0.7-1.8,0.4C15.5,8.3,13.7,8.8,12,9
	C11.4,9,10.8,9,10.3,10.5c0.2,1.2,0.5,0.6,0.8,0.7c0.3,0.1,0.6-0.1,0.9,1.2c-0.4,0-0.6,0-0.8,0c-0.5,0-1,0.1-1.6,0.1
	C8.8,12.6,9.3,9.3,8.7,9c0-0.1,0-0.2,0-0.6c0.9-0.6,1.8-0.3,2.7-0.5c2.1-0.5,4.1-0.9,6.2-1.3c0.9-0.2,1.8-0.4,2.7-0.7
	c0.2-0.1,0.4-0.2,0.4-0.9c0-0.9-0.3-1-0.5-1.1c0,0-0.1,0-0.1,0c-2.3,1-4.6,1-6.9,1.6C11,6,8.9,6.7,6.8,7.3c-0.6,0.1-1,0.5-1.4,2
	C4.8,11.5,4,12.7,3,12.4c-0.5-0.1-1-0.1-1.6,0c-0.5,0.1-1,0.3-1.5,1.9c1.2,0.6,2.2,1.6,3.3,1.3c0.6-0.1,1.2-0.1,1.8-0.1
	c0.5-0.1,0.9,0.2,1.4,1c0.1,0.2,0.2,0.5,0.2,0.8C6.6,18,6.3,18.8,6,19.5c-0.8-1.9-0.8-1.9-1.5,0.4c-0.2,0.3-0.3,0.8-0.3,1.2
	c0.4,0.4,0.9,0.2,1.4,0.3c0.7,0,1.4,0.1,2,0.4c2,1.1,4,2.4,6,3.6c0.4,0.4,0.8,0.8,1.1,1.2c0.8,1.1,1.7,2.2,2.6,3.2
	c2,1.6,4,1.4,5.9,1.7c3.9,0.7,7.9-0.3,11.8-0.4c2.8-0.1,5.6-0.3,8.3-0.2c2.2,0,4.4,0.2,6.6,0.3c1,0,1.9-0.5,2.9,0
	c2.7,1.2,5.4,0.2,8.1,1.5c0.6,0.3,1.3-0.1,1.9,0.1c1.4,0.5,2.7,1.1,4.1,0.6c0.5-0.2,1.1-0.1,1.5,0.2c2.1,1.5,4.3,0.8,6.4,1.5
	c2.3,0.7,4.6,0.8,6.9,1.4c2.3,0.7,4.6,1.1,7,1.3c3.1,0.2,6.3,0.1,9.4,1.2c0.4,0.1,0.7,0,1-0.5c0.2-0.3,0.2-0.6,0.2-0.8
	c0-0.3-0.1-0.7-0.2-0.7c-0.2-0.1-0.5-0.1-0.7,0c-1.1,0.1-2.2-0.1-3.2-0.5c-0.2-0.1-0.6,0.1-0.5-1.1c0.1-0.7,0.3-0.6,0.5-0.3
	c0.2,0.6,0.9,1,1.6,0.7c0.1,0,0.1,0,0.2-0.1c1.3-0.4,2.7-0.5,4-0.3c2.4,0.2,4.8-0.6,7.2-0.6c0.2,0,0.5,0.1,0.5-1.5l-4.6-1.3
	c2.1-0.5,4.3-0.6,6.4-0.4c2.1,0.2,4.1,1,6.2,0.5c0.2,0,0.5,0.5,0.6-1.1c-2-0.8-4.2-1.4-6.4-1.7c-1.9,0-3.8-0.6-5.4-1.8
	c0.9,0,1.8-0.1,2.6,0c1.3,0.1,2.5,0.4,3.8,0.4c0.4,0,0.8,0.3,1.2-1c-0.4-0.6-1.2-0.9-1.9-0.7c-1.9,0.3-3.8-0.6-5.7-1.1
	c-2.8-0.8-5.7-1.7-8.5-2.3c-2.3-0.4-4.6-0.8-6.9-1.3c-2.5-0.6-4.9-1.7-7.4-1.8c-2.6-0.2-5.1-1.5-7.7-1.8c-3-0.3-6-1.4-9-1.9
	c-1.9-0.3-3.7-0.5-5.6-1c-1.8-0.4-3.6-0.4-5.5-1c-1.6-0.5-3.3-0.8-5-0.8c-3.4,0-6.8-0.8-10.2-0.8c-4.4,0-8.8-0.2-13.2,0.8
	c-2,0.4-4.1,0.3-6.1,1.2c-0.6,0.2-1.2,0.4-1.7-1C19.4,13.3,20,13.6,20.5,12.8z M80.8,22.3c-0.9,0.7-3.8,0.1-5-1
	c-1.6,0.3-3.3,0-4.7-1c1.6,0.2,3.1,0,4.7,1C77.5,21,79.2,22.2,80.8,22.3L80.8,22.3z M112.3,17.4c-1.4-0.4-2.9-0.4-4.3,0
	c-0.6,0.2-1.3-0.4-1.9-0.5c-2.6-0.7-5.1-1.6-7.7-1.8c-3.7-0.3-7.3-1.4-10.9-2c-3.2-0.6-6.5-0.7-9.7-2.1c-0.1,0-0.2,0-0.3-0.7
	c0.7,0,1.4,0.1,2.1,0.3c2.4,1,4.9,0.8,7.4,1.3c4.5,1.1,9,1.9,13.5,2.7c1.7,0.3,3.3,0.6,5,0.8c3.1,0.4,6.3,1.4,9.4,2.1
	C114,17.5,113.1,17.5,112.3,17.4L112.3,17.4z M69.5,8.3c2.2,0.5,4.4,1.1,6.6,1.7c-2.7,0.8-5.4-1-8.2-0.9c0-0.3,0-0.6,0.1-0.8
	C68.5,8.2,69,8.2,69.5,8.3L69.5,8.3z M48.1,5.4c1.6-0.5,3.3-1,4.9,0.5C51.4,6.5,49.6,6.3,48.1,5.4L48.1,5.4z M54,6.2h4.4
	c0,0.3,0,0.6,0,1C56.9,7.5,55.4,6.6,54,6.2L54,6.2z M103.8,26.9c0,0.3,0,0.5,0,0.8c-1.6,0.2-3.2-0.1-4.6-0.8H103.8z M61.3,6.8
	l4.8,0.9C64.5,7.8,62.9,8.5,61.3,6.8L61.3,6.8z M82.1,23.1c1.6-0.8,3.2,0.8,4.9,0.7C85.3,24.6,83.7,23.6,82.1,23.1L82.1,23.1z"/>
</svg>
