<?xml version="1.0" encoding="utf-8"?>
<!-- Generator: Adobe Illustrator 23.0.2, SVG Export Plug-In . SVG Version: 6.00 Build 0)  -->
<svg version="1.1" id="Capa_1" xmlns="http://www.w3.org/2000/svg" xmlns:xlink="http://www.w3.org/1999/xlink" x="0px" y="0px"
	 viewBox="0 0 290.6 111" style="enable-background:new 0 0 290.6 111;" xml:space="preserve">
<style type="text/css">
	.st0{fill:#7AEB58;}
</style>
<g id="Grupo_292" transform="translate(147 -88.635)">
	<g id="Grupo_280" transform="matrix(-0.995, 0.105, -0.105, -0.995, 331.704, 184.33)">
		<path id="Trazado_19276" class="st0" d="M201,43.1c3.6,1.1,7.7,4.8,9.8-1.9c2.3-3,5.6-2.7,8.8-2.7c1.6,0.1,3.1,0.6,4.5,1.4
			c0.8,0.6,1.4,1.5,1.5,2.5c0.1,2.8-1.7,4.3-4,5.3c-2.9,0.3-2.2,2.5-2.2,4.4c-0.3,0.9-0.9,1.6-1.8,2.1c-2.4,0.6-4.9,0.7-7.4,0.3
			c-4.4-1.2-9.3-0.8-13.2-3.6h-2C191.6,44.1,196.6,43.8,201,43.1z"/>
		<path id="Trazado_19277" class="st0" d="M207,107.5c-3.1-2.4-7-0.8-10.6-2.3c2.3-6.8,9.8,0.4,12.4-4.7c0.2-0.4,0.4-0.8,0.7-1.2
			c1.2-0.7,2.6-0.9,3.9-0.7c2.6,0.6,5.3,0.9,7.8,1.8c2.4,1.1,5.4,1.7,5.8,5.1c-1.8,3.3-5.4,3-8.3,4.2l-4,0.3
			C211.9,110.2,209.1,109.3,207,107.5z"/>
		<path id="Trazado_19278" class="st0" d="M279.6,113.9l11.7-0.1c1.4,1.5,4.5,0.6,5,3.4c0,0.9-0.3,1.7-1,2.3l-17.6,0.2
			C276.1,117,278,115.5,279.6,113.9z"/>
		<path id="Trazado_19279" class="st0" d="M252.1,115.9c5.4-4,11.7-1.1,17.5-2c1,4.9-4.8,2.9-5.8,5.8l-11.6-0.1
			c-1-0.8-1.2-2.2-0.5-3.2C251.8,116.1,251.9,116,252.1,115.9z"/>
		<path id="Trazado_19280" class="st0" d="M218.7,109.7c1.6-3.4,4.5-4,7.8-3.8c0.7-0.8,1.5-1.3,2.5-1.7c4.4-0.5,8.3-0.2,9.2,5.3
			c-4.5,1.4-9.6-1.4-13.7,2.1C222.2,112.2,220.6,110.6,218.7,109.7z"/>
		<path id="Trazado_19281" class="st0" d="M193.4,88.2c-0.9-8.2,3.6-5.3,7.5-3.7c1,0.6,2.3,1,2.7,2.4c-0.7,2-2.6,3.3-2.5,5.7
			c-0.7,0.4-1.6,0.3-2.1-0.3C197.1,90.9,195.2,89.5,193.4,88.2z"/>
		<path id="Trazado_19282" class="st0" d="M208.8,100.5c-1.9-0.9-3.1-3.1-5.5-2.8c-1.6-0.6-3.1-1.3-2.9-3.4c1.2-2.2,3.7-3.5,6.2-3.2
			c1.6-0.2,3.3-0.2,4.9,0.2c1.9,0.9,3.8,1.8,3.4,4.5c-1.3,2.5-4.3,2-6.1,3.7C208.6,99.8,208.7,100.2,208.8,100.5z"/>
		<path id="Trazado_19283" class="st0" d="M265.9,119.7c2.1-3.9,9.2,0.5,9.9-5.8l3.9,0.1l-2,5.7L265.9,119.7z"/>
		<path id="Trazado_19284" class="st0" d="M236.4,119.7c2.9-4.7-3.4-3.1-3.9-5.9h7.9c1.2,1.1,2.9,1.8,3.1,3.7
			c-0.1,0.8-0.5,1.6-1.1,2.1L236.4,119.7z"/>
		<path id="Trazado_19285" class="st0" d="M187.3,94.2l7.9,0c1.2,1,3.3,1.6,1.9,3.8L185.3,98C184.1,95.8,186.1,95.2,187.3,94.2z"/>
		<path id="Trazado_19286" class="st0" d="M206,52.9c-1.1,2.1-3.1,2.1-5,2.3c-1.3-1.5-2.6-2.9-3.9-4.3c4.7,0.5,9.6-1,14,1.6
			C209.6,54.3,207.8,53.9,206,52.9z"/>
		<path id="Trazado_19287" class="st0" d="M295.3,119.5c0-0.6,0-1.2,0-1.8c1.3-1.3,3.9-1.3,4-3.9l3.8,0.1c0.9,0.8,1.9,1.6,2.9,2.2
			c0.6,0.5,1.1,1.2,1.3,2c-0.7,0.6-1.4,1.2-2.2,1.8C301.8,119.7,298.5,119.6,295.3,119.5z"/>
		<path id="Trazado_19288" class="st0" d="M187.3,94.2l-2,3.8c-2.4-0.3-5.3,0.7-6.3-2.8C181.6,93.2,184.6,94.4,187.3,94.2z"/>
		<path id="Trazado_19289" class="st0" d="M242.3,119.6c0-0.6,0-1.2-0.1-1.8c1.7-1.7,4.9-1.2,5.9-3.9l3.9,2.1c0,1.2,0,2.4,0,3.7
			C248.9,119.5,245.6,119.6,242.3,119.6z"/>
		<path id="Trazado_19290" class="st0" d="M197.1,98.1c-0.6-1.3-1.2-2.6-1.9-3.8c1.5-0.3,3-0.5,3.8-2.1c0.6,0,1.2,0,1.9,0.1
			c0.6,0.1,1.1,0.7,1,1.3c0,0.1-0.1,0.3-0.1,0.4c0.5,1.3,1.1,2.5,1.6,3.8L197.1,98.1z"/>
		<path id="Trazado_19291" class="st0" d="M222.6,119.7c3.3-2.5,6.6-3.5,9.8,0.1L222.6,119.7z"/>
		<path id="Trazado_19292" class="st0" d="M399.2,115.7l-3.1,0c-6.4,2-13,0.5-19.5,1c-8.9-0.9-17.8,0.1-26.7-0.2
			c-2.9-0.1-5.8,0.4-7.8-2.4c-0.3-1,0-2.1,0.7-2.9c2.7-2.4,6-2.2,9.2-2.2c21.1-0.1,42.2,0.1,63.2,0.5c2.4,0,4.5,0.5,6,2.6
			c0.4,3.3-2.2,3.1-4.3,3.6l-3.8,1.9C408.8,115.1,403.6,118.3,399.2,115.7z"/>
		<path id="Trazado_19293" class="st0" d="M466.2,119.7l-3.9,0c-4-1.8-8.1-1.2-12.2-1c-3.9,0-7.7,0.2-11.5-1.1l-1.6-1.8
			c-5,2.6-10.8-0.6-15.8,1.9c-1.6,0.2-3.2-0.5-4.1-1.8c0.9-1.4,2.4-2.2,4.1-2.2c0.9-2.4,2.1-4.5,5-4.8c1,0,2,0.3,2.9,0.8
			c13.4,3.3,27,0.6,40.4,1.7"/>
		<path id="Trazado_19294" class="st0" d="M305.1,117.7c-1.5-0.8-1.9-2.3-2-3.8c5.9-0.7,11.8-1.4,17.7-2c4.7-3.7,9.1-2.8,13.4,0.8
			c2.6,4.4-2.4,3.5-3.7,5.2h-0.9l-0.9,0c-3.8-2.1-7.9-0.5-11.8-1C313,117.2,308.9,115.6,305.1,117.7z"/>
		<path id="Trazado_19295" class="st0" d="M342.3,114.3c10.4,3,21.2-1.3,31.6,1.5c0.7,0.4,0.9,0.7,0.7,1.1c-0.2,0.3-0.5,0.5-0.7,0.5
			c-11.1-0.3-22.4,2.6-33.4-1.6C340.8,115,341.5,114.5,342.3,114.3z"/>
		<path id="Trazado_19296" class="st0" d="M373.8,117.4c0-0.5,0-1.1,0-1.6l22.2,0C388.9,119.6,381.3,117.2,373.8,117.4z"/>
		<path id="Trazado_19297" class="st0" d="M421.1,117.7c4.9-4.1,10.6-1.1,15.8-1.9C432.1,119.7,426.4,117,421.1,117.7z"/>
		<path id="Trazado_19298" class="st0" d="M342.3,114.3l-1.8,1.5c-3,2-6.5,2.2-9.9,2l4.2-3.8c2.5-2.5,5.1-2.5,7.8-0.3L342.3,114.3z"
			/>
		<path id="Trazado_19299" class="st0" d="M438.6,117.6c4-1.7,7.9,0.9,11.9,0.1c0.7,0.4,0.9,0.7,0.7,1.1s-0.4,0.6-0.6,0.6l-11.9,0.2
			C438.6,119,438.6,118.3,438.6,117.6z"/>
		<path id="Trazado_19300" class="st0" d="M399.2,115.7c4.7,0.6,9.8-1.7,14,2C408.6,116.8,403.4,119.5,399.2,115.7z"/>
		<path id="Trazado_19301" class="st0" d="M305.1,117.7c3.4-3.8,7.8-1.4,11.7-1.7v1.2c-3.2,0.2-6.4,0.5-9.6,0.7
			C306.6,117.9,305.8,117.8,305.1,117.7z"/>
		<path id="Trazado_19302" class="st0" d="M316.8,117.3c0-0.4,0-0.8,0-1.2c4,0,8.4-1.9,11.9,1.7L316.8,117.3z"/>
		<path id="Trazado_19303" class="st0" d="M422.4,56.9c-3.6-0.2-7.1,0-10.7-0.1c-16.4,1.7-32.7-2-49.3-0.5c-11.5,1-23.3-0.6-35-0.5
			c-4.8,0.1-9.7-0.6-14.4,1.3c-3.3,0.5-6.6,0.8-9.9,0.7c-1.7,0-3.4,0-5.1,0c-7.5,0-15,0-22.5,0c-7.1,0-14.2,0-21.3,0
			c-5.5,0.7-10.7-0.7-15.8-2.5l-7.8-0.7c1.3-5.3,5.8-4.3,9.3-4.4c10.3-0.3,20.5-0.2,30.8-0.1c2.3-0.1,4.5,0.2,6.7,0.7
			c0.2,0.1,3.2,2.9,1.5-0.9c0.2-0.9,0.8-1.7,1.6-2.2c4.2-1.9,8.5-1.6,12.9-0.5c2.1,1.1,3.9,4,6.5,0.9c0.8-0.4,1.6-0.7,2.5-0.9
			c2.6-0.5,5.3-0.7,8-0.8c2.7,0,5.1-1.3,7.7-1.8c3.2-0.9,6.4-0.3,9.5,0.1c4.5,1.7,9-0.1,13.6-0.2c3.8,0,7.6-0.2,11.3,0.2
			c0.9,0.1,1.8,0.3,2.6,0.6c3,1.5,6,3.3,9.2,0.5c0.9-0.4,1.8-0.7,2.7-0.9c6.2-0.7,12.3-0.3,18.5-0.4c4.2,0,8.5,0,12.7,0
			c1.1,0,2.1,0,3.2,0c3.2,0,6.4,0,9.5,0c2.2,0,4.3,0,6.5,0c2.2,0,4.5,0,6.7,0c9.3,0.2,18.6-0.5,27.9,0.5"/>
		<path id="Trazado_19304" class="st0" d="M273.7,52.9c-14.4,1-28.9-2-43.2,1.7l-4,0.9l-7.9-0.5c-1.1-0.7-1.2-1.5-0.3-2.4
			c0-0.5,0-1-0.1-1.5c2.6-4.2,6.9-4.6,11-4.7c12.9-0.4,25.8,0.2,38.7-1c4.1-0.4,8.5-0.2,11.5,3.7c0,0.7,0,1.3,0,2
			C278.1,52.8,275.3,51,273.7,52.9z"/>
		<path id="Trazado_19305" class="st0" d="M242.3,60.8C254,63.4,266,62,277.9,63c0.3,1.1-0.1,2.3-1,2.9c-4.6,2.5-9.6,1.3-14.4,1.7
			c-7.3-1.4-13.2,4.6-20.4,3.8c-6,0.8-12.1-3.6-18.1,0c-0.9-0.1-1.8-0.5-2.4-1.3c-0.9-1.8-0.5-3.9,0.9-5.3c4.6-2.6,9-1.1,13.7,0.3
			C240.9,66.4,243.3,64.2,242.3,60.8z"/>
		<path id="Trazado_19306" class="st0" d="M212.8,70.6c-0.3,0-0.8,0.1-0.9-0.1c-2.8-3.1-10.7,3.2-9.8-3.3c0.8-5.6,6.9-0.2,10.7-0.6
			c0.8-0.4,1.8-0.5,2.1,0.5C215.4,68.9,213.9,69.7,212.8,70.6z"/>
		<path id="Trazado_19307" class="st0" d="M212.8,70.6c0.3-1.3,2-2.6,0-3.9c2.1-2.8,5.2-1.7,7.9-1.9c2.2,4.5-0.9,5.2-4.1,5.9
			L212.8,70.6z"/>
		<path id="Trazado_19308" class="st0" d="M216.6,70.6c1.3-2,4.3-2.8,4.1-5.9c0.6,0,1.3-0.1,1.9,0c0,1.9,0,3.9,0,5.8l-5.9,2
			C216.7,71.9,216.7,71.2,216.6,70.6z"/>
		<path id="Trazado_19309" class="st0" d="M238.3,109.5c-2.6-2.5-6.1-3.8-9.7-3.6c-1.1-1.1-1.4-2.8-0.6-4.2c0.7-0.8,1.5-1.3,2.5-1.7
			c2.8-0.8,5.8-0.8,8.7-0.1c3.9,2.1,7.8,1.2,11.7,0c8,2.1,16.5-0.5,24.3,2.9c2,3.6-0.6,4.3-3.1,4.8c-2.2,0.4-4.4,0.4-6.2,1.9
			C256.6,111.3,247.4,110.7,238.3,109.5z"/>
		<path id="Trazado_19310" class="st0" d="M383.9,109.7c-21,0.1-42,0.2-63.1,0.3l-8.1-0.3c-0.4-1.2,0.1-2.5,1.1-3.1
			c11-3.2,22.3-0.8,33.5-1.6c2.3,0,4.6,0,6.9,0c5,0,10.1,0,15.1,0c2.8,0,5.6,0,8.4,0.2C380.5,105.7,383.6,105.8,383.9,109.7z"/>
		<path id="Trazado_19311" class="st0" d="M265.8,109.6c1.1-6.1,7.4-1.9,10-5c0.3-0.9,0.9-1.7,1.8-2.2c0.9-0.4,1.8-0.7,2.7-0.9
			c2.8-0.4,5.6-0.1,8.1,1c1.6,2.1,3.1,4.3,2.9,7.2L265.8,109.6z"/>
		<path id="Trazado_19312" class="st0" d="M291.3,109.7c-0.4-1.7-4.6-2-1.9-4.9c-0.2-0.8,0.4-1.6,1.2-1.8c2.7,0.3,5.8-0.7,7.6,2.4
			c0.1,0.8,0,1.7-0.2,2.4c-1,1.7-3,1.1-4.5,1.8L291.3,109.7z"/>
		<path id="Trazado_19313" class="st0" d="M293.5,109.6c1.3-0.6,2.6-1.3,3.8-1.9c1.5-1.3,3.7-1.6,5.4-0.6c0.5,0.4,0.8,1,0.7,1.6
			c-0.1,0.6-0.2,0.9-0.4,0.9C299.9,109.8,296.7,113.3,293.5,109.6z"/>
		<path id="Trazado_19314" class="st0" d="M303,109.6c0-0.5,0-1-0.1-1.5c2.1-2.7,4.8-2.8,7.8-2.1c1.1,0.4,2,1.2,2.6,2.1
			c-0.2,0.5-0.4,1-0.6,1.5L303,109.6z"/>
		<path id="Trazado_19315" class="st0" d="M203.4,37c20.6-5.3,41.6-3.8,62.5-3.5c0.4,0.8,0.3,1.8-0.3,2.4c-0.7,0.5-1.5,1-2.4,1.3
			c-2.7,0.7-5.4,1-8,1.8c-1.4,0.3-2.9,0.3-4.3,0.1c-4.7-1.5-9.6-1.1-14.4-1.1c-4.4,0.1-8.7-0.3-13,0.6c-0.9,0-1.9-0.1-2.8-0.3
			c-2.3-0.5-4.8,0.5-5.9,0c1.1,0.2,3.4-0.3,5.6,0.3c0.5,0.3,0.8,0.9,0.8,1.5c0,0.6-0.1,0.9-0.3,0.9l-10,0.3
			C207.5,41.3,205.9,38.4,203.4,37z"/>
		<path id="Trazado_19316" class="st0" d="M224.6,70.5c0.4-4.2,2.3-5.5,6.4-4c3,0.9,6.1,1.7,9.2,2.3c7.9,2.3,14.8-0.8,21.7-4
			l15.3-0.3c21.3-4.3,42.9-2.2,64.4-2.7c4.9-0.1,9.8,0.3,14.6-1.5c29.5-0.5,59-1.6,88.5,0.6c4.5,3.5,1,5-1.7,6.8
			c-1.2,0.4-2.4,0.5-3.6,0.3c-22.6-0.3-45.3-1.4-67.9-1.1c-3.7,0.8-7.5,1.2-9,0.7c9.3-0.4,20.7-1.5,32.1-0.8
			c4.5,1.9,8.8,2.2,13.8,2.1c18.6-0.6,37.2-0.9,55.8,0.3c1.6,0.2,3.1,1,4.1,2.3"/>
		<path id="Trazado_19317" class="st0" d="M377.9,85.2c-6.2,0-12.3,0-18.5,0c-1.6,0-3.3,0.1-4.9,0c-4.7-0.1-9.4-0.1-14.1,0
			c-2,0.1-4.1,0.8-6.1,0.5c-4.1-0.9-8.2-0.6-12.3-0.6c-3.2,0-6.4,0-9.6,0.1c-7.7,0.1-15.3,0-23-0.1c-6.5,0-13.1,0-19.5,1.2
			c-2.9,0.5-5.9,0.8-8.8,0.9c-3.9,1.3-7.7,0.4-11.5-0.1c-2.8-0.1-5.7-0.1-8.5-0.1c-7.4,0.1-14.8-0.7-22.1-1.4
			c-3.2-0.8-6.1-2.2-8.2-4.9"/>
		<path id="Trazado_19318" class="st0" d="M210.7,80.7c3.2,0,5.9,1.6,8.5,3.2c-0.1,1.4-0.9,2.8-2.1,3.6c-2.3,1.8-5.2,2.6-8.1,2.5
			c-2.4-0.1-4.6-1.5-5.9-3.5c-0.8-0.7-1.5-1.4-2.3-2.1C204.4,84,208.6,85.2,210.7,80.7z"/>
		<path id="Trazado_19319" class="st0" d="M279.6,48.9c-20.5,0-41-1.8-61.3,2.1c-2.2-1-3.9-2.8-4.8-5.1c3-2.5,4.8,0.4,7.1,0.9
			c2.9-0.9,5.7-1.9,8.6-2.7c2-0.7,4-1.2,6.1-1.6c2.8-0.3,5.5-0.3,8.3-0.3c12.2,0,24.4,0,36.5,0c3.4,0,6.7-0.2,10,0.5
			c3.5,1.4,7.4,1.2,10.6,3.4c0.9,0.7,1,2,0.3,2.8l0,0l0,0c-1.7,1.4-4.2,1.5-5.9,0.1L279.6,48.9z"/>
		<path id="Trazado_19320" class="st0" d="M222.5,37.1c4.3-3.2,9.2-1.2,13.8-1.8c1.1,1.6,0.5,3.2-0.2,4.7c-0.2,0.3-0.4,0.7-0.7,1
			c-0.5,0.6-1.2,1.2-1.9,1.7c-1.6,0.6-2.3,2.3-3.8,3.1c-2.2,0.5-4.4-0.7-5.3-2.8c-0.2-0.5-0.4-1-0.5-1.6c0.2-3.2,4-2.3,5.2-4.2
			C227,38.7,224.8,39.3,222.5,37.1z"/>
		<path id="Trazado_19321" class="st0" d="M222.5,37.1h9.9l-8.3,4.4c-1.1-0.2-2.2-0.4-3.2-0.6c-0.1-0.6-0.1-1.1-0.2-1.7
			c-0.8-0.4-1-0.8-0.7-1.2c0.2-0.3,0.5-0.5,0.8-0.5C221.3,37.3,221.9,37.2,222.5,37.1z"/>
		<path id="Trazado_19322" class="st0" d="M218.4,52.5l0.3,2.4c-4.3,0-9,2.2-12.7-1.9l5.1-0.4L218.4,52.5z"/>
		<path id="Trazado_19323" class="st0" d="M224.6,43.1l5.8,2.1c0.6,0.4,0.8,0.8,0.6,1.2s-0.4,0.6-0.6,0.6l-9.9-0.2L224.6,43.1z"/>
		<path id="Trazado_19324" class="st0" d="M277.6,103.9c-0.6,0.2-1.2,0.5-1.8,0.7c-9.1-1.2-18.5,0.4-27.4-2.5
			c-2.5,1.4-5.6,1.4-8.1-0.1l-9.8-0.2c-6-0.1-12-0.1-17.9-1.6l-3.8-0.7c0.6-3.6,3.5-3.3,6.1-3.5c0.5-0.1,1.1-0.2,1.6-0.4
			c18.6-0.9,37,2.7,55.6,2C275.4,97.4,279.5,98.4,277.6,103.9z"/>
		<path id="Trazado_19325" class="st0" d="M212.6,100.1c6,0.5,12.2-1.8,17.9,1.6l-2,0.5c-2.4,1.1-5.3,1.1-7.7-0.1
			C217.9,101.7,214.8,102.8,212.6,100.1z"/>
		<path id="Trazado_19326" class="st0" d="M220.7,102.1c2.6,0,5.1,0.1,7.7,0.1l0.1,3.7h-2L220.7,102.1z"/>
		<path id="Trazado_19327" class="st0" d="M203.1,86.5l5.6,2.1c1,2.4-0.9,3.8-1.9,5.5c-1.7-0.9-3.4-1.7-5.2-0.2
			c-0.3-0.6-0.6-1.1-0.8-1.7C199.3,89.4,201.3,88,203.1,86.5z"/>
		<path id="Trazado_19328" class="st0" d="M206.9,94.1c0.6-1.8,1.2-3.7,1.9-5.5l8.1-2.6c7.4-2.3,14.9,0,22.4-0.7
			c3.9-0.4,7.9,1,11.6-1.1c2.8,0.3,5.6,2.8,8.4,0c3.9,2,8,1,12,0.8c1.1,0.1,2.1,0.5,2.8,1.2c0.4,1,0.1,2.2-0.7,2.9
			c-2.2,1.8-4.9,1.8-7.6,1.9c-8.8,1.1-18.1-2.5-26.5,2.7c-3.7,1.6-7.6,1.1-11.4,1.3c-5.9,0.2-11.6-0.1-17-2.8L206.9,94.1z"/>
		<path id="Trazado_19329" class="st0" d="M210.9,92.2l17.6,0.3c0.8,0.7,1.1,1.8,0.9,2.8c-0.4,1-1.3,1.7-2.4,1.7
			c-4.1-0.4-8.3,1.2-12.2-1l0.1,0C213.5,94.7,212.2,93.5,210.9,92.2z"/>
		<path id="Trazado_19330" class="st0" d="M379.8,31.1l15.7,0c13.3,0.1,26.6,0.1,39.9,0.3c3.8,0.1,7.8-1.2,11.3,1.6
			c0.7,1.8-0.4,2.6-1.8,3.1c-8.3,0.8-17-2.4-25,2c-1.5,1.1-3,2-5,1.5c-4.3-5.6-10.5-3.2-16-3.6c-1.5,0-2.9,0-4.4,0
			c-3.6,0-7.3,0-10.9,0c-2.7,0-5.5,0-8.2,0c-11.4-0.2-22.8,0.6-34.2,0c-8.9-1.3-18.5,3-26.8-3.2c12.5-3.3,25.3-0.3,37.9-1.7
			c2.6-2.1,5.2-2.2,7.9-0.3L379.8,31.1z"/>
		<path id="Trazado_19331" class="st0" d="M314.3,33l28.1,0.4c0.7,0.8,1,1.8,0.7,2.8c-2,3.9-5.9,3.4-9.4,3.9c-2,0.3-4,0.8-6.1,0.5
			c-6.5-1.3-13.2,0.1-19.7-1.1c-1-0.3-1.9-0.7-2.7-1.4c-0.7-0.7-1-1.8-0.8-2.8c2.4-2.3,5.9,0,8.3-2C313.3,32.9,313.8,32.8,314.3,33z
			"/>
		<path id="Trazado_19332" class="st0" d="M265.6,35c0.1-0.5,0.3-1,0.4-1.5l33.3,0.1c0.5,0.9,0.2,2.1-0.6,2.7
			c-1.3,0.8-2.8,1.4-4.3,1.5c-3.1,0.3-6.2,0.2-9.4,0.2c-2.7,0.1-5.4,0-8.2,0C272.8,37.7,268.5,38.8,265.6,35z"/>
		<path id="Trazado_19333" class="st0" d="M299.2,35.1c0-0.5,0-1,0.1-1.5l13.7-0.2c-2.1,2.6-5.1,1.6-7.8,1.9
			C303.1,36.7,301.1,37,299.2,35.1z"/>
		<path id="Trazado_19335" class="st0" d="M450.6,119.5c0-0.6-0.1-1.2-0.1-1.8c4.1-0.3,8.5-2.7,11.8,2L450.6,119.5z"/>
		<path id="Trazado_19336" class="st0" d="M451.7,113.9c-6.4-0.2-12.8-0.2-19.2-0.2c-2.8,0-5.1-0.6-5.6-3.9c1.8-2.2,4.2-2.2,6.6-2
			c3.5,0.9,7.1,1.8,10.7,0.2c0.9-0.3,1.9-0.5,2.8-0.6c1-0.2,2-0.2,2.9-0.3c3.5-0.1,7-0.1,10.5-0.1c1.6,0,3.1,0,4.7,0"/>
		<path id="Trazado_19337" class="st0" d="M434.9,109.9l-8-0.1h-1l-1,0l-3.8-0.1c-0.7-0.7-0.7-1.9,0-2.6c0-0.1,0.1-0.1,0.2-0.1
			c1.3-1,2.8-1.6,4.3-1.7c3.7-0.3,7.3-0.2,11-0.2c2.2,0,4.3,0.7,6,2.1c0.7,0.9,0.7,2.1,0,3C440,111,437.4,111.3,434.9,109.9z"/>
		<path id="Trazado_19338" class="st0" d="M419.1,37.1c-0.3-1.5-1.3-3.8,1.1-3.6c8.1,0.5,16.5-2.4,24.4,1.7c-2.1,3.2-7.4,2.5-8.4,7
			c-0.4,0.8-1,1.5-1.7,2c-2.9,1.3-6.1,0.7-9,1.6c-2.9-0.6-5.9-1.7-8.2,1.2l-6,0c-3.3-3-6.5-2.7-9.8,0l-2.1-0.1
			c-2.8-3-6.5-1.3-9.8-2.1c-0.9-0.3-1.6-0.8-2.2-1.4c-0.3-0.8-0.3-1.8-0.1-2.7c0.5-1.2,1.5-2.2,2.8-2.7c2.2-0.9,5,0,6.9-2.1
			c0.8-0.8,1.7-1.7,2.6-2.5c5.4,1.4,13.6-4.8,15.7,5.7c1.2,1,2.3,0.3,3.5-0.2c1.2-0.5,2.4-0.8,3.7-0.7
			C421.1,38.1,419.9,38.1,419.1,37.1z"/>
		<path id="Trazado_19339" class="st0" d="M342.4,35.2c0-0.6,0-1.2,0.1-1.8l33.3,0.1c0.4,0.4,0.6,1,0.6,1.6c0,0.6-0.1,0.9-0.2,0.9
			c-2.3,3.5-5.9,2.8-9.2,3c-2.5,0.1-3.3,1-2.2,3.4c-0.2,0.9-0.8,1.7-1.5,2.2c-1.8,1-3.8,1.3-5.8,0.9c-4.7-0.5-9.4-0.2-14.2-0.3
			c-5.5,0.4-11.2-0.8-16.4,1.9c-2.7-0.2-5.4-1.7-8.1-0.1c-1.1-0.8-2.6-1.4-2.9-3c-0.2-1.5,0.3-3,1.5-3.9c3.7-1.6,7.6-0.6,11.4-0.9
			l4-2c3.4,1.9,7.4,2.4,11.1,1.5c0.7-0.6,2.2,0.8,2.4-1C344.7,37.2,343.4,36.4,342.4,35.2z"/>
		<path id="Trazado_19340" class="st0" d="M401.3,59.6c-16.6-0.4-33.1,0.7-49.7-0.3c-4.1-1.3-8.4-1.9-12.6-1.6
			c-4.1-0.7-8.4,2-12.4-0.4c-1-1.3-0.9-3.2,0.2-4.3"/>
		<path id="Trazado_19341" class="st0" d="M450,59.6c-9.7,0.3-19.5,0.2-29.2,0"/>
		<path id="Trazado_19342" class="st0" d="M425,45c3-1.8,6.4-2,9.8-2c8-3.9,15.9-5,23.8,0.5c-0.1,4.4-2.6,4.8-6,3.7L423,46.9
			C422.6,45.2,422.9,44.1,425,45z"/>
		<path id="Trazado_19343" class="st0" d="M452.5,47.2l5.9-2.1"/>
		<path id="Trazado_19344" class="st0" d="M385.8,46.8L364,46.9c-0.7-2.6,1.2-3.8,2.7-5.3c1.5-0.8,3.1-1.2,4.8-1.3
			c5.5,0.4,11.3-1.7,16.1,2.6l0,0.2C388.8,45.3,386.9,45.9,385.8,46.8z"/>
		<path id="Trazado_19345" class="st0" d="M272,56.8c-5.1,2-10.5,1.5-15.7,1.9c-2.7,0.2-3.2-1.2-2.3-3.5l21.7,0
			c0.6,0.6,0.5,1.6-0.1,2.2c0,0,0,0,0,0C274.2,57.8,273,57.9,272,56.8z"/>
		<path id="Trazado_19346" class="st0" d="M326.8,47c3.7-7.7,10.5-2.3,15.7-3.8c1,2.1-0.9,2.7-2,3.7C336,47.2,331.4,49.4,326.8,47z"
			/>
		<path id="Trazado_19347" class="st0" d="M340.5,46.9c0.6-1.2,1.3-2.5,2-3.7c5.2,0.1,10.4,0.2,15.5,0.3c0.8,3.3-2.6,2-3.7,3.3
			L340.5,46.9z"/>
		<path id="Trazado_19348" class="st0" d="M299,55.2l4.3-0.1c2.4,2,6.2-0.9,8.1,2.4c-0.4,1.6-1.6,2.8-3.1,3.3
			c-4.3,1.2-8.8,0.7-13.1,0.8c-2.9,0.2-5.7-0.7-7.9-2.5l0.2-0.5c-0.6-0.7-0.5-1.7,0.1-2.3c0,0,0.1-0.1,0.1-0.1
			C291.5,55.2,295.4,56.7,299,55.2z"/>
		<path id="Trazado_19349" class="st0" d="M385.8,46.8c0.6-1.2,1.2-2.4,1.8-3.7c3.9,1.3,9.6-3.2,11.7,3.7L385.8,46.8z"/>
		<path id="Trazado_19350" class="st0" d="M299,55.2c-3.5,3-7.7,0.9-11.5,1.7c-3.8,1.4-8,1.4-11.8-0.2c0-0.5,0-1,0-1.5L299,55.2z"/>
		<path id="Trazado_19351" class="st0" d="M326.8,52.9c-0.1,1.2-0.1,2.4-0.2,3.6c-0.8,1.3-2.1,2.1-3.5,2.3c-1.5,0.2-2.9,0.1-4.3-0.3
			c-2.3-0.8-4.6-1.5-5.8-4C317.3,51.4,322.2,53.5,326.8,52.9z"/>
		<path id="Trazado_19352" class="st0" d="M401.4,47c0.8-5.2,4.9-3.7,8-3.8c3.1-0.1,2.4,2,1.8,3.8L401.4,47z"/>
		<path id="Trazado_19353" class="st0" d="M354.3,46.8l3.7-3.3c2-0.1,4-0.3,6-0.4c0.4-0.5,1-0.6,1.5-0.3c0.1,0.1,0.3,0.3,0.4,0.4
			c-0.6,1.2-1.3,2.5-1.9,3.7l0.1,0.2c-2.6,2.1-5.2,1.6-7.8,0.1C355.6,47.1,355,46.9,354.3,46.8z"/>
		<path id="Trazado_19354" class="st0" d="M313,54.5c2.1,0.7,4.8-0.5,6.2,2.1c-2.6,2.5-5.4,2.6-8.1,0.1c-2.6-0.4-5.7,1.1-7.7-1.8
			L313,54.5z"/>
		<path id="Trazado_19355" class="st0" d="M425,45c-0.7,0.6-1.3,1.3-2,1.9l-5.9,0C418.3,40.4,421.8,43.1,425,45z"/>
		<path id="Trazado_19356" class="st0" d="M316.9,44.9c0.6,0.7,1.2,1.3,1.8,2c-2.5,0.7-5,1.3-7.6,2c-1.2-1.5-4.2-0.2-4.6-2.9
			c0.1-1,0.8-1.9,1.7-2.4C311.1,42.1,314.6,42.7,316.9,44.9z"/>
		<path id="Trazado_19357" class="st0" d="M356.2,47.2l7.8-0.1C361.5,54.1,358.9,50.5,356.2,47.2z"/>
		<path id="Trazado_19358" class="st0" d="M295.3,49l5.9-0.1c-1.8,1.2-3.6,2.5-5.6,3.5c-0.6,0.3-1.6-0.2-2.5-0.4L295.3,49z"/>
		<path id="Trazado_19359" class="st0" d="M273.7,52.9c1.4-2.2,3.7-1.9,5.9-2c0.7,0.4,3.4,0.5,0.9,1.7
			C278.6,53.5,276,52.8,273.7,52.9z"/>
		<path id="Trazado_19360" class="st0" d="M307.1,47l4,1.9l-10,0c0.1-0.6,0.1-1.2,0.2-1.8C303.2,45.3,305.1,45.4,307.1,47z"/>
		<path id="Trazado_19361" class="st0" d="M440.5,51.8c2.2-1.2,4.1-1.4,6.2,0.2C444.6,53.2,442.6,53.4,440.5,51.8z"/>
		<path id="Trazado_19362" class="st0" d="M311,56.8l8.1-0.1l3.5,0.4c5.7,2.2,11.3-1.2,16.9-0.2c1.1,0,2.1,0.1,3.2,0.3
			c3.4,1.5,8,0.2,10,4.7c-0.3,1.2-1.4,2-2.6,1.8c-20.9-0.6-41.9,1.3-62.8-1c0-1.2-0.1-2.4-0.1-3.7c2.7,0,5.4,0,8.1,0
			c4.4,1.2,9.1,1.2,13.5,0C309.6,58.3,310.3,57.5,311,56.8z"/>
		<path id="Trazado_19363" class="st0" d="M287.4,62.7l64.4-0.1c1.7-1,3.3-1,4.6,0.6c-6.9,3.1-14.2,1.4-21.3,1.5
			c-19.3,0.2-38.6-0.1-57.9-0.1c0.2-0.5,0.4-1,0.6-1.5L287.4,62.7z"/>
		<path id="Trazado_19364" class="st0" d="M275.6,56.7l11.8,0.2c0,0.5,0,1.1,0.1,1.6c-5.2-0.3-10.7,1.9-15.6-1.7L275.6,56.7z"/>
		<path id="Trazado_19365" class="st0" d="M262,64.8c0.2,1.6,3,4.3-0.1,4.4c-7.2,0.2-14.5,3.6-21.6-0.4C248,70,254.1,62.8,262,64.8z
			"/>
		<path id="Trazado_19366" class="st0" d="M240.2,102c2.7,0,5.4,0.1,8.1,0.1C245.6,106.4,242.9,104.9,240.2,102z"/>
		<path id="Trazado_19367" class="st0" d="M421,108c0,0.6,0.1,1.2,0.2,1.8l-33.9-0.1c-0.4-1,0-2.2,0.9-2.8c1.4-0.9,2.9-1.4,4.6-1.5
			c3.3-0.2,6.6-0.2,9.9-0.2C408.8,105.9,415.5,102.9,421,108z"/>
		<path id="Trazado_19368" class="st0" d="M387.6,107.9c0,0.6-0.1,1.2-0.4,1.8l-3.4,0.1c-1.7-1.8-4-1.5-6.1-1.8
			c-0.9-2.7,0.6-4.3,2.8-5.5C384.8,101.8,389,101.3,387.6,107.9z"/>
		<path id="Trazado_19369" class="st0" d="M313.4,108.2l-2.4-0.3c-0.9-2.4-8.2,1.3-5-5.1c12-3.6,24.6-0.1,36.8-2.6
			c2.3,0.2,4.4,1.3,5.9,3c1,1.4,0.9,3.3-0.3,4.6L313.4,108.2z"/>
		<path id="Trazado_19370" class="st0" d="M369.9,107.9l-15.7-0.1c-1-0.9-1.4-2.3-0.8-3.6c3.2-3.8,7.2-1.8,11-1.7
			c0.9,0.1,1.7,0.3,2.5,0.7C368.6,104.3,371.1,104.9,369.9,107.9z"/>
		<path id="Trazado_19371" class="st0" d="M369.9,107.9l-3.9-3.7c4.6-4,9.2-4.1,13.8,0l-2,3.7L369.9,107.9z"/>
		<path id="Trazado_19372" class="st0" d="M354.3,103.8c0,1.3,0,2.7-0.1,4h-6c0-1.3,0-2.6,0-3.9C350,102.2,352.6,102.2,354.3,103.8z
			"/>
		<path id="Trazado_19373" class="st0" d="M466,103.6c-8.8-2.8-17.6-0.6-26.4-0.1c-0.9,0.2-1.9,0.3-2.8,0.3c-1,0-1.9-0.1-2.8-0.3
			c-6.8-2.2-14.2-1.9-20.9,0.8c-8,0.3-15.9,1.2-23.8-0.6c-3.6-2.1-7.8-2.5-11.7-1.1c-3.3,0.3-6.7,0.1-10,0.2
			c-6.6-1.1-13.3,0.4-19.9-1.1c-6.1-2.3-12.1,0.4-18.1,0.3c-12.1-0.1-24.2,1.2-36.4,0.2c-0.9,0.1-1.7,0.2-2.6,0.3
			c-3.8-0.6-7.6-1.9-11,1.2l-2,0c-1.1-5.3-5.4-3.9-8.6-3.8c-16.8,1-33.3-2.1-50-2.2c-1.4,0-2.8-1.2-4.2-1.9l13.5,0
			c3.1-2.4,6.8-1.7,10.4-1.9c11.7-1.5,23.4-0.8,35.2-0.7c13,0.3,25.9,0.9,38.8-1.8c10-0.7,19.9-0.2,29.9-0.4c7.7,0,15.4,0,23.1,0
			c4.7,0,9.3,0,14,0"/>
		<path id="Trazado_19374" class="st0" d="M279.6,103.9c2.9-7,7.5-3.4,11.8-1.9c0.4,0.3,0.6,0.8,0.4,1.3c-0.1,0.4-0.3,0.6-0.4,0.6
			c-0.6,0.3-1.3,0.6-1.9,0.9C286.1,104.5,282.9,104.2,279.6,103.9z"/>
		<path id="Trazado_19375" class="st0" d="M305,104.3c2,1.2,4,2.4,6,3.6c-2.7,0.1-5.3,0.1-8,0.2c-1.9-0.1-3.8-0.3-5.6-0.4
			c0-0.6-0.1-1.3-0.1-1.9c0.6-1.8,2.2-3.1,4.1-3.3C302.8,102.7,304.2,102.9,305,104.3z"/>
		<path id="Trazado_19376" class="st0" d="M301.2,104c-1.3,0.6-2.6,1.2-3.9,1.8l-5.9-1.9c0-0.6,0-1.3,0-1.9l0,0
			C294.9,101.2,298.8,98.8,301.2,104z"/>
		<path id="Trazado_19377" class="st0" d="M234.4,39.2c0.6-1.3,1.3-2.6,1.9-3.8c5.2,0.2,10.7-1.5,15.5,2c0,4.2-3.4,3.8-6.1,4.5
			C241.8,41.9,237.7,42.3,234.4,39.2z"/>
		<path id="Trazado_19378" class="st0" d="M265.6,35l12.1,0.4c1.2,1.4,1,3.4-0.3,4.6c0,0,0,0,0,0c-4.1,2.5-9.2,2.4-13.2-0.1
			c-1.4-1.2-1.5-3.3-0.2-4.7C264.4,35.2,265,35.1,265.6,35z"/>
		<path id="Trazado_19379" class="st0" d="M263.8,35.3c0,1.3,0,2.5,0,3.8c-0.2,1.4-1.1,2.6-2.4,3.1c-1.4,0.4-2.8,0.3-4.1-0.4
			c-1.5-1.3-2.6-2.7-1.6-4.8C258,34.1,261,35.2,263.8,35.3z"/>
		<path id="Trazado_19380" class="st0" d="M255.8,37c0.7,1.4,1.4,2.7,2.2,4.1c-3.5,3-7.3,2.2-11.1,1c-1-0.6-1.3-1.9-0.7-2.8
			c0,0,0-0.1,0.1-0.1c2.1-0.1,4.3,0.4,5.7-1.8L255.8,37z"/>
		<path id="Trazado_19381" class="st0" d="M220.8,37.5c0,0.6-0.1,1.1-0.1,1.7l-8.4-0.5C215.4,36.5,218.2,37.7,220.8,37.5z"/>
		<path id="Trazado_19383" class="st0" d="M286.6,91c-4.4,0-9.3,1.2-12.9-2.8c0-0.6,0-1.1,0.1-1.7c1.2-1.9,3.4-1.3,5.1-1.9
			c3.2-0.5,6.5-0.2,9.5,0.8c1.2,0.4,1.6-0.9,0.4-0.5c-0.6,0.3-1.2,0.2-1.6-0.3c-0.4-0.7-0.3-1.5,0.2-2.1l26.1,0.1
			c4.9,1.2,9.7,2.2,14.7,0.9c2.3,0.2,4.8-0.6,6.9,1l3.3-2.1c5.3,1.7,11,1.7,16.3,0l3.4,0c6.5,2.3,13.1,0.4,19.7,1"/>
		<path id="Trazado_19386" class="st0" d="M468.2,72.5c-12.9-2.6-26-1.1-39-1.1c-9.2,0-18.5-2.3-27.7,1.5c-2.1,0.8-4.2-2.5-6-4.3
			c1.9-2.3,4.6-1.8,7-1.9c3.9-0.1,7.8,0.3,11.6-0.4c0.9-0.3,1.8-0.4,2.8-0.3c4.1,1,8.4,1,12.4-0.1c1,0,1.9,0.2,2.9,0.4
			c7.5,1.6,14.8,0.6,22-1.7c2-0.4,4.1-0.4,6.1-0.1"/>
		<path id="Trazado_19387" class="st0" d="M446.4,63.2l-89.9-0.1l-4.6-0.6c0.4-0.5,0.7-1,1-1.5c1.9-2.4,4.6-2.2,7.1-2.2"/>
		<path id="Trazado_19388" class="st0" d="M460.4,66.7h-6c-3.8,1.5-8,1.5-11.7-0.1l3.7-3.4"/>
		<path id="Trazado_19389" class="st0" d="M430.8,66.6l-2,0c-3.8,1.5-8,1.5-11.8,0l-2,0c-4,1.9-8.3,0.5-12.5,0.9
			c-10.9-0.7-21.9,1.7-32.7-1c2.3-2.5,5.3-1.9,8.2-1.9c18.1,0,36.2,0,54.3,0c2.8,0,5.9-0.7,8.2,1.9
			C437.6,68.1,433.9,68.2,430.8,66.6z"/>
		<path id="Trazado_19392" class="st0" d="M370,66.6l33.4,0.1c0.7,0.4,0.9,0.9,0.7,1.3s-0.5,0.6-0.7,0.6l-7.9,0h-36.5l-0.2-2
			C358.7,66.6,370,66.6,370,66.6z"/>
		<path id="Trazado_19393" class="st0" d="M240.2,86.1l-23.4-0.1l2.4-2.1c7.1-1.1,14.1-0.3,21.1,0.4c0.7,0.4,0.9,0.8,0.7,1.2
			S240.5,86.1,240.2,86.1z"/>
		<path id="Trazado_19395" class="st0" d="M287.7,70.2c5-1.9,10.1-5.9,16.4,0H287.7z"/>
		<path id="Trazado_19396" class="st0" d="M430.8,66.6l9.8-0.1l2,0l11.7,0.1C446.8,69.8,438.4,69.7,430.8,66.6z"/>
		<path id="Trazado_19397" class="st0" d="M287.3,82.4c0.2,0.5,0.4,1,0.5,1.6c-2.2,2.7-5.6,0.2-8,2l-6.1,0.5
			c-0.8-0.2-1.5-0.3-2.3-0.5c-0.7-0.6-1.9-0.7-2-2L287.3,82.4z"/>
		<path id="Trazado_19398" class="st0" d="M377.7,84.1c-6.6-0.6-13.5,2.3-19.8-1.8l19.8,0.1c0.7,0.4,1,0.8,0.7,1.1
			C378.2,84,378,84.1,377.7,84.1z"/>
		<path id="Trazado_19399" class="st0" d="M377.7,84.1c0-0.6,0-1.1,0-1.7c6.5,0,13.1-0.1,19.6-0.1"/>
		<path id="Trazado_19401" class="st0" d="M327.1,84.6c-5.1,2.6-9.4,0.3-13.8-2.1l9.5,0C324,83.8,326.3,82.7,327.1,84.6z"/>
		<path id="Trazado_19402" class="st0" d="M272.5,67.7c0.2,2.4-1.2,2.7-2.4,2.6c-1-0.1-2.6-0.7-2.9-1.4c-0.6-1.7,1.1-2,2.3-2
			C270.5,67,271.5,67.3,272.5,67.7z"/>
		<path id="Trazado_19403" class="st0" d="M354.5,82.3c-5.4,3.4-10.8,3.4-16.3,0L354.5,82.3z"/>
		<path id="Trazado_19404" class="st0" d="M327.1,84.6l-4.2-2.1c4.1,0.2,8.6-2.5,12.1,1.9L327.1,84.6z"/>
		<path id="Trazado_19405" class="st0" d="M269.5,84l2,2c-4.1-0.4-8.7,2.2-12.3-1.8L269.5,84z"/>
		<path id="Trazado_19407" class="st0" d="M240.2,86.1c0-0.6,0-1.2,0.1-1.8l10.5-0.2C247.8,87.6,243.8,86,240.2,86.1z"/>
		<path id="Trazado_19408" class="st0" d="M246.1,41l11.8,0.1l4,0c5.5-1.5,11.1-0.7,16.6-1.1c1.4,0.2,2.7,1.1,3.4,2.4
			c0.4,0.9,0.2,1.9-0.5,2.6L242.2,45c-1.2-2.1,0-3.3,1.6-4.4C244.6,40.2,245.6,40.3,246.1,41z"/>
		<path id="Trazado_19409" class="st0" d="M281.5,45c0-0.6,0-1.3,0-1.9c-0.3-5.3,3-5.8,7.1-5.3c2.9,1.4,5,3.5,5.2,7
			c-0.2,0.7-1,1.1-1.7,0.8c-0.2-0.1-0.5-0.2-0.6-0.5L281.5,45z"/>
		<path id="Trazado_19410" class="st0" d="M244.3,41.2l-2,3.8l-7.9-0.1c-1-0.9-1.1-2.4-0.2-3.5c0.1-0.1,0.2-0.2,0.3-0.3l0.1-0.2
			C237.7,39.8,241,39.4,244.3,41.2z"/>
		<path id="Trazado_19411" class="st0" d="M291.5,45.1c0.6-0.1,1.2-0.2,1.8-0.3c4.7-3.4,9.2-3.6,13.7,0.4c0,0.6,0.1,1.2,0.1,1.8
			l-5.7,0.1C298,46.5,294.3,48.2,291.5,45.1z"/>
		<path id="Trazado_19412" class="st0" d="M234.4,41.2c0,1.2,0,2.5,0,3.7l-3.9,2.1c0-0.6,0-1.2-0.1-1.8
			C228.7,40.9,231.4,40.9,234.4,41.2z"/>
		<path id="Trazado_19413" class="st0" d="M244.3,41.2l-9.9-0.2c0-0.6,0-1.2,0-1.8l11.8,0c0,0.6,0,1.2,0,1.9
			C245.5,41.1,244.9,41.2,244.3,41.2z"/>
		<path id="Trazado_19414" class="st0" d="M374.8,92.2h-6.7c-8.1,0.2-16.3-0.7-24.4,0.9c-2.7,0.1-5.2-1.2-7.9-0.9
			c-3.2,0-6.4,0-9.6,0c-8.1-0.1-16.3-0.2-24.3,1.7c-1.6,0.2-3.2,0.3-4.8,0.3c-5.8,0.1-11.6,0-17.4,0.3c-5,0.8-10-0.6-15-0.4
			c-1-0.1-1.9-0.5-2.6-1.2c-1.8-4.1,2.6-2.9,3.8-4.5l7.8,0"/>
		<path id="Trazado_19415" class="st0" d="M263.7,92.5h13.7c0.7,0.5,1.1,1.4,1.1,2.3c-0.6,1.3-1.2,2.4-2.9,1.3L238.6,96
			c-3.1-2-6.9,0.2-10-1.6c-0.1-0.6-0.1-1.2-0.2-1.9l11.9-0.5c4.1-3.1,8.9-0.4,13.2-1.4C257,90.5,260,93.4,263.7,92.5z"/>
		<path id="Trazado_19416" class="st0" d="M254.1,92.4c-4.7,2-9.2,0-13.9-0.5c-1.4-3.5,0.7-3.7,3.3-3.7c7.4,0.1,14.8,0,22.2,0
			l-3.9,3.6C259.5,94,256.8,93.2,254.1,92.4z"/>
		<path id="Trazado_19417" class="st0" d="M228.6,94.3c3.4,0,7-0.9,10,1.6h-10.4C228.4,95.4,228.5,94.9,228.6,94.3z"/>
		<path id="Trazado_19418" class="st0" d="M469.3,38c-3,0-6.1-0.1-9.1,0.2c-8.5,0.3-16.6,4.4-25.4,2.9c-0.4-8,5.9-5,9.8-5.9l2.1-2.1
			"/>
		<path id="Trazado_19419" class="st0" d="M375.8,35.2c0-0.6,0-1.2,0-1.7l8,0c3.8,1.3,7.9,1.3,11.6-0.1c1.3,0,2.6,0.1,4,0.1
			c0,1.2,0,2.5,0,3.7c-3,2.6-6.6,0.6-9.9,1.2C384.3,40,379.2,41.5,375.8,35.2z"/>
		<path id="Trazado_19420" class="st0" d="M419.1,37.1c2.8,0.4,5.8-0.8,8.5,2c-4.2-1.4-8.1,2.6-12.4,0L419.1,37.1z"/>
		<path id="Trazado_19421" class="st0" d="M395.4,33.3c-3.9,2.8-7.7,2.8-11.6,0.1L395.4,33.3z"/>
		<path id="Trazado_19422" class="st0" d="M328.7,39.1c-3.5,3.5-7.9,1.3-11.8,2c-2.8,1.5-5.4,0.6-8.1-0.4c-1.2-0.8-2.2-1.7-1.7-3.4
			C314.3,38.1,321.8,35.1,328.7,39.1z"/>
		<path id="Trazado_19423" class="st0" d="M344.4,41.1c-4.4,0.1-8.7-0.1-11.7-3.9c3.3-0.4,7,1.2,9.8-2c2.8,0.2,5.8-0.8,7.9,2
			C350.9,42.3,345.6,38.6,344.4,41.1z"/>
		<path id="Trazado_19424" class="st0" d="M307.1,37.3l2,1.8c-5.7,5.9-12.4,5.5-15.5-0.9c3.6-3.3,7.7-0.2,11.5-1L307.1,37.3z"/>
		<path id="Trazado_19425" class="st0" d="M305.1,37.3c-3.2,3.4-6.5,1.4-9.8,0c-0.4-0.2-0.6-0.7-0.5-1.2c0.1-0.4,0.2-0.7,0.4-0.7
			l4-0.3l5.9,0.1L305.1,37.3z"/>
		<path id="Trazado_19426" class="st0" d="M295.2,35.4c0,0.6,0.1,1.2,0.2,1.9c3.6,7.7,8.8,3.6,13.7,1.8c2.8-0.2,5.5,0.5,7.8,2
			c0,1.2,0,2.5,0,3.8c-3.3,0.1-6.6,0.2-9.9,0.3c-4.6-0.1-9.1-0.2-13.7-0.4c-1.4-1.9-4.1-2.8-3.9-5.7c-0.8-1.7-5,0-3.8-3.8
			L295.2,35.4z"/>
		<path id="Trazado_19427" class="st0" d="M285.6,35.3l3.8,3.8c-3.4-0.2-6.3,0.4-7.9,3.9l-2-2c-0.6-0.7-1.9-0.7-1.9-2
			c0-1.2,0-2.4,0-3.7C280.3,35.4,282.9,35.4,285.6,35.3z"/>
		<path id="Trazado_19428" class="st0" d="M464.4,109.5c0.8-5-2.9-0.1-3.7-1.7c-4.1,0.1-8.5-1.2-12.3,1.6l-0.9,0.1l-0.9-0.1
			c-1.9-2.1-4.9-3.3-4.7-6.8c0.4-0.9,1.3-1.6,2.3-1.6c7.9,1.5,16.1-2.5,23.9,1"/>
		<path id="Trazado_19429" class="st0" d="M448.5,109.5c2.4-6.3,7.4-4,11.9-3.4c1,0.7,1.2,2.1,0.5,3c-0.1,0.2-0.3,0.3-0.4,0.4
			L448.5,109.5z"/>
		<path id="Trazado_19430" class="st0" d="M460.3,109.5c0-1.2,0-2.3,0-3.5c1.2-0.1,2.5-0.1,3.8,0c1.4,0.2,3.4-1.1,3.8,1
			c0.1,0.6-2.2,1.7-3.4,2.5L460.3,109.5z"/>
		<path id="Trazado_19431" class="st0" d="M442.7,104c2.3,0.9,3.8,3,4,5.4l-2.2,0.7c-0.8,0.7-1.3,0.5-1.6-0.5
			c-0.1-0.5-0.1-1.1-0.2-1.6C441.5,106.9,441.5,105.1,442.7,104C442.6,104,442.6,104,442.7,104z"/>
		<path id="Trazado_19432" class="st0" d="M421,108l-19.6-0.1c-0.7-0.8-0.7-1.9,0-2.7c6.5-3.5,13.5-2.3,20.4-1.7
			c1,0.3,1.9,0.7,2.7,1.4c0.8,0.7,1,1.8,0.6,2.7L421,108z"/>
		<path id="Trazado_19433" class="st0" d="M442.7,104c0,1.3,0,2.7,0,4.1l-5.9-0.4c-0.9-0.6-2.1-1-2.6-2.2c-0.1-1.9,1.5-2.5,2.6-3.5
			l2.1-0.3c1.4-0.8,2.6-0.9,3.8,0.4C442.6,102.7,442.6,103.4,442.7,104z"/>
		<path id="Trazado_19434" class="st0" d="M434.8,105.9l1.9,1.7l-11.6-0.2c0-0.5-0.1-1.1-0.1-1.6
			C428.2,102.8,431.5,103.1,434.8,105.9z"/>
		<path id="Trazado_19435" class="st0" d="M458.4,45c-7.6-3.9-15.8-1-23.6-2.1c0-0.6,0-1.2,0-1.9c8.6-1.4,16.4-6.7,25.6-5.8
			c2.9,2,6.3,0.3,9.3,1.2"/>
		<path id="Trazado_19436" class="st0" d="M375.8,35.2c4.3,2.8,9.1,1.8,13.8,2c1.2,0.7,1.2,1.3,0,2l-2,2l-1.3,0c-3.9,0-7.9,0-11.8,0
			c-0.9,0-1.8,0-2.6,0c-2.6-0.5-5.2,1-7.8,0.1c-2.3-0.4-5.3,0.6-6.3-2.8C363.4,34.8,370.1,37.9,375.8,35.2z"/>
		<path id="Trazado_19437" class="st0" d="M371.9,39.2c0.6,0,1.3,0,2,0c4.3,2.6,9.4-0.6,13.7,2v0c0,0.6,0,1.2,0,1.8L370,43.1
			C368.7,40.8,370.8,40.2,371.9,39.2z"/>
		<path id="Trazado_19438" class="st0" d="M389.6,39.2c0-0.7,0-1.3,0-2c3.3,0,6.5,0,9.8,0C397.1,42.8,393,39.2,389.6,39.2z"/>
		<path id="Trazado_19439" class="st0" d="M344.4,41.1l6-3.9c0.8,0.8,1.5,1.7,2.1,2.7C350.2,42.2,347.1,40.6,344.4,41.1z"/>
		<path id="Trazado_19440" class="st0" d="M371.9,39.2c-0.6,1.3-1.3,2.6-2,3.9l-4,0.2c-0.6-0.1-1.2-0.1-1.9-0.2c0-0.6,0-1.2,0-1.9
			C366.4,39.7,369.1,39,371.9,39.2z"/>
		<path id="Trazado_19441" class="st0" d="M352.9,61c-3.5-0.8-7.5,0.9-10.5-2.1c2.1-2.6,5-2.6,7.9-2.2"/>
		<path id="Trazado_19442" class="st0" d="M340.2,58.5c-5.9,0.1-11.9,1.8-17.5-1.4c1.3-0.2,2.6-0.4,3.9-0.6c4.1,0.2,7.8-2.8,12-1.6
			C339.5,55.9,341.6,56.4,340.2,58.5z"/>
		<path id="Trazado_19443" class="st0" d="M340.2,58.5l-1.6-3.5c4,0.2,8.2-1.3,11.8,1.8c-2.4,1.5-5.1,2.2-7.9,2.2
			C341.7,58.8,341,58.6,340.2,58.5z"/>
		<path id="Trazado_19444" class="st0" d="M308.9,59c-4.1,2.6-9.4,2.6-13.5,0L308.9,59z"/>
		<path id="Trazado_19445" class="st0" d="M422.9,105.9c-7.1-1.4-14.2-3.2-21.4-0.1c-3.4,0.6-7.2-0.9-10,2.1l-3.9,0
			c-0.9-4.9-4.5-3.8-7.8-3.6c-4.6,0-9.2,0-13.8,0l-0.1-0.5c-0.5-0.4-0.7-0.8-0.5-1.1c0.2-0.3,0.4-0.5,0.6-0.5l11.8-0.2
			c3.1-1.3,6.6-1.3,9.6,0l27.6,0.1c3.6-1.1,7.2-2,10.9-0.8C429.6,105.8,423.6,104.1,422.9,105.9z"/>
		<path id="Trazado_19446" class="st0" d="M391.5,107.8c2.2-6.1,6.1-4.2,10-2.1c-0.1,0.7-0.1,1.4-0.2,2.1L391.5,107.8z"/>
		<path id="Trazado_19447" class="st0" d="M301.2,104c-2.8-3.2-6.5-1.6-9.8-2c1.1-0.6,2.3-1.9,3.3-1.7c17.9,2.2,35.8-1.3,53.7-0.2
			c0.1,3.8-2,3-4.2,2.1c-12.9,3.7-26.1,0.6-39.1,2.1L301.2,104z"/>
		<path id="Trazado_19448" class="st0" d="M344.1,102.2c1.7-0.2,3.3-0.5,4.2-2.1c5.6,3.4,12.2-1.9,17.8,2c-0.1,0.5-0.1,1.1-0.2,1.6
			c-3.8,2.1-7.8-0.6-11.6,0.2l-6,0.1C346.9,103.3,345.5,102.7,344.1,102.2z"/>
		<path id="Trazado_19449" class="st0" d="M336.6,90.2l5.8,2.2c0.7,0.3,0.9,0.7,0.7,1c-0.2,0.3-0.5,0.5-0.7,0.5L311,94.2
			c-3.4,0.1-7,0.8-9.8-2c8.2-4,17-0.6,25.4-1.9C329.8,91.8,333.4,91.7,336.6,90.2z"/>
		<path id="Trazado_19450" class="st0" d="M301.2,92.2c3.4,0,6.9-0.3,9.8,2c-11.6,3.3-23.5,2.5-35.4,1.9l2-1.9
			c6.3-2.8,13.2,0.7,19.5-2L301.2,92.2z"/>
		<path id="Trazado_19451" class="st0" d="M342.4,93.9c0-0.5,0-1,0-1.5c8.3-3.3,17-2,25.6-1.8c0.5,1.7-0.5,2.6-1.8,3.2L342.4,93.9z"
			/>
		<path id="Trazado_19452" class="st0" d="M442.6,102.1l-3.8-0.4c9.8-1.4,19.6-5.3,29.3,0.4L442.6,102.1z"/>
		<path id="Trazado_19453" class="st0" d="M379.6,93.9c-1.4-2-5.7,1.1-5.7-3.3"/>
		<path id="Trazado_19454" class="st0" d="M427,102.2c-4-0.1-7.9-0.2-11.9-0.3c6.5-5.2,13.1-2.4,19.6-0.2
			C432.4,104.3,429.8,104.1,427,102.2z"/>
		<path id="Trazado_19455" class="st0" d="M427,102.2c2.6-0.2,5.2-0.4,7.8-0.5c0.6,0.1,1.3,0.2,1.9,0.3c-0.6,1.3-1.3,2.6-2,3.9
			l-9.8,0l-2,0L427,102.2z"/>
		<path id="Trazado_19456" class="st0" d="M374,90.6l5.7,3.3l-13.5-0.1l1.8-3.2C370,90.6,372,90.6,374,90.6z"/>
		<path id="Trazado_19457" class="st0" d="M387.5,101.9h-9.6C381.1,99.2,384.3,99.2,387.5,101.9z"/>
		<path id="Trazado_19458" class="st0" d="M277.6,39.1l1.9,2l-17.6,0c0.6-0.7,1.3-1.3,1.9-2C263.8,39.1,277.6,39.1,277.6,39.1z"/>
		<path id="Trazado_19459" class="st0" d="M279.8,86c2.2-2.5,5.4-1.2,8-2l6.2,0.5c-0.1,0.5-0.1,1-0.2,1.5L279.8,86z"/>
		<path id="Trazado_19461" class="st0" d="M403.3,68.6c0-0.6,0-1.3,0-1.9l11.8,0C411.6,70.1,407.3,68,403.3,68.6z"/>
		<path id="Trazado_19462" class="st0" d="M417.1,66.6l11.8,0C424.9,69.5,421,69.6,417.1,66.6z"/>
		<path id="Trazado_19463" class="st0" d="M297.2,92.2c-6.2,4.1-13,1-19.5,2c-0.1-0.6-0.1-1.2-0.2-1.7
			C284,92.4,290.6,92.3,297.2,92.2z"/>
		<path id="Trazado_19464" class="st0" d="M336.6,90.2c-3.3,2.6-6.7,2.4-10,0.1L336.6,90.2z"/>
		<path id="Trazado_19465" class="st0" d="M254.1,92.4l7.8-0.6c0.6,0.2,1.2,0.4,1.8,0.6C260.5,94.9,257.3,94.9,254.1,92.4z"/>
		<path id="Trazado_19466" class="st0" d="M466.5,39.9c-0.1-0.4,2.3-1.8,3.5-2.7c-0.7-0.4-0.9-0.9-0.7-1.3c0.2-0.4,0.5-0.6,0.7-0.6"
			/>
		<path id="Trazado_19467" class="st0" d="M470.1,35.2c0,0.7,0,1.3,0,1.9c-3.3-0.4-7,1.2-9.7-1.9L470.1,35.2z"/>
		<path id="Trazado_19468" class="st0" d="M387.6,41.1c-4.6-0.7-9.6,1.7-13.7-2C378.4,39.8,383.5,37.4,387.6,41.1z"/>
	</g>
</g>
</svg>
