<?xml version="1.0" encoding="utf-8"?>
<!-- Generator: Adobe Illustrator 23.0.2, SVG Export Plug-In . SVG Version: 6.00 Build 0)  -->
<svg version="1.1" id="Capa_1" xmlns="http://www.w3.org/2000/svg" xmlns:xlink="http://www.w3.org/1999/xlink" x="0px" y="0px"
	 viewBox="0 0 166.63 67.6" style="enable-background:new 0 0 166.63 67.6;" xml:space="preserve">
<style type="text/css">
	.st0{fill:#CFDDED;}
	.st1{fill:#F4951C;}
	.st2{fill:#0FA7B3;}
	.st3{opacity:0.4;}
	.st4{fill:#CB6DA8;}
	.st5{fill:#9AD1BF;}
	.st6{fill:#9BD1BF;}
	.st7{fill:#FFFFFF;}
	.st8{fill:#88BF4F;}
	.st9{opacity:0.43;}
</style>
<g id="Grupo_262" transform="translate(147.648 -835.448)">
	<path id="Trazado_7963-3" class="st2" d="M-2.07,877.25c6.17,5.4,12.47-2.72,19.28,4.42c-5.03,4.77-9.82,4.96-14.46,5.36
		c-11.1,0.94-22,3.45-32.39,7.46c-4.87,1.87-10.02,1.43-14.5,6.6c-2.17,2.52-5.92,2.95-7.68-0.76c-3.82-8.05-9.22-7.5-14.08-7.85
		c-20.31-1.44-40.1-9.94-60.44-11.38c-7.75-0.55-16.46-2.99-21.31-19.01c24.99-7.5,49.83-6.08,74.26-11.12
		c24.3-5,48.57-10.27,73.36-15.52c-2.65,14.44-2.48,15.39,4.54,20.62c3.85,2.87,7.71,5.84,12.06,6.32c1.19,0.13,2.22,1.68,2.39,3.92
		c0.14,1.78-0.56,3.53-1.88,4.73c-2.35,2.65-5.06,3.23-7.78,3.8C5.52,875.62,1.72,876.45-2.07,877.25z"/>
</g>
</svg>
