<?xml version="1.0" encoding="utf-8"?>
<!-- Generator: Adobe Illustrator 23.0.2, SVG Export Plug-In . SVG Version: 6.00 Build 0)  -->
<svg version="1.1" id="Capa_1" xmlns="http://www.w3.org/2000/svg" xmlns:xlink="http://www.w3.org/1999/xlink" x="0px" y="0px"
	 viewBox="0 0 297.6 335.4" style="enable-background:new 0 0 297.6 335.4;" xml:space="preserve">
<style type="text/css">
	.st0{fill:#FAD1CC;}
</style>
<g id="Grupo_413" transform="translate(-286.669 28.359) rotate(-21)">
	<path id="Trazado_19020" class="st0" d="M421.7,157.2c-0.4-0.1-0.7-0.2-1.1-0.3c-0.8-2.8-5.7-3.4-3.8-7.5c1.7,1.9,5.3,0.7,6.2,3.9
		L421.7,157.2z"/>
	<path id="Trazado_19021" class="st0" d="M409.1,148.2c2.1-1.8,4.2-0.3,6.4-0.1l1.3,1.1c0.2,3,3.9,4.3,3.8,7.5
		C417.1,153.5,411.9,152.5,409.1,148.2z"/>
	<path id="Trazado_19022" class="st0" d="M397.9,172.1c-3-0.4-5.3-2.4-8-3.3c-3.1-1.1-2.6-3.2-2.1-5.5l3.8,1.3
		c1.9,2.4,5,2.6,7.5,3.8C400,170,399.2,171.2,397.9,172.1z"/>
	<path id="Trazado_19023" class="st0" d="M397.9,172.1l1.3-3.8c2.8,1.8,8.2,1.8,5,7.6L397.9,172.1z"/>
	<path id="Trazado_19024" class="st0" d="M410.4,182.2c-1.6-0.8-3-2.1-3.8-3.8C413.3,174.2,409.4,180.7,410.4,182.2z"/>
	<path id="Trazado_19025" class="st0" d="M279.3,160.8c14-6.5,29.1-10.6,44.4-12.2c8-0.8,16.2,0.6,24.3,1.4c2.3,0.2,4.5,0.7,6.8,0.7
		c0.1,0.9,3,3-0.3,2.3c-9.9-2-19.9-0.7-29.8-1c-10.3-0.4-19.8,3.1-29,7.5c-4.1,3.6-9.1,6.2-14.4,7.6c-4.6-0.9-8.1,1.6-11.6,3.9"/>
	<path id="Trazado_19026" class="st0" d="M268,154.5c1,0.1,2.2,0.2,1.4,1.6c-0.9,1.5-0.5,2.1,1.1,2.1"/>
	<path id="Trazado_19027" class="st0" d="M269.2,169.6c2.5-0.2,1.4,1.4,0.9,2.2c-1.4,1.9-3.1,3.4-5.1,4.6"/>
	<path id="Trazado_19028" class="st0" d="M269.2,149.4c0.3,2.8-3.2,1.8-3.8,3.8l-1.3,1.2c-0.9,2.9-3.6,3.3-5.9,4.2"/>
	<path id="Trazado_19029" class="st0" d="M264.2,154.5l3.8,0"/>
	<path id="Trazado_19030" class="st0" d="M368,167.1h-11.3c-2.1,2.3-5,1.7-7.6,1.8c-19.6,0.3-38,5.5-55.9,13.1
		c-1.1,0.6-2.2,1.1-3.3,1.4c-4.9,1.6-5.4,1-4.3-4.5c3.3-4.3,8.6-5.3,13-7.9c0.6-0.3,1.1-0.5,1.7-0.6c6.6-2.9,13.6-4.5,20.4-6.7
		c13.5,0.7,27-3.9,40.5-0.5C363.7,163.8,367.3,163,368,167.1z"/>
	<path id="Trazado_19031" class="st0" d="M362.8,169.6c4.4,2.3,9.8,1.8,13.9,5c0.3,1.9-1.1,2-2.3,2.3c-5.4-1.2-10.8-2.9-16.8-3
		c5.4,1.6,10.8,2.4,15.6,5c2.1,1.1,5.2,2.5,3.5,5.5c-1.4,2.5-4.2,1.3-6.2,0.3c-3.3-1.8-6.9-3-10.6-3.5c-3.2-0.9-6.5-1.6-9.7-2.7
		c-1-0.3-2-0.8-2.8-1.4c-4.5-3.2-7-4-12.7-2.8c-11.5,2.4-22.9,5-33.7,9.9c-2.3,1.1-5.6,3.6-7.2,1c-1.7-2.9,2-4.8,4.2-6.6
		c14.5-4,28.7-9.5,44-10.6C349.1,167.5,355.9,169,362.8,169.6z"/>
	<path id="Trazado_19032" class="st0" d="M284.3,170.8c8.7-4.6,16.9-10.2,27-11.9c4.1-0.7,8,0.9,12.2-0.8c-0.6,3.8-4.3,1.7-5.3,3.9
		c-4.4,3.1-9.9,3.8-14.6,6.3c-8.7,3-15.7,9.4-24.7,11.5c-2.1,0.1-4,0-5.2-2.1C275.2,172.2,279.7,171.4,284.3,170.8z"/>
	<path id="Trazado_19033" class="st0" d="M364.3,167.1c-4.1-3.4-9.1-3.4-14.1-3.9c-7.9-0.8-15.5,1.2-23.2,2.4
		c-3.7,0.6-6.9-1.7-10.5-1.1c-1.3,0.5-1.5-0.1-1.3-1.3l2.5-1.3c4.4-2.9,9.4,1.1,13.8-1.3c17-1,33.5,1.4,49,8.8
		c2.2,1.1,4.7,1.8,6.4,3.8l0,0C379,172.7,371.6,170,364.3,167.1z"/>
	<path id="Trazado_19034" class="st0" d="M416.7,204.8h-1.3c-5.3-3.9-12-5.1-17.1-9.9c-6.8-6.4-14.1-12.6-23.8-14.3
		c-0.9,0.1-1.8,0.1-2.6-0.1c-0.6-0.2-1-0.6-1.5-1c-1.6-2.6,0.6-2.9,2.2-3.6c6.6,1.1,13,3.4,18.8,6.7
		C401.5,188,411.1,194.3,416.7,204.8z"/>
	<path id="Trazado_19035" class="st0" d="M363.7,169.6c-20.4-2.7-39.8,1.8-58.8,8.9c-2.1,0.9-4.4,1.3-6.7,1.2
		c-1.5,2.2-3.5,3.6-6.3,3.4c-0.9-0.4-1.6-0.9-1.3-2.1c20.8-9.3,42.5-14.8,65.4-13.8c2.6,2.3,5.8,0.8,8.7,1.3
		c0.4,0.1,0.7,0.1,1.1,0.2C365.9,170.1,364.5,169.3,363.7,169.6z"/>
	<path id="Trazado_19036" class="st0" d="M415.5,264.6c0.2-1.6,0.4-3.3,2.4-4.2c1,3.3,3.7,3.3,6.4,3c0,2.5,0,5,0,7.6
		c-3.4,1.5-5.2,3.6-4.5,7.6c0.8,2.9-0.5,6-3.1,7.5C416.3,278.8,412.5,271.9,415.5,264.6z"/>
	<path id="Trazado_19037" class="st0" d="M274,172.2c3-0.8,5.2-4.6,9-2.6l1.3,1.3l-10.1,6.3"/>
	<path id="Trazado_19038" class="st0" d="M283.1,169.6c-3.3,0.3-5.3,3.8-8.8,3.8c-0.9-1.8,1.4-2.9,0.9-4.6c1-2.5,3.5-2.3,5.4-3
		l15.1-6.3c2.9,0.7,1.5,1.7,0.1,2.4C291.3,164.1,287,166.6,283.1,169.6z"/>
	<path id="Trazado_19039" class="st0" d="M407.9,371.6c4.3-8.2,8.7-16.5,13-24.7c1.4-2.8,3.2-5.3,3.5-8.6c0.1-1.6,1.5-0.9,2.4-0.6
		c-2,6.1-4.5,12-7.5,17.6C415.4,360.6,413,367.1,407.9,371.6z"/>
	<path id="Trazado_19040" class="st0" d="M299.5,167.1c4.8-2.5,9.5-5.1,15.1-5c0.9,0.5,1.3,1.5,1.3,2.5c-4.5,3.6-11,3.2-15.1,7.6
		h-1.2c-0.2-0.1-0.5-0.3-0.7-0.4c-0.6-0.6-1-1.4-1.1-2.2C297.6,168.2,299.1,168,299.5,167.1z"/>
	<path id="Trazado_19041" class="st0" d="M300.5,172.1c2.8-7,10-5.2,15.1-7.6l3.8-1.3l1.3,1.3C314.2,167.8,307.3,169.7,300.5,172.1z
		"/>
	<path id="Trazado_19042" class="st0" d="M334.2,160.8c-4.4,2.6-9.2,0.6-13.8,1.3c1.4-4.6,5-4,8.5-3.6c0.3,1.7-2.3,0.5-2.1,2.3
		H334.2z"/>
	<path id="Trazado_19043" class="st0" d="M423,209.2c-0.9,0.6-1.3,1.5-1.3,2.5l-2.5-2.5c-0.4-2.1-0.8-4.2-1.3-6.3
		C420.3,204.5,422.7,206,423,209.2z"/>
	<path id="Trazado_19044" class="st0" d="M376.8,175.9c-0.8,1.1-2.6,1.9-1.3,3.8c-3.4,1.1-5.9,0.9-5-3.8c1,0.1,2-0.4,2.5-1.3
		L376.8,175.9z"/>
	<path id="Trazado_19045" class="st0" d="M384.5,173.4c2.5,0.2,4.7,1.6,6.1,3.7C387.4,176.3,385.5,175.6,384.5,173.4L384.5,173.4z"
		/>
	<path id="Trazado_19046" class="st0" d="M405.4,399.3c3.2-3.7,7.4-6,11.3-8.8c2.5-1,4.1-4.5,7.6-2.5c-4.3,4.4-8.8,8.6-15.1,10.1
		L405.4,399.3z"/>
	<path id="Trazado_19047" class="st0" d="M409.2,398l15.1-10.1h1.3c0.4,0.3,0.5,0.6,0.4,0.8c-0.1,0.3-0.3,0.4-0.4,0.4l-10.1,7.5
		C413.4,397.1,411.8,400.3,409.2,398z"/>
	<path id="Trazado_19048" class="st0" d="M267.8,172.2c0.8-0.7,2.7-0.8,1.5-2.6c3.5-2.1,6.4-5.9,11.3-3.8l-5,3.8
		c-4.8,5.9-11.7,9.2-17.3,14.1"/>
	<path id="Trazado_19049" class="st0" d="M260.7,187.4c2.1-1.5,4.2-3.2,6.4-4.8c2.2-1.6,3.8-1.5,4.4,1.5c-0.5,2.2-0.4,2.4,0.5,2.2
		c5-0.9,8.9-4.2,13.5-5.7c1.7-0.6,3.2-2,5.1-0.9c0.2,6.3,3.3,1.1,5,1.3l1.3,1.3c0.9,4.2-0.8,6.6-4.9,7.5c-4.2-1.7-8.3-0.6-12.3,0.9
		c-9.4,2.2-15.8,8.1-20.2,16.5"/>
	<path id="Trazado_19050" class="st0" d="M415.5,265.9c-0.2,3,0.5,6.1,1.9,8.8c2.2,3.9-0.2,8.4-0.6,12.6c-0.4,7.2-4,13.5-6.3,20.1
		c-3,0-2.3-2.4-2.5-4c-0.7-5.6,0.1-11.3,2.5-16.5c0-0.3-0.1,0.5-0.5,1.3c-1.1,2.4-1.9,6.2-5.1,5.1c-3-1-1-4.4-0.4-6.6
		c1.3-5.2-2-10.7,0.7-14.6c0.1,1-0.2,1.9-0.9,2.6c-2.7-0.2-2.1,4.6-5.4,3.6c-0.8-1-1.2-2.2-1.2-3.4c-0.3-2.7-1.6-0.4-2.4-0.4
		c-3,4.1-6.5,7.8-9,12.3c-1.1,1.9-1.7,4.3-4.5,4.6c-0.9-0.3-1.6-0.9-1.9-1.8c0-5.5,2.3-10.5,3.5-15.7c1.4-6.2-0.6-11.2-4.8-17.3
		c0.1,5.3-0.9,9.3,3.5,11.9c2.3,1.4,1.7,3.5,1.1,5.5c-0.8,2.9-0.8,6.1-3.3,8.4c-2.5-0.4-4.7-1.7-4.3-4.3c0.5-3-1.7-4.5-2.4-6.8
		c-0.8-2.6-2.3-5-4.3-6.9c-0.4-0.4-0.7-0.9-1-1.3c-1.5-2.7-3.1-5.3-5.8-7c-1.4-1.6-2.6-3.2-2-5.5c1-1.1,2.5-1.4,3.8-0.6
		c-2-1.2-2.9-3.2-4.3-4.6c-1.8-2.1-4-3.8-6.5-5c-3-1.8-6.7-2.1-9.1-4.9c1.1-4.1,4.1-2.3,6.6-2.2c5.5,0.3,8.7,5.6,14,6.5
		c3.9,0.5,6,3.4,8.4,6c1.6,2.2,3.5,3.9,6.6,4.1c-2-1.7-3.7-3.5-6-4.3c-2.3-1.9-5-3.5-6-6.6c0.7-2.4,2.6-1.6,4.2-1.6
		c-4.1-0.3-7.9-1.6-11.9-2.5c-2.2-0.4-4.3-1-6.3-1.8c-5.9-1.3-12-1.2-17.9,0.2c-2.3,0.5-5.8,2.3-5.7-2.7c0-0.3,0.3-0.8-0.2-1
		c0,0.4-0.2,0.8-0.5,1.1c-1.6,1.1-3.1,1.1-4.3-0.7c-0.2-1.9,1.1-3,2.3-4.2c9.2-5.8,17.9-12.7,29.3-13.7c15.6-3.2,29.1,2.1,41.7,10.6
		c1.8,1.4,3.2,3.4,4,5.6c2.2,4.7,4,9.6,7,14c0.9,1.4,1.7,3,0.3,4.6c-0.2,0.6-0.8,1.5-0.6,1.6C414.1,253.1,411.5,260.8,415.5,265.9z"
		/>
	<path id="Trazado_19051" class="st0" d="M402.9,270.6c2-1.2,0.7-3.6,2.9-6.7c-0.8,9.2,2.6,16.9-1.9,25.5c5.7-3.5,5.1-9.2,8.4-12.8
		c-0.9,9-4.8,17.6-1.8,26.7c-2,6.9-6.6,12.9-7.5,20.1c-1.6,1.5-0.2,5.1-3.6,5.3c-0.5-2.4-1.5-1.3-2.5-0.4c-4.1,2.5-6,6.9-9.1,10.3
		c-3.8,4.2-7.3,8.6-12.5,11.3c-1.1,0.6-2.5,1-3.5,0c-1.1-1.2-0.3-2.6,0.5-3.4c6.8-6.5,10.4-15.7,18.3-21.3c2.2-1.5,4-2.9,2.2-6.5
		c-1.3-2.6,2.9-4.8,3.4-7.8c-0.8,2.4-2.5,4.3-3.7,6.5c-0.8,1.2-1.4,3-3.2,2c-1.5-0.9-0.8-2.6-0.4-4c0.6-1.8,1.3-3.5,2.1-5.2
		c5.5-11.3,11.1-22.5,10.6-35.6C401.5,273.2,401.4,271.6,402.9,270.6z"/>
	<path id="Trazado_19052" class="st0" d="M402.9,323.8c1.1,0.8,2.6,0.8,3.8,0c3.3,4.3-0.9,9.2,1,13.6c0.3,2.4-0.6,4.7-1,7
		c-0.1,0.6-0.3,1.1-0.6,1.7c-0.9,1.7-1.4,3.5-1.6,5.4c-0.3,7-3.4,12.3-9.1,16.7c-3.4,2.6-3.4,8-6.5,11.2c-0.6,0.7-1.2,1.3-1.9,1.8
		c-3.6,2.4-5.4,6.6-9.1,9c-2.7,0.7-4.4,5.8-8.2,1.9c0.7-3.6,3.9-5.2,6-7.6c2.5-3,5.4-5.7,6.1-9.8c1.9-5.9,6.5-10.4,8.7-16.1
		c6.5-4,8.4-9.8,7-17C399.4,335.7,400.1,329.4,402.9,323.8z"/>
	<path id="Trazado_19053" class="st0" d="M405.4,363.3V362c-3.5-4.6-0.9-9.2,0-13.9l0,0c2-4.3,2.2-9.1,4.5-13.4
		c1.4-2.9,1.1-6.3-0.8-8.9c-0.6-3.5-2.4-7,0-10.5h1.3c2.6,0.6,2.1,3.6,3.8,5c1.8,0.2,3.1,1.5,2.3,2.9c-4,6.9-0.4,16.1-6.5,22.3
		c-0.5,0.4-0.5,1.2-0.1,1.7c0.1,0.2,0.3,0.3,0.5,0.3c0.8,0.1,1.6-0.1,2.1-0.7c1.4-3,4.3-5.2,4.1-8.9c-0.1-2.5,0.7-5,2.1-7.1
		c1.7,1.8-0.8,3.6,0.3,5.3c1.9-1,1.4-4,3.8-4.5c-1.6,5.4-1.6,11.5-6.2,15.8c-1.4,1.2-1,3.1-1.5,4.6c-0.7,2.3-1,5.6-4.9,4.8
		C407.6,358.1,409.6,363.2,405.4,363.3z"/>
	<path id="Trazado_19054" class="st0" d="M402.9,326.9c1.4,6.8-2.9,12.5-3.8,18.9c-1,2.7-0.9,5.6-2.2,8.3c-1.3,2.8-1.2,2.9-5,2.1
		c-0.9-0.2-0.3,0.5-0.5,0.7c-3.6,6.2-5.1,1.3-7.1-1.3c-0.6-3.3-0.1-6.3,2.4-8.8c1.7,0.9,3.1,0.5,4.1-1.4c1.1-2.2,5.5-2.8,3.3-6.6
		c0.4-4.5,0.7-9.1,5-11.9c2.1-1,1.4-4.2,3.8-5C402.9,323.5,402.9,325.2,402.9,326.9z"/>
	<path id="Trazado_19055" class="st0" d="M409.2,316.5c0.4,3.8,0.8,7.5,1.3,11.3c1,5-0.5,10.1-3.8,13.8c-3.1-4.6,0.8-9.2,0-13.8
		c-1.9-4.5-0.2-8.6,1.7-12.6c0,0,0.4,0,0.5,0.2C409,315.7,409.1,316.1,409.2,316.5z"/>
	<path id="Trazado_19056" class="st0" d="M414.2,322.7c-3.2-0.2-2.4-3.4-3.8-5c2.5-3.2,0.8-6.8,1.2-10.2c0.3-3.3,1.4-6.5,3.2-9.2
		C416.9,306.9,413.9,314.8,414.2,322.7z"/>
	<path id="Trazado_19057" class="st0" d="M423,291.7c0,0.9,0,1.7,0,2.5c-2.3,5.7-0.5,11.9-1.9,18.9c-4.1-7.4,0.3-13.9-0.6-20.2
		C421.2,292.3,421.6,291,423,291.7z"/>
	<path id="Trazado_19058" class="st0" d="M425.5,321.9c0.2,3.6,0.2,7.2-2.5,10.1l-4.4-1.9c2-2.2,4.2-3.8,3.5-7.8
		C421.4,317.5,424.2,321.3,425.5,321.9z"/>
	<path id="Trazado_19059" class="st0" d="M423,292.4l-2.5,1.2c0.3-1.2-0.8-2.8,0.7-3.7c0.2-0.1,1.2,0.8,1.8,1.2
		C423,291.6,423,292,423,292.4z"/>
	<path id="Trazado_19060" class="st0" d="M379,214.6c15.1,4.2,26.3,13.1,32.7,27.7c-1.4,1.9,3.1,6.1-2.5,6.3
		c-3.9-6.4-6.7-13.4-10.2-19.9c-3.4-6.3-10.7-8.4-17-10.7c-8.2-3-16.8-5.2-25.6-2.2c-0.6-1.1-3.2-0.1-2.6-2.4
		C362.4,208,370.7,211.3,379,214.6z"/>
	<path id="Trazado_19061" class="st0" d="M416.3,215.8c-1-0.6-1.7-0.9-2-1.3c-1.3-1.8-4-2.5-4-5.2c0-0.3,1.6-1.2,2-0.9
		C415,209.8,417.2,211.6,416.3,215.8z"/>
	<path id="Trazado_19062" class="st0" d="M405.4,205.7c-2.8-1.7-5-4.3-6.1-7.3l7.3,6.1L405.4,205.7z"/>
	<path id="Trazado_19063" class="st0" d="M407.9,215.2c-2-1.8-4-3.5-5.9-5.3c-0.5-0.4-1.4-1.3-0.1-1.7c0.6-0.2,1.5,0.5,2.2,0.8
		C405.1,211.2,408,212.3,407.9,215.2z"/>
	<path id="Trazado_19064" class="st0" d="M389.2,389.2c-2.8,1.2-5.3,2.9-7.5,5c-1,0.6-2.1,0.9-3.3,0.7c-0.5-0.2-0.9-0.7-1.2-1.2
		c-0.5-3.2,2.9-3,4-4.8c1.6-1.5,3-3.1,4.7-4.5c1.6-2.1,4.6-3,5.2-5.9c1-1.3,2.5-2.6,4-1.8c1.9,1,1.1,3.2,1.1,4.9
		c-0.2,1.3-1.2,1.9-2.1,2.6C392.2,385.4,390.4,387.1,389.2,389.2z"/>
	<path id="Trazado_19065" class="st0" d="M391.6,384.2l1.3-2.5c-0.7-1.4,0.5-2.2,0.9-3.2c1.5-2.9,3.3-3.5,5.4-0.6l0,0
		C397.1,380.6,395.3,383.6,391.6,384.2z"/>
	<path id="Trazado_19066" class="st0" d="M394.1,379.2l-1.3,2.5c-2.1,0.4,1.7-8-3.8-2.5c-0.2,0.4-0.7,0.4-1,0.2
		c-0.1-0.1-0.2-0.1-0.2-0.2c2.9-4.9,4-10.6,9.4-14.2c3.9-2.6,5.9-7.2,5.6-12.4c-0.1-2.7,0.2-5.4,2.6-7.3c0.9,4.6-1.5,9.2,0,13.9
		c-4.7,4.8-7.4,11-11.3,16.4C395,376.5,395,378.1,394.1,379.2z"/>
	<path id="Trazado_19067" class="st0" d="M405.4,360.3c2.6-1.3-0.4-7.2,5-6.3c-0.8,7-4.7,12.6-9.5,19.7
		C401.2,367.5,405,364.5,405.4,360.3z"/>
	<path id="Trazado_19068" class="st0" d="M394.1,379.2c0-1.3,0-2.5,0-3.8c2,0.2,4.6-0.7,5,2.5C396.9,376.2,395.5,377.7,394.1,379.2z
		"/>
	<path id="Trazado_19069" class="st0" d="M290.6,179.7c-4.8,2.4-9.6,4.9-14.5,7.2c-1.3,0.6-2.8,2.3-4.4,0.4c5-6.9,12.9-9.3,20-13
		c3.9-0.4,7-5.1,11.5-2.1l0,0L290.6,179.7z"/>
	<path id="Trazado_19070" class="st0" d="M382.1,187.2c-1.5,1.9,1.3,2.4,1.3,3.8c-0.1,0.4-0.3,0.8-0.6,1.1l-0.6,0.2
		c-1,0.1-2-0.4-2.5-1.3c-2.6-1.9-5.4-3.7-8.8-3.8c-4.5-2.7-10.8-2.2-13.8-7.6c5.6-0.3,10,4.1,15.6,4.3c-6.2-7.5-16.2-6-23.6-10.9
		c7.6-1.4,14.9-1.1,21.8,2.8c0.4,2.9,2.7,3.3,5,3.8C378.4,181.7,381,183.8,382.1,187.2z"/>
	<path id="Trazado_19071" class="st0" d="M291.9,175.9c-7.8,1.9-13.1,8.1-20.1,11.3c-1.5,0.2-2.1,2.5-4.3,1.8l3.1-4.3
		c2-3.4,5.5-4.8,8.8-6.3c8.4-2.8,15.2-9,23.9-11.3c1.2,1.6-1.3,1.4-1.3,2.5C299.4,172.9,294.9,173.2,291.9,175.9z"/>
	<path id="Trazado_19072" class="st0" d="M259.5,187.3c4.5-3.9,9.5-7.3,14.8-10.2c1.3,1.8,3.3,1.1,5,1.3c-2.5,2.6-5.1,5.3-8.8,6.3
		c-0.4-2.7-1.7-2.5-3.4-1.1"/>
	<path id="Trazado_19073" class="st0" d="M380.3,187.2c-2.2-2.5-5.1-4.3-6.3-7.6h2.5c5.6,9,17.8,9.8,23.2,19.1
		C393.5,194.5,387,190.6,380.3,187.2z"/>
	<path id="Trazado_19074" class="st0" d="M289.1,175.9c2.4-3.6,6.8-4.1,10.1-6.3c0.9,0.5,1.3,1.5,1.3,2.5
		C296.1,171.7,293.2,175.5,289.1,175.9z"/>
	<path id="Trazado_19075" class="st0" d="M405.4,391.8c-5.1,3.9-10.6,7.3-16.4,10.1C393.5,396.9,398.3,392.4,405.4,391.8z"/>
	<path id="Trazado_19076" class="st0" d="M257.9,206.1c6-7,12-13.9,21.4-16.4c4-2,8-5.1,12.6-1.3l-3.8,3.8
		c-8.4,7.2-16.9,14.3-26.4,20.1"/>
	<path id="Trazado_19077" class="st0" d="M279.3,187.4c-8.4,3.8-14.6,10.5-21.4,16.4C261.6,195.6,273,186.9,279.3,187.4z"/>
	<path id="Trazado_19078" class="st0" d="M271,369.7c10.9,2.8,21.5,6.8,32.9,5.7l3.5-1.3c4.5-4.3,11.1-3.3,15.6-7.5
		c1.7-2.5,4.4-2.1,6.8-2.8c1.7,0,3.5,0,4.4,2c-0.1,2.5-2,3.3-3.6,4.4c-2.8,1.8-5.7,3-7.9,5.9c-2.2,3-6,0.9-8.9,2.1
		c11.1-1,20.8-7,30.9-11.4c9.5-4.6,16.5-12.4,22.5-20.9c-0.9,0.6-1.7,1.9-2.8,2.7c-2,1.5-3.6,3.9-6.5,3.5c-2.8-2-1.1-3.8,0.5-5.2
		c2.4-2,4.7-4.1,6.8-6.3c4.4-5.1,9.4-9.6,13-15.7c-2.5,2.9-3.5,7.4-7.7,8.3c-3.7-6.1-3.2-11,1.7-15c1.8-1.4,2.7-3.7,2.2-5.9
		c-0.3-2.4-0.2-5.1,1.9-6.1c5.8-2.6,7-8.3,8.9-13.7c0.8-2.3,1.9-4.5,2.8-7.8c-2,2.5-2.2,4.9-3.1,6.9c-1,2.1-2.3,3.8-4.7,3.9
		c-2.5-0.9-1.9-2.8-1.2-4.7c1.9-2.6,1.8-6.6,4.7-8.5c2.4-6.5,8.3-10.7,9.7-17.9c0.1-0.8,1.2-0.4,1.8,0.3c3.7,6.6,0.1,12.8-0.8,19.2
		c0.5-3.5,2-6.7,2.1-10.4c0-1.9,1.4-3.5,3.3-3.8c1.5-1,0.8-3.1,1.5-4.4c1-1.7,1.6-1.1,1.9,0.6c2.2,17.9-6.6,32.4-11.4,48.4
		c1.7-3.6,3.4-7.1,5.1-10.7c0.5-1.1,1.1-2.6,2.5-1.7c1.5,0.9,0.3,2-0.2,3.1c-1.5,3.3-3.5,6.4-5.9,9.1c5.2-1.1,5.7,1.4,3,3.7
		c-7.2,6-11.6,14.6-17.4,21.8c-1.3,1.5-2.5,3.1-3.6,4.8c8-3.4,12.1-11.2,17.3-17.8c1.4-1.7,1.8-4.6,4.8-4.1
		c0.8,5.2-2.9,9.1-3.6,13.8c-1.5,2.5-1.8,5.8-4.4,7.6c-1.4,2.7-2.2,5.7-2.3,8.8c1.5,4-1.4,6.9-2.1,10.3c-1,2.7-2.2,5.4-3.7,7.8
		c-1.7,2.5-3.2,5.2-4.9,7.8c-2.4,2.5-3.4,6.8-7.4,7.3c-1.3-0.6-2.6-1.6-4.2-0.8c-0.8,0-1.6-0.3-2.2-1c-0.4-2.7,1.5-3.6,3.1-4.7
		c0.8-0.4,1.6-0.9,2.3-1.5c0.6-0.5,0.4-1,0.1-0.3c-0.3,0.8-1-0.3-0.5,0.3c-2.3,1.5-4.5,3.1-6.6,4.8c-3.3,2.3-6.9,4-10.1,6.5
		c-4,1.1-5,6.7-9.2,7.6c-5.4,2-10.6,4.9-16.6,4.4c-2-2-4.3-1.6-6.8-1.1c-2.3,0.5-4.6,0.3-4.7-3.3c0-1.3,1.8-3.4-1.2-3.1
		c-2,0.1-4,0.8-6,0c-4.3-3.1-9.3-0.1-13.8-2c-6.8,0.3-13.4-0.2-18.9-5.4c12.7,5.5,25.3,1.9,38,0.7c4.4-0.4,8.9,0.4,13.2-1.6
		c2.9-1.5,5.9-2.7,9-3.6c-3-0.3-5.5,3.6-9,2.3c-8.1-1.5-16.1,3.1-24.2,0c-3.9,2.1-7.9,0.3-11.7-0.1c-8.2-1-16.7-1.6-24.2-6.3
		c-2.7-1.1-5.2-2.7-7.4-4.6"/>
	<path id="Trazado_19080" class="st0" d="M382.8,280.6c0.2,4-2.4,6.9-3.9,10.3c-1.3,2.9-2.5,0.5-3.6-0.2c-4.5,0.2-8.5-0.3-7.9-6.4
		c1.2-1.1,3-1.5,4.6-1c2.2,0.8,4.6,1.8,3.2-2.3c-0.6-2-1.7-3.7-2.5-5.6c-0.7-2.4-1.7-4.7-1.6-7.3c0-1.3,0.3-2.6,1.1-3.6
		c4.4-1.3,3.8,3.1,5.6,4.8C381.8,272,379.6,277.5,382.8,280.6z"/>
	<path id="Trazado_19081" class="st0" d="M373.9,265.8l-0.2,4.1c-1.2,0.2-2.3-0.3-3-1.2c-0.7-0.9-1.3-1.9-1.8-2.9
		c-2-4.2-4.6-8-7.7-11.5c-3-3.9-6.6-7.2-10.7-10c-1.9-1.2-3.8-2.6-4-5.1c-0.1-1.3,0.6-2.5,1.9-2.9c7.6,2.5,12.8,7.8,16.8,14.5l2.5,5
		c2.7,2,4.1,5.1,6.3,7.6l0,0c0.7,0.6,0.7,1.7,0.1,2.4C374,265.8,373.9,265.8,373.9,265.8z"/>
	<path id="Trazado_19082" class="st0" d="M368.8,241.4c-0.5,3-1.7,1.2-2.8,0.4c-3.6-2.7-6.9-5.7-11.7-6.3c-2-0.3-4-1-5.7,0.9l-1,0.6
		c-1.6,0.4-3,0.1-3.2-1.8c-0.2-1.5,1-2.3,2.3-2.4c4.3-0.2,8.7-0.8,12.9,0.7c1.8,0.6,3.4,1.6,5.3,0.4l12.3,3.8l-4.7,2.5
		c-2.5,2.1-3.5-1.4-5.4-1.4c-0.6-0.5-0.4,0.7,0,0c0.1-0.2,0.3-0.1,0.6,0.1C368.6,239.6,369.5,240.2,368.8,241.4z"/>
	<path id="Trazado_19083" class="st0" d="M401.3,276.6c-3,3.6-2.8,8.1-3.8,12.3c-0.7,2.7-0.7,5.8-5.4,7.6c2.6-8.8,5.2-16.7,4.1-25
		c2.9,0.1,1.9-3.3,4.1-4.5C402,270.2,401,273.5,401.3,276.6z"/>
	<path id="Trazado_19084" class="st0" d="M326.4,236.5c1.7-2.1,2.5-4.9,5-6.3c0.9,1.2,2.3,0.5,3.2,0.9c8.4,3.5,17.4-2.5,25.7,1.6
		c-1.7,1.1-3.7,0.7-5.5,0.6c-4.9-0.4-9.5,0.3-13.5,3.4c-0.5,0.3-1.1,0.5-1.8,0.7c-1.6,0-3.2,0.4-4.6,1.2
		C331.8,240.8,328.6,240.4,326.4,236.5z"/>
	<path id="Trazado_19085" class="st0" d="M365.2,251.1c-5.9-4.1-10.1-10.2-16.4-13.8c-0.4-0.3-0.6-0.6-0.4-0.8
		c0.1-0.3,0.3-0.4,0.4-0.4v0c3.8,0.1,6.9,2,10.1,3.8c1.5,2.3,3.7,4.1,6.3,5c2.9,2.3,4.7,5.3,6.4,9.8
		C368.9,252.9,367.8,250.4,365.2,251.1z"/>
	<path id="Trazado_19086" class="st0" d="M349.5,236.4c0,0.4,0,0.8,0,1.3c-0.9,0.7-1.4,1.7-1.4,2.9c-2.9,1.3-5.2-0.2-7.5-1.7
		c-0.7-0.6-1.1-1.4-1.2-2.4c1.2-3.9,4.7-3.6,7.7-3.8c4.1-0.3,8.3-0.1,12.5-0.1l6.3,1.3c-4.4,2.7-8.7-1.3-13.1-0.1
		c-1.4,0.2-2.9,0.2-4.3,0.1c-0.9,0.1-2.4,0.1-1.7,1.6C347.1,236.2,348.5,236.2,349.5,236.4z"/>
	<path id="Trazado_19087" class="st0" d="M360,214.8c1-0.1,2,0.4,2.5,1.3c-9.9,0-17.2,6.1-25.1,10.8c-1.2,0.7-2.3,1.8-3.9,1.8
		c4.8-5.8,11.2-9.1,17.6-12.6C353.6,212.4,356.7,213,360,214.8z"/>
	<path id="Trazado_19088" class="st0" d="M377.4,244.5c4.2,1,6.3,4.1,8.6,8.7c-4.6-1.8-9-1.7-11.1-6.2
		C375.4,245.9,378.2,247,377.4,244.5z"/>
	<path id="Trazado_19089" class="st0" d="M378.1,244.9c1.3,3-0.9,2.4-2.5,2.5c-1.7-2.9-4.4-5.1-7.5-6.3c-0.6-1-1.1-2-2.1-3.6
		l5.9,2.4L378.1,244.9z"/>
	<path id="Trazado_19090" class="st0" d="M379.9,294.9c0.8-2.7,3.5-4.5,3.8-7.5l1.3,1.3c-0.9,3.1-1.2,6.4-3.8,8.8
		C379,297.5,379.1,296.4,379.9,294.9z"/>
	<path id="Trazado_19091" class="st0" d="M365.2,244.9c-2.6,1.3-4.5-0.2-6.3-5C361.4,241,363.9,242.2,365.2,244.9z"/>
	<path id="Trazado_19092" class="st0" d="M373.3,262.8c-2.9-1.7-5.1-4.4-6.3-7.6C371.2,256.1,372.2,259.5,373.3,262.8z"/>
	<path id="Trazado_19093" class="st0" d="M372.9,264.9v-2.5c2.8,1.8,5.3,3.7,5,7.5L372.9,264.9z"/>
	<path id="Trazado_19094" class="st0" d="M391.6,340.2c-0.2-5.3,3.4-9.2,5-13.8c1.4-0.6,2.5-0.9,2.5,1.3c-1.5,4.1-3.4,8.1-3.8,12.6
		C394.1,342.3,392.8,343.4,391.6,340.2z"/>
	<path id="Trazado_19095" class="st0" d="M340.1,395.5c3.4-2,4.4-6.8,8.8-7.6c3.2-0.6,7-2.1,7,3.5c1.2,0.4,2.4,0.8,3.6,1.2
		c6-0.5,8.8-5.5,12.9-8.8c1.6-1.6,3.1-3.3,4.4-5.2c1.9-2.5,3.6-5,5.4-7.6c1.1-1.3,2.4-2.5,3.7-3.6c4.2-2.2,4-8.4,9.1-9.9
		c0.1,0,0.4,0.2,0.5,0.3c0.3,0.3,0.3,0.6,0,1c-1.2,6.4-6.3,10.7-8.8,16.4c-3.7,7.6-10,12.8-16.5,17.7c-3,1.8-5,5-8.5,6.2
		c-2,0.5-4,0.7-6,0.6c-1-0.5-2-1-2.9-1.5c-6,0.4-11.6,3.3-17.7,3.2c-0.5-0.2-1-0.5-1.4-0.9C333.9,396.6,338.3,397.7,340.1,395.5z"/>
	<path id="Trazado_19096" class="st0" d="M391.6,359c-4.7,1.8-4.1,8.2-8.8,10.1c-2.2-1.7,2.2-4.8-1.2-6.3l3.8-10.1
		c2.1-0.3,2.1,2.3,3.9,2.9l2.5-5.5c2,0.9,0.4,2.8,1.7,3.8c2.8-3.3,2.6-8.2,5.7-11.3C400.7,350.7,398.3,355.9,391.6,359z"/>
	<path id="Trazado_19097" class="st0" d="M361.8,398l7.6-6.3c1.7,1.2,3.3-1.5,5,0c3.6,2.5,4.5-3.4,7.5-2.5c0.4-0.5,0.8-0.6,1.3,0
		c-0.6,2.2-3.8,2.4-3.8,5c-4.1,2.8-8.5,5.2-12.4,8.3c-1.4,0.8-2.8,1.4-4.2,2c-1.6,0.2-3.3,0.6-4.9,1.1c-2.1,0.8-5,2.3-6-0.4
		c-1-2.6,2.5-3.2,4.2-4.5C358,399.5,360.2,399.3,361.8,398z"/>
	<path id="Trazado_19098" class="st0" d="M373.7,391.8c-1.7,0.7-3.3,2.2-5,0c7-4.3,12.4-10.2,17.6-16.4c2.2,4-2.1,5.3-3.5,7.4
		C380.5,386.2,376.8,388.8,373.7,391.8z"/>
	<path id="Trazado_19099" class="st0" d="M406.7,341.2l3.8-13.8c5,2,1.7,6.1,1.2,8.3c-1.1,4.6-4,8.8-6.2,13.1
		C405.8,346.2,406.2,343.7,406.7,341.2z"/>
	<path id="Trazado_19100" class="st0" d="M382.1,389.2h-1.3c3.1-2.8,4.2-7.5,8.8-8.8c0.7,2.5-1.9,3.2-2.5,5L382.1,389.2z"/>
	<path id="Trazado_19101" class="st0" d="M386.9,385.5c-0.1-2.1,1.8-3.3,2.5-5l1.3-1.3c0.4,0,0.8,0,1.3,0
		C391.6,382.3,389.2,383.9,386.9,385.5z"/>
	<path id="Trazado_19102" class="st0" d="M393.9,339.5c1.3,1.9,2.5,0.4,3.8,0c1.2,2.3,3.9,4.5-1.9,5.1c-2.6,0.2-2,5.7-4.5,8.9
		c-0.2-2.7,0.1-4.8-1.2-6.5C391,344.4,390.9,341.2,393.9,339.5z"/>
	<path id="Trazado_19103" class="st0" d="M274.3,338.2c-3.9-1.2-5.6-4.5-7.5-7.5c-1.1-1.8-2.6-3.3-3.8-5l-1.3-2.5
		c1.2-4.4-0.4-8.4-1.3-12.6c-2.3-4.6-1.8-9.6-1.1-14.2c1.6-10.2,3.8-20.2,6.7-30.1c0.9-3.3,4.6-5.8,7-8.6c1.6-1.6,2.1-4.6,5.4-3.6
		c1.4,3.8-1.8,6.2-3,9.2c-2.1,4-3.8,8.3-5.8,12.4c-2.7,5.6-0.2,11.6,2.5,16.7c2,3.9,3,7.6,1.9,11.8c0.1,0.4,0.1,0.8,0,1.2
		c-0.6,3.9,0.7,9.8,2.9,13.8c0.9,1.6,0.8,3.6,1.6,5.4c0,1,0.9,1.8,1.9,1.9c2.6,1.4,4.5,3.8,5,6.7c0.1,0.9-0.2,1.9-0.8,2.6
		c-1.5,0.9-3,0.4-4.6-0.1c-3.7-1.6-6.5-4.9-7.5-8.8c-0.1-1-0.6-1.9-1.2-2.6c-0.2,5.1,4.2,7.6,6.1,11.4c0.1,0.6,0.1,1.2-0.1,1.8
		C276.6,338.9,275.6,339.3,274.3,338.2z"/>
	<path id="Trazado_19104" class="st0" d="M266.6,208.4c0.7-0.6,1.7-0.5,2.3,0.1l0,0c1,1,0.3,2-0.4,2.7c-1.6,1.6-3.1,3.1-4.7,4.7
		c4.8-4.6,9.5-9.4,15-13.3c7.8-4.2,16.2-7.2,23.2-13c16.1-7.9,32.4-13.4,50.3-6.3c0.6,0.5-2.7,0.7-0.1,1.6c2.3,0.8,5.2,1.2,5.1,4.7
		c-1.3,0.8-0.2,1.7,0,2.5c-0.3,0.2-0.5,0.4-0.8,0.6c-5.5,1.1-10.6-1.8-16-1.3c-10.9,0-22-1-32.3,4c-2.4,0.8-4.8,1.7-7.1,2.7
		c-12,4-21.7,12-32.2,18.5c-2.9,2.7-6.5,4.6-8.5,8.2c-0.4,0.9-0.6,2.5-1.2,2.7"/>
	<path id="Trazado_19105" class="st0" d="M257.9,250.3c3.5-3.5,8.4-6.3,6.3-12.6c5.9-7.5,13.2-13.8,21.5-18.5
		c2.3-1.2,3.8-1.7,4.6,1.3c0.2,2-1.8,3.2-1.8,5.1c-0.4,1.7-2.1,1.3-3.2,2.1c-0.7,0.4-1.3,0.9-2,1.4c0.9-0.7,1.9-1.3,2.9-1.8
		c3.3,5.5-2.5,6.2-4.6,8.8c-4.8,4.2-8.7,9.2-11.6,14.8c-4.4,5.6-5.6,13.1-10.9,18.2l-1.3-1.3c-1.6-3.7,1.5-6,2.3-8.6"/>
	<path id="Trazado_19106" class="st0" d="M294.4,404.3h-6.3c-6.3,3.6-12.6,2.3-18.9,0l-12-5.8l0.2-1.5c14.5,0.2,29,1.8,44.3,0.6
		c-2.5-3.2-5.2-1-7.2-2.8c4.5-1.6,9.5,1,13.7-1.8c1.1-0.9,2.6-0.9,3.8,0c2-0.5,4-0.9,6-1.2c1.7-0.1,4.1-0.9,4.9,1.3
		c0.9,2.6-2.6,2-3.3,3.6C311.7,400.9,303.1,402.9,294.4,404.3z"/>
	<path id="Trazado_19107" class="st0" d="M305.7,217.9c-4.6,8.7-9.1,17.4-13.7,26c-2,3.8-7.8,5.2-10.9,2.5c-2.9-2.6-3.2,0.4-4.3,1.7
		c0.1,5.4-5.1,6.6-7.7,9.8c-0.6,0.6-1.6,0.7-2.3,0.1c-0.6-0.6-0.8-1.5-0.4-2.2c0.8-1.9,1.9-3.7,3.3-5.2c2.4-6,7.4-9.9,11.7-14.4
		c4.9-2.8,7.2-7.4,8.4-12.7c3.7-3.8,9.3-3.9,13.5-7C304.2,215.9,305.3,216.9,305.7,217.9z"/>
	<path id="Trazado_19108" class="st0" d="M264.8,353.3c1.3,0.7,2.9,1.6,3.9,0c1.1-1.7-0.7-2.4-1.8-3.4c-3.2-3-8.1-3.3-10.2-7.9
		l17.6,9.8c3.3-2.1,6.5-0.1,9.6,0.5c4.3,0.7,8.6,0.8,12.9,0.4c5.7-0.5,11.7-1.8,16.5,3l4.2,2.5c-4.2,0.1-7.9,1.5-12.2-0.3
		c-5.4-2.3-11.8-1.7-17.3-0.6c-8.2,1.6-15.9,2.3-23.4-0.8"/>
	<path id="Trazado_19109" class="st0" d="M313.3,355.8c-12.9-2.6-26.3,0.3-39-3.8c1.3-2.7,3.3-2.2,5.8-1.7c4.7,0.9,9.5,2.7,14.6,1.3
		c-0.5-0.8-0.7-1.4-0.9-1.4c-8.1,1-13.3-5.5-20-7.8c-1.5-0.5-4.6-0.2-3.4-3.1c1.3-3.2,3.4-0.5,5.1,0c0.4,0.1,0.8,0.2,1.2,0.2
		c5-1.2,8.5,2.7,12.9,3.6c0.6,0.1,1.2,0.3,1.7,0.5c7.2,2.5,15,2.4,22,5.6c0.6,0.2,1.1,0.4,1.7,0.6c1.9,1.6,5.6,1,5.7,4.7
		C318.8,357.8,315.5,353.4,313.3,355.8z"/>
	<path id="Trazado_19110" class="st0" d="M302.4,219.5l-15.1,6.3c-0.7,0.7-1.1,2-2.5,1.3c-3.6-2.6,1.7-2.2,1.3-3.8
		c1.3-2.5,4-3.5,6-5.1c5-2.2,9.5-5.3,13.2-9.3c8.6-8.6,20.1-11.4,31.3-14.6c1.3-0.1,2.6,0.4,3.6,1.4h4.8c-4.2,3.5-9.5,2.6-12.3,6.3
		c-5.2,5.1-11.2,9.3-17.6,12.6c-3.8-1.2-0.5-2.4,0.1-3.2c1.9-2.2,5.3-3,7.2-7.6C314.8,209.6,307.4,212.9,302.4,219.5z"/>
	<path id="Trazado_19111" class="st0" d="M316.4,244.2c3.6-4,5.9,0.5,8.8,1.2c0.2,3.2-0.1,6.3-3.5,7.9c-0.3,0.4-0.9-0.3-1.2,0.4
		c0.7-0.1,1.4-0.1,2.1-0.1c1.8-0.4,5.1,3,5-2.5c-0.1-2,2.6-2.1,4.2-0.3c1.3,2.9,4.5,2.9,6.8,4.3c2.4,0.9,4.5,2.4,6.2,4.4
		c1.3,1.4,2.7,2.8,4.1,4.2c1.3,1.6,2.9,3,2.1,5.4c-0.3,0.5-0.9,0.8-1.4,0.9c-7-1.2-12.1-6.9-19.1-8.4c-2-0.4-3.9-1.4-6-1.6
		c-1.3-0.1-2.7,0-4,0.3c-0.8,0.1-1.6,0.1-2.4-0.1c-1.7-0.6-3.8-0.2-5.2-1.7c-2.9-4.9-1.5-8.6,3.1-11.3c0.6-0.6,0.4-1.2,0-1.8
		C315.9,245,316,244.5,316.4,244.2z"/>
	<path id="Trazado_19112" class="st0" d="M266.7,224.2c6.2-2.6,9.8-8.4,16.2-11.4c-2.3-1.4-3.5,0.4-4.9,0l0,0
		c-0.3-1.5,3.5-1.6,1.3-3.8c-0.7-2,0.7-2.6,2.1-3.2c4.3-0.5,8.4-2.1,11.9-4.7c4.2-1.4,8.1-4.1,12.9-2.3c0.8,1.1,1.1,2.5,0.8,3.8
		c-0.8,2.6-3.3,2.9-5.3,3.8c-16,6.4-28.8,17-40.3,29.6"/>
	<path id="Trazado_19113" class="st0" d="M281.2,193.5c2-1.7,4.1-3.6,6.9-3.9c-0.6,3.8-5.3,4.1-6.3,7.6c0.8,2.4-1.8,2.4-2.5,3.8
		c-5.7,6.4-13.5,10.4-18.9,17.1l-1.2-1.1l9.4-9.9"/>
	<path id="Trazado_19114" class="st0" d="M274.3,265.3c0.3-3.3,3.8-5.3,3.8-8.8c-0.7-1.4,0.3-2,1.3-2.5c7.7,3,15.1,0.1,22.6-1.3
		c2.1-0.4,4.3-0.9,3.9,2.5c-1.1,1.7-3.1,1.7-4.6,2.5c-5.2,1.4-8.9,5.9-14.1,7.1c-3.8-1.2-6.3,1-9,3.1c-1.1,0.9-2.5,2.1-3.9,0.7
		C273.2,267.7,273.5,266.4,274.3,265.3z"/>
	<path id="Trazado_19115" class="st0" d="M257.8,362.8c9,5.2,19,7.3,28.9,8.4c7.4,0.8,14.7,0.9,21.5,4.1c-5.3,2.1-10.5,4.8-15.9,0.2
		c-1-0.8-2.8-0.7-4.2-0.8"/>
	<path id="Trazado_19116" class="st0" d="M270.5,248.7c-1,2.1-3.3,3.6-3.2,7.1c3.6-2.7,6.8-6,9.5-9.6c1.9,1.9,1.7,4-0.1,5.4
		c-11,8.3-15,20.6-18.9,33c-0.2,0.6-0.4,1.2-1.3,1c-1.1-6.3,2.8-11.9,2.8-18c2.7-6.7,5-13.5,10.1-18.9
		C269.7,248.1,270.1,248.1,270.5,248.7z"/>
	<path id="Trazado_19117" class="st0" d="M260.4,235.2c11.2-13.1,23.7-24.3,40.3-30.2c2.9-1.4,3.2-0.1,2.4,2.4
		c-0.4,0.8-1,1.4-1.8,1.8c-0.9,0.7-2.2,0-3.1,0.8c-13.6,6.6-26,15.5-36.5,26.4C260.5,236.8,260,236.5,260.4,235.2z"/>
	<path id="Trazado_19118" class="st0" d="M337.6,209.4l9.2-5.7c-6.6-1.8-11.7,1-16.6,3.8c-2.3,1.3-4,3.1-6.5,0.7
		c0.6-1.9,1.4-3.3,3.8-2.5c3.3-0.1,4.8-3.1,7.4-4.4c7.9-3.7,15.6-0.9,23.3,0.4c2.8,0.5,5.5,1.3,8.1,2.4c-10.4,0.4-19.5,1.7-27.5,6.6
		C338.4,210.2,337.6,210.1,337.6,209.4z"/>
	<path id="Trazado_19119" class="st0" d="M300.7,256.2c1.3-1.8,3.3-1.1,5-1.3h2.5c2.5,1.2,4.8,2.6,3.3,6c-0.3,0.5-0.7,0.9-1.2,1.2
		c-4.5,1.8-9.5,2.8-12.5,7.2c-3.9,1.3-7.9,2.4-10.5,6c-0.7,0.9-2,1.7-3.2,0.5c-0.9-1-1-2.4-0.4-3.5c1.1-2.7,3.9-4.3,5-7.1
		c3.6-3.5,6.9-7.4,12.4-8c0.8-0.1,1.2-0.7,0.4-0.5C301.3,257,300.9,256.6,300.7,256.2z"/>
	<path id="Trazado_19120" class="st0" d="M325.2,365.2l-1.3-1.3c-1.9-1.6-4.6,1.2-6.3-1.3l-2.9-3.7c6.9,0.5,13.6,3.4,20.2-1.4
		l-4.7-2.5c0.2-0.2,0.5-0.5,0.7-0.7c4.5-2,8.9-0.1,13.3,0.6c1.7,0.3,3.7,1.9,1.8,3.3c-2.9,2.3-3.8,7.1-8.5,7.2
		C333.4,365,329.2,367.6,325.2,365.2z"/>
	<path id="Trazado_19121" class="st0" d="M386.3,192.2l12.8,9.3c-4.1,0.4-6.1-2.4-10.3-2.7c4.4,4.3,9.1,6.8,12.6,12.8
		c-6.9-3.6-11-8.5-16.2-11.9c-4-2.6-6.7-5.1-5.2-10.1l0,0C382.5,189.5,384.2,191.3,386.3,192.2z"/>
	<path id="Trazado_19122" class="st0" d="M298.2,209.8c0.5-0.9,1.5-1.3,2.5-1.3c3.6,2.2,1.9,4.4-0.1,6.4c-1.4,1.5-3.9,1.6-4.9,3.6
		c-1.1,2.9-4.3,2.4-6.3,3.8c-0.4-2.7-1.5-2-3.4-1.1c-8.6,4.2-14.6,11.6-21.8,17.5c4.1-8.2,11.3-13.1,18.6-18c3.8-2.6,8.1-4.4,12-6.8
		C296.4,213,299.2,212.9,298.2,209.8z"/>
	<path id="Trazado_19123" class="st0" d="M327.4,236.2c3.1,1.2,6.1,3.7,9.2-0.5c0.9-1.3,2.7-0.7,3.6,0.9c1.2,3.3-1.3,7.2,1.5,10.3
		c-1.3,2.6-3.5,1.8-5.6,1.4c-0.6-0.1-1.2-0.1-1.9-0.2c-1.6,0-3.1-0.6-4.2-1.8c0-0.8,0-1.7,0-2.5c-0.8-1.4-1.6-0.8-2.5,0
		C323.6,241.2,323.7,238.7,327.4,236.2z"/>
	<path id="Trazado_19124" class="st0" d="M346.5,183.4c4.7,0.8,9.4,1.6,14.1,2.3c5.8,0.9,10.1,3.1,9.8,10.3c-3.4-0.8-6.9-0.5-10-2.5
		c-1.7-4.2-6.2-3.5-9.2-5.4C349.2,187,345.9,187.1,346.5,183.4z"/>
	<path id="Trazado_19125" class="st0" d="M330.2,245.7h5c1.2,2.5,4.8,4.6,1.3,8c-2,0.5-3.5-0.7-5.1-1.7c-0.7-0.9-1.9-1.6-2.6-0.8
		c-1.9,2.3,1.3,2.8,2.2,4.7c-3.2,0.2-6,1-8.5-1.4c-0.4-0.4-1.2-0.5-1.3-1.3c3.1-1.6,0.7-5.9,3.8-7.6
		C326.8,245.6,328.5,244.6,330.2,245.7z"/>
	<path id="Trazado_19126" class="st0" d="M319.6,360.3c2.1,0.3,4.5-0.8,6.3,1.3c-10,3.2-20.3,5.4-30.7,6.5
		C303.1,364.7,310.7,360.5,319.6,360.3z"/>
	<path id="Trazado_19127" class="st0" d="M358.1,215.1c-3,0.1-6.1-0.4-8.8,1.3c-2-3.9,1.3-3.2,3.2-3.8c8.8-2.7,18-3.1,27-1.2l0,0
		c1.4,0.7,2.9,1.4,4.3,2.2c1.9,1.1,0.5,1.3-0.5,1.6c-6-0.7-11.6-3.2-17.8-2.6C362.7,212.8,360,212.8,358.1,215.1z"/>
	<path id="Trazado_19128" class="st0" d="M281.8,207l-2.5,2.5l-10.1,5c-1.2,0.4-1.6-0.1-1.3-1.3c8.3-6.3,16.8-12.4,26.2-16.9
		c2.1-1,4.1-2.2,6.5-2c0.3,0.5,0.5,1.1,0.3,1.6c-0.4,0.8-0.9,1.4-1.6,1.9c-2.6,1.6-5.2,3.1-8,4.3C288.1,203.6,285.4,206.1,281.8,207
		z"/>
	<path id="Trazado_19129" class="st0" d="M306.6,262c2-3.2-3.6-3.4-2.5-6.3c5,0.6,6.1-4.3,9.2-6.4c1.8-1.2,3.1-3.2,4.6-4.9
		c0,0.4,0,0.8,0,1.3c1,0.6,2,1.1,1.3,2.5c-5.3,1.8-5,5.8-3.8,10.1C313.7,262.4,310.1,262,306.6,262z"/>
	<path id="Trazado_19130" class="st0" d="M264.2,376.6c12.7,6.1,26.6,6.2,40.3,7.6c-4.3,4.1-9.5,1.3-14,0.9
		c-9.5-0.8-19-2.6-27.6-7.2C262.7,376.8,262.9,376.2,264.2,376.6z"/>
	<path id="Trazado_19131" class="st0" d="M326.4,367.8c-5.8,3.7-12.2,5.4-18.9,6.3c-1.5-2-2.6-4,1.1-4.8c3.8-0.9,7.6-1.8,11.5-2.7
		C322.1,367.4,325,364.1,326.4,367.8z"/>
	<path id="Trazado_19132" class="st0" d="M347.2,183.4c3.9,4,9.6,4.2,14.2,6.6c1,0.5,2.8,0.6,2.2,2.2c-0.2,0.6-1.7,0.8-2.6,1.2l0,0
		c-2.5-2.3-5.9-2.5-8.8-3.8h-2.5c-3.2-3.3-7.5-3.9-13.2-4.1c3.3-3,5.9-1.8,8.1-2.2L347.2,183.4z"/>
	<path id="Trazado_19133" class="st0" d="M279.3,201.2c-0.1-1.9,1.7-2.5,2.5-3.8c6.9-3,12.8-8,20.1-10.1c-0.5,4.6-4.7,4.9-7.7,6.5
		C289.4,196.4,284.3,198.8,279.3,201.2z"/>
	<path id="Trazado_19134" class="st0" d="M329.7,205.4l-3.8,2.5l-14.3,10.4c-0.9-2,1.6-2.6,1.8-4.1c5.4-4.8,10.7-9.8,17.6-12.6
		C332.5,203.5,329.7,204,329.7,205.4z"/>
	<path id="Trazado_19135" class="st0" d="M334.1,214.7c4.2,1.3,1.4,3.2,0.1,4.2c-5.4,3.9-10.2,8.6-14.2,13.8
		c2.1-6.9,7.4-11.5,11.6-16.8C331.5,213.6,332.6,213.9,334.1,214.7z"/>
	<path id="Trazado_19136" class="st0" d="M257,248.8c0.1-0.1,0.6,0.4,0.9,0.7"/>
	<path id="Trazado_19137" class="st0" d="M257.9,371.6c1.1,2.9,4.7,2.7,6.3,5l-1.3,1.3"/>
	<path id="Trazado_19138" class="st0" d="M266.7,223.3"/>
	<path id="Trazado_19139" class="st0" d="M289.4,345c-4.6-0.7-8.5-3-12.6-5l-2.5-3.8c1,0.1,2-0.4,2.5-1.3c2-0.9,3.1,0.7,4.5,1.6
		c1.3,1.5,3.3,1.9,5.1,2.5C287.9,340.7,293.2,340.6,289.4,345z"/>
	<path id="Trazado_19140" class="st0" d="M333.8,215.1c-1-0.1-2,0.4-2.5,1.3c-3.4-0.1-5.4,3.6-9.1,3c5.2-4,10.5-7.9,16.6-10.6
		l1.3,1.3C338,211.8,335.2,212.5,333.8,215.1z"/>
	<path id="Trazado_19141" class="st0" d="M279.5,363.3c8.3-0.2,16.6,0.9,24.8-1.4C296.2,365.2,288,366.8,279.5,363.3z"/>
	<path id="Trazado_19142" class="st0" d="M325.3,367.8c-1.7-2.2-4.5,0.9-6.3-1.2c2.1-1.2,4.6-1.8,6.3-3.8c4.2-0.6,8.3-1.7,12.6-1.3
		c-0.5,5.4-5.4,1.7-7.5,3.8C329.1,367.2,325.7,364.5,325.3,367.8z"/>
	<path id="Trazado_19143" class="st0" d="M316,354.4c-1.7-2-4.9-1.4-6.3-3.8c1-1,2.5-1.5,4-1.2c5.8,1.3,12.1,0,17.5,3.3
		c0.7,0.9,0.7,2.1,0,3C326,356,321.1,353.6,316,354.4z"/>
	<path id="Trazado_19144" class="st0" d="M260.4,309.9c3.8,3.9,4.4,8,1.3,12.6C261.5,318.2,254.6,314.7,260.4,309.9z"/>
	<path id="Trazado_19145" class="st0" d="M349.9,192.2c2.8,0.4,4.6,2.3,7.3,4.4c-5.7,1.4-11.6,1.6-17.4,0.7c-0.5-1.6,0.7-2,1.7-2.5
		C344.2,193.4,347.7,194.9,349.9,192.2L349.9,192.2z"/>
	<path id="Trazado_19146" class="st0" d="M260.4,234l1.3,1.3"/>
	<path id="Trazado_19147" class="st0" d="M343.4,196c-1-0.1-2,0.4-2.5,1.3c-1.4,0-2.9-0.1-3.8,1.3h-3.8c-1-0.9-2.5-1.2-3-2.8
		c0-0.6,0.1-1.1,0.5-1.6c0.7-0.5,1.5-0.8,2.3-1c2.1,0.2,3.5-1.2,5.2-2C341,191.9,344.6,191.4,343.4,196z"/>
	<path id="Trazado_19148" class="st0" d="M379.1,211.6c-3-4.5-8.2-4-12.9-5.9c4.9-1,10-0.2,14.4,2.2c0.9,0.5,2,1.1,1.7,2.3
		C381.8,211.9,380.3,211.4,379.1,211.6L379.1,211.6z"/>
	<path id="Trazado_19149" class="st0" d="M269.2,404.3c6.3,0.3,12.6,3,18.9,0c-0.2,2.1-1,3.1-3.5,2.9c-3.8-0.4-7.7-0.3-11.6-0.3
		c-1.8,0-3.7,0.2-5.4-0.9c-0.4-0.3-1.4-0.6-0.7-1.2C267.5,404.3,268.5,404.5,269.2,404.3z"/>
	<path id="Trazado_19150" class="st0" d="M262,254.9c-0.3,4.3-3.8,7.4-4,11.7"/>
	<path id="Trazado_19151" class="st0" d="M268,212.4l1.3,1.3c-2,3.6-6,4.9-8.8,7.6C261.1,216.7,265.1,215.1,268,212.4z"/>
	<path id="Trazado_19152" class="st0" d="M370.4,187.2c4.5-2.4,6.6,0.9,8.8,3.8C376.1,190.1,372.8,189.8,370.4,187.2z"/>
	<path id="Trazado_19153" class="st0" d="M325,384.2c3.6-0.5,6.5-3.3,11.1-3.1c-3.1,2.6-7,4.2-11.1,4.4C325,385,325,384.6,325,384.2
		z"/>
	<path id="Trazado_19154" class="st0" d="M308.8,393l-3.8,0c-4.2-0.6-8.6,1.3-12.6-1.3C297.9,392.5,303.6,390.3,308.8,393z"/>
	<path id="Trazado_19155" class="st0" d="M351.8,189.7c3.5-0.1,6.8,0.4,8.8,3.8C357.5,192.6,354.2,192.3,351.8,189.7z"/>
	<path id="Trazado_19156" class="st0" d="M279.3,254.1l-1.3,2.5l-5,3.8C274,257.2,275.3,254.3,279.3,254.1z"/>
	<path id="Trazado_19157" class="st0" d="M387.3,194.8c-2.6,0.5-4.3-1.4-6.3-2.5l1.3-1.3C384.1,192,386.3,192.5,387.3,194.8z"/>
	<path id="Trazado_19158" class="st0" d="M278.1,212.5c-1,2.2-3,2.9-6.1,3.7C273.3,214.1,275.6,212.7,278.1,212.5L278.1,212.5z"/>
	<path id="Trazado_19159" class="st0" d="M327.6,243.6c0.4-2.4,1.8-3.2,3.6-1.6c1.3,1.1-0.2,1.4-1.1,1.6L327.6,243.6z"/>
	<path id="Trazado_19160" class="st0" d="M263,324.4c2,1.1,3.6,2.5,3.8,5C264.7,328.3,263.1,326.9,263,324.4z"/>
	<path id="Trazado_19161" class="st0" d="M368,403.1l-1.3-1.3c3.1-4,7.6-6.7,12.6-7.5v0c0.8,1.4-0.5,1.8-1.3,2.5
		C374.1,398,372.1,402.2,368,403.1z"/>
	<path id="Trazado_19162" class="st0" d="M377.6,396.8l1.3-2.5l3.8,0C381.4,395.8,379.5,396.7,377.6,396.8z"/>
	<path id="Trazado_19163" class="st0" d="M335.9,352.7v-2.5c-0.2-2.6,1.8-2.3,3.4-2.5c2.2-0.2,4.4,0.2,6.9-0.5
		c-9.4,1.3-18.6,0.4-27.8,0.4h-3.8c-9.7-1.9-15-9.7-21.8-15.6c-1.6-1.4-2.5-5-6-2c-0.6,0.5-1.6-1.6-2.4-2.5c-1.7-2.1-2.5-4.9-5-6.3
		c-0.7-0.1-1.2-0.6-1.3-1.3c-2.4-4.5-4.7-8.9-9.4-11.6c-0.8-0.5-0.9-2.5,0.1-2.7c4.6-0.6,3-4.7,4.3-7.1c4.6,0.4,9.3,2.2,13.9-0.7
		c2.2-1.4,4.6-2.9,4-5.6c-1.3-6.9,2.8-11.8,5.9-17.1c2.5-3.1,5.8-5.5,9.5-6.9c2.6-1.1,5-1.2,5.2,2.7c0,2.6-3,3.7-3.3,6.2l-1.9,3.4
		c3.9-0.5,4.8-5.1,10.2-4.7c-12.6,6.9-10.5,18.9-12.8,29.2c-0.4,1.2,0.1,2.6,1.1,3.3c4.9,3.4,7.9,9.5,14.7,10.4c1,0.8,2.2,1.4,1.7,3
		c-0.6,1.8-2.2,1.9-3.6,1.7c-3.6-0.3-6.8-1.9-10-3.5c-4.1-2-7.7-5.1-13.2-3.8c-3.1,0.7-4.5-3.7-7-5.4c5.9,11,16.1,17.4,27.1,20.6
		c10.9,3.2,22.7,6.8,34.2,0.1c-2-1.7-4.7-0.6-7.2-1c-3.2-0.4-6.5-0.8-5.6-5.4c3.5-1.9,7.1-1,10.7-0.8c3.9,0.2,4.8-1.3,3.1-4.2
		c-0.9-1.6,1-2.4,1.1-3.7c-0.3,1.9-3.3,2.5-2.4,5c-7.6,0.8-14.9-1.5-22.2-2.7c-2.4-0.4-4.2-2.4-4.2-4.8c3.1-3.6,4.5-8.6,8.7-11.4
		c1.8-1.3,4.1-1.6,6.1-0.8c2.9,1.2,5.3,3.7,8.9,0.5c1.4-1.3,4.3,0.3,6.2,1.6c-2.6-1.9-5.7-2.1-8.6-2.8c-1.9-0.5-4.9-0.3-4.7-2.9
		c0.1-2.1,2.9-1.9,4.6-2.3c2.7-0.7,6-0.1,7.8-3.2c5.4-2.6,8.7,0.9,12.9,3.6c6.5,4.2,0.2,9.1,1.8,14.3c7-5.3,4.3-13.8,8.3-19.7
		c0.5,5.3-1.5,10.9,2.2,15.6c2,2.5-0.6,4.7-0.2,7c-0.2-5.1,4.8-9.1,2.8-14.6c2.8-4.4,7.6-6.6,11.3-10.1c-0.1,1,0.4,2,1.3,2.5
		c-0.4,1.3-1.9,2.5,0,3.8c3.6,1,3.9-1.1,3.8-3.8c1-2.7,1.8-5.5,3-8.2c0.4-1.3,1.7-2,3-1.6c0.2,0.1,0.4,0.2,0.6,0.3
		c1,0.8,1.3,2.3,0.6,3.4c-2.5,5.4-6,10.5-6.2,16.8c0,1.2-1.2,1.5-2.1,2.1c-4.7,2.6-9.9,4.8-6.6,11.9c0.4,1.2-0.3,2.4-1.4,2.8
		c-0.1,0-0.2,0.1-0.3,0.1c-8.7,2.4-4.6,8.8-4.4,13.9c0.3,4.1-4.4,5.3-5,8.8c-1.5,3.1-4.6,4.6-7.2,6.6c-1,0.8-3.6,1.2-1.6,3.5
		c0.9,2.2-0.5,3.7-1.9,4.8c-7,5.5-13.8,11.2-22.5,13.8c-2.6-0.1-1.7-2.1-2-3.5c-1.3-1.8-3.3-1.1-5-1.3c2.1-2.1,5.8-0.9,7.5-3.8
		c4.7,0.2,3.8-6,7.7-7.3L335.9,352.7z"/>
	<path id="Trazado_19164" class="st0" d="M370.8,356.5c2.1-6,7.9-9,11.7-13.5c2.5-3,5.2-5.9,7.9-8.9l1.4,1c-2,5-3.3,10.4-6.1,14.8
		c-3.5,5.4-4,12.2-9,16.9c-2,1.9-3.7,0.2-5.5,0.9c0.3-0.8,0.6-1.5,0.9-2.3c-1.3-2.8,1.6-4.7,1.3-7.2
		C372.9,357,371.6,357.2,370.8,356.5z"/>
	<path id="Trazado_19165" class="st0" d="M371.9,365.3c-1,4.8-3.1,8.6-8.8,8.8c-2.7-0.1-5,2.1-5,4.8c0,0.1,0,0.2,0,0.2
		c-3.6,2.8-6.8,7.4-11.5,0.7c-0.8-1.1-5.7,0.7-9.8,1.3c10.5-7.2,22.2-10.6,31.3-18.3C370,362.8,370.8,364.3,371.9,365.3z"/>
	<path id="Trazado_19166" class="st0" d="M335.5,366.6c0.8,0.4,2.2-2.7,2.5,0.4c0.1,0.8-2.3,0.5-1.2,2.1c2.5,1.6,4-0.6,5.8-1.7
		c1.7-1,3.3-2.6,5.2-0.4c0.1,0.3,0.2,0.5,0.3,0.8c-5.1,5.7-13,5.4-19.3,8.7c-5.1,2.7-12.9,6.3-19.9,1.8c0.2-0.4,0.4-1,0.6-1
		C319.9,377.8,327,370.4,335.5,366.6z"/>
	<path id="Trazado_19167" class="st0" d="M365.2,347.7c2.2-2,3.6-7.4,7.1-4.6c2.2,1.8-2.7,4-4.3,6.1c-6.1,8.1-13.2,15-23,18.6h0
		c-1.8-3.7,1.6-4.7,3.6-6.1C354.6,357.6,360.2,352.9,365.2,347.7z"/>
	<path id="Trazado_19168" class="st0" d="M356.6,393c-6.6-0.1,0-3-1.5-5c-1-1.2-3.3,2.4-4.8,0l11.3-6.3c0.9,0.8,1.5,1.8,2.5,2.5h2.5
		C366.4,390.7,361.3,391.6,356.6,393z"/>
	<path id="Trazado_19169" class="st0" d="M366,347.7c-1.6,5.9-7.7,7.2-11.2,11.2c-2.7,3.2-8,3.9-8.9,8.9c-2.1-1.4-3.7-0.8-5.4,0.9
		c-1.7,1.8-3.8,2.5-5.9,0.4c9.4-4.5,18.4-9.4,25.2-17.6L366,347.7z"/>
	<path id="Trazado_19170" class="st0" d="M337.7,400.6c-6.1,2.1-12.2,3.9-19.2,3.3l6.6-3.3l18.9-5C343.3,399,339,398,337.7,400.6z"
		/>
	<path id="Trazado_19171" class="st0" d="M366.6,345.1c-1.6-4.8,4.1-5.4,5-8.8c4.7-2.5,5.1-8.4,9.7-11.1
		C379.6,334.1,372,338.9,366.6,345.1z"/>
	<path id="Trazado_19172" class="st0" d="M378.3,379.2c-4.1,4.8-7.9,10-13.1,13.6c-1.7,1.2-3.2,3.5-5.8,1.5c2-4.5,5.8-6.9,10.1-8.8
		c3.6-1.5,4.4-5.6,7.5-7.6C377.8,378,377.9,378.7,378.3,379.2z"/>
	<path id="Trazado_19173" class="st0" d="M370.1,385.5c-2.3,4.1-6.7,5.8-10.1,8.8l-3.8-1.3c3.5-2.8,7.9-4.5,10.1-8.8
		C368,383.2,369.3,383.5,370.1,385.5z"/>
	<path id="Trazado_19174" class="st0" d="M370.7,365.3c-1.7,0.1-3.2-1-3.8-2.5l5-6.3c1.5-0.4,2.6-2,4.3-1.4
		c-0.1,0.9-0.3,1.8-0.5,2.6c-0.1,3.4-2.5,4.9-5,6.3C370.7,364.5,370.7,364.9,370.7,365.3z"/>
	<path id="Trazado_19175" class="st0" d="M384.7,362.8c8.6,0.5-0.8,4.5,1.2,6.3l-3.8,2.5c-0.7-0.1-1.2-0.6-1.3-1.3L384.7,362.8z"/>
	<path id="Trazado_19176" class="st0" d="M363.6,384.2c-4,2.3-2.7-0.7-2.5-2.5l7.5-5c2.8,2.3-0.5,2.6-1.3,3.8
		C365.8,381.2,364.4,382.6,363.6,384.2z"/>
	<path id="Trazado_19177" class="st0" d="M381.4,370.4l1.3,1.3l-5.1,7.5l-1.3-1.3L381.4,370.4z"/>
	<path id="Trazado_19178" class="st0" d="M367.1,380.4c0-1.4,2.8-1.9,1.3-3.8c1-1.7,2.4-3.5,4.2-1.6c1.2,1.2-0.9,2.4-1.7,3.5
		C369.9,379.7,368.5,380.4,367.1,380.4z"/>
	<path id="Trazado_19179" class="st0" d="M384.9,297c2.8,3.6-0.4,5.3-2.6,6.4c-1.5,0.7-0.8-1.6-1.1-2.6
		C382.7,300,384.1,298.6,384.9,297z"/>
	<path id="Trazado_19180" class="st0" d="M357.8,379.2c-4-2.4,1-2.6,1-4.1c1.4,0,1.7-5,4.1-1C360.8,375.3,359,377.1,357.8,379.2z"/>
	<path id="Trazado_19181" class="st0" d="M370.6,364.1l5-6.3c2.2,3.5-2.5,4.8-2.5,7.5L370.6,364.1z"/>
	<path id="Trazado_19182" class="st0" d="M257.9,371.6"/>
	<path id="Trazado_19183" class="st0" d="M382.6,333.8c0.4-2.4,1.2-3.4,2.9-3.7C385.9,332.1,384.5,332.7,382.6,333.8z"/>
	<path id="Trazado_19184" class="st0" d="M335.9,329.2c2.2,6,7.4,2.9,11.3,3.9c1.2,0.3,3.9-2,3.8,1.9c-0.1,2.7-1.5,2.4-3.2,3.3
		c-11.6,5.9-23.4,2.2-34-1c-12-3.5-22.8-11-29.5-22.7c-0.5-0.9-1.3-2,0-2.6c1.5-0.9,3.4-0.7,4.6,0.6c1.3,1.6,2.2,3.6,3.6,5.1
		c0.7,0.8,2.7,4.4,2.5-0.7c-0.1-1.9,1.3,0.1,2,0.2c6.1,1.5,10.9,5.6,16.7,7.7c1.5,0.6,3.1,1,4.8,1.1c3.5,0.1,1.3-1.9,1.1-3.2
		l7.5,2.5c1.6,2.1,4.5,2.1,6.3,3.8L335.9,329.2z"/>
	<path id="Trazado_19185" class="st0" d="M324.7,257.4c7.3,1.6,14.6,3.4,20.2,8.8c1.8,1.7,4.4,1.1,6.2,2.6c3,1.6,5.6,3.6,5,7.5
		c-2.9,0.4-4.6-1.3-6.3-3.2c-5-5.8-17.1-8.5-25.1-5.6c-8.8,2.6-16.8,7.8-26.3,8c-2.6-3.5-0.1-5.2,2.4-6.7c3-1.8,6.3-2.9,9-5.2
		c2.7-1.9,6.3-2.2,8.6-4.8h2.5C322.2,258.7,323.6,258.3,324.7,257.4z"/>
	<path id="Trazado_19187" class="st0" d="M335.2,281.2c1.3,2.9,3.2,3.5,6.3,2.6c2-0.6,4.2-2.3,7.1-0.4c-5.3,3.6-11.7,3.9-16.9,6.9
		c-2.1,1.2-4.3,1.9-6,4.2c-2.8,3.8-7.3,4.5-11.8,3.8c-1.2-0.2-0.2-1.4-0.1-2.1c-1.5-2.2,0.4-3.2,1.6-4.5c2.3-1.4,4.1-3.3,5.4-5.7
		C325.1,283,329.3,279.5,335.2,281.2z"/>
	<path id="Trazado_19188" class="st0" d="M352.4,275.5c-1.2-2.8-4.3-4.4-5-7.5l0,0c0.8-1.2,1.7-2.3,3.4-2c1.6,0.4,3,1.5,4.6,2
		c0.5,0.2,1,0.5,1.4,0.8c1.4,1.3,2.4,2.9,2.8,4.8c1.2,1.8,2.9-0.5,4.2,0.4c0.9,0.6,1.6,1.6,2,2.6c0.6,1.6,0.5,3.6,2,4.9
		c0.7,0.8,1,1.8,0.9,2.9c0.7,4.3,4,5.5,7.5,6.3c-4.2,2.4-10.6,1.2-12.4-3.2c-1.8-4.5-3.4-8.2-9-8.6
		C354,278.7,353.2,276.7,352.4,275.5z"/>
	<path id="Trazado_19189" class="st0" d="M299.7,274.5c9-2,16.7-8.3,26.4-7.6c1.8,0.4,3,1,0.6,2.5c-2.1,1.3-5,0.7-6.9,2.6
		c-3.6,3.2-7,7-12.6,6.3c-0.8-1.1-1-3.1-3.3-1.5c-3.2,2.1-6.9,3.3-9.2,6.6c-1.3,0.9-2.6,1.3-3.7,0c-1.3-1.6-0.3-3,0.7-4.3
		C294,276.8,296.2,274.4,299.7,274.5z"/>
	<path id="Trazado_19190" class="st0" d="M335.2,281.5c-5.3,0.6-9.6,3.3-13.8,6.3c-1.2,1.2-2.4,2.6-4.2,2.9
		c-0.3-0.1-0.5-0.2-0.8-0.4v-2.5c2.1-5,6.3-6.9,11.3-7.5c5.7,0.1,10.7-4.8,18.2-3C341.7,279.9,337.7,278.9,335.2,281.5z"/>
	<path id="Trazado_19191" class="st0" d="M306.6,278.1c4.5-1.5,7.8-5.5,12.6-6.3c0.9,0.4,4.9-0.7,1.1,2c-5.3,3.7-10.8,7.1-16.2,10.6
		C301.4,280.9,306.4,280.5,306.6,278.1z"/>
	<path id="Trazado_19192" class="st0" d="M328.6,280.2c-4.2,1.9-7.6,4.9-11.3,7.5c-3.3-0.6-5,2.4-7.8,3.7
		C311.2,285.8,323.3,278.9,328.6,280.2z"/>
	<path id="Trazado_19193" class="st0" d="M369.7,303.7c2-0.8,3-0.1,2.4,1.9c-1.6,5.4-3.4,10.7-5.2,16c-0.3,1-1.2,2.1-2.3,1.6
		c-1.6-0.7-1-2.1-0.3-3.1c2-2.6,1.9-5.9,2.9-8.8C368.3,308.8,370,306.6,369.7,303.7z"/>
	<path id="Trazado_19194" class="st0" d="M325.9,308.8c-1.7,2.8-4.5,4.9-5.1,8.4c-0.4,2.2-1.8,2.6-3.7,1.6c-2.7-3.4-0.2-6,1.3-8.8
		C320.8,309.3,323,307.4,325.9,308.8z"/>
	<path id="Trazado_19195" class="st0" d="M325.5,309.1c-2.6,0-4.8,2.5-7.6,1.2c0.6-1.6,2.1-2.6,3.8-2.5c3.4-0.4,6.1-3.2,9.8-2.5
		c3.3,0.6,0.3,1.7,0.2,2.5C329.6,307.6,327.4,308.1,325.5,309.1z"/>
	<path id="Trazado_19196" class="st0" d="M341.6,326c-1.3-4.2,2.6-6.1,4.1-10.5c1.4,4.9-1.7,6.8-2.8,9.3L341.6,326z"/>
	<path id="Trazado_19197" class="st0" d="M328,329.4c-2.8-0.2-5.5-0.3-6.3-3.8C324,326.5,327.2,326,328,329.4z"/>
	<path id="Trazado_19198" class="st0" d="M317.4,292.4c-1.6,0.6-2.6,2.1-2.5,3.8c-2.1-2.3-1.8-3,2.5-6.3c0.7,0.6,0.8,1.7,0.1,2.4
		C317.5,292.3,317.4,292.3,317.4,292.4z"/>
	<path id="Trazado_19199" class="st0" d="M368.2,284.3l-1.4-2.5c-0.6-0.7-1-1.5-1-2.5c-0.1-1.2,0.4-2.4,1.4-3
		c2.1-0.8,3.7,0.7,5.5,1.1c1.3,0.6,2.1,1.9,2.3,3.2c0.2,1.4-0.5,2.9-1.8,3.6L368.2,284.3z"/>
	<path id="Trazado_19200" class="st0" d="M374.4,280.9l-2.5-2.5c-1.1-0.4-1.9-1.4-2-2.5c0.2-1.9,0-3.9-0.4-5.8
		c-0.2-1.2,0.3-2.4,1.2-3.1c0.8,0.6,1.5,1.1,2.3,1.7c0.5,2.4,1,4.7,1.5,7.1c0.7,1.4,0.9,3,0.5,4.5L374.4,280.9z"/>
	<path id="Trazado_19201" class="st0" d="M372.9,284.1l1.2-3.7l0-0.1c0.9-0.8,1.8-0.1,2.6,0c1.6,2,2.1,4.3,0,5.8
		C375.1,287.3,373.2,286.6,372.9,284.1z"/>
	<path id="Trazado_19202" class="st0" d="M376.8,280.5c-0.9,1.4-1.7,0.3-2.6,0c0-1.7,0.1-3.4,0.1-5.1
		C375.6,276.8,376.5,278.6,376.8,280.5z"/>
	<path id="Trazado_19203" class="st0" d="M340.5,237l7.5,2.8c5.6,3.9,11.2,7.9,15.1,13.7c0.7,3.9,4.4,6.4,4.6,10.5
		c-1.5,1.5,2.7,3.8-0.7,5c-0.6,0.1-1.2,0-1.7-0.2c-6.7-5-11.9-11.5-17.5-17.5c-1.8-2.9-4.7-4.6-7.1-6.8
		C338.1,242.2,337.1,239.6,340.5,237z"/>
	<path id="Trazado_19204" class="st0" d="M366.1,264.1c-0.2-4.1-5.7-6.3-3.8-11.1c3.5,3.3,6.2,7.5,7.7,12.2c0.4,0.5,0.4,1.1,0.1,1.6
		C367.8,267.3,367.1,265.5,366.1,264.1z"/>
	<path id="Trazado_19205" class="st0" d="M369.6,266.1c0.1-0.5,0.1-1,0.2-1.5l1.2,2.6c0,1.3,0,2.6,0,3.9c0.8,1.4,0.7,2.4-1,2.9
		c-1.3-0.3-2.2-1.4-2.3-2.7C367.6,269.3,368.2,267.5,369.6,266.1z"/>
	<path id="Trazado_19206" class="st0" d="M341.5,237.4c-2.9,3.3-0.2,5.2,1.9,7.1c2.4,2.1,5.5,3.6,6.8,6.8c-0.3,1.1-1.4,1.8-2.5,1.6
		c-1.2-0.5-2.3-1.2-3.3-2.1c-1.8-1-3.3-2.6-4.3-4.4c-7.2-2.7-0.9-6.6-0.9-9.9c0.4-0.1,0.7-0.2,1.1-0.3L341.5,237.4z"/>
	<path id="Trazado_19207" class="st0" d="M356.4,396.8c-4.8,2.7-9.8,4.8-15.1,6.3c-2-0.2-4.6,0.7-5-2.5c5.8-1.2,11.8-1.9,17.4-4.3
		C354.6,395.7,355.8,395.9,356.4,396.8z"/>
	<path id="Trazado_19208" class="st0" d="M296.9,278.9c-0.4,1.1-2.3,1.4-1.8,2.8c0.5,1.4,2,0.9,3.1,1c-2.7,5.6-7.7,10.2-5.3,17.6
		c0.9,2.8-2.3,5-5.2,6.1c-1.3,0.5-3,0.5-4.1,1.2c-3.3,2-6.2,2.9-8.3-1.5c-0.2-0.5-1.5-0.5-2.3-0.8c-0.3-0.3-0.9-0.7-0.9-0.8
		c2.9-7.5-4.4-12.6-4.7-19.5c-0.2-4.6-1.8-8.8,2.7-12.4c2.6-2.1,1-6.6,4.1-8.8c0.1,5.6,2.2,1.8,3.6,0.7c2.7-2,4.8-6.5,8.9-2
		c-0.2,1.2,0.6,2.3,1.9,2.5c0.2,0,0.4,0,0.6,0c0.9,4.2-5.8,4.5-4.5,9.5c3.7-3.4,5.9-8.9,12-7c3.7-4.1,8.6-5.7,13.7-6.9
		c0.9,0,1.8,0.6,2,1.5c-0.1,3.3-3,3.7-5.1,4.8C302.5,269.7,299.7,274.2,296.9,278.9z"/>
	<path id="Trazado_19209" class="st0" d="M281.9,331l2.9,1.8c1.4-1.9-2.2-3-0.2-5.4c9.3,7.8,16,18.7,27.5,23.8
		c-7.8-2.8-16.5-2.3-23.9-6.3c2.7-1.7,1.1-2.9-0.3-4.6c-2-2.3-6.4-2.5-6-6.8C281.9,332.7,281.9,331.8,281.9,331z"/>
	<path id="Trazado_19210" class="st0" d="M284.3,333.7c3.6,3.7,9,5.6,11.6,10.6c-1.6,1.5-3.6,0.5-5.3,0.8c-0.4,0-0.8,0-1.2,0
		c1.3-3.7-2.6-3.4-3.9-5.1c-1.1-1.3-3-1.6-4.1-3c-0.9-0.7-1.5-1.8-1.6-3c0.1-0.6,0.3-1.1,0.8-1.5L284.3,333.7z"/>
	<path id="Trazado_19211" class="st0" d="M280.6,333.1l0,1.4c-1.1,1-2.8,0.9-3.8-0.1c-5.5-2.6-6.3-8.3-8.2-13.2
		c-0.7-1.7,1.2-0.7,2-0.7c1.2,1.3,2.1,2.9,3.8,3.8C274.1,328.8,277.6,330.8,280.6,333.1z"/>
	<path id="Trazado_19212" class="st0" d="M276.7,334c1.3,0,2.5,0.1,3.8,0.1l1.6,2.2c-0.1,0.8-0.8,1.5-1.6,1.6l-3.6-2.7
		C276.8,334.8,276.8,334.4,276.7,334z"/>
	<path id="Trazado_19213" class="st0" d="M274.3,324.7c-2,0.1-3.7-1.5-3.8-3.4c0-0.1,0-0.2,0-0.3C272.9,321,273.4,323,274.3,324.7z"
		/>
	<path id="Trazado_19214" class="st0" d="M278.1,324.5l1.3,1.3c-0.1,0.7-0.1,2-1.2,1.5C276.8,326.6,276.8,325.5,278.1,324.5z"/>
	<path id="Trazado_19215" class="st0" d="M265.2,316c0.4-0.5,0.9-0.9,1.4-1.3c0.7,0.4,1.2,0.9,1.7,1.5c0.4,0.8-0.2,1-0.9,0.8
		C266.6,316.7,265.9,316.4,265.2,316z"/>
	<path id="Trazado_19216" class="st0" d="M331.2,184.1c-6.1,1.6-12.2,3.1-18.4,4.7c-1.1,0.3-2.1,0.3-2.6-0.9c-0.3-0.7,0-1.6,0.7-1.9
		c0.1,0,0.2-0.1,0.3-0.1C317.8,184.1,324.2,181,331.2,184.1z"/>
	<path id="Trazado_19217" class="st0" d="M302.4,194.7c5.5-3.4,11.9-5.1,18.3-5c5.2,0,10.5,0,15.7,0c0.4,0.6,0.3,1.4-0.3,1.9
		c-5.2,2.6-10.9,0.1-16.2,1.8c-1.5,0.5-3.1,0.7-4.6,1.3c-1.8,0.4-3.6,0.8-5.4,1.4c-2.4,0.3-4.8,1.6-7.4,0.4
		C302,196,302,195.3,302.4,194.7C302.4,194.8,302.4,194.8,302.4,194.7z"/>
	<path id="Trazado_19218" class="st0" d="M334.1,190.9c0-0.4,0-0.8,0-1.2c5.6,0,10.9,1.4,16.4,2.5c-0.4,5.5-5.1,2.3-7.5,3.8
		c-0.8-3.5-3.5-3.7-6.4-3.7c-0.3,0.4-0.8,0.5-1.3,0.4C334.6,192.3,334.2,191.7,334.1,190.9z"/>
	<path id="Trazado_19219" class="st0" d="M303.6,194.7c0,0.4,0,0.7,0,1.1c-0.4,1.1-1.2,1.9-2.3,2.4c-1.3,0.5-2.6,1.3-4,0.2
		c0-0.4,0-0.8,0-1.1C298.9,195.5,301.2,194.5,303.6,194.7z"/>
	<path id="Trazado_19220" class="st0" d="M270.5,250h-1.3c2-6.4,6.5-10.8,11.3-15.1c1.3-0.5,1.5,0.1,1.3,1.3
		C278.6,241.3,272.7,244.1,270.5,250z"/>
	<path id="Trazado_19221" class="st0" d="M281.8,236.8l-1.3-1.3c1.5-2.6,7-2.6,5-7.6l0,0l2.5-2.5l2.5-1.3
		C290.1,229.7,286.8,234.5,281.8,236.8z"/>
	<path id="Trazado_19222" class="st0" d="M285.6,228c-1,2.1-2.8,3.6-5.1,4.3C281.5,230.1,282.7,228.1,285.6,228L285.6,228z"/>
	<path id="Trazado_19223" class="st0" d="M333.3,193.2c1.4-0.1,2.5,1,2.6,2.4c0,0.1,0,0.1,0,0.2c-3.6,2.2-7.8,3-11.6,4.1
		c-8.7,2.7-16.5,7.8-22.6,14.6c-2.7,2.9-6.4,3.7-9.8,5.2c0.1-2.5,2.4-3,3.8-4.4c1.8-1.7,2.9-3.4,1.2-5.7l1.3-1.2
		c0.4-0.4,0.8-0.6,1.4-0.6c1.9-0.2,3-1.8,4.4-2.8c0.1-1.5-1.8-0.5-2-1.6l0-3.6c0.1-1,0.7-1.9,1.6-2.3c2.7-0.9,5.5-1.5,8.3-2
		c2.2,0.1,4.3-0.2,6.4-0.9c2.4-0.5,4.8-1.1,7.2-1.6c2.1-0.2,4.2-0.1,6.3-0.4C332.3,192.6,332.8,192.8,333.3,193.2z"/>
	<path id="Trazado_19224" class="st0" d="M307.7,264l-1.3-1.3c-0.4-0.3-0.6-0.6-0.4-0.8c0.1-0.3,0.3-0.4,0.4-0.4
		c2.3-2.8,6.2-1.7,8.8-3.8l3.8,1.2c-0.2,5.2-4.4,4.3-7.5,5C310.5,265,308.8,265,307.7,264C307.8,264,307.7,264,307.7,264z"/>
	<path id="Trazado_19225" class="st0" d="M335.4,253c1.1-2.8-2.4-4.8-1.2-7.5l1.3,0c0.8,1,1.1,2.2,2.4,2.8c1.2,1.4,2.4,2.6,3.8,3.9
		c2.6,2.1,5.5,3.9,7.2,6.9c0.2,0.6,0.4,1.1,0.4,1.7c0.1,1.6-0.9,3-2.4,3.5c-1.6-0.8-3-2.1-3.8-3.8c-0.8-3.3-3.5-4.3-6.2-5.4
		C336,254.7,335.5,253.9,335.4,253z"/>
	<path id="Trazado_19226" class="st0" d="M346.1,263.8l1.3-3.8c2.8-0.7,3.8,1.4,4.9,3.2c0.5,1.5,1,2.9,0.1,4.4l-3.8,1.2
		C348.7,266.7,346.8,265.5,346.1,263.8z"/>
	<path id="Trazado_19227" class="st0" d="M336.8,254.1c2.9,1.3,7.6,0.8,6.3,6.3c-2.2-1-3.4-3.7-6.2-3.9c-0.7-0.5-0.9-1.4-0.4-2.1
		C336.6,254.4,336.7,254.2,336.8,254.1z"/>
	<path id="Trazado_19228" class="st0" d="M337.3,254.3c0,0.8,0.1,1.6,0.1,2.4c-2.4-1.3-5.5-1.7-6.4-5c1.8-0.1,3.5,0.4,5,1.2
		L337.3,254.3z"/>
	<path id="Trazado_19229" class="st0" d="M318.4,248.4l-1.3-2.5c1.1-0.4,2.4-1.2,3.1,0.4C321,247.9,319.6,248.2,318.4,248.4z"/>
	<path id="Trazado_19230" class="st0" d="M322.1,253l1.3,1.3l-5.6,0C318.7,252.2,320.6,253.4,322.1,253z"/>
	<path id="Trazado_19231" class="st0" d="M324.4,257.8c-0.9,1.4-1.7,3.4-3.8,1.3C321.6,257.6,323,257.8,324.4,257.8z"/>
	<path id="Trazado_19232" class="st0" d="M304.3,198.3l-1.3,1.4l-12.6,3.6c-1.5-0.2-3-0.3-2.6-2.5c3.2-0.7,5.3-3.8,8.9-3.8
		c1.8-1,3.8-1.3,5.8-0.9C303.4,196.5,304.1,197.3,304.3,198.3z"/>
	<path id="Trazado_19233" class="st0" d="M290.6,200.5l2.6,2.5c-3.4,2.5-6.7,5.1-11.3,3.8C284,203.8,287.4,202.3,290.6,200.5z"/>
	<path id="Trazado_19234" class="st0" d="M299.7,208h-1.3c0.6-1.4,0.9-2.5-1.3-2.5l5-2.5l6.6-1.1c-0.5,2.6-2.7,2.6-4.1,3.6
		C303,206.1,302.2,208.7,299.7,208z"/>
	<path id="Trazado_19235" class="st0" d="M289.4,266.4c-2.1,0.5-2.8,3.6-5.6,3.1c-0.6-2.8,2.6-3.5,3.1-5.6c4.5-2.7,8.4-6.5,13.8-7.5
		c0.6,0,1.2,0,1.8,0.1c1.5,0.6,0.6,1.3-0.2,1.4C296.6,258.6,293.5,263.2,289.4,266.4z"/>
	<path id="Trazado_19236" class="st0" d="M307.5,261.2v1.3l-13.8,6.3C296.4,262.7,301.9,261.9,307.5,261.2z"/>
	<path id="Trazado_19237" class="st0" d="M336.8,249.6c-1.4-0.9-1.3-2.3-1.2-3.7c1.6,0.5,3.1,2.2,4.8,0.1l5.2,3.6
		c-0.1,0.9-0.8,1.6-1.7,1.7c-1.4-0.2-2.8-0.6-4-1.3C338.8,249.7,337.9,248.8,336.8,249.6z"/>
	<path id="Trazado_19238" class="st0" d="M302.4,199.7l-6.3,0.1l1.3-1.4l3.8-1.1c1.1-0.7,1.5,0,1.8,0.9
		C303,198.8,302.8,199.3,302.4,199.7z"/>
	<path id="Trazado_19239" class="st0" d="M280.5,337.8l1.6-1.6c1.5,1,3.6,1.5,3.4,4C283.5,340.5,281.5,339.5,280.5,337.8z"/>
	<path id="Trazado_19240" class="st0" d="M312.7,350.8c3.1-2.5,6.8-1,10.2-1.2c7.5-0.4,15.1,0.8,22.7-1c-4.3,4.6-10.6,1.9-15.3,4.7
		C324.5,352.5,318.5,352.7,312.7,350.8z"/>
	<path id="Trazado_19241" class="st0" d="M324.4,197.2l-7.5,1.4c-0.5,0.4-1.3,0.3-1.7-0.2c-0.5-0.9-0.7-1.9-0.4-2.9
		c0.2-0.6,0.6-1.2,1.1-1.6c1.5-0.5,3.1-0.8,4.7-1c2.5,0,5.1-0.2,7.6-0.6c1.7,0,3.2,0.9,4,2.4c-0.1,0.4-0.1,0.7-0.2,1.1
		c-0.4,0-0.8,0-1.2,0.1C328.8,197.5,326.3,195.8,324.4,197.2z"/>
	<path id="Trazado_19242" class="st0" d="M331.4,194.9l-3.9-1.4c-0.4-0.5-0.3-1.2,0.1-1.6c0,0,0.1-0.1,0.1-0.1
		c2.3-0.2,4.6-0.3,6.9,0c1.6,1.6,0.1,2.2-0.9,3L331.4,194.9z"/>
	<path id="Trazado_19243" class="st0" d="M333.4,194.7l1.2-2.4c0.1-0.4,0.6-0.6,1-0.5c0.1,0,0.2,0.1,0.3,0.2
		c0.4,0.1,0.8,0.2,1.2,0.2C338.3,196.7,334.7,194,333.4,194.7z"/>
	<path id="Trazado_19244" class="st0" d="M356.3,348.4c-0.3,3.4-2.6,4-5.4,3.7c-4.1-0.4-1.4-2.7-1.3-4.3s-1.4-1.7-2.7-1.9
		c-3.8-0.5-7.4,0.6-11,2.3c1.4-5.7,3-6.1,22.8-6.1C359.9,345,355.4,345.6,356.3,348.4z"/>
	<path id="Trazado_19245" class="st0" d="M355.2,348.6c-2.2-0.6-5.3-1.1-1.1-3.6c1.4-0.8,3-1.1,3.6-2.7c3.2-2.1,7.3-2.8,10.1-5.8
		C364.2,341.2,361.4,346.7,355.2,348.6z"/>
	<path id="Trazado_19246" class="st0" d="M348.2,337c4.7-0.9,9.1-0.2,12.4-3.5c0.4-0.5,1.2-0.6,1.8-0.2c0.1,0.1,0.2,0.2,0.3,0.4
		c0.3,0.5,0.4,1.2,0.1,1.7c-2.4,3.1-6.4,3.5-9.5,5.5C351.2,342.2,350,339.4,348.2,337z"/>
	<path id="Trazado_19247" class="st0" d="M348.3,325.3c2.1-3,2.3-7.4,6.4-8.9C354.7,321,354.4,321.4,348.3,325.3z"/>
	<path id="Trazado_19248" class="st0" d="M344,362.6c1.8-3.8,4.1-7.2,9-7.5L344,362.6z"/>
	<path id="Trazado_19249" class="st0" d="M339.8,334.7c-13.5,0.2-28,4.3-39.2-10.7C313.8,331,326,335.9,339.8,334.7z"/>
	<path id="Trazado_19250" class="st0" d="M308.8,263.4h3.8c-1.1,4.2-5.5,4.1-8.3,6c-2.1,1.4-4.7,2-4.3,5.4l-6.3,5
		c-3-0.5-1.1-1.6-0.4-2.7C297.1,270.9,302.9,267.1,308.8,263.4z"/>
	<path id="Trazado_19251" class="st0" d="M317.1,292.5V290c1.7-0.7,2.9-2.6,5-2.5C322.1,290.8,319.3,291.3,317.1,292.5z"/>
	<path id="Trazado_19252" class="st0" d="M346.7,251.4l2.3-1.1l16.5,17.6c3,2.9,3.3,5-1.5,5.8c-2.5-2.2-2.6,2.6-4.7,1.6l-2.6-4.9
		c-2.5-4.5-5-9-8.7-12.6c-1.5-1-2.7-2.5-3.3-4.2C344.8,252.3,344.8,251,346.7,251.4z"/>
	<path id="Trazado_19253" class="st0" d="M349.5,256.4c3.6,4,7.8,7.7,7.6,13.8c-0.4-0.1-0.8-0.1-1.2-0.1c-2.2-1.6-2.8-4.6-5.1-6.2
		c-0.8-1.7-2.1-3-3.8-3.8c0-0.4,0-0.8,0-1.2C347.4,257.6,348.3,256.7,349.5,256.4z"/>
	<path id="Trazado_19254" class="st0" d="M363.6,272.1c3.5-0.9,1.2-3.2,1.2-4.9l1,0.1c1.5,0.2,2.6,1.5,2.4,3c0,0.2-0.1,0.4-0.1,0.6
		c0,2.1,2.9,4,0.5,6.2l-1.3,2.6c-2.3,0.6-1.4-2-2.5-2.5l-1.3-2.5c-0.7-0.6-0.7-1.7-0.1-2.4C363.5,272.2,363.5,272.1,363.6,272.1z"/>
	<path id="Trazado_19255" class="st0" d="M364,272.1c0,0.8,0,1.7,0,2.5c-1.7-0.5-3.4,5.5-5,0c2.5-1.4-0.1-3.6,0.7-5.4
		C361.5,269.7,361.8,272.3,364,272.1z"/>
	<path id="Trazado_19256" class="st0" d="M350.8,263.7c3.7,0.4,4.4,3.4,5.1,6.2c-1.7,0.1-3.2-0.9-3.8-2.5L350.8,263.7z"/>
	<path id="Trazado_19257" class="st0" d="M364.9,276.8l2.5,2.5c0,0.8-0.1,1.7-0.1,2.5C362.7,281.9,366,278.4,364.9,276.8z"/>
	<path id="Trazado_19258" class="st0" d="M368.4,277l-1.1-6.6c0.4-0.2,0.9-0.1,1.1,0.3c0,0,0,0,0,0l1.4,2.4c0.8,0.6,1.7,1.2,1.4,2.5
		c0.4,0.9,0.7,1.8,1.1,2.6C370.2,279.9,369.8,277,368.4,277z"/>
	<path id="Trazado_19259" class="st0" d="M371,275.7l-1.4-2.5l1.2-2.5c1.4,1.1,1.6,3.1,0.5,4.5C371.3,275.5,371.1,275.6,371,275.7z"
		/>
	<path id="Trazado_19260" class="st0" d="M368.5,271.2c-0.4-0.1-0.7-0.2-1.1-0.3c-0.6-1.1-1.1-2.2-1.7-3.3c2.5-1.2-1.7-2.8,0.3-4
		l3.7,2.6C369.7,267.9,370.3,269.9,368.5,271.2z"/>
	<path id="Trazado_19261" class="st0" d="M347.7,251.9c-0.8,0.5-1.3,1.5-1.3,2.4c-2.9,0.2-3-1.5-2.6-3.6l1.2-1.3L347.7,251.9z"/>
	<path id="Trazado_19262" class="st0" d="M336.7,192.1l-1.3,0.3l-7.5,0c-1.9,1.3-4.1,1.2-6.2,1.1c-1.4-0.1-2.9,0-3.8-1.5
		c5.8-2.2,11.8-0.6,17.7-1.1L336.7,192.1z"/>
	<path id="Trazado_19263" class="st0" d="M302,198.5l-1.3-1.3l2.5-1.4l7.5-1.2c0.4,0.5,0.5,1.2,0.1,1.8
		C308.3,198.7,305.5,200.3,302,198.5z"/>
	<path id="Trazado_19264" class="st0" d="M318.5,192l3.8,0.3c0.7,1.4-0.5,1.7-1.2,2.4l-5.1,0.1c-0.8-0.1-1.4-0.7-1.5-1.4L318.5,192z
		"/>
	<path id="Trazado_19265" class="st0" d="M314.9,193.4l1.5,1.4c0,0.4,0,0.7,0,1.1c-2.1,1.7-4.1,2.1-6.2,0l-0.1-1.3
		C311.4,193,313.2,193.5,314.9,193.4z"/>
	<path id="Trazado_19266" class="st0" d="M310.6,195.9l6.2,0c0,0.8,0,1.7,0.1,2.5c-1.4,1.6-3.7-0.1-5.1,1.4l-8.7,1.3l-1.3-1.4
		c0-0.4,0-0.8,0-1.2L310.6,195.9z"/>
	<path id="Trazado_19267" class="st0" d="M299.7,207.9c1.7-0.8,2.9-2.6,5-2.5C303.3,206.8,302.8,210,299.7,207.9z"/>
	<path id="Trazado_19268" class="st0" d="M311.2,199.8c1.4-1.7,3.3-1.1,5.1-1.4c0.4,0.1,0.8,0.1,1.2,0.3
		C315.7,200.4,313.4,199.6,311.2,199.8z"/>
	<path id="Trazado_19269" class="st0" d="M324,197.2c1.9-1.8,4.2-1.1,6.4-1.2C328.5,198,326.1,197.1,324,197.2z"/>
	<path id="Trazado_19270" class="st0" d="M343.9,250.7l2.6,3.6c1.2,0.9,2.4,1.8,3.6,2.7l-2.4,2.4l-7.6-6.2c-1-1.7-1.4-3.4,0.1-5.1
		L343.9,250.7z"/>
	<path id="Trazado_19271" class="st0" d="M340.7,248.2c0,1.7-0.1,3.4-0.1,5.1c-1.2-1.3-2.5-2.6-3.7-3.8
		C337.9,248,339.3,248.2,340.7,248.2z"/>
	<path id="Trazado_19272" class="st0" d="M320.6,194.7l1.2-2.4l6.3,0c0,0.4,0,0.8,0,1.1C325.8,195.1,323.2,194.9,320.6,194.7z"/>
</g>
</svg>
