<?xml version="1.0" encoding="utf-8"?>
<!-- Generator: Adobe Illustrator 23.0.2, SVG Export Plug-In . SVG Version: 6.00 Build 0)  -->
<svg version="1.1" id="Capa_1" xmlns="http://www.w3.org/2000/svg" xmlns:xlink="http://www.w3.org/1999/xlink" x="0px" y="0px"
	 viewBox="0 0 297.6 335.4" style="enable-background:new 0 0 297.6 335.4;" xml:space="preserve">
<style type="text/css">
	.st0{fill:#ACD7F4;}
</style>
<g id="Grupo_260" transform="translate(149.503 -1556.478)">
	<path id="Trazado_18590" class="st0" d="M77.7,1609.4c0,0.4-0.1,0.8,0,1.2c-1.2,4.2,2.3,5.4,4.7,7.3c0.3,0.6,0.5,1.3,0.5,2
		c-0.3,1.7-1.6,3.2-3.3,3.6c-2.4,0.5-4.2-1.2-6.4-1.6c-0.9-0.3-1.6-0.9-2.1-1.7c-0.2-0.6-0.4-1.1-0.5-1.7c-0.5-2.1-2.4-3.5-2.3-5.8
		C69.9,1607.2,73.8,1608.5,77.7,1609.4z"/>
	<path id="Trazado_18591" class="st0" d="M-9.7,1593.4c4.1-4.5,10.1-6.7,16.1-5.7l4.4,0.1c0.7-0.8,2-0.8,2.8-0.1
		c0.1,0.1,0.1,0.1,0.2,0.2l2.8,2.9c0.4,0.6,0.3,1.4-0.1,2c-1.5,1.2-3.7,1.3-5.4,0.3c-4.3-2.8-8.1-1-11.9,0.9
		C-3.9,1595.2-6.9,1596.1-9.7,1593.4z"/>
	<path id="Trazado_18592" class="st0" d="M16.6,1592.1c0-0.5,0-0.9,0-1.4l0.1-0.1c1.8-1,4.1-0.9,5.8,0.2l8.7,13.2
		c-0.5,0.4-1.2,0.7-1.8,0.6c-2.2-0.8-4.2-1.8-6.1-3.1C21.7,1597.9,17.8,1596,16.6,1592.1z"/>
	<path id="Trazado_18593" class="st0" d="M29.7,1604.1c0.5,0,1,0,1.4,0c3.1,2.8,3.9,6.8,5.4,10.5c2.2,2.5,0.2,4.1-1.3,5.8l-0.2,1.6
		c0.4,0.4,0.3,1.1-0.1,1.5c-0.1,0.1-0.1,0.1-0.2,0.1c-2.1,0-3.1-1.2-3.6-3.1c-0.1-0.7-0.1-1.3,0-2c2.2-4.7-2.5-7.7-2.9-11.8
		C28.4,1605.6,28.9,1604.7,29.7,1604.1z"/>
	<path id="Trazado_18594" class="st0" d="M89.3,1615.1c0-0.4,0.1-0.9,0.1-1.3c2-1.2,3.5-0.7,4.3,1.5c0.5,1,0.9,2,1.4,2.9
		c-1.3,1.5-2,4.3-5,2.9C88.3,1619.6,88,1617,89.3,1615.1z"/>
	<path id="Trazado_18595" class="st0" d="M38,1626.2l-2.8-1.4c-0.3-0.2-0.5-0.4-0.4-0.8c0-0.3,0.1-0.5,0.2-0.5
		c0-0.5,0.1-1.1,0.1-1.6C38.2,1621.9,38,1624.1,38,1626.2z"/>
	<path id="Trazado_18596" class="st0" d="M10.4,1821.5h1.4c1.2,0.6,2,1.7,2.3,3.1c-0.2,3.8,2.6,6.4,4,9.5c0.2,0.6,0.3,1.3,0.2,1.9
		c-0.2,1.3-1.1,2.5-2.3,3.1C6.9,1835.6,10,1828.1,10.4,1821.5z"/>
	<path id="Trazado_18597" class="st0" d="M31.9,1854.9c0-0.3,0.1-0.7,0.2-1c0.4-1.7,1.6-3.1,3.1-3.8c4.8,0.3,10.2-3.4,14.5,1.6
		c-1.6,4.9-6.3,2.2-9.2,3.8l0.1,0.4C37.6,1856.2,34.5,1857.3,31.9,1854.9z"/>
	<path id="Trazado_18598" class="st0" d="M34.8,1851.2c0,1.5-1.2,2.7-2.6,2.7c0,0-0.1,0-0.1,0l-6-5.8c-1.3-1.1-2.4-2.3-1.9-4.2
		c3.1-2.3,4.5,0.7,6.3,2.1c0.5,0.3,1,0.7,1.4,1.1c0.7,0.6,1.3,1.2,1.9,1.9C34.5,1849.4,34.8,1850.3,34.8,1851.2z"/>
	<path id="Trazado_18599" class="st0" d="M24.6,1843.7l1.5,4.3h-3c-2,0.8-2.6-1.7-4.3-1.6c-0.9-2-1.8-4-2.6-6c1.8-3.1,3.6-0.7,5.5,0
		C23,1841.1,24.3,1841.9,24.6,1843.7z"/>
	<path id="Trazado_18600" class="st0" d="M20.5,1841.9c-1.5-0.3-2.3-2.9-4.4-1.6c-0.1-0.4-0.1-0.8-0.2-1.3c0-1.2,0.6-2.3,1.7-2.9
		c0.6-0.5,1.4-0.7,2.2-0.4C22.2,1837.6,22.2,1839.7,20.5,1841.9z"/>
	<path id="Trazado_18601" class="st0" d="M-43.3,1591.4c2.8-4,5.7-8.5,9-0.6c1.2,2.8,3.5,2.8,5.5,3.7l0,0c0.9,3.7,3.4,5.5,7.1,5.8
		c0.1,0.3,0.2,0.6,0.4,0.9c-0.4,1-1.1,1.7-2.1,2.1c-8.1,3.2-12.9-3.8-19.2-6.2C-44,1595.3-45,1593.5-43.3,1591.4z"/>
	<path id="Trazado_18602" class="st0" d="M-72.6,1599.6c1.7-4.1,6.6-5,8.9-8.5c1.6-0.8,2.9,0.1,4.3,0.7c1.2,1.1,2.1,0.2,3-0.6
		c0-0.5,0-1,0-1.5c3.7,0.1,2.9,2.9,3,5.1c-1.3,6.2-8.1,5.1-11.4,8.7c-1.2,1.1-2,2.5-3.1,3.7c-0.5,0.4-1.1,0.7-1.7,0.9
		c-0.9,0.2-1.9,0.1-2.7-0.3c-1.4-1.1-0.9-2.7-1.2-4.1C-73.4,1602.3-73.6,1600.8-72.6,1599.6z"/>
	<path id="Trazado_18603" class="st0" d="M-9.7,1593.4c3-0.1,6.1,0.5,8.7-1.4c10.4-3.9,16.4,2.8,22.6,9.3c-0.5,3.5-3.1,4.6-6,5.5
		c-2.5,0.3-5.6,0.1-5.7-2.7c-0.1-9-6-7.8-11.7-7.4c-3.6,0.1-7.1,2.6-10.7,0.1c-0.5-0.4-0.6-1.1-0.2-1.7c0.1-0.1,0.2-0.2,0.3-0.2
		L-9.7,1593.4z"/>
	<path id="Trazado_18604" class="st0" d="M-47.8,1594.3l1.5-1.5l2.9-1.4l1.5,5.7c-0.1,0.3-0.2,0.7-0.4,1c-0.7,0.9-1.7,1.4-2.8,1.4
		c-1.5-0.1-2.8-1-3.4-2.3C-48.8,1596.2-48.5,1595.1-47.8,1594.3z"/>
	<path id="Trazado_18605" class="st0" d="M-12.4,1594.8c-0.2,0.4-0.3,0.8-0.4,1.2c-0.2,2.1-2,2.9-3.4,4c-0.8,0.6-1.6,1-2.5,1.3
		c-0.9,0.2-1.9,0-2.6-0.7l-0.3-0.3C-19.3,1597.2-17.3,1593.6-12.4,1594.8z"/>
	<path id="Trazado_18606" class="st0" d="M-52,1588.3c-1.1,1.7-1.6,3.7-1.5,5.7c0.3,0.2,0.4,0.6,0.3,1c-0.1,0.3-0.2,0.5-0.3,0.5
		c-0.4,0.4-1.1,0.4-1.6,0.1c-0.1-2,0.6-4.3-1.4-5.9C-55.3,1588.1-53.6,1588.3-52,1588.3z"/>
	<path id="Trazado_18607" class="st0" d="M-59.3,1592.7l-4.4-1.6v-1.5c2,0.2,4.2-0.6,5.8,1.4C-57.1,1592.6-58,1592.8-59.3,1592.7z"
		/>
	<path id="Trazado_18608" class="st0" d="M-59.3,1592.7l1.4-1.6l1.5,0.2c-0.5,1.8-0.2,4.6-3,4.4
		C-60.7,1595.5-59.6,1593.7-59.3,1592.7z"/>
	<path id="Trazado_18609" class="st0" d="M-108.2,1622.6c0.1,0.9,0.1,1.8,0.2,2.7c0.3,0.2,0.5,0.7,0.5,1.1c-0.1,0.4-0.1,0.6-0.2,0.6
		c-0.5,0.3-1.2,0.5-1.8,0.4c-1.5-0.6-2.9-1.6-3.9-2.9c-0.9-1-1.3-2.3-1.2-3.7c0.2-0.6,0.6-1.2,1.2-1.5l3.9,0.4
		C-109.2,1620.7-108.7,1621.6-108.2,1622.6z"/>
	<path id="Trazado_18610" class="st0" d="M-94,1863.8c-2.8-5.5-2-12.2-6.3-17.6c-1.7-2.1,2.9-7-0.8-10.3c-0.8-3.6,0.9-5.6,4.2-6.5
		c1.1,0,2,0.6,2.4,1.6c0,3.2,1.6,6,2,9.1c0.1,3.2-0.2,6.3-0.7,9.5c0.7,4.6,0.8,9.5,4.9,12.8c1.6,1.5,2.9,3.2,2.5,5.6
		c-0.2,0.7-0.6,1.3-1.2,1.8L-94,1863.8z"/>
	<path id="Trazado_18611" class="st0" d="M-86.9,1869.8l0.3-1.7c1-0.9,2.4-1.2,3.8-0.9c0.9,0.3,1.8,0.6,2.7,1
		c3.4,1.3,5.8-1.2,8.5-2.4c0.9-0.5,1.8-0.8,2.8-0.9c0.7,0,1.3,0.1,1.9,0.3c2.9,1.3,5.6,0.2,8.2-1.1c0.9-0.5,1.8-0.9,2.8-1
		c1.1-0.1,2.1,0.2,2.9,0.9c0.6,1.3,0.4,2.9-0.5,4c-1.4,2.1-4,0.7-5.6,2v-0.1c-5.3-2.3-11.2,1.4-13.8,3.1
		C-80.2,1878.1-82.6,1872.2-86.9,1869.8z"/>
	<path id="Trazado_18612" class="st0" d="M109.4,1640.2l10.4-8.7c2.3,3.6-0.7,5.8-2.3,8.2c-3.8,5.8-9.5,10-12.9,16.1
		c-2.2,2-3.3,5.4-7.1,5.2c-4.9-5.7,2.3-8.2,3.3-12.3c1.9-2.7,4.4-5.1,7.2-7L109.4,1640.2z"/>
	<path id="Trazado_18613" class="st0" d="M107.9,1641.8l-5.9,7.2c-2.5,3.7-6,6.7-8.2,10.7c-1.4,1.4-2.8,2.7-4.3,4
		c-3.4,1.8-4.6,7.2-9.8,6.2c-1.6-0.9-2.5-2.6-2.3-4.4c0.2-1.4,0.7-2.8,1.5-4c1.1-1.3,1.8-3.2,4.1-2.4c1.4,5,3.4,1.6,4.9,0.2
		c4.8-4.5,9.4-9.1,14.2-13.7C103.6,1643.8,105.1,1641.7,107.9,1641.8z"/>
	<path id="Trazado_18614" class="st0" d="M82.8,1658.9l-3,2.8c-1.2-1-1.7-2.6-1.4-4.1c3.5-5.6,4.3-13,11-16.5
		c0.3,0.2,0.6,0.3,0.9,0.5c2.7,3.9,3.2,7.3-1.7,10C85.8,1653.3,85,1656.7,82.8,1658.9z"/>
	<path id="Trazado_18615" class="st0" d="M95.2,1634.7c-1.8,2.2-1.6,5.8-4.8,7.1c0.1-0.3,0.2-0.6,0.1-0.9c-1.4-0.5-2.9-0.9-3.5-2.7
		c0-2.4,1.4-4.2,2.3-6.2c0.4-0.6,0.9-1,1.5-1.4c0.7-0.2,1.4-0.2,2.1-0.1C94.7,1631.4,95.9,1632.5,95.2,1634.7z"/>
	<path id="Trazado_18616" class="st0" d="M95,1625.5c1.8,2.1,3.7-2.4,4.6-0.4c0.9,2.2,0.2,4.8-1.7,6.3c-1.9-0.2-3.6-1-5.1-2.1
		c-1.6-1.6-1-2.9,0.5-4.1C93.8,1624.9,94.5,1625,95,1625.5z"/>
	<path id="Trazado_18617" class="st0" d="M93.6,1628.7c2.2-0.4,3.4,0.8,4.2,2.7l-2.7,3.3c-0.6-1.5-1.7-2.7-3.2-3.4
		C91.3,1629.6,92.4,1629.1,93.6,1628.7z"/>
	<path id="Trazado_18618" class="st0" d="M95,1625.5c-0.4,0-0.9,0-1.4,0.1c-1.5-0.2-2.8-1.2-3.4-2.7c-0.1-0.6,0.1-1.2,0.5-1.7l4.4-3
		L95,1625.5z"/>
	<path id="Trazado_18619" class="st0" d="M-96.4,1830.2c-2.5,1.1-3,3.8-4.6,5.7l-4.2,3.2c-0.2-0.2-0.4-0.5-0.7-0.8
		c-0.9-3.9,2.8-5.8,3.9-8.9c0.6-0.9,1.5-1.5,2.5-1.8c1.1-0.2,2.2,0,3,0.7C-96,1828.8-96,1829.6-96.4,1830.2z"/>
	<path id="Trazado_18620" class="st0" d="M-105.3,1840.3c-2.2,1.9-4.3,4-7.4,4.2c0.5-1,0.9-2,1.4-3c0.4-4,2.6-4.5,5.9-3.2
		c0.1,0.2,0.1,0.5,0.2,0.7C-105.3,1839.5-105.3,1839.9-105.3,1840.3z"/>
	<path id="Trazado_18621" class="st0" d="M66,1615c0.3-0.2,0.7-0.3,1.1-0.3c2.9-0.9,2.7,2.8,4.8,3.2c0,0.5,0,1-0.1,1.4
		c-1.1,1.7,0,3.5-0.4,5.2c0,1-0.4,1.9-1.1,2.7c-0.5,0.4-1.1,0.8-1.8,1c-4.8,1.2-6.1-1.2-5.4-5.4c0.3-2.1,1.4-4,1.7-6.2
		C65.1,1616,65.5,1615.4,66,1615z"/>
	<path id="Trazado_18622" class="st0" d="M82.3,1618.3l5.7-2c1.7,2.7,1.1,5.9,1.9,8.8c0.1,1.4-1,2.6-2.3,2.6c-0.1,0-0.3,0-0.4,0
		c-3.9-1.2-6.4-3.4-4.9-8C82.2,1619.2,82.2,1618.8,82.3,1618.3z"/>
	<path id="Trazado_18623" class="st0" d="M82.2,1619.7c-0.2,3.3,3.7,4.4,4.1,7.4c0.4,0.5,0.3,1.2-0.1,1.6c-0.6,0.2-1.2,0.3-1.9,0.2
		c-2-0.7-3.7,0.6-5.6,0.6c-1,0-2-0.3-2.8-1c-1.1-3.1,1.4-4.3,3.2-5.9L82.2,1619.7z"/>
	<path id="Trazado_18624" class="st0" d="M79,1622.5c0,2.4-2.2,3.7-3.1,5.6c-5.4,1-3.9-2.8-3.8-5.6c0.2-0.7,0.6-1.2,1.1-1.6
		C75.8,1619.1,76.8,1622.9,79,1622.5z"/>
	<path id="Trazado_18625" class="st0" d="M71.8,1617.9c-2.4,0.1-3-2.3-4.8-3.2l1.8-1.3C69.8,1614.8,72.1,1615.5,71.8,1617.9z"/>
	<path id="Trazado_18626" class="st0" d="M73.3,1620.9c-0.1,0.4-0.1,0.8-0.2,1.2c-0.6,1.2-1.2,2.4-2.8,1.5c-1.5-2.2,0.3-3.1,1.5-4.4
		L73.3,1620.9z"/>
	<path id="Trazado_18627" class="st0" d="M89.1,1625.3c-2.3-2.8-1-6-1.2-9.1l1.4-1.2c0.5,2,1,4.1,1.4,6.1c0,0.5,0,1,0.1,1.5
		c0.3,0.9,0,1.9-0.8,2.4C89.7,1625.2,89.4,1625.2,89.1,1625.3z"/>
	<path id="Trazado_18628" class="st0" d="M66,1615l0,1.6c0,3.9-4.1,3.7-5.9,5.8c-0.5,0.4-1.1,0.7-1.6,1c-2,0.8-3.7,2.4-4.6,4.4
		c-1.2,2-3.2,3.5-5.5,4.1c-2.6-0.2-5.4,0.9-7.6-1.3c1.1-1.3,2.1-2.7,3.2-4c5.2-3.5,11.1-6.2,15-11.3
		C61.3,1614.5,63.6,1612.9,66,1615z"/>
	<path id="Trazado_18629" class="st0" d="M20.9,1601c-2.3-0.6-4.1,0.3-5.8-3.7c-2.5-5.8-9.8-5.8-16-5.4c4.2-2.5,8.2-4.4,12.8-0.6
		c1.1,0.9,3.1,0.5,4.7,0.8c4.3,1.3,7.1,3.9,7.6,8.5c0,0.6-0.4,1.1-1,1.3C22.3,1602.1,21.4,1601.8,20.9,1601z"/>
	<path id="Trazado_18630" class="st0" d="M29.7,1604.1c-0.1,1-0.1,2-0.2,3c-5.3,1.4-5.2-2.6-5.8-5.9l0.5-0.5
		C26.5,1600.7,28.6,1602,29.7,1604.1z"/>
	<path id="Trazado_18631" class="st0" d="M32.3,1618.7c-0.1,0.5-0.2,0.9-0.3,1.4c-0.3,0.5-0.7,0.9-1.2,1.2c-1.5,2.1-2.3,4.8-5.1,5.7
		c-5,1.4-5.2,7.8-9.9,9.5c-4.3-2.4-1.9-5.8-0.9-8.7c1-2.9,3.3-5.3,4.4-8.7c-1.7,2.6-4.7-1.1-6.3,1.9c-0.6,0.8-1.4,1.4-2.3,1.8
		c-6.7,1.8-10.3-4.2-12.1-7.6c-3.4-6.2-7.4-6.7-12.9-5.6c-0.9-1.1-1.3-2.6-0.9-3.9c0.3-1,0.7-2,1.2-2.9c0.6-1.6,1.4-3.1,2.2-4.6
		c1.6-1.8,3.7-1,5.6-1.3c2,2,4.8,2.1,7.3,2.9c0.6,0.2,1.1,0.6,1.5,1.1c0.9,2.9,4,1.4,5.6,2.7c0.9,2.2,3.3,3.3,5.6,2.8
		c0.5,0.1,0.9,0.2,1.4,0.2c3.2,0.1,7.1-4.5,8.4-2.2C26.2,1609.3,32.7,1612,32.3,1618.7z"/>
	<path id="Trazado_18632" class="st0" d="M32.3,1618.7c-1.6-2.3-2.8-5.7-5-6.5c-3.6-1.4-2.4-4.8-4-6.7c-3.3,0.8-6.1,4.4-9.8,1.4
		c0.1-0.9,1-1,1.5-1.5c2.2-1.1,4.8-1.8,5.9-4.3l2.9,0.2c2.8,1.1,2.3,5.4,5.8,5.9C31.2,1610.8,36.8,1613.6,32.3,1618.7z"/>
	<path id="Trazado_18633" class="st0" d="M30.9,1620.3c0.4-0.1,0.7-0.1,1.1-0.2l3.1,3.4c0,0.4,0.1,0.8,0.2,1.2
		c-0.1,0.9-0.2,1.8-0.2,2.6c-0.8,1.1-0.6,2.4-0.8,3.6c-1.8,2.5-1.2,5.4-1.7,8.2c-0.9,1.8-2.2,3.5-4.3,2.9c-2.3-0.6-2.3-2.9-2.1-4.7
		c0.3-2.4-0.1-4.7,0.1-7.1C27.1,1626.7,28.7,1623.3,30.9,1620.3z"/>
	<path id="Trazado_18634" class="st0" d="M27.7,1630.4c1.6,3.4,0.1,6.8,0,10.2c2.7,0.6,3.3-1.4,4.4-2.7c0.2-1.5,1-2.8,2.1-3.8
		c1-1.2,2.4-1.8,3.9-1.9c0.5-0.1,0.9-0.1,1.4,0c2.9,3.4,0.7,6.2-1.2,8.9c-1.6,2.3-4.3,3.8-5.6,6.4c-0.8,1.1-2.2,1.7-3.6,1.4
		c-2.2-2-5.3-2.1-7.6-3.8C21.9,1639.5,21.8,1633.7,27.7,1630.4z"/>
	<path id="Trazado_18635" class="st0" d="M31.9,1646.6c-1.4-2.6,1.2-3.1,2.4-4.1c3.2-2.7,5.4-5.8,5.1-10.3l1.3-1.7
		c2.5-0.1,5.1-1.8,7.5,0.3c0.4,0.6,0.5,1.3,0.3,2c-4.4,5.3-8.5,10.9-14.7,14.3C33.2,1647.2,32.5,1647,31.9,1646.6z"/>
	<path id="Trazado_18636" class="st0" d="M38,1632.2c-1,1.1-2,2.1-3,3.2c-1.7-1.1-2.4-3.2-1.6-5c-0.1-1.2,0.5-2.4,1.6-3
		C34.9,1629.7,37.1,1630.5,38,1632.2z"/>
	<path id="Trazado_18637" class="st0" d="M87.5,1841.6c-1.2-5.4-6.1-6.4-10-8.7c-0.5-0.5-0.8-1.2-0.8-1.9c0.2-1.1,1-1.9,2-2.2
		c8.2-0.5,13,4.3,16.6,10.9c0.5,0.4,0.9,1,1.3,1.6c0.2,0.6,0.2,1.3-0.2,1.9l-0.6,0.3C92.1,1847.1,90.3,1842,87.5,1841.6z"/>
	<path id="Trazado_18638" class="st0" d="M40.5,1855.4c2.6-2.2,6.8-0.8,8.8-4.2c0.5-2.6,2.3-4,4.3-5.2c2-1,4.4-0.7,6.2-2.1
		c1.3-1,2.8-1.6,4.5-1.8c0.7,0,1.2,0.5,1.4,1.1c-2.2,6.7-10,6.2-13.8,10.9c-0.2,0.6-0.8,1.1-1.4,1.1L40.5,1855.4z"/>
	<path id="Trazado_18639" class="st0" d="M65.8,1843.3l-1.6-0.4c-0.2-0.2-0.3-0.5-0.5-0.7c0-2.2-1.3-4-1.5-6.1
		c1.5-3.5,4.9-5.6,8.7-5.5c1.9,2.2,4.3-0.1,6.3,0.7c0.1,0.6,0.2,1.1,0.3,1.7C74.5,1837.2,70.4,1840.8,65.8,1843.3z"/>
	<path id="Trazado_18640" class="st0" d="M103.4,1853.5c-2.8,0.6-4.5-1.2-5.9-3c-2.8-3.5-2.8,1-4.2,1.3c-0.5-1.9-0.9-3.9-1.4-5.8
		c1.3-1,3.2-1,4.5,0C99.8,1847.5,101.6,1850.5,103.4,1853.5z"/>
	<path id="Trazado_18641" class="st0" d="M96.4,1846l-4.5,0c-1.2-1.7-4.6-1.3-4.3-4.4c3.3-1.6,4.9,4.1,8.3,1.9
		C96,1844.3,96.2,1845.2,96.4,1846z"/>
	<path id="Trazado_18642" class="st0" d="M-2.7,1821.5c-1.4,4.8-6.9,5.8-9,9.9c-0.5,0-0.9,0.1-1.4,0.2c-2.9-6,2.9-9.2,4.4-13.7
		c5.3-6.9,12-12.6,17.8-19c1.3-1.4,2.6-2.9,4.8-2.9c3.2,0.8,4.2,2.9,3.7,6c-0.6,2.1-2.3,2.9-4.2,3.4c-4.6,3.2-6.8,8.9-11.7,11.7
		C-1.1,1817.2-1.5,1819.7-2.7,1821.5z"/>
	<path id="Trazado_18643" class="st0" d="M-45.6,1860.2l-4.2,1.6c-2.1,0.9-4.3,1.3-6.3,2.5l-1.6,1.3c-3.3,0.9-6.7,1.8-10.2,0.7
		l0.1-0.5c-0.7-2.2,0.9-3.3,2.4-3.7c4.7-1.2,8.2-4.6,12.5-6.3c3.2-0.7,5.6-2.8,8.1-4.6c0.6-0.3,1.2-0.4,1.8-0.3
		c1.7,0.6,2.2,2,2.8,3.4C-41.3,1856.9-44.8,1857.3-45.6,1860.2z"/>
	<path id="Trazado_18644" class="st0" d="M-7.1,1818.4c-1.2,4.8-5.8,8-6,13.2c-0.5,1.3-1.5,2.4-2.9,2.8c-5.1-1.2-0.4-5.3-2.2-7.5
		c0-2.2,1.3-3.7,2.7-5.2c1.7-1.6,3.3-3.5,5.6-4.2C-8.8,1817.2-7.8,1817.6-7.1,1818.4z"/>
	<path id="Trazado_18645" class="st0" d="M-17.4,1827c2.1,0.3,3.1,1.2,1.6,3.3c-1,1.4-2.2,2.7-0.1,4.1c-2.5,3.1-5.1,5.9-9,7.1
		c-0.8-1.3-0.2-2.5,0.3-3.7c1.4-2.5,1.6-5.3,2.5-8C-21.2,1828.1-19.4,1827.1-17.4,1827z"/>
	<path id="Trazado_18646" class="st0" d="M-23.5,1838.6l-1.5,2.9c-4.2,2.8-6.7,7.6-11.7,9.3c-1.2-1.1-0.9-2.4-0.7-3.8
		c0.2-0.7,0.4-1.3,0.7-1.9c0.8-1.5,2-2.8,3.4-3.7c1.1-0.7,2.3-1.4,3.4-2.1C-27.8,1838.8-26.3,1833.2-23.5,1838.6z"/>
	<path id="Trazado_18647" class="st0" d="M-40.2,1854.3c-1.8-0.1-2.4-1.2-2.4-2.8c-0.3-1.7,0.7-2.1,2-2.4c1.7,0.2,3.4,0.5,2.7,2.9
		L-40.2,1854.3z"/>
	<path id="Trazado_18648" class="st0" d="M-38,1851.9c-0.6-1.2-1.9-1.9-3.2-1.9c0.5-3.9,2.7-4.4,5.9-2.8c-0.5,1.2-0.9,2.4-1.4,3.6
		L-38,1851.9z"/>
	<path id="Trazado_18649" class="st0" d="M16.4,1802.7c0.2-2.5-0.2-4.8-2.8-5.9c-0.3-4.8,2.9-6.7,6.8-8.1c3.4,0.5,3.5,3,2.8,5.4
		c-2,5.7-2.8,11.6-2.5,17.6c0.2,3-2,5.3-4.2,7.2c-0.8,0.3-1.6,0.1-2.2-0.5c-0.2-2.4-0.7-4.8,0.5-7.1c0.2-0.4,0.2-0.8,0.2-1.3
		C16.6,1807.8,14.5,1804.8,16.4,1802.7z"/>
	<path id="Trazado_18650" class="st0" d="M14.8,1811.3l0.1,7.3c0.8,0.9,1.2,2.1,1.2,3.2c-0.4,1.5-0.7,3.2-3,2.6
		c-1-0.7-1.5-1.8-1.4-3C13.4,1818.3,12.4,1814.3,14.8,1811.3z"/>
	<path id="Trazado_18651" class="st0" d="M-2.7,1821.5c0.4-5.3,0.7-5.6,4.4-4.5C0.8,1819-0.8,1820.6-2.7,1821.5z"/>
	<path id="Trazado_18652" class="st0" d="M16.4,1802.7c0.1,2.6,0.4,5.2-1.4,7.4c-0.3-1.7,0.1-3.6-1.7-4.7
		C13.9,1804,15.1,1803,16.4,1802.7z"/>
	<path id="Trazado_18653" class="st0" d="M13.1,1824.5c1.1-0.6,1.7-1.8,1.7-3c4,0.5,2.7,4.2,3.9,6.4c0.2,0.7,0.4,1.4,0.4,2.1
		c0.1,1.8,0,3.6-1.8,4.8C15,1831.8,10.7,1829.5,13.1,1824.5z"/>
	<path id="Trazado_18654" class="st0" d="M17.4,1834.9l0.2-5.9c4.6,1.6,3.3,4.3,1.5,7.2c-0.5,0-0.9,0.1-1.4,0.1
		C17.5,1835.8,17.4,1835.3,17.4,1834.9z"/>
	<path id="Trazado_18655" class="st0" d="M54,1847.2c-1.6,1.3-3.1,2.7-4.7,4.1c-4.8,0-9.7,0-14.5-0.1l-1.5-1.6
		c4.5-3.3,10.6-1.8,15.3-4.9c0.7-0.2,1.5-0.4,2.2-0.3C52.3,1844.5,53.6,1845.7,54,1847.2z"/>
	<path id="Trazado_18656" class="st0" d="M31.8,1848.2c-0.4,0-0.9-0.1-1.3-0.1c-1.3-1.4-1.2-4-3.1-4.8c-6.9-2.7-6.8-8.6-6.9-14.5
		c0-1.1,0.3-2.1,0.9-2.9c4.8-1.8,9.9-7.4,13.8,1.4c0.5,1.1,3.7,0.3,4.8,2.3c0.8,1.5-0.1,3,0.2,4.4c1.8-0.2,1.6-1.9,2.4-2.9
		c3.6-5.3,8.6-9.2,13.2-13.5c1.2-1.1,2.9-2.4,4.5-0.8c1.5,1.5,0.4,3.2-0.6,4.6c-1.5,2.2-3.7,3.9-5.5,5.8c-3.5,2.3-4.1,6.1-4.8,9.8
		c-0.3,1.2-0.8,2.4-1.4,3.6c-0.6,1.1-1.4,2.2-2.4,3c-1.2,1.2-2.5,2.3-3.8,3.3C38.6,1848.5,35.4,1849.9,31.8,1848.2z"/>
	<path id="Trazado_18657" class="st0" d="M21.9,1829c-0.1,5.4,0.7,10.4,6.1,13.4c2.2,1.2,2.6,3.3,2.5,5.6c-2.6-0.7-2.7-4.6-5.9-4.4
		l-4-1.7c-0.2-2-0.1-4.1-1.5-5.8c-0.3-2.4,0.9-5.2-1.5-7.2l0,0c-1.3-2-0.8-4.7,1.2-6c0,0,0.1-0.1,0.1-0.1
		C23.5,1823.1,19.9,1827.5,21.9,1829z"/>
	<path id="Trazado_18658" class="st0" d="M31.8,1848.2c4,1,6.8-2.2,10.4-2.8c1.2-0.7,2.2-1.7,3-2.9l1.5-2.9c6.8-0.9,3.1,3.4,2.8,5.9
		c-4.5,4.8-10.4,4.1-16.1,4.1L31.8,1848.2z"/>
	<path id="Trazado_18659" class="st0" d="M-103.7,1624c1.1-3.8,5.2-4.5,7.5-7.1c1.2,0.5,2.1,1.6,2.2,2.9c0.2,1.6,1.2,3,1.7,4.5
		c0.2,1,0.1,2.1-0.3,3c-0.5,0.9-1.2,1.7-2.1,2.3c-1.8,1.2-3.9,1.8-6,1.6c-1.4-0.2-2.7-1.1-3.4-2.3
		C-105.2,1627.2-104.2,1625.6-103.7,1624z"/>
	<path id="Trazado_18660" class="st0" d="M-84.5,1609.7c1.2-3.6,3.4-5.8,7.5-5.7c0.2,0.3,0.3,0.6,0.5,1c-0.2,3.9-1.1,7.2-6,7.1
		C-83.6,1611.7-84.3,1610.8-84.5,1609.7z"/>
	<path id="Trazado_18661" class="st0" d="M-84.5,1609.7l1.5,1.6c0.3,0.3,0.5,0.8,0.4,1.2s-0.1,0.7-0.2,0.7c-1,1.5-2.8,2.3-4.6,2
		c-0.7-0.2-1.3-0.5-1.8-1c-0.3-0.6-0.3-1.4,0.2-1.9C-88.1,1610.7-86.4,1609.7-84.5,1609.7z"/>
	<path id="Trazado_18662" class="st0" d="M-94.9,1619.8l-1.3-2.9l2.9-1.4c1.8-0.6,2.8,0.3,3.4,1.8c0.1,2.2-1.6,4-3.8,4.1
		C-94.8,1621.6-95.2,1620.9-94.9,1619.8z"/>
	<path id="Trazado_18663" class="st0" d="M-72.6,1599.6c0.9,1.3,0.8,3.1-0.1,4.4c-1.1,1.2-2.9,1.3-4.1,0.2c-0.1-0.1-0.2-0.1-0.2-0.2
		l0,0.1C-77,1601.1-75.4,1599.8-72.6,1599.6z"/>
	<path id="Trazado_18664" class="st0" d="M-103.7,1624c1.7,1.5-0.4,2.9-0.1,4.4c-0.4,0.4-1,0.7-1.6,0.8c-1.3-0.1-2.4-1-2.7-2.3
		c0-0.5,0.1-1.1,0.1-1.6L-103.7,1624z"/>
	<path id="Trazado_18665" class="st0" d="M-90.4,1617l-2.8-1.5c0.7-1.7,2.4-2.9,4.3-3.1c0,0.6,0.1,1.1,0.1,1.7
		C-88,1615.8-87.9,1617.1-90.4,1617z"/>
	<path id="Trazado_18666" class="st0" d="M-12.8,1603.5l-1.5,1.4c-2.6,5.3-8.4,6.7-12.5,10.2c-3.2,1-5.6,4.7-9.6,2.9
		c-1.1-2.5,0.7-3.9,2.2-5.4c4.1-2.2,7.5-5.4,9.8-9.4c0.5-0.5,0.9-1,1.4-1.4l1.7-1.2l2.7-0.4C-18,1603.8-14,1601.1-12.8,1603.5z"/>
	<path id="Trazado_18667" class="st0" d="M-23,1601.9c0,0.4-0.1,0.8-0.1,1.1c-1.3,2.1-3.3,3.8-5.6,4.7c-5.9,2.1-9.1-0.7-11.1-5.9
		c-1-1.3-2.7-2.3-2.2-4.3l0.2-0.3c3.3-1.6,6.1,1,7.7,2.4C-30.5,1602.6-27,1602.8-23,1601.9z"/>
	<path id="Trazado_18668" class="st0" d="M-69.8,1607.1c0.4-0.2,0.9-0.4,1.3-0.5c0.5,0.3,0.9,0.8,1.2,1.4c0.3,1.3,0.2,2.6-0.4,3.8
		c-0.4,0.9-1,1.7-1.6,2.4c-2.5,3.3-4.8,6.8-6.8,10.5c-0.2,0.6-0.5,1.2-0.8,1.8c-0.5,0.8-1.2,1.6-2.1,2.1c-2.9,1.9-3.7-1.7-5.8-2.1
		c-0.9-0.3-1.6-1-2.1-1.8c-0.3-0.6-0.4-1.2-0.4-1.8c0.1-1.3,0.5-2.5,1.1-3.6c1-1.7,2.2-3.2,3.6-4.4c0.9-0.8,2-1.5,3.1-2.1
		c1.5-0.8,3.3-1.1,4.3-2.7c0.4-0.4,0.8-0.8,1.3-1.1C-72.3,1608.4-70.8,1608.3-69.8,1607.1z"/>
	<path id="Trazado_18669" class="st0" d="M-55,1595.6l1.5-0.1c0.3,0.2,0.5,0.5,0.8,0.8c0.9,1.6,1.2,3.5,0.8,5.4
		c-0.2,1.1-0.6,2.1-1.3,2.9c-0.8,0.6-1.9,0.8-2.9,0.5c-1.6-2.4-3.8-1.4-6-0.9c-1.8,0.2-3.5,0.2-4.8-1.4
		C-64.1,1598.4-57.9,1599.7-55,1595.6z"/>
	<path id="Trazado_18670" class="st0" d="M-79.1,1614.1l-2.6,1.5c-0.3,0.5-0.9,0.7-1.5,0.4c-0.9-1.1-0.1-2.2,0.1-3.3
		c0-0.4,0.1-0.9,0.1-1.3c4.8-0.2,4.1-4.8,5.9-7.3l4.3,0c1.5,1,0.2,2.2,0.1,3.2c0.5,1.6-0.8,1.9-1.7,2.6v0
		C-75.2,1612-77.7,1612.4-79.1,1614.1z"/>
	<path id="Trazado_18671" class="st0" d="M-66.8,1602.7l5.9,0c1,0.9,1.7,2,2,3.3c0.1,0.7,0.2,1.3,0.1,2c-0.3,1.3-1.2,2.5-2.3,3.3
		c-4.3,1.8-5.3-1.9-7.2-4.2l-0.1-0.5C-68.2,1605.2-68.3,1603.6-66.8,1602.7z"/>
	<path id="Trazado_18672" class="st0" d="M-74.3,1609.9c0.6-0.9,1.1-1.7,1.7-2.6l2.8-0.2C-70.1,1609.9-72.1,1610-74.3,1609.9z"/>
	<path id="Trazado_18673" class="st0" d="M15,1605.3l-1.5,1.5c-3.4,1.7-6,2.1-5.8-3c-0.3-1-0.9-2-1.7-2.7c-0.9-0.8-2.1-1.2-3.3-1.1
		c-0.6,0-1.2-0.1-1.9-0.2c-2-1.1-2.1-2.9-1.8-4.9c3.3-1.9,6,0.4,9.1,0.9c5.8,1.1,3.4,4.2,3.1,7.4C11,1605.7,13.4,1605.1,15,1605.3z"
		/>
	<path id="Trazado_18674" class="st0" d="M-1,1594.9c1,1.5,1.9,3,2.9,4.5c0.3,0.4,0.3,1,0,1.5c-0.5,0-1,0-1.5,0
		c-2.2-0.4-2.8-4.1-5.8-3c-2,0.1-4.3-0.6-5.9,1.4c-1.9,1.4-3.9,1.8-5.8-0.1l4.2-3L-1,1594.9z"/>
	<path id="Trazado_18675" class="st0" d="M-53.5,1595.5c0-0.5,0-0.9,0-1.4l5.8,0.2c0,1,0,1.9,0,2.9c-0.7,0.8-1.7,1.2-2.8,1.1
		c-1.6-0.1-2.2-1.5-3.1-2.4L-53.5,1595.5z"/>
	<path id="Trazado_18676" class="st0" d="M-42,1597.4l3.1,2.6c-0.1,0.3-0.1,0.7-0.2,1c-0.9,2.4-3.1,4-5.6,4.4
		c-1.8,0.1-3.5-0.6-4.7-2c-0.4-0.6-0.5-1.3-0.4-2c0.8-2.5,3.2-2.1,5-2.9L-42,1597.4z"/>
	<path id="Trazado_18677" class="st0" d="M-44.8,1598.7l-4.4,2.9c-3.3-0.6-2.6-2.4-1.4-4.5l3,0L-44.8,1598.7z"/>
	<path id="Trazado_18678" class="st0" d="M-17,1599.1l5.8,0.1c-0.1,1.6,0.1,3.3-1.5,4.4c-1.2,0.1-2.4,0.2-3.6,0.4
		c-1.3,0.3-3,1.6-3.8,0.2c-0.4-0.7,1-2.5,1.6-3.8L-17,1599.1z"/>
	<path id="Trazado_18679" class="st0" d="M-108.1,1626.9l2.9,1.5c2.1,2.3,0.2,5,0.8,7.4c-0.1,1.3-0.9,2.5-2.1,3.2
		c-0.6,0.2-1.3,0.1-1.9-0.1c-1.2-1.2-1.2-3.5-3.4-3.8c-0.6-2.6,0-5.4,1.5-7.6c0.3-0.2,0.5-0.4,0.8-0.6L-108.1,1626.9z"/>
	<path id="Trazado_18680" class="st0" d="M-113,1623.6c1.6,0.6,2.8,1.8,3.4,3.3l0,0.1c-2,2-0.4,8.8-6.8,5.2
		C-117.2,1628.6-119.4,1624.4-113,1623.6z"/>
	<path id="Trazado_18681" class="st0" d="M-113,1623.6c-4.3,2.1-2.1,6-2.5,9.1c0.8,0.7,0.8,1.8,0.2,2.5c-0.1,0.1-0.1,0.1-0.2,0.2
		c-2.3,0.8-2.9-1.1-3.8-2.6c-0.3-0.9-0.4-2-0.2-2.9c0.5-1.8,0.7-3.7,0.4-5.6c0-0.6,0.1-1.3,0.2-1.9c0.4-0.9,1.2-1.5,2.2-1.7l2.9,0.1
		C-113.5,1621.9-113.3,1622.8-113,1623.6z"/>
	<path id="Trazado_18682" class="st0" d="M-95,1849.1l1-8.8c2.1-1.6,0.2-6.5,4.8-5.9c2.6,2.5,1.8,5.7,1.7,8.8
		c-0.1,4.8-0.8,9.6,2.1,13.9c1.1,1.6,1.6,3.2-0.4,4.5c-1.4,0.3-2.8,0-4.1-0.6C-94.3,1858.1-92,1852.4-95,1849.1z"/>
	<path id="Trazado_18683" class="st0" d="M-89.2,1834.6c-3,0.7-2.1,4.7-4.8,5.7c0.4-3-5-5.3-1.1-8.8c0.9-1.8,0.9-4.1,3-5.2
		c1.6-0.8,3.3-1.6,5-0.3c0.9,1.2,1.2,2.8,0.9,4.2C-86.4,1832.1-87.6,1833.8-89.2,1834.6z"/>
	<path id="Trazado_18684" class="st0" d="M-95,1849.1c1.7,1,5.2,0.4,3.5,4.3c-1.1,2.5,0.1,4.5,1.8,6.2c1.2,1,1.3,2.8,0.3,4
		c-0.1,0.1-0.2,0.2-0.2,0.3C-95,1860.2-94.3,1854.4-95,1849.1z"/>
	<path id="Trazado_18685" class="st0" d="M-89.6,1863.8c0-1.4-0.1-2.8-0.1-4.2c1.2-0.2,2.4,0.4,3.1,1.4c3.8,1.1,6.4,2.9,4.2,7.4
		l-4.1-0.3C-86.8,1866.3-87.9,1864.6-89.6,1863.8z"/>
	<path id="Trazado_18686" class="st0" d="M-91.9,1827.4c-0.9,1.5-1.4,3.3-3.3,4.1l-1.3-1.3c-0.1-0.5-0.2-1.1-0.2-1.6
		c-0.1-1,0.3-2,1.2-2.5c1.1-0.8,2.5-1,3.7-0.4C-91.4,1826.2-91.4,1827-91.9,1827.4z"/>
	<path id="Trazado_18687" class="st0" d="M-51.5,1857.1l-16.3,8.6l-2.8,1.4c-3.1,0.6-2.3-3.1-4.2-3.8c-0.9-1.4-1-3.2-0.4-4.8
		c0.8-2,1.9-3.8,4.5-3.6c1.8,2.3,3.3,1.9,5.3,0c2-1.9,4.4-4.7,6.8-0.1c1.1,2.2,1.9,0.1,2.6-0.4c1.5-1.2,2.5-2.9,4.3-3.9
		c1-0.4,2-0.6,3-0.4c0.7,0.2,1.3,0.5,1.8,1C-46.8,1854.4-49.7,1855.4-51.5,1857.1z"/>
	<path id="Trazado_18688" class="st0" d="M-73.5,1859.7c-0.2,1-1.5,2,0,3c-0.1,4.9-3.7,5.8-7.3,6.7l-1.6-0.9
		c0.2-3.4-2.2-5.2-4.2-7.4c1.4-1,1.4-2,0-3c0.3-5.2,3.8-5.6,7.8-5.3c0.6,0.3,1.2,0.7,1.5,1.3c0.3,1.1,0.1,2.5,1.5,3.1
		C-74.7,1857.8-74.2,1858.8-73.5,1859.7z"/>
	<path id="Trazado_18689" class="st0" d="M-80.8,1869.4l7.3-6.7c3.7-0.3,1.4,3.4,2.9,4.5C-73.9,1868.6-76.4,1873.3-80.8,1869.4z"/>
	<path id="Trazado_18690" class="st0" d="M-67.9,1866.3c3.3-1.4,6.8-0.8,10.2-0.7C-61,1867.3-64.2,1870.4-67.9,1866.3z"/>
	<path id="Trazado_18691" class="st0" d="M-56.1,1864.2c1.4-2.5,3.6-3,6.3-2.5l-3.1,2.8C-54,1864.5-55,1864.4-56.1,1864.2z"/>
	<path id="Trazado_18692" class="st0" d="M101.9,1846.3c-0.4,0-0.9-0.1-1.3-0.2c-1.1-1.7-2.6-3.2-4.3-4.3l0,0
		c-1.8-1.5-4.3-2.6-3.6-5.8c3.2-4.5,6.9-6.2,11.8-2.5c1.4-1.1,2.9-2.2,4.3-3.3c0.8-0.6,1.8-0.8,2.8-0.6c2.2,1.3,1.5,5.2,6,5.2
		c2.5,0-0.3,5.1,0.6,7.8c0,1.1-0.2,2.1-0.6,3.1C112.5,1849.5,107.3,1849.9,101.9,1846.3z"/>
	<path id="Trazado_18693" class="st0" d="M101.9,1846.3c4.9,1.4,10.2,0.9,14.7-1.3c1.1-1.6,2.2-3.2,4.4-1.4c0.8,2.3,3.3-0.2,4.4,1.6
		c-4.2,2.5-9.2,3.1-13.6,5.7C108.3,1853,104.4,1849.8,101.9,1846.3z"/>
	<path id="Trazado_18694" class="st0" d="M96.2,1841.8c2.3-0.1,4.2,1.7,4.3,4c0,0.1,0,0.2,0,0.3l-4.1-2.9
		C96.4,1842.7,96.3,1842.2,96.2,1841.8z"/>
	<path id="Trazado_18695" class="st0" d="M116.7,1842.1c0.7-1.8,2.5-2.9,4.4-2.8c2.1,1.5,0.4,2.9-0.1,4.4l-4.4,1.4L116.7,1842.1z"/>
	<path id="Trazado_18696" class="st0" d="M97.4,1660.6l-1.4,1.4c-3.3,5-8.8,8-11.9,13.3c-0.6,0.8-1.3,1.5-2.1,2.2
		c-1.4,1.4-3.1,2.6-4.9,3.4c-2.5,0.9-4.7,0.7-6.5-1.4c-0.6-2.3,0.9-3.8,2.2-5.4c2.2-1.9,3.4-5.1,7.1-4.8c4.2-0.8,4.9-6,8.9-7
		c2.7,0.5,3.2-1.6,4-3.4c2.2-4,5.4-7.4,9.3-9.8C102.2,1653.5,95.6,1655.4,97.4,1660.6z"/>
	<path id="Trazado_18697" class="st0" d="M80,1657.8l-0.2,3.9l-1.4,3c-2.1,1.4-0.2,6.6-5.1,5.5c-1.1-1.6-1.4-3.7-0.9-5.6
		C74.2,1661.6,74.6,1656.9,80,1657.8z"/>
	<path id="Trazado_18698" class="st0" d="M73.9,1670.5c2.1-1.4,1.5-5,4.5-5.7c0.5,1.4,0.9,2.9,1.4,4.4l-5.8,6
		C70.5,1673.7,71.3,1672.1,73.9,1670.5z"/>
	<path id="Trazado_18699" class="st0" d="M92.7,1658.7c2.5,2.8-0.9,3.4-2,4.6c-1.3,1.3-1.8,0.1-2-1.2L92.7,1658.7z"/>
	<path id="Trazado_18700" class="st0" d="M80,1657.8c-2.9,1.5-3.9,4.6-6,6.9c-1.9,2.2-1.8,6.3-5.9,6.6c-1.4,0-2.8-0.9-3.4-2.2
		c-0.2-1,0.1-2.1,0.9-2.9c4.7-3.3,6.6-8.9,10.5-12.9c1.2-1.2,2.4-2.6,0.9-4.3c-1.5-1.7-2.4,0.1-3.5,0.8c-1,0.7-1.8,1.6-2.7,2.3
		c-0.8,0.7-1.8,1.1-2.8,1.2c-1.1-0.2-1.9-1-2-2c-0.4-1.5,1-3.2-0.4-4.8c-3.2,0.3-4.3,4.4-7.6,4.5c-10.7-2.6-0.9-7.3-1.3-11.6
		c-1.9,0.4-3.3,2.4-5.3,2.1c-1-0.2-1.9-0.8-2.4-1.7c-0.4-2.5-1.6-5-0.9-7.6c0-0.5,0-0.9,0-1.4l4.5-4.4c1.9-1.5,3.7-3.1,5.8-4.4
		l0,0.1c1.4-0.7,3.1-2.7,4.4-1.2c2.2,2.6-1.8,5.1-0.8,8.2c2.7,1.2,4.4-1.4,6.6-2.5l1.5-0.2c1,0.8,1.4,2.1,1,3.3
		c-1.5,1.5-0.2,2.2,0.8,2.9c4.9,0.2,7.9-4.7,12.8-4.6l1.4,0.2c3.3,1.7,1.8,4.4,1.4,6.8c-0.3,1.1-1.2,2.2-0.1,3.3
		c1.4-0.1,2.7,0.9,3,2.3C85.1,1645.3,85.2,1653.2,80,1657.8z"/>
	<path id="Trazado_18701" class="st0" d="M86.1,1635.6c-0.4-2.4,1.6-4.8,0.1-7.3c0-0.4,0-0.9,0-1.4c1.2,0,2.3-0.6,2.8-1.7l0-0.1
		c4,1.2,2.3,3.7,1.4,6c0,0.5,0,1,0,1.5C88.9,1633.6,88.8,1636.6,86.1,1635.6z"/>
	<path id="Trazado_18702" class="st0" d="M90.6,1631.3c-0.2-2.1,0.5-4.4-1.4-6c0.6-0.9,1.1-1.8,1.7-2.6l2.8,2.9
		c-0.3,1.1-1.6,2.1,0,3.2c-0.5,0.8-1.1,1.7-1.6,2.6l-0.7,0L90.6,1631.3z"/>
	<path id="Trazado_18703" class="st0" d="M86.1,1635.6c1.5-0.9,2.2-3,4.4-2.8c0.1,2.5-2.1,3.8-3,5.8
		C85,1638.5,85.4,1637.2,86.1,1635.6z"/>
	<path id="Trazado_18704" class="st0" d="M-99.3,1828.6c0.9-1.9,2.6-3.4,4.6-4.2c0.7,1.1,0.8,2-0.5,2.7c-0.5,0.5-0.9,0.9-1.4,1.4
		L-99.3,1828.6z"/>
	<path id="Trazado_18705" class="st0" d="M68.7,1626.7c-0.5,0.8-1.1,1.6-1.7,2.3c-2.1,1.8-4.3,5.3-7.1,3.4c-3.2-2.2-0.4-5.3,1.2-7.5
		c3.7-5.2-1-2.6-2.5-2.8c0.8-4.1,5.7-2.7,7.5-5.5c2.5,2.6-0.6,4.3-1.2,6.3C63.5,1627,65.5,1627.3,68.7,1626.7z"/>
	<path id="Trazado_18706" class="st0" d="M70.1,1631l0.1-4.5c0-0.9,0-1.9,0-2.8l2.8-1.5c1.8,1.6-1.8,5.8,2.9,6l3,0.1
		c0.6,1.2-0.2,1.9-1,2.5C75.3,1631.6,72.8,1635.2,70.1,1631z"/>
	<path id="Trazado_18707" class="st0" d="M77.5,1629.7l1.5-1.4c1.9-0.1,3.9-5.4,5.8,0c-2.2,3.9-11.6,7.6-14.7,5.7
		C72.8,1632.9,75.2,1631.5,77.5,1629.7z"/>
	<path id="Trazado_18708" class="st0" d="M58.5,1622c-0.9,2.5-3.2,4.2-5.8,4.4C53.6,1623.5,55.3,1621.8,58.5,1622z"/>
	<path id="Trazado_18709" class="st0" d="M16,1636.1c2.7-3.6,2.8-9.5,8.9-10.1c1.1,4.9-1,9.2-3.9,12.6c-6.2,7.2-11.3,15.2-17.1,22.7
		c-2.7,3-4.7,6.5-6,10.2c-4.4,6.4-9.7,11.9-15,17.5c-2.9,2.9-4.6,6.9-4.8,11c-1.2,4.1-4.7,6.3-7.4,9.2c-2.1,2-4.2,4-6.3,6.1
		c-3.8,4.4-9.5,6.8-13,11.6c-7,7.7-13.4,15.9-22.6,21.2c-2.3-0.2-4.7,0.2-7-0.4c-1.9-1.1-3.2-2.7-3-5.1
		c7.6-10.4,15.8-20.3,24.6-29.7c0.6-0.2,1.2-0.4,1.9-0.5c5.1-1.5,7.4-5.7,9.7-9.9c3.5-5.5,7.7-10.5,11.7-15.6c1.5-1.9,2.9-4,5.8-3.4
		c1.5,0.8,0.3,2.7,1.4,3.7c2.3-1.4,3.6-3.7,5.2-5.7c7.1-8.1,12.7-17.2,19.1-25.9c3-2.7,5-6.1,7.5-9.1
		C9.1,1642.9,10.6,1637.6,16,1636.1z"/>
	<path id="Trazado_18710" class="st0" d="M-19,1634.1c5-4.8,5.8-12.3,12.1-17.2c-4.2-1.3-5,1.3-6.3,3c-5.9,8.2-11.9,16.4-17.9,24.5
		c-1.1,1.4-2.1,4.1-4.3,2.6c-2.3-1.6-1.2-3.9,0.6-5.5c3.9-3.5,5.9-8.9,11.1-11.2c3.6-1.6,1.8-5.4,3.1-8.8l-4.2,2.2
		c-7.8,3.1-13.4,9.3-20.5,13.5c-0.7,0-1.4-0.2-1.9-0.6c-1.5-5.3,3-7.1,5.9-9.7c3.7-3.3,8.8-5.2,11.3-9.9c0.9-1.5,2.6-2.1,4-3
		c3.6-2.3,6.6-6,11.7-4.8c2.3-1.2,4.2-3.1,7.2-2.9c2.2,0.2,3.1-0.7,4,3c1.5,6.1,7.1,10.1,13.5,12c0.7,6.2-4.4,7.1-8.2,9.2
		c-2-0.4-3.8-1.5-5.2-3c-0.1-0.2-0.3-0.5-0.2-0.6c0.3-0.6-0.2-1.1-0.4-0.8c-2.8,5.6-6.7,10.5-11.5,14.5c-4,1.1-4.6,6.5-9,7.1
		c-0.7,0-1.3-0.4-1.6-1c-0.5-3.2,2.5-4.5,3.6-6.8l0,0C-21.3,1637.8-18.1,1637-19,1634.1z"/>
	<path id="Trazado_18711" class="st0" d="M1.5,1630c2.5-3.4,7.2-4.4,8.9-8.6l1.5-1.4c5.1,1.3,3.8,4.6,2.2,7.6
		c-1.6,3-4.4,5.1-6.4,7.8c-3.2,3.9-6.3,7.9-9.3,12c-13.8,18.7-28.3,36.7-42.4,55.1c-3.2,3.8-5,8.8-9.7,11.5l-1.5,0
		c-1.5-1.7-0.8-3.4-0.1-5.1c11-18.2,24.1-34.8,36.2-52.2c5.6-6.7,9.8-14.4,15-21.4C-2.7,1633.1-1.6,1630.4,1.5,1630z"/>
	<path id="Trazado_18712" class="st0" d="M2.5,1660.7c4.5-7.9,9.9-15.3,16.1-22c3.6-3.8,3.9-8.7,6.3-12.8c3.3-0.6,2.4-5.4,6-5.7
		c-1.1,3.4-2.1,6.7-3.2,10.1c-2,4.8-4,9.7-6,14.5c1,1.1,1.5,2.5,1.4,4c-0.4,4.5-4.4,7.1-5.8,11.1c-3.6,5.8-10,8.9-14.2,14.2
		c-1.5,1.2-3,2.6-4.9,1.3c-2.4-1.6-0.3-3.8-0.2-5.7c0.5-2.1,1.9-3.9,3.8-4.7C5.6,1663.8,2.1,1662.1,2.5,1660.7z"/>
	<path id="Trazado_18713" class="st0" d="M5.8,1634.4c1.9-2.1,3.9-4.3,5.8-6.4c2.3-2.6,3.6-5.3,0.2-8.1l2.8-4.9
		c2.5,1-0.4,2.7,1.3,3.8c1.1,0.3,1.6-1,2.3-1.8c0.9-1,1.6-2.6,3.4-1.4c1.8,1.2,0.4,2.5,0,3.8c-1.5,4.8-6.3,7.9-6.5,13.4
		c0,1.2-0.5,2.3,0.8,3.2c-3,3.8-5.9,7.7-8.9,11.6c-4.1,0.9-4.5,8.3-10.4,6c-1.1-6.1,6-8.2,6.6-13.5
		C3.4,1637.9,6.9,1637.2,5.8,1634.4z"/>
	<path id="Trazado_18714" class="st0" d="M-14.3,1609.3l-11.8,5.7c-1.5,0.5-1.8-0.2-1.4-1.5l13.3-8.6L-14.3,1609.3z"/>
	<path id="Trazado_18715" class="st0" d="M1.9,1600.8l0-1.5l0,0c2.3-1,3.8,1.2,5.8,1.6c1.4,1,1.4,2,0,2.9l-6.9,1.8
		C1.1,1603.9,1.5,1602.3,1.9,1600.8z"/>
	<path id="Trazado_18716" class="st0" d="M-5.4,1597.8c3.3-1.6,4.5,0.9,5.8,3C-2.2,1601.2-5.2,1602.1-5.4,1597.8z"/>
	<path id="Trazado_18717" class="st0" d="M33.5,1630.4c0.5,1.7,1,3.4,1.6,5l-2.9,2.5C29.5,1634.8,30.5,1632.4,33.5,1630.4z"/>
	<path id="Trazado_18718" class="st0" d="M21.6,1649.3l0.1-4.4c2.8,0.2,6.1-0.9,7.2,3.1c0.5,0.4,0.6,1.1,0.4,1.7
		c-0.6,1.2-1.8,1.9-3,2.2c-0.6,0.1-1.3,0-1.9-0.2C23.3,1651.2,22.3,1650.4,21.6,1649.3z"/>
	<path id="Trazado_18719" class="st0" d="M28.9,1649.4c0-0.5,0-1,0-1.4l3-1.4c0.5,0,0.9,0,1.4,0c1.6,2.6,0.7,4.8-1.8,5.8
		C29.8,1653,28.5,1651.6,28.9,1649.4z"/>
	<path id="Trazado_18720" class="st0" d="M28.9,1649.4c2.9,2.6,2.9,2.6,4.4-2.8c4.9-4.8,9-10.5,14.8-14.3c2.7,2,3.5,4.4,1.3,7.3
		c0.4,0.6,0.3,1.4-0.1,2c-0.5,0.8-1,1.6-1.5,2.4c0.5-0.8,1.1-1.5,1.8-2.2c0.4-0.3,0.8-0.6,1.2-0.7c3.3-1.1,4.5-5.8,10-5.3
		c-4.4,3,0.8,9.5-6.2,11.2c-1.1,0.3,1.5,2.6,3.4,3c0.1,4.4-3.7,5.1-6.5,6.5c-2.6,1.3-4.5,3.7-7.3,4.6c-1,0.2-2.4,0.5-2.8-0.1
		c-4.3-6.5-6.5-1-9.1,1.6c-1.8,1.8-3.5,3.4-6.3,2.2c-2.3-2.2-0.4-5.1-1.3-7.5c-0.1-1.6,0-3.2,0.1-4.8c0.1-0.6,0.5-1.2,0.9-1.6
		L28.9,1649.4z"/>
	<path id="Trazado_18721" class="st0" d="M77.2,1831.2c-0.9,0.7-1.8,1.5-2.7,2.1c-1,0.7-1.8,2.7-3.3,1.1c-0.5-0.6,0.2-2.2,0.3-3.3
		c0.1-0.3,0.3-0.6,0.4-0.9c1.1-1.5,2.9-2.5,3.2-4.5c-0.6-3.1,2.9-5.2,2-8.4c6.1-5.6,9.8-4.2,12.2,4.7c0.9,0.9,2.2,1,3.2,1.6
		c1.8,0.9,4.9-0.6,5.4,2.4c0.5,3.1-2.1,4.5-4.4,5.9c-4.8-1.3-9.5-3.1-14.7-2.3L77.2,1831.2z"/>
	<path id="Trazado_18722" class="st0" d="M78.9,1829.6c5.3-2.9,10-1.2,14.5,1.9c1.3,1.5,1,2.9-0.1,4.4c-0.2,2.5,2,3.9,2.8,5.9
		c-1.2-0.6-3.4-1-3.6-1.8C90.8,1832.7,84.7,1831.4,78.9,1829.6z"/>
	<path id="Trazado_18723" class="st0" d="M54,1847.2c-1-0.6-2.1-1.2-3.1-1.7c0.4-5.4,4.3-3.8,7.4-3.8c2,0.5,2.4,2.2,2.6,3.9
		C59,1848.1,56.2,1846.4,54,1847.2z"/>
	<path id="Trazado_18724" class="st0" d="M60.9,1845.5l-2.7-2.9c1.9-4.5,3.8-1.8,5.8-0.1l0.2,0.3L60.9,1845.5z"/>
	<path id="Trazado_18725" class="st0" d="M64,1842.6c-1.9,0.6-3.9-2.3-5.8,0.1c-2.2,1.5-6-1.1-7.3,2.8c-0.5,0-1,0-1.4,0
		c-2.7-1.1,1.9-5.8-2.8-5.9c0.5-1,1-1.9,1.5-2.9c2.4-4.4,6.1-7.6,9.3-11.4c7.2-7.6,13.4-16.2,21.8-22.6c1.4,0,2.8,0.8,3.3,2.2
		c0,3.3-2.7,5.1-4.5,7.2c-6.6,7.1-12.3,15-19.3,21.8c-0.7,0.7-0.3-0.3-0.5,0.5c-0.3,1.3,1,0,1.4,0.5c1.3,0.3,2.4,1.1,3.1,2.2
		C65.6,1838.2,68.3,1839.7,64,1842.6z"/>
	<path id="Trazado_18726" class="st0" d="M62.7,1836.9c-1.2,0.1-2.3-0.5-2.9-1.5c4.5-7.2,10-13.5,17.8-17.3c1.1,0.3,2.7,0.2,3.2,0.9
		c1.1,1.4-0.4,1.9-1.5,2.2c-3.7,1-1.9,3.6-1.8,5.7c-2.2,1.1-4.2,2.6-5.9,4.3l0,0C68.6,1833,64.8,1833.7,62.7,1836.9z"/>
	<path id="Trazado_18727" class="st0" d="M51.1,1733l-4.5,5.8c-1.9,1.9-2.4,5.1-5.3,6.2c-1.2-0.1-2.1-1-3.3-1.3
		c-3.6,1.3-6.6,3.7-8.8,6.8c1.5-1.4,2.5-4,5.4-3.5c0.5,0.4,0.9,1,1.1,1.7c0.1,1.8-0.4,3.5-1.4,5c-3,5.4-9.5,7.7-12.1,13.3
		c-0.6,1.2-3.2,2.2-0.8,4.1c1.2,0.2,2.4,0.4,3.5,0.6c1,0.1,1.9,0.4,2.8,0.9c5.9,9.7,5.9,9.7-0.1,15.9c-2.6,1.2-5.7-1.5-8,1.2l-6,7.1
		c-6.9,7.2-13.8,14.5-20.7,21.7l-2.9,0.1c-1.2-1.6-0.5-3.2,0.2-4.8c3.4-1.4,2.2-4.8,3-7.3c1.8-3.7,5.7-5.9,7.3-9.7
		c-1.3,1.3-3,2.1-4.8,2.3c-2.7-1.8-3.2,1.4-4.9,2.1c-4.2,1.8-7.9,4.9-12.8,4.8c-1.7,1.2-3.2,2.7-5.5,2.6c-0.7-0.1-1.3-0.5-1.8-1
		c3-8.6,9.5-15.6,17.9-19.2c1,0.3,1.8,1.1,2.2,2.1c0.1,0.5,0.1,1.1-0.3,1.3c-0.6,0.5-0.3,0.8-0.1,0.4c3.5-5.1,7.4-9.9,11.5-14.6
		c1.3-1.1,2.9-1.8,3.6-2.8c-1.1,0.9-2.2,1.8-3.4,2.6c-0.5,0.5-1.1,0.9-1.7,1.2c-1,0.4-2.1,0.5-3.2,0.4c-6.8-1.9-3.9-4.6-0.7-7.4
		c5.1-3.8,9.6-8,12.2-14c1.3-3,3.5-4.6,6.8-4.1c3.4-0.9,4.2-4.5,6.9-6.2c2-1.7,3.7-3.7,5.1-5.9c2.8-3.2,6.7-5.4,8.9-9.2
		c1-1.2,2.3-2.2,3.7-3c0.5-0.2,1.2-0.3,1.7-0.3c1.1,0.2,2.2,0.3,3.3,0.2c0.6,0.1,1.1,0.3,1.6,0.5c1.2,0.2,2.3,0.5,3.4,0.8
		C51.1,1731.3,51.7,1731.9,51.1,1733z"/>
	<path id="Trazado_18728" class="st0" d="M-35.3,1847.1c-2.3,0.1-4.4,1.1-5.9,2.8l-1.5,1.4l-1.5,0c-0.5-0.5-0.8-1.2-0.8-1.9
		c0.6-3.3,3.2-5.8,6.5-6.2c1.5,0.1,2.7,1,3.2,2.4C-35.3,1846.2-35.3,1846.7-35.3,1847.1z"/>
	<path id="Trazado_18729" class="st0" d="M-44.1,1849.9v1.5c-1.1,3.6-4.1,4.9-7.4,5.7c0.8-2.4,2.8-4,4.5-5.8
		C-46.5,1850-45.7,1849.2-44.1,1849.9z"/>
	<path id="Trazado_18730" class="st0" d="M-5.5,1806.7c-0.1,1.7,0.1,3.3,0.3,5c1.3,4.6-2.2,1.6-3.4,2.3c-1.9,3-3.9,6-5.9,8.9l-3,4.2
		c-0.9,1.7-2.5,2.9-4.5,3.2c-0.3,0-0.6,0.1-0.9,0.1c-3.3,1.9-6.6,3.7-8.8,7c-1.7,1.9-4.5,2.3-5.8,4.7c-4.2,2.6-6.9,6.8-11.1,9.4
		l-2.9,0c-0.8-0.8-1-1.9-0.8-2.9c7-8.7,14.8-16.7,23.5-23.7c2.9-2.2,4.7-5.5,7-8.2c0.6-0.8,1.4-1.5,2.1-2.1c1.1-0.8,2.3-1.4,3.6-1.7
		C-11.3,1812.8-10.6,1805.9-5.5,1806.7z"/>
	<path id="Trazado_18731" class="st0" d="M-14.4,1822.8c0.7-3.6,2.8-6.8,5.9-8.9c-0.5,1.5-1,3.1-1.5,4.6
		C-11.5,1819.9-13,1821.4-14.4,1822.8z"/>
	<path id="Trazado_18732" class="st0" d="M-23.5,1838.6c-3.7-2.7-3.4,3.1-5.9,2.8c-1.4-0.4-2.3-1.7-2.4-3.1c0.1-0.7,0.2-1.4,0.4-2
		c2.6-3,5.4-5.7,9.6-6.6l0,0.4C-19.9,1833.4-21.6,1836-23.5,1838.6z"/>
	<path id="Trazado_18733" class="st0" d="M-35.3,1845.7l-2.8-1.5c-1-1.7,0.6-2.5,1.3-3.5c0.9-0.5,2.1-0.7,3.1-0.3
		c1,0.5,1.8,1.2,1.3,2.5L-35.3,1845.7z"/>
	<path id="Trazado_18734" class="st0" d="M-32.4,1842.8l-1.8-1.7c0.1-2.1,1-3.2,3.3-2.8l1.4,3L-32.4,1842.8z"/>
	<path id="Trazado_18735" class="st0" d="M19.6,1789.7c1.7-4.2,4.2-4.2,7.3-1.5c2.9,9.4,2.8,18.5-3.2,26.9c-2.1,1.8-2.7,5.3-6.1,5.8
		c-1.2-0.3-2-0.8-1.4-2.2c4.2-8.3,0.4-18.2,5.4-26.4C22.7,1790.6,21.3,1789.8,19.6,1789.7z"/>
	<path id="Trazado_18736" class="st0" d="M16.2,1818.7l1.3,1.5c1,0.6,1.6,1.7,1.4,2.9c-0.5,1.9-1,3.9-1.5,5.8
		c-2.5-1.9-0.5-5.5-2.7-7.4c0-0.9,0.1-1.9,0.1-2.9C15.4,1818.7,15.8,1818.7,16.2,1818.7z"/>
	<path id="Trazado_18737" class="st0" d="M39.4,1830.7c-2.2-2.7-4.8-1-7.4-0.4c0.6-4.5,1.7-9-5.1-4.8c-1.3,0.8-3.3,0.4-5,0.5
		c1-4.1,2.1-8.1,6.9-9.4c3.1,0.8,5.4-0.2,7.7-2.4c6-5.9,12.2-11.7,18.2-17.7c1.9-1.9,3.8-4.7,7.3-3.6c1.9,5.8-4.3,7.3-6,11.2
		c-4.6,6.7-12.4,10.7-15.4,18.9c4.1-2.2,7.6-5.3,10.4-9c6.1-7.9,14.2-13.8,20.2-21.8c1.1-1.3,2.5-2.3,4.2-2.8
		c4.5-1.7,7.1-5.6,10.1-9c4.4-4.8,8.8-9.8,13.2-14.7c3.3-3.5,6.9-6.8,7.9-11.9c0.5-1.6,1.6-3,3.1-3.7c3.6-2.9,6.2-6.9,7.4-11.3
		c2.4-6.4,6-5.8,10.2-1.7c0.9,5.9-3.6,9.4-6.6,13.1c-6.6,8.3-12.5,17.2-19.5,25.2c-7.3,8.4-14.4,17.1-22.6,24.7
		c-1.5,1.6-3.2,3-5,4.2c-1.1,0.6-2.4,1.2-3.3,0.1c-0.8-0.8-0.9-2.1-0.1-2.9c-5.7,10.4-17.1,17.6-26,27.1
		C43.1,1830.1,41.8,1831.9,39.4,1830.7z"/>
	<path id="Trazado_18738" class="st0" d="M39.4,1830.7c13-10.5,23.9-23.3,36.4-36.4c0,5-4.2,5.8-4.9,9.4c7-6.5,13.7-12.7,20.2-18.9
		c3.3-3.2,4.8-7.9,9-10.2c5,3,1.2,6-0.1,8.9c-2.2,1.1-4.9,1.5-6.1,4.1c-5.1,5.1-8.3,11.9-14.7,15.9l-20.8,23.1c-2,0.4-4,4.1-5.8-0.1
		c2.4-2.8,4.8-5.6,7.2-8.4c-6.2,3.7-11.6,8.5-16,14.1c-2.1,1.2-2.3,5.1-5.9,4.3C35,1833.7,39.2,1832.7,39.4,1830.7z"/>
	<path id="Trazado_18739" class="st0" d="M29.4,1817.4c-3.9,1.7-4.7,6-7.4,8.7l-0.1,3c-2.2-1.3-0.5-4.6-2.9-5.9
		c-0.5-1-1-1.9-1.4-2.9c2.1-1.4,1.5-5,4.5-5.8c2.9,1.5,4.9-0.5,7.1-1.7c1.8-0.6,4.3-3.1,5,0.5C34.9,1816,32.8,1818,29.4,1817.4z"/>
	<path id="Trazado_18740" class="st0" d="M52.6,1826.5c1.9,1.4,3.9-0.6,5.8,0.1c-2.9,3.9-6.4,7.3-10.4,10.1
		C47.2,1832.2,48.1,1828.6,52.6,1826.5z"/>
	<path id="Trazado_18741" class="st0" d="M37.9,1836.5c2.5-0.7,2.8-4.4,5.9-4.3C43,1835.3,42.3,1838.4,37.9,1836.5z"/>
	<path id="Trazado_18742" class="st0" d="M45.1,1842.5c0.4,2.6-0.4,3.4-3,2.9c0-1.6,1.2-2.8,2.7-2.9
		C44.9,1842.4,45,1842.4,45.1,1842.5z"/>
	<path id="Trazado_18743" class="st0" d="M-86.1,1622.8l0,1.6c0.8,2.8-0.5,5.1-2,7.2c-1.1,0.9-1.7,2.4-1.6,3.8
		c-0.3,3-2.6,4.3-4.7,5.9c-1.1,0.8-2.5,1-3.8,0.6c-1.3-1.5,0.2-4.8-3.3-4.9c-0.5-0.9-0.7-1.9-0.4-2.9c1.2-3.2,5.3-3.1,6.8-5.9
		l1.4-1.2C-91.5,1625-90.1,1621.6-86.1,1622.8z"/>
	<path id="Trazado_18744" class="st0" d="M-90.4,1617c1-0.6,1.6-1.7,1.5-2.9l1.5,0.1c0.7,0.8,1.1,1.8,1.2,2.8
		c-0.2,1.8-0.8,3.4-1.9,4.8c-1.5,1.4-2.8,3.2-5.2,2.6c-1.4-1.2-5-1.7-1.5-4.6C-91.8,1621.3-91.7,1618.2-90.4,1617z"/>
	<path id="Trazado_18745" class="st0" d="M-93.3,1624.4l4.3-3.1c1.1-1.3,2.1-3,4.2-1.6l-1.3,3.1l-7.6,4.2
		C-93.6,1626.2-93.5,1625.3-93.3,1624.4z"/>
	<path id="Trazado_18746" class="st0" d="M-95.1,1628.3c-0.4,3.5-3.6,4.3-5.8,6c-0.8,0.8-2,1-2.9,0.3c-1.1-3,1.1-3.7,3.2-4.5
		L-95.1,1628.3z"/>
	<path id="Trazado_18747" class="st0" d="M-100.6,1630.1l-3.2,4.2c-0.1,0.8-0.8,1.4-1.7,1.4c-2.6-2.5,0.6-4.8,0.3-7.2
		c0.5,0,0.9,0,1.4,0L-100.6,1630.1z"/>
	<path id="Trazado_18748" class="st0" d="M-87.4,1617c0-0.9,0.1-1.9,0.1-2.8l4.3-1.5c1.5,1,0.2,1.9,0,2.8
		C-84.1,1617.2-85.2,1618.7-87.4,1617z"/>
	<path id="Trazado_18749" class="st0" d="M-33.3,1613.4l-3,4.3c-0.2,5.1-4.2,6.2-7.9,7.6c-4.9,0.7-7.6,6.1-12.9,6
		c-3.9-2.4-1.1-4.6,0.3-6.8c1.5-1.8,3.2-3.4,5-4.8c1.6-0.9,3.1-2.1,4.5-3.3c0.7-0.7,1.4-1.3,2.2-1.9c2.8-1.9,5.8-3.5,8.7-5.1
		c0.7-0.2,1.4-0.3,2.1-0.3C-31.5,1610-30.5,1611.2-33.3,1613.4z"/>
	<path id="Trazado_18750" class="st0" d="M-45.2,1623.5c4.1-0.2,6.2-3.3,8.8-5.7c3.5-0.3,5.6-3.4,8.8-4.3c0.5,0.5,1,1,1.4,1.5
		c-1,1-2,1.9-3,2.9c-7.9,6.7-17,12.1-24.1,19.7c-2,1-3.8,3.9-6.1,0.5C-57.3,1630.5-49.8,1628.4-45.2,1623.5z"/>
	<path id="Trazado_18751" class="st0" d="M-33.3,1613.4c0.9-1.8,0.7-3-1.6-3.1c0.1-4.1,4.4-2.4,6-4.3l5.8-3.1
		C-24.2,1608.7-28,1611.8-33.3,1613.4z"/>
	<path id="Trazado_18752" class="st0" d="M-28.9,1606.1c-2,1.4-4,2.8-6,4.3c-0.4,0-0.8,0-1.2,0.2c-2.7,1.2-5.4,1.5-6.8-1.5
		c-1.9-4,2.3-5.8,3.7-8.6l0.3-0.4C-36.3,1603.2-35,1608.5-28.9,1606.1z"/>
	<path id="Trazado_18753" class="st0" d="M-78.9,1627.3c0,3.1-2.9,4.3-4,6.6c-1.9,4.1-3.9,4.3-6.4,0.5c-0.3-0.3-0.5-0.7-0.4-1.1
		s0.1-0.6,0.2-0.6c1.8-2.1,2.5-5.2,5-6.8c1.2-0.4,3.6-6.2,3.3,0.8C-81.4,1628.9-79.8,1627.4-78.9,1627.3z"/>
	<path id="Trazado_18754" class="st0" d="M-74.5,1630.3c-6,1.8,1.1-4.9-2.9-4.5c0-0.5,0.1-0.9,0.1-1.4c0.9-1.8,2.4-3.2,4.1-4.3
		c1.3-1.2,3.3-1.3,4.8-0.3c1,1.8,0.3,3.3-0.5,4.9C-70.6,1626.9-71.6,1629.6-74.5,1630.3z"/>
	<path id="Trazado_18755" class="st0" d="M-73,1621.6l-4.3,2.9c1.3-4.5,3.9-8.5,7.4-11.6c3.3,0.8,1.5,2.7,1,4.4
		C-70,1618.9-72,1619.8-73,1621.6z"/>
	<path id="Trazado_18756" class="st0" d="M-68.4,1607.1c2.8,0,3.8,4.5,7.3,2.9c0.5,0.5,0.7,1.2,0.7,1.8c-0.4,1.7-1.8,2.9-3.4,3.3
		c-3.2,0.7-3.6-1.9-4.6-3.8C-68.4,1610-68.4,1608.6-68.4,1607.1z"/>
	<path id="Trazado_18757" class="st0" d="M-68.4,1611.4c2.6-0.7,1.7,3.6,4.3,2.9c0.7,2.5-0.8,3.4-2.8,4c-1.1,0.2-2.3-0.3-3-1.2
		c-0.3-1.5,1.6-2.9,0.1-4.4L-68.4,1611.4z"/>
	<path id="Trazado_18758" class="st0" d="M-87.4,1617l4.4-1.5c0.5,0,0.9,0.1,1.4,0.1c-1,1.4-2.1,2.8-3.1,4.1
		c-1.4,0.5-2.8,1.1-4.2,1.6C-88.5,1619.9-88,1618.4-87.4,1617z"/>
	<path id="Trazado_18759" class="st0" d="M-84.5,1625.9c-0.8,2.8-2.4,5.2-4.6,7.1c-0.4-0.3-0.5-0.7-0.4-1c0.1-0.3,0.2-0.5,0.4-0.5
		l3-7.2C-85.6,1624.9-85.1,1625.4-84.5,1625.9z"/>
	<path id="Trazado_18760" class="st0" d="M-79.1,1614.1c0.8-2.3,2.8-3.3,4.8-4.2C-72.9,1614.7-77.6,1612.5-79.1,1614.1z"/>
	<path id="Trazado_18761" class="st0" d="M-49.3,1602.9l4.4,1.6c0.1,3.7-3.9,3.7-5.4,5.9c-1.5,0.7-3,0.9-4.2-0.6
		c-1-1.8-0.7-4.1,0.8-5.5c0-1,0-1.9,0-2.9C-51.5,1600.1-51.5,1604.8-49.3,1602.9z"/>
	<path id="Trazado_18762" class="st0" d="M-49.3,1602.9c-2.2,1.6-3.1-0.6-4.4-1.5c0-1.9,0-3.8,0-5.7l2.9,1.3c0,1.6-0.2,3.3,1.4,4.4
		L-49.3,1602.9z"/>
	<path id="Trazado_18763" class="st0" d="M-53.7,1604.3c0,2-0.1,3.9-0.1,5.9c0.2,1.9-0.8,1.8-1.9,1.1c-1.4-1.1-2.7-2.4-3.7-3.9
		l-0.2-0.4c-0.1-2.2,0.6-3.4,3-2.8L-53.7,1604.3z"/>
	<path id="Trazado_18764" class="st0" d="M-56.6,1604.3l-3,2.8c-1.7-1.1-1.2-2.8-1.2-4.3C-59.1,1602.3-56.9,1600.7-56.6,1604.3z"/>
	<path id="Trazado_18765" class="st0" d="M-59.4,1607.4c3.1-1.4,3.5,2.3,5.7,2.8l3-1.3c1.6-1,3-2.8,5-1.8s1.1,2.8,0.8,4.4
		c-0.7,2.3-1.9,4.4-3.5,6.2c-0.5,0.4-1.1,0.7-1.7,0.9c-1.6,0.3-3.1,0.9-4.7,1.3c-1.9,0.2-3.9,0.7-5.5-1.1c-1.6-2.2,1.2-5-0.8-7.2
		c0-0.5,0-1,0-1.5C-60.5,1609.2-60,1608.3-59.4,1607.4z"/>
	<path id="Trazado_18766" class="st0" d="M7.7,1600.9c-2.8,2.8-3.8-1.3-5.8-1.6C4.5,1597.3,6.7,1596.9,7.7,1600.9z"/>
	<path id="Trazado_18767" class="st0" d="M-46.6,1611.7c2-6.1-2.2-2.8-4.2-2.8c0.8-3.1,4.3-2.4,5.9-4.4l5.7-4.1
		c-0.8,3.9-7.2,9.6,3.1,10.1c-2.1,3.3-6.1,3.6-9,5.6C-48.4,1615.5-45.7,1613-46.6,1611.7z"/>
	<path id="Trazado_18768" class="st0" d="M-108.3,1638.3c0.5,0.1,0.9,0.2,1.4,0.2c1.3-0.6,1.8,0.2,2.3,1.2c0.3,1.7,0,3.4-0.8,5
		c-0.5,1.2-1.4,2.3-2.5,3c-0.6,0.2-1.2,0.3-1.9,0.2c-2.1-0.7-4.3-0.4-6.5-0.7c-5.3-2.8-0.9-4.5,0.7-6.5c0.8-0.7,1.6-1.2,2.4-1.7
		C-111.6,1638.3-110,1637.6-108.3,1638.3z"/>
	<path id="Trazado_18769" class="st0" d="M-115.4,1635.5c0-0.9,0-1.9-0.1-2.8c3.7-0.1,3.4-4.3,5.9-5.7c0.5,3.1-1,5.8-1.5,8.6
		c-0.3,1.2-1.5,2.1-2.8,1.9c-0.6-0.2-1.1-0.6-1.4-1.1C-115.3,1636.2-115.4,1635.8-115.4,1635.5z"/>
	<path id="Trazado_18770" class="st0" d="M-105.3,1640.2l-1.6-1.6c0.5-1,0.9-1.9,1.4-2.9l1.7-1.4l3,0c0,1,0,2,0,3
		c0.4,0.6,0.5,1.3,0.2,2C-102,1640.8-103.4,1641.7-105.3,1640.2z"/>
	<path id="Trazado_18771" class="st0" d="M-113.8,1637.2l2.7-1.5c3.1-1.4,2.9,0.7,2.8,2.7c-1.3,0.8-2.5,1.9-4.2,1.4
		C-113.8,1639.4-114.8,1638.8-113.8,1637.2z"/>
	<path id="Trazado_18772" class="st0" d="M-119.9,1635.5c0.5-1,1-2,1.5-2.9l3,2.9l-0.1,0.1c0.4,2.3-1.3,2.2-2.8,2.3
		C-119.4,1637.6-120.3,1636.9-119.9,1635.5z"/>
	<path id="Trazado_18773" class="st0" d="M-119.8,1628.2l1.5-4.2c2,2,1.8,3.9,0,5.8L-119.8,1628.2z"/>
	<path id="Trazado_18774" class="st0" d="M-77.8,1853.8c-3.6,0-6.8,0.9-8.8,4.2c-4.3-3.7-2.8-8.8-3.2-13.4c-0.1-3.3,0.1-6.7,0.6-10
		c0.6-1.4,1.1-2.8,1.7-4.2c1.2-1.9,0.3-4.4,1.6-6.2c1-1.6,1.9-3.2,2.7-4.9c0.3-0.6,0.6-1.2,1-1.7c2.1-2.6,3.7-5.6,5.8-8.2
		c0.7-0.8,1.7-1.2,2.8-1.3c4.8,2.8,4.8,6.7,1.2,9.9c-3.5,3.1-5.4,7.2-8.7,10.3c-0.5,1.3-1.1,2.5-0.1,3.8c0.3,0.4,0.8,0.8,1.2,1.2
		c4,1,6.9-1.1,9.8-3.3c2.1-1.5,3.7-3.8,6.6-4c4.1,2.9,1.5,5.3-0.8,7.4c-3.1,2.8-7,4.7-10.2,7.8c3.7,2.5,9.2-6.6,10.7,2.6
		C-68.9,1846.6-72.1,1851.9-77.8,1853.8z"/>
	<path id="Trazado_18775" class="st0" d="M-93.1,1823c1.2-3.3,4.4-4.4,6.9-6.3c1.3,0.4,2.2,1.5,2.3,2.9c-0.2,1.3-0.6,2.5-1.1,3.7
		c-0.5,1.2-1.4,2.1-2.7,2.6l-4.2,1.6c0-0.5,0-1.1,0-1.6C-92.1,1824.8-92.5,1823.8-93.1,1823z"/>
	<path id="Trazado_18776" class="st0" d="M-87.7,1825.9c0.5-0.9,1-1.9,1.5-2.9c1.4-0.3,2.1,0,1.5,1.6c-1,1.9-2,3.9-3,5.8
		L-87.7,1825.9z"/>
	<path id="Trazado_18777" class="st0" d="M-93.1,1823c1.8,0.4,3.2,0.9,1.2,2.8l-3.4,1.3c0.2-0.9,0.3-1.8,0.5-2.7L-93.1,1823z"/>
	<path id="Trazado_18778" class="st0" d="M-77.8,1853.8c4.2-3.7,6.6-9.7,13.3-10c0.5-0.5,1-0.9,1.4-1.5c5-4.7,10.6-8.4,16-12.6
		c1.3-1.1,3.2-1.8,4.6-0.1c0.9,1.1,0.1,2.3-0.7,3.3c-1,1.2-2.6,1.8-3.5,3.1c1.3-1.2,2.7-2.2,4.5-0.9c-0.3,6.3-6.5,8.6-9.1,13.2
		c0,1,0,1.9,0,2.9c-1.4,4.2-4.9,6.3-8.7,8.3c-1.7-1.8,2.9-4.2-2.4-6c-0.8-0.1-0.5,2.9-2,3.8c-1.7,0.9-3.5,2.7-5,2.5
		c-1.9-0.3-0.7-2.8-0.9-4.4c-0.9-2.3,1.5-2.9,2.2-4c-3,1.3-4.3,5.4-8.2,6.1c-1.1-0.3-1.8-0.8-1.3-2.2
		C-77.8,1854.8-77.8,1854.3-77.8,1853.8z"/>
	<path id="Trazado_18779" class="st0" d="M-76.4,1856.8l11.9-10.4c0.1,5.2-4.6,6-6,9c-1.8,0.7-3,2.4-3,4.3l-2.9-1.5
		c-0.4-0.3-0.6-0.7-0.4-1C-76.7,1856.9-76.5,1856.8-76.4,1856.8z"/>
	<path id="Trazado_18780" class="st0" d="M-36.6,1841.3c-0.5,1-1,1.9-1.5,2.9c-2.5,1.3-4.7,3.2-6.1,5.7l-2.9,1.5l-1.5,0
		c2.9-3.9,6.4-7.3,10.4-10.1c0.3-0.4,1-0.5,1.4-0.1C-36.7,1841.2-36.7,1841.2-36.6,1841.3z"/>
	<path id="Trazado_18781" class="st0" d="M-76.4,1856.8c0,0.5,0,1,0,1.4c-1.2,0.3-2.8,1.9-3.7,0.1c-0.7-1.5,1-2.4,2.3-3.1
		L-76.4,1856.8z"/>
	<path id="Trazado_18782" class="st0" d="M105.1,1834.6c-1.3-3,1.7-3.1,3-4.3l1.4,1.5L105.1,1834.6z"/>
	<path id="Trazado_18783" class="st0" d="M29.4,1817.4l5-4.1c-2.7-1-3.6,1-4.9,1.2c-3.5-1-3.8-1.3-2-3.8c2.7-3.8,6.3-6.7,9.6-9.8
		c2.1-2,4.7-3.5,6-6.2c0.4-0.6,0.9-1,1.4-1.5c5.8-3.6,9.6-8.8,13.1-14.5c1.9-3.2,3-6.9,6.2-9.1c7.6-1.1,12-5.4,13.3-12.9
		c2.9-3.8,3.9-9.2,9.9-10.3c2.1-0.4,3.2-3.3,3.8-5.7c2.8-3.8,5.3-7.8,7.7-11.9c3.2-2.2,3.2-7.8,8.3-8.1l2.9,3
		c0.2,6.1-5.6,8.8-7.6,13.5c-1,1.6-1.9,3.3-3,5c1.2-1.1,2.3-2.3,3.2-3.6c2.6-2.5,3.8-7,8.8-5.9c1.8,3.7-1.1,5.9-2.8,8.3
		c-5.2,7.3-11.7,13.5-16.8,20.8c-2.8,3.8-6.2,7-9.2,10.7c-7.8,5.9-12.3,15-20.4,20.6c-8.3,7.8-16.6,15.6-24.9,23.5
		C34.6,1818.8,32.5,1821.4,29.4,1817.4z"/>
	<path id="Trazado_18784" class="st0" d="M44.3,1794.3c0.4,3.4-2,4.8-4.3,6.7c-4.1,3.3-7.7,7.2-11.5,10.8c-1.4,1.4-1.3,2.4,0.9,2.7
		c-2.5,2.3-4.9,4.3-7.3-0.1c6-7.9,3.3-17.5,4.8-26.2c0.8-1.5,1.6-3,2.5-4.4c1.1-1.9,1.1-1.8-1.2-4c-1.9-1.8,2-4.6-1.1-6.2
		c-1.1-4.1,3.3-5.4,4.3-8.5c0.5-0.9,1.3-1.6,2.2-1.9l1,0.3c0.7,2.8,1.3,5.6-0.2,8.3c-1.8,3.3-1.9,7.8,1.2,8.8
		c2.1,0.7,6.6-2.3,8.5-4.8c3.3-4.6,5.5-10,8.1-15.1c0.9,0.1,1,0.9,1.4,1.5c-2,3.9-4,7.7-6,11.6c-1,1.9-2.5,3.8-0.1,5.8
		C49.7,1785.2,43.5,1789,44.3,1794.3z"/>
	<path id="Trazado_18785" class="st0" d="M21.3,1772c-1.6,0.3-2.7,3.1-4.4,1.7c-2-1.7,0.7-2.9,1.3-4.2c3.2-7,9.4-11.4,15-16.2
		c1.8-1.9,2.9-4.2,3.4-6.7c1-1.4,1.9-2.9,4-1.9c1.8-2.1,2.7-5.1,5.9-5.8c-0.2,4.7-2.7,8.9-2.9,13.7c-0.2,5.3-3.9,9.1-9.2,10.9v0
		c-1,0-0.3-4.6-2.9-0.8C29,1766.4,26.5,1770.8,21.3,1772z"/>
	<path id="Trazado_18786" class="st0" d="M125,1672.7l1.4,1.5c-13,21.6-29.6,40.7-42.3,62.5c1.5-8.5,7.5-14.7,11.1-22.1
		c9.1-13.2,18.1-26.4,27.2-39.5C123.2,1674.2,124,1673.4,125,1672.7z"/>
	<path id="Trazado_18787" class="st0" d="M65.3,1761c-2.4,2.4-3.9,5.4-4.5,8.7l-0.9,0.4c-0.7-0.1-1.3-0.3-1.8-0.8
		c-3.1-5.2,3.1-8.3,2.9-12.8c4.3-10.4,8.9-20.5,16.5-29l0,0c1.2,3.4,0.6,6-2.2,8.9c-4.1,4.2-7.6,9.2-5.5,15.9c0,0.3,0,0.7,0,1
		c-0.6,2.7-2.2,4.9-3.6,7.2C65.9,1760.6,65.6,1760.8,65.3,1761z"/>
	<path id="Trazado_18788" class="st0" d="M61,1756.5c2.5,2.6-0.3,4.4-1.2,6.4c-1,2.3-2.1,4.4-0.5,6.8c0.6,0.8,0.7,1.9,0.2,2.8
		c-5.2,7.2-8.7,15.6-15.2,21.9l0,0c-3.4,1.2-3.1-0.7-2.2-2.8c1.7-3.9,3.5-7.8,5.3-11.8C51.4,1771.6,55.9,1763.9,61,1756.5z"/>
	<path id="Trazado_18789" class="st0" d="M69.1,1702.6c0.2,3.3-4.8,3.4-4.1,7.8c4.5-1.5,6.4-6.4,11.4-8.5c-1.9,3.3-3.2,5.7-4.6,8.1
		c-2.1,1.1-3.7,3-4.6,5.2c-1.7,4.2-4.6,5.8-9,4c-0.9-0.5-1.6-1.4-2-2.4c-0.4-2.5,0.1-5,1.5-7.1c2.3-2.1,4.1-4.6,6.3-6.8
		C65.8,1701.8,67.3,1701.1,69.1,1702.6z"/>
	<path id="Trazado_18790" class="st0" d="M58.6,1718.5c3.9-0.3,7.5-0.9,8.8-5.5c0.6-1.9,2.4-3.2,4.4-3.1
		c-5.8,8.7-10.4,18.5-20.8,23.1l-1.5-1.5c-0.8-1.4-0.1-2.6,0.6-3.7c1.4-1.8,2.7-3.7,3.8-5.7C55.2,1720.4,56.4,1718.7,58.6,1718.5z"
		/>
	<path id="Trazado_18791" class="st0" d="M81.1,1676.4l1.5-1.4c1.2-1,2.8-1.5,4.4-1.4l6-2c-4.5,7.6-7.2,15.4-15.1,19.4
		c-1-0.9-1.6-2.2-1.4-3.6c0.2-2.5,2-4.6,2.2-7.1C79.4,1678.9,80.2,1677.6,81.1,1676.4z"/>
	<path id="Trazado_18792" class="st0" d="M91.9,1740.9c-1.1,4.6-1.3,9.3-8.6,8.6c-2.8-0.3-2.6,6-6.2,7.3c1.5-8.1,7.3-12.8,13.4-17.3
		C91.3,1739.5,91.5,1740.3,91.9,1740.9z"/>
	<path id="Trazado_18793" class="st0" d="M91.9,1740.9l-1.5-1.5c2.5-4.3,5-8.7,7.5-13c1,0.7,1.5,1.8,1.4,2.9
		C98.2,1734,94.7,1737.3,91.9,1740.9z"/>
	<path id="Trazado_18794" class="st0" d="M53.6,1762.2l-1.4-1.5c1-5.4,5.1-8.9,8.9-12.8L53.6,1762.2z"/>
	<path id="Trazado_18795" class="st0" d="M87,1673.6c-1.1,1.6-2.8,1.4-4.4,1.4c3.3-5.5,8.7-8.9,13.4-12.9
		C95.1,1667.5,89.2,1669.1,87,1673.6z"/>
	<path id="Trazado_18796" class="st0" d="M69.8,1752.3c4.4-2.1,3.9-8,9-11.3c-2.5,6.5-5.1,11.5-9.1,15.7c-0.2-0.2-0.4-0.5-0.7-0.7
		C68.8,1754.7,69,1753.3,69.8,1752.3L69.8,1752.3z"/>
	<path id="Trazado_18797" class="st0" d="M78.1,1686.6c0,1.5-0.1,2.9-0.1,4.4l-5.9,7.2c-1.1-0.7-1.9-1.9-2.1-3.2
		c0.1-2.5,1.7-4.3,2.9-6.2C74.3,1687.4,75.6,1685.5,78.1,1686.6z"/>
	<path id="Trazado_18798" class="st0" d="M118.1,1649.2l1.4,1.5c-3.2,3.4-5.1,8-10.1,9.9C112.3,1656.9,115.2,1653.1,118.1,1649.2z"
		/>
	<path id="Trazado_18799" class="st0" d="M63.7,1769.7c-0.6,3.8-3.1,6.8-4.5,10.2c-2.7,0.1-2.5-1.8-1.9-3.3c1-2.4,2.2-4.7,3.5-6.9
		l0,0C61.8,1769.5,62.8,1768.2,63.7,1769.7z"/>
	<path id="Trazado_18800" class="st0" d="M70.6,1695.3c1,0.6,1.5,1.8,1.4,2.9c-1.8,0.7-3,2.4-3,4.3l-4.4,1.4l-0.6-0.8
		c-0.2-0.7-0.2-1.4,0-2C65.4,1698.3,67.2,1695.9,70.6,1695.3z"/>
	<path id="Trazado_18801" class="st0" d="M116,1669.9l-6.8,8.9C109.9,1673.4,112.3,1671.2,116,1669.9z"/>
	<path id="Trazado_18802" class="st0" d="M69.7,1756.6c0.1,2.3-0.6,4.7-2,6.5c-0.5,0.7-1.3,1.7-2.1,0.5c-0.4-0.7-0.2-1.8-0.3-2.7
		l0,0C66.7,1759.5,66,1755.8,69.7,1756.6L69.7,1756.6z"/>
	<path id="Trazado_18803" class="st0" d="M104.9,1683.9c-0.2,3-1.4,5.2-4.6,7.1C101,1687.3,103.1,1685.6,104.9,1683.9z"/>
	<path id="Trazado_18804" class="st0" d="M77.5,1727.5c0.3-2.9,1.9-5.5,4.4-7C80.9,1724.2,80,1726.4,77.5,1727.5L77.5,1727.5z"/>
	<path id="Trazado_18805" class="st0" d="M68.3,1670.6c2.8-1,2.6-5.1,5.7-5.8c-0.1,1.9-0.1,3.8-0.2,5.8c-0.6,1.6-2.2,3.2,0,4.7
		c-1,1.3-2.1,2.7-3.1,4c-1.4,4.3-3.8,6.7-8.6,4.5C60.5,1677.6,64.2,1674,68.3,1670.6z"/>
	<path id="Trazado_18806" class="st0" d="M62,1683.5c4.1,1,5.9-2.9,8.9-4.3c2,0.2,3.9,1.4,5.9,0.1c0.9,7.3-4.8,9.3-9.6,12.1
		c-1.5-0.2-2.2-1.3-3-2.4c-0.7-1-1.4-2-2.1-3c-0.3-0.5-0.5-1.1-0.5-1.7C61.7,1684,61.8,1683.7,62,1683.5z"/>
	<path id="Trazado_18807" class="st0" d="M66.3,1690.8c4.1-3.3,8.7-6.1,10.4-11.5c1.4-1,2.9-1.9,4.4-2.9l-1.5,4.4
		c0.2,4.1-4,5-5.7,7.7c-3,2.3-3.5,7.1-7.9,7.9c-1.1,0.1-2.2-0.3-3-1.1C62.7,1692.8,62.9,1690.7,66.3,1690.8z"/>
	<path id="Trazado_18808" class="st0" d="M44.8,1659.8c2.7-5.7,9.9-5.3,13.3-10c1-0.7,1.8-1.5,2.6-2.3c1.8-2.4,3.2-6.2,7.1-3.4
		c3.8,2.7-0.7,4.9-1,7.4c-1,2.9-1.9,5.9-5.5,6.5c-3,0.2-4.5,2.4-6.1,4.6c-9.3,13.2-20.2,25.3-28.6,39.2c-1.3,2.1-2.5,4.8-5.8,4.8
		c-1.6,0.3-0.1-4.4-3.4-1.9c-1.1,0.9-2-1.4-2.1-2.8c1.2-4.5,4.6-7.4,7.3-10.9c3-2.9,5.9-5.8,6.4-10.2c1.1-3.7,4.3-5.7,6.8-8.3
		c2-2.1,4.2-4.1,3.6-7.4C39.6,1661.7,42.3,1660.9,44.8,1659.8z"/>
	<path id="Trazado_18809" class="st0" d="M68.3,1652.9l1.5-1.4c1.1-1,2.6-1.2,3.9-0.7c0.6,0.4,1,1,1.1,1.7c-0.2,2.2-1.7,3.7-2.7,5.5
		c-5.1,6.6-10.5,12.9-16.2,19c-3.9,4-7.3,8.3-10.3,13c-2,2.7-3.2,6.3-7.3,6.8c-1.1-0.1-2-0.9-2.2-2c0.3-6.1,5.5-9.2,8.3-13.8
		c2.6-2.9,4.6-6.3,6-9.9c1.3-2.3,3-4.5,4.9-6.3C60,1661.2,63.1,1655.8,68.3,1652.9z"/>
	<path id="Trazado_18810" class="st0" d="M38.5,1696.3l6-7.2c7,0.4,8.2-5.9,11.4-9.9c0.4-0.6,0.8-1.1,1.2-1.6c2.3-2.5,4-5.3,6.4-7.7
		c0.5-0.5,1.1-0.8,1.7-1l3.2,1.7c-2.1,4.3-4.3,8.6-6.4,12.9l0.1-0.1c-1.8,1.9-2.8,4.4-4.5,6.4c-1.1,1.6-2.2,3.2-3.4,4.7
		c-1.5,1.7-2.8,3.6-5.2,4.2c-3.9,0.6-7.1,2.1-9.2,5.7c-1,1.7-2.6,3.8-5,1.3C33.9,1702,35.4,1698.3,38.5,1696.3z"/>
	<path id="Trazado_18811" class="st0" d="M65.2,1668.9c0,0.5,0,1,0,1.5c-3.8,1.8-5.3,5.4-7.4,8.7l0,0c-3.1,1.1-4.1,0.1-2.9-3
		l16.4-18.8c2.8,5.3-3.2,6.7-4.5,10.2L65.2,1668.9z"/>
	<path id="Trazado_18812" class="st0" d="M68.3,1652.9c-4.1,4.2-6.6,9.8-11.9,13c-2.2-4.1-1.9-4.8,4.5-8.7l5.9-5.8L68.3,1652.9z"/>
	<path id="Trazado_18813" class="st0" d="M74.2,1651.5l-4.4-0.1c2.9-1.6,3.7-9.2,9.4-2.6c3.7,4.3-0.9,3.9-2.1,5.6
		c-0.2-0.1-0.5-0.3-0.7-0.4C75.5,1653.3,75.2,1652.2,74.2,1651.5z"/>
	<path id="Trazado_18814" class="st0" d="M66.7,1667.5c0.1-4,5.5-5.7,4.5-10.2c0-1.9,1.2-3.7,3-4.3c1.2,0,2.2,0.6,2.9,1.5l0,0
		C73.5,1658.8,72.2,1664.8,66.7,1667.5z"/>
	<path id="Trazado_18815" class="st0" d="M51,1640.9c-1.6,3-2.9,6.3-7.8,8l6.3-9.5L51,1640.9z"/>
	<path id="Trazado_18816" class="st0" d="M77.5,1629.7c-1.6,2.9-3.9,4.6-7.4,4.2c-0.2-1-1.5-1.9,0-2.9
		C73,1633.2,74.8,1629.2,77.5,1629.7z"/>
	<path id="Trazado_18817" class="st0" d="M121.7,1701.9l1.4,1.5c-3,1.8-3.7,6.1-7.4,7.2C116.2,1706.9,118.4,1703.6,121.7,1701.9z"/>
	<path id="Trazado_18818" class="st0" d="M93.6,1822.7c-2,0.1-4.3-0.6-5.9,1.4c-3.1-9.7-3.5-9.9-10.1-6
		c-5.4,6.3-11.3,12.1-17.8,17.3c-2.2,0.9-3.6,3.3-7.8,3.1l30.1-33.5c-0.9-4.2,2.7-6.2,4.3-9.2c1.9-3.3,6.1-5.2,6.2-9.7
		c1.6-1.7,2.3-5.4,5.9-2.8c-0.4,6.6-5.1,11.3-7.7,16.9c-0.9,2-3.7,3.6-1.4,6.3c1.9,1.6,8.4,2,1.2,5.8c-1.5,0.8,0.4,2.3,1.6,3
		c0.6,0.4,1.4,0.6,1.4,1.5L93.6,1822.7z"/>
	<path id="Trazado_18819" class="st0" d="M120.5,1779.3l-6,10.1c-2.6-3.3,0.8-5.3,1.9-7.6c2-4.2,6.1-7.4,4.9-13
		c-0.2-1.2,1.9-3,3.2-4.3c0.2-0.2,1.8,0.5,2.4,1.1c1.8,1.8-0.3,3.1-0.9,4.3C124.4,1773.2,122.4,1776.2,120.5,1779.3z"/>
	<path id="Trazado_18820" class="st0" d="M93.7,1816.9l-1.4-1.5l20.3-15.6C108.2,1807.8,100.8,1812.1,93.7,1816.9z"/>
	<path id="Trazado_18821" class="st0" d="M117.9,1758.8l6-8.7c1.8,5.2-2.6,7.4-5.2,10.4L117.9,1758.8z"/>
	<path id="Trazado_18822" class="st0" d="M-90.2,1806.9c-6.8,3.5-8.7,11.7-14.8,15.8c-4.5,1.4-4.1-1.7-3.8-4.3
		c0.3-2.5,2.3-4.2,3.9-5.9c5.7-6.2,11.4-12.4,17.4-18.3c6-6.3,11.4-13.2,19.5-17.1c1.1,0.1,2,0.9,2.3,1.9c0.2,3.9-3.1,6-4.8,8.9
		c-0.4,0.5-0.8,1-1.3,1.5c-2.5,2.1-4.7,4.5-6.6,7.1C-82,1800.5-84.8,1805.2-90.2,1806.9z"/>
	<path id="Trazado_18823" class="st0" d="M-74.1,1808.6l-1.5,1.4c-1.2,0.9-2.9,0.2-4.1,1c-1.9,0.8-3.1,2.8-4.9,3.8
		c-0.6,0.2-1.2-0.1-1.5-0.6c-1.5-1.1-1.2-2.8-1.3-4.4c0.1-0.3,0.2-0.6,0.2-0.9c1.2-2.1,3-3.9,4.2-6.1c1-1.6,2-3.2,3.9-4
		c3.4-0.4,4.1-3.3,5.3-5.7c1-2.1,1.9-4.3,4-5.7c3.3,1.9,5.8-5.7,9.4-0.8c-1.3,7.3-6,12.9-9.6,19C-71,1807.1-72.4,1808.2-74.1,1808.6
		z"/>
	<path id="Trazado_18824" class="st0" d="M-78.5,1799.8l-3,4.3c-2.8,1.1-3.6,4.2-5.9,5.8l0,0c-3.5,0.8-2.2,5.8-6.5,6.9l3.6-9.9
		l10.4-11.5c2.9-1.8,5.5-4.3,7.4-7.2l0,0c0.7-0.8,2-0.8,2.8-0.1c0.1,0.1,0.1,0.1,0.2,0.2l-3,5.8C-74.4,1796-75.2,1799.2-78.5,1799.8
		z"/>
	<path id="Trazado_18825" class="st0" d="M-86.1,1814.2c0.5,0,1-0.1,1.4-0.2c0.9-0.7,2-0.9,3.1-0.7c3.3,1.8,0.6,3.6-0.1,5.4
		c-0.1,0.4-0.1,0.9-0.2,1.3c-0.6,0.8-1.6,0.9-2.4,0.4c-0.2-0.1-0.3-0.3-0.4-0.4l-1.6-3.3C-86.2,1815.9-86.1,1815.1-86.1,1814.2z"/>
	<path id="Trazado_18826" class="st0" d="M-90.1,1695.9c15.9-17.5,31.8-34.9,50-50.2l-32.3,35.9c-3.2,6.6-9.1,10.6-14.3,15.2
		C-87.6,1697.6-89.7,1699.1-90.1,1695.9z"/>
	<path id="Trazado_18827" class="st0" d="M-90.1,1695.9c5.3-0.5,7-5.6,10.7-8.3c2.5-1.8,4.7-4,7.1-6.1c4.1,1,4.6-4.2,8.7-4.8
		c-2.6,4.8-6.3,7.8-10.2,10.6c-8.1,6.6-14.8,14.6-21.5,22.4c-1.3,1.5-2.3,3.1-4.1,3.9c-1.2-1-2.7,0.2-3.9-0.5l-1.4-1.5
		C-100.1,1706.3-96.4,1699.8-90.1,1695.9z"/>
	<path id="Trazado_18828" class="st0" d="M-109.7,1737.9c1.4-1.6,2.8-3.2,4.2-4.8c1.7-1.9,1.8-3.4-1.2-3.9l21-23.7
		c-1,7.2-6.6,11.8-9.3,18c-2.2,4.5-4.1,9.1-8.9,11.6C-105.8,1735.9-107.2,1738.1-109.7,1737.9z"/>
	<path id="Trazado_18829" class="st0" d="M-100.6,1713.2c7.6-6.5,12.3-15.5,20.1-21.7c2-1.6,3.5-4.2,6.6-4.2l-35.7,40.4
		c-1.3,0.4-1.8-0.4-2.2-1.4C-108.5,1721.5-105.6,1716.5-100.6,1713.2z"/>
	<path id="Trazado_18830" class="st0" d="M-29.5,1650c-6.7,12.3-15.2,23.5-25.3,33.2c6.4-12.2,15.9-22.1,23.9-33.2
		C-30.5,1649.4-30,1649.4-29.5,1650z"/>
	<path id="Trazado_18831" class="st0" d="M-117.4,1767.1c-0.1-1.9-1.3-3.9,0.1-5.8c0.7-3.8,1.1-7.8,6-8.7c4.8-1.9,5.8-7.9,10.4-10.1
		l0.6,0.9c-2.8,9.1-9.7,15.5-14.5,23.3C-115.5,1767.4-116.6,1767.6-117.4,1767.1z"/>
	<path id="Trazado_18832" class="st0" d="M-77.6,1704.3c0-10.4,11.7-12.6,16.7-19.4l-14.9,20.7L-77.6,1704.3z"/>
	<path id="Trazado_18833" class="st0" d="M-103.8,1735.1l8.9-11.6c0.8,0.6,1.4,1.6,0.8,2.4c-5.9,7.7-10.2,16.7-17.2,23.6
		C-111.7,1743.3-104.9,1740.7-103.8,1735.1z"/>
	<path id="Trazado_18834" class="st0" d="M-41,1635.2l-4.4,1.4c5.2-5.8,12.4-8.8,18.2-13.7c0.8-0.7,1.8-0.1,2.4,0.8
		C-30.1,1627.6-34.8,1632.4-41,1635.2z"/>
	<path id="Trazado_18835" class="st0" d="M-101,1742.4c-0.5-5.2,4.6-6.8,5.9-11.6c1.8,2.8-0.3,4.2,0.1,5.8l0,0
		C-97,1738.7-96.7,1742.9-101,1742.4L-101,1742.4z"/>
	<path id="Trazado_18836" class="st0" d="M-29.5,1650l-1.5,0c3.1-3.2,4.7-7.8,8.9-10.1l-3,7.3L-29.5,1650z"/>
	<path id="Trazado_18837" class="st0" d="M-111.4,1752.5c-3.5,1.8-4,5.8-6,8.7c-1.4-5.6,2.1-8.7,6-11.6L-111.4,1752.5z"/>
	<path id="Trazado_18838" class="st0" d="M-108.1,1730.7c-0.4,3.7-3.2,5.4-5.9,7.2C-113.6,1734.2-110.9,1732.4-108.1,1730.7z"/>
	<path id="Trazado_18839" class="st0" d="M-19,1634.1c2.4,3.7-1.3,4.2-3,5.8C-22.2,1637.4-20,1636.1-19,1634.1z"/>
	<path id="Trazado_18840" class="st0" d="M-46.8,1735.9c1.9-4.3,3.8-8.7,6.4-14.6l-7.7,5.8c-0.8-0.1-1.4-0.7-1.4-1.5
		c3.3-5.1,9-7.5,13.3-11.5c3.6,0.1,0.6,2.3,1.3,3.1c1.9-2.7,4.9-4.8,7.4-7.4c3.5-5.7,9.2-8.2,15.1-10.6c1.1,0.2,1.9,1,2,2
		c-0.4,4.6-4.4,6.6-7.1,9.5c-4.8,5-10,9.6-14.8,14.6C-37.4,1728.7-39.7,1735.7-46.8,1735.9z"/>
	<path id="Trazado_18841" class="st0" d="M-12.7,1699.9c-3.4,5-11.1,5.1-13.3,11.5c-3,1.2-4.5,0.3-4.4-3l7.4-8.7
		c5.4-8,11.6-15.2,20.7-19.2c1,0.4,1.8,1.2,2.3,2.2c0.8,4.1-1.7,6.7-4.2,9.2C-7.6,1694.1-8.8,1698.4-12.7,1699.9z"/>
	<path id="Trazado_18842" class="st0" d="M-80.5,1742.8l-1.5,0c-0.3-0.4-0.4-0.9-0.2-1.4c8.6-13.4,16.1-27.5,26.6-39.6
		c0.6,0.3,1.2,0.8,1.4,1.4c1.2,2-1.8,4.3,0.4,6.3l-1.5,4.4c-7.4,7.7-12.8,17.1-20.7,24.5C-77.5,1739.8-78.5,1741.8-80.5,1742.8z"/>
	<path id="Trazado_18843" class="st0" d="M-44.9,1702.4c4.4-8.7,11.5-15.4,17.1-23.2c8.1-11.2,16.4-22.1,24.6-33.2
		c0.5-0.5,1.2-0.6,1.8-0.1c0,0,0,0,0,0c1.5,3.8-2.2,5.7-3.6,8.1c-6.4,10.2-12.8,20.4-21.1,29.2c-0.3,0.1-0.6,0.2-1,0.4
		c-6.6,5.8-11.2,13.2-16.4,20.2C-44.8,1704.2-45.3,1703.7-44.9,1702.4z"/>
	<path id="Trazado_18844" class="st0" d="M-49.6,1725.7l1.4,1.5c-4.3,5.8-8.6,11.6-12.9,17.4c-3.6,4.9-11.1,4-14.4,9.7
		c-1.4,2.4-4,4.1-6.1,6.1c-1.2,1.1-2.4,1.6-3.7,0c4.2-4.6,5.8-11.8,13.3-13C-63.9,1740.7-56.4,1733.5-49.6,1725.7z"/>
	<path id="Trazado_18845" class="st0" d="M-3.3,1653.3c4.6,0.2,5.6-6.1,10.3-5.7c-2.4,3-3.7,6.9-7.4,8.7c-7.4,7.9-12.7,17.5-19.4,26
		c-1.5,4.6-4,7.9-9.6,7.8c-0.7-2.8,2.8-4,2.2-6.5v0c7.1-7.9,12.6-16.9,18.7-25.5C-7,1656.2-5.7,1654.2-3.3,1653.3z"/>
	<path id="Trazado_18846" class="st0" d="M-0.6,1669.4c0.4,1.7-2.2,3.6-0.3,5c1.3,0.9,1.9-1.6,3.2-2c1.2,0.8,1.9,2,2.1,3.3
		c-0.2,1.4-1,2.7-2.2,3.3c-0.9,0.5-2,0.8-3,0.8c-4.4-0.6-6,3.4-8.6,5.6c-2.1,1.6-3.6,4-5.9,5.2c-2.4,1.3-4.6,1.4-3-2.5l14.9-17.3
		C-2.7,1670.1-2.2,1668.4-0.6,1669.4z"/>
	<path id="Trazado_18847" class="st0" d="M-18.4,1688.2c1.9,4.2,3.1,0.2,4.1-0.5c4.6-3,6.8-9.5,13.6-9.4c0.8,1.6-0.2,2.4-1.5,2.9
		l-20.7,18.7C-24.6,1694.6-21.6,1691.4-18.4,1688.2z"/>
	<path id="Trazado_18848" class="st0" d="M-19.8,1682.3c4.9-9.8,10.6-19.1,19.4-26C-6.2,1665.4-11.5,1674.9-19.8,1682.3z"/>
	<path id="Trazado_18849" class="st0" d="M-30.9,1699.7c-5.1,5.4-7.1,13.1-13.8,18.6C-43.1,1708.9-37.3,1704-30.9,1699.7z"/>
	<path id="Trazado_18850" class="st0" d="M-30.4,1708.4c0.7,1.8,2.4,3,4.4,3l-12.3,10.7c-1.5-3.6,3.5-4.8,2-8
		C-34.9,1711.8-32.8,1709.8-30.4,1708.4z"/>
	<path id="Trazado_18851" class="st0" d="M-71.8,1747.3c-5.7,3-7.4,10.1-13.3,13l-1.5,0l0,0c1.8-5.2,6.4-8.4,9-13
		C-75.7,1746.4-73.8,1744.7-71.8,1747.3z"/>
	<path id="Trazado_18852" class="st0" d="M-0.6,1669.4l-2.9,1.4c1.1-3.9,2.3-7.8,6-10.1c1.6,3,3.6-1.3,5.5,0.2
		C6.1,1664.8,2.3,1666.7-0.6,1669.4z"/>
	<path id="Trazado_18853" class="st0" d="M-44.9,1702.4l1.4,1.5c-2.5,4.3-4.5,9.2-10.4,10.1C-50.5,1710.3-49.7,1704.8-44.9,1702.4z"
		/>
	<path id="Trazado_18854" class="st0" d="M1.5,1630c-6.6,9.1-11.5,19.3-19.4,27.5c-4.3,3.2-6.1,8.4-9.7,12.2c-1.9,2-2.9,5-6.3,5.2
		c-2.7-3,0.5-5.6,0.5-8.4c9.8-13.5,18.6-27.7,30.5-39.5C-0.8,1627,1.3,1627.1,1.5,1630z"/>
	<path id="Trazado_18855" class="st0" d="M-2.9,1627l-29.8,40.5c-2.3,4-2.6,9.7-8.9,10.1c0-6.9,6.2-10.2,9.2-15.3
		c2.6-4.3,6.5-7.6,8.7-12.2c1.1-4.3,4.1-7.4,7.5-10.1c5.6-5.5,9-12.8,15.4-18.2C0,1624.5-2.5,1625.3-2.9,1627z"/>
	<path id="Trazado_18856" class="st0" d="M-46.8,1636.6l-5.9,4.3l-1.4-4.4c7-7.9,15.5-14.3,25.1-18.6c-0.6,6-6.7,6.5-10.1,9.8
		C-42,1630.4-46,1632.1-46.8,1636.6z"/>
	<path id="Trazado_18857" class="st0" d="M-16.2,1640l-7.4,10.1c-1-0.7-1.5-1.8-1.4-2.9C-20.7,1646.5-21.5,1639.4-16.2,1640z"/>
	<path id="Trazado_18858" class="st0" d="M-34.3,1674.8c4.8-3.1,7.1-8.3,10.6-12.5c1.6-2,2.4-4.9,5.8-4.8
		c-7.6,10.9-15.1,21.9-22.7,32.8c-4.4,6.4-8.7,12.8-13.1,19.2c-9.4,0.1,2-4.6-1.4-5.9c2.3-4.3,4.4-8.8,7.8-12.4
		c3-2.9,4.5-7,7.1-10.3c0.3-0.6,0.7-1.1,1.1-1.6c1.2-1.5,2.6-2.9,4.1-4.2C-34.9,1675-34.6,1674.9-34.3,1674.8z"/>
	<path id="Trazado_18859" class="st0" d="M-1.7,1646l-1.5,0l8.9-11.6c2.8,2.8-1.3,3.8-1.5,5.8C3.5,1643.5,2.2,1646-1.7,1646z"/>
	<path id="Trazado_18860" class="st0" d="M3.7,1675.3c-1-0.7-1.5-1.8-1.4-2.9c3.6-5.2,9.9-7.6,13.3-12.9c2.8-3.1,4.8-6.9,8.9-8.6
		c0.5,0,1,0,1.5,0c0,0.5,0,1,0,1.4C22.3,1663.6,12.9,1669.4,3.7,1675.3z"/>
	<path id="Trazado_18861" class="st0" d="M24.5,1650.8c-2.4,3.4-5.4,6.4-8.9,8.6c0.6-4.2,5-6.2,6-10.2
		C22.8,1649.2,23.9,1649.8,24.5,1650.8z"/>
	<path id="Trazado_18862" class="st0" d="M14.6,1650.2c0.6-3.2,1.4-5.1,5-7C18.8,1646.6,17.8,1648.4,14.6,1650.2z"/>
	<path id="Trazado_18863" class="st0" d="M-1.7,1646c2.8-1,3.8-4,5.9-5.8c2.8,3.9-2,4.5-3.1,6.6c-1.3,2.2-2.8,4.4-4.4,6.4
		c-5.8,8.2-11.5,16.5-17.5,24.6c-1.7,2.2-4.2,3.8-6.4,5.7c6.8-11.7,15.4-22.2,23.1-33.2C-3,1649-1.8,1647.9-1.7,1646z"/>
	<path id="Trazado_18864" class="st0" d="M44.8,1659.8c-1.7,1.7-3.6,3.3-4.5,5.8c-0.4,1.4-1.6,2.4-3,2.5c-4-0.5-6.1,2.4-8.2,5.1
		c-2.7,3.6-5.7,6.7-10.4,7.3c-6-0.3-8.8,5.4-13.6,7.3c-1,0.3-2.1,0.2-3-0.4c-1.4-2.4,0.4-3.8,1.6-5.4c1.6-1.6,3.3-3.2,4.9-4.8
		c1.2-1.1,2.4-2.2,3.7-3.2c3-1.6,4.8-4.3,7.1-6.7c1.7-1.8,3.2-4.3,6.3-3.5c3.3,0.6,4.2-2.3,6.1-4c2.3-2.2,5-8.3,9-1.1
		C41.3,1659.7,43.5,1659.6,44.8,1659.8z"/>
	<path id="Trazado_18865" class="st0" d="M3.7,1675.3c6.8-8.3,16.6-13.7,22.2-23.1c2.1,1.5,0.4,2.9,0,4.4c-0.1,4.4-3.2,7-6,9.8
		c-1.7,1-3.2,2.3-4.8,3.4c-3.2,2.3-5.5,5.6-8.4,8.3c-0.6,0.4-1.2,0.7-1.8,0.9c-0.7,0.1-1.4,0-2-0.2c-0.2-0.2-0.5-0.5-0.8-0.7
		L3.7,1675.3z"/>
	<path id="Trazado_18866" class="st0" d="M18.5,1665.3c3.6-1.9,4-6.6,7.4-8.6c2.6,2.5,1,4.9-0.1,7.3c-5.2,2.9-6.7,10.1-13.3,11.5
		c-1.1-2.7,1.4-4,2.2-6C16.2,1668.3,17.5,1666.9,18.5,1665.3z"/>
	<path id="Trazado_18867" class="st0" d="M71.5,1831.2c0.3-3.7,2.8-4.5,5.9-4.3C76.1,1829.2,74.5,1831.1,71.5,1831.2z"/>
	<path id="Trazado_18868" class="st0" d="M92.7,1786.2c2.4,2.3,0.3,4.3-0.9,5.5c-4.1,3.9-6.3,8.9-9.6,13.3l-2.9-1.5
		C82.7,1796.9,88.4,1792.1,92.7,1786.2z"/>
	<path id="Trazado_18869" class="st0" d="M-63,1843.8l-1.5,0c-1.9-5.6-4.4-0.2-6.6-0.4c-1.9-0.1-3.6,4.5-5.7,0.2
		c-1.6-3.2,0.3-4.8,2.9-6.2c2.9-1.6,5.6-3.6,8.4-5.5c2.2-1.5,3.9-3.1,1.3-5.7c-0.1-0.3-0.2-0.6-0.4-1c0.2-2.4,1.8-3.9,3.5-5.3
		c18.5-15.2,34.7-33.1,52.1-49.5c5-2.8,6.3-10.2,13-10.9c2.8,1.9,1.8,4,0.1,5.9c-2.2,2.4-4,5.2-6.2,7.6c-1.4,0.8-3.4,1.6-3.2,3.5
		c0.2,1.3,2,0.8,3.1,0.9c1.2,2.2-0.6,3.6-1.3,5.3c-0.3,0.5-0.7,1.1-1.1,1.5c-1.3,1.5-3,2.4-4.9,2.7c-3.9,1.3-7.4,3.5-10.2,6.5
		c-4.1,4.1-7.1,9.6-13.6,11.3c-3.8,1-5.1,5.6-7.4,8.7c-6,8.1-14.8,13.2-20.4,19.8c8.8-5.8,16.4-15,25.4-22.6c1.9-1.6,3.7-4.1,6.9-3
		l1.5,0c1.1,2.5-0.4,4.1-1.9,5.7c-8.7,9.2-18.3,17.7-28.5,25.3C-59.9,1840.1-61.7,1841.8-63,1843.8z"/>
	<path id="Trazado_18870" class="st0" d="M-28.9,1807.8c-13.1,9.4-22.7,22.9-37.8,31.5c2-5.4,5.6-10.1,10.2-13.5
		c6.7-5.1,12.5-11.3,17.2-18.2c2-3,4.3-6.6,9.6-6.6c4.1,0,5.7-5.5,7.7-8.3c3.2-4.4,8.1-5,11.5-8.3c0.1-0.1,0.6,0.1,0.6,0.3
		c0.1,0.5,0.2,0.9,0.3,1.4c0.7,1.6-0.1,2.4-1.5,2.9C-18.2,1794.2-23.8,1800.8-28.9,1807.8z"/>
	<path id="Trazado_18871" class="st0" d="M-2.1,1773.1c0.2-5.2,7.4-7.1,6-13.1c1.1-7.2,7.6-10.6,11.5-15.8c2.9-3.8,7.1-6.5,9.6-10.7
		c4.8-2.8,7-8.2,11.4-11.4c2.4-1.7,4-4.9,7.8-4c0.7,0.8,1,1.9,1,2.9c-0.2,1.4-0.8,2.7-1.8,3.7c-2.7,2.8-4.3,6.4-7.5,8.8
		c-2.2,2.7-4.9,4.9-7.3,7.4c-1.8,2.6-3.9,5-6.3,7c-2.9,2.1-4,5.7-6.7,7.9c-2.9-1.1-4.4,0.9-5.4,3C7.5,1764.6,3.2,1769.5-2.1,1773.1z
		"/>
	<path id="Trazado_18872" class="st0" d="M-63,1843.8c3-7.7,10.8-10.5,16.3-15.7c6.8-6.4,13-13.4,19.3-20.3l4.4-2.9
		c1.4-0.5,1.8,0.4,2.2,1.4c-0.7,5.4-5.7,7.5-8.6,11.2c-2.7,3.2-7.8,5.2-4.9,10.9c-2,3.2-3.8,6.5-8.2,6.9c-4-0.1-5.3,4.5-11,5.9
		l10.3-10.5l-0.7-0.9C-50.3,1834.6-56.7,1839.2-63,1843.8z"/>
	<path id="Trazado_18873" class="st0" d="M-21.6,1806.4l-1.4-1.5c1-1.1,1.9-3,2.9-3.1c6.2-0.5,6.2-0.3,11.3-5.2
		c2.2-2.1,2.9,2.1,4.9,1.2c-0.2,6.8-6.7,8.7-10.1,13c-1.3,1.6-3.7,2.2-4.8,4.3l-1.5,1.4C-27.7,1814.2-20.1,1809.7-21.6,1806.4z"/>
	<path id="Trazado_18874" class="st0" d="M44,1721.2l0-2.9c0.2-1,0.7-2,1.6-2.6c2.7-1.8,5.7-3.2,7.7-6c1.3-1.8,3-3.1,5.5-1.8
		c0.5,0.5,0.4,1.3,0,1.8l-1.6,7.3c-0.5,2.5-2.6,4.2-3.5,6.5c-0.5,0.8-1.1,1.6-1.8,2.2c-2.2,1.4-3.6,4-6.6,4.2c-1,0.2-2,1.4-2.9,0
		c-1.2-3.2,1.2-5,2.8-6.8C47.5,1720.4,43.9,1722.1,44,1721.2z"/>
	<path id="Trazado_18875" class="st0" d="M-5.5,1806.7c-4,1.6-4.1,8.8-10.3,7.2c3.9-8.2,11.5-12.8,17.8-18.7c0.9-0.3,2-1.1,2.6-0.8
		c1.4,0.6,0.3,1.5-0.3,2.1C1.1,1799.8-2.2,1803.2-5.5,1806.7z"/>
	<path id="Trazado_18876" class="st0" d="M2.2,1777.6c-2.5,8.5-9,13.7-15.3,19.8c-1.1-3.9,2.1-4.9,3.4-6.9c-0.4-3.6,3.5-4.5,4.5-7.2
		l0,0c2.1-1.8,3.5-4.3,5.9-5.8L2.2,1777.6L2.2,1777.6z"/>
	<path id="Trazado_18877" class="st0" d="M2,1795.1l-17.8,18.7l-3,1.4c2.7-7.7,10.9-10.7,14.9-17.3C-1.5,1797.8-1.2,1793.5,2,1795.1
		z"/>
	<path id="Trazado_18878" class="st0" d="M34.8,1747.4c-3.6,1.9-5.9,5.4-9.3,9c2.1-8,8.7-14.6,13.8-14.7
		C39.5,1744.8,37,1746,34.8,1747.4z"/>
	<path id="Trazado_18879" class="st0" d="M21.3,1772c2.9-3.4,5.6-7.1,8.7-10.2c2-2,4.7-3.5,4.5,1.7l-1.5,1.4c-3,2.9-6,5.8-8.9,8.6
		C23,1773.6,21.9,1773,21.3,1772z"/>
	<path id="Trazado_18880" class="st0" d="M44,1721.2c2-0.7,3.2-3.1,6.5-2.4l-8.1,11.2h-1.5c-1.6-2.5-0.6-4.3,1.5-5.9L44,1721.2z"/>
	<path id="Trazado_18881" class="st0" d="M27.6,1740c2.5-2.4,4-5.7,7.3-7.2c0.8-0.8,2.1-0.8,2.9,0c0,0,0,0,0,0
		c-1.2,4.9-6.1,6.6-8.9,10.1C26.6,1742.9,26.5,1741.7,27.6,1740z"/>
	<path id="Trazado_18882" class="st0" d="M24.2,1773.5c1.1-4.3,4.5-7.7,8.9-8.6c-0.2,4.1-4.6,5.4-6,8.7L24.2,1773.5z"/>
	<path id="Trazado_18883" class="st0" d="M27.6,1740c-0.1,1.2,0.4,2.3,1.4,2.9c-1.8,2.1-2.5,5.3-5.9,5.8c-1.4,0.4-1.9-0.1-1.5-1.5
		L27.6,1740z"/>
	<path id="Trazado_18884" class="st0" d="M21.6,1747.2l1.5,1.5c-2.4,2.5-2.9,6.9-7.4,7.2C16.1,1752.2,18.4,1748.9,21.6,1747.2z"/>
	<path id="Trazado_18885" class="st0" d="M2.2,1777.6l7.2-8.3C8.8,1773.8,6.6,1776.8,2.2,1777.6L2.2,1777.6z"/>
	<path id="Trazado_18886" class="st0" d="M20,1758.1c-0.1,3.9-2.7,5.6-6.2,6.6L20,1758.1z"/>
	<path id="Trazado_18887" class="st0" d="M38,1732.8l-3-0.1c3.9-1.7,3.1-7.4,7.4-8.7c-1.1,1.8-1.6,3.8-1.5,5.9
		C39.9,1730.9,38.9,1731.8,38,1732.8z"/>
	<path id="Trazado_18888" class="st0" d="M0.8,1777.6c-1.4,2.5-2.1,5.7-5.9,5.8c-0.1-2.5,2.1-3.8,3-5.8L0.8,1777.6z"/>
	<path id="Trazado_18889" class="st0" d="M34.8,1747.4l4.5-5.8c1,0.7,1.5,1.8,1.4,2.9c-1,1-2,1.9-3,2.9c-0.8,0.8-1.3,2.4-3,1.4
		L34.8,1747.4z"/>
	<path id="Trazado_18890" class="st0" d="M-5.2,1783.3c0,3.4-3.4,4.6-4.5,7.2l-1.5-1.5l1.5-2.9L-5.2,1783.3z"/>
	<path id="Trazado_18891" class="st0" d="M45.3,1730c1.4-2.4,3.5-4.4,5.9-5.8c0.8,0.7,1,1.9,0.5,2.8c-2.1,1.6-3,4.8-6.5,4.4V1730z"
		/>
	<path id="Trazado_18892" class="st0" d="M45.3,1731.5l5.9-4.4c0.5,0.3,0.6,0.7,0.5,1s-0.3,0.5-0.5,0.5l-1.5,2.9
		C48.2,1731.9,46.7,1733.6,45.3,1731.5z"/>
	<path id="Trazado_18893" class="st0" d="M34.8,1748.8l3-1.4c-0.2,2.9-2.1,4.5-4.5,5.8L34.8,1748.8z"/>
	<path id="Trazado_18894" class="st0" d="M-21.6,1806.4c3.9,3-3.9,7.4,1.3,10.2c-2.1,3.2-3,7.4-7.4,8.7c-0.9-0.2-1.7-0.8-2.1-1.7
		c-0.3-2.4-1.8-4.6-0.7-7.1L-21.6,1806.4z"/>
	<path id="Trazado_18895" class="st0" d="M-29.1,1823.9l1.4,1.5c-8.6,6.9-14.5,16.7-23.7,23c1.5-5.3,6.2-8.5,9-13
		c3-1.8,5.5-4.3,7.4-7.2C-33.8,1825.7-32.8,1822.9-29.1,1823.9z"/>
	<path id="Trazado_18896" class="st0" d="M-21.9,1829.7l-9,7.3c-0.5,0.6-0.9,0.6-1.4,0C-31.7,1832.6-25.2,1828-21.9,1829.7z"/>
	<path id="Trazado_18897" class="st0" d="M-32.2,1837c0.5,0,0.9,0,1.4,0c0.1,0.5,0.1,0.9,0.1,1.4c-1.1,0.9-2.2,1.8-3.3,2.8
		c-0.8,0.1-1.7,0.1-2.5,0.2l-1.6-0.1C-38.3,1836.8-34.4,1838.1-32.2,1837z"/>
	<path id="Trazado_18898" class="st0" d="M91.5,1768.7l1.4,1.5c0.7,5.4-4.4,7-6.8,10.4c-2.9,3.6-5.5,7.4-9.6,9.7
		c-7.4,7.7-14.9,15.2-22.1,23c-4.9,5.3-9.3,11.1-17.1,14.7c0.7-6,2.1-10.4,6.4-13.9c3.9-3.2,7.1-7.2,10.7-10.9
		c10.5-7.4,17.4-18.3,26.9-26.7C84.7,1773.9,86.9,1769.7,91.5,1768.7z"/>
	<path id="Trazado_18899" class="st0" d="M82.6,1777.3c-8.9,9.1-15.7,20.5-28.1,25.9c1.8-3.9,6.9-5.3,7.5-10.1
		c5-8.4,11.6-15.7,19.3-21.6C83.9,1772.5,83.9,1772.5,82.6,1777.3z"/>
	<path id="Trazado_18900" class="st0" d="M85.4,1780.2c2.2-3.6,6.1-5.9,7.5-10.1c2.4-1.4,4.5-3.4,5.9-5.8c2.4,0,2.5,1.2,1.4,2.9
		l-13.3,14.4C85.5,1782.1,85,1781.6,85.4,1780.2z"/>
	<path id="Trazado_18901" class="st0" d="M100.2,1767.3c0.1-1.2-0.4-2.3-1.4-2.9l8.9-10.1C108.6,1760.5,102.9,1763,100.2,1767.3z"/>
	<path id="Trazado_18902" class="st0" d="M85.4,1780.2l1.4,1.5c-3.1,3.3-5.1,7.9-10.4,8.6L85.4,1780.2z"/>
	<path id="Trazado_18903" class="st0" d="M110.7,1751.4c1.9-4.2,4.4-8.1,7.5-11.6C118.5,1745.5,114.9,1748.6,110.7,1751.4z"/>
	<path id="Trazado_18904" class="st0" d="M-98.1,1641.6l-1.5-0.1c-0.9-0.6-1.4-1.7-1.4-2.9c0-0.4,0.1-0.9,0.1-1.3
		c1.6-0.6,2-3.6,5-2.1C-96.6,1637.3-97.4,1639.4-98.1,1641.6z"/>
	<path id="Trazado_18905" class="st0" d="M-89.1,1631.6c0,0.5,0,1,0,1.5c-0.1,0.5-0.1,0.9-0.1,1.4c-0.4,0-0.8,0.1-1.2,0.1
		c-1-0.4-2.7-0.3-2.2-1.9C-92.2,1631.1-90.4,1631.7-89.1,1631.6z"/>
	<path id="Trazado_18906" class="st0" d="M-57,1630.6c-4.5,4.8-8.1,10.6-14.8,12.9c-1.1-2.6,1-4.3,1.8-6.4c2.2-3.7,5.2-6.9,7.2-10.7
		c1-1.5,2.5-2.6,4.3-2.9c1.1-0.1,2.2,0.3,2.9,1.2C-54.6,1627.1-59.7,1627.8-57,1630.6z"/>
	<path id="Trazado_18907" class="st0" d="M-55.4,1624.8l-3-0.1c-1.1-3,0.7-4.6,3.1-5.7c1.6,0,2.2-3.4,4.5-1.4
		c0.8,1.1-0.3,2.1-0.1,3.2L-55.4,1624.8z"/>
	<path id="Trazado_18908" class="st0" d="M-46.6,1611.7c2.3,0.9-0.1,3.3,1.4,4.5l-1.4,1.5c-0.9,0.8-2.2,0.8-3-0.1c0,0,0,0,0,0
		L-46.6,1611.7z"/>
	<path id="Trazado_18909" class="st0" d="M-49.5,1617.6l3,0.1c-0.9,1.7-2.6,2.9-4.5,3.2c-1.6-1.1-0.3-2.2,0.1-3.2
		C-50.4,1617.6-50,1617.6-49.5,1617.6z"/>
	<path id="Trazado_18910" class="st0" d="M-68.8,1637.7c0.1,2.5-2.1,3.8-3,5.8l-1.5,1.4c-1.7-1.4-2.2-0.2-3.1,1.1
		c-2.4,3.4-3.8,7.9-8.8,9c-2-7.4,5.1-10.5,7.6-15.8c0.6-1.2,1.9-2,2.9-3.1c1.2-1.3,1.7-3.8,4.2-2.8
		C-68.5,1634.1-68.9,1636.1-68.8,1637.7z"/>
	<path id="Trazado_18911" class="st0" d="M-68.8,1637.7c-1.3-2.8-3-4.4-5.8-1.5c0-1,0-1.9,0.1-2.9c3.1-3.4,3.3-10.4,10.6-8.7
		c1.2,0.6,2.2,1.7,2.6,3C-63,1631.6-66.1,1634.5-68.8,1637.7z"/>
	<path id="Trazado_18912" class="st0" d="M-85.1,1655c2.8-3.8,6.9-6.5,8.3-11.3c0.3-1,1.4-2.9,3.1-1.5c0.5,0.4,0.3,1.8,0.4,2.7
		c-4.1,4.2-6.3,10.1-11.9,13L-85.1,1655z"/>
	<path id="Trazado_18913" class="st0" d="M-64.3,1626.1c-2.6-1.6-4.1,0.1-5.3,2c-1.1,2.2-2.8,4-5,5.2l0-2.9c1.2-2.1,1.9-4.7,4.5-5.8
		c0.5-0.8,1.1-1.6,1.7-2.3c1.2-1.2,1.3-4.2,3.8-3.4c2.5,0.8,2.2,3.3,1.7,5.4C-63.2,1625-63.7,1625.6-64.3,1626.1z"/>
	<path id="Trazado_18914" class="st0" d="M-64.2,1624.7c0-1.4,0-2.7,0.1-4.8l-5.9,4.7l1.5-4.3c-0.1-1.2,0.5-2.3,1.5-2.9l2.8-2.9
		l3-2.8c6,1.5,0.7,4.9,1.3,7.3C-59.9,1621.8-60.3,1624.6-64.2,1624.7z"/>
	<path id="Trazado_18915" class="st0" d="M-67,1617.3c-0.5,1-1,1.9-1.5,2.9l-4.5,1.3c0.1-1.9,1.3-3.6,3-4.3L-67,1617.3z"/>
	<path id="Trazado_18916" class="st0" d="M-64.2,1624.7c1.5-1.9,2.9-3.9,4.4-5.8c1.5,0.5,3-1.5,4.5,0.1c-1,1.9-2,3.8-3.1,5.7
		l-2.9,2.9l-2.9-1.5C-64.2,1625.6-64.2,1625.2-64.2,1624.7z"/>
	<path id="Trazado_18917" class="st0" d="M-118.6,1650.2l3-4.3c1.8,1.1,4.7-2.6,5.7,1.4c-0.7,2.3-1.3,4.7-4.3,5
		C-115.9,1652.4-117.7,1651.6-118.6,1650.2z"/>
	<path id="Trazado_18918" class="st0" d="M-101,1638.6c1,0.6,1.5,1.7,1.4,2.9c-2,1.9-4.1,3.8-7.2,3.2c0.5-1.5,1.1-3,1.6-4.5
		L-101,1638.6z"/>
	<path id="Trazado_18919" class="st0" d="M-114.1,1641.5c-2.2,0.1-2.9-2.1-4.4-3.1c-0.4-0.3-0.5-0.6-0.4-0.8
		c0.1-0.3,0.3-0.4,0.4-0.4l3-1.5l1.8,1.6c0.4,0.9,0.8,1.7,1.3,2.6L-114.1,1641.5z"/>
	<path id="Trazado_18920" class="st0" d="M-114.2,1651.7l4.4-4.5l1.6,0.1c-1.4,2.6-2,6-6,6C-114.7,1652.8-114.6,1652.2-114.2,1651.7
		z"/>
	<path id="Trazado_18921" class="st0" d="M-64.2,1826.3c-3.5,5.4-9.1,9.1-15.5,10c-3.3,0.6-1.8-1.7-2.2-2.9c0.7-0.6,1.5-0.9,2.2-1.5
		c-0.7,0.5-1.5,0.9-2.2,1.5c-1.6-1.1-3.9-2-1.4-4.4c5.8-5.3,11.4-10.8,15.5-17.5c3.7-6.1,9-10.5,13.6-15.7c3,0.2,6.3-1.6,8.6,1.8
		c0.6,3.5-1.4,5.2-4.2,6.4c-8,2-7.9,9.6-10.5,15.3C-60.8,1822.1-65,1822.7-64.2,1826.3L-64.2,1826.3z"/>
	<path id="Trazado_18922" class="st0" d="M-53.6,1795.8c-0.2,1.2,0.1,2.9-0.6,3.4c-9.5,7.8-15.4,18.8-23.9,27.5
		c-1.4,1.4-3.2,2.2-5.2,2.2c2.2-4.1,4.3-8.5,8.3-11c4.8-3,3.9-5.8,0.9-9.2c0.5-1.3,1.5-2.4,2.9-2.9c5.1-5.6,9.2-12.1,14.6-17.5
		c2.2-2.3,4.9-5.3,8.3-1.3C-46.4,1792.2-51.5,1793-53.6,1795.8z"/>
	<path id="Trazado_18923" class="st0" d="M-81.6,1818.8c-0.4-1.5,1.6-3,0-4.5c-1-2,0.4-3.1,1.6-4.3c1.5-3.3,3-1,4.5,0.1
		C-76.6,1813.5-78.7,1816.6-81.6,1818.8z"/>
	<path id="Trazado_18924" class="st0" d="M-84.7,1820l2.8,0.1c-0.4,1.8-1.4,3.4-2.8,4.6c-0.5-0.5-1-1.1-1.5-1.6L-84.7,1820z"/>
	<path id="Trazado_18925" class="st0" d="M120,1814.3c-1.1,3.5-6.2,4.2-6,8.7c-1.4,2.4-3.5,4.4-5.9,5.8c-3.1,0.1-6-1.7-7.1-4.6
		c-1.2-3.2,2.3-4.3,4-5.9c3.3-3.1,7.1-5.6,10.7-8.4C113.4,1815,116.3,1815.1,120,1814.3z"/>
	<path id="Trazado_18926" class="st0" d="M60.8,1769.7c1.2,3.7-4.2,6.3-1.6,10.2c-4,5.8-7,12.5-14.8,14.4c3.1-9.3,10-16.4,15-24.6
		L60.8,1769.7z"/>
	<path id="Trazado_18927" class="st0" d="M82.6,1777.3c-2.7-1.4,1.3-4.4-1.4-5.9c2.3-3.9,5.3-7.3,8.9-10.1c2.6-0.6,1.7,2.2,2.9,3
		c-0.5,1.4-1,2.9-1.5,4.4C89.1,1772.1,86.1,1775,82.6,1777.3z"/>
	<path id="Trazado_18928" class="st0" d="M100.7,1736.6c1,1,1.9,2,2.9,3L97,1748C94.5,1742.4,98.7,1739.9,100.7,1736.6z"/>
	<path id="Trazado_18929" class="st0" d="M69.7,1756.6l-4.4,4.3c-0.3-3.8,2.2-6.2,4.5-8.7C69.8,1753.7,69.8,1755.2,69.7,1756.6z"/>
	<path id="Trazado_18930" class="st0" d="M52.7,1722.8c1.2-2.1,1.9-4.7,4.5-5.8l1.5,1.5l-3,4.3c-0.7,0.8-2,0.8-2.8,0.1
		C52.8,1722.9,52.7,1722.8,52.7,1722.8z"/>
	<path id="Trazado_18931" class="st0" d="M58.7,1709.7c0-0.5,0-1,0-1.5c-0.5-0.6-0.7-1.3-0.4-2c1.6-2.2,3.2-4.2,6.3-2.3l0,0
		C63.3,1706.5,62.5,1709.7,58.7,1709.7z"/>
	<path id="Trazado_18932" class="st0" d="M52.7,1722.8l2.9,0c-1.2,2.1-1.9,4.7-4.5,5.8c0-0.5,0-1,0-1.5l0-2.9L52.7,1722.8z"/>
	<path id="Trazado_18933" class="st0" d="M73.7,1688l6-7.2c2.8,2.8-1.3,3.8-1.6,5.8l-4.4,2.9c-0.5-0.3-0.6-0.7-0.4-1
		C73.3,1688.2,73.5,1688,73.7,1688z"/>
	<path id="Trazado_18934" class="st0" d="M73.7,1688l0,1.5c0.1,2.5-2.1,3.8-3,5.8l-6,7.2c-3.1-2.4-3-3,1.6-7.3
		C69.6,1693.7,70,1689.2,73.7,1688z"/>
	<path id="Trazado_18935" class="st0" d="M66.3,1695.2c0.9,2.7-4.5,4.1-1.6,7.3c0,0.5,0,1,0,1.5c-2.5-0.2-3.9,2-5.9,2.8
		c-2.2-0.3-5,1.5-6.5-1.7c-0.3-0.9-0.3-1.9,0.1-2.8c1.6-2.1,4-3.3,5.7-5.3c1.6-1.1,2.9-2.9,5.3-1.8L66.3,1695.2z"/>
	<path id="Trazado_18936" class="st0" d="M48.7,1697.9l4.3-4.4c2.4-0.6,3-2.9,4.2-4.6c1.8-1.1,2.7-3.4,4.9-4c1.5,0,2.7,1.1,2.7,2.6
		c0,0.1,0,0.2,0,0.3c-0.1,4.5-3.8,6.2-6.6,8.6c-2.2,1.8-3.6,4.7-7.1,4.3C49.7,1700.3,48.2,1700,48.7,1697.9z"/>
	<path id="Trazado_18937" class="st0" d="M57.5,1695.1c2.5-2.4,5.8-3.9,7.4-7.2c1,0.6,1.5,1.8,1.4,2.9c-1,1.4-2,2.9-3,4.4l-4.4,2.9
		C56.4,1698.1,56.5,1696.8,57.5,1695.1z"/>
	<path id="Trazado_18938" class="st0" d="M62.2,1685c-0.5,2.6-1.8,4.2-4.6,4.4c-0.5,0.4-1.2,0.4-1.6-0.1c0,0,0,0,0-0.1
		c1.5-2.5,2.2-5.7,6-5.8L62.2,1685z"/>
	<path id="Trazado_18939" class="st0" d="M68.4,1685.4c0-2.3,1.2-3.2,3.2-3.8C71.7,1684,70.5,1684.9,68.4,1685.4z"/>
	<path id="Trazado_18941" class="st0" d="M-5.9,1730.7l22.3-28.9c0.1,0.8,0.2,2.3,1.2,1.8c3.5-1.8,3.1,0.6,3.1,2.6
		c1.3,2.7-0.4,4.6-1.8,6.4c-1.8,1.9-2.9,4.4-3.1,7c-0.5,3.9-3.6,6.4-5.4,9.6c-0.3,0.6-0.7,1.1-1.1,1.7c-3,4-5.3,8.5-8.2,12.6
		c-4.2,6.6-8.8,12.8-13.9,18.7c-1.6,1.1-3.5,2.2-5.1,0.4c-1.7-1.9,0.1-3.4,1-5.1c2-3.5,4.7-6.7,5.9-10.6c3.6-3.1,5.2-8,10-10.8
		c-3,1.4-4.1,4-6.4,5.3c-1.4,0.2-2.8-0.6-3.4-1.9C-10.9,1735.6-8.7,1733-5.9,1730.7z"/>
	<path id="Trazado_18942" class="st0" d="M14.8,1719.3c-2.3-6.3,5.3-8.1,6-13.1c10.8-14.7,21.6-29.4,32.4-44
		c1.7-2.3,3.6-4.5,5.7-6.4c1.5-1.3,1.9,0.1,2.1,1.4c-1.2,3.1-5.8,4.3-4.5,8.7l-4.5,5.8c-2.3,3.2-4.5,6.5-6.7,9.7
		c-9.1,10.4-15,23.1-24.4,33.3C19.1,1716.6,17.8,1719,14.8,1719.3z"/>
	<path id="Trazado_18943" class="st0" d="M23.9,1691.7c0.3-4.4,3.9-6.8,6-10.1C31.2,1686.9,27.1,1689,23.9,1691.7z"/>
	<path id="Trazado_18944" class="st0" d="M38.5,1696.3l-3,8.7c-0.8,2.3-1.7,4.5-3,6.6c-1.2,1.7-2.2,3.6-2.8,5.6
		c-0.2,0.6-0.5,1.2-0.8,1.8c-1,1.3-2.2,2.4-3.7,3.1c-5.5,2.6-6.5,9-11,12.5c-0.6,0.5-1.2,0.9-1.9,1.2c-6.1,0.6-5.5-2.5-3.6-6.4l0,0
		c8.1-9.6,15.6-19.6,22.8-29.8c1.4-1.9,1.9-5.2,5.4-4.8C37.5,1695.3,38,1695.8,38.5,1696.3z"/>
	<path id="Trazado_18945" class="st0" d="M37,1694.8c-8,9.9-14.3,21.1-22.9,30.4c-1.6,1.7-2.4,4.3-5.4,4.2c0.6-4.2,5-6.2,6-10.1
		l29.8-39c1.3-0.3,2,0,1.5,1.5L37,1694.8z"/>
	<path id="Trazado_18946" class="st0" d="M54.8,1676.1c-0.1,1.5,1,2.8,2.5,3c0.1,0,0.2,0,0.3,0c-1.9,4.1-4.4,7.8-7.5,11.1
		c-3,3-4.3,2-5.8-1C47.2,1684.2,50.2,1679.4,54.8,1676.1z"/>
	<path id="Trazado_18947" class="st0" d="M46,1681.8l-1.5-1.5c2.4-3,3.7-6.9,7.4-8.7C51.3,1675.8,48.7,1678.8,46,1681.8z"/>
	<path id="Trazado_18948" class="st0" d="M77.1,1654.5c-1.2,0.1-2.3-0.5-2.9-1.5c0-0.5,0-1,0-1.5C77.7,1650.1,77,1652.6,77.1,1654.5
		z"/>
	<path id="Trazado_18949" class="st0" d="M27.9,1718.1l0-1.5c0.8-2.1,3.9-2.9,3-5.8c1.2-2.1,1.9-4.7,4.5-5.8c3.8,1,3.3-2.7,4.3-4.3
		c2.3-3.8,5.2-4.3,8.9-2.8c0.6,1,1.7,1.6,2.9,1.5c0.5,0.5,0.7,1.1,0.6,1.8c-0.9,2.4-2.3,4.7-4.1,6.6c-2.2,1.8-2.9,4.8-2,7.5
		c0,0.6-0.2,1.2-0.7,1.6c-0.5,0.5-1,1-1.5,1.4l-17.8,15.8c-1.8,1.9-2.7,4.9-6.1,4.7c-3.8-3.8-0.6-6.4,1.4-9.3
		C24.1,1725.9,28.3,1723.3,27.9,1718.1z"/>
	<path id="Trazado_18950" class="st0" d="M57.7,1679c1-4.2,2.4-7.9,7.4-8.7C62.6,1673.2,61,1676.8,57.7,1679z"/>
	<path id="Trazado_18951" class="st0" d="M56,1689.2l1.6,0.1c-0.8,2.3-1,5-4.6,4.1C54,1692.1,55,1690.7,56,1689.2z"/>
	<path id="Trazado_18952" class="st0" d="M-94.4,1790.8l10.2-10.8l1.3,1l-7.1,8.4C-91.6,1789.3-92.2,1792.6-94.4,1790.8z"/>
	<path id="Trazado_18953" class="st0" d="M-28,1749.4c0.2-2.9,2.1-4.5,4.5-5.8c1.6,0.5,2.9,1.8,3.5,3.3c1,5.7-5.5,8.2-5.6,13.3
		c-0.2,1.7-1.2,3.3-2.6,4.3c-0.2,0-0.5,0.1-0.7,0.2c-1.3,0.8-2.1-3.2-4.4,0.4c-4.8,7.6-8.6,15.9-15.6,22c-3-1.8-4.5,0.6-6,2.3
		c-4.5,5-8.9,10.2-13.4,15.3c-0.7,0.8-1.2,2.4-2.8,1.1c2.7-6.7,6.2-13.1,10.5-18.9c-0.8-1.6-0.8-3.5-0.2-5.1
		c-3.7,4.5-4.9,2.1-5.5-2.3l-1.4-1.5c-0.7-1.1-0.5-2.4,0.5-3.3c7.5-6.2,13.5-13.9,21-20c1-0.7,2.3-0.8,3.4-0.2
		c2.3,2.9-2.2,4.5-1.4,7c0.1-1.2,0.8-2.6,2.1-2.2c3.3,1,1.5,4,2,6.1c-0.1,1-0.5,1.9-1.2,2.7c-2.4,3.5-5.2,6.8-8.2,9.8
		c3-2.9,5.7-6.2,8-9.6c1.6-5.3,5.8-8.6,9.3-12.5C-30.6,1753.9-28.6,1752.1-28,1749.4z"/>
	<path id="Trazado_18954" class="st0" d="M-42.7,1755c-4.2-0.2-5.1,4.1-7.6,6.1c-6.2,5.2-11.8,11.2-17.6,16.9
		c-6.1,5.6-12.7,10.7-17.8,17.3l-2.9,0l8.9-10.1c1.6-3.6,4.4-6.3,7.2-8.9c11-10.8,22.2-21.4,33.2-32.2c1.7-1.7,3.3-3.5,5.8-4.2
		c4,1.5,4,1.8-0.2,5.2l-1.5,2.9C-37.6,1750.4-38.8,1754.2-42.7,1755z"/>
	<path id="Trazado_18955" class="st0" d="M-66.5,1779.5c1.5,0.7,1.9,6.4,4.8,0.9c1-2.1,2.8-3.7,5.1-4.2c0.5,4.4-4.7,6.6-4.1,10.7
		c-3.4-2.4-5.4,4-8.8,1.3l-2.9,0L-66.5,1779.5z"/>
	<path id="Trazado_18956" class="st0" d="M-72.4,1788.2c-0.6,3.8-3.6,6.7-7.4,7.2C-78,1792.4-75.4,1790-72.4,1788.2z"/>
	<path id="Trazado_18957" class="st0" d="M-78.5,1799.8c1.4-2.4,3.5-4.4,5.9-5.8C-74.1,1796.3-72.6,1801.9-78.5,1799.8z"/>
	<path id="Trazado_18958" class="st0" d="M-80.1,1810l-1.6,4.3l-3-0.2C-84.5,1811.7-82.5,1809.8-80.1,1810
		C-80.1,1810-80.1,1810-80.1,1810z"/>
	<path id="Trazado_18959" class="st0" d="M-87.4,1809.9c1.4-2.5,2.1-5.7,5.9-5.8C-83.2,1806.2-84,1809.4-87.4,1809.9z"/>
	<path id="Trazado_18960" class="st0" d="M-48.5,1746.2c2.9-5,9-7.4,9.8-14.5l-18.6,18.7c-1.5,0.5-1.9-0.1-1.4-1.5
		c4-4.3,7.9-8.7,11.9-13l13.3-11.5c3.5-0.8,5.4-3.6,7.5-6.1c2.3-2.7,4.2-2.6,6.2,0.3c-2.3,7.8-8.7,12.6-14,18.2
		c-1.2,1.1-2.4,2.3-3.5,3.6c-3.7,4.2-5.7,10.2-11.8,12.1C-52.6,1750-49.4,1748.2-48.5,1746.2z"/>
	<path id="Trazado_18961" class="st0" d="M-55.1,1702.2c-10.1,12.8-17.9,27.1-26.9,40.5c-2.1,2.5-3.2,6-7.1,8.2
		c1.2-5.8,5.1-9.3,7.7-13.4c7.8-12.3,15.9-24.3,24-36.3c1.1-1.3,2.4-2.4,3.8-3.3c0.2,0.2,0.4,0.5,0.6,0.7
		C-52.5,1700.5-53.6,1701.5-55.1,1702.2z"/>
	<path id="Trazado_18962" class="st0" d="M-58.7,1748.9l1.4,1.5c-13,12.3-25.9,24.7-38.9,37c-2.3,2.2-4.7,4.1-7.1,6.2
		c0.4-1.1,0.6-2.5,1.3-3.3C-87.5,1776.4-73.1,1762.7-58.7,1748.9z"/>
	<path id="Trazado_18963" class="st0" d="M-41.6,1677.6l8.9-10.1c2.9,3.2-2.5,4.6-1.6,7.3l0,0c-1.4,2-3.1,3.7-4.5,5.8l0,0
		c-3,3.4-5,7.6-8.1,11c-2.6,1.8-2.5,6.4-6.8,6.3l0,0C-51.8,1689.8-44.4,1685.1-41.6,1677.6z"/>
	<path id="Trazado_18964" class="st0" d="M-68.4,1712.2c-2.5-4.1,3-5.5,3.1-8.7l10.3-13.8l1.6,1.1L-68.4,1712.2z"/>
	<path id="Trazado_18965" class="st0" d="M-86.6,1760.2c-0.3,1.8-0.4,3.8-3.2,3.6C-90.1,1761.3-88.7,1760.4-86.6,1760.2
		L-86.6,1760.2z"/>
	<path id="Trazado_18966" class="st0" d="M-111,1726.2l-2.9,1.4c2.1-5.8,7.4-9.3,10.4-14.5c1-0.2,2-1.4,2.9,0L-111,1726.2z"/>
	<path id="Trazado_18967" class="st0" d="M-120.2,1660.4c1.4-2.5,2.2-5.7,5.9-5.8c0.2,2.6-2.1,3.9-3,5.9L-120.2,1660.4z"/>
	<path id="Trazado_18968" class="st0" d="M6.4,1694.3c-6.9,6.9-11.5,15.6-17.8,23.1c-0.9,1.1-2,2-3,2.9c-2.5-4,0.9-7.3,1.2-10.9
		c0.8-2.9,3-4.9,4.6-7.3c0.2-0.4,0.6-0.9,0.9-1.3c-0.1,0.1,0.4-0.1,0.4-0.1s-0.5-0.1-0.5-0.1c-1.1,0.9-2.1,1.6-3.5,0.8l-1.4-1.5
		c2.1-3.2,3-7.4,7.4-8.7c2.9-0.7,3.5-5.3,7.4-4.3l2.9,0c2.1-0.4,3.7-2.9,6.2-1.5c0.4,0.6,0.5,1.2,0.6,1.9
		C11.2,1690.7,8.2,1692.1,6.4,1694.3z"/>
	<path id="Trazado_18969" class="st0" d="M-11.3,1701.4l4.4-2.9c0.8,0.8,0.8,2,0.1,2.8c-0.1,0.1-0.1,0.1-0.1,0.1l0,0
		c-4.1,4.8-7.9,9.8-11.4,15.1c-0.4,0.9-1.1,1.7-2,2.2c-3.3-2.3-4.1,0.6-6,2.4c-1.8,1.7-3,6.5-7.3,3.3L-11.3,1701.4z"/>
	<path id="Trazado_18970" class="st0" d="M2.1,1687c-2.7,1-4,4.4-7.4,4.3c1.7-2.8,4.3-5.1,4.5-8.7c0.3-1.3,1.5-2.2,2.8-2.1
		c1,0.2,1.8,0.6,2.5,1.3c0.2,0.3,0.3,0.6,0.5,0.8L2.1,1687z"/>
	<path id="Trazado_18971" class="st0" d="M2.2,1681.1l-2.9,1.4l-1.5-1.5l1.5-2.9l2.9,0l0,0C3,1679,3,1680.3,2.2,1681.1
		C2.2,1681.1,2.2,1681.1,2.2,1681.1z"/>
	<path id="Trazado_18972" class="st0" d="M-53.6,1697.9c3-1.6,3.9-4.8,6-7.2c1.3-0.3,1.9,0.1,1.4,1.5c-3.3,3.6-4.1,9.2-8.9,11.6
		c0-0.5,0-1,0-1.5C-54.6,1700.8-54.1,1699.3-53.6,1697.9z"/>
	<path id="Trazado_18973" class="st0" d="M-46.2,1692.1l-1.4-1.5c3.1-3.2,4.7-7.8,8.9-10.1C-40.5,1684.9-42.4,1689.1-46.2,1692.1z"
		/>
	<path id="Trazado_18974" class="st0" d="M-38.7,1680.6c0.2-2.9,2.1-4.5,4.5-5.8C-34.4,1677.7-36.4,1679.3-38.7,1680.6z"/>
	<path id="Trazado_18975" class="st0" d="M6.4,1694.3c0-3.4,3.4-4.6,4.5-7.2c1.2-1.8,1.8-4,3.3-5.7c1.1-1.1,2.2-2.5,4.1-1.5
		c5.2-2.4,8.9-6.6,12-11.2c2-3,4.1-3.8,7.2-1.7c-1.4,2.9-2.8,5.8-6,7.2c-4,2.5-5.8,6.9-8.9,10.1l0,0c-1.3,1.2-1.7,3.9-4.4,2.9
		C14.2,1689.6,11.2,1693.5,6.4,1694.3z"/>
	<path id="Trazado_18976" class="st0" d="M15.5,1669.7c0.1,2.5-2.1,3.8-3,5.8l-3,2.9c-1.5,1-2.9,1.3-4.4-0.1
		c2.3-3.9,5.3-7.3,8.9-10.1C14.6,1668.6,15.5,1668.8,15.5,1669.7z"/>
	<path id="Trazado_18977" class="st0" d="M18.3,1679.9l-3,2.9c-1.4,1-2.9,2-4.4,2.9c-2,0.4-3.4,2.9-5.9,1.4
		c2.4-4.1,6.9-5.7,10.4-8.5C16.8,1677.4,18.1,1677.8,18.3,1679.9z"/>
	<path id="Trazado_18978" class="st0" d="M5.2,1678.3l4.4,0.1c-0.9,1.9-2.5,3.4-4.4,4.3l0,0C3.9,1681.4,3.9,1679.5,5.2,1678.3
		L5.2,1678.3z"/>
	<path id="Trazado_18979" class="st0" d="M5.1,1678.3c0,1.5,0,2.9-0.1,4.4c-1.2,0.1-2.3-0.5-2.9-1.5l0-2.9L5.1,1678.3z"/>
	<path id="Trazado_18980" class="st0" d="M15.5,1669.7l-1.5-1.5c1.5-1,3-1.9,4.4-2.9C18.5,1667.2,17.3,1669,15.5,1669.7z"/>
	<path id="Trazado_18982" class="st0" d="M-7.9,1771.6l0-1.5c-1.3-3.3,1.4-4.9,2.8-7.1c3.6-5.3,8.6-9.2,12.7-14
		c4.5-3.2,6.8-9.1,12.7-10.6l5.9-4.3c-4.1,8.4-12.4,13.1-17.6,20.6c-1.5,1.9-3.1,3.7-4.7,5.4C-1,1762.9-2.6,1769.2-7.9,1771.6z"/>
	<path id="Trazado_18983" class="st0" d="M-29.1,1823.9l-5.9,4.3c-2-1.5-4.6-2.5-1.6-5.7c2-2.1,3.5-4.5,6.1-5.9
		C-29.2,1818.8-26.7,1820.9-29.1,1823.9z"/>
	<path id="Trazado_18984" class="st0" d="M45.5,1716.8l0-1.5c-0.6-1-0.1-1.8,0.5-2.6c2.2-2.2,4.1-4.7,6.1-7c0.3-0.2,0.5-0.3,0.8-0.4
		c1.2,3.2,5-3.3,5.8,1.6c0,0.5,0,1,0,1.5c-4.2-0.4-3.7,4.5-6.4,5.6C50,1714.8,48.5,1717.5,45.5,1716.8z"/>
	<path id="Trazado_18985" class="st0" d="M-31.5,1782.9l-10.4,13c-0.8-0.6-1.4-1.4-1.7-2.3c-0.4-0.9-0.9-1.7-1.6-2.4
		c-0.3,1.8,1.3,3.1,1,4.8c-0.3,1.1-0.8,1.8-2.1,1.3c-2.4-0.8-6,4.1-7.3-1.6c-2.1-0.5-3.5-1.5-0.6-2.8c2.8-1.2,5.5-2.1,5.2-5.9
		c3.6-8.4,9.6-15.3,14.2-23c2.4-4,4.4,0.1,6.6-0.1c0.9,0.6-1.4,3.2,1.6,2.5c0.6,0.3,1.1,0.7,1.6,1.1
		C-22.2,1773.4-23.6,1776.6-31.5,1782.9z"/>
	<path id="Trazado_18986" class="st0" d="M-49.3,1807.5c-2.4,5.4-7.9,7.7-11.9,11.5c0-8.4,5-16,10.5-15.9
		C-49.1,1804.2-50.5,1806.2-49.3,1807.5z"/>
	<path id="Trazado_18987" class="st0" d="M-49.3,1807.5c-3.7-0.4-1-2.9-1.4-4.4c2.4-1.2,4.3-2.8,4.5-5.8l1.5-1.4
		c-0.5-2.5,0.6-3.4,3-2.9l0,2.9L-49.3,1807.5z"/>
	<path id="Trazado_18988" class="st0" d="M-81.9,1833.3c1.4-2.8,4.1-4.6,7.2-4.8C-76.3,1832.3-79.1,1832.7-81.9,1833.3L-81.9,1833.3
		z"/>
	<path id="Trazado_18989" class="st0" d="M51.5,1700.8c0-0.5,0-1,0-1.4c3.1,0.1,3.4-3.6,5.9-4.3c-0.1,1.2,0.5,2.3,1.4,3
		c-1.3,2.3-3,4.1-5.9,4.3C51.7,1702.7,51,1702.4,51.5,1700.8z"/>
	<path id="Trazado_18990" class="st0" d="M51.5,1700.8l1.5,1.5c0,1-0.1,1.9-0.1,2.9l0,0c-1,1.8-1.4,4.3-4.4,3.8
		c-1.1-0.4-1.9-1-1.5-2.4L51.5,1700.8z"/>
	<path id="Trazado_18991" class="st0" d="M16.6,1693c-3.4,8.3-8.1,15.5-16.3,19.8c-3.4,1.8-4.9,5.3-6.9,8.3
		c-2.4,3.6-5.6,6.6-9.3,8.6C-7.6,1713.5,6.5,1705,16.6,1693z"/>
	<path id="Trazado_18992" class="st0" d="M-20.3,1718.8c0-1,0-1.9,0-2.9c3.4-1.9,4.5-6.5,8.9-7.2l-3.1,11.7l-4.5,8.7
		c-4,0.3-6.8,2.7-9.6,5.4c-1.7,1.7-3.3,4.3-6.5,2.9c-0.1-0.1-0.2-0.4-0.2-0.6c0-0.2,0.1-0.5,0.2-0.7L-20.3,1718.8z"/>
	<path id="Trazado_18993" class="st0" d="M-26.7,1759.6c-2.7-3.1,1.1-3.9,2-5.7c1.2-2.5,3.8-4.3,4-7.4c0.1-0.3,0.2-0.6,0.2-0.9
		c0.7-1.4,1.6-2.7,2.4-4c0.1-0.3,0.2-0.6,0.3-0.9c2.3-3.4,4.6-6.7,6.9-10.1c1.8-2.7,3.3-1.8,5,0c-0.2,3.6-2.8,5.9-4.5,8.7
		c0.9,4.1-3.2,5.6-4.5,8.6c-2,2.7-3.7,5.5-5.7,8.1C-22.1,1758-23.4,1760.7-26.7,1759.6z"/>
	<path id="Trazado_18994" class="st0" d="M-35.2,1736.1c4.5,0.2,6-3.9,8.5-6.3c2.7-2.6,4.9-3,7.7-0.7c-3.8,6.4-7.1,13.2-14.8,15.9
		c-0.5-1.5,4.5-2.9,0.1-4.4c-2.1,1.4-3.5,0.6-4.4-1.5L-35.2,1736.1z"/>
	<path id="Trazado_18995" class="st0" d="M-42.7,1755c2.4-2.5,2.9-6.9,7.4-7.2c2.7,3.4-4,6.8-0.2,10.2c-0.1,4-3.3,5.4-6,7.2
		c-2.4-0.3,1.9-6.3-3.8-4.5C-45.8,1760.9-43.3,1757.1-42.7,1755z"/>
	<path id="Trazado_18996" class="st0" d="M-41.4,1765.2l6-7.2c1.7-3.6,4.7-6,7.4-8.7c2,1.7,0.5,2.9-0.6,4.2
		c-4.3,4.9-8.6,9.7-12.8,14.6l0,0C-41.5,1767.2-41.4,1766.2-41.4,1765.2z"/>
	<path id="Trazado_18997" class="st0" d="M-20.7,1746.6c-1.5,0.1-2.8-1.1-2.9-2.6c0-0.1,0-0.2,0-0.3c0.9-3.2,1.6-6.8,5.9-2.8l0,0
		C-17.1,1743.5-19.5,1744.7-20.7,1746.6L-20.7,1746.6z"/>
	<path id="Trazado_18998" class="st0" d="M22.6,1684.4c2.2-4.1,3.5-8.9,8.9-10.1C28.8,1677.9,26.9,1682.2,22.6,1684.4z"/>
	<path id="Trazado_18999" class="st0" d="M18.2,1687.2l4.4-2.9c-0.9,3.5-3,6.6-6,8.7l0,0L18.2,1687.2z"/>
	<path id="Trazado_19000" class="st0" d="M-16.3,1746.6c2-2.4,4-4.8,5.9-7.2c1,0.5,1.9,1,2.9,1.5c0.6,2.8-1.6,4.1-3,5.8
		c1,5.6-3.3,8.8-5.7,12.9c-0.6,1-2.1,1.7-0.1,2.4c0.7,0.3,1.8-0.5,2.7-0.8c1.1,0.2,1.9,1.1,2,2.2c-1.3,5.8-6.1,9.8-8.1,15.3l-3,2.9
		c-4.9-2-2.7-5.5-1.1-8c2.8-4.4,0-4.7-3.1-5.2l0-1.5c-1.1-5.7,4.3-7.8,6.4-11.8C-18.9,1752.4-16,1750.3-16.3,1746.6z"/>
	<path id="Trazado_19001" class="st0" d="M8.5,1749.9l-11.9,14.4c-2.8-3-2.6-3.8,0.7-8.3c2.1-2.9,6.6-4.7,4.8-9.6
		c-1-1.2-1.7-2.6-2.2-4c2.9-4.4,4.7-9.6,8.9-13c0.3,2.6-1.3,7,4.3,4.4C17,1740.8,11.6,1745,8.5,1749.9z"/>
	<path id="Trazado_19002" class="st0" d="M-0.2,1742.5c1.5-0.1,2.8,1.1,2.9,2.6c0,0.1,0,0.2,0,0.3c-2.7,7.7-7.1,13.9-14.9,17.3
		l-1.4-1.5C-9.1,1755-4.7,1748.7-0.2,1742.5z"/>
	<path id="Trazado_19003" class="st0" d="M-10.5,1746.7c-0.1-2.5,2.1-3.8,3-5.8l7.9-9.4C0.7,1735.4-6.8,1745.4-10.5,1746.7z"/>
	<path id="Trazado_19004" class="st0" d="M8.5,1749.9c0.9-5.5,5.4-10,4.6-16l0,0c3.7-1,4.7-4.6,6.6-7.2c1.4-2.2,3.2-4.2,5.2-5.8
		l3-2.9c2.7,2.2,1.6,3.9,0.2,6.7c-2.5,4.6-9.7,6.7-7.8,13.7C16.8,1742.6,13.3,1746.9,8.5,1749.9z"/>
	<path id="Trazado_19005" class="st0" d="M25,1720.9c-3.9,4.3-3.9,12.4-11.9,13c2.1-3.2,4.4-6.2,6.3-9.5
		C20.7,1722.1,22.1,1720.5,25,1720.9z"/>
	<path id="Trazado_19006" class="st0" d="M31,1710.8c2.4,3.7-1.3,4.2-3,5.8C27.9,1714.1,30,1712.8,31,1710.8z"/>
	<path id="Trazado_19007" class="st0" d="M47.1,1706.6l1.5,1.5c1.7,2.5-0.7,4-1.6,5.8l-1.5,1.4C42.7,1712.4,42.9,1711,47.1,1706.6z"
		/>
	<path id="Trazado_19008" class="st0" d="M-38.1,1739l4.4,1.5c-14.7,15.5-30,30.3-46,44.6c-0.2-0.7-0.8-1.8-0.5-2
		c6.1-6.4,7.2-16.4,15.5-21.1c1.3,0,1.5,3.6,4,0.4c3.2-4.2,6.8-8.5,12.2-10.4L-38.1,1739z"/>
	<path id="Trazado_19009" class="st0" d="M-48.5,1752l-16.6,17.1c-1.3-3,2.6-4.9,0.3-7.1c4.8-5.9,10.3-11.2,16.3-15.8
		C-48.1,1748.1-51,1750-48.5,1752z"/>
	<path id="Trazado_19010" class="st0" d="M-16.3,1746.6c3.2,4.2-0.9,7.4-2.6,9.5c-2.9,3.5-5.3,7.2-8,10.8c-1.8,0.9-2.4,3.9-5.3,3
		c0.1-2.8,3.1-3.6,3.8-5.9l1.5-4.4C-21.7,1756.6-19.9,1750.9-16.3,1746.6z"/>
	<path id="Trazado_19011" class="st0" d="M-41.5,1768.2c-2.2,6.4-4.8,12.3-13.6,13.4C-51.2,1776.5-46.6,1772-41.5,1768.2
		L-41.5,1768.2z"/>
	<path id="Trazado_19012" class="st0" d="M-11.4,1708.7c-3.2,2.1-4.6,6.4-8.9,7.2c3.5-5.6,8-10.5,13.4-14.4
		C-6.9,1704.8-10.3,1706.1-11.4,1708.7z"/>
	<path id="Trazado_19013" class="st0" d="M-6.9,1701.5c0-1,0-2,0.1-2.9c0.6-0.9,1.5-2.7,2.4-1.4C-3.1,1699.2-5.2,1700.5-6.9,1701.5z
		"/>
	<path id="Trazado_19014" class="st0" d="M10.9,1685.7c0.7-1.8,2.5-2.9,4.4-2.9c-0.9,1.9-2.5,3.4-4.4,4.3
		C10.9,1686.6,10.9,1686.1,10.9,1685.7z"/>
	<path id="Trazado_19016" class="st0" d="M-26.9,1768.4c2.1,0.4,2.7-4.3,5.6-1.5c2.5,2.3,0.3,3.9-0.6,5.6c-1.4,2.9-3.3,5.8-0.9,9.1
		c-1.6,5.8-7,8.2-10.7,12.3c-3-4.7,4.8-6.8,1.9-11c0.3-3.9,3.7-5.9,5.6-8.7C-23.7,1771.3-25.2,1770.1-26.9,1768.4z"/>
	<path id="Trazado_19017" class="st0" d="M47,1713.9l1.6-5.8c2.2,0.2,2.9-1.9,4.4-2.9C53,1709.6,49.7,1711.6,47,1713.9z"/>
	<path id="Trazado_19018" class="st0" d="M-41.8,1793l-3,2.9c-2-1.7-3-4.3-2.8-6.9C-45.2,1789.8-41.2,1788.1-41.8,1793z"/>
	<path id="Trazado_19019" class="st0" d="M-20.7,1746.6c-0.1-2.5,2.1-3.8,3-5.8C-15.5,1744.3-17.6,1745.7-20.7,1746.6z"/>
</g>
</svg>
