<?xml version="1.0" encoding="utf-8"?>
<!-- Generator: Adobe Illustrator 23.0.2, SVG Export Plug-In . SVG Version: 6.00 Build 0)  -->
<svg version="1.1" id="Capa_1" xmlns="http://www.w3.org/2000/svg" xmlns:xlink="http://www.w3.org/1999/xlink" x="0px" y="0px"
	 viewBox="0 0 166.6 67.6" style="enable-background:new 0 0 166.6 67.6;" xml:space="preserve">
<style type="text/css">
	.st0{fill:#85FFD5;}
</style>
<g id="Grupo_262-3" transform="translate(160 -2071.448)">
	<path id="Trazado_7963-5" class="st0" d="M-14.4,2113.2c6.2,5.4,12.5-2.7,19.3,4.4c-5,4.8-9.8,5-14.5,5.4
		c-11.1,0.9-22,3.4-32.4,7.5c-4.9,1.9-10,1.4-14.5,6.6c-2.2,2.5-5.9,2.9-7.7-0.8c-3.8-8.1-9.2-7.5-14.1-7.9
		c-20.3-1.4-40.1-9.9-60.4-11.4c-7.8-0.5-16.4-3-21.3-19c25-7.5,49.8-6.1,74.3-11.1c24.3-5,48.6-10.3,73.4-15.5
		c-1.1,5.9-1.7,9.6-1.5,12.5c0.2,3.5,1.9,5.1,6.1,8.1c3.8,2.9,7.7,5.8,12.1,6.3c1.2,0.1,2.2,1.7,2.4,3.9c0.1,1.8-0.6,3.5-1.9,4.7
		c-2.3,2.6-5.1,3.2-7.8,3.8C-6.8,2111.6-10.6,2112.4-14.4,2113.2z"/>
</g>
</svg>
