<?xml version="1.0" encoding="utf-8"?>
<!-- Generator: Adobe Illustrator 23.0.2, SVG Export Plug-In . SVG Version: 6.00 Build 0)  -->
<svg version="1.1" id="Capa_1" xmlns="http://www.w3.org/2000/svg" xmlns:xlink="http://www.w3.org/1999/xlink" x="0px" y="0px"
	 viewBox="0 0 386 343.1" style="enable-background:new 0 0 386 343.1;" xml:space="preserve">
<style type="text/css">
	.st0{fill:#FDC74E;}
</style>
<g id="Grupo_259" transform="translate(286.298 -460.862) rotate(-34)">
	<g id="Grupo_258" transform="translate(-569.016 314.209)">
		<path id="Trazado_18151" class="st0" d="M212.3,250.9l-19.5,0.5c-1.4,0.9-3.2,0.8-4.5-0.3c-0.3-1.1-0.1-2.2,0.5-3.1
			c7.5-4.7,16-4.3,24.3-5c4.5-0.3,9.1-0.3,13.6,0c4.2,0.3,8.6-0.7,12.5,1.7c2.1,4.8-0.9,4.6-4.3,4.9
			C227.4,250.1,219.8,249.7,212.3,250.9z"/>
		<path id="Trazado_18152" class="st0" d="M212.3,250.9c7.3-2.8,15-1.7,22.5-2.9c2.2-0.3,4-0.1,5.2-2.1c4.6-4.7,10.5-2.2,15.8-2.9
			c2.7,0.1,5.5,0,7.7,2.2c0.9,3.4-1.7,2.9-3.6,3.2c-3.6,0.5-7.6-1.2-11,1.2c0,0.5,0,1,0,1.5L212.3,250.9z"/>
		<path id="Trazado_18153" class="st0" d="M204.6,250.9l4.1,0.4c-8.4,2.3-17.1,3.6-25.9,3.6c-0.2-0.4-0.3-0.9-0.5-1.4
			C187.9,247.8,195.3,246.9,204.6,250.9z"/>
		<path id="Trazado_18154" class="st0" d="M164.6,258.5l-16.1,0.2c-0.2-0.5-0.4-1-0.6-1.5c6.7-5.7,14.3-2.8,21.6-2.5
			c1,0.4,1.9,1.2,2.4,2.1C169.8,259,167.1,258.3,164.6,258.5z"/>
		<path id="Trazado_18155" class="st0" d="M168.6,256.9l-2.1-0.6c-0.4-1.1,0.1-2.3,1.1-2.8c6.4-1.6,12.8-3,19,0.9l0.3,0.5
			C181,257.7,174.7,255.5,168.6,256.9z"/>
		<path id="Trazado_18156" class="st0" d="M132.9,264L131,262c3.7,0.5,7.7-1.4,10.9,1.8L132.9,264z"/>
		<path id="Trazado_18157" class="st0" d="M161,262.1c-1.1-0.2-3.1-0.3-3.2-0.7c-0.3-2,1.5-1,2.4-1.1c1.5-0.1,3-0.2,4.5-0.1
			C164.9,263.7,162.2,261.3,161,262.1z"/>
		<path id="Trazado_18158" class="st0" d="M-2.4,61.6c-0.1-0.6-0.1-1.2-0.1-1.8L15,59.6c3.6-0.4,7.3-0.1,10.8,0.8
			c0.8,0.5,1.2,1.3,1.3,2.2c-0.9,2.7-3.7,3.5-5.4,5.4c-2.4,1.9-5.4,2.8-8.5,2.5c-3.8-0.5-5.3,1.9-6.8,4.6c-1,0.7-2.2,1.2-3.4,1.4
			c-2.7,0.1-5.6,0.3-7.1-2.3c-1.6-2.7,3.2-2.2,2.6-4.7c0.4-1.8,1.4-3.5,2.7-4.8C1.1,63.6,0,63.4-0.7,63C-1.4,62.7-1.9,62.2-2.4,61.6
			z"/>
		<path id="Trazado_18159" class="st0" d="M26.5,61.6c-3.9,0-7.9,0.2-11.5-2l2.3-2l20,0c0.6,0.6,0.9,1.4,0.9,2.2
			c-0.2,1.3-1.2,2.3-2.4,2.5C32.8,62,29.5,63.2,26.5,61.6z"/>
		<path id="Trazado_18160" class="st0" d="M32,256.6c-3-3.7-6.1,0.3-9.1,0l-3.6,0c0-1.2,0-2.4,0-3.6c1.9-2.5,4.8-2.6,7.5-3.1
			c3.3,0.1,6.6,0.3,8.9,3.2l1.8,3.6L32,256.6z"/>
		<path id="Trazado_18161" class="st0" d="M123.3,263.9c-5.9-0.6-11.9-0.8-17.6-2.1c-2.4-0.6,0.8-1.8,1-2.9c1.6-2.8,4.4-2.8,7.1-3.1
			c2.2-0.1,4.3,0,6.5,0c6.5,0,13,0,19.4,0c4.8,0.6,10.1-1.4,14.4,2.3l0.6,0.6c-1.7,4.1-4.8,1.9-7.5,1.9c-4.9,0-10.1-1.6-14.7,1.5
			l-7.3,1.8L123.3,263.9z"/>
		<path id="Trazado_18162" class="st0" d="M88.8,256.9l-9.1-0.7c-1.6-0.5-2.7-1.2-2.1-3.1c4.3-4.6,10.5-1.5,15.3-4.1
			c4.6-0.6,9.1-0.9,13.6,0.7c2.4,1.8,5.1,3.5,4.2,7.2c-3.7,1-7.7,0.2-11.2,2.1c-3.2,0.2-6.7,1.4-9-2.2l-0.9-0.1L88.8,256.9z"/>
		<path id="Trazado_18163" class="st0" d="M89.6,256.9c2.3,1.5,4.6,0.3,6.9,0.1c1.8,1.2,4.4-0.4,6,1.7c1.9,4.5-1.8,3-3.7,3.4
			C95.1,261.5,89.6,264.1,89.6,256.9z"/>
		<path id="Trazado_18164" class="st0" d="M53.3,255c0,1.1-0.1,2.2-0.1,3.3h-9l7.2-3.4c0.5-0.5,1.3-0.6,1.8-0.1
			C53.2,254.9,53.2,254.9,53.3,255z"/>
		<path id="Trazado_18165" class="st0" d="M81.1,261.9c0.2-1.8,0.8-3.6,3-3.2c2.2,0.4,0.9,2,0.7,3.3L81.1,261.9z"/>
		<path id="Trazado_18166" class="st0" d="M248.9,249.6c3.8-5.1,10.5,0.6,14.6-3.9c0.5-0.6,1.2-1,2-1.1c1.9,0,3.9-0.4,5.6,1
			c-0.6,4.4-4,3.6-6.9,3.7C259.1,249.4,254,249.5,248.9,249.6z"/>
		<path id="Trazado_18167" class="st0" d="M271,245.6c-1.9,0.6-3.8,2.7-5.7,0c-0.6-0.8-0.4-2,0.4-2.6c3-2,6.9-2,10-0.2
			c0.8,0.6,1.2,1.6,1,2.7c-0.3,0.7-1.1,1-1.8,0.7c-0.3-0.1-0.5-0.3-0.6-0.5L271,245.6L271,245.6z"/>
		<path id="Trazado_18168" class="st0" d="M276.4,245.3l9,0.3c-3.7,3-7.4,2.9-11,0L276.4,245.3z"/>
		<path id="Trazado_18169" class="st0" d="M226.9,245.4c-12.9,0.2-25.7,0.5-38.3,3.9c-9.5,0.9-18.9,2.4-28.5,1
			c-1.5-7.3,4.7-6.3,8.3-7c6.8-1.3,13.8-0.4,20.7-0.3c3.7,0,7.2,0,9.6-3.5c2.8-1.9,5.9-1.8,9.1-1.9c5.9,0.5,11.8-0.8,17.7-0.2
			c3.6,0.1,7.1,0.4,10.6,0.9c1.7,0,3.5,0.1,5.2,0c-2.6-0.1-5.3,0.5-7-2.2c2.9-6.8,9-3,13.7-4.1c2.3-0.1,4.6,0.2,6.8,1.1
			c0.7,0.4,1.3,1,1.7,1.7c0.9,0.4-1.4,2.4,0.6,1.9c2.9-0.7,5.8-1,8.6-1.9c1.3-0.2,2.7-0.1,4,0.2c2.6,1.4,7.1,0.6,6.4,5.6
			c-0.8,0.6-1.7,1-2.7,1.1c-7,0.2-14.1,0.8-21,1.7C244,244.9,235.2,242,226.9,245.4z"/>
		<path id="Trazado_18170" class="st0" d="M178,249.4l29.2-0.2c0,0.5,0,1.1-0.1,1.6c-7.3,1.3-15.4-1.9-22,3.6
			c-6.6,0.1-13.2,0.2-19.8,0.3c-5.8,1.5-11.8-0.4-17.6,0.8c-2,0.4-3.4-0.8-2.8-3.3C155.5,244.9,166.9,248.2,178,249.4z"/>
		<path id="Trazado_18171" class="st0" d="M226.9,245.4c1.3-4.7,5.2-3.3,8.3-3.4c5.8-0.2,11.5-0.1,17.3-0.1l1.1,0.1
			c1.1,0.1,2.2,0.6,2.9,1.4c0.4,0.6,0.2,1.5-0.4,1.9c-5.4,0.2-10.8,0.3-16.2,0.5L226.9,245.4z"/>
		<path id="Trazado_18172" class="st0" d="M256.2,245.4c0-0.5,0-1.1,0.1-1.6c2-2.2,4.5-1.7,7-1.5c1,0.3,1.8,0.9,2.4,1.7
			c-0.1,0.5-0.2,1.1-0.4,1.6l-1.9,0.1L256.2,245.4z"/>
		<path id="Trazado_18173" class="st0" d="M154.5,253c6.5,3.2,13.7-1.3,20.2,1.8c-0.1,0.5-0.2,1-0.4,1.5c-7.3,1.1-14.8-0.4-21.9,1.8
			l-14.5,0.2c-6.6-1.4-13.5-1.3-20.1,0.2l-5.4-0.1c-3.4-2.3-7.7,0.7-11-1.9c-1.2-1.7-3.8-2.5-3.6-5.3c9-4.3,20.7-3.6,25.9,1.4
			c-2.5,2.5-5.7,0.5-7.7,1.2c2.6-0.1,6.2,0.6,9.4-1.1c6.6-1.4,13.4,0,20.1-1C148.7,251.1,151.9,250.4,154.5,253z"/>
		<path id="Trazado_18174" class="st0" d="M39.9,56.3c8.5-1.3,16.9-2.7,25.5-2.2c5.8,2.4,12,0,18,1.3c0.8,0.7,1,1.9,0.5,2.8
			c-1.6,1.4-3.7,2.2-5.8,2.1c-4.7,0.2-9.3,0-14,0.1c-7,0.3-13.9,2.7-21.1,1.7c-1.5-0.1-3-0.5-4.3-1.3C36.6,58.7,37.9,57.4,39.9,56.3
			z"/>
		<path id="Trazado_18175" class="st0" d="M198.4,46.9c0.1,1.8-1.2,3.5-3.1,3.6c-0.2,0-0.3,0-0.5,0c-2.5,2.5-5.7,2.7-8.9,2.7
			c-5.6,0-11.2,0.1-16.9-0.2c-1-0.1-2-0.2-3-0.5c-2.3-0.9-4.7-1.6-6.1-4c4-3.8,7.9-0.2,11.8,0.2C180.9,49.7,189.5,46.4,198.4,46.9z"
			/>
		<path id="Trazado_18176" class="st0" d="M164.2,48.6l5.9,1.6c-0.6,2.6,1.6,0.8,2.3,1.4c1.1,0.5,1.8,1.7,1.5,2.9
			c-0.5,1.2-1.5,2.2-2.6,2.8c-3,1-6.2,0.9-9.1-0.4c-1.2-0.3-2.4-0.8-3.5-1.5c-1.9-1.7-4.4-2-6.8-2.4c-1.2-0.4-2.1-1.4-2.4-2.6
			C153.9,46.8,159.3,49.8,164.2,48.6z"/>
		<path id="Trazado_18177" class="st0" d="M43.5,56.3l-1.8,3.4c0.7,3.2-1.7,3.8-3.8,4.7c-4.1-0.1-8.4,0.1-10.7-4.5
			c0-0.8-0.1-1.5-0.1-2.3C32.3,54.8,38,56.5,43.5,56.3z"/>
		<path id="Trazado_18178" class="st0" d="M78,54.1c6.7-3.2,13.6-2.2,20.5-1.4c3.5-1.3,5.2-0.5,4,3.5c-0.6,0.7-1.3,1.2-2.1,1.5
			c-0.8,0.3-1.7,0.5-2.6,0.6c-4.8,0.3-9.4-1.7-14.2-1.1C81.5,56.8,79.3,56.3,78,54.1z"/>
		<path id="Trazado_18179" class="st0" d="M99.1,55.8c0.6-3-2.5-1.8-3.5-3.1c5.1-3.4,10.8-2.1,16.3-2.1c1,0.8,1.3,2.2,0.7,3.4
			c-3.1,3.6-7.7,1.5-11.4,2.8C100.4,56.8,99.6,56.5,99.1,55.8z"/>
		<path id="Trazado_18180" class="st0" d="M128.6,52.1l17.9,0c0.2,0.4,0.4,0.8,0.6,1.2c-0.1,0.9-0.7,1.8-1.5,2.2
			c-2.2,0.9-4.5,1.3-6.9,1.2c-2.8,0-5.7,0-8.5,0.1c-1.5,0-2.9,0-4.4,0c-3.1-0.1-6.2,0.1-8.7-2.3c-0.5-0.9-0.2-2.1,0.6-2.8
			C121.4,51.5,125,51,128.6,52.1z"/>
		<path id="Trazado_18181" class="st0" d="M81.4,54.1c2.1,0.2,4.3-0.1,5.8,1.8c-2.3,2.4-4.7,2.1-7.2,0.3c-6.1-1-12.6,1.7-18.4-2.1
			L81.4,54.1z"/>
		<path id="Trazado_18182" class="st0" d="M199.8,48.7c0-0.6,0-1.2,0-1.8c3.5,1.4,8-3,10.9,1.8l0,0
			C207.2,50.2,203.3,50.2,199.8,48.7z"/>
		<path id="Trazado_18183" class="st0" d="M109.9,54.2l-0.1-3.5l9.2,0.1c-0.2,4.6-4,3.6-6.6,4.3C111.4,55,110.6,54.7,109.9,54.2z"/>
		<path id="Trazado_18184" class="st0" d="M111.3,54.2l7.3-3.5c0.6-0.2,1.2-0.1,1.7,0c0.7,0.3,1,0.6,0.8,1s-0.4,0.6-0.7,0.6
			c0,0.6,0,1.2,0,1.8c-2.3,2.7-5.1,2.6-8.1,1.2C112,55,111.7,54.6,111.3,54.2z"/>
		<path id="Trazado_18185" class="st0" d="M118.8,52.3c0-0.5-0.1-1-0.1-1.6c3.9-0.2,7.9-1.8,11.3,1.3L118.8,52.3z"/>
		<path id="Trazado_18186" class="st0" d="M152.2,50.4l2.1,1.9c-0.3,0.4-0.7,0.8-1,1.1c-3.1,1.9-7.2,1.6-10-0.8l-0.1-0.5
			C145.8,49.4,149.2,51,152.2,50.4z"/>
		<path id="Trazado_18187" class="st0" d="M4.7,65.1c-2.4,1.2-4.4,3.1-5.6,5.5c-3.8,1-6.7,5.2-11.3,3.1c-2.3-6.1,3-8.4,5.9-11.9
			c1.3-0.2,2.7,1.5,3.9-0.2l1.9,0.2C0.9,63.5,5,60.8,4.7,65.1z"/>
		<path id="Trazado_18188" class="st0" d="M-17.3,72.5c3.4-3.8-0.8-6.1-1.8-9.1c4.4,0.8,8.3-3.3,12.8-1.6c-1.3,4.3-3,8.5-7.3,10.7
			l-0.8,0.7c-0.7,0.2-1.4,0.2-2.1,0L-17.3,72.5z"/>
		<path id="Trazado_18189" class="st0" d="M-22.7,94.9c-0.1-1.2-0.2-2.4-0.3-3.6c1.3-0.6,2.5-1.1,3.8-1.7c3.1-0.8,6.3-1.4,9-3.4
			c1.9-0.5,3.9-0.5,5.8-0.1c3.1,1.3,6.9,0.7,9.3,3.6C4.5,94,1.1,93.8-1.8,94c-3.3,0.3-6.7,0.2-9.5,2.4c-0.9,0.5-1.9,0.8-2.9,1
			C-17.3,97.6-20.5,98-22.7,94.9z"/>
		<path id="Trazado_18190" class="st0" d="M-15.5,87.2l0-1.9c0.5-1.6,2-2.6,3.7-2.3c1.8,0.9,3.3,2.3,4.2,4.1
			c0.4,1.9-1.1,2.8-2.3,3.7c-2.7,1.6-6,2.3-9.2,1.7C-18.5,90.3-12.9,91.5-15.5,87.2z"/>
		<path id="Trazado_18191" class="st0" d="M17.4,72.6c-3.4,1.6-7.3,2.1-11,1.5c-2.4-4.6-0.9-7.8,4.2-6.3c4,1.1,7.1-0.3,10.6-0.7
			c1.1-0.1,1.9-0.9,3-1.1c2.7,0,5.9-1.3,7,2.7c-1.3,5.5-6.3,4.1-9.9,5.3C19.8,74,18.5,73.5,17.4,72.6z"/>
		<path id="Trazado_18192" class="st0" d="M2.8,74.3c-3.3,3.3-7.4,1.4-11.2,1.8c-1.1-2.2-5.9,1.3-5.2-3.5l-0.1,0l12.8-1.9
			c0.7,0.4,1.9,1,1.9,1.1c-0.5,1.6-3.6-0.4-3.2,2.2C-2.1,74.3,1,74.2,2.8,74.3z"/>
		<path id="Trazado_18193" class="st0" d="M26.5,61.6c3-1.4,6.1-3.4,9.2,0c-0.4,1.7-1.7,3-3.4,3.4c-1.2,0.3-2.5,0.2-3.7-0.1
			c-0.8-0.3-1.4-0.9-1.9-1.6C26.6,62.7,26.5,62.1,26.5,61.6z"/>
		<path id="Trazado_18194" class="st0" d="M4.7,65.1l-5.1-3.3c2.4,0.2,5.1-1.4,7.2,1C6.1,63.6,5.4,64.4,4.7,65.1z"/>
		<path id="Trazado_18195" class="st0" d="M26.7,63.2c0.5,0,1.1,0.1,1.6,0.2c0.4,4.6-3.8,2.1-5.4,3.6c-0.6,0.9-1.1,0.9-1.7,0
			C21.3,63.3,24.1,63.5,26.7,63.2z"/>
		<path id="Trazado_18196" class="st0" d="M32,63.6l3.6-2c0.6-0.5,1.3-1.1,1.9-1.6c3.6,1.1,7.3,2.2,10.9,3.4c0.5,0.7,0.5,1.6,0,2.3
			c-1.6,0.7-3.4,0.8-5.1,0.3c1.3,0.7,3.4-0.2,4.2,1.8c0.4,1.4,0,2.8-1,3.8c-2.6,1.8-5.5,1.6-8.5,1c-2.8-0.9-5.7-1.8-6.8-5
			C30.7,66.2,31,64.6,32,63.6z"/>
		<path id="Trazado_18197" class="st0" d="M-6.8,249.5l-12.4-0.1c-1.8-3.2-0.3-5.3,2.3-7c7.5-2.3,15.2-0.7,22.9-1.2
			c10,0.7,20,0.6,29.7,3.7c4,3.5,8.9,4,13.9,3.9c5.2,1.6,10.5,1.4,15.8,1.6c3.3,0.1,7.4-0.8,8.5,4.2l-7.2,0.5l-2,0l-29.1-2
			c-3.1-0.5-6.2-1-9.3-1.5c-0.7,0.4-1.6,0.4-2.3,0.1c-3.4-1-6.6-0.1-9.8,0.9c-0.9,0-1.8-0.1-2.7-0.4C5.7,249-0.8,251.1-6.8,249.5z"
			/>
		<path id="Trazado_18198" class="st0" d="M-6.8,249.5c6.9,0.4,13.9-1.8,20.6,1.3c-0.4,0.8-1.2,1.5-2.1,1.8
			c-1.9,0.5-3.8-0.1-5.2-1.4L-6,250.8C-6.2,250.4-6.5,249.9-6.8,249.5z"/>
		<path id="Trazado_18199" class="st0" d="M6.4,251.1l5.5,0.1c1.5,1.6,4-0.2,5.4,1.7C13.3,254.9,9.1,257.4,6.4,251.1z"/>
		<path id="Trazado_18200" class="st0" d="M107.8,256.4c3.6,0.8,7.8-1.3,11,1.9l-7.4,0.5l-10.8-0.2c-2.1-0.3-4.4,0.2-6-1.7
			L107.8,256.4z"/>
		<path id="Trazado_18201" class="st0" d="M60.9,254.5c-8.1-3.9-17.4,0.6-25.4-3.5c-0.6-3.2,1.9-3.9,3.9-4.9c7.5-2,14.8-1.2,22,1.2
			c3.4,1.8,7.7,0.5,10.8,3.3c0.9,1.2,0.8,2.9-0.2,4L60.9,254.5z"/>
		<path id="Trazado_18202" class="st0" d="M66.8,254.6c0-1.2,0-2.3,0-3.5c-0.3-0.9-0.1-2,0.7-2.6c3.6-2.3,7.3-2.1,11.1-0.6
			c0.8,0.4,1.4,1.2,1.7,2c-0.7,3.9-4.5,3.2-6.8,4.8c-0.4,0.1-0.8,0.3-1.2,0.4L66.8,254.6z"/>
		<path id="Trazado_18203" class="st0" d="M80.7,254.5l1.8,1.7c-3.7-0.1-7.6,1.2-11.1-1.1c0-0.3,0.1-0.6,0.3-0.9
			C74.7,252.6,77.7,252.4,80.7,254.5z"/>
		<path id="Trazado_18204" class="st0" d="M119.6,258.5c6.7-3.2,13.4-2.9,20.1-0.2L119.6,258.5z"/>
		<path id="Trazado_18205" class="st0" d="M75.2,249.3l-12.8,0c-0.1-0.5-0.2-0.9-0.3-1.4c1.5-3.5,4.4-5.1,7.8-6.2
			c6-0.8,11.8,0.2,17.8,0.9c10.6,1.4,21.2,3.8,32,0.8c3.6-0.8,7.3-0.4,10.6,1.1c3.1,0.8,6.6,0,9.5,0.7c4.4,1.1,7.9,3.7,2.6,8.4
			c-2.7,0.2-5.5,0.3-8.2,0.2c-0.9,0.1-1.8-0.2-2.5-0.9c-8.3-3.9-17.1,0.3-25.6-1.7l-14.6-0.1c-1.4,0-2.8,0-4.2,0
			C83.4,250.6,78.9,252.3,75.2,249.3z"/>
		<path id="Trazado_18206" class="st0" d="M92.7,249.3l1.9,1.8c-4.1,4.2-10.3-0.4-14.6,3.4c-3-0.1-6-0.2-9-0.3
			c0.9-4.5,4.5-2.6,7.1-3.1C82.7,248.7,88,251.8,92.7,249.3z"/>
		<path id="Trazado_18207" class="st0" d="M127.7,252.7c1.7-4.3-0.1-6.6-4.2-5.3c-2.6,0.9-4.6-0.1-6.8,0c-1.5-1.8-3.8-2.8-6.2-2.7
			c-2.7-0.1-3.8-1.2-3-3.8c-4.2-1.4-9,1.4-12.8-2.1c-1.1-3.3,1.7-3.9,3.5-5.1c0.7-0.3,0.9-0.9,0.5-0.9c-1.5-0.1-2.9,0.5-4,1.6
			c-1.9,1.1-0.7,3.5-2,4.9c-3.3,2.3-7.9,0.7-10.9,3.8c-1.5,0.7-3.2,0.8-4.8,0.4c-2.3-1.3-4.7-0.4-7.1-0.1c-3.6-0.7-7.2-0.8-10.8-0.3
			c-4.9,0.3-6.8-1.7-5.1-6.5c2.8-4.1,6.3-6.9,11.6-6.7c1.7,0.4,3.4,0.2,5.3,0.9c-1.3-0.7-2.7-0.4-3.8-1.1c-0.4-0.8-0.4-1.8-0.1-2.6
			c1.2-1.5,2.8-2.6,4.6-3.1c3.2-0.8,6.6-0.9,9.9-0.2c3.9,1.5,8,1.3,12.1,1.2c3.2-0.5,6.4-0.2,9.5,0.9c5.3,1.6,10.9,1.5,16.1-0.3
			c3.3-0.6,6.8-0.6,10.1,0c4.3,2.2,9.4,0.2,13.6,2.8c4.2,5.1,10.1,1.9,15.1,3c-4.6-1-9.8,1.6-14-2.1c-0.5-0.8-0.4-1.9,0.3-2.5
			c5-2.3,10.5-2.7,15.8-3.6c2.9-0.1,5.8-0.1,8.7-0.1c3.2,0.2,6.3,0,9.5-0.6c2.5-0.1,5.1,0.5,5.1,3.4c0,4.1,2.9,3.5,5.3,4.1
			c15.8,0.6,31.5,0,47.2,0.6c1.1,0.2,2.1,0.6,3.1,1.2c1.7,1.5,3.4,3.1,1.6,5.6c-3.6,2-7.4,0.9-11.1,1.2c-9.3-0.3-18.6,0.8-27.9-0.6
			c-4.1-0.9-8.2,0.7-12.2,0.7c2,0.1,4-0.2,6-0.7c1.2-0.3,2.4-0.3,3.6,0c7.2,1.6,14.9-0.7,21.9,2.5c0.4,5.3-3.1,5.5-7.1,5.5
			c-7.8-0.1-15.6-0.2-23.3,0.1c-3.6-0.1-7.1,1.2-9.8,3.7c-6.6,3.3-13.6,1-20.5,1.7c-4.2,0.4-8.5-0.6-12.4,1.8
			c-2.6-0.2-5.2,0.4-7.4,1.8C136.5,252.2,131.7,255.5,127.7,252.7z"/>
		<path id="Trazado_18208" class="st0" d="M216.1,232.8c-14.2,0-28.4,0.1-42.7,0c-2.9,0-6.1,0.9-8.5-1.8c-0.6-4.7,3-5.6,6.2-6
			c3.6-0.4,7-1.8,10.7-1.2c7.2,2.2,14.5,3.9,22,1.5c5.9,0.9,11.8-0.6,17.7-0.5c8.1-0.3,16,1.1,23.9,2.1c1.4,0.3,2.7,1,3.6,2
			c0.4,1.9-0.5,2.8-2.3,3c-0.9,0.1-1.8,0.4-2.4-0.6c0.2,1.5,1.4,0.7,2,0.8c1.7,0.2,2.9,0.6,2.5,2.7c-4.2,1.1-9-2.2-12.8,1.9
			c0.7,0.7,1.8,1,2.5,1.9c0.2,0.7-0.1,1.4-0.6,1.8l-12.9,0c-0.8-0.9-1.1-2.1-0.7-3.3c0.1-1.2,3.3-1.5,1.1-3.5
			C222.7,231.4,219.1,231.2,216.1,232.8z"/>
		<path id="Trazado_18209" class="st0" d="M191,236.5l31.1,0c1,0.9,1.1,2.5,0.1,3.5c-0.1,0.1-0.1,0.1-0.1,0.1l-9.1,0
			c-7.4,0.8-14.8,0.6-21.9-1.9C189.9,237.7,190,237.1,191,236.5z"/>
		<path id="Trazado_18210" class="st0" d="M248.9,234.7c-1.3-1.9-3.5-1.7-6.3-2.2l6.2-3.2c1.3-3.7,4.3-4,7.4-3.4
			c3,0.7,6,0.6,8.9-0.3c2.4-0.6,4.9-0.2,7,1.1c0.7,0.7,1.2,1.6,1.3,2.5c0,1-0.4,1.9-1.1,2.6c-2.4,1.8-5.3,1.7-8.1,1.8
			c-2.3,0.1-4.5-0.1-6.7-0.7c-0.8-0.3-1.6-0.6-2.4-0.9c0.2,0.7,1.3,0.8,1.3,1.7c-0.1,0.4-0.3,0.7-0.4,1L248.9,234.7z"/>
		<path id="Trazado_18211" class="st0" d="M218.9,240.1c0-1.2,0-2.4,0-3.6l10.9,0c1.4-1.5,3.8-1.6,5.3-0.1c0.1,0.1,0.1,0.1,0.2,0.2
			c0,1.2,0,2.4,0,3.6L218.9,240.1z"/>
		<path id="Trazado_18212" class="st0" d="M270.9,236.5l-1.9,0.1l-3.6,0c-2.9,1.4-6.3,1.4-9.2-0.1c0-0.6,0-1.1,0-1.7l0-0.1
			c1.9-2.1,4.7-1.8,7-2.6c1.3-0.1,2.6,0,3.9,0.2C269,233.1,271.7,233.3,270.9,236.5z"/>
		<path id="Trazado_18213" class="st0" d="M256.2,236.4l9.2,0.1c-3.3,3.1-7.1,1.9-10.8,1.3c0,0-0.1-0.6,0-0.7
			C255.1,236.8,255.6,236.6,256.2,236.4z"/>
		<path id="Trazado_18214" class="st0" d="M237.9,238.3l-1.8-1.8c3.6,0.6,7.7-1.4,10.9,1.8C244.2,239.7,240.8,239.7,237.9,238.3z"/>
		<path id="Trazado_18215" class="st0" d="M285.4,240.2c-3.5,3-7,2.6-10.5,0.2c0.5,0,1-0.1,1.5-0.2L285.4,240.2z"/>
		<path id="Trazado_18216" class="st0" d="M237.9,238.3l9.1,0c-2.6,2.9-6,1.5-9.1,1.8C238,239.5,238,238.9,237.9,238.3z"/>
		<path id="Trazado_18217" class="st0" d="M252.7,242.1c3.7,0.4,7.7-1.6,10.9,1.7h-7.4C254.9,243.9,253.5,243.3,252.7,242.1z"/>
		<path id="Trazado_18218" class="st0" d="M134.7,252.7c4.2,1.1,9-1.6,12.7,2h-21.9c-0.6-0.4-0.8-0.8-0.6-1.1s0.4-0.6,0.7-0.6
			L134.7,252.7z"/>
		<path id="Trazado_18219" class="st0" d="M128.2,253.1c0,0.6,0,1.1,0,1.7h-10.1c3.4-2.6,6-1.4,8.3-1.8
			C127,252.9,127.6,253,128.2,253.1z"/>
		<path id="Trazado_18220" class="st0" d="M164.9,54.3l-1.7-1.9c-0.7-0.4-0.9-0.8-0.7-1.2s0.4-0.6,0.6-0.6l18.3,0.1
			c3.2,1.6,6.8,0,10,1.2l22.9,0.3l9.6,1.7c-3.9,4.9-10.1,1.6-14.7,4.1c-5.5,1-11,0.6-16.5,0.4c-2.2-0.5-4.5-0.8-6.8-0.8
			c-3.2,0-6.4-1-9.6-0.8C172.3,56.5,168.1,57.8,164.9,54.3z"/>
		<path id="Trazado_18221" class="st0" d="M216,54.3l21.9,1.8c0.6,1.6-0.4,2.5-1.6,3.2c-2.8,1.3-6.1,0.9-8.9,2
			c-1.7,0.4-3.4,0.4-5.1,0.1c-1.3-0.2-2.5-0.6-3.7-0.8c-1.7-0.1-3.4-0.1-5.2-0.2c-2.3,0.1-4.6-0.5-6.4-2c-0.6-0.8-0.6-1.8-0.2-2.6
			C209.6,54.2,213.2,56.3,216,54.3z"/>
		<path id="Trazado_18222" class="st0" d="M227.9,54.3c-2.6,2.9-6.3,1.3-9.4,2c-3,2.9-6.9,2.3-10.5,2.5c-1.4-0.5-2.6-1-1.9-2.9
			c4.6-3.5,10.1-0.5,15-2L227.9,54.3z"/>
		<path id="Trazado_18223" class="st0" d="M254.3,56.4c0,1.1,0,2.2,0,3.3c-0.3,0.4-0.6,0.7-1,1.1c-3,1.8-6.8,1.7-9.6-0.4
			c-1.1-1-1.2-2.7-0.3-3.9L254.3,56.4z"/>
		<path id="Trazado_18224" class="st0" d="M243.4,56.4c0,1.1,0,2.1,0,3.2c-0.3,0.3-0.5,0.6-0.8,1c-1.1,0.7-2.4,0.9-3.6,0.8
			c-1.7-0.4-3.2-1-3.1-3.2l2-2L243.4,56.4z"/>
		<path id="Trazado_18225" class="st0" d="M42.2,59.9l21.8-2c0.7,0.7,0.8,1.7,0.3,2.6c-3.2,4.5-8.6,2.8-12.7,4.6
			c-1.4,0.4-2.8,0.6-4.2,0.6c-2,0.1-3.9-0.6-5.4-1.8C41,62.7,41.1,61,42.2,59.9z"/>
		<path id="Trazado_18226" class="st0" d="M77,56.2l7.2-0.3c5-3.4,9.8,1.1,14.8,0.3c0.4,0.9,0.2,1.9-0.6,2.5
			c-1.2,0.8-2.5,1.3-3.9,1.5c-3.7,0.3-7.5,0.2-11.2,0.2c-1,0-1.9-0.1-2.8-0.3c-1.4-0.3-2.7-1.1-3.5-2.4C76.9,57.2,77,56.7,77,56.2z"
			/>
		<path id="Trazado_18227" class="st0" d="M60.6,59.6c0-0.6,0-1.1,0-1.7L75.3,58c0.7,2.2-0.4,3.6-2.1,4.8c-2.2,1-4.7,1.4-7.1,1
			C63.5,63.3,61.4,62.4,60.6,59.6z"/>
		<path id="Trazado_18228" class="st0" d="M43.9,59.9c0,1.1,0,2.2,0,3.3c-0.4,1.6-1.5,3-2.9,4c-0.7,0.4-1.6,0.6-2.4,0.5
			c-1.2-0.4-2-1.5-2.1-2.8c0-0.6,0-1.1,0-1.7l3.6-3.6L43.9,59.9z"/>
		<path id="Trazado_18229" class="st0" d="M71.6,61.3l1.7-3.2c1.8-0.1,3.6-0.2,5.4-0.3l3.7,0.1c0.6,3.3-1.9,4.1-4.1,5.2
			C75.8,63.7,73.3,63.7,71.6,61.3z"/>
		<path id="Trazado_18230" class="st0" d="M194.6,52c-3.4,0.1-6.9,1.4-10-1.2l9.1-0.2C194,51.1,194.3,51.6,194.6,52z"/>
		<path id="Trazado_18231" class="st0" d="M170.7,50.6c0,0.6,0,1.2,0.1,1.8c-1.9,0.9-4.8,1.5-5.4-0.5c-0.6-2.2,2.7-0.7,3.9-1.7
			C169.7,50.2,170.2,50.4,170.7,50.6z"/>
		<path id="Trazado_18232" class="st0" d="M170.7,54.3l12.5,0.3c0.7,3.1-1.5,4.2-3.8,5.2c-3.4,0.7-6.7,0.9-9.9-0.9
			c-0.9-0.5-1.1-1.6-0.6-2.5L170.7,54.3z"/>
		<path id="Trazado_18233" class="st0" d="M159.8,54l3.9,0.5c0.9,1.3,0.8,3-0.3,4.1c-3.3,2.2-6.8,1.8-10.3,0.9
			c-2.3-1.1-4.7-2.2-4.5-5.4c1.3-0.8,2.8-1.1,4.2-0.9C155.2,52.8,157.7,52.1,159.8,54z"/>
		<path id="Trazado_18234" class="st0" d="M160,54l-7.2-0.2c-0.6-0.3-0.8-0.7-0.6-1c0.2-0.3,0.4-0.5,0.6-0.5l0.1-0.1
			C155.6,51.6,158.9,48.3,160,54z"/>
		<path id="Trazado_18235" class="st0" d="M161.8,57.7c0-1,0-2.1,0.1-3.1c3,0.6,6,1.3,9,1.9c-0.1,0.3-0.1,0.6-0.1,0.9
			c-0.3,0.8-0.9,1.5-1.7,1.9c-1.7,0.7-3.6,0.7-5.3,0.1C163,59.1,162.3,58.4,161.8,57.7z"/>
		<path id="Trazado_18236" class="st0" d="M94.9,57.9c0-0.5,0.1-1.1,0.1-1.6c0.7,0,1.3,0,2,0c5.4,0.6,10.7-0.9,16.1-0.3
			c1.8,0.1,3.6-0.5,5.4-0.5c1.3,0.4,2.4,1.5,2.9,2.8c0.3,1.4-0.2,2.9-1.2,3.8c-2.7,1.8-5.5,0.9-8.2,0.3c-3.8-0.3-7.5-0.1-11.3-0.2
			c-2,0-3.9-0.5-5.5-1.7C94.4,59.9,94.3,58.7,94.9,57.9z"/>
		<path id="Trazado_18237" class="st0" d="M115.1,57.9c-5.9-0.7-12.1,1.6-17.8-1.6c0.5-0.2,1-0.3,1.5-0.5h1.9c3.9-1.7,8-0.2,12-0.6
			C114.3,55.3,115.6,55.8,115.1,57.9z"/>
		<path id="Trazado_18238" class="st0" d="M113.1,55.9l-12.7-0.1c3-5.1,7.5-0.1,11-1.6c0.6,0,1.2,0,1.8,0l-0.1,0
			c0.7,0.4,0.9,0.8,0.6,1.2C113.5,55.8,113.3,55.9,113.1,55.9z"/>
		<path id="Trazado_18239" class="st0" d="M151.2,54.5l3.8,3.5c-0.1,0.4-0.3,0.8-0.4,1.1c-1.2,1.7-3,2.8-5,3.3
			c-0.8,0.1-1.6,0.1-2.4,0c-2.2-0.7-4.3-1.7-6.4-2.8c-1.6-1.1-3.5-1.7-4.7-3.3c-0.4-0.7-0.1-1.6,0.6-1.9l7.1,0
			C146.3,54.7,148.7,53.1,151.2,54.5z"/>
		<path id="Trazado_18240" class="st0" d="M116.8,58l-1.7-1.8c4-2.6,8.7,0.2,12.7-1.7l3.1-0.1c1.9,1.4,4.8-0.3,6.4,2
			c0.1,1-0.3,2-1.2,2.5c-0.9,0.6-1.8,1-2.8,1.2C127.7,60.2,121.8,62,116.8,58z"/>
		<path id="Trazado_18241" class="st0" d="M129.1,54.5c-4,2.7-8.5,1-12.7,1.7c-1.3,0.5-2.7,1.1-4,1.7c-0.6-0.6-1.2-1.3-1.8-1.9
			c0-0.6,0.1-1.2,0-1.8l9.2-0.1L129.1,54.5z"/>
		<path id="Trazado_18242" class="st0" d="M150.6,54.5c-2.5,0.4-4.9,3-7.3-0.2c0-0.6,0-1.1,0-1.7c3.6-0.1,7.3-0.1,10.9-0.2
			c0,0.5,0,1,0,1.5L150.6,54.5z"/>
		<path id="Trazado_18243" class="st0" d="M135.2,55.9c-1.9-0.5-4.2,0.3-5.9-1.5l9.6-0.1c-0.1,0.5-0.3,1-0.4,1.5
			C137.5,57,136.3,57.2,135.2,55.9z"/>
		<path id="Trazado_18244" class="st0" d="M-17.3,76.3c-3.9,4.9-4.4-3.1-7.4-1.9c1.9-2.6,4.8-1.6,7.3-1.9l0,0
			C-16.3,73.5-16.2,75.2-17.3,76.3C-17.2,76.2-17.3,76.2-17.3,76.3z"/>
		<path id="Trazado_18245" class="st0" d="M-17.3,76.3c0-1.2,0-2.5,0-3.8l3.7,0l5.2,3.5L-17.3,76.3z"/>
		<path id="Trazado_18246" class="st0" d="M-17.3,146c0.6,0,1.2,0,1.8,0c8.8-4.2,18.6-5.6,28.2-4c2.5,0.9,5.1,1.7,6.8,4
			c-2.5,7.5-9.3,2.1-13.5,4.4c-3.5-0.1-7.2,1-10.6-0.8c-2.1-2.3-5.6-2.7-8.1-0.8C-16.7,151.5-16,147.2-17.3,146z"/>
		<path id="Trazado_18247" class="st0" d="M21,154.7l-16.4,0.1h-14.8c8.1-3.6,14.8,0.4,20.3-3.6c0.7-1.1,1.9-1.7,3.3-1.8
			c1.3-0.1,2.6,0,3.8,0.3c1.6,0.5,3.1,1.5,4.2,2.8C21.8,153.2,21.6,154.1,21,154.7z"/>
		<path id="Trazado_18248" class="st0" d="M13.7,151.2l-3.6,0.1c-5.1,0-10.3-0.1-15.4-0.1c-0.2,0-0.6-0.2-0.7-0.4
			c-0.4-1.4,0.8-1.1,1.5-1.4l10.9,0C9.2,148.7,12.3,146.3,13.7,151.2z"/>
		<path id="Trazado_18249" class="st0" d="M-13.6,97.1c0-0.6-0.1-1.1-0.1-1.7l2-0.3c2.1-3.9,6.1-2.3,8.9-2.4
			c5.7-0.2,11.3-1.8,16.4-4.6c2.2-0.7,4.5-1,6.8-0.7c6.6,1,13-0.4,19.6-0.8c0.9-0.1,1.8,0,2.7,0.3c1.3,0.6,2.3,1.7,2.7,3
			c0.1,1-0.3,1.9-1.1,2.5c-1.2,0.8-2.6,1.3-4,1.5c-3.4,0.1-6.8,0.7-10.1,1.8c-11.4,2.8-23.2,1.1-34.7,3.5
			C-7.6,99.8-10.9,99.6-13.6,97.1z"/>
		<path id="Trazado_18250" class="st0" d="M21.1,90l-7.5,0.3c-3,1.3-5.9,2.2-8.8-0.2c-3.1-0.6-6.6,1-9.3-1.8c3-4.2,7.7-4.3,12.2-4.6
			c3.9,0.2,7.6-1.9,11.5-1.8c3.4,0,6.9-0.3,10.3,0.9c1.4,0.6,2.5,1.7,3.1,3c0.3,0.9,0,1.9-0.6,2.7C28.4,89.5,24.7,89.4,21.1,90z"/>
		<path id="Trazado_18251" class="st0" d="M8.2,88.8C4,89.5-0.3,90.2-4.5,90.9l-5.5-0.2l1.8-3.6c2.4-1.2,4.3-3.4,7.1-4
			c0.8-0.2,1.6-0.3,2.5-0.3c2.1-0.1,4.3,0,6.4,0.5c0.8,0.3,1.6,0.7,2.2,1.3C11.3,86.9,9.8,87.9,8.2,88.8z"/>
		<path id="Trazado_18252" class="st0" d="M4.8,89.7l8.8,0.2c-6.3,6.4-14.7,1.8-21.8,4.3c-1.1,0.4-2.3,0.6-3.4,0.9
			c0.6-4.6,4.3-3.2,7-3.6C-1.5,90.9,2,92.1,4.8,89.7z"/>
		<path id="Trazado_18253" class="st0" d="M-11.9,83.5l1.9-0.1c1.9-0.6,3.6-1.5,5.4-2.3c0.8-0.2,1.6-0.2,2.4,0
			c1.3,1.1,2.4,2.3,1.3,4.2c-2.7-0.4-4.1,4.1-7.3,1.9c-2,0.1-3.6-1.5-3.7-3.4C-11.9,83.6-11.9,83.6-11.9,83.5z"/>
		<path id="Trazado_18254" class="st0" d="M37.6,70.6l9-0.1c2.8-2,6.2-2.6,9.3-4c3.9-0.3,7.8-0.4,11.7-0.1c1.5,0.1,2.9,0.6,4.2,1.4
			c0.8,0.6,1.2,1.6,1.2,2.6c-0.4,1.4-1.4,2.7-2.7,3.4c-1.8,0.8-3.7,1.2-5.6,1.2c-4.2,0.2-8.4-0.4-12.4,1.2c-1.8,0.4-3.7,0.6-5.6,0.7
			c-3.2,0.1-6.4-0.1-9.7,0c-3.1,0.1-6.2-0.4-9.2,0.7c-0.9,0.3-1.7,0.5-2.6,0.6c-2.8,0.2-5.6,0.4-7.6-2.1c0-1.2,0-2.3,0-3.5l3.5-0.2
			C26.5,71.9,31.9,69.8,37.6,70.6z"/>
		<path id="Trazado_18255" class="st0" d="M17.4,76.1l9.3,0.3c2.1,0,4.1,0.1,6.2,0.3c3.3,0.9,6.7,0.2,10,1.3
			c0.8,0.3,1.6,0.8,2.2,1.5c0.4,1.3-0.2,2.8-1.5,3.4c-0.8,0.4-1.7,0.8-2.6,0.9c-1.8,0.2-3.7,0.3-5.5,0.3c-2.3,0.1-4.6-0.1-6.8-0.5
			c-1.8-0.4-3.5-1.1-5.1-1.9c-2.6-1.7-6.4-0.8-8.2-4L17.4,76.1z"/>
		<path id="Trazado_18256" class="st0" d="M15.2,77.7c3.1,0.9,6.7-0.9,9.4,2c-0.5,2.5-2.3,3.2-4.5,3.2c-3.1-0.4-6.6,0.7-8.7-2.7
			c-0.3-0.8,0-1.6,0.7-2.1L15.2,77.7z"/>
		<path id="Trazado_18257" class="st0" d="M12.1,78.2c0,0.5,0,1,0,1.4c2.5,4.3-1.4,4.4-3.7,5.6H1.2c-0.9-3.4,2.2-3.4,3.9-4.7
			c1.1-0.4,2.2-0.7,3.4-0.8L12.1,78.2z"/>
		<path id="Trazado_18258" class="st0" d="M8.4,79.6l-2,2c-2.8,1.4-6.1,1.5-9,0.2l-1.9-0.1c-0.4-0.4-0.6-0.8-0.4-1.2
			c0.2-0.4,0.3-0.6,0.5-0.6c0.5-0.2,1-0.3,1.6-0.3C0,78,3.5,79.8,6.4,78.3L8.4,79.6z"/>
		<path id="Trazado_18259" class="st0" d="M-4.5,79.9c0,0.6-0.1,1.2-0.1,1.8c-1.1,2.8-3,3.2-5.4,1.7l1.8-3.4L-4.5,79.9z"/>
		<path id="Trazado_18260" class="st0" d="M6.4,78.3c-2.8,2.5-6.2,1.4-9.3,1.4C-0.1,77.4,3.2,78,6.4,78.3z"/>
		<path id="Trazado_18261" class="st0" d="M37.6,70.6c-5.4,1.8-11,2.4-16.6,1.8c2.2-3.4,8.5,0.5,9.4-5.3c0.6-0.7,1.2-0.7,1.6,0.2
			L37.6,70.6z"/>
		<path id="Trazado_18262" class="st0" d="M31.9,67.2c-0.5-0.1-1.1-0.2-1.6-0.2c-2.5,0-5,1.7-7.5-0.1l5.4-3.6c1.3,0,2.5,0.1,3.8,0.2
			L31.9,67.2z"/>
		<path id="Trazado_18263" class="st0" d="M11.9,98.5c-8.7-3.5-17.5,1.9-26.2-0.2c0.3-0.5,0.5-1,0.7-1.5l45.5-3.9
			c2.6-1.6,5.5-0.5,8.3-0.8c3.4,0.4,6.6,1.1,8.2,4.6C36.4,100.4,24.1,97.2,11.9,98.5z"/>
		<path id="Trazado_18264" class="st0" d="M41.1,110.1c8.6-0.1,16.9-2.9,25.6-1.8c2.7-1.3,5.3-2.6,5.4,2.3
			c-12.5,3.9-25.5,4.9-38.4,5.9c-15.3-0.4-30.5,1.2-45.6,3.3c-1.8,0.3-3.6,0.3-5.4,0.1c-2.1-0.2-4.9-0.5-5.1-2.8
			c-0.4-3.7,3.9-1.3,5.2-3.2c7.3-3,15-2,22.6-2.3c3-0.1,5.8,0,8.5-1.4C22.8,111.5,32,111.5,41.1,110.1z"/>
		<path id="Trazado_18265" class="st0" d="M37.5,105.2c-11-0.3-22,0.3-32.9,1.9l-1.8-1.8h0c2.7-2.1,6.4,0.4,9.1-1.8l5.4,0
			c2.8-2.1,6.4,0.4,9.2-1.8l9.1,0c1.3-1.1,2.9-1.1,3.6,0.3C40,103.2,38.8,104.4,37.5,105.2z"/>
		<path id="Trazado_18266" class="st0" d="M41.1,110.1c-8.9,2.9-18.5,2.9-27.4,0c0.6,0,1.2,0,1.8,0L41.1,110.1z"/>
		<path id="Trazado_18267" class="st0" d="M37.9,65l1.7,1.9c-0.8,1-2.3,1.2-3.4,0.4c0,0,0,0-0.1-0.1c-2.5-0.4-5.3,2-8-1.7L37.9,65z"
			/>
		<path id="Trazado_18268" class="st0" d="M34.9,67.2l3.5-0.3l2.1,0c1-0.9,2.4-1.1,3.6-0.3c0.6,0.7,0.6,1.6,0,2.3l-9.1,1.7
			C34.9,69.4,34.9,68.3,34.9,67.2z"/>
		<path id="Trazado_18269" class="st0" d="M74,249.3c-7.2-2-14.6-1.5-21.9-1.7c-5.5,3.4-11,0.1-16.5-0.2c-9.5-2.8-19.5-1.8-29.2-3.7
			c-4.5-2.2-9.3-1.4-14-1.8c-2.6-0.2-6.6,1.1-5.8-4.1c3.7-3,8-1.8,12.2-2.1c4.1,0,8.2,0,12.3,0c2,0,4,0,6,0c1,0,2,0,2.9,0
			c3.8,0,7.6,0.1,11.4,0c6.3-0.4,12.3,3.1,18.6,1.5c0.8-0.3,1.7-0.6,2.5-0.7c1.7-0.3,3.4-0.4,5.1-0.2c1.6,0.2,3.1,1,4.1,2.3
			c0.8,1.7,2.3,1.1,3.7,0.9c2.2,1.6,4.8,1.4,7.4,1.7c7.8,3.5,7.8,3.5,6.3,8.9C77.2,250.1,75.5,250.6,74,249.3z"/>
		<path id="Trazado_18270" class="st0" d="M-13.7,238.4c6,4.4,14.7-1.4,20,5.3l-23.8,0.3c-1.7-0.1-3.5-0.2-5.2-0.4
			c-0.1-0.5-0.2-1-0.2-1.6c-1.3-1.1-2.9-2.1-1.8-4.2c0.7-0.6,1.4-1.1,2.3-1.4c0.9-0.2,1.8-0.4,2.7-0.4
			C-17.5,236-15.2,236.3-13.7,238.4z"/>
		<path id="Trazado_18271" class="st0" d="M25.5,247.4c5.5-4,11,1.7,16.5,0.2l-3.5,3.4C33.7,251.2,28.8,252,25.5,247.4z"/>
		<path id="Trazado_18272" class="st0" d="M10.2,246.3c-2.4,1.9-4.6,1.1-7.4,0.7C5.3,244.7,7.6,245.7,10.2,246.3z"/>
		<path id="Trazado_18273" class="st0" d="M24.6,250.8l-8.9,0C18.3,248.6,22,248.6,24.6,250.8z"/>
		<path id="Trazado_18274" class="st0" d="M92,249.3c-4.5,3.6-9.7,1.1-14.6,1.8c0-0.6,0-1.2,0-1.7L92,249.3z"/>
		<path id="Trazado_18275" class="st0" d="M92.4,242h5.5c3.9-3.1,8.5-2.2,12.9-2.4c3.4,2.2,7.8,2.2,11.2-0.1
			c1.2-0.5,2.5-0.2,3.4,0.7c-1.7,4.1,1.3,3.6,3.7,3.6c2.4,0,5.3-0.4,3.6,3.6c-5.4-1.7-11.2-1.9-16.7-0.5c-9.5,2.4-19.1-0.4-28.5-1.9
			c-6.2-0.8-12.5-1.2-18.7-1.3c-5.3-1.7-5.4-2.6-0.6-7.6c0.8-0.3,1.7-0.2,2.5,0.3c0.8,3.7,2.2,6.9,6.8,5.2c3.3-1.1,6.4,0.5,9.6,0.2
			C88.5,240.5,90.9,240.5,92.4,242z"/>
		<path id="Trazado_18276" class="st0" d="M74.2,236.5c1,2.4-5.6,4.9,0,7.3l-5.4,5.3c-1.9-0.1-3.7-0.1-5.6-0.1c1.1-6-7.5-1.9-7.3-7
			c0.9-5.9,6.7-4.1,9.9-6.3C68.6,235.4,71.6,234.3,74.2,236.5z"/>
		<path id="Trazado_18277" class="st0" d="M154.7,227.4c0,0.6,0,1.2,0,1.8l0,0c-4.9-0.8-10.1,1.8-14.6-1.8c-1.2-1-2.5-1.8-3.9-2.6
			c-9.7-0.9-19.4,0.1-29.1-0.7c-3.1-0.2-6-0.2-8.8-1.7c-2.3-1.6-5.1-1.3-7.6-2c-3.1-0.9-5.5-2.4-3.8-6.3c4.6-3.4,9.7-2.3,14.6-1.4
			c3.2,0.7,6.5,1,9.7,0.8c3.1-0.7,6.1-1.5,9.3-0.8c8.6,2.3,17.5-0.1,26.1,1.6c1.9,0.5,3.5,2.1,4,4.1c0.1,0.9,0.1,1.8-0.2,2.7
			c-4,4.2,1.3,2.3,2.2,3.3C153.8,225,154.6,226.1,154.7,227.4z"/>
		<path id="Trazado_18278" class="st0" d="M109.6,220.1c12.7,3.7,25.5,1.5,38.3,1.2c0.3,0,0.5,0.1,0.7,0.3c0.7,1,0,1.6-0.7,2.1
			c-10.4,4.2-21,2.2-31.6,1.5c-8.1,1.3-16.1-1.3-24.2-0.6c-1.1,1.6-4.2-0.1-4.5,2.8c0,0.6,0,1.1,0,1.7c-1.6,1.2-3.5,1.8-5.5,1.8
			c-2.4,0.2-4.8-0.9-6.3-2.8c-1.9-4-5.6-3.7-9.2-3.7c-5,0.1-10.1,0-15.1,0.1c-1.4,0-2.7,0-4.1-0.1c-1.9,0-3.8-0.3-5.7-0.7
			c-3-1.4-7-0.7-9.4-3.8c-0.2-1,0.2-2.1,1-2.7c4.4-2.5,9.2-1.3,13.8-1.6c2.6-0.1,5.3,0.1,7.9,0.6c10.9,2.2,21.8,1.4,32.7,0.4
			C95,218.4,102.3,219,109.6,220.1z"/>
		<path id="Trazado_18279" class="st0" d="M199.6,225.5c-5.9,2.5-13.5-0.6-18.3,5.5l-5.1,1.2c-3.3-2.1,5.2-7.4-2.2-8.5
			c-2.7,1.7-5.7,0.5-8.5,0.9c-3-0.1-6,0.2-9-0.2c-1-0.4-1.5-1.6-1.1-2.6c0.7-0.8,1.6-1.5,2.6-1.9c19-0.7,38-1.9,57,0.6
			c1,0.6,1.6,1.7,1.4,2.8C211.3,228.1,205.4,226.7,199.6,225.5z"/>
		<path id="Trazado_18280" class="st0" d="M73.9,236.5c-2.4,0.1-4.9,1.7-7.3,0l-1.2,0c-2-0.1-4,0-4.8-2.5c0.2-1.1,0.9-2.1,2-2.5
			c0.4-0.6,2,0.2,1.7-1.3c-1.7-0.2-3.5-0.3-5.2-0.1c-2,0-4.3,0.8-5.9-1.3c-0.7-6.1,4.4-4.3,7.3-5.4c0.8-0.3,1.8-0.3,2.6-0.1
			c3.4,1,7,0.2,10.5,0.8c1.2,0.3,2.3,1.1,2.8,2.3c0.5,4.4,4,3.7,6.9,3.9c1.2,0,2.5-0.1,3.4,0.9c-1.8,2.6-5,1.3-7.4,2.2
			c0.6,2.3,4.4,1.2,4,4.3c-2.8,1.6-4.9-1.4-7.6-1.1L73.9,236.5z"/>
		<path id="Trazado_18281" class="st0" d="M146.6,229.2c8.1,0.4,16.2-0.9,24.2,1.8c-8,2.3-16.4,2.5-24.5,0.7
			C146.3,230.9,146.4,230,146.6,229.2L146.6,229.2z"/>
		<path id="Trazado_18282" class="st0" d="M104.9,223.7l32.9,0l1.8,3.6h-10.9c-5.5-0.7-11,1.2-16.5,0c-2.4-0.1-4.9-1.7-7.3,0
			c-0.6-0.4-0.9-1.1-1-1.8C103.9,224.8,104.3,224.2,104.9,223.7z"/>
		<path id="Trazado_18283" class="st0" d="M121.9,240.2h-3.6c-3.2,2.4-7.7,2.4-11,0L94.5,242c1.5-7.7,7.5-1.7,11-3.6
			c0.6-0.7,1.2-0.7,1.8,0c5.1,0,10.3,0.3,15.2-1.6c1.2-0.4,3.4-0.8,3.2,1.5C125.5,239.9,123.4,240,121.9,240.2z"/>
		<path id="Trazado_18284" class="st0" d="M147.4,227.4l-1.8-1.8c5.4-7,11.8-5.2,18.3-1.8l0,0c0.6,0.4,0.9,0.8,0.6,1.2
			c-0.2,0.4-0.4,0.6-0.6,0.6C158.3,226,153,228.2,147.4,227.4z"/>
		<path id="Trazado_18285" class="st0" d="M112.3,227.4c5.5-1,11-3.9,16.5,0C123.7,230.3,117.4,230.3,112.3,227.4z"/>
		<path id="Trazado_18286" class="st0" d="M225.2,236.5l-5.5,0l-1.8-3.6c3-2.4,6.1-2.2,9.1,0c1.7,0.4,4.4,0.3,3.7,2.6
			C230,237.6,227.1,236.1,225.2,236.5z"/>
		<path id="Trazado_18287" class="st0" d="M109.9,223.7v1.9c-4.2,1.4-8.6,1.3-12.8-0.1l-10.9,0c-0.6,0.7-1.2,0.7-1.8-0.1
			C92.6,221.7,101.4,224.6,109.9,223.7z"/>
		<path id="Trazado_18288" class="st0" d="M107.3,238.3h-1.8c-2.5-1.8-2.5-3.6,0-5.5c2.9-1.3,5.9-2.9,7.3,1.8L107.3,238.3z"/>
		<path id="Trazado_18289" class="st0" d="M227,232.8l-9.1,0c-0.6,0-1.2,0-1.8,0C219.8,228.6,223.4,226.2,227,232.8z"/>
		<path id="Trazado_18290" class="st0" d="M82.6,231l-3.7,0c-0.6-0.4-0.8-0.8-0.6-1.2c0.2-0.4,0.4-0.6,0.6-0.6l5.5-0.1l9.6,0
			C90.4,234.9,86.1,230,82.6,231z"/>
		<path id="Trazado_18291" class="st0" d="M112.4,234.7c-2-2.5-4.8-1.6-7.3-1.8c2.9-6.1,7.3-1,11-1.6
			C115.9,233.8,113.7,233.7,112.4,234.7z"/>
		<path id="Trazado_18292" class="st0" d="M195.7,236.5c0,0.6,0,1.2,0,1.8H192c-2.9,1.4-6.2,1.4-9.1,0c-0.9,0-1.8-0.1-2.6-0.3
			c-0.9-0.4-1.4-1.4,0.2-1.4C185.6,236.5,190.7,236.5,195.7,236.5z"/>
		<path id="Trazado_18293" class="st0" d="M95.8,225.5l12.8,0.1c0,0.6,0,1.2,0,1.8C104.3,226.7,99.6,229,95.8,225.5z"/>
		<path id="Trazado_18294" class="st0" d="M86.3,225.5c0.6,0,1.2,0,1.8,0.1c-1.2,0.6-2.4,1.2-3.6,1.9c-1.3-0.4-4,0.5-3.6-1.1
			C81.7,223.8,84.3,224.7,86.3,225.5z"/>
		<path id="Trazado_18295" class="st0" d="M144.2,231.8c-3.6,1.3-5.9,1.5-8.4,0.3C138.1,230.4,140.4,231,144.2,231.8z"/>
		<path id="Trazado_18296" class="st0" d="M183.2,238.3l9.1,0C189.3,241,186.2,241,183.2,238.3z"/>
		<path id="Trazado_18297" class="st0" d="M92.6,242h-5.5C88.9,239.1,90.7,236.5,92.6,242z"/>
		<path id="Trazado_18298" class="st0" d="M161.7,225.5c0-0.6,0-1.2,0-1.8l9.1,0c0.6,0.4,0.9,0.8,0.7,1.2s-0.4,0.6-0.6,0.6
			L161.7,225.5z"/>
		<path id="Trazado_18299" class="st0" d="M169.4,225.5c0-0.6,0-1.2,0-1.8l9.1,0C176,226.6,172.5,225.2,169.4,225.5z"/>
		<path id="Trazado_18300" class="st0" d="M197,225.5l16.4-1.9c0.6-0.6,1.5-0.8,2.2-0.5c1.4,1.1,2.5,2.2,1.5,4.2
			C210.1,230.7,203.5,229,197,225.5z"/>
		<path id="Trazado_18301" class="st0" d="M245.3,229.2l-23.8-1.9c-0.6-0.9-0.3-2.1,0.5-2.7c0.8-0.6,1.8-1.1,2.8-1.3
			c7.2-0.1,14.4-1.5,21.5,1C248.7,226.5,247.1,227.8,245.3,229.2z"/>
		<path id="Trazado_18302" class="st0" d="M232.4,225.6c0,0.6-0.1,1.2-0.1,1.7c-6.1-0.1-12.1,1.8-18.2,0l-1.8-3.6
			c2.9-3.3,6.7-2.5,10.3-2.1C225.9,223,229.9,222.4,232.4,225.6z"/>
		<path id="Trazado_18303" class="st0" d="M245.3,229.2l1.7-3.5c1.2-1.6,3.1-2.6,5.2-2.6c2.9-0.3,5.9-0.1,8.8,0.6
			c1.9,0.5,3.5,1.9,4.4,3.7c-5,5-11.5-2.7-16.5,1.9L245.3,229.2z"/>
		<path id="Trazado_18304" class="st0" d="M265.4,227.4l-3.8-1.8c0.6-1.8,1.7-3.4,3.3-4.4c3-2,6.4-1.8,9.7-2
			c2.4-0.1,4.9,0.5,6.9,1.8c1.1,1,1.5,2.5,1.1,3.9c-2.1,3.4-5.4,3.1-8.6,2.8c-0.5-0.1-0.9-0.2-1.3-0.3L265.4,227.4z"/>
		<path id="Trazado_18305" class="st0" d="M285.4,229.2c0.7,1.9,1.1,3.6-1.8,3.6c-3.6,0-7.2,0-10.9,0c-0.7-0.4-0.9-0.8-0.7-1.2
			c0.2-0.4,0.5-0.6,0.7-0.6c0-0.6,0-1.2,0-1.8C276.9,226.8,281.2,226.4,285.4,229.2z"/>
		<path id="Trazado_18306" class="st0" d="M263.5,232.8c-2.2,1.3-4.7,1.9-7.3,1.8l-4.9-3.6h12.2c0.6,0.4,0.9,0.8,0.6,1.2
			C264,232.6,263.8,232.8,263.5,232.8z"/>
		<path id="Trazado_18307" class="st0" d="M263.5,232.8c0-0.6,0-1.2,0-1.8l9.1,0c0,0.6,0,1.2,0,1.8c-1.8,0-3.7,0-5.5,0.1
			L263.5,232.8z"/>
		<path id="Trazado_18308" class="st0" d="M276.3,59.6l3.6-0.1c0.6,0.1,1.2,0.2,1.8,0.3c-2.6,2.8-6,1.3-9.1,1.7
			c-0.6-0.3-0.8-0.7-0.6-1.1c0.2-0.4,0.4-0.5,0.6-0.5L276.3,59.6z"/>
		<path id="Trazado_18309" class="st0" d="M254.3,59.7l7.6-1.7c1.8,1.7,6.5-0.5,6,4.4c-2.5,4.4-6.8,3.2-10.7,3.3
			c-2-0.1-3.9-1.1-4.9-2.8C251.8,61.1,253.4,60.5,254.3,59.7L254.3,59.7z"/>
		<path id="Trazado_18310" class="st0" d="M267.3,61.6l-5.4-3.6c3.8-0.6,7.3,0.8,10.8,1.9c0,0.5,0,1.1,0,1.6l-3.6,0
			C268.5,62.3,267.9,62.3,267.3,61.6z"/>
		<path id="Trazado_18311" class="st0" d="M206.9,55.9l1.6,1.8c3.9-0.6,7.7-1.4,11.6,0l6.8,0.2c0.4,0.4,0.6,1,0.5,1.5
			c-0.1,0.5-0.2,0.8-0.4,0.8c-3.9,3.3-9.4,0.9-13.3,3.8c-2.3,0.8-4.8,1-7.2,0.6c-0.8-0.1-1.6-0.3-2.3-0.6c-2.1-1.2-4.3-2.2-6.5-3
			c-3.1-1.4-8.2,0.6-9-4.9L206.9,55.9z"/>
		<path id="Trazado_18312" class="st0" d="M192.3,56.1c2.9,3.6,8.1,0,11,3.5c0.4,1.8,1.2,3.7-1,5c-2.5,1.2-5.4,1.2-8,2.1
			c-0.8,0.2-1.6,0.3-2.5,0.3c-1.3,0-2.5-0.5-3.5-1.2c-0.8-1-1.1-2.3-0.7-3.5c1.4-1,1.3-1.9,0.1-3c-0.4-1.2-0.1-2.5,0.9-3.3
			C189.9,54.2,191.1,55.8,192.3,56.1z"/>
		<path id="Trazado_18313" class="st0" d="M191,55.9c0,1.2,0,2.4,0,3.6c-3.8,3.4-7.8,3.3-12.1,1.2c-0.9-0.6-1.2-1.9-0.6-2.8l3.4-3.3
			L191,55.9z"/>
		<path id="Trazado_18314" class="st0" d="M219.7,58l1.8,1.4c4,3.1,8.3-0.8,12.4,0.4c1.9,0.5,3.8,0.8,5.7,0.8c2.4,0.5,5,0.6,6.1,3.4
			c-2.7,5.3-7.7,3.2-11.9,3.6c-0.9-0.1-1.9-0.2-2.8-0.4c-3.4-1.6-7.2-1.1-10.8-1.9c-0.9-0.3-1.7-0.8-2.4-1.4
			C216.4,61.3,218.1,59.7,219.7,58z"/>
		<path id="Trazado_18315" class="st0" d="M230.6,58l-1.8,5.3c-0.2,1.4-1.2,2.7-2.5,3.3c-2.7,1.2-5.8,0.9-8.2-0.8
			c-1.4-6.3,5.4-3.3,7-6.2v-1.9L230.6,58z"/>
		<path id="Trazado_18316" class="st0" d="M239.8,61.5l-5.5,0c-2.1-2-5.4,0.3-7.5-1.9c2.7-2.8,6-1.4,9.2-1.5
			c1.3,0.6,2.6,1.2,3.8,1.8c0.7,0.3,0.9,0.7,0.7,1C240.2,61.3,240,61.5,239.8,61.5z"/>
		<path id="Trazado_18317" class="st0" d="M226.8,59.6c2.6,0.4,5.5-0.7,7.5,1.9c-4.3-0.6-9,1.9-12.7-2.1L226.8,59.6z"/>
		<path id="Trazado_18318" class="st0" d="M220.3,57.6c-3.9-0.4-7.7,1.7-11.6,0.1c3.3-2.4,7.2-1.1,10.8-1.4
			C219.8,56.8,220,57.2,220.3,57.6z"/>
		<path id="Trazado_18319" class="st0" d="M254.4,59.6l-1.9,2.1c-3.6,2.3-7,3.4-9-1.9l-0.1-0.1L254.4,59.6z"/>
		<path id="Trazado_18320" class="st0" d="M243.5,59.8c2.5,2.9,6,1.4,9,1.9l3.7,1.8c0.4,2.8-1.7,3.2-3.6,3.8
			c-3.2,0.3-5.9-0.4-7.3-3.7l-5.6-2c0-0.5,0-1,0-1.6L243.5,59.8z"/>
		<path id="Trazado_18321" class="st0" d="M62.5,59.6l5.7,2c0.5,0.7,0.7,1.5,0.6,2.3c-0.4,1.6-1.4,3.1-2.8,4
			c-3.7,1.5-7.4-0.2-11-0.4c-2.1-0.9-5.5-0.1-5.4-4C53.1,59.7,58.8,63,62.5,59.6z"/>
		<path id="Trazado_18322" class="st0" d="M51.2,63.5L57,67c-0.1,1.1-1.3,1.1-1.8,1.8l-12.8,0c0-0.6,0-1.2,0-1.8
			c1.1-2.3,4.2-1.7,5.6-3.7L51.2,63.5z"/>
		<path id="Trazado_18323" class="st0" d="M48.7,63.4c-0.3,3.6-3,3.5-5.6,3.7l-3.5-0.1c-0.1-2.4,1.3-3.5,3.6-3.6L48.7,63.4z"/>
		<path id="Trazado_18324" class="st0" d="M77.4,61.4c1.3-1.2,2.5-2.4,3.8-3.6l1.7,0c1.2,1.3,3.1,0.7,4.5,1.6c1.1,0.7,1.7,2,1.5,3.3
			c-1.4,2.3-3.6,2.4-5.9,2.1C80.9,64.2,78.7,63.7,77.4,61.4z"/>
		<path id="Trazado_18325" class="st0" d="M87.5,61.7l-2.5-1.9c2.7-2.4,6.3,0.3,9.1-1.9l3.8,0c0,0.6,0,1.1,0,1.7
			c-0.2,2.1-1.7,3.9-3.7,4.5C91.7,64.6,89.1,63.7,87.5,61.7z"/>
		<path id="Trazado_18326" class="st0" d="M94.7,58c-2.5,3-6,1.2-9.1,1.8c-1.5,0.1-2.9-0.7-3.7-1.9L94.7,58z"/>
		<path id="Trazado_18327" class="st0" d="M79.4,61.4c2,0.2,4.2-0.2,5.6,1.8c-0.2,0.3-0.5,0.7-0.7,1c-1.7,1.2-3.6,2.1-5.7,2.4
			c-1.3,0.2-2.6,0.1-3.9-0.1c-3.2-1.2-7.2,0-9.7-3.3c0-0.5,0-1.1,0.1-1.7c2.4-0.1,4.8-0.3,7.3-0.4C74.7,61.3,77,61.4,79.4,61.4z"/>
		<path id="Trazado_18328" class="st0" d="M180.3,57.9c0,0.6,0.1,1.2,0,1.8c0.6,0.9,0.4,2.2-0.5,2.8c-3.7,2.3-8.5,2.3-12.2-0.2
			c-1.2-1.1-1.3-3-0.1-4.2c0,0,0,0,0,0c0.6-0.2,1.1-0.4,1.7-0.7C172.9,57.5,176.6,57.7,180.3,57.9z"/>
		<path id="Trazado_18329" class="st0" d="M163.3,57.7c0.6,0.1,1.1,0.3,1.6,0.5c0.2,0.4,0.3,0.9,0.5,1.3c-0.5,0.8-1.2,1.5-2.1,1.9
			c-3.8,1.1-7.6,1.4-11.1-1c-0.7-0.6-0.7-1.5-0.2-2.2c0.1-0.1,0.2-0.2,0.3-0.2l0,0.1L163.3,57.7z"/>
		<path id="Trazado_18330" class="st0" d="M163.6,59.4c0-0.4,0-0.8,0-1.2l5.6-0.2c0,1,0,2,0.1,3C166.5,63.5,164.8,62.2,163.6,59.4z"
			/>
		<path id="Trazado_18331" class="st0" d="M116.5,58l18.3,0.3c1.7,0.8,4.7,0.2,3.6,3.7c-3.4,2.6-7.1,1.2-10.7,1
			c-2.6-0.7-5.3-0.8-8-0.5c-0.8,0.1-1.6,0-2.3-0.3c-0.3-0.3-0.6-0.5-0.8-0.8C116.5,60.2,116.5,59.1,116.5,58z"/>
		<path id="Trazado_18332" class="st0" d="M112.1,59.7c2.2,1.5,4.8,2,7.4,1.6l-0.1,0.2c0.5,2-0.9,2.8-2.3,3.6
			c-4.5,0.8-9.3,2.3-12.7-2.6C106,58.6,110.1,62.2,112.1,59.7z"/>
		<path id="Trazado_18333" class="st0" d="M113.2,59.7c-1.8,2.7-4.7,1.5-7.1,2.1c-1.4,1.4-3.6,1.6-5.2,0.5c-0.7-0.5-1-1.4-0.5-2.1
			c0.1-0.1,0.1-0.2,0.2-0.3L113.2,59.7z"/>
		<path id="Trazado_18334" class="st0" d="M102.2,59.9c-0.1,0.6-0.1,1.1-0.1,1.7c-0.2,4.5-4.1,2-6,3.1c-1.2,0.1-2.3-0.5-3-1.4
			l3.6-3.7L102.2,59.9z"/>
		<path id="Trazado_18335" class="st0" d="M113.2,63.4l1.9-1.9l2.1-0.3c2.8-0.9,5.9-0.9,8.7,0l11.1,0c4.2-3.4,8.3-0.7,12.5,0.1
			l2.2,0.2c3.2-0.5,2.7,1.6,2.5,3.5c-0.5,0.8-1.2,1.5-2,1.9c-9.8,2.3-19.7,1.1-29.6,1.9c-2.9-1.2-6.4-0.8-9.1-2.9
			C112.8,65.3,112.6,64.2,113.2,63.4z"/>
		<path id="Trazado_18336" class="st0" d="M148.2,61.3c-4.2,0-8.3,0-12.5-0.1l-3.4-2.9c0.5-0.3,1.1-0.5,1.6-0.6
			c3.1-0.8,6.2-1.5,9.2,0.4C144.4,59.8,148.1,57.6,148.2,61.3z"/>
		<path id="Trazado_18337" class="st0" d="M150.1,65.2c0.1-1.5-0.6-2.9-1.8-3.7l5.6-3.6c-0.1,0.6-0.1,1.1-0.1,1.7
			c0.6,0.8,1.1,1.7,1.2,2.6C154.6,65.3,153.3,66.9,150.1,65.2z"/>
		<path id="Trazado_18338" class="st0" d="M143.4,58l-9.2-0.4c0-0.6,0.1-1.2,0.1-1.7l3.4-0.1C139.7,56.2,142.1,55.8,143.4,58z"/>
		<path id="Trazado_18339" class="st0" d="M63,154.7c-9.8-0.8-19.5,1.2-29.2,1.8c-3.9-3.4-8.5-1.1-12.8-1.8c0-0.6,0-1.2,0.1-1.8
			c3.8-4,8.7-2.2,13.2-2.6c5.1-0.1,10.3,0.4,15.5-0.3c0.8-0.3,1.7-0.6,2.6-0.7c2.2-0.4,4.5-0.3,6.7,0.3c1.7,0.5,3.2,1.5,4.4,2.9
			C63.8,153.1,63.6,154,63,154.7z"/>
		<path id="Trazado_18340" class="st0" d="M13.7,144.7c-9.8-1.1-19.4,2-29.2,1.9c1.4-4.5,4.7-5.4,9.1-5.7c3.7-0.3,7.8-0.8,11-3.4
			c3.2-3.3,7.7-2.8,11.6-4.2c4.7,0.1,9.6-1.4,13.9,1.9c-1.4,7-7.1,0.7-8.9,3.3c5.3,1.2,11.3-2,17.6-1.8c3.9,0.1,7.9-0.7,11.3,2.1
			c0.7,0.8,0.8,2,0.2,2.9C38.4,144.9,26,146,13.7,144.7z"/>
		<path id="Trazado_18341" class="st0" d="M15.6,135.9c-3.4,2.1-7.2,1.9-11,1.8l-21.9,0c-0.6-0.8-0.5-1.9,0.2-2.6
			c5.4-4,11.9-3.8,18.1-4.5c4.6,1.7,9.9-0.2,14.3,2.7C16,133.9,16.2,135.1,15.6,135.9z"/>
		<path id="Trazado_18342" class="st0" d="M13.7,144.3c12-3,24.2-3.7,36.5-3.6c2.2-1.8,4.5-2.3,7-0.6c-0.1,7.3-6.9,3.6-10,6
			c-1,0.3-1.9,0.5-2.9,0.6c-4.5,0.3-9-0.1-13.3,1.6c-4.2,0.4-8.5,1.4-11.9-2.2C17.2,146.1,15.1,146.4,13.7,144.3z"/>
		<path id="Trazado_18343" class="st0" d="M19.2,145.8l12.8,0c2.3-1.6,4.8-0.7,7.2-0.7c2,1.1,5.5,0,5.9,3.8
			c-9,3.8-18.2,3.6-27.6,2.4l-3.7-0.1c-1.9-2.5-4.8-1.6-7.3-1.8C9.9,145.5,15.7,149.8,19.2,145.8z"/>
		<path id="Trazado_18344" class="st0" d="M17.4,151.3c9.2-0.5,18.5-1,27.4-3.7c2.9-2.9,6.4-2.7,10.1-2c1.5,0.4,2.6,1.5,3.1,2.9
			c-0.9,3.2-4.4,0.7-5.9,2.7v0c-5.3,2.3-11.2-0.6-16.4,1.8l-14.6,0C19.6,153.2,18.2,152.5,17.4,151.3z"/>
		<path id="Trazado_18345" class="st0" d="M36.8,97.1c-3.1,0.2-4.8-2.6-7.3-3.7c-0.6-0.4-0.9-0.8-0.6-1.2c0.2-0.4,0.4-0.6,0.6-0.6
			l3.4-0.3c4-2.7,9-0.7,13-3.1c1.9-1.1,3.9-1.9,6-2.4c2.2-0.3,4.5-0.5,6.8-0.4c2.3-0.2,4.6,0.3,6.7,1.4c0.7,0.5,1.2,1.3,1.4,2.2
			c-0.3,2.9-2.7,4.4-4.4,6.3C53.8,95.3,45.5,98.1,36.8,97.1z"/>
		<path id="Trazado_18346" class="st0" d="M51.6,88.1L46.1,90c-4.1,1.4-8.6,1.4-12.7,0l-1.9-1.6c0-0.9,0.4-1.8,1-2.5
			c0.7-0.6,1.5-1.1,2.4-1.4c3.2-0.9,6.4-0.6,9.6-0.7c2.4-0.2,4.8,0.4,6.8,1.8C52.1,86.2,52.2,87.3,51.6,88.1z"/>
		<path id="Trazado_18347" class="st0" d="M21.1,89.8c3.2-2.6,7.2-1.4,10.8-2.3c3.2-2.1,6.3-2.5,9.2,0.6
			C34.7,90.5,27.8,91,21.1,89.8z"/>
		<path id="Trazado_18348" class="st0" d="M33.4,89.6l12.7,0c-4,3.5-8.6,2.3-13.1,1.6C33.2,90.7,33.3,90.1,33.4,89.6z"/>
		<path id="Trazado_18349" class="st0" d="M41.1,90.9l-9.2-0.6c0.1-0.4,0.1-0.9,0.2-1.4c4.4-3.4,8.7-3.6,13,0.3
			c-0.7,0.6-1.3,1.2-2,1.8C42.4,91,41.7,90.9,41.1,90.9z"/>
		<path id="Trazado_18350" class="st0" d="M41.1,91.4c0,0.6,0,1.2,0,1.8l-9.2-0.1C34.6,90.4,38,91.5,41.1,91.4z"/>
		<path id="Trazado_18351" class="st0" d="M28.3,81.7l7.3,0c1,1,1.5,2.4,1.3,3.8c-0.2,0.9-0.7,1.7-1.5,2.3c-1.8,0.3-3.6,0.8-5.3-0.5
			l-11-0.2c-0.4-4.5,3.8-3,5.8-4.5C26.1,82.3,27.4,82.5,28.3,81.7z"/>
		<path id="Trazado_18352" class="st0" d="M26.5,83.5L19.2,87l-11,1.8c0.6-1.1,1.2-2.2,1.8-3.3c2.5-2.5,6-3.6,9.5-3
			C21.8,82.9,24.4,81.2,26.5,83.5z"/>
		<path id="Trazado_18353" class="st0" d="M30.2,87.2l5.4-0.3c1.9-1.8,4.7-2.3,7.2-1.4c1.4,0.7,2.6,1.6,2.1,3.5l0.1,0.2
			c-4.3-0.1-8.6-0.2-13-0.3L30.2,87.2z"/>
		<path id="Trazado_18354" class="st0" d="M19.1,83.4L10,85.5c-0.6-0.1-1.1-0.2-1.7-0.3c1.3-1.8,3.8-2.8,3.7-5.6
			c1.9,2.5,5,0.5,7.2,2C20.3,82.2,20.3,82.8,19.1,83.4z"/>
		<path id="Trazado_18355" class="st0" d="M-2.6,81.8l9-0.2l-5.2,3.5l-2.1,0.1C-1.5,84.1-2.1,82.9-2.6,81.8z"/>
		<path id="Trazado_18356" class="st0" d="M49.8,72.8l5.4-0.6c5.9-2.9,12-3,18.3-1.4c0.9,0.5,1.6,1.2,2.1,2.1
			c0.2,3.3-2.7,3.4-4.7,4.6c-0.8,0.3-1.7,0.6-2.5,0.7c-2.5,0.3-4.9,0.7-7.3,1.3c-1.2,0.3-2.4,0.4-3.6,0.4c-0.8-0.1-1.6-0.2-2.4-0.4
			c-2.2-0.8-4.7-1-6.8-2.3c-0.6-0.5-1-1.3-1.1-2.1C47.5,73.7,48.7,73.3,49.8,72.8z"/>
		<path id="Trazado_18357" class="st0" d="M32.4,78.2c-2.3,0.7-4.6,1.4-5.7-1.7l-0.2-0.5c3-1.6,6.5,0.3,9.6-1.4l10.8,0.1
			c1.2,1,3.1,0.2,4,1.8c0,2.4-1.7,3.4-3.7,4.1c-0.8,0.1-1.6-0.1-2.2-0.7l-2.1-0.1C39.6,77.6,35.7,80.1,32.4,78.2z"/>
		<path id="Trazado_18358" class="st0" d="M52.8,68.8l1.8-1.8c3.6-2,7.3-0.4,10.9,0c2.7-2.8,5.4-4.1,8.2-0.2c-0.2,2-1.8,3.6-3.8,3.7
			c-4.5-0.2-9.3,1.3-13.5-1.5L52.8,68.8z"/>
		<path id="Trazado_18359" class="st0" d="M74.2,72.3l-20-0.1l1.9-1.6c4.1-1.8,8.3-0.4,12.5-0.9c1.4,0,2.7,0,4.1-0.1
			c0.9,0.1,1.7,0.7,2.1,1.5C74.6,71.5,74.4,71.9,74.2,72.3z"/>
		<path id="Trazado_18360" class="st0" d="M38.3,76.2c-1.2-0.5-2.3-1-3.4-1.6l5-0.5c3.6-1.2,7.6-1.1,11.2,0.3c0,0.6,0,1.2,0,1.7
			C46.8,80.9,42.6,79.4,38.3,76.2z"/>
		<path id="Trazado_18361" class="st0" d="M50.3,74.4l-11.2-0.3c4.2-2.2,8.6-1.2,13-1.3L50.3,74.4z"/>
		<path id="Trazado_18362" class="st0" d="M42.9,87.1c-2.4,0-4.8-0.1-7.3-0.1c0-0.6,0-1.1,0-1.6c1.4-1.9,4-1.8,5.5-3.6l1.9,0
			c1.2,0.8,3,0.2,4,1.6c0.2,0.7,0.2,1.5-0.1,2.2C45.9,86.9,44,86,42.9,87.1z"/>
		<path id="Trazado_18363" class="st0" d="M35.5,83.5l-3.6-1.8c0.6-0.6,1.2-1.3,1.8-1.9c0.6,0,1.1,0,1.7-0.1c1.5-1,3.4-1.2,5.1-0.6
			c0.7,0.6,1,1.5,0.8,2.4C39.9,83.6,38.1,84.6,35.5,83.5z"/>
		<path id="Trazado_18364" class="st0" d="M19.1,83.4c0-0.6,0.1-1.2,0.1-1.7l5.4-1.9l3.7,2c-0.6,0.6-1.2,1.2-1.8,1.8L19.1,83.4z"/>
		<path id="Trazado_18365" class="st0" d="M32.4,78.2c3.5,0.4,7.3-1.3,10.5,1.6C39.4,78.9,35.5,81.4,32.4,78.2z"/>
		<path id="Trazado_18366" class="st0" d="M41.2,81.7c-0.3,3.5-2.9,3.6-5.5,3.6c0-1.2,0-2.4,0-3.6L41.2,81.7z"/>
		<path id="Trazado_18367" class="st0" d="M104.7,94.7l29.2,0c2.8-3,6.6-2.6,10.1-2.6c10.8-0.1,21.6-0.1,32.4,0
			c2.2,0,4.4,0.1,6.6,0.5c16.5,2.9,33.2,0.7,49.7,1.1c3.3,0.1,6.6-0.6,9.6,1.5c0.8,0.6,1.3,1.5,1.5,2.5c-1.5,3.1-4.5,3.4-7.4,3.9
			c-2.3,0-4.6-0.2-6.8-0.6c-3.5-0.4-7.1,0-10.5,1.1c-2.3,0.4-4.7,0.4-7,0c-13.5-0.6-27,0.2-40.4,2.4c-3.5,2-7.6,1.9-11.3,3.3
			c-3.6,0.5-7.2,0.6-10.8,0.4c-13.5-3.1-27.1-1.2-40.7-1.6c-4.6-5.8-0.8-7.5,4.1-9C110.3,97.2,105.7,100.7,104.7,94.7z"/>
		<path id="Trazado_18368" class="st0" d="M118.6,92l-7.3-0.1c-1.5-1.7-1.7-4.2-0.3-6c3.1-2.6,6.9-2,10.6-2.2
			c6.2-0.2,12.5,0.8,18.6-0.8c1.2-0.7,2.4-1.2,3.7-1.7c2.5-0.7,5.1-1.1,7.8-1.1c1.6-0.3,3.3-0.4,5-0.3c3.1,1,6.4,1.2,9.7,0.5
			c3.2-0.1,6.4-0.4,9,2c0.5,4.3-2.9,2.6-4.3,3.1c4.9,1.9,12.5-2.9,15.8,5.5c-0.2,1-0.9,1.9-1.9,2.3C162.8,94.2,140.7,92.9,118.6,92z
			"/>
		<path id="Trazado_18369" class="st0" d="M137.7,94.5c3.1,3.4,7.4,0.8,11.2,2.4c-3,2.5-8.5,2.8-7.5,8.5c-0.6,0.5-1.4,0.6-2.1,0.4
			c-2.9-2.3-4.6,1-6.8,1.6c-3.6,1-7.2,0.6-10.8,0.8c-4.5,0.1-9.1-0.4-13.6,0.5c-0.9,0.2-1.8,0.2-2.6,0.2c-3.3-0.8-6.8-0.8-10.1,0.1
			c-1.3,0.2-2.7,0.2-4-0.1c-3-1.1-6.6-0.5-9-3.2c-0.6-1.2-0.6-2.7,0-3.9c7.7-4.1,16.1-3,24.4-3.5c3.6-0.2,7.1,0.8,11.7,0
			c-2.4-0.2-3.7-0.7-4.5-1.9C121.6,92.4,129.8,95.5,137.7,94.5z"/>
		<path id="Trazado_18370" class="st0" d="M125.7,86.3l0,5.4l-32.9,1.8c-4.7-1.5-9.8-1.5-14.6,0c-7.8,2.4-15.8,1.7-23.7,1.8
			c0-2.5,0-5.1,3.5-5.4c3.8-1.1,7.6-2.7,11.7-2.6c3.2,0.1,6.4-0.4,9.5-1.5c4.8-0.9,9.7-0.4,14.5-0.5c7.5,0.4,14.9-2.5,22.5-1.4
			C119.4,84.5,122.8,84.4,125.7,86.3z"/>
		<path id="Trazado_18371" class="st0" d="M119,96.2c3.7,0.6,7.8-1.4,12.7,3.2L88,101.7c-4.1,2.1-8.7,0.1-13.8,1.4
			c-0.3,0,1.3,1.7,0.8,0.6c-0.2-0.5,0-0.9,0.4-0.8c3.5,1.2,8.8-3.7,10.7,3c-4.3,3.3-9.3,1.7-14.1,2.1c-4.1-0.2-8.3,0.6-12.2-1.3
			c-0.5-0.3-1.1-0.8-1.1-1.3c0.1-4.4,3.6-2.5,5.7-2.9c-1.7-3-1.7-3,5.3-4.4l7.3,0c8.9-2,17.9-0.3,26.8-0.9c3.2-0.2,6.6,0.9,9.7-0.9
			L119,96.2z"/>
		<path id="Trazado_18372" class="st0" d="M116,91.4l67.6,0c1.4-1.3,3.3-1.9,5.2-1.7c3.5,1.2,7.5,0.4,10.7,2.8
			c0.7,0.6,0.9,1.7,0.6,2.5l-43.8,0c-6.4-3.8-13.4-0.9-20.1-1.8C129.4,92.3,122.4,95.2,116,91.4z"/>
		<path id="Trazado_18373" class="st0" d="M112.6,96.4c-12,4.1-24.4,0.7-36.6,1.8C88.1,94.2,100.4,97.5,112.6,96.4z"/>
		<path id="Trazado_18374" class="st0" d="M77.4,93.1c4.5-2.8,10.1-2.8,14.6,0L77.4,93.1z"/>
		<path id="Trazado_18375" class="st0" d="M11.9,103.3c-2.6,2.9-6,1.4-9.1,1.8C5.4,102.2,8.8,103.6,11.9,103.3z"/>
		<path id="Trazado_18376" class="st0" d="M26.5,101.6c-2.6,2.9-6.1,1.4-9.2,1.8C20,100.5,23.4,101.9,26.5,101.6z"/>
		<path id="Trazado_18377" class="st0" d="M49.8,106.7l12.8,0c4-2.3,8.7,0.6,12.7-1.8l14.7-0.1c0.6-0.9,1.2-0.9,1.8,0
			c3.1,0.4,6.6-1.1,9.1,1.8c-4.2,4.4-9.9,1.5-14.6,3.2c-0.9,0.3-1.8,0.6-2.7,0.7c-4.1,0.6-8.4,0.1-12.4,1.8c-1,0.2-1.9,0.4-2.9,0.4
			c-4.5-0.3-9.3,1.4-13.1-2.5c-1.3-2-3.5-1.8-5.5-1.8C49.8,107.9,49.8,107.3,49.8,106.7z"/>
		<path id="Trazado_18378" class="st0" d="M61.2,110h14.6c0.6,0.9,0.4,2.1-0.5,2.8c-9.4,3.3-19.5,2.4-29,4.9c-7.5,0.2-15,1.7-22.3-1
			c-0.4-0.4-0.7-0.8-1.1-1.2c0-0.6,0-1.2,0-1.8C35.8,113.8,48.2,109,61.2,110z"/>
		<path id="Trazado_18379" class="st0" d="M24.7,117c0-0.6,0-1.2,0-1.8l9.1,0l0,0C31.7,120.6,28.3,119.4,24.7,117z"/>
		<path id="Trazado_18380" class="st0" d="M52.1,238.3c-6.7,4.9-13.5-0.8-20.2-0.1c-4.1-1.4-8.5-1.4-12.6,0l-1.9,0
			c-1.2-1.2-2.5-2.3-2.6-4.2c0.1-0.9,0.5-1.6,1.1-2.2c0.7-0.5,1.5-0.9,2.3-1.1c2.4-0.6,5-0.4,7.4-0.7c4.3-3.4,9.7,1.5,14.1-1.8
			c2.4-1.3,4.7-0.7,7.1,0.1c1.8,0.8,3.7,1.5,5.6,2.1c2.9,0.9,4.5,3.1,5.8,5.6c0.2,0.8,0,1.6-0.6,2.1L52.1,238.3
			c-2.3-1.8-5.1-0.6-7.6-1C47,237.9,49.8,236.6,52.1,238.3z"/>
		<path id="Trazado_18381" class="st0" d="M43.4,238.3c0-0.6,0-1.2,0-1.8c2.1-3.4,4.7-5.4,8.8-3.1c5.1,3.3,11.5,0.1,16.7,3.1l0,0
			c-2.5,4.1-7.9,2.4-11,5.5c-2.8,0.8-5.3,0.8-7.3-1.8c-0.9,1-2.5,1.1-3.5,0.2c-0.1-0.1-0.1-0.1-0.2-0.2
			C46.3,238.9,44.9,238.2,43.4,238.3z"/>
		<path id="Trazado_18382" class="st0" d="M-13.7,238.4l-7.3-0.1c-1.3-3.4,4.1-2.4,3.5-5.4c1.2-1.2,3-1.7,4.7-1.4
			c4,1.2,8.5-0.3,12.1,2.7c0.9,1.2,0.8,2.9-0.2,4L-13.7,238.4z"/>
		<path id="Trazado_18383" class="st0" d="M-0.8,238.2l0-3.5c4.2-3.9,8.9-2.9,13.6-1.4c2.6,2.2,1.1,3.6-0.9,4.9L-0.8,238.2z"/>
		<path id="Trazado_18384" class="st0" d="M19.3,238.3c3.7-2.8,8.9-2.8,12.6,0H19.3z"/>
		<path id="Trazado_18385" class="st0" d="M47.6,240.1l3.7,0c-1.3,1.7-2,4.8-4.9,3.5C45.1,243.1,46.2,241.1,47.6,240.1z"/>
		<path id="Trazado_18386" class="st0" d="M11.9,238.3l1.8-3.6c0.3-0.5,1-0.7,1.6-0.3c0.1,0.1,0.2,0.2,0.3,0.3
			c1.2,0.8,1.9,2.2,1.8,3.6L11.9,238.3z"/>
		<path id="Trazado_18387" class="st0" d="M-17.3,234.7c0.8,3.3-3.6,1.3-3.7,3.6l-0.9,0l-0.9,0l-1.8-1.8c0-0.6,0-1.2,0-1.8
			c0.3-0.3,0.6-0.7,1-1C-21.6,232.4-18.9,232.8-17.3,234.7z"/>
		<path id="Trazado_18388" class="st0" d="M106.6,240.1h11C113.9,245.7,110.3,245.7,106.6,240.1z"/>
		<path id="Trazado_18389" class="st0" d="M38.3,212.3l0-3.6c3.2-1.5,6.8-2,10.3-1.4c4.5,1.1,9.1,0.5,13.7,0.6
			c15-0.8,29.9-3.6,44.9-0.1c1.9,0.6-0.5,3.2,1,3.1c11-0.5,22,0.6,33,0.7c2.5-0.1,4.9-0.1,7.4,0c8.2-0.4,16.5,1.1,24.6-1.2
			c3.8-0.6,7.5-1,11.2,0.5c3.6,2.4,2.1,4.5-0.4,6.5c-9.5,2.9-19.1,2.4-28.9,1.4c-13-1.4-26-1-39-0.9c-23.8-1-47.6-0.8-71.3-2.8
			C42.4,214.7,40,214.5,38.3,212.3z"/>
		<path id="Trazado_18390" class="st0" d="M48.1,212.2l78.5,3.7c1,0.9,1.1,2.4,0.2,3.4c-0.1,0.1-0.1,0.1-0.2,0.2
			c-8.6,0.6-16.9-3-25.6-1.8c-7,6.1-15.1,1.6-22.4,1.5c-7.4-0.1-14.9-0.3-22.4-0.8c-2.9,0-5.6-1.3-8.4-1.6c-3.2-0.2-6.4-0.1-9.6-0.2
			c-0.9,0-1.8-0.1-2.7-0.3c-4.7-2.4-10.8,1.3-15-3.4c-0.5-0.8-0.4-1.7,0.2-2.4C29.9,210.3,39.1,210,48.1,212.2z"/>
		<path id="Trazado_18391" class="st0" d="M-13.7,210.5c9.7-3.3,19.7-1.7,29.5-0.9c4.1,0.3,8.3,1.1,12.5,1.2
			c-0.4,4.8-4.3,3.8-7.2,4.4c-6.2,0.1-12.5,0.3-18.6-1.6c-4.6-0.5-9.3,0.4-13.9-1C-12.3,212.1-13.1,211.4-13.7,210.5z"/>
		<path id="Trazado_18392" class="st0" d="M57.2,209.3c-3,0.3-6.1,2.5-9.1,0c-3.5,0.3-6.9-1-9.1-3.6l5.5,0c4.4-3.9,9.4-3.2,14.5-2.2
			c1.7,0.3,3.9,1.3,3.6,3.4C62.1,209.7,60.1,210.8,57.2,209.3z"/>
		<path id="Trazado_18393" class="st0" d="M21,212.4c2.5-0.2,5.4,0.7,7.3-1.9h5.5c0,0.6,0,1.2,0,1.9c1.6,2,0.7,3.5-1,4.8
			c-1.3,0.7-2.7,1.1-4.2,1.1c-1.9,0.1-3.9-0.3-5.6-1.1C21.4,216,20.1,214.6,21,212.4z"/>
		<path id="Trazado_18394" class="st0" d="M29.9,207.2h-5.3C26.4,204.7,28.2,206.4,29.9,207.2z"/>
		<path id="Trazado_18395" class="st0" d="M83.1,193.9h-7.3c-5.4,1.4-11.1,1.4-16.4,0c-17.5,0-35.1,0.1-52.6-0.1
			c-3.2,0-6.8,1.1-9.5-1.8c2-2.5,4.9-2.5,7.7-2.6c9.9-0.1,19.7,0,29.6-0.1c2.6,0,5.3,0,7.9,0c3.1,0,6.2,0,9.3,0c2.5,0,5.1,0,7.7,0
			c3.6,0,7.2,0,10.8,0c2.6,0,5.3,0,7.9-0.1c4.5,0.7,10.2-2.1,12.5,4.6C88.2,196.1,85.6,195.8,83.1,193.9z"/>
		<path id="Trazado_18396" class="st0" d="M-19.1,192.2c3-5.6,8.3-3,12.8-3.6c1.1,0.6,1.1,1.2,0.1,1.9c-2.6,2.9-6.1,1.4-9.2,1.8
			c-0.9,1-2.5,1-3.5,0.1C-19.1,192.2-19.1,192.2-19.1,192.2z"/>
		<path id="Trazado_18397" class="st0" d="M45.3,193.8h16.4c-5.1,3.6-11,1.1-16.4,1.8V193.8z"/>
		<path id="Trazado_18398" class="st0" d="M-6.3,190.5c0-0.6,0-1.2-0.1-1.9l5.5,0c1.8-1.9,4.7-2.2,6.9-0.8c0.8,0.6,1.1,1.7,0.8,2.7
			c-0.8,0.6-1.7,0.9-2.7,0.9c-2.9-0.3-5.9,0.9-8.6-0.9C-5.1,190.5-5.7,190.5-6.3,190.5z"/>
		<path id="Trazado_18399" class="st0" d="M-4.5,190.4l9.1,0c0.6,0.4,0.8,0.8,0.6,1.2s-0.4,0.6-0.6,0.6l-7.3,0.1L-4.5,190.4z"/>
		<path id="Trazado_18400" class="st0" d="M50.3,220.9c0,0.6,0,1.2,0,1.8c-1.3,2.1-3.4,2.8-5.5,3.5c-5.3,2-11.3-2.1-16.4,1.6
			c-1.7,0.5-3.6,0.4-5.2-0.4c-1.9-1-2.9-3.3-5.3-3.7c-5.2-0.5-10.3,0-15.5-0.2c-2.6-0.2-5.2-0.3-6.8-2.9l1.8-3.2
			c0.9-1.3,2.3-2.2,3.8-2.4c2.5-0.4,5.1-0.3,7.7,0.3c6.9,1.3,13.9,1.9,20.9,1.9c3,0.2,5.9-0.8,8.9-0.8c3,0.1,6-0.2,8.9,1
			C49,218.1,50,219.4,50.3,220.9z"/>
		<path id="Trazado_18401" class="st0" d="M2.6,220c-6-0.8-12.3,2.1-18-1.7l10.9-0.3l7.1,0.4C3.8,218.9,3.8,219.4,2.6,220z"/>
		<path id="Trazado_18402" class="st0" d="M0.9,217.7l-3.6,0.3c-2.4-0.1-4.9-0.2-7.3-0.4c0-0.6,0-1.1,0-1.6c3.2-3,6.7-2.9,10.3-1
			C1.2,215.5,1.5,216.8,0.9,217.7C0.9,217.7,0.9,217.7,0.9,217.7z"/>
		<path id="Trazado_18403" class="st0" d="M-15.5,170h-6.9l-0.1-1.8h8.8c5.6-2.2,11.5-3.6,17.5-4.1c1,0,2,0.1,3,0.3
			c4.4,1.6,9,1.1,13.5,1.2c7.4,0,14.9,0,22.3,0c22.3-2.1,44.7-1.7,67.1-1.9c16.7-0.1,33.3,0.4,49.9,1.9c2.8,0.2,5.7,0.1,7.8,2.5
			c0.4,1.1-0.1,2.4-1,3c-8.9,3.2-18,1.1-27.1,1.5c-8.2,0.4-16.4-0.1-24.6,0.2c-1.2,0.2-2.4,0.2-3.5,0c-37.9-0.4-75.8,0-113.7-0.2
			C-6.9,172.6-11.7,173.5-15.5,170z"/>
		<path id="Trazado_18404" class="st0" d="M-15.5,169.7l127.8,0c-1.6,6.1-6.9,4.9-10.8,4.8c-7.7-0.3-15.4,0-23.2-0.2
			c-2.1,0.3-4.1,0.4-6.2,0.1c-11.1-1.4-22.2,1.5-33.3,0.9c-8.1-2.2-16.5-0.3-24.6-1.9c-5.1,0.2-10.3-0.6-15.4,0.7
			c-4.8-0.6-10.3,2.6-14.4-2.6C-15.5,170.9-15.5,170.3-15.5,169.7z"/>
		<path id="Trazado_18405" class="st0" d="M4.6,166.5c-6.2-0.2-12,2.9-18.3,1.8c0-1.2,0-2.4,0-3.6l7.3,0
			C-2.6,164.6,1.8,160.6,4.6,166.5z"/>
		<path id="Trazado_18406" class="st0" d="M105.6,219.2c0-1.2,0-2.4,0-3.6l67.6,0c6.4,1,14.1-2,18.5,5.7c-0.6,0.6-1.3,1.4-2.2,1.5
			c-15,1-30,2.3-45,1.6c-0.8,0-1.5-0.9-2.3-1.5c0.1-1.5-0.6-2.9-1.8-3.7c-9-2.6-18.4,0.7-27.4-1.8
			C110.3,217.3,107.8,217.9,105.6,219.2z"/>
		<path id="Trazado_18407" class="st0" d="M131.4,222.8c16.4-1.2,33,1.6,49.3-1.8c0.6-0.6,1.4-1.1,2.2-1.3c11.4,0,22.9,0.1,34.3-0.6
			c5.9,4.5,13.4,1.3,19.7,5.5h-23.4l-60.3,0c-7.3,0.9-14.6,2.3-21.9,0C131.5,224,131.5,223.4,131.4,222.8z"/>
		<path id="Trazado_18408" class="st0" d="M50.9,215.7c15.3-1.2,30.4,2.6,45.7,1.8c1.9,7.3,9.7,0.9,12.8,5.5
			c-7.3-0.7-14.9,1.6-21.9-1.8c-8-0.2-15.9,2.1-23.9-0.1c-4-1.5-8.5-0.8-12.4-2.9C50.4,217.6,50.3,216.4,50.9,215.7
			C50.9,215.7,50.9,215.7,50.9,215.7z"/>
		<path id="Trazado_18409" class="st0" d="M142.7,221.9l21.9,0c0,0.6,0,1.2,0,1.8c-6.1,0.5-12.4-1.4-18.3,1.8
			c-1.2,0.1-2.4,0.2-3.5,0.3c-2.2,0.1-5.7,3.4-6.3-0.8C136,221.8,140.1,222,142.7,221.9z"/>
		<path id="Trazado_18410" class="st0" d="M117.5,217.7c9.1,1,18.5-2.2,27.4,1.8C135.8,218.5,126.4,221.7,117.5,217.7z"/>
		<path id="Trazado_18411" class="st0" d="M28.3,223.7c4.7-7.5,11.2,0.8,16.5-1.8c2.1-1.5,4.5-0.7,6.7-0.7c4.4,0.3,8.6,3,13.2,0.8
			l3.8,0c2.7,2.2,6.4-0.4,9.1,1.8c-1.6,2.9-7.2,0.5-7.3,5.4c-1.5,1.4-3.2,1.1-4.9,0.5c-4.7-1.6-9.4,1-14,0c-3.3-0.3-6.1-2.5-9.5-2.3
			C37,227.5,31.7,229.3,28.3,223.7z"/>
		<path id="Trazado_18412" class="st0" d="M64.3,219.2c7.6,4.1,16.1-1.7,23.7,1.9c-10.8,2.9-22.1,3-32.9,0.1
			c0.3-1.4,1.3-2.4,2.6-2.7C60,218.6,62.3,217.7,64.3,219.2z"/>
		<path id="Trazado_18413" class="st0" d="M61.6,223.7c-3.1-0.4-6.6,1.1-9.1-1.8c7.2,0,14.5,0.3,21.7-0.1c4.9-0.2,4.6,2.3,3.9,5.6
			c-0.4,0.5-1.2,0.6-1.8,0.1c0,0,0,0-0.1-0.1l-1.9-1.9c-3.3-2.3-7.5,0.5-10.9-1.8L61.6,223.7z"/>
		<path id="Trazado_18414" class="st0" d="M38.1,221.3l-1.8-1.8c-0.4-0.4-0.6-1-0.5-1.6c0.1-0.5,0.2-0.8,0.4-0.8
			c1.1-0.8,2.4-1.2,3.7-1.1c2.5,0.5,5.1,0.9,7.7,1.1c1.8,0.1,3.5,0.6,5,1.7c0.4,0.4,0.6,1,0.5,1.6c-0.1,0.6-0.2,0.8-0.3,0.8
			L38.1,221.3z"/>
		<path id="Trazado_18415" class="st0" d="M73.3,227.5c0.6,0,1.2-0.1,1.8-0.1l5.5,1.8c0,0.6,0,1.2,0,1.8
			C79.1,227.8,71.6,237.1,73.3,227.5z"/>
		<path id="Trazado_18416" class="st0" d="M40.7,222l-7.5-0.2c1.3-2,3.5-1.7,5.4-1.8c3.1,0.4,6.4-0.9,9.1,1.5
			C45.6,223.6,43.2,222.9,40.7,222z"/>
		<path id="Trazado_18417" class="st0" d="M39.6,222c2.3-0.2,4.7-0.3,7-0.5l5.4,0.4C48.3,224.6,43.3,224.6,39.6,222z"/>
		<path id="Trazado_18418" class="st0" d="M50.3,221.1c0-0.5,0-1,0-1.5c3-1.9,6-1.4,9-0.1c-0.6,0.6-1.2,1.2-1.8,1.8L50.3,221.1z"/>
		<path id="Trazado_18419" class="st0" d="M51.5,234.7c-3.1-2.1-4.5,2.8-7.3,1.8c-3.2,0.8-2.3-4.6-5.6-3.8c3.4-6.4,9.1-3.6,13.8-3.1
			c3.8,0.4,7,0.4,9.9-2.1c2.6,0.1,5.4-0.8,7.5,1.7c-0.6,1.9-2.7,2.3-3.7,3.7l-1.9,1.8C60,235,55.7,238.1,51.5,234.7z"/>
		<path id="Trazado_18420" class="st0" d="M63.9,227.5c-1,5-5,3.1-7.9,3.5c-5.2,0.8-10.8-1.7-15.8,1.8l-5.5-1.8
			c-0.8-1.8-2.5-2.6-4.1-3.4c-0.3-0.7,0-1.5,0.6-1.9l9,1.8c4.9,3.3,9.8-1.7,14.7,0c0.8,1.2,2.2,1.9,3.7,1.7L63.9,227.5z"/>
		<path id="Trazado_18421" class="st0" d="M49.8,234.7c4.2,0.2,8.5-1.6,12.7-0.1c2,0.1,4.2-0.2,5.5,1.9c-3.8,0.2-7.7-0.4-11.4,1
			C53.7,238.6,50.7,239.1,49.8,234.7z"/>
		<path id="Trazado_18422" class="st0" d="M62.5,232.8c-0.1-1.9,1.3-3.6,3.3-3.7c0.1,0,0.3,0,0.4,0c1.6,0.4,4.8,0,4.1,1.8
			C69,234.4,65.2,232.3,62.5,232.8z"/>
		<path id="Trazado_18423" class="st0" d="M62.4,223.7c3.7,0.5,7.7-1.4,10.9,1.8C69.6,225,65.6,226.9,62.4,223.7z"/>
		<path id="Trazado_18424" class="st0" d="M223.4,223.7l10.9-0.2c5.8-1.6,11.6-0.5,17.4-0.6c0.9,0.2,1.4,1.2,1.1,2
			c-0.1,0.2-0.1,0.4-0.2,0.5l-5.6,0.2c-7.9-0.1-15.7-0.1-23.6-0.2c-0.7-0.4-0.9-0.8-0.7-1.1C222.9,223.9,223.2,223.8,223.4,223.7z"
			/>
		<path id="Trazado_18425" class="st0" d="M223.4,223.7c0,0.6,0,1.2,0,1.7c-0.6,0-1.2,0.1-1.8,0.1c-3.1-0.5-6.6,1.1-9.1-1.8
			L223.4,223.7z"/>
		<path id="Trazado_18426" class="st0" d="M252.6,225.5c0-0.6,0-1.1,0-1.7c4.1-1.6,8.6-1.7,12.7-0.1l-3.7,1.9L252.6,225.5z"/>
		<path id="Trazado_18427" class="st0" d="M265.4,223.7l-12.7,0.1l-18.3-0.2c13.3-1.8,26.7-4,40.2-1.8
			C271.5,222.5,267.9,220.8,265.4,223.7z"/>
		<path id="Trazado_18428" class="st0" d="M91.9,208.8H112c3.4,2.4,7.6-0.5,11,1.8c14.7,0,29.4-1.2,43.8-3.6
			c8.8-4.6,18.6-2.9,28-4.3c6.2-0.9,12.6-0.1,18.9-0.2c12.9-1.1,25.9,1.7,38.7-1.4c4.8,1.4,10.1-1.2,14.7,1.7
			c1.6,4.8-2.3,5.9-5.2,7.7c-1.4,0.5-2.9,0.9-4.4,0.9c-8.4,0-16.8,0.5-25.2-0.3c-0.5-0.1-0.9-0.2-1.4-0.4c-2.9,0.3-6.5-1.1-7.4,3.5
			c-6.7-0.1-13.3,1.1-20,0.2c-6.1,0.8-12.5-1.9-18.3,1.8c-4.1,2-8.6,2.8-13.1,2.3c-2.3-0.3-5.3-0.6-4.9-3.9c0.3-2.5,2.7-2.9,4.9-2.9
			c4.2,0.2,8.4-0.1,12.6-0.9c1.2-0.2-0.6-1.8,0.1-0.7c0.1,0.2-0.1,0.4-0.7,0.4c-11.8,0.4-23.3,5.8-35.3,2.1l-10.9,0
			c-8.4,2.5-17.2-0.7-25.6,1.8h-7.3c-2.1-2.3-5.2-1.3-7.6-2.1C95.2,211.5,91.6,212.9,91.9,208.8z"/>
		<path id="Trazado_18429" class="st0" d="M165.6,212.2c13.1-3.5,26.7,0,42-4.8c-7.8,7.3-15.9,2.7-22.6,6.5c5.7,5,12-1.5,17.1,1.9
			l5.5,1.8c-2.5,5.2-7.4,3.8-11.3,3.3c-3.5-0.4-7.1-0.3-10.6,0.3h-1.8c-2.9-3-6.6-1.8-9.9-1.7c-3.2,0.1-6.3-1.2-8.3-3.8
			C165.9,214.7,167.5,213.4,165.6,212.2z"/>
		<path id="Trazado_18430" class="st0" d="M183.1,221.1c3.4-3.6,7.6-2,11.7-1.9c3.4,0.1,7.2,1.3,10.2-1.7c4.3,0.1,8.8-0.7,12.8,1.8
			c-0.9,1.7-2.3,3.8-4,3.2C203.7,219.3,193.1,225.4,183.1,221.1z"/>
		<path id="Trazado_18431" class="st0" d="M263.5,212.6c0,1.2,0,2.4,0,3.6c-6.8,0-13.9,3.9-20.1-1.9c2.1-2.9,2.1-2.9,11.6-3.8
			c1.1-0.5,2.1-1,3.1-1.6l3.5-0.1c1.5-1.1,3.5-1.2,5.2-0.5C268.8,212.1,264.8,211.3,263.5,212.6z"/>
		<path id="Trazado_18432" class="st0" d="M213.8,214.3c6.7-0.7,13.3-3.9,20-0.2c1,1.1,0.5,2.9-0.4,2.7
			C226.9,215.6,219.9,217.8,213.8,214.3z"/>
		<path id="Trazado_18433" class="st0" d="M241.6,214.3c-3.9,2.6-7.9,1.9-11.7,0c-3.1-1.6,0.8-2.4,0.8-3.6l0,0
			c2.1-1.6,4.5-0.7,6.8-0.8C239.4,210.8,242.4,210.8,241.6,214.3z"/>
		<path id="Trazado_18434" class="st0" d="M241.6,214.4l-3.6-3.6c5.9-1.7,12.2-1.7,18.1,0c-0.5,3.4-2.5,3.8-5.3,2.7
			c-2.6-1-5.2-1.8-7.5,0.8L241.6,214.4z"/>
		<path id="Trazado_18435" class="st0" d="M252.4,65.3l3.8-1.9c3.7-0.6,7.8,1.3,11-1.8c0.6,0,1.1,0,1.7-0.1l7.3,3.6
			c-3.6,4.1-8.9,1.7-13.1,3.4c-4.7,1.1-8.5,6.6-14.1,2.9c-0.9-0.8-1.4-2.1-1.2-3.3C248.4,65.6,251.4,67.1,252.4,65.3z"/>
		<path id="Trazado_18436" class="st0" d="M280,65.2l3.8,2.9l-3.9,0.9c-6,4-11.9,4.1-17.6-0.7c-0.2-0.4-0.4-0.8-0.6-1.2
			c4.5-3.5,9.7-1.1,14.5-1.8C277.5,67,278.8,65.4,280,65.2z"/>
		<path id="Trazado_18437" class="st0" d="M226.1,59.7c-1,3.8-5.3,3-7.4,5.3c-0.5,0.7-1.3,1.2-2.1,1.5c-1.8,0.3-3.6-0.4-4.7-1.9
			c-0.1-0.4-0.3-0.8-0.4-1.3C215.2,57.4,221.2,60.6,226.1,59.7z"/>
		<path id="Trazado_18438" class="st0" d="M192.8,65.2c2.5-3.4,6.2-1.2,9.3-2.1c1.8-1.4,3.5-1,5.3,0l2,0.3c0.5,1.7-0.4,2.5-1.7,3.3
			c-0.9,0.4-1.8,0.7-2.7,0.8c-0.9,0.1-1.9,0.2-2.8,0.2C198.9,67.6,195.4,68.2,192.8,65.2z"/>
		<path id="Trazado_18439" class="st0" d="M206.2,65.2l1.8-1.8c1.8-2.1,3.7,0.4,5.5,0l0.2,0c1.1,2.5,0.2,4.3-2.2,4.8
			C209,68.8,206.5,68.8,206.2,65.2z"/>
		<path id="Trazado_18440" class="st0" d="M207.3,63.1l-5.3,0c-0.4-1.2-1.8-2.4,0.1-3.5C204.4,59.6,206.4,61,207.3,63.1z"/>
		<path id="Trazado_18441" class="st0" d="M190.7,61.6l0.1,3.7c-0.2,2.7,5.9,2.4,3,6.4c-2.5,1.6-5.2,1.5-8,1c-1.4-0.2-2.7-0.8-4.1-1
			c-3.2-0.6-7-0.1-8.3-4.3c2-5.8,7.2-5.1,11.8-5.8C187.1,61.7,188.9,60.8,190.7,61.6z"/>
		<path id="Trazado_18442" class="st0" d="M193.5,65.2l11.2,0.2c2.1,3.8-1.8,4.8-3.2,7c-0.7,0.5-1.4,0.8-2.3,0.8
			c-1.6-0.2-3.1-1-4.1-2.3c-0.1-2.5-4.4-2.6-3.3-5.8C192.4,65.2,192.9,65.2,193.5,65.2z"/>
		<path id="Trazado_18443" class="st0" d="M193,65.2c-1.3,3.6,9.5-1.2,3.7,5.4c-1.1,1-2.7,1-3.8,0c1.2-3.3-9.4,1-3.5-5.4L193,65.2z"
			/>
		<path id="Trazado_18444" class="st0" d="M190.9,61.6l-3.5,1.8c-2.6-2.5-6.8,1-9.2-2.3c0-0.5,0-0.9-0.1-1.4l12.7-0.1
			C192,60.2,192.1,60.9,190.9,61.6z"/>
		<path id="Trazado_18445" class="st0" d="M216.1,65.2l1.8-1.8c0.6,0,1.3,0,1.9,0c3.3,2.3,7.5-0.5,10.8,1.8l1.9,0
			c0.4,0.8,0.4,1.8,0,2.6c-3.2,4.2-7.3,3.1-11.4,1.9c-1.9-0.2-3.6-0.9-5-2.1C215.4,66.9,215.4,65.9,216.1,65.2z"/>
		<path id="Trazado_18446" class="st0" d="M232.5,67c0-0.6,0-1.2,0-1.8c4.3-0.6,8.9,1.4,12.9-1.8l7.1,1.8c0.3,3.3-1.9,2.3-3.6,2
			c-1.5,1.3-3.3,2.1-5.3,2.2c-3.4,0-6.9,0.5-10-1.3C233.2,67.8,232.8,67.4,232.5,67z"/>
		<path id="Trazado_18447" class="st0" d="M230.6,65.2c-3.6-0.6-7.6,1.5-10.8-1.8C223.4,63.9,227.5,62,230.6,65.2z"/>
		<path id="Trazado_18448" class="st0" d="M227.5,65.2c0,0.6-0.1,1.1-0.1,1.7c-4.1,2.9-8.1,4.8-10.8-1.7c0.6,0,1.2-0.1,1.7-0.2
			L227.5,65.2z"/>
		<path id="Trazado_18449" class="st0" d="M71.2,65.3L63.8,67c-0.1-1.5,0.6-2.9,1.9-3.7c3.7,0.5,7.7-1,11.1,1.6
			C75,66.8,73.1,66.7,71.2,65.3z"/>
		<path id="Trazado_18450" class="st0" d="M94.7,63.3l3.4-0.1c2.3-0.2,2.7,1,2.1,2.9c-5.5,5.5-11.7,4-18,1.9
			C81,67,80.7,65.3,81.6,64c0.1-0.1,0.2-0.2,0.3-0.3l-0.2-0.4c2.2,0.1,4.4,0.4,6.1-1.6L94.7,63.3z"/>
		<path id="Trazado_18451" class="st0" d="M70.3,65.3l5.5-0.3c1.2,0.1,2.3,0.1,3.5,0.2c1.9-0.7,2.4,0.6,2.8,2.1
			c-0.1,2-1.2,3.8-3,4.7c-2.3,1.1-5,0.7-6.9-1.1c-1.3-0.2-2.7-0.3-4-0.5c0.1-0.4,0.2-0.9,0.1-1.4L70.3,65.3z"/>
		<path id="Trazado_18452" class="st0" d="M80.1,67.4l-2.2-2.2c1.5-1.9,3.5-1.7,5.6-1.5c-0.1,1.1-0.1,2.2-0.2,3.3
			c-0.3,0.5-0.9,0.9-1.5,1.1C81.2,68,80.6,67.8,80.1,67.4z"/>
		<path id="Trazado_18453" class="st0" d="M180,61c3,0.9,6.8-1,9.2,2.3c-4.6,0.2-9.2,0.4-12.9,3.9c-0.8,0.9-2,1.5-3.3,1.6
			c-4.4-0.6-8.8-0.9-13.2-0.7c-1.7-0.4-3.1-1.4-4-2.8c-0.3-4.3,4.3-3.2,5.9-5.4l-0.2-0.5c1.7,1.1,3.5,2.2,5.7,1.6L180,61z"/>
		<path id="Trazado_18454" class="st0" d="M165.1,59.9c0,3.7-4.1,3-5.6,5.1c-1.1,1.5-3.2,2-4.9,1.1c-1.9-0.9-0.9-3.4-2.3-4.6
			c0-0.7,0-1.3,0-1.9L165.1,59.9z"/>
		<path id="Trazado_18455" class="st0" d="M127.9,61.2l-8.7,0C121.6,59,125.4,59,127.9,61.2z"/>
		<path id="Trazado_18456" class="st0" d="M97.1,64.9l-2.1-1.8c1.3-2.7,4.2,0.5,5.6-1.6l5.7,0.2c3.8,3.2,8.4,0.9,12.5,1.6
			c0,0.5,0,1-0.1,1.5C111.5,69.4,104.3,69.4,97.1,64.9z"/>
		<path id="Trazado_18457" class="st0" d="M122.6,66.9l29.2-1.6c1.1,0.7,2.6,1.1,2.6,2.8c-0.2,0.9-0.9,1.7-1.7,2.1
			c-7.5,2.8-15.6,0.1-23.2,2.5c-4.2,0.6-8.5,0.7-12.8,0.2c-2.9-1.1-7.1-0.2-7.6-4.9c0.2-1,0.9-1.7,1.9-1.9
			C114.9,66.4,118.9,65.4,122.6,66.9z"/>
		<path id="Trazado_18458" class="st0" d="M129.1,66.9l-12.3,0.4c-2.6,2.4-6.2,2.2-9.3,3.5c-1,0.3-2,0.5-3,0.6
			c-6.3,0.3-12.6,0.3-18.9,0.1c-3.2-0.1-6.9,0.2-7.8-4.3l2.3-0.1c6.2-0.3,12.6,1.6,18.4-2l21.6,0C123,65.7,126.6,63.8,129.1,66.9z"
			/>
		<path id="Trazado_18459" class="st0" d="M150,67.2l-2.1-1.9l2-0.1c1.9,0.1,3.5-1.3,3.7-3.2c0-0.1,0-0.3,0-0.4
			c1.2,0.8,1.9,2.2,1.8,3.7c0.6,0.7,0.6,1.8-0.1,2.4c0,0-0.1,0.1-0.1,0.1C153.6,68.7,151.5,68.5,150,67.2z"/>
		<path id="Trazado_18460" class="st0" d="M42.2,154.6c0-0.6,0-1.2,0-1.8c3.1-3.4,7.2-2.4,11-2.6c6.9-0.4,13.9,0.9,20.7-1.4
			c24.6-1.1,49.2-0.2,73.7-0.5c5.2,1.4,12.1-3.2,15.4,4.6c-3.1,3.3-7.2,2.5-11,2.6c-14.1,0.4-28.2-0.6-42.3,0.6
			c-8,1.4-16.3,0.3-24.2,2.6c-3.7,0.3-7.4,1.1-10.4-2.2C64.3,152.5,53.2,155.6,42.2,154.6z"/>
		<path id="Trazado_18461" class="st0" d="M81.1,156l11,0c5.6-1.9,11.3-0.3,17-1c1.2-0.1,2.5,0.1,2.9,1.5c0.6,2-1.2,2.5-2.4,3.1
			c-2.5,1.3-5.3,1-8,1c-9.3,0-18.5,2-27.8,1.8c-6.1,0-12.3,0-18.4,0c-4.8,0-9.5,0.2-14.3-0.2c-3-0.2-6.9,0.5-7.5-4.3
			C49.3,155.4,65.2,156.2,81.1,156z"/>
		<path id="Trazado_18462" class="st0" d="M48.4,157.7c7,3.8,14.6,0.9,21.9,1.9c-0.6,4.9-4.6,4-7.6,4.3c-4.2,0.4-8.5-0.2-12.6,1.4
			c-4.4,0.5-8.8,0.7-13.2,0.5c-5.8,0-11.6,0.2-17.3-0.1c-3.1-0.2-7.1,0.6-7.7-4.3C24.2,160.9,36.1,157.3,48.4,157.7z"/>
		<path id="Trazado_18463" class="st0" d="M11.9,161.2c8.3,3.8,17.1,0.9,25.6,1.9c0.6,0.8,0.5,1.9-0.2,2.5c-2.6,1.6-5.6,1-8.3,2
			c-3.5,0.1-6.9,0-10.4,0c-4-0.4-8.2,1-12.1-0.9l-1.8,0c-3.2-3.2-7.3-1.3-11-1.8C-0.7,161.4,5.5,161,11.9,161.2z"/>
		<path id="Trazado_18464" class="st0" d="M79.3,151.2c-10.2,3.9-20.7,0.8-31.1,1.8l-3.6-1.7c1.3-1.6,3.3-2.6,5.5-2.6
			c2.1-0.1,4.2-0.1,6.2-0.2c7.3,0.6,14.8-1.4,21.9,1.5C78.6,150.4,78.9,150.8,79.3,151.2z"/>
		<path id="Trazado_18465" class="st0" d="M25.5,152.9c5.2-3.5,11-1.1,16.4-1.8C36.8,154.6,31,152.2,25.5,152.9z"/>
		<path id="Trazado_18466" class="st0" d="M52.1,151.1l-5.4,0.2c-2.4,0-4.9-0.1-7.3-0.1c1.3-2,3.4-1.8,5.5-1.9
			c1.3-1.4,3.4-2,5.2-1.4C51.4,148.6,52.5,149.4,52.1,151.1z"/>
		<path id="Trazado_18467" class="st0" d="M-1.3,141.3l-7.3,0c0-0.6,0-1.2,0-1.8c6.9-4.4,14.9-3.5,22.5-4.3
			c4.8-0.5,9.6-0.3,14.3-1.7c20.2-1.8,40.5-2.5,60.7-2.1c2.7,0.1,5.5-0.3,8.1-1.2c4-0.8,8-0.5,12-0.6c21,0,42,0,63.1,0
			c21.6,0,43.3,0,64.9,0c4.6,0.4,9.5-1,13.6,2.2c0.7,1,0.5,2.4-0.4,3.1c-3.5,2.5-7.6,1.8-11.5,1.8c-17.3,0.1-34.6,0-51.8,0
			c-3.6,0-7.3-0.1-10.8,1.2c-9.4,1.1-18.8,0.5-28.2,0.5c-7.6-0.2-15.1,0.4-22.6,1.8c-3.4,0.1-6.8,0.1-10.1,0.1
			c-11.1,0-22.2,0-33.3,0c-5.8,0.2-11.7-0.8-17.4,1.1c-3.7,0.9-7.4,0.6-11.1,0.7c-4.3,0-8.5,0-12.8,0c-8,0.4-16.1-1.1-24,1.4
			C10.5,143.4,4.2,145.7-1.3,141.3z"/>
		<path id="Trazado_18468" class="st0" d="M86.8,135.8c-12,2.4-24.3,3.6-36.5,3.7l-33.7,0c4.8-3.6,10.1,0.2,13.6-3.6
			c2.6-3.1,6.6-2.6,9.9-4c8.2-0.6,16.3-0.7,24.5-0.2c4.3,1,8.6,2.7,13,0.5c1.2-0.7,2.5-1,3.9-1C83.9,131.9,87.2,131.8,86.8,135.8z"
			/>
		<path id="Trazado_18469" class="st0" d="M39.3,134.1c-2.6,2.9-6,1.4-9.1,1.9l-14.6,0c0-0.6,0-1.2,0-1.8c7.2-4.9,15.2-2,22.8-2.5
			c0.9,0.2,1.4,1.1,1.1,2C39.5,133.8,39.4,134,39.3,134.1z"/>
		<path id="Trazado_18470" class="st0" d="M39.3,132.7c-7.7,3.4-15.8,1.1-23.7,1.8c-4.9-0.8-10.1,1.6-14.6-1.8
			c1.9-2.6,4.8-2.6,7.6-2.7c15.2-0.7,30.1-4.4,45.4-3.7c6.5,0,13,0,19.6,0c7.4-0.4,14.9,1.1,22.2-1.2c5.3-0.8,10.8-0.8,16.2,0
			c1.1,0.4,2,1,2.7,1.9c0.3,1.1,0,2.3-0.9,3c-8,3.4-16.9,4.4-25.5,3c-5-0.9-10.1-0.5-14.8,1.3C62,132.5,50.6,134.6,39.3,132.7z"/>
		<path id="Trazado_18471" class="st0" d="M8.2,132.4L1,132.6c-6.1,1.2-12.2,2.4-18.2,3.6c-2-0.1-4.1,0.2-5.4-1.8
			c5.8,0.1,11.4-0.7,16.5-3.6c4-3.4,8.7-3.8,13.6-3.1c0.9,0.4,1.5,1.2,1.8,2.2C9.2,130.7,8.9,131.7,8.2,132.4z"/>
		<path id="Trazado_18472" class="st0" d="M8.2,132.9c0-0.6,0.1-1.2,0.1-1.8c2.8-2.1,6.7,0.4,9.2-2.4c3.3-0.1,6.6-0.8,9.7-2.1
			c4.4-0.3,8.8-0.9,13.1-1.9c4.2,0.3,8.2-1,12.3-1.2c16-1.6,32.2-2.1,48.2-4.1c2.7,0.3,5.5,0.4,6.5,3.8c-3.5,4.3-8.9,2.4-13.2,3.9
			c-6.7,1.1-13.4,1.4-20.1,1.1c-6.7,0.5-13.4-1-20,0.9C38.5,128.4,23.5,132.6,8.2,132.9z"/>
		<path id="Trazado_18473" class="st0" d="M123.2,125.6c-5.4,4.2-11.6,1.1-17.5,1.7c-5.1,0.6-10.3,0.1-15.4,0.1l-1.8,0
			c-1.7-1.3-3.5-2.5-1-4.8c2.4-1.2,5.1-1.6,7.7-1c5.9,2,11.9,1,17.9,1.3C116.6,123.1,120.4,122.5,123.2,125.6z"/>
		<path id="Trazado_18474" class="st0" d="M57.3,127.2c6.8,0.3,13.5-0.3,20.1-1.8c0.5,0.7,1.8,0.7,1.8,1.8
			c-7.1,3.8-14.6,0.9-21.9,1.8c-0.6-0.4-0.8-0.8-0.6-1.2C56.9,127.4,57.1,127.2,57.3,127.2z"/>
		<path id="Trazado_18475" class="st0" d="M76,127.4l-1.8-1.8l12.8-1.8c0.9-1,2.5-1.1,3.5-0.1c0.1,0,0.1,0.1,0.1,0.1l1.8,3.6
			L76,127.4z"/>
		<path id="Trazado_18476" class="st0" d="M60.7,127.2c0,0.6,0,1.2,0,1.8H40.6C47,125.2,54,128.1,60.7,127.2z"/>
		<path id="Trazado_18477" class="st0" d="M17.4,128.9c-2.6,2.8-6.1,1.5-9.2,1.8c0-0.6,0-1.1,0-1.7l7.3-0.1c0.3-0.5,1-0.7,1.5-0.4
			C17.2,128.6,17.4,128.7,17.4,128.9z"/>
		<path id="Trazado_18478" class="st0" d="M39.3,125.5c-3.9,3.3-8.5,1.2-12.8,1.9c-1.1,1-2.8,1-3.8-0.1l0,0c0-0.6,0.1-1.2,0.1-1.8
			l16.4-1.8c0.7,0.4,0.9,0.8,0.7,1.2C39.8,125.3,39.5,125.5,39.3,125.5z"/>
		<path id="Trazado_18479" class="st0" d="M22.8,127.1l3.8,0.1c-2.6,2.9-6,1.5-9.1,1.8l-1.9-0.1C17.5,126.4,20.3,127.3,22.8,127.1z"
			/>
		<path id="Trazado_18480" class="st0" d="M49,144.3c5.1-3.5,11-1,16.4-1.9c5.6-1.7,11.3-0.4,16.9-0.8c1,0,2.1,0.1,3,0.4
			c0.6,0.9,0.5,2-0.2,2.8c-6.2,2.9-12.9,0.2-19.1,1.8c-1.4,0.4-2.9,0.5-4.3,0.1C57.6,145.1,53,145.9,49,144.3z"/>
		<path id="Trazado_18481" class="st0" d="M81.7,142.6l-18.3,0c0-0.6,0-1.1,0-1.7l18.2-0.1v0c0.6,0.4,0.9,0.8,0.6,1.2
			C82.1,142.4,81.9,142.6,81.7,142.6z"/>
		<path id="Trazado_18482" class="st0" d="M50.7,144.2c4.2,0.6,8.8-1.5,12.8,1.7c-1.5,1.4-3.8,1.5-5.4,0.2L45.3,146
			c0-0.6,0-1.2,0-1.8L50.7,144.2z"/>
		<path id="Trazado_18483" class="st0" d="M55.5,146.1l5.4-0.2l3.6,0.1c5.8-1.8,11.6-0.5,17.4-0.7c0.8,0.2,1.3,1.1,1.1,2
			c-0.1,0.2-0.2,0.4-0.3,0.6l-27.4,0C55.4,147.2,55.5,146.6,55.5,146.1z"/>
		<path id="Trazado_18484" class="st0" d="M72.5,115.3c4.2-3.5,9.1-1.2,13.6-1.8c3.4-0.5,7.2,1.1,10.1-1.8l1.8,0
			c9.9-1.2,20-1.6,30-1.2c1,0.4,1.7,1.5,1.6,2.6c-4.4,5.3-11.1,1.5-16.2,4.1c-3.4,0.8-7,0.7-10.4,2.1c-4.5,0.7-9,0.4-13.6,0.6
			c-4.6-0.6-8.8,1.7-13.2,1.7c-5.4,0.3-10.9-0.6-16.2,0.9c-2.9,0.7-5.9,1-9,1c-1.5,0-3,0-4.6,0c-3.1,0-6.2-0.2-8.6-2.6H25
			c10.7-3.4,21.8-3.8,32.9-3.7C62.5,114.7,67.9,117.8,72.5,115.3z"/>
		<path id="Trazado_18485" class="st0" d="M48.8,120.3l3.5,0.1c0.7,0.7,0.9,1.8,0.5,2.7c-3.9,3.3-8.5,0.9-12.6,1.6
			c-1.5-0.2-2.9-0.5-2.4-2.6c0.6-0.1,1.1-0.1,1.7-0.2C42.4,120,46,122.4,48.8,120.3z"/>
		<path id="Trazado_18486" class="st0" d="M39.7,122.1l1.8,1.7c0.6,0.4,0.8,0.8,0.5,1.2c-0.2,0.3-0.5,0.5-0.7,0.5l-12.7,0.1
			c0-0.6,0-1.2,0-1.8L39.7,122.1z"/>
		<path id="Trazado_18487" class="st0" d="M48.8,120.4c-2.7,2.8-6.1,1.5-9.3,1.7c0-0.6,0-1.2,0-1.7L48.8,120.4z"/>
		<path id="Trazado_18488" class="st0" d="M30.2,120.3h9.1C36.3,123,33.2,123,30.2,120.3z"/>
		<path id="Trazado_18489" class="st0" d="M73.4,89.1c-0.6,0-1.1-0.1-1.7-0.1c0-0.6,0-1.2,0-1.8h7.6C77.4,89.9,75.1,88.4,73.4,89.1z
			"/>
		<path id="Trazado_18490" class="st0" d="M41.1,83.5c2-0.1,4.1,0.2,5.5-1.8l1.9,1.8c-2,2.5-4.8,1.6-7.4,1.8
			C41.1,84.7,41.1,84.1,41.1,83.5z"/>
		<path id="Trazado_18491" class="st0" d="M70,78l5.5-0.1c0.8-0.6,1.9-0.7,2.7-0.1c2,1.9,3,3.8,0.8,6.2c-2.4,0.3-4.8,0.8-7-0.4
			l-0.1-0.2C71.2,81.6,70.6,79.8,70,78z"/>
		<path id="Trazado_18492" class="st0" d="M91.4,74.3c8.4-2.8,17.1-1.7,25.7-1.5c0.9,0.9,1.4,2.1,1.3,3.4c-0.2,1.7-1.2,3.2-2.7,4.1
			c-0.8,0.3-1.7,0.2-2.3-0.4l-1.9-0.2c-4.6-1.3-9-2-12.9,1.8c-4.1,2.2-9.3-4.4-12.8,1.8c-0.5,0.7-1.5,0.8-2.2,0.3
			c-0.1-0.1-0.1-0.1-0.2-0.2c-2-2.7-3.4-5.6-1.2-8.9C85.2,74.2,88.4,76.7,91.4,74.3z"/>
		<path id="Trazado_18493" class="st0" d="M85.3,74.5l1.8,8.7c-1.2,1.7-3,0.9-4.6,1.1c-0.8,0-1.6-0.1-2.4-0.3
			c-2.1-1.5,0.1-5.8-3.9-6.2l-1.8,0c0-0.6,0-1.1,0-1.7c0-0.6,0.1-1.2,0.3-1.7L85.3,74.5z"/>
		<path id="Trazado_18494" class="st0" d="M254.4,99.8l21.9,0c-4.2,7.1-11.4,3.5-16.9,3.8c-3.7,0.2-9.6,1.8-12.3-3.8L254.4,99.8z"/>
		<path id="Trazado_18495" class="st0" d="M171.6,106.5l29.2,0l3.6,0c0.3,2.1-1.1,2.8-2.7,3.4c-9.6,1.2-19.3,0.5-28.9,2
			c-8.2-0.2-16.4,1-24.5,1c-9.4-1.2-18.5,3.8-27.9,0.9c-5.5-5.7,0.8-3.8,2.9-4.5c0.3-0.1,0.6,0.1,0.9,0c1.8-0.6-0.4-0.6-0.1-0.9
			c6.8-3.7,14.2-1.4,21.2-1.7C154.1,106.2,162.9,106.6,171.6,106.5z"/>
		<path id="Trazado_18496" class="st0" d="M193.7,108.4l1.8-1.8l32.2,0c0.1,0.6,0.1,1.2,0.2,1.8h-8.6l-3.7,0
			c-4.6,1.5-9.6,1.1-14.3,2.4c-2.4,0.5-4.9,0.5-7.3,0.1c-0.8-0.4-1-1.4-0.6-2.2C193.6,108.6,193.6,108.5,193.7,108.4z"/>
		<path id="Trazado_18497" class="st0" d="M135.9,108.3h6.4c-4.4,3.3-9,0.2-11.8,3.5c-4.2,3.7-8.4,3.4-12.7,0.2l-31.1,0
			c6.1-4.7,14,1,20.1-3.6L135.9,108.3z"/>
		<path id="Trazado_18498" class="st0" d="M228.1,87.9c-0.6,1.8-1.2,3.7-1.8,5.5l-3.7,0c-3.9-1.5-8.1-1.2-12.1-1.8
			c-4.1-0.6-9.1,1.8-11.6-3.6c3-2.9,6.6-2.2,9.9-1.2c2.7,1.1,5.8,0.8,8.4-0.7c0.4-0.1,0.8-0.1,1.1-0.2c2.7-0.4,5.4-0.2,8,0.6
			C227,86.8,227.6,87.3,228.1,87.9z"/>
		<path id="Trazado_18499" class="st0" d="M212.7,89.6c3.6,1.2,7.8,1,11,3.6l-31,0c0-4.1,3.3-2.3,5.2-2.7
			C202.7,89.5,207.8,91.7,212.7,89.6z"/>
		<path id="Trazado_18500" class="st0" d="M214.4,89.7c-6.1,4.7-14-1.1-20.1,3.6h-1.8c-0.8-1.2-2.2-1.9-3.6-1.8
			c3.5-4,9.3,0.4,12.8-3.7C205.6,90.3,210,89.5,214.4,89.7z"/>
		<path id="Trazado_18501" class="st0" d="M135,83.5l-7.3-0.1l-5.7,0.2c-1.9,2.8-4,3.9-6.4,0.5c-0.2-0.9-0.3-1.8-0.1-2.7
			c1.3-3.6,4.7-3.8,7.6-4.6c0.8-0.2,1.7-0.3,2.6-0.3c3.7,0.4,8-1,10.3,3.5C136.4,81.3,136,82.6,135,83.5z"/>
		<path id="Trazado_18502" class="st0" d="M97.3,81.5c2.2-6.8,7.2-7.5,12.9-1.8C106.1,82.3,101.6,81.5,97.3,81.5z"/>
		<path id="Trazado_18503" class="st0" d="M118.8,83.5c1.7,2.8,3.5,0.7,5.3,0.1c-4.8,7.6-11.5,0.6-17,2.3c-0.3-2.2,1.4-2.1,2.7-2.6
			C112.8,81,115.8,80.9,118.8,83.5z"/>
		<path id="Trazado_18504" class="st0" d="M118.9,83.5l-9-0.2c0-1.1,0-2.3,0-3.4c0.6,0,1.2-0.1,1.8-0.1c3.1-2,5.5-1.7,7.3,1.8
			C118.9,82.2,118.9,82.8,118.9,83.5z"/>
		<path id="Trazado_18505" class="st0" d="M92.2,87.3c-1.9-0.3-4.1,0.2-5.4-1.7c2.2-1.9,4.6-1.3,7-0.4l5.6,0.3
			c0.7,0.3,0.9,0.7,0.7,1.1c-0.2,0.4-0.4,0.5-0.7,0.5C97,87.3,94.6,88.9,92.2,87.3z"/>
		<path id="Trazado_18506" class="st0" d="M95,85.1c-2.3,0.2-4.7,0.3-7,0.4l-7.4-0.3c-0.7-0.4-0.9-0.7-0.7-1.1
			c0.2-0.4,0.4-0.5,0.7-0.5c1.8-0.1,3.6-0.3,5.3-0.4c0.6,0.1,1.2,0.2,1.8,0.1C90.2,83.7,93,82.7,95,85.1z"/>
		<path id="Trazado_18507" class="st0" d="M97.8,87c0-0.5,0-1.1,0-1.6c1.8-0.8,3.4-2.3,5.7-1.3C103.1,88.3,100,86.7,97.8,87z"/>
		<path id="Trazado_18508" class="st0" d="M188.8,85.3c0-0.6,0-1.2,0-1.8c-1.5-1.8-4.2-3.7,0.2-5.3c4.1,0.1,8.2-1.1,12.2,0.7
			c1.6,1.2,2.2,3.2,1.8,5.2c-0.5,1.5-1.8,2.2-3,2.9c-3.1-1.7-6.2,0.6-9.3,0.1C189.6,87,188.9,86.2,188.8,85.3z"/>
		<path id="Trazado_18509" class="st0" d="M191.2,85.3l1.8,1.8c0,0.6,0,1.2,0,1.8c-7.3-1-15.3,2.3-21.9-3.4
			C177.7,83.3,184.5,89.5,191.2,85.3z"/>
		<path id="Trazado_18510" class="st0" d="M227.6,90.7h-0.9h-0.9c-2.7-2.2-6.4,0.3-9.1-1.8l0,0l-3.7-1.9c-0.6-0.8-0.4-1.8,0.3-2.4
			c0,0,0,0,0.1,0c1.7-1,3.8-0.8,5.2,0.7C221.7,86.8,227.9,83.4,227.6,90.7z"/>
		<path id="Trazado_18511" class="st0" d="M215.5,85.3c0,0.6,0,1.2,0,1.8c-6,0-12.1,0-18.1-0.1l1.7-1.7
			C204.6,81.9,210.1,81.2,215.5,85.3z"/>
		<path id="Trazado_18512" class="st0" d="M161.7,81.8l-5.4-0.5c-0.5-0.7-0.6-1.6-0.2-2.3c0.6-1.1,1.7-1.9,2.9-2.3
			c4.5-0.7,9-1.1,13.5-1.1c0.8,0,1.7,0,2.5,0.2c2.1,0.4,4.1,0.8,6.1,1.4c1.7,0.2,3.3,0.8,4.8,1.6c1.4,1.2,2.5,2.5,1.7,4.5
			C178.8,83.6,170.4,80.3,161.7,81.8z"/>
		<path id="Trazado_18513" class="st0" d="M185.1,83.3l-1.8-3.4c0.5-0.7,1.3-1.1,2.1-1.3c1.3-0.2,2.6,0.4,3.3,1.5
			c0,1.5,3.6,1,1.8,3.4L185.1,83.3z"/>
		<path id="Trazado_18514" class="st0" d="M132.3,83.5c0-1.2,0-2.5,0-3.7c-0.4-1.9,0.8-2.5,2.4-2.8c4.1,0.7,9-1.1,12.2,3.1l-1.8,3
			l-5.3,0.7L132.3,83.5z"/>
		<path id="Trazado_18515" class="st0" d="M146.3,80.1c-4.1-1.4-8.9,1.8-12.6-2.1c0.8-1.1,2.1-1.9,3.5-2.1c1.9,0.1,3.7,0,5.5-0.3
			c2.3-0.3,4.7,0.2,6.7,1.4c0.7,0.5,0.9,1.4,0.5,2.2c-0.1,0.1-0.1,0.2-0.2,0.2L146.3,80.1z"/>
		<path id="Trazado_18516" class="st0" d="M160.3,79.8c0,0.5,0,1,0,1.5c-0.5,0.2-1.1,0.3-1.7,0.3c-3.1-0.5-6.5,1-9.2-1.7
			c1.8-2.4,4.3-2.6,7-2.4C158,77.8,159.4,78.6,160.3,79.8z"/>
		<path id="Trazado_18517" class="st0" d="M157,79.7l-7.1,0.3l-2.1-0.5c0-0.4,0-0.8,0-1.2c0.8-1.3,2.2-2.2,3.8-2.3
			C154.1,76.2,157.1,75.8,157,79.7z"/>
		<path id="Trazado_18518" class="st0" d="M82.5,83.6c0,0.6,0,1.1,0,1.6l-10.9-0.1c0-0.5,0-1,0-1.5c2.4-0.1,4.8-0.2,7.3-0.3
			c0.6-0.9,1.2-0.8,1.9,0L82.5,83.6z"/>
		<path id="Trazado_18519" class="st0" d="M70.7,115.2c-4.5,3.6-9.8,1.1-14.6,1.8c0-0.6,0-1.2,0-1.8L70.7,115.2z"/>
		<path id="Trazado_18520" class="st0" d="M2.7,225.4c0-0.5,0-1.1,0-1.6l9.1,0C9.2,226.7,5.8,225.2,2.7,225.4z"/>
		<path id="Trazado_18521" class="st0" d="M183.9,200.6h16.4C195.2,203.5,189,203.5,183.9,200.6z"/>
		<path id="Trazado_18522" class="st0" d="M227,195.6l-73.1,0H153h-0.9c-9.6,2.6-19.6-0.8-29.2,1.8c-0.6,0-1.2,0-1.8,0
			c-3.4-2.4-7.6,0.5-11-1.8c0-0.6,0-1.2,0-1.8c4.5-4.2,10.1-2.1,15.2-2.7c30.7,0,61.3,0,92,0c4.2,0,8.5-0.7,12.5,1.6
			c1.1,0.9,1.5,2,0.5,3C229.3,196.5,227.9,196.4,227,195.6z"/>
		<path id="Trazado_18523" class="st0" d="M154,194l-14.6,0c-10.4-0.6-20.9,1.4-31.1-1.8c-0.6-0.9-0.3-2.2,0.6-2.8
			c7.7-3.2,15.7-1,23.5-1.6c6.9-0.3,13.6,1.1,20.5,1.5c0.9,0.4,1.6,1.1,1.9,2.1C154.9,192.2,154.6,193.2,154,194z"/>
		<path id="Trazado_18524" class="st0" d="M116.2,190.4c0,0.6,0,1.2,0,1.8l-23.7,0c-6.1-0.8-12.5,1.9-18.3-1.8
			c1.6-1.3,3.9-1.3,5.5,0h1.8c4.5-3.4,9.8-2.5,14.9-2.6c1,0,2,0,3,0c3.4,0.1,6.8,0,10.2,0.1c1,0,1.9,0.1,2.9,0.3
			C114,188.4,115.3,189.2,116.2,190.4z"/>
		<path id="Trazado_18525" class="st0" d="M137.3,195.5c3.7,0.5,7.7-1.4,11,1.8h-12.8L137.3,195.5z"/>
		<path id="Trazado_18526" class="st0" d="M146,197.3c9.6-3.8,19.5-0.9,29.2-1.8C165.7,199.3,155.7,196.3,146,197.3z"/>
		<path id="Trazado_18527" class="st0" d="M98.1,190.6l-1.9,0c-4.4-3.2-10.3-0.1-14.6-3.6l-3.7,0c-0.6-0.6-1.7-0.8-1.8-1.9
			c2-2.5,4.8-1.6,7.4-1.7c5.4,2.8,10.8-1.2,16.2-0.3c4.3,1.6,8.8,1.1,13.3,1.2c4.6,0,9.3-0.1,13.9,0.1c2.1-0.1,4.2,0.7,5.9,2.1
			c0.6,0.9,0.4,2.1-0.3,2.9c-7.2,1.3-14.5-0.9-21.6,1.3H109C105.5,189.1,101.6,189.1,98.1,190.6z"/>
		<path id="Trazado_18528" class="st0" d="M52.6,185.3c7.8-1.9,16-1.9,23.8,0c0.6,0.4,0.8,0.8,0.6,1.2c-0.2,0.4-0.4,0.6-0.6,0.6
			l-23.8,0C52.6,186.5,52.6,185.9,52.6,185.3z"/>
		<path id="Trazado_18529" class="st0" d="M83.7,186.9c5.1,0.2,10.6-1.1,14.6,3.6l-16.4,0L83.7,186.9z"/>
		<path id="Trazado_18530" class="st0" d="M82.3,190.4l-5.5,0c-1.3,0.3-2.9,1.7-3.8-0.1c-0.9-1.7,0.9-1.8,2-1.7
			C77.5,188.7,80.3,187.9,82.3,190.4z"/>
		<path id="Trazado_18531" class="st0" d="M73.2,187c0-0.6,0-1.2,0-1.8l7.2-0.1c0.6,0.6,1.2,1.2,1.8,1.9L73.2,187z"/>
		<path id="Trazado_18532" class="st0" d="M60.6,181.9c-2.5-0.2-5.4,0.8-7.3-1.8c1.4-1.8,4-0.1,5.5-1.8h3.6l0,0
			c0.6,0.4,0.9,1.1,0.7,1.7C62.4,180.9,61.3,181.2,60.6,181.9z"/>
		<path id="Trazado_18533" class="st0" d="M59.6,178.4c-1.3,2-3.5,1.8-5.5,1.8l-5.5,0C51.8,177,55.9,178.9,59.6,178.4z"/>
		<path id="Trazado_18534" class="st0" d="M83.9,183.7c0-0.6,0-1.2,0-1.8c1.9-3.8,5.9-2.5,8.8-3.7c4.2-1.2,8.7,0,12.8-1.8
			c1-0.3,2-0.5,3-0.6c10.2-0.4,20.5-0.1,30.7-0.2c11.9,0,23.8,0,35.7,0c6.8,0.8,13.9-1.9,20.3,2.4c-0.4,5.4-4.7,4.5-7.9,4.6
			c-7.4,0.4-14.8,0.1-22.2,0.1c-3.8,0-7.7,0-11.5,0c-6.2,0.2-12.5-0.2-18.7,0.1c-3.4,1-6.8,1.5-10.3,1.6c-1.4,0-2.9,0.1-4.3,0
			c-8.4-0.1-16.8,1-25.2,0.8c-0.9,0.1-1.9,0-2.8-0.2C89.6,183.9,86.4,185.6,83.9,183.7z"/>
		<path id="Trazado_18535" class="st0" d="M58.1,181.9l1.8-1.8c9.9-2.8,19.9-2,29.9-1.4c1.5,0.6,3.4,0.8,3,3.2L58.1,181.9z"/>
		<path id="Trazado_18536" class="st0" d="M88.3,182l-1.8-1.9c-0.4-0.4-0.6-0.8-0.4-1.2s0.3-0.6,0.4-0.6l12.8,0
			c1-0.9,2.4-1.1,3.6-0.5c0.6,0.6,0.6,1.6,0,2.3c-3.2-0.3-6.4,0.3-9.2,1.9L88.3,182z"/>
		<path id="Trazado_18537" class="st0" d="M148.9,165l-9.2,0c-0.7-0.4-0.9-0.8-0.7-1.2s0.4-0.6,0.7-0.6l0-1.8
			c1.4-2.1,3.9-3.3,6.4-3.1c17.2,1.6,34.4-0.3,51.6,0.5c3.5,0.2,7.1-0.4,10.4,1.2c0.9,0.5,1.6,1.3,1.8,2.3c0.1,1-0.2,2-0.9,2.8
			l-14.6,0c-6.6-1.4-13.4-1.5-20,0l-16.5,0C155.1,163.5,151.7,163.5,148.9,165z"/>
		<path id="Trazado_18538" class="st0" d="M38.4,164.8c0-0.6,0-1.2,0-1.8l38.3,0h57.9c0,0.6,0,1.2,0,1.8L38.4,164.8z"/>
		<path id="Trazado_18539" class="st0" d="M211.9,154.4c0.6,0,1.2,0,1.8,0c1.6,0,3.1,0.9,3.9,2.2c0.4,2.2-1.3,2.7-2.8,3.4
			c-22.7-0.5-45.4,0.1-68.2-0.3c-4.4-1-9.1,0.4-13.3-1.7c0-0.6,0-1.2,0-1.8c18.3-2.1,36.8-0.3,55.1-0.9
			C196.3,155,204.2,156.4,211.9,154.4z"/>
		<path id="Trazado_18540" class="st0" d="M213,154.5c-2.7,2.9-6.3,1.8-9.5,1.8c-23,0.1-46,0.1-69.1,0.1l-3.7,0
			c-0.6-0.4-0.9-0.8-0.6-1.2c0.2-0.4,0.4-0.6,0.6-0.6l14.6,0L213,154.5z"/>
		<path id="Trazado_18541" class="st0" d="M148.8,163.1c0,0.6,0,1.2,0,1.8l-20.1,0.1C135.1,160.8,142.2,164.1,148.8,163.1z"/>
		<path id="Trazado_18542" class="st0" d="M141.8,157.8l12.8,0c0.4,1.6,0.1,2.6-1.8,1.8l-5.5,1.8c-1.9-2.5-4.8-1.6-7.3-1.9
			c-0.6-0.1-2.2,0.3-1.4-1.1C139,157.9,140.7,158,141.8,157.8z"/>
		<path id="Trazado_18543" class="st0" d="M94.9,175c-1.7-0.9-4.7,2-5.5-1.8c29.2-1.7,58.4,0.9,87.7,0c0.6,1,0.2,2.2-0.7,2.8
			c-0.1,0-0.1,0.1-0.2,0.1c-12,1.7-24,0.4-36,0.8c-12.3,0.3-24.6-0.7-36.9,0.7C100.3,177.8,97.2,177.5,94.9,175z"/>
		<path id="Trazado_18544" class="st0" d="M190.5,169.8l3.6-0.1c9.9-3,20.1-0.6,30.1-1.6c3.4-1,6.7-1.4,9.8,0.9
			c0.8,0.8,0.9,2.1,0.2,3c-6.3,4-13.3,2.2-20,2.5c-4.5,0.2-8.9,0.5-13.4,0.8c-2.9,0-5.4-0.9-6.6-3.8
			C192.7,171.7,191.3,171,190.5,169.8z"/>
		<path id="Trazado_18545" class="st0" d="M166.7,175c0-0.6,0-1.2,0-1.8l32.9,0c0.6,1,0.3,2.2-0.7,2.9c-0.9,0.6-2,1.1-3,1.3
			C186.2,176.2,176.2,178.5,166.7,175z"/>
		<path id="Trazado_18546" class="st0" d="M195.8,175c0-0.6,0-1.2,0-1.8c4.3-0.7,8.9,1.5,12.8-1.8l5.4,1.8
			C209.6,178.7,204.2,179.2,195.8,175z"/>
		<path id="Trazado_18547" class="st0" d="M234.4,163.1c-4.3,0.7-8.9-1.6-12.8,1.8h-31c0-0.6,0-1.2,0-1.8c4.6-4.1,10.1-2.2,15.3-2.7
			c4.6-0.1,9.1,0.5,13.6-1.2c1-0.3,2-0.4,3.1-0.5C226.7,159.6,232.3,156.5,234.4,163.1z"/>
		<path id="Trazado_18548" class="st0" d="M235.6,170l-31,0c0-0.6,0-1.2,0-1.8l9.1,0c3.4-2.3,7.6,0.6,11-1.8c3.3,2.3,7.7,2.3,10.9,0
			l0,0c0.6,0.4,0.9,1.1,1,1.8C236.5,168.9,236.1,169.5,235.6,170z"/>
		<path id="Trazado_18549" class="st0" d="M174.3,164.8c6.4-2.9,13.7-2.9,20,0L174.3,164.8z"/>
		<path id="Trazado_18550" class="st0" d="M226,166.4c-3.2,3.2-7.3,1.3-11,1.8C218.3,165.1,222.3,167,226,166.4z"/>
		<path id="Trazado_18551" class="st0" d="M154.1,164.8c3-2.6,6.1-2.6,9.1,0L154.1,164.8z"/>
		<path id="Trazado_18552" class="st0" d="M98.2,174.9l45.7,0c0.2,0.5,0.3,1,0.5,1.5c-0.6,0.9-1.6,1.3-2.7,1.2
			c-10.2,0.6-20.5-1.2-30.7,1l0,0c-4.1,1.4-8.6,1.4-12.8,0l-3.7-0.1L98.2,174.9z"/>
		<path id="Trazado_18553" class="st0" d="M90.9,178.4c0,0.6,0,1.2,0,1.8l-31,0.1c0-0.6,0-1.2,0-1.8l5.5,0c3.4-2.3,7.6,0.6,11-1.8
			C81.1,177.4,86.4,174.9,90.9,178.4z"/>
		<path id="Trazado_18554" class="st0" d="M76.4,176.7c-3.2,3.2-7.3,1.3-11,1.8C68.6,175.3,72.7,177.2,76.4,176.7z"/>
		<path id="Trazado_18555" class="st0" d="M280.9,198.1c-5.2,3.6-8.6,2.2-13.4,2.8C271.6,195.8,275.1,197.1,280.9,198.1z"/>
		<path id="Trazado_18556" class="st0" d="M97.5,190.5c3.1-2.7,7.8-2.7,10.9,0L97.5,190.5z"/>
		<path id="Trazado_18557" class="st0" d="M119,188.9l-7.3-0.1c0-0.6,0-1.1,0-1.7c3-3.5,7.2-2.5,11-2.7c8.7-0.4,17.5,0.7,26.2-0.8
			c1.1-0.2,2.2-0.2,3.2-0.1c9.4,1.7,19,0.5,28.4,0.8c6.1-0.3,12.4,0.9,18.4-1.1c2.6-0.5,5.2-0.6,7.8-0.1c6.5,2.1,13.3,0.8,19.9,1.2
			c4.7,0.4,9.6-0.9,14,1.7c0.9,0.6,1.2,1.9,0.6,2.8L119,188.9z"/>
		<path id="Trazado_18558" class="st0" d="M162.8,185.3c-9.2,3.9-18.9,0.9-28.4,1.7c-3.3,0.3-6.6,0.1-9.9,0.1l-5.6-0.1
			c-0.1-1.1,0.4-2.2,1.4-2.8c13.2-1.6,26.5-2.6,39.8-0.9C161.2,183.7,162.1,184.4,162.8,185.3z"/>
		<path id="Trazado_18559" class="st0" d="M98.8,185.3l1.9-1.8c0.6,0,1.2-0.1,1.8-0.1c3.1,0.1,6.2,0,9,1.3c0.4,0.4,0.7,0.9,0.6,1.5
			c-0.1,0.5-0.2,0.8-0.4,0.8C107.4,186.5,102.7,188.6,98.8,185.3z"/>
		<path id="Trazado_18560" class="st0" d="M109.5,187c0-0.6,0-1.1,0-1.6c1.4-1.4,3.5-1.1,5.2-1.7c2.8-0.1,5.6-0.6,8.3,0.6
			c0.3,0.4,0.6,0.7,0.9,1.1c0,0.6,0,1.1,0,1.7L109.5,187z"/>
		<path id="Trazado_18561" class="st0" d="M181.4,174.9c6.1-0.8,12.5,1.9,18.3-1.8c11.4-3.9,23.1-0.9,34.7-1.8
			c2.4-1.9,5.7-2.8,6.8,0.1c1.3,3.4-2.8,4.2-5.1,4.1c-3.5-0.1-3.9,2-4.4,4.4c-9.6,3.3-19.4,0.8-29.1,1.4c-9.9-0.2-19.7,0.3-29.5-0.3
			c-1.7-0.2-3.2-1.1-4.3-2.4l-20.1,0c-0.6-0.7-0.4-1.7,0.3-2.3c0.1-0.1,0.3-0.2,0.5-0.3c10.1-0.9,20.2,1.1,30.3-1.1
			C180.1,174.9,180.7,174.9,181.4,174.9z"/>
		<path id="Trazado_18562" class="st0" d="M160.7,185.4l-42.1,0.1l0-0.1c-0.6-0.4-0.9-1.1-0.7-1.8c0.6-0.9,1.7-1.1,2.5-1.9l3.7,0
			c4.8,2.5,10.3-0.8,15.1,1.7c-1.1-2.6-6.4,1.6-6-3.5l20.1,0c3.2,1.9,6.8,0.5,10.1,0.9c0.9,0,1.7,0.1,2.6,0.4
			c0.6,0.7,0.7,1.6,0.5,2.4C164.9,185.5,162.2,183.6,160.7,185.4z"/>
		<path id="Trazado_18563" class="st0" d="M159.3,181.9c-0.6,0-1.2,0-1.8,0c-0.6-0.4-0.9-0.8-0.6-1.2s0.4-0.6,0.6-0.6
			c10.3-1.1,20.9,2.1,31.1-1.9l3.6,0c0.7,2.8-0.8,4.3-3,5.4C179.2,184.2,169,186.8,159.3,181.9z"/>
		<path id="Trazado_18564" class="st0" d="M126.5,181.8l-1.8,1.8c-2.7,2.2-6.3-0.3-9.1,1.7l-5.5,0.2c-3.1-0.6-6.7,1-9.2-2
			L126.5,181.8z"/>
		<path id="Trazado_18565" class="st0" d="M142.3,176.7c0,0.6,0,1.2,0,1.8l-32.9,0C120.2,174.6,131.4,177.7,142.3,176.7z"/>
		<path id="Trazado_18566" class="st0" d="M135.1,180c1.6,2.8,5.1,0.7,7.7,3.5c-6.1-0.4-11.7,1.8-16.8-1.7
			C129.1,182.2,132.3,181.6,135.1,180z"/>
		<path id="Trazado_18567" class="st0" d="M100.4,178.4l12.8,0c-3.9,3.4-8.5,1.2-12.8,1.8C100.4,179.6,100.4,179,100.4,178.4z"/>
		<path id="Trazado_18568" class="st0" d="M161.9,180.1c0,0.6,0,1.2,0,1.8c-3.7-0.5-7.7,1.4-10.9-1.8L161.9,180.1z"/>
		<path id="Trazado_18569" class="st0" d="M203.6,161.3l16.4,0.1c0.6,0.3,0.9,0.7,0.6,1c-0.2,0.3-0.4,0.5-0.6,0.5l-16.4,0.1
			C203.6,162.5,203.6,161.9,203.6,161.3z"/>
		<path id="Trazado_18570" class="st0" d="M169.2,176.8c-12.2,0-24.4,0-36.5,0c0-0.6,0-1.2,0-1.8l36.5,0l31.1,0
			C190.1,178.9,179.5,175.8,169.2,176.8z"/>
		<path id="Trazado_18571" class="st0" d="M232.5,178.6c-2.3-5-2.3-5,7.1-6c-1.4-2.3-3.6-0.8-5.3-1.3c0-0.6,0-1.2,0-1.8
			c3.4-3.8,8.2-0.8,12.1-2.2c0.8-0.5,1.9-0.3,2.6,0.4l21.9,1.8c-0.1,4.5-3.2,3.3-5.8,3c-4-0.6-7.4-0.2-7.9,4.9
			c-0.3,1-0.9,1.9-1.7,2.5c-6.7,2.4-13.5,1.6-20.4,0.8C234,180.2,233.1,179.5,232.5,178.6z"/>
		<path id="Trazado_18572" class="st0" d="M247.1,168.2c-3.9,3.4-8.6,1.2-12.8,1.8l-9.1-0.1c0-0.6,0-1.2,0-1.8
			C232.5,164.6,239.8,167.1,247.1,168.2z"/>
		<path id="Trazado_18573" class="st0" d="M256.2,176.9c-0.2-3.7,1.3-5.5,5.2-5.6c3.2,0,6.7,1.1,9.4-1.8l7.3,0l0,1.8
			c-5.1,0.7-9.5,5.3-15.4,2.2c-1.9-1-3.7,1.3-4.7,3.2c-0.4,0.5-1.2,0.6-1.7,0.2C256.3,177,256.3,177,256.2,176.9z"/>
		<path id="Trazado_18574" class="st0" d="M247.1,168.3l-21.9,0c0-0.6,0-1.2,0-1.8l1.8,0c4.1-1.4,8.6-1.4,12.8,0
			c3.1,0.4,6.6-1.1,9.1,1.8C248.3,168.3,247.7,168.3,247.1,168.3z"/>
		<path id="Trazado_18575" class="st0" d="M239.8,159.6c-1.2,1.2-2.4,2.4-3.7,3.6l-0.9,0l-0.9,0c-3.9-3.3-8.6-1.2-12.9-1.8
			c4.5-3.6,9.8-1,14.7-1.9c0.6,0,1.2,0,1.8,0C238.6,159.5,239.2,159.5,239.8,159.6z"/>
		<path id="Trazado_18576" class="st0" d="M239.8,166.6H227C230.8,163.7,236,163.7,239.8,166.6z"/>
		<path id="Trazado_18577" class="st0" d="M260.2,165.5c-2.6,1.6-4.9,1.2-7.4,0.6C255.2,163.6,257.5,164.9,260.2,165.5z"/>
		<path id="Trazado_18578" class="st0" d="M174.5,185.3l-14.5,0.2H158c-0.6,0-1.2-0.1-1.8-0.1c1.4-2,3.5-1.8,5.5-1.8
			C166.2,182.8,170.8,180.4,174.5,185.3z"/>
		<path id="Trazado_18579" class="st0" d="M114.4,185.2c2.6-2.8,6-1.3,9.1-1.7c0,0.6,0,1.2,0,1.8L114.4,185.2z"/>
		<path id="Trazado_18580" class="st0" d="M236,175.4l1.8,0c0.6,0.9,0.7,2,0.1,2.9c-0.9,1.4-2.4,2.2-4,2.3c-8.5-0.8-17,1.1-25.4-0.7
			c-5.5-1.1-11.6,2.2-16.7-2.1c4.5-3.8,10.3,0.3,15-2.5L236,175.4z"/>
		<path id="Trazado_18581" class="st0" d="M217.7,178.2c-4.5,3.6-9.8,1.1-14.6,1.8c-1.8,2-4.3,2.4-6.6,3.2c-4,0.2-8.1,1.6-11.6-1.4
			l1.8-3.6L217.7,178.2z"/>
		<path id="Trazado_18582" class="st0" d="M188.9,181.7l12.8,0c0.6,0.4,0.9,0.8,0.6,1.2c-0.2,0.4-0.4,0.6-0.6,0.6c0,0.6,0,1.2,0,1.8
			l-1.9,0c-7.8-1.4-15.8-1.4-23.6,0l-5.6,0c-3.9-3.3-8.5-1.1-12.7-1.7c0-0.6,0-1.2,0-1.8L188.9,181.7z"/>
		<path id="Trazado_18583" class="st0" d="M234.3,180.1c0-0.6,0-1.2,0-1.8h21.9l0,0c0.6,1,0.3,2.3-0.7,2.9l0,0
			C248.3,183.1,241.2,184.4,234.3,180.1z"/>
		<path id="Trazado_18584" class="st0" d="M256.2,180c0-0.6,0-1.2,0-1.8l9.1,0c5.2,10.1-6.4,3.3-7.3,7.3h-11
			c-4.1-1.5-8.6-1.5-12.8,0l-7.3,0c-4.9-1.8-9.8,0.3-14.7,0.1l-3.7-0.3l-3.6-1.7c-0.6-0.4-0.9-0.8-0.6-1.2c0.2-0.4,0.4-0.6,0.6-0.6
			l27.4,0C240.3,179.2,248.5,182.7,256.2,180z"/>
		<path id="Trazado_18585" class="st0" d="M192.6,146c3.2-3.1,7.3-1.1,10.9-1.9l7.3-0.1c0.6,0.1,1.2,0.2,1.9,0.2
			c0,0.6,0,1.1-0.1,1.6L192.6,146z"/>
		<path id="Trazado_18586" class="st0" d="M234.3,185.3c3.8-2.9,9-2.9,12.8,0H234.3z"/>
		<path id="Trazado_18587" class="st0" d="M175.5,185.3c7.6-2.9,16-2.9,23.6,0c-4.8,0.1-9.6,0.2-14.5,0.3L175.5,185.3z"/>
		<path id="Trazado_18588" class="st0" d="M218.8,181.9c0,0.6,0,1.2,0,1.8l-21.9,0c0-0.6,0-1.2,0-1.8l5.5-1.8
			C207.5,183.6,213.3,181.1,218.8,181.9z"/>
		<path id="Trazado_18589" class="st0" d="M256.2,180.1c-7.6,4.1-15.9,0.7-23.7,1.9l1.8-1.8L256.2,180.1z"/>
	</g>
</g>
</svg>
