<?xml version="1.0" encoding="utf-8"?>
<!-- Generator: Adobe Illustrator 23.0.2, SVG Export Plug-In . SVG Version: 6.00 Build 0)  -->
<svg version="1.1" id="Capa_1" xmlns="http://www.w3.org/2000/svg" xmlns:xlink="http://www.w3.org/1999/xlink" x="0px" y="0px"
	 viewBox="0 0 264.8 51.43" style="enable-background:new 0 0 264.8 51.43;" xml:space="preserve">
<style type="text/css">
	.st0{fill:#CFDDED;}
	.st1{fill:#F4951C;}
	.st2{fill:#0FA7B3;}
	.st3{opacity:0.4;}
	.st4{fill:#CB6DA8;}
	.st5{fill:#9AD1BF;}
	.st6{fill:#9BD1BF;}
	.st7{fill:#FFFFFF;}
	.st8{fill:#88BF4F;}
	.st9{opacity:0.43;}
</style>
<g id="Grupo_329" transform="translate(253 146.365)">
	<path id="Trazado_17381" class="st7" d="M-165.67-106.37c0,0.51-0.01,1.02-0.01,1.52c-3.21-0.38-6.74,1.23-9.57-1.53
		c-3.05-1.3-6.5-1.31-9.56-0.01l-22.35,0.01l-11.18,0.12c-0.31-0.36-0.79-0.5-1.24-0.37c-1.11-0.18-2.16-0.64-3.05-1.32
		c-1.12-1.09-1.34-2.82-0.53-4.15c5.24-2.29,5.24-2.29,10.53,3.25c0.16,0.16,0.31,0.15,0.5-0.03c0.06-0.06,0.03-0.23-0.19-0.36
		c-2.72-1.62-5.11-4.08-4.11-7.11c1.17-3.53,4.79-2.2,7.59-1.92c2.83,0.28,5.84-0.15,8.23,1.96c6.29,4.07,13.4,2.4,20.22,2.83
		c5.12,0.31,10.65-1.1,14.74,3.52C-164.61-108.76-166.29-107.57-165.67-106.37z"/>
	<path id="Trazado_17382" class="st7" d="M-172.81-114.33l-30.38-7.77c-10.13-2.83-10.84-3.75-8.76-11.12
		c0.54-0.59,1.25-1,2.04-1.17c1.56-0.14,3.13,0.14,4.54,0.82c5.87,3.92,11.83,7.21,19.41,6.62c3.15-0.15,6.26,0.79,8.8,2.67
		c1.87,2.51,4.52,2.99,7.44,3.17c3.11,0.2,6.17,0.81,7.39,4.38c0.21,1.27-0.36,2.54-1.45,3.21
		C-166.84-113.31-169.91-112.86-172.81-114.33z"/>
	<path id="Trazado_17463" class="st7" d="M-173.78-106.19l-1.59-3.15c4.21-3.33,10.15-3.33,14.36,0v3.16L-173.78-106.19z"/>
	<path id="Trazado_17491" class="st7" d="M-165.37-116.88l-1.57,1.52c-3-1.95-6.48-1.37-9.75-1.9c-2.55-0.41-5.32-0.66-4.63-4.46
		c3.09,1.86,6.53,1.57,9.92,1.61C-168.88-120.08-165.9-120.72-165.37-116.88z"/>
	<path id="Trazado_17649" class="st7" d="M-178.42-143.46l11.17,0.01c5.81,2.18,12.06-0.6,17.87,1.64c0.29,0.92-0.22,1.91-1.15,2.2
		c-0.04,0.01-0.09,0.03-0.13,0.04c-13.51-0.26-27.03,0.98-40.51-0.68l-4.79-0.02C-190.67-144.41-183.71-139.33-178.42-143.46z"/>
	<path id="Trazado_17739" class="st7" d="M-165.5-122.68c-7.25,3.31-14.91,0.8-22.33,1.57
		C-180.59-124.43-172.93-121.92-165.5-122.68z"/>
	<path id="Trazado_17752" class="st7" d="M-73.66-143.45l23.89-0.04l31.9,0.02l1.6,1.6c-30.8,2.14-61.65,1.49-92.48,1.6
		c-15.06,1.69-30.18,0.43-45.26,0.67c-0.79-0.1-1.35-0.82-1.25-1.6c0.03-0.23,0.12-0.46,0.25-0.65c24.36-0.01,48.71,0.01,73.07-0.06
		C-79.13-141.92-76.05-140.98-73.66-143.45z"/>
	<path id="Trazado_17826" class="st7" d="M-192.81-141.86l102.08,0.03c0.73,1.36,4.09,0.05,3.16,3.1l-49.47,0.03
		c-2.38-2.48-5.46-1.51-8.26-1.53c-15.85-0.09-31.7-0.06-47.55-0.07C-192.83-140.82-192.82-141.34-192.81-141.86z"/>
	<path id="Trazado_17914" class="st7" d="M-155.75-141.83l92.45-0.06c0.53,0.02,1.06,0.03,1.59,0.04c0,0.52,0,1.05,0,1.57
		c-27.01,0-54.02,0.02-81.03,0.05c-2.81,0-5.89-0.93-8.29,1.53C-152.75-139.5-154.34-140.55-155.75-141.83z"/>
	<g id="Grupo_327">
		<path id="Trazado_17324" class="st7" d="M-13.79-101.01c-17.24,1.4-34.52,1.96-51.82,2.01c-2.61,0.01-5.23-0.6-7.72,0.67
			c-13.71-0.75-27.43-2.23-41.13,0.11c-9.3-2.92-18.86-1.06-28.26-1.22c-28.39-0.47-56.8-0.25-85.2-0.3c-0.27-3.57,2.87-4,4.97-5.38
			c0.79-0.1,1.6-0.03,2.36,0.21c6.83,1.1,13.74,1.54,20.65,1.33c26.82-0.01,53.64-0.02,80.44-0.02c20.22,0.03,40.44,0.03,60.64,0
			c12.13,0.07,24.27-0.1,36.4-0.03C-19.34-103.61-16.02-104.06-13.79-101.01z"/>
		<path id="Trazado_17359" class="st7" d="M-56.62-99.47c-6.18,2.46-12.81-1.8-18.95,1.24c-14.43-1.04-28.92-0.92-43.33,0.34
			c-9.01,0.91-18.01-0.21-26.96,0.94c-3.71,1.26-6.85-1.98-10.49-1.36l-0.49-0.27l-0.52,0.19c-3.29-0.4-6.61-0.34-9.88,0.19
			l-0.47-0.22l-0.51,0.1c-7.35-1.32-14.57,1.32-22.01,0.39c-10.96-1.36-22.01-1.88-33.04-1.55c-2.13,0.06-5.1-0.17-4.07-3.94
			c6.83-3.98,14.24-1.1,21.35-1.8c3.34-0.05,6.69,0.11,10.01,0.49c3.69,1.39,7.54,1.13,11.37,1.14
			c38.39,0.01,76.76-0.05,115.14,0.05C-64.87-103.52-59.72-104.55-56.62-99.47z"/>
		<path id="Trazado_17360" class="st7" d="M-212.13-102.84c7.07,2.83,14.55,1.73,21.86,2.22c12.51,0.83,25.03,1.55,37.55,2.31
			c-17.66,3.71-35.34,0.73-53.01,0.18c-3.53,0.93-7.17,0.62-10.75,0.92c-0.73-0.08-1.41-0.41-1.93-0.92
			c-1.22-1.97-5.08-1.11-4.9-4.59C-219.61-105.9-215.89-105.84-212.13-102.84z"/>
		<path id="Trazado_17361" class="st7" d="M-178.16-96.47c-4.21-2.5-8.93-1.13-13.39-1.79c8.25-2.11,16.66-1.06,24.97-0.94
			c15.99,0.23,32.02-1.08,47.98,0.96c-9.73,1.93-19.53-0.03-29.28,0.5c-4.24,0.83-8.49,1.8-12.71-0.08
			c-0.91,0.91-1.59,2.14-3.03,2.38c-1.93-0.02-3.86,0.11-5.77,0.39C-172.48-94.57-175.27-95.79-178.16-96.47z"/>
		<path id="Trazado_17363" class="st7" d="M-88.18-99.47c-4.3-1.33-8.79-1.95-13.3-1.83c-38.75,0.07-77.5,0.06-116.25-0.02
			c-0.49-0.92-0.15-2.06,0.76-2.56c10.28-2.74,20.76-0.69,31.14-1.26c3.39-0.19,6.79-0.04,10.18-0.04c2.38,0,4.76,0,7.14,0.01
			c4.18,0.02,8.36,0.03,12.55,0c0.94-0.02,1.88-0.01,2.82-0.01c5.23,0.04,10.45,0.02,15.68,0c11.67,0.02,23.34,0.02,35,0
			c5.49-0.16,11.02,0.51,16.49-0.56c1.4-0.19,2.8,0.3,3.79,1.3c0.19,3.35-3.52,2.77-4.75,4.7l-0.57,0.37L-88.18-99.47z"/>
		<path id="Trazado_17364" class="st7" d="M-20.43-109.98l-0.12,0.77l-5.68,0.17c-3.84,1.6-8.17-0.63-11.93,1.53l-0.46,0.27
			l-0.49-0.22c-15.66,1.01-31.26,2.7-46.85,4.56c-23.2,1.92-46.41,3.43-69.71,1.9l-45.12-0.25c-1-1.15-0.88-2.9,0.28-3.9
			c0.05-0.04,0.11-0.09,0.16-0.13c9.54-2.23,19.33-2.51,29.01-2.9c15.35-0.61,30.76,0.33,46.11-0.31
			c15.03-0.62,30.02-2.06,44.89-4.31c22-2.05,44.16-2.67,65.99-6.63c3.14-0.11,6.05-1.61,9.23-1.57c2.58,0.66,6.36-2.12,7.54,2.6
			c-4.71,4.28-11.05,4.18-16.62,6.17C-16.27-111.5-19.14-112.84-20.43-109.98z"/>
		<path id="Trazado_17385" class="st7" d="M-177.53-109.05l9.52,0.25c4.22-1.74,9.05-1.2,12.77,1.45l1.91,1.35
			C-161.86-103.41-169.68-106.31-177.53-109.05z"/>
		<path id="Trazado_17461" class="st7" d="M-205.82-138.68c2.83-2.13,5.81-3.83,9.56-3.19c13.6-1.44,27.04,0.54,40.5,1.91
			c0.67,0.4,1.19,1.01,1.48,1.73c0.05,1.18-0.39,2.67,1.8,2.43c7.32-0.76,14.72-0.37,21.92,1.16c8,1.64,15.38-1.84,23.1-2.47
			c8.02,2.15,16.24,1.14,24.36,1.74c4.09,0.3,9.16-1.14,11.49,4.26c-1.63,2.66-4.35,2.67-6.94,2.63
			c-10.13-0.16-20.2,1.51-30.18,0.98c6.21,0,12.27-0.08,18.34-0.03c6.96,1.71,14.03,0.47,21.03,0.92c3.25,0.21,6.96-0.74,8.97,3.11
			c-7.01,3.65-14.45,0.38-20.51,1.52c5.41,0.21,11.94-0.02,18.48,0.06c2.17-0.15,4.34,0.25,6.31,1.16c1.45,1.1,2.55,2.36,1.78,4.38
			l-6.38,0.02c-12.52-1.53-25.15-1.94-37.75-1.22c-1.81,0.11-3.61,0.94-5.31-0.36c-2.67-3.18-6.35-3.57-10.02-3.13
			c-8.81,1.06-17.5-2.03-26.31-0.57c-1.05,0.18-2.63-0.77-2.22-1.48c0.69-1.2,2.27-1.89,3.48-2.79c3-2.11,6.21,0.9,9.17-0.4
			c-23.78-1.56-47.91-0.66-71.18-7.61C-203.13-134.61-207.4-133.75-205.82-138.68z"/>
		<path id="Trazado_17462" class="st7" d="M-198.71-107.51c14.47-2.79,28.8-1.63,43.06,1.59l-43.04,0.02l-1.97-0.8L-198.71-107.51z"
			/>
		<path id="Trazado_17465" class="st7" d="M-169.18-105.83c5.02-2.46,10.9-2.47,15.93-0.01L-169.18-105.83z"/>
		<path id="Trazado_17469" class="st7" d="M-43.47-114.68l-15.94,0.02c-6.5,1.73-13.12,0.66-19.67,0.71
			c-20.88,0.17-41.77,0.06-62.65,0.06c-6.04-0.4-12.15,0.87-18.13-0.78h-12.76c-0.5-0.96-0.13-2.14,0.83-2.65
			c0.01,0,0.01-0.01,0.02-0.01c3.48-1.81,7.26-1.23,10.92-1.24c33.11-0.05,66.22-0.07,99.32-0.04c3.87,0.03,7.75-0.18,11.6,0.16
			C-47.29-118.23-43.92-118.81-43.47-114.68z"/>
		<path id="Trazado_17470" class="st7" d="M-176.67-110.4h-14.36c-1.75-0.04-3.59,0.18-4.77-1.59c3.03-2.91,6.87-2.3,10.5-2.31
			c20.31-0.07,40.62-0.02,60.93-0.04c6.49,0.03,12.98-0.05,19.48,0.06c2.83,0.05,5.79-0.22,7.94,2.29c-2.38,2.5-5.47,1.54-8.27,1.55
			C-129.03-110.38-152.85-110.41-176.67-110.4z"/>
		<path id="Trazado_17476" class="st7" d="M-12.66-140.27c-19.4,1.95-38.81,3.89-58.21,5.84c-1.83,0.29-3.67,0.46-5.52,0.5
			c-22.27-0.79-44.43,2.8-66.71,1.66c-2.32-0.12-4.84-0.56-6.7,1.55c-5.07,4.09-11.05,1.78-16.62,2.27
			c-3.37,0.3-6.79,0.07-10.19,0.07c-7.95-0.79-16.14,1.68-23.9-1.74c-0.74-0.75-0.77-1.94-0.06-2.73
			c10.16-3.11,20.83-3.12,31.14-3.08c22.96,0.08,45.82-1.77,68.75-1.92c2.12,0.02,4.22-0.32,6.22-1c4.86-0.91,9.77-0.41,14.66-0.58
			c15.15-1.36,30.31-2.51,45.44-4.15c9.9-1.07,19.9-1.32,29.82-2.61c3.17-0.41,7.13-0.6,7.81,4.29c-0.52,0-1.04,0-1.56,0.01
			C-2.77-139.71-7.84-139.14-12.66-140.27z"/>
		<path id="Trazado_17488" class="st7" d="M-199.8-133.23c4.44,3.07,9.75,3.63,14.77,4.64c21.97,4.42,44.27,5.73,66.61,6.56
			c1.43,0.05,3.31-0.49,3.83,2.53c-6.17-0.66-12.22,0.63-18.23-0.97c-4.71,0.29-9.43-0.13-14.01-1.23
			c-0.34,6.45,4.07,6.29,10.06,6.19c-5.32,3.61-9.07,4.59-11.71,0.73c-2.36-3.44-4.31-1.87-6.69-0.9
			c-3.49,2.02-7.94,1.09-10.33-2.16c-1.58-2.72-4.23-2.64-6.88-2.65c-3.15-0.02-6.37,0.04-8.32-3.17
			c-9.85-1.61-20.7,0.37-28.67-7.99C-207.17-138.23-202.81-131.64-199.8-133.23z"/>
		<path id="Trazado_17489" class="st7" d="M-167.18-114.8c2.81,2.21,6.4,2.02,9.56,3.14l1.62,3.18c-4.29-0.16-8.73,0.95-12.77-1.44
			c0-1.12,0-2.24,0.01-3.36C-169.19-114.79-168.59-115.22-167.18-114.8z"/>
		<path id="Trazado_17515" class="st7" d="M-181.11-143.47c10.64,0.89,21.07,3.95,31.89,3.2c0.41,0.35,0.54,0.7,0.41,1.06
			c-0.14,0.35-0.27,0.53-0.41,0.53c-13.95,0.57-27.68-1.66-41.46-3.19C-187.87-144.67-184.31-142.99-181.11-143.47z"/>
		<path id="Trazado_17571" class="st7" d="M11.8-130.32c0,0.53,0,1.06,0,1.59c-2.76,3.32-6.33,2.28-9.6,2.29
			c-38.07,0.08-76.13,0.04-114.2,0.06c-3.37,0-6.77-0.32-10.05,1c-19.54,1.27-39.09,0.26-58.64,0.56
			c-6.29,0.1-12.59,0.02-18.88,0.02l-6.31-0.01c-6.52,0.24-13.07-0.68-19.56,0.76c-8.33-1.47-16.79,0.24-25.11-1.49
			c-0.66-0.08-1.6,0.14-1.93-0.29c-1.4-1.85,0.44-1.3,0.87-1.26c9.82,1.02,19.48-1.67,29.25-1.69c2.36,0,4.96,0.94,6.96-1.54
			c1.46-2.09,3.51-2.17,5.54-2.27c13.24-0.64,26.45-1.98,39.74-1.77c23.42,0.38,46.84,0.11,70.26,0.1
			c6.27-0.36,12.63,1.04,18.82-1.24c15.03-0.3,30.07-1.05,45.09,0.39c2.82,1.88,6.29,2.51,9.59,1.74
			c11.09-1.83,22.28-0.77,33.44-0.63C9.34-134.07,11.32-132.52,11.8-130.32z"/>
		<path id="Trazado_17572" class="st7" d="M-178.47-135.48c-7.31,0.86-14.04,5.28-21.86,3.23c-10.25-2.69-21-0.74-31.88-2.15
			c1.66-3.61,4.07-2.27,5.91-2.67c3.02-2.37,6.59-1.53,9.95-1.56c18.99-0.14,38.01,0.52,56.94-1.61c15.85-0.23,31.7-1.51,47.56-0.4
			c12.61,2.59,25.37,0.6,38.03,1.26c3.9,0.2,8.02-0.85,11.54,1.81c0.66,0.74,0.6,1.88-0.14,2.54c-0.06,0.05-0.12,0.1-0.18,0.14
			c-37.35-0.07-74.7,1.46-112.04,0.2C-175.98-134.57-177.3-134.85-178.47-135.48z"/>
		<path id="Trazado_17573" class="st7" d="M-227.51-131.93l116.4-0.01c2.29-2.24,5.21-2.27,8.12-2.29
			c13.16-0.06,26.32-0.16,39.48,0.08c3.08,0.06,7.23-1.17,8.21,3.81c-45.72,0.22-91.44-0.9-137.13,1.6
			C-203.99-131.37-216.13-127.5-227.51-131.93z"/>
		<path id="Trazado_17574" class="st7" d="M-100.78-116.5c-1.76,0.03-3.6-0.18-4.78,1.6c-14.97,1.76-30,0.57-44.99,0.69
			c-8.91,0.07-17.89,1.1-26.77-0.69c-5.04-3.23-10.64-0.88-15.93-1.59c-4.78-0.65-9.86,1.52-14.36-1.58
			c12.58-2.57,25.33-1.29,38.01-1.6c15.75,0.02,31.5-0.03,47.24,0.03c4.04,0.28,8.06,1.5,12.17,0.5c1.75-0.63,3.64-0.37,5.43-0.82
			c0.66-0.24,1.36-0.35,2.06-0.33c1.01,0.29,1.86,0.97,2.37,1.89C-100.18-117.75-100.34-117.04-100.78-116.5z"/>
		<path id="Trazado_17575" class="st7" d="M-155.3-138.69c-22.29,2.09-44.65,1.55-66.99,1.6c0-0.53,0-1.06,0-1.59s0-1.06,0-1.59
			l62.2-0.02c1.42-1.19,3.02-0.77,4.6-0.49c0.62,0.44,0.76,1.29,0.33,1.91C-155.21-138.8-155.25-138.74-155.3-138.69z"/>
		<path id="Trazado_17576" class="st7" d="M-179.27-113.95h71.76c0,0.52,0,1.05,0,1.58l-71.75,0.02h-23.4
			c-0.01-0.54-0.02-1.07-0.03-1.61L-179.27-113.95z"/>
		<path id="Trazado_17577" class="st7" d="M-145.64-119.18l-38.26,0.02c-7.42-0.81-15.09,1.75-22.32-1.6l30.28-0.01
			c7.33-2.18,15.01,0.64,22.33-1.57h6.38C-146.35-121.47-144.62-121.01-145.64-119.18z"/>
		<path id="Trazado_17582" class="st7" d="M-44.96-117.15h-111.62h-28.71c0-0.53,0-1.06,0-1.59c4.19-2.99,8.96-1.02,13.43-1.59
			c37.96-1.52,75.94-0.42,113.91-0.7L-44.96-117.15z"/>
		<path id="Trazado_17587" class="st7" d="M-21.61-138.69l-23.91,0.02c-6.11,1.71-12.44,2.47-18.77,2.25
			c-32.3,0.13-64.59,0.31-96.89-0.04c-0.89-0.4-1.29-1.45-0.89-2.34c0.03-0.08,0.07-0.15,0.12-0.22c3.38-2.86,7.47-1.77,11.32-1.98
			c12.25-0.66,24.58,1.3,36.78-1.23c8.96-0.66,17.94-0.76,26.91-0.3c21.65,0.85,43.19-1.85,64.81-1.69
			c3.98,0.37,8.31-0.99,11.71,2.34v1.59C-14.16-139.7-18.23-141.65-21.61-138.69z"/>
		<path id="Trazado_17736" class="st7" d="M-130.58-134.27c38.81-0.45,77.64,1.32,116.42-1.56v1.57
			c-10.68,2.58-21.54,1.52-32.33,1.56c-30.68,0.12-61.37,0.05-92.05,0.05h-54.21c-2.69,1.37-5.53,0.89-8.29,0.48
			c-1.74-0.26-1.77-1.49-0.75-2.77c2.53-1.93,5.51-1.6,8.39-1.6c17.96-0.06,35.93-0.06,53.89-0.01
			C-136.37-136.55-133.12-136.75-130.58-134.27z"/>
		<path id="Trazado_17737" class="st7" d="M-190.59-119.06l-1.59-3.17l92.49-0.02l0,0c0.5,0.61,0.41,1.51-0.21,2.01
			c-0.11,0.09-0.23,0.16-0.37,0.22c-3.19,0.3-6.39,0.08-9.59,0.16c-4.58-0.36-9.25,0.81-13.77-0.78h-1.58
			c-2.69,1.23-5.84,0.74-8.44,2.27c-2.51-0.13-5.11,0.8-7.5-0.68L-190.59-119.06z"/>
		<path id="Trazado_17738" class="st7" d="M-98.8-134.16c2.81,2.79,6.37,1.12,9.56,1.59c-6.69,3.46-13.85,0.72-20.73,1.59
			c-2.37-2.5-5.46-1.54-8.25-1.55c-15.85-0.09-31.71-0.05-47.56-0.05c0-0.52,0-1.05,0-1.57c1.95-2.31,4.68-2.26,7.31-2.28
			c17.46-0.1,34.91-0.1,52.37,0C-103.47-136.43-100.74-136.48-98.8-134.16z"/>
		<path id="Trazado_17745" class="st7" d="M-176.18-119.09c0-0.53,0-1.06,0-1.59l9.57-0.02c13.78-1.27,27.66-1.27,41.44,0
			l74.97,0.02c0,0.53,0,1.06,0,1.59L-176.18-119.09z"/>
		<path id="Trazado_17753" class="st7" d="M-35.12-140.27c-3.74,3.04-8.14,1.42-12.21,1.51c-11.87,0.24-23.76,0.09-35.63,0.09
			l-87.72-0.03c0.57-4.18,4.02-3.74,6.69-3.76c25.05-0.24,50.1-0.16,75.15-0.09C-86.1-142.55-50.53-140.27-35.12-140.27z"/>
	</g>
</g>
</svg>
