<?xml version="1.0" encoding="utf-8"?>
<!-- Generator: Adobe Illustrator 23.0.2, SVG Export Plug-In . SVG Version: 6.00 Build 0)  -->
<svg version="1.1" id="Capa_1" xmlns="http://www.w3.org/2000/svg" xmlns:xlink="http://www.w3.org/1999/xlink" x="0px" y="0px"
	 viewBox="0 0 188.1 72.64" style="enable-background:new 0 0 188.1 72.64;" xml:space="preserve">
<style type="text/css">
	.st0{fill:#CFDDED;}
	.st1{fill:#F4951C;}
	.st2{fill:#0FA7B3;}
	.st3{opacity:0.4;}
	.st4{fill:#CB6DA8;}
	.st5{fill:#9AD1BF;}
	.st6{fill:#9BD1BF;}
	.st7{fill:#FFFFFF;}
	.st8{fill:#88BF4F;}
	.st9{opacity:0.43;}
</style>
<g id="Grupo_363" transform="translate(-495 -222.635)">
	<path id="Trazado_7963" class="st1" d="M659.34,267.56c6.97,5.81,14.08-2.93,21.77,4.75c-5.68,5.12-11.09,5.33-16.33,5.76
		c-12.49,1-24.79,3.7-36.56,8.02c-5.5,2.01-11.31,1.53-16.36,7.09c-2.45,2.7-6.68,3.17-8.67-0.82c-4.31-8.65-10.41-8.06-15.9-8.43
		c-22.93-1.55-45.27-10.68-68.23-12.23c-8.74-0.59-18.58-3.22-24.05-20.43c28.21-8.06,56.25-6.54,83.83-11.95
		c27.43-5.37,54.83-11.03,82.82-16.68c-2.99,15.52-2.8,16.54,5.12,22.16c4.34,3.09,8.7,6.27,13.62,6.79
		c1.35,0.14,2.51,1.8,2.69,4.22c0.2,2.53-0.97,3.84-2.12,5.08c-2.65,2.85-5.71,3.48-8.78,4.08
		C667.9,265.81,663.62,266.69,659.34,267.56z"/>
</g>
</svg>
