<?xml version="1.0" encoding="utf-8"?>
<!-- Generator: Adobe Illustrator 23.0.2, SVG Export Plug-In . SVG Version: 6.00 Build 0)  -->
<svg version="1.1" id="Capa_1" xmlns="http://www.w3.org/2000/svg" xmlns:xlink="http://www.w3.org/1999/xlink" x="0px" y="0px"
	 viewBox="0 0 348.59 157.18" style="enable-background:new 0 0 348.59 157.18;" xml:space="preserve">
<style type="text/css">
	.st0{fill:#CFDDED;}
	.st1{fill:#F4951C;}
	.st2{fill:#0FA7B3;}
	.st3{opacity:0.4;}
	.st4{fill:#CB6DA8;}
	.st5{fill:#9AD1BF;}
	.st6{fill:#9BD1BF;}
	.st7{fill:#FFFFFF;}
	.st8{fill:#88BF4F;}
	.st9{opacity:0.43;}
</style>
<path id="Trazado_16442_1_" class="st4" d="M49.92,39.83c1.59-2.83,2.89-5.28,3.91-1.89c0.08,0.28,0.41-0.47,0.62-0.94
	c2.24-5.05,4.2-5,6.13-5.07c8.24-0.31,16.41,0.03,24.69-0.74c3.03-0.28,5.83,1.37,8.8,1.5c6.63,0.3,13.31,0.35,19.75,2.41
	c12.13,3.87,24.52,5.51,36.46,11.05c5.23,2.42,10.64,3.39,15.88,5.77c9,4.09,17.97,8.46,26.88,13.35c3.46,1.91,7.12,2.15,10.5,4.53
	c8.4,5.88,17.27,7.91,25.83,12.48c6.92,3.69,14.19,4.55,21.01,9.04c3.54,2.34,7.94-1.7,10.62,7.33c0.16,0.54,0.56,0.13,0.87-0.25
	c1.97-2.45,3.58-1.21,5.24-0.57c5,1.91,9.86,5.16,14.97,6.07c4.1,0.73,7.77,5.87,12.69-1.03c1.57-2.21,3.03-0.21,4.71-5.96
	c0.06-3.73-1.41,0.98-1.3-3.14c0.72-2.25,1.29-2.06,1.84-1.86c2.41,0.89,4.8,2,7.23,2.79c3.53,1.14,6.97,3.4,11.21-3.65
	c0.52-0.86,1.15-1.63,1.52-1.09c2.68,4.01,6.15-0.06,9.3-1.28c2.42-0.93,5.01-1.47,7.69-7.32c1.61-3.52,2.89-4.87,4.22-4.05
	c2.29,1.41,4.78,1.05,7.43-0.9c-20.37-16.57-38.68-48.19-60.85-52.81c0.05,3.7,0.56,3.68,1,3.86c7.04,2.82,13.7,8.42,20.12,15.88
	c3.88,4.51,8.08,6.82,11.75,12.78c1.03,1.67,2.1,2.77,2.39,7.85c-1.09,4-1.74,2.48-2.41,1.99c-2.22-1.63-4.39-3.59-6.61-5.27
	c-0.91-0.69-0.91-0.31-2.52,5.41c-0.91,3.23-1.86,4.23-2.77,3.96c-1.48-0.43-3.02-0.6-4.55-0.5c-6.01,0.39-12.07,1.22-18.05,1.25
	c-2.21,0.01-4.13-2.64-6.33-2.95c-4.84-0.53-9.58-1.75-14.08-3.64c-8.91-4.03-18.08-6.04-27.13-8.95c-4.29-1.38-8.72-1.7-12.82-4.6
	c-7.59-5.38-15.8-5.55-23.49-10.06c-3.52-2.07-7.25-2.48-10.81-4.28c-5.48-2.78-10.73-7.52-16.36-8.88
	c-7.63-1.84-14.9-6.6-22.49-8.71c-1.14-0.32-1.1-5.8-2.21-5.33c-2,0.84,0.03-8.67-0.66-11.58c-1.63,2.4-2.65,5.15-3,8.02
	c-0.99,6.06-1.77,5.98-2.8,5.69c-7.31-2.08-14.64-3.95-21.96-5.9c-1.14-0.3-2.26-0.7-2.26-6.75c0-2.13-0.57-4.09-0.92-1.96
	c-1.4,8.52-3,5.8-4.49,9.57c-0.17,7.38,2.19,2.31,2.36,9.05c-3.83,0.81-7.67,4.11-10.87,0.95c-1.31-1.29-2.76-1.2-4.14-1.75
	c-3.17-1.26-6.76,1.94-9.94,1.07c-5.11-1.41-10.01-4.92-15.84,0.92c-0.82,0.82-1.58,0.37-2.34,0.29c-8.4-0.94-16.91-0.75-25.74,2.8
	c-1.48,0.59-3.05,2.27-4.42,1.06c-3.86-3.43-8.28-2.02-12.56-1.66c-1.33,0.12-2.84-0.05-4.47,5.19c0.09,4.57,1.04,2.5,1.63,2.84
	c0.63,0.37,1.47-0.4,1.59,4.56c-0.91-0.1-1.47-0.2-2.04-0.21c-1.26-0.01-2.51-0.04-3.78,0.06c-1.97,0.16,0.64-12.05-0.86-13.11
	c0.06-0.41,0.12-0.82,0.33-2.29c2.31-2.08,4.38-0.52,6.63-1.19c5.14-1.52,10.22-2.25,15.33-3.39c2.27-0.51,4.56-1.22,6.84-1.89
	c0.51-0.15,1.17-0.82,1.44-3.42c0.35-3.45-0.29-3.85-0.84-4.16c-0.09-0.05-0.2-0.05-0.29,0c-5.88,3.13-11.43,2.59-17.17,4.14
	c-5.35,1.45-10.77,3.73-16.12,5.27c-1.45,0.41-2.65,1.47-4.24,7.2C12.61,30.71,10.25,35,8.04,33.9c-1.19-0.46-2.5-0.55-3.74-0.25
	c-1.25,0.16-2.54,0.78-4.3,6.6c2.63,2.5,4.73,6.56,7.53,5.64c1.49-0.48,2.88,0.13,4.35-0.05c1.21-0.15,2.21,1.03,2.91,4.05
	c0.15,0.65,0.17,1.84,0.27,2.92c-0.97,2.91-1.75,6.69-2.72,8.38c-1.12-7.16-1.12-7.14-3.78,0.94c-0.69,1.32-1.08,2.78-1.13,4.28
	c0.88,1.77,2.1,1.11,3.2,1.41c1.59,0.43,3.27,0.34,4.71,1.87c4.4,4.68,8.7,10.02,13.03,15.14c0.81,0.96,1.41,3.19,2.08,4.73
	c1.72,4,3.1,9.75,5.04,12.79c4.07,6.38,8.95,6.14,13.55,7.9c9.18,3.5,19,0.98,28.5,1.58c6.71,0.42,13.47,0.47,20.15,1.2
	c5.32,0.58,10.55,2.05,15.84,2.9c2.27,0.37,4.8-1.24,6.87,0.54c5.96,5.12,12.86,2.12,18.75,7.67c1.37,1.29,3.09,0,4.52,0.96
	c3.13,2.1,6.16,4.8,9.72,3.2c1.31-0.66,2.9-0.18,3.63,1.09c4.48,6.15,9.93,4.14,14.79,7.15c5.21,3.22,10.7,4.16,15.96,7.02
	c5.35,2.9,10.72,5.56,16.29,6.61c7.45,1.39,14.99,2.1,22.07,6.8c0.82,0.54,1.72,0.17,2.71-1.48c0.8-1.83,0.97-3.88,0.47-5.82
	c-0.52-0.38-1.13-0.2-1.71-0.14c-2.63,0.23-5.11-0.96-7.51-2.69c-0.46-0.33-1.38,0.19-0.68-4.08c0.42-2.53,1.04-2.2,1.35-0.96
	c0.94,3.85,2.48,3.45,3.95,2.86c3.41-1.37,6.66-0.97,9.82-0.17c5.74,1.44,11.83-0.86,17.66-0.44c0.47,0.04,1.17,0.49,1.88-5.38
	c-3.52-2.02-7.06-4.04-10.6-6.07c5.1-1.24,10.43-1.21,15.52,0.11c4.85,1.36,9.49,4.64,14.62,3.55c0.49-0.11,1.01,1.95,1.74-3.82
	c-4.84-3.17-9.56-7.07-14.64-8.14c-4.29-0.9-8.55-2.09-12.22-7.97c2.13,0.1,4.25,0.34,6.34,0.72c3.01,0.73,5.96,2.01,8.98,2.64
	c0.92,0.19,1.88,1.43,3.34-3.32c-1.26-3.46-2.77-3.12-4.2-2.94c-4.73,0.62-8.92-3.15-13.27-5.64c-6.52-3.74-13-7.87-19.65-10.63
	c-5.35-2.23-10.74-4.2-16.06-6.73c-5.68-2.7-11.11-7.51-16.97-8.75c-6.15-1.31-11.75-6.98-17.85-8.74
	c-7.11-2.06-13.92-6.71-20.97-9.36c-4.35-1.63-8.76-2.99-13.05-5.08c-4.21-2.05-8.63-2.3-12.74-5.23c-3.46-2.37-7.47-3.82-11.64-4.2
	c-8.2-1.03-16.09-4.82-24.32-5.6c-10.62-1.02-21.16-2.82-32.11-0.36c-5.03,1.14-9.86,0.07-15.04,2.84c-1.47,0.79-3,1.29-3.78-4.11
	C46.96,41.32,48.43,42.48,49.92,39.83z M191.15,90.49c-2.43,2.45-9.27-0.76-11.67-5.08c-3.98,1.29-7.53-1.06-10.88-4.97
	c3.7,0.97,7.53,0.95,10.85,5.09C183.63,84.81,187.16,89.56,191.15,90.49z M268.64,80.11c-3.3-1.59-6.68-2.27-10.28-0.96
	c-1.63,0.59-2.88-1.77-4.33-2.53c-5.91-3.11-11.69-7.43-17.79-8.84c-8.66-1.99-16.97-6.93-25.45-10.4
	c-7.55-3.09-15.34-4.34-22.53-10.44c-0.24-0.2-0.57,0.05-0.55-2.72c1.74,0.59,3.43,0.61,4.98,1.79c5.5,4.2,11.51,4.07,17.17,6.91
	c10.41,5.2,20.96,9.24,31.5,13.4c3.88,1.53,7.76,3.08,11.68,4.3c7.37,2.31,14.48,6.77,21.84,10.29
	C272.8,80.68,270.64,81.08,268.64,80.11z M169.54,35.31c5.07,2.47,10.11,5.18,15.12,8.18c-6.91,2.19-12.67-5.17-19.27-5.54
	c0.16-1.03,0.31-2.06,0.47-3.08C167.09,34.99,168.36,34.74,169.54,35.31z M119.1,19.09c4.15-1.55,8.27-2.78,11.59,3.07
	C126.58,23.35,122.57,23.66,119.1,19.09z M132.9,23.45l10.69,1.13c-0.15,1.18-0.31,2.37-0.46,3.56
	C139.43,29.02,136.26,25.37,132.9,23.45L132.9,23.45z M244.5,113.39c-0.11,0.99-0.22,1.99-0.33,2.99c-4,0.32-7.92-1.21-10.64-4.15
	L244.5,113.39z M150.38,27.49c3.7,1.56,7.4,3.12,11.1,4.68C157.62,32.01,153.44,34.49,150.38,27.49z M193.81,93.84
	c4.27-2.55,7.5,3.81,11.46,3.86C200.99,100.31,197.52,96.09,193.81,93.84z"/>
</svg>
