<?xml version="1.0" encoding="utf-8"?>
<!-- Generator: Adobe Illustrator 23.0.2, SVG Export Plug-In . SVG Version: 6.00 Build 0)  -->
<svg version="1.1" id="Capa_1" xmlns="http://www.w3.org/2000/svg" xmlns:xlink="http://www.w3.org/1999/xlink" x="0px" y="0px"
	 viewBox="0 0 1920 1080" style="enable-background:new 0 0 1920 1080;" xml:space="preserve">
<style type="text/css">
	.st0{fill:#EDE8E8;}
</style>
<g id="Memphis_4" transform="translate(18 -1091)">
	<g id="Grupo_108" transform="translate(-18 1283.768)">
		<path id="Trazado_16465" class="st0" d="M44.9,102.1c-3-2.1-6.7,3.2-3.6,5.3c1.4,1.1,3.4,0.9,4.5-0.5c1.1-1.4,0.9-3.4-0.5-4.5
			C45.1,102.3,45,102.2,44.9,102.1z"/>
	</g>
	<g id="Grupo_109" transform="translate(-10.177 1289.123)">
		<path id="Trazado_16466" class="st0" d="M46.9,103.5c-3-2.1-6.7,3.2-3.6,5.3c1.4,1.1,3.4,0.9,4.5-0.5s0.9-3.4-0.5-4.5
			C47.2,103.7,47,103.6,46.9,103.5z"/>
	</g>
	<g id="Grupo_110" transform="translate(-2.355 1294.479)">
		<path id="Trazado_16467" class="st0" d="M48.9,104.9c-3-2.1-6.7,3.2-3.6,5.3c1.4,1.1,3.4,0.9,4.5-0.5c1.1-1.4,0.9-3.4-0.5-4.5
			C49.2,105,49.1,105,48.9,104.9z"/>
	</g>
	<g id="Grupo_111" transform="translate(5.468 1299.835)">
		<path id="Trazado_16468" class="st0" d="M51,106.3c-3-2.1-6.7,3.2-3.6,5.3c1.4,1.1,3.4,0.9,4.5-0.5c1.1-1.4,0.9-3.4-0.5-4.5
			C51.2,106.4,51.1,106.4,51,106.3z"/>
	</g>
	<g id="Grupo_112" transform="translate(13.291 1305.191)">
		<path id="Trazado_16469" class="st0" d="M53,107.7c-3-2.1-6.7,3.2-3.6,5.3c1.4,1.1,3.4,0.9,4.5-0.5c1.1-1.4,0.9-3.4-0.5-4.5
			C53.3,107.8,53.1,107.7,53,107.7z"/>
	</g>
	<g id="Grupo_113" transform="translate(21.114 1310.547)">
		<path id="Trazado_16470" class="st0" d="M55.1,109.1c-3-2.1-6.7,3.2-3.6,5.3c1.4,1.1,3.4,0.9,4.5-0.5c1.1-1.4,0.9-3.4-0.5-4.5
			C55.3,109.2,55.2,109.1,55.1,109.1z"/>
	</g>
	<g id="Grupo_114" transform="translate(28.937 1315.902)">
		<path id="Trazado_16471" class="st0" d="M57.1,110.5c-3-2.1-6.7,3.2-3.6,5.3c1.4,1.1,3.4,0.9,4.5-0.5c1.1-1.4,0.9-3.4-0.5-4.5
			C57.3,110.6,57.2,110.5,57.1,110.5z"/>
	</g>
	<g id="Grupo_115" transform="translate(36.759 1321.258)">
		<path id="Trazado_16472" class="st0" d="M59.1,111.9c-3-2.1-6.7,3.2-3.6,5.3c1.4,1.1,3.4,0.9,4.5-0.5c1.1-1.4,0.9-3.4-0.5-4.5
			C59.4,112,59.3,111.9,59.1,111.9z"/>
	</g>
	<g id="Grupo_116" transform="translate(-13.056 1276.547)">
		<path id="Trazado_16473" class="st0" d="M46.2,100.2c-3-2.1-6.7,3.2-3.6,5.3c1.4,1.1,3.4,0.9,4.5-0.5c1.1-1.4,0.9-3.4-0.5-4.5
			C46.4,100.4,46.3,100.3,46.2,100.2z"/>
	</g>
	<g id="Grupo_117" transform="translate(-5.234 1281.903)">
		<path id="Trazado_16474" class="st0" d="M48.2,101.6c-3-2.1-6.7,3.2-3.6,5.3c1.4,1.1,3.4,0.9,4.5-0.5s0.9-3.4-0.5-4.5
			C48.5,101.8,48.3,101.7,48.2,101.6z"/>
	</g>
	<g id="Grupo_118" transform="translate(2.589 1287.258)">
		<path id="Trazado_16475" class="st0" d="M50.2,103c-3-2.1-6.7,3.2-3.6,5.3c1.4,1.1,3.4,0.9,4.5-0.5c1.1-1.4,0.9-3.4-0.5-4.5
			C50.5,103.2,50.4,103.1,50.2,103z"/>
	</g>
	<g id="Grupo_119" transform="translate(10.412 1292.614)">
		<path id="Trazado_16476" class="st0" d="M52.3,104.4c-3-2.1-6.7,3.2-3.6,5.3c1.4,1.1,3.4,0.9,4.5-0.5s0.9-3.4-0.5-4.5
			C52.5,104.6,52.4,104.5,52.3,104.4z"/>
	</g>
	<g id="Grupo_120" transform="translate(18.235 1297.97)">
		<path id="Trazado_16477" class="st0" d="M54.3,105.8c-3-2.1-6.7,3.2-3.6,5.3c1.4,1.1,3.4,0.9,4.5-0.5c1.1-1.4,0.9-3.4-0.5-4.5
			C54.6,106,54.4,105.9,54.3,105.8z"/>
	</g>
	<g id="Grupo_121" transform="translate(26.057 1303.325)">
		<path id="Trazado_16478" class="st0" d="M56.3,107.2c-3-2.1-6.7,3.2-3.6,5.3c1.4,1.1,3.4,0.9,4.5-0.5c1.1-1.4,0.9-3.4-0.5-4.5
			C56.6,107.4,56.5,107.3,56.3,107.2z"/>
	</g>
	<g id="Grupo_122" transform="translate(33.88 1308.681)">
		<path id="Trazado_16479" class="st0" d="M58.4,108.6c-3-2.1-6.7,3.2-3.6,5.3c1.4,1.1,3.4,0.9,4.5-0.5c1.1-1.4,0.9-3.4-0.5-4.5
			C58.6,108.8,58.5,108.7,58.4,108.6z"/>
	</g>
	<g id="Grupo_123" transform="translate(41.703 1314.037)">
		<path id="Trazado_16480" class="st0" d="M60.4,110c-3-2.1-6.7,3.2-3.6,5.3c1.4,1.1,3.4,0.9,4.5-0.5s0.9-3.4-0.5-4.5
			C60.7,110.1,60.5,110.1,60.4,110z"/>
	</g>
	<g id="Grupo_124" transform="translate(-8.112 1269.326)">
		<path id="Trazado_16481" class="st0" d="M47.5,98.3c-3-2.1-6.7,3.2-3.6,5.3c1.4,1.1,3.4,0.9,4.5-0.5c1.1-1.4,0.9-3.4-0.5-4.5
			C47.7,98.5,47.6,98.4,47.5,98.3z"/>
	</g>
	<g id="Grupo_125" transform="translate(-0.29 1274.682)">
		<path id="Trazado_16482" class="st0" d="M49.5,99.7c-3-2.1-6.7,3.2-3.6,5.3c1.4,1.1,3.4,0.9,4.5-0.5c1.1-1.4,0.9-3.4-0.5-4.5
			C49.7,99.9,49.6,99.8,49.5,99.7z"/>
	</g>
	<g id="Grupo_126" transform="translate(7.533 1280.037)">
		<path id="Trazado_16483" class="st0" d="M51.5,101.1c-3-2.1-6.7,3.2-3.6,5.3c1.4,1.1,3.4,0.9,4.5-0.5c1.1-1.4,0.9-3.4-0.5-4.5
			C51.8,101.3,51.6,101.2,51.5,101.1z"/>
	</g>
	<g id="Grupo_127" transform="translate(15.356 1285.393)">
		<path id="Trazado_16484" class="st0" d="M53.6,102.5c-3-2.1-6.7,3.2-3.6,5.3c1.4,1.1,3.4,0.9,4.5-0.5c1.1-1.4,0.9-3.4-0.5-4.5
			C53.8,102.7,53.7,102.6,53.6,102.5z"/>
	</g>
	<g id="Grupo_128" transform="translate(23.178 1290.749)">
		<path id="Trazado_16485" class="st0" d="M55.6,103.9c-3-2.1-6.7,3.2-3.6,5.3c1.4,1.1,3.4,0.9,4.5-0.5c1.1-1.4,0.9-3.4-0.5-4.5
			C55.8,104.1,55.7,104,55.6,103.9z"/>
	</g>
	<g id="Grupo_129" transform="translate(31.001 1296.105)">
		<path id="Trazado_16486" class="st0" d="M57.6,105.3c-3-2.1-6.7,3.2-3.6,5.3c1.4,1.1,3.4,0.9,4.5-0.5c1.1-1.4,0.9-3.4-0.5-4.5
			C57.9,105.5,57.8,105.4,57.6,105.3z"/>
	</g>
	<g id="Grupo_130" transform="translate(38.824 1301.46)">
		<path id="Trazado_16487" class="st0" d="M59.7,106.7c-3-2.1-6.7,3.2-3.6,5.3c1.4,1.1,3.4,0.9,4.5-0.5s0.9-3.4-0.5-4.5
			C59.9,106.9,59.8,106.8,59.7,106.7z"/>
	</g>
	<g id="Grupo_131" transform="translate(46.647 1306.816)">
		<path id="Trazado_16488" class="st0" d="M61.7,108.1c-3-2.1-6.7,3.2-3.6,5.3c1.4,1.1,3.4,0.9,4.5-0.5c1.1-1.4,0.9-3.4-0.5-4.5
			C62,108.3,61.8,108.2,61.7,108.1z"/>
	</g>
	<g id="Grupo_132" transform="translate(-3.169 1262.105)">
		<path id="Trazado_16489" class="st0" d="M48.7,96.5c-3-2.1-6.7,3.2-3.6,5.3c1.4,1.1,3.4,0.9,4.5-0.5c1.1-1.4,0.9-3.4-0.5-4.5
			C49,96.6,48.9,96.5,48.7,96.5z"/>
	</g>
	<g id="Grupo_133" transform="translate(4.654 1267.461)">
		<path id="Trazado_16490" class="st0" d="M50.8,97.9c-3-2.1-6.7,3.2-3.6,5.3c1.4,1.1,3.4,0.9,4.5-0.5c1.1-1.4,0.9-3.4-0.5-4.5
			C51,98,50.9,97.9,50.8,97.9z"/>
	</g>
	<g id="Grupo_134" transform="translate(12.477 1272.816)">
		<path id="Trazado_16491" class="st0" d="M52.8,99.3c-3-2.1-6.7,3.2-3.6,5.3c1.4,1.1,3.4,0.9,4.5-0.5s0.9-3.4-0.5-4.5
			C53.1,99.4,52.9,99.3,52.8,99.3z"/>
	</g>
	<g id="Grupo_135" transform="translate(20.3 1278.172)">
		<path id="Trazado_16492" class="st0" d="M54.8,100.6c-3-2.1-6.7,3.2-3.6,5.3c1.4,1.1,3.4,0.9,4.5-0.5c1.1-1.4,0.9-3.4-0.5-4.5
			C55.1,100.8,55,100.7,54.8,100.6z"/>
	</g>
	<g id="Grupo_136" transform="translate(28.122 1283.528)">
		<path id="Trazado_16493" class="st0" d="M56.9,102c-3-2.1-6.7,3.2-3.6,5.3c1.4,1.1,3.4,0.9,4.5-0.5s0.9-3.4-0.5-4.5
			C57.1,102.2,57,102.1,56.9,102z"/>
	</g>
	<g id="Grupo_137" transform="translate(35.945 1288.884)">
		<path id="Trazado_16494" class="st0" d="M58.9,103.4c-3-2.1-6.7,3.2-3.6,5.3c1.4,1.1,3.4,0.9,4.5-0.5s0.9-3.4-0.5-4.5
			C59.2,103.6,59,103.5,58.9,103.4z"/>
	</g>
	<g id="Grupo_138" transform="translate(43.768 1294.239)">
		<path id="Trazado_16495" class="st0" d="M60.9,104.8c-3-2.1-6.7,3.2-3.6,5.3c1.4,1.1,3.4,0.9,4.5-0.5c1.1-1.4,0.9-3.4-0.5-4.5
			C61.2,105,61.1,104.9,60.9,104.8z"/>
	</g>
	<g id="Grupo_139" transform="translate(51.59 1299.595)">
		<path id="Trazado_16496" class="st0" d="M63,106.2c-3-2.1-6.7,3.2-3.6,5.3c1.4,1.1,3.4,0.9,4.5-0.5c1.1-1.4,0.9-3.4-0.5-4.5
			C63.2,106.4,63.1,106.3,63,106.2z"/>
	</g>
	<g id="Grupo_140" transform="translate(1.775 1254.884)">
		<path id="Trazado_16497" class="st0" d="M50,94.6c-3-2.1-6.7,3.2-3.6,5.3c1.4,1.1,3.4,0.9,4.5-0.5c1.1-1.4,0.9-3.4-0.5-4.5
			C50.3,94.7,50.1,94.7,50,94.6z"/>
	</g>
	<g id="Grupo_141" transform="translate(9.598 1260.24)">
		<path id="Trazado_16498" class="st0" d="M52.1,96c-3-2.1-6.7,3.2-3.6,5.3c1.4,1.1,3.4,0.9,4.5-0.5c1.1-1.4,0.9-3.4-0.5-4.5
			C52.3,96.1,52.2,96.1,52.1,96z"/>
	</g>
	<g id="Grupo_142" transform="translate(17.42 1265.595)">
		<path id="Trazado_16499" class="st0" d="M54.1,97.4c-3-2.1-6.7,3.2-3.6,5.3c1.4,1.1,3.4,0.9,4.5-0.5c1.1-1.4,0.9-3.4-0.5-4.5
			C54.3,97.5,54.2,97.5,54.1,97.4z"/>
	</g>
	<g id="Grupo_143" transform="translate(25.243 1270.951)">
		<path id="Trazado_16500" class="st0" d="M56.1,98.8c-3-2.1-6.7,3.2-3.6,5.3c1.4,1.1,3.4,0.9,4.5-0.5c1.1-1.4,0.9-3.4-0.5-4.5
			C56.4,98.9,56.2,98.8,56.1,98.8z"/>
	</g>
	<g id="Grupo_144" transform="translate(33.066 1276.307)">
		<path id="Trazado_16501" class="st0" d="M58.2,100.2c-3-2.1-6.7,3.2-3.6,5.3c1.4,1.1,3.4,0.9,4.5-0.5c1.1-1.4,0.9-3.4-0.5-4.5
			C58.4,100.3,58.3,100.2,58.2,100.2z"/>
	</g>
	<g id="Grupo_145" transform="translate(40.889 1281.663)">
		<path id="Trazado_16502" class="st0" d="M60.2,101.6c-3-2.1-6.7,3.2-3.6,5.3c1.4,1.1,3.4,0.9,4.5-0.5c1.1-1.4,0.9-3.4-0.5-4.5
			C60.4,101.7,60.3,101.6,60.2,101.6z"/>
	</g>
	<g id="Grupo_146" transform="translate(48.712 1287.018)">
		<path id="Trazado_16503" class="st0" d="M62.2,103c-3-2.1-6.7,3.2-3.6,5.3c1.4,1.1,3.4,0.9,4.5-0.5c1.1-1.4,0.9-3.4-0.5-4.5
			C62.5,103.1,62.4,103,62.2,103z"/>
	</g>
	<g id="Grupo_147" transform="translate(56.534 1292.374)">
		<path id="Trazado_16504" class="st0" d="M64.3,104.3c-3-2.1-6.7,3.2-3.6,5.3c1.4,1.1,3.4,0.9,4.5-0.5c1.1-1.4,0.9-3.4-0.5-4.5
			C64.5,104.5,64.4,104.4,64.3,104.3z"/>
	</g>
	<g id="Grupo_148" transform="translate(6.719 1247.663)">
		<path id="Trazado_16505" class="st0" d="M51.3,92.7c-3-2.1-6.7,3.2-3.6,5.3c1.4,1.1,3.4,0.9,4.5-0.5c1.1-1.4,0.9-3.4-0.5-4.5
			C51.6,92.9,51.4,92.8,51.3,92.7z"/>
	</g>
	<g id="Grupo_149" transform="translate(14.541 1253.019)">
		<path id="Trazado_16506" class="st0" d="M53.3,94.1c-3-2.1-6.7,3.2-3.6,5.3c1.4,1.1,3.4,0.9,4.5-0.5c1.1-1.4,0.9-3.4-0.5-4.5
			C53.6,94.3,53.5,94.2,53.3,94.1z"/>
	</g>
	<g id="Grupo_150" transform="translate(22.364 1258.374)">
		<path id="Trazado_16507" class="st0" d="M55.4,95.5c-3-2.1-6.7,3.2-3.6,5.3c1.4,1.1,3.4,0.9,4.5-0.5s0.9-3.4-0.5-4.5
			C55.6,95.7,55.5,95.6,55.4,95.5z"/>
	</g>
	<g id="Grupo_151" transform="translate(30.187 1263.73)">
		<path id="Trazado_16508" class="st0" d="M57.4,96.9c-3-2.1-6.7,3.2-3.6,5.3c1.4,1.1,3.4,0.9,4.5-0.5c1.1-1.4,0.9-3.4-0.5-4.5
			C57.7,97.1,57.5,97,57.4,96.9z"/>
	</g>
	<g id="Grupo_152" transform="translate(38.01 1269.086)">
		<path id="Trazado_16509" class="st0" d="M59.4,98.3c-3-2.1-6.7,3.2-3.6,5.3c1.4,1.1,3.4,0.9,4.5-0.5c1.1-1.4,0.9-3.4-0.5-4.5
			C59.7,98.5,59.6,98.4,59.4,98.3z"/>
	</g>
	<g id="Grupo_153" transform="translate(45.832 1274.441)">
		<path id="Trazado_16510" class="st0" d="M61.5,99.7c-3-2.1-6.7,3.2-3.6,5.3c1.4,1.1,3.4,0.9,4.5-0.5c1.1-1.4,0.9-3.4-0.5-4.5
			C61.7,99.8,61.6,99.8,61.5,99.7z"/>
	</g>
	<g id="Grupo_154" transform="translate(53.655 1279.797)">
		<path id="Trazado_16511" class="st0" d="M63.5,101.1c-3-2.1-6.7,3.2-3.6,5.3c1.4,1.1,3.4,0.9,4.5-0.5c1.1-1.4,0.9-3.4-0.5-4.5
			C63.8,101.2,63.6,101.1,63.5,101.1z"/>
	</g>
	<g id="Grupo_155" transform="translate(61.478 1285.153)">
		<path id="Trazado_16512" class="st0" d="M65.5,102.5c-3-2.1-6.7,3.2-3.6,5.3c1.4,1.1,3.4,0.9,4.5-0.5c1.1-1.4,0.9-3.4-0.5-4.5
			C65.8,102.6,65.7,102.5,65.5,102.5z"/>
	</g>
	<g id="Grupo_156" transform="translate(11.662 1240.442)">
		<path id="Trazado_16513" class="st0" d="M52.6,90.8c-3-2.1-6.7,3.2-3.6,5.3c1.4,1.1,3.4,0.9,4.5-0.5c1.1-1.4,0.9-3.4-0.5-4.5
			C52.8,91,52.7,90.9,52.6,90.8z"/>
	</g>
	<g id="Grupo_157" transform="translate(19.485 1245.798)">
		<path id="Trazado_16514" class="st0" d="M54.6,92.2c-3-2.1-6.7,3.2-3.6,5.3c1.4,1.1,3.4,0.9,4.5-0.5c1.1-1.4,0.9-3.4-0.5-4.5
			C54.9,92.4,54.8,92.3,54.6,92.2z"/>
	</g>
	<g id="Grupo_158" transform="translate(27.308 1251.153)">
		<path id="Trazado_16515" class="st0" d="M56.7,93.6c-3-2.1-6.7,3.2-3.6,5.3c1.4,1.1,3.4,0.9,4.5-0.5c1.1-1.4,0.9-3.4-0.5-4.5
			C56.9,93.8,56.8,93.7,56.7,93.6z"/>
	</g>
	<g id="Grupo_159" transform="translate(35.131 1256.509)">
		<path id="Trazado_16516" class="st0" d="M58.7,95c-3-2.1-6.7,3.2-3.6,5.3c1.4,1.1,3.4,0.9,4.5-0.5c1.1-1.4,0.9-3.4-0.5-4.5
			C58.9,95.2,58.8,95.1,58.7,95z"/>
	</g>
	<g id="Grupo_160" transform="translate(42.953 1261.865)">
		<path id="Trazado_16517" class="st0" d="M60.7,96.4c-3-2.1-6.7,3.2-3.6,5.3c1.4,1.1,3.4,0.9,4.5-0.5c1.1-1.4,0.9-3.4-0.5-4.5
			C61,96.6,60.9,96.5,60.7,96.4z"/>
	</g>
	<g id="Grupo_161" transform="translate(50.776 1267.221)">
		<path id="Trazado_16518" class="st0" d="M62.8,97.8c-3-2.1-6.7,3.2-3.6,5.3c1.4,1.1,3.4,0.9,4.5-0.5c1.1-1.4,0.9-3.4-0.5-4.5
			C63,98,62.9,97.9,62.8,97.8z"/>
	</g>
	<g id="Grupo_162" transform="translate(58.599 1272.576)">
		<path id="Trazado_16519" class="st0" d="M64.8,99.2c-3-2.1-6.7,3.2-3.6,5.3c1.4,1.1,3.4,0.9,4.5-0.5c1.1-1.4,0.9-3.4-0.5-4.5
			C65,99.4,64.9,99.3,64.8,99.2z"/>
	</g>
	<g id="Grupo_163" transform="translate(66.422 1277.932)">
		<path id="Trazado_16520" class="st0" d="M66.8,100.6c-3-2.1-6.7,3.2-3.6,5.3c1.4,1.1,3.4,0.9,4.5-0.5c1.1-1.4,0.9-3.4-0.5-4.5
			C67.1,100.8,67,100.7,66.8,100.6z"/>
	</g>
	<g id="Grupo_164" transform="translate(16.606 1233.221)">
		<path id="Trazado_16521" class="st0" d="M53.9,89c-3-2.1-6.7,3.2-3.6,5.3c1.4,1.1,3.4,0.9,4.5-0.5c1.1-1.4,0.9-3.4-0.5-4.5
			C54.1,89.1,54,89,53.9,89z"/>
	</g>
	<g id="Grupo_165" transform="translate(24.429 1238.577)">
		<path id="Trazado_16522" class="st0" d="M55.9,90.4c-3-2.1-6.7,3.2-3.6,5.3c1.4,1.1,3.4,0.9,4.5-0.5c1.1-1.4,0.9-3.4-0.5-4.5
			C56.2,90.5,56,90.4,55.9,90.4z"/>
	</g>
	<g id="Grupo_166" transform="translate(32.252 1243.932)">
		<path id="Trazado_16523" class="st0" d="M57.9,91.7c-3-2.1-6.7,3.2-3.6,5.3c1.4,1.1,3.4,0.9,4.5-0.5s0.9-3.4-0.5-4.5
			C58.2,91.9,58.1,91.8,57.9,91.7z"/>
	</g>
	<g id="Grupo_167" transform="translate(40.074 1249.288)">
		<path id="Trazado_16524" class="st0" d="M60,93.1c-3-2.1-6.7,3.2-3.6,5.3c1.4,1.1,3.4,0.9,4.5-0.5c1.1-1.4,0.9-3.4-0.5-4.5
			C60.2,93.3,60.1,93.2,60,93.1z"/>
	</g>
	<g id="Grupo_168" transform="translate(47.897 1254.644)">
		<path id="Trazado_16525" class="st0" d="M62,94.5c-3-2.1-6.7,3.2-3.6,5.3c1.4,1.1,3.4,0.9,4.5-0.5c1.1-1.4,0.9-3.4-0.5-4.5
			C62.3,94.7,62.2,94.6,62,94.5z"/>
	</g>
	<g id="Grupo_169" transform="translate(55.72 1260)">
		<path id="Trazado_16526" class="st0" d="M64.1,95.9c-3-2.1-6.7,3.2-3.6,5.3c1.4,1.1,3.4,0.9,4.5-0.5c1.1-1.4,0.9-3.4-0.5-4.5
			C64.3,96.1,64.2,96,64.1,95.9z"/>
	</g>
	<g id="Grupo_170" transform="translate(63.543 1265.355)">
		<path id="Trazado_16527" class="st0" d="M66.1,97.3c-3-2.1-6.7,3.2-3.6,5.3c1.4,1.1,3.4,0.9,4.5-0.5c1.1-1.4,0.9-3.4-0.5-4.5
			C66.3,97.5,66.2,97.4,66.1,97.3z"/>
	</g>
	<g id="Grupo_171" transform="translate(71.365 1270.711)">
		<path id="Trazado_16528" class="st0" d="M68.1,98.7c-3-2.1-6.7,3.2-3.6,5.3c1.4,1.1,3.4,0.9,4.5-0.5c1.1-1.4,0.9-3.4-0.5-4.5
			C68.4,98.9,68.2,98.8,68.1,98.7z"/>
	</g>
	<g id="Grupo_172" transform="translate(21.55 1226)">
		<path id="Trazado_16529" class="st0" d="M55.2,87.1c-3-2.1-6.7,3.2-3.6,5.3c1.4,1.1,3.4,0.9,4.5-0.5c1.1-1.4,0.9-3.4-0.5-4.5
			C55.4,87.2,55.3,87.2,55.2,87.1z"/>
	</g>
	<g id="Grupo_173" transform="translate(29.373 1231.356)">
		<path id="Trazado_16530" class="st0" d="M57.2,88.5c-3-2.1-6.7,3.2-3.6,5.3c1.4,1.1,3.4,0.9,4.5-0.5c1.1-1.4,0.9-3.4-0.5-4.5
			C57.4,88.6,57.3,88.5,57.2,88.5z"/>
	</g>
	<g id="Grupo_174" transform="translate(37.195 1236.712)">
		<path id="Trazado_16531" class="st0" d="M59.2,89.9c-3-2.1-6.7,3.2-3.6,5.3c1.4,1.1,3.4,0.9,4.5-0.5c1.1-1.4,0.9-3.4-0.5-4.5
			C59.5,90,59.4,89.9,59.2,89.9z"/>
	</g>
	<g id="Grupo_175" transform="translate(45.018 1242.067)">
		<path id="Trazado_16532" class="st0" d="M61.3,91.3c-3-2.1-6.7,3.2-3.6,5.3c1.4,1.1,3.4,0.9,4.5-0.5c1.1-1.4,0.9-3.4-0.5-4.5
			C61.5,91.4,61.4,91.3,61.3,91.3z"/>
	</g>
	<g id="Grupo_176" transform="translate(52.841 1247.423)">
		<path id="Trazado_16533" class="st0" d="M63.3,92.7c-3-2.1-6.7,3.2-3.6,5.3c1.4,1.1,3.4,0.9,4.5-0.5c1.1-1.4,0.9-3.4-0.5-4.5
			C63.5,92.8,63.4,92.7,63.3,92.7z"/>
	</g>
	<g id="Grupo_177" transform="translate(60.664 1252.779)">
		<path id="Trazado_16534" class="st0" d="M65.3,94c-3-2.1-6.7,3.2-3.6,5.3c1.4,1.1,3.4,0.9,4.5-0.5c1.1-1.4,0.9-3.4-0.5-4.5
			C65.6,94.2,65.5,94.1,65.3,94z"/>
	</g>
	<g id="Grupo_178" transform="translate(68.487 1258.134)">
		<path id="Trazado_16535" class="st0" d="M67.4,95.4c-3-2.1-6.7,3.2-3.6,5.3c1.4,1.1,3.4,0.9,4.5-0.5s0.9-3.4-0.5-4.5
			C67.6,95.6,67.5,95.5,67.4,95.4z"/>
	</g>
	<g id="Grupo_179" transform="translate(76.309 1263.49)">
		<path id="Trazado_16536" class="st0" d="M69.4,96.8c-3-2.1-6.7,3.2-3.6,5.3c1.4,1.1,3.4,0.9,4.5-0.5c1.1-1.4,0.9-3.4-0.5-4.5
			C69.7,97,69.5,96.9,69.4,96.8z"/>
	</g>
</g>
<g id="Memphis_1" transform="translate(-37.299 -101)">
	<g id="Grupo_89" transform="translate(313.656 606)">
		<path id="Trazado_16447" class="st0" d="M115,224c-1.7,0-3-1.3-3-3v-35.2c0-1.7,1.4-3,3.1-3c1.6,0,2.9,1.3,3,3V221
			C118,222.7,116.7,224,115,224z"/>
	</g>
	<g id="Grupo_90" transform="translate(299.299 620.356)">
		<path id="Trazado_16448" class="st0" d="M146.4,192.6h-35.2c-1.7,0-3-1.4-3-3c0-1.7,1.4-3,3-3l0,0h35.2c1.7,0,3,1.4,3,3
			C149.4,191.2,148.1,192.6,146.4,192.6z"/>
	</g>
</g>
<g id="Memphis_3" transform="translate(348.59 -523.723)">
	<g id="Grupo_85" transform="translate(32.41 585.714)">
		<path id="Trazado_16443" class="st0" d="M439.2,138.8c-0.1,0-0.2,0-0.3,0l-29-4.5c-1.1-0.2-1.9-1.2-1.7-2.4c0,0,0,0,0,0l5.1-29.6
			c0.2-1.1,1.3-1.9,2.4-1.7c1.1,0.2,1.9,1.3,1.7,2.4l-4.7,27.5l26.9,4.1c1.1,0.2,1.9,1.2,1.7,2.4
			C441.1,138.1,440.3,138.8,439.2,138.8L439.2,138.8z"/>
	</g>
	<g id="Grupo_86" transform="translate(42.849 578.384)">
		<path id="Trazado_16444" class="st0" d="M442,136.9c-0.1,0-0.2,0-0.3,0l-29-4.5c-1.1-0.2-1.9-1.2-1.7-2.4c0,0,0,0,0,0l5.1-29.6
			c0.2-1.1,1.3-1.9,2.4-1.7c1.1,0.2,1.9,1.3,1.7,2.4l-4.7,27.5l26.9,4.1c1.1,0.2,1.9,1.2,1.7,2.4C443.9,136.1,443,136.9,442,136.9
			L442,136.9z"/>
	</g>
	<g id="Grupo_87" transform="translate(53.287 571.053)">
		<path id="Trazado_16445" class="st0" d="M444.7,135c-0.1,0-0.2,0-0.3,0l-29-4.5c-1.1-0.2-1.9-1.2-1.7-2.4c0,0,0,0,0,0l5.1-29.6
			c0.2-1.1,1.3-1.9,2.4-1.7c1.1,0.2,1.9,1.3,1.7,2.4l-4.7,27.5l26.9,4.1c1.1,0.2,1.9,1.2,1.7,2.4C446.6,134.2,445.7,135,444.7,135
			L444.7,135z"/>
	</g>
	<g id="Grupo_88" transform="translate(63.726 563.723)">
		<path id="Trazado_16446" class="st0" d="M447.4,133.1c-0.1,0-0.2,0-0.3,0l-29-4.5c-1.1-0.2-1.9-1.2-1.7-2.4c0,0,0,0,0,0l5.1-29.6
			c0.2-1.1,1.3-1.9,2.4-1.7c1.1,0.2,1.9,1.3,1.7,2.4l-4.7,27.5l26.9,4.1c1.1,0.2,1.9,1.2,1.7,2.4
			C449.3,132.3,448.4,133.1,447.4,133.1L447.4,133.1z"/>
	</g>
</g>
<g id="Memphis_5" transform="translate(993 -1163.222)">
	<g id="Grupo_180" transform="translate(61 1742.222)">
		<path id="Trazado_16537" class="st0" d="M339.8,230.6c-0.8,0-1.6-0.3-2.1-0.9l-22.5-22.5c-1.2-1.2-1.2-3.1,0-4.2
			c1.2-1.2,3.1-1.2,4.2,0l22.5,22.5c1.2,1.2,1.2,3.1,0,4.2C341.3,230.3,340.6,230.6,339.8,230.6z"/>
	</g>
	<g id="Grupo_181" transform="translate(61 1742.222)">
		<path id="Trazado_16538" class="st0" d="M317.2,230.6c-1.7,0-3-1.3-3-3c0-0.8,0.3-1.6,0.9-2.1l22.5-22.5c1.2-1.2,3.1-1.2,4.2,0
			c1.2,1.2,1.2,3.1,0,4.2l-22.5,22.5C318.8,230.3,318,230.6,317.2,230.6z"/>
	</g>
</g>
<g id="Memphis_2" transform="translate(823.916 65)">
	<g id="Grupo_91" transform="translate(304.672 89)">
		<path id="Trazado_16449" class="st0" d="M338.7,99.2c4.3-1,2.5-8.6-1.8-7.6c-2.1,0.3-3.6,2.3-3.3,4.4c0.3,2.1,2.3,3.6,4.4,3.3
			C338.2,99.3,338.5,99.3,338.7,99.2z"/>
	</g>
	<g id="Grupo_92" transform="translate(293.512 91.651)">
		<path id="Trazado_16450" class="st0" d="M335.8,99.9c4.3-1,2.5-8.6-1.8-7.6c-2.1,0.3-3.6,2.3-3.3,4.4c0.3,2.1,2.3,3.6,4.4,3.3
			C335.3,100,335.6,100,335.8,99.9z"/>
	</g>
	<g id="Grupo_93" transform="translate(307.119 99.302)">
		<path id="Trazado_16451" class="st0" d="M339.3,101.9c4.3-1,2.5-8.6-1.8-7.6c-2.1,0.3-3.6,2.3-3.3,4.4c0.3,2.1,2.3,3.6,4.4,3.3
			C338.9,102,339.1,102,339.3,101.9z"/>
	</g>
	<g id="Grupo_94" transform="translate(295.959 101.953)">
		<path id="Trazado_16452" class="st0" d="M336.4,102.6c4.3-1,2.5-8.6-1.8-7.6c-2.1,0.3-3.6,2.3-3.3,4.4c0.3,2.1,2.3,3.6,4.4,3.3
			C336,102.7,336.2,102.7,336.4,102.6z"/>
	</g>
	<g id="Grupo_95" transform="translate(284.798 104.604)">
		<path id="Trazado_16453" class="st0" d="M333.5,103.3c4.3-1,2.5-8.6-1.8-7.6c-2.1,0.3-3.6,2.3-3.3,4.4c0.3,2.1,2.3,3.6,4.4,3.3
			C333.1,103.4,333.3,103.3,333.5,103.3z"/>
	</g>
	<g id="Grupo_96" transform="translate(309.567 109.604)">
		<path id="Trazado_16454" class="st0" d="M340,104.6c4.3-1,2.5-8.6-1.8-7.6c-2.1,0.3-3.6,2.3-3.3,4.4c0.3,2.1,2.3,3.6,4.4,3.3
			C339.5,104.7,339.7,104.6,340,104.6z"/>
	</g>
	<g id="Grupo_97" transform="translate(298.405 112.256)">
		<path id="Trazado_16455" class="st0" d="M337,105.3c4.3-1,2.5-8.6-1.8-7.6c-2.1,0.3-3.6,2.3-3.3,4.4c0.3,2.1,2.3,3.6,4.4,3.3
			C336.6,105.4,336.8,105.3,337,105.3z"/>
	</g>
	<g id="Grupo_98" transform="translate(287.245 114.906)">
		<path id="Trazado_16456" class="st0" d="M334.1,106c4.3-1,2.5-8.6-1.8-7.6c-2.1,0.3-3.6,2.3-3.3,4.4c0.3,2.1,2.3,3.6,4.4,3.3
			C333.7,106.1,333.9,106,334.1,106z"/>
	</g>
	<g id="Grupo_99" transform="translate(276.084 117.557)">
		<path id="Trazado_16457" class="st0" d="M331.2,106.6c4.3-1,2.5-8.6-1.8-7.6c-2.1,0.3-3.6,2.3-3.3,4.4c0.3,2.1,2.3,3.6,4.4,3.3
			C330.8,106.8,331,106.7,331.2,106.6z"/>
	</g>
	<g id="Grupo_100" transform="translate(312.013 119.907)">
		<path id="Trazado_16458" class="st0" d="M340.6,107.3c4.3-1,2.5-8.6-1.8-7.6c-2.1,0.3-3.6,2.3-3.3,4.4c0.3,2.1,2.3,3.6,4.4,3.3
			C340.2,107.4,340.4,107.3,340.6,107.3z"/>
	</g>
	<g id="Grupo_101" transform="translate(300.852 122.558)">
		<path id="Trazado_16459" class="st0" d="M337.7,107.9c4.3-1,2.5-8.6-1.8-7.6c-2.1,0.3-3.6,2.3-3.3,4.4c0.3,2.1,2.3,3.6,4.4,3.3
			C337.2,108.1,337.5,108,337.7,107.9z"/>
	</g>
	<g id="Grupo_102" transform="translate(289.692 125.209)">
		<path id="Trazado_16460" class="st0" d="M334.8,108.6c4.3-1,2.5-8.6-1.8-7.6c-2.1,0.3-3.6,2.3-3.3,4.4c0.3,2.1,2.3,3.6,4.4,3.3
			C334.3,108.8,334.6,108.7,334.8,108.6z"/>
	</g>
	<g id="Grupo_103" transform="translate(278.531 127.86)">
		<path id="Trazado_16461" class="st0" d="M331.9,109.3c4.3-1,2.5-8.6-1.8-7.6c-2.1,0.3-3.6,2.3-3.3,4.4c0.3,2.1,2.3,3.6,4.4,3.3
			C331.5,109.4,331.7,109.4,331.9,109.3z"/>
	</g>
</g>
<g id="Memphis_2_1_" transform="translate(823.916 65)">
	<g id="Grupo_91_1_" transform="translate(304.672 89)">
		<path id="Trazado_16449_1_" class="st0" d="M-62.3,394.2c4.3-1,2.5-8.6-1.8-7.6c-2.1,0.3-3.6,2.3-3.3,4.4c0.3,2.1,2.3,3.6,4.4,3.3
			C-62.8,394.3-62.5,394.3-62.3,394.2z"/>
	</g>
	<g id="Grupo_92_1_" transform="translate(293.512 91.651)">
		<path id="Trazado_16450_1_" class="st0" d="M-65.2,394.9c4.3-1,2.5-8.6-1.8-7.6c-2.1,0.3-3.6,2.3-3.3,4.4c0.3,2.1,2.3,3.6,4.4,3.3
			C-65.7,395-65.4,395-65.2,394.9z"/>
	</g>
	<g id="Grupo_93_1_" transform="translate(307.119 99.302)">
		<path id="Trazado_16451_1_" class="st0" d="M-61.7,396.9c4.3-1,2.5-8.6-1.8-7.6c-2.1,0.3-3.6,2.3-3.3,4.4c0.3,2.1,2.3,3.6,4.4,3.3
			C-62.1,397-61.9,397-61.7,396.9z"/>
	</g>
	<g id="Grupo_94_1_" transform="translate(295.959 101.953)">
		<path id="Trazado_16452_1_" class="st0" d="M-64.6,397.6c4.3-1,2.5-8.6-1.8-7.6c-2.1,0.3-3.6,2.3-3.3,4.4c0.3,2.1,2.3,3.6,4.4,3.3
			C-65,397.7-64.8,397.7-64.6,397.6z"/>
	</g>
	<g id="Grupo_95_1_" transform="translate(284.798 104.604)">
		<path id="Trazado_16453_1_" class="st0" d="M-67.5,398.3c4.3-1,2.5-8.6-1.8-7.6c-2.1,0.3-3.6,2.3-3.3,4.4c0.3,2.1,2.3,3.6,4.4,3.3
			C-67.9,398.4-67.7,398.3-67.5,398.3z"/>
	</g>
	<g id="Grupo_96_1_" transform="translate(309.567 109.604)">
		<path id="Trazado_16454_1_" class="st0" d="M-61,399.6c4.3-1,2.5-8.6-1.8-7.6c-2.1,0.3-3.6,2.3-3.3,4.4s2.3,3.6,4.4,3.3
			C-61.5,399.7-61.3,399.6-61,399.6z"/>
	</g>
	<g id="Grupo_97_1_" transform="translate(298.405 112.256)">
		<path id="Trazado_16455_1_" class="st0" d="M-64,400.3c4.3-1,2.5-8.6-1.8-7.6c-2.1,0.3-3.6,2.3-3.3,4.4c0.3,2.1,2.3,3.6,4.4,3.3
			C-64.4,400.4-64.2,400.3-64,400.3z"/>
	</g>
	<g id="Grupo_98_1_" transform="translate(287.245 114.906)">
		<path id="Trazado_16456_1_" class="st0" d="M-66.9,401c4.3-1,2.5-8.6-1.8-7.6c-2.1,0.3-3.6,2.3-3.3,4.4c0.3,2.1,2.3,3.6,4.4,3.3
			C-67.3,401.1-67.1,401-66.9,401z"/>
	</g>
	<g id="Grupo_99_1_" transform="translate(276.084 117.557)">
		<path id="Trazado_16457_1_" class="st0" d="M-69.8,401.6c4.3-1,2.5-8.6-1.8-7.6c-2.1,0.3-3.6,2.3-3.3,4.4c0.3,2.1,2.3,3.6,4.4,3.3
			C-70.2,401.8-70,401.7-69.8,401.6z"/>
	</g>
	<g id="Grupo_100_1_" transform="translate(312.013 119.907)">
		<path id="Trazado_16458_1_" class="st0" d="M-60.4,402.3c4.3-1,2.5-8.6-1.8-7.6c-2.1,0.3-3.6,2.3-3.3,4.4c0.3,2.1,2.3,3.6,4.4,3.3
			C-60.8,402.4-60.6,402.3-60.4,402.3z"/>
	</g>
	<g id="Grupo_101_1_" transform="translate(300.852 122.558)">
		<path id="Trazado_16459_1_" class="st0" d="M-63.3,402.9c4.3-1,2.5-8.6-1.8-7.6c-2.1,0.3-3.6,2.3-3.3,4.4c0.3,2.1,2.3,3.6,4.4,3.3
			C-63.8,403.1-63.5,403-63.3,402.9z"/>
	</g>
	<g id="Grupo_102_1_" transform="translate(289.692 125.209)">
		<path id="Trazado_16460_1_" class="st0" d="M-66.2,403.6c4.3-1,2.5-8.6-1.8-7.6c-2.1,0.3-3.6,2.3-3.3,4.4c0.3,2.1,2.3,3.6,4.4,3.3
			C-66.7,403.8-66.4,403.7-66.2,403.6z"/>
	</g>
	<g id="Grupo_103_1_" transform="translate(278.531 127.86)">
		<path id="Trazado_16461_1_" class="st0" d="M-69.1,404.3c4.3-1,2.5-8.6-1.8-7.6c-2.1,0.3-3.6,2.3-3.3,4.4s2.3,3.6,4.4,3.3
			C-69.5,404.4-69.3,404.4-69.1,404.3z"/>
	</g>
</g>
<g id="Memphis_3-2" transform="translate(-0.41 17.277)">
	<g id="Grupo_85-2" transform="translate(32.41 585.714)">
		<path id="Trazado_16443-2" class="st0" d="M79.5,246.5c-0.1,0-0.2,0-0.3,0l-29-4.5c-1.1-0.2-1.9-1.2-1.7-2.4c0,0,0,0,0,0l5.1-29.6
			c0.2-1.1,1.3-1.9,2.4-1.7c1.1,0.2,1.9,1.3,1.7,2.4l-4.7,27.5l26.9,4.1c1.1,0.2,1.9,1.2,1.7,2.4C81.4,245.7,80.5,246.5,79.5,246.5
			L79.5,246.5z"/>
	</g>
	<g id="Grupo_86-2" transform="translate(42.849 578.384)">
		<path id="Trazado_16444-2" class="st0" d="M82.2,244.6c-0.1,0-0.2,0-0.3,0l-29-4.5c-1.1-0.2-1.9-1.2-1.7-2.4c0,0,0,0,0,0l5.1-29.6
			c0.2-1.1,1.3-1.9,2.4-1.7c1.1,0.2,1.9,1.3,1.7,2.4l-4.7,27.5l26.9,4.1c1.1,0.2,1.9,1.2,1.7,2.4C84.1,243.8,83.2,244.6,82.2,244.6
			L82.2,244.6z"/>
	</g>
	<g id="Grupo_87-2" transform="translate(53.287 571.053)">
		<path id="Trazado_16445-2" class="st0" d="M84.9,242.7c-0.1,0-0.2,0-0.3,0l-29-4.5c-1.1-0.2-1.9-1.2-1.7-2.4c0,0,0,0,0,0l5.1-29.6
			c0.2-1.1,1.3-1.9,2.4-1.7c1.1,0.2,1.9,1.3,1.7,2.4l-4.7,27.5l26.9,4.1c1.1,0.2,1.9,1.2,1.7,2.4C86.8,241.9,85.9,242.7,84.9,242.7
			L84.9,242.7z"/>
	</g>
	<g id="Grupo_88-2" transform="translate(63.726 563.723)">
		<path id="Trazado_16446-2" class="st0" d="M87.6,240.8c-0.1,0-0.2,0-0.3,0l-29-4.5c-1.1-0.2-1.9-1.2-1.7-2.4c0,0,0,0,0,0l5.1-29.6
			c0.2-1.1,1.3-1.9,2.4-1.7c1.1,0.2,1.9,1.3,1.7,2.4l-4.7,27.5l26.9,4.1c1.1,0.2,1.9,1.2,1.7,2.4C89.5,240,88.7,240.8,87.6,240.8
			L87.6,240.8z"/>
	</g>
</g>
<g id="Memphis_3-2_1_" transform="translate(-0.41 17.277)">
	<g id="Grupo_85-2_1_" transform="translate(32.41 585.714)">
		<path id="Trazado_16443-2_1_" class="st0" d="M1686.4-465.1c0,0.1,0,0.2-0.1,0.3l-9,27.9c-0.4,1.1-1.5,1.7-2.6,1.3c0,0,0,0,0,0
			l-28.4-9.7c-1.1-0.4-1.7-1.6-1.3-2.6c0.4-1.1,1.6-1.7,2.6-1.3l26.4,9l8.3-25.9c0.4-1.1,1.5-1.7,2.6-1.3
			C1686-467.1,1686.6-466.1,1686.4-465.1L1686.4-465.1z"/>
	</g>
	<g id="Grupo_86-2_1_" transform="translate(42.849 578.384)">
		<path id="Trazado_16444-2_1_" class="st0" d="M1668.9-472.2c0,0.1,0,0.2-0.1,0.3l-9,27.9c-0.4,1.1-1.5,1.7-2.6,1.3c0,0,0,0,0,0
			l-28.4-9.7c-1.1-0.4-1.7-1.6-1.3-2.6c0.4-1.1,1.6-1.7,2.6-1.3l26.4,9l8.3-25.9c0.4-1.1,1.5-1.7,2.6-1.3
			C1668.5-474.2,1669.1-473.2,1668.9-472.2L1668.9-472.2z"/>
	</g>
	<g id="Grupo_87-2_1_" transform="translate(53.287 571.053)">
		<path id="Trazado_16445-2_1_" class="st0" d="M1651.5-479.3c0,0.1,0,0.2-0.1,0.3l-9,27.9c-0.4,1.1-1.5,1.7-2.6,1.3c0,0,0,0,0,0
			l-28.4-9.7c-1.1-0.4-1.7-1.6-1.3-2.6c0.4-1.1,1.6-1.7,2.6-1.3l26.4,9l8.3-25.9c0.4-1.1,1.5-1.7,2.6-1.3
			C1651-481.3,1651.6-480.3,1651.5-479.3L1651.5-479.3z"/>
	</g>
	<g id="Grupo_88-2_1_" transform="translate(63.726 563.723)">
		<path id="Trazado_16446-2_1_" class="st0" d="M1634-486.4c0,0.1,0,0.2-0.1,0.3l-9,27.9c-0.4,1.1-1.5,1.7-2.6,1.3c0,0,0,0,0,0
			l-28.4-9.7c-1.1-0.4-1.7-1.6-1.3-2.6c0.4-1.1,1.6-1.7,2.6-1.3l26.4,9l8.3-25.9c0.4-1.1,1.5-1.7,2.6-1.3
			C1633.5-488.4,1634.1-487.4,1634-486.4L1634-486.4z"/>
	</g>
</g>
<g id="Memphis_3-2_2_" transform="translate(-0.41 17.277)">
	<g id="Grupo_85-2_2_" transform="translate(32.41 585.714)">
		<path id="Trazado_16443-2_2_" class="st0" d="M469.4,379.9c0,0.1,0,0.2-0.1,0.3l-9,27.9c-0.4,1.1-1.5,1.7-2.6,1.3c0,0,0,0,0,0
			l-28.4-9.7c-1.1-0.4-1.7-1.6-1.3-2.6s1.6-1.7,2.6-1.3l26.4,9l8.3-25.9c0.4-1.1,1.5-1.7,2.6-1.3C469,377.9,469.6,378.9,469.4,379.9
			L469.4,379.9z"/>
	</g>
	<g id="Grupo_86-2_2_" transform="translate(42.849 578.384)">
		<path id="Trazado_16444-2_2_" class="st0" d="M451.9,372.8c0,0.1,0,0.2-0.1,0.3l-9,27.9c-0.4,1.1-1.5,1.7-2.6,1.3c0,0,0,0,0,0
			l-28.4-9.7c-1.1-0.4-1.7-1.6-1.3-2.6c0.4-1.1,1.6-1.7,2.6-1.3l26.4,9l8.3-25.9c0.4-1.1,1.5-1.7,2.6-1.3
			C451.5,370.8,452.1,371.8,451.9,372.8L451.9,372.8z"/>
	</g>
	<g id="Grupo_87-2_2_" transform="translate(53.287 571.053)">
		<path id="Trazado_16445-2_2_" class="st0" d="M434.5,365.7c0,0.1,0,0.2-0.1,0.3l-9,27.9c-0.4,1.1-1.5,1.7-2.6,1.3c0,0,0,0,0,0
			l-28.4-9.7c-1.1-0.4-1.7-1.6-1.3-2.6c0.4-1.1,1.6-1.7,2.6-1.3l26.4,9l8.3-25.9c0.4-1.1,1.5-1.7,2.6-1.3
			C434,363.7,434.6,364.7,434.5,365.7L434.5,365.7z"/>
	</g>
	<g id="Grupo_88-2_2_" transform="translate(63.726 563.723)">
		<path id="Trazado_16446-2_2_" class="st0" d="M417,358.6c0,0.1,0,0.2-0.1,0.3l-9,27.9c-0.4,1.1-1.5,1.7-2.6,1.3c0,0,0,0,0,0
			l-28.4-9.7c-1.1-0.4-1.7-1.6-1.3-2.6c0.4-1.1,1.6-1.7,2.6-1.3l26.4,9l8.3-25.9c0.4-1.1,1.5-1.7,2.6-1.3
			C416.5,356.6,417.1,357.6,417,358.6L417,358.6z"/>
	</g>
</g>
<g id="Memphis_4-2" transform="translate(973 -546)">
	<g id="Grupo_108-2" transform="translate(-18 1283.768)">
		<path id="Trazado_16465-2" class="st0" d="M293.2,243.8c-3-2.1-6.7,3.2-3.6,5.3c1.4,1.1,3.4,0.9,4.5-0.5c1.1-1.4,0.9-3.4-0.5-4.5
			C293.5,244,293.4,243.9,293.2,243.8z"/>
	</g>
	<g id="Grupo_109-2" transform="translate(-10.177 1289.123)">
		<path id="Trazado_16466-2" class="st0" d="M295.3,245.2c-3-2.1-6.7,3.2-3.6,5.3c1.4,1.1,3.4,0.9,4.5-0.5c1.1-1.4,0.9-3.4-0.5-4.5
			C295.5,245.4,295.4,245.3,295.3,245.2z"/>
	</g>
	<g id="Grupo_110-2" transform="translate(-2.355 1294.479)">
		<path id="Trazado_16467-2" class="st0" d="M297.3,246.6c-3-2.1-6.7,3.2-3.6,5.3c1.4,1.1,3.4,0.9,4.5-0.5c1.1-1.4,0.9-3.4-0.5-4.5
			C297.6,246.8,297.4,246.7,297.3,246.6z"/>
	</g>
	<g id="Grupo_111-2" transform="translate(5.468 1299.835)">
		<path id="Trazado_16468-2" class="st0" d="M299.3,248c-3-2.1-6.7,3.2-3.6,5.3c1.4,1.1,3.4,0.9,4.5-0.5c1.1-1.4,0.9-3.4-0.5-4.5
			C299.6,248.2,299.5,248.1,299.3,248z"/>
	</g>
	<g id="Grupo_112-2" transform="translate(13.291 1305.191)">
		<path id="Trazado_16469-2" class="st0" d="M301.4,249.4c-3-2.1-6.7,3.2-3.6,5.3c1.4,1.1,3.4,0.9,4.5-0.5c1.1-1.4,0.9-3.4-0.5-4.5
			C301.6,249.6,301.5,249.5,301.4,249.4z"/>
	</g>
	<g id="Grupo_113-2" transform="translate(21.114 1310.547)">
		<path id="Trazado_16470-2" class="st0" d="M303.4,250.8c-3-2.1-6.7,3.2-3.6,5.3c1.4,1.1,3.4,0.9,4.5-0.5c1.1-1.4,0.9-3.4-0.5-4.5
			C303.7,251,303.5,250.9,303.4,250.8z"/>
	</g>
	<g id="Grupo_114-2" transform="translate(28.937 1315.902)">
		<path id="Trazado_16471-2" class="st0" d="M305.5,252.2c-3-2.1-6.7,3.2-3.6,5.3c1.4,1.1,3.4,0.9,4.5-0.5c1.1-1.4,0.9-3.4-0.5-4.5
			C305.7,252.4,305.6,252.3,305.5,252.2z"/>
	</g>
	<g id="Grupo_115-2" transform="translate(36.759 1321.258)">
		<path id="Trazado_16472-2" class="st0" d="M307.5,253.6c-3-2.1-6.7,3.2-3.6,5.3c1.4,1.1,3.4,0.9,4.5-0.5s0.9-3.4-0.5-4.5
			C307.7,253.8,307.6,253.7,307.5,253.6z"/>
	</g>
	<g id="Grupo_116-2" transform="translate(-13.056 1276.547)">
		<path id="Trazado_16473-2" class="st0" d="M294.5,242c-3-2.1-6.7,3.2-3.6,5.3c1.4,1.1,3.4,0.9,4.5-0.5c1.1-1.4,0.9-3.4-0.5-4.5
			C294.8,242.1,294.7,242,294.5,242z"/>
	</g>
	<g id="Grupo_117-2" transform="translate(-5.234 1281.903)">
		<path id="Trazado_16474-2" class="st0" d="M296.6,243.4c-3-2.1-6.7,3.2-3.6,5.3c1.4,1.1,3.4,0.9,4.5-0.5c1.1-1.4,0.9-3.4-0.5-4.5
			C296.8,243.5,296.7,243.4,296.6,243.4z"/>
	</g>
	<g id="Grupo_118-2" transform="translate(2.589 1287.258)">
		<path id="Trazado_16475-2" class="st0" d="M298.6,244.7c-3-2.1-6.7,3.2-3.6,5.3c1.4,1.1,3.4,0.9,4.5-0.5c1.1-1.4,0.9-3.4-0.5-4.5
			C298.9,244.9,298.7,244.8,298.6,244.7z"/>
	</g>
	<g id="Grupo_119-2" transform="translate(10.412 1292.614)">
		<path id="Trazado_16476-2" class="st0" d="M300.6,246.1c-3-2.1-6.7,3.2-3.6,5.3c1.4,1.1,3.4,0.9,4.5-0.5c1.1-1.4,0.9-3.4-0.5-4.5
			C300.9,246.3,300.8,246.2,300.6,246.1z"/>
	</g>
	<g id="Grupo_120-2" transform="translate(18.235 1297.97)">
		<path id="Trazado_16477-2" class="st0" d="M302.7,247.5c-3-2.1-6.7,3.2-3.6,5.3c1.4,1.1,3.4,0.9,4.5-0.5c1.1-1.4,0.9-3.4-0.5-4.5
			C302.9,247.7,302.8,247.6,302.7,247.5z"/>
	</g>
	<g id="Grupo_121-2" transform="translate(26.057 1303.325)">
		<path id="Trazado_16478-2" class="st0" d="M304.7,248.9c-3-2.1-6.7,3.2-3.6,5.3c1.4,1.1,3.4,0.9,4.5-0.5c1.1-1.4,0.9-3.4-0.5-4.5
			C305,249.1,304.8,249,304.7,248.9z"/>
	</g>
	<g id="Grupo_122-2" transform="translate(33.88 1308.681)">
		<path id="Trazado_16479-2" class="st0" d="M306.7,250.3c-3-2.1-6.7,3.2-3.6,5.3c1.4,1.1,3.4,0.9,4.5-0.5c1.1-1.4,0.9-3.4-0.5-4.5
			C307,250.5,306.9,250.4,306.7,250.3z"/>
	</g>
	<g id="Grupo_123-2" transform="translate(41.703 1314.037)">
		<path id="Trazado_16480-2" class="st0" d="M308.8,251.7c-3-2.1-6.7,3.2-3.6,5.3c1.4,1.1,3.4,0.9,4.5-0.5s0.9-3.4-0.5-4.5
			C309,251.9,308.9,251.8,308.8,251.7z"/>
	</g>
	<g id="Grupo_124-2" transform="translate(-8.112 1269.326)">
		<path id="Trazado_16481-2" class="st0" d="M295.8,240.1c-3-2.1-6.7,3.2-3.6,5.3c1.4,1.1,3.4,0.9,4.5-0.5c1.1-1.4,0.9-3.4-0.5-4.5
			C296.1,240.2,295.9,240.2,295.8,240.1z"/>
	</g>
	<g id="Grupo_125-2" transform="translate(-0.29 1274.682)">
		<path id="Trazado_16482-2" class="st0" d="M297.9,241.5c-3-2.1-6.7,3.2-3.6,5.3c1.4,1.1,3.4,0.9,4.5-0.5c1.1-1.4,0.9-3.4-0.5-4.5
			C298.1,241.6,298,241.6,297.9,241.5z"/>
	</g>
	<g id="Grupo_126-2" transform="translate(7.533 1280.037)">
		<path id="Trazado_16483-2" class="st0" d="M299.9,242.9c-3-2.1-6.7,3.2-3.6,5.3c1.4,1.1,3.4,0.9,4.5-0.5c1.1-1.4,0.9-3.4-0.5-4.5
			C300.1,243,300,242.9,299.9,242.9z"/>
	</g>
	<g id="Grupo_127-2" transform="translate(15.356 1285.393)">
		<path id="Trazado_16484-2" class="st0" d="M301.9,244.3c-3-2.1-6.7,3.2-3.6,5.3c1.4,1.1,3.4,0.9,4.5-0.5c1.1-1.4,0.9-3.4-0.5-4.5
			C302.2,244.4,302,244.3,301.9,244.3z"/>
	</g>
	<g id="Grupo_128-2" transform="translate(23.178 1290.749)">
		<path id="Trazado_16485-2" class="st0" d="M304,245.7c-3-2.1-6.7,3.2-3.6,5.3c1.4,1.1,3.4,0.9,4.5-0.5c1.1-1.4,0.9-3.4-0.5-4.5
			C304.2,245.8,304.1,245.7,304,245.7z"/>
	</g>
	<g id="Grupo_129-2" transform="translate(31.001 1296.105)">
		<path id="Trazado_16486-2" class="st0" d="M306,247.1c-3-2.1-6.7,3.2-3.6,5.3c1.4,1.1,3.4,0.9,4.5-0.5c1.1-1.4,0.9-3.4-0.5-4.5
			C306.2,247.2,306.1,247.1,306,247.1z"/>
	</g>
	<g id="Grupo_130-2" transform="translate(38.824 1301.46)">
		<path id="Trazado_16487-2" class="st0" d="M308,248.4c-3-2.1-6.7,3.2-3.6,5.3c1.4,1.1,3.4,0.9,4.5-0.5c1.1-1.4,0.9-3.4-0.5-4.5
			C308.3,248.6,308.2,248.5,308,248.4z"/>
	</g>
	<g id="Grupo_131-2" transform="translate(46.647 1306.816)">
		<path id="Trazado_16488-2" class="st0" d="M310.1,249.8c-3-2.1-6.7,3.2-3.6,5.3c1.4,1.1,3.4,0.9,4.5-0.5c1.1-1.4,0.9-3.4-0.5-4.5
			C310.3,250,310.2,249.9,310.1,249.8z"/>
	</g>
	<g id="Grupo_132-2" transform="translate(-3.169 1262.105)">
		<path id="Trazado_16489-2" class="st0" d="M297.1,238.2c-3-2.1-6.7,3.2-3.6,5.3c1.4,1.1,3.4,0.9,4.5-0.5c1.1-1.4,0.9-3.4-0.5-4.5
			C297.3,238.4,297.2,238.3,297.1,238.2z"/>
	</g>
	<g id="Grupo_133-2" transform="translate(4.654 1267.461)">
		<path id="Trazado_16490-2" class="st0" d="M299.1,239.6c-3-2.1-6.7,3.2-3.6,5.3c1.4,1.1,3.4,0.9,4.5-0.5c1.1-1.4,0.9-3.4-0.5-4.5
			C299.4,239.8,299.3,239.7,299.1,239.6z"/>
	</g>
	<g id="Grupo_134-2" transform="translate(12.477 1272.816)">
		<path id="Trazado_16491-2" class="st0" d="M301.2,241c-3-2.1-6.7,3.2-3.6,5.3c1.4,1.1,3.4,0.9,4.5-0.5c1.1-1.4,0.9-3.4-0.5-4.5
			C301.4,241.2,301.3,241.1,301.2,241z"/>
	</g>
	<g id="Grupo_135-2" transform="translate(20.3 1278.172)">
		<path id="Trazado_16492-2" class="st0" d="M303.2,242.4c-3-2.1-6.7,3.2-3.6,5.3c1.4,1.1,3.4,0.9,4.5-0.5c1.1-1.4,0.9-3.4-0.5-4.5
			C303.5,242.6,303.3,242.5,303.2,242.4z"/>
	</g>
	<g id="Grupo_136-2" transform="translate(28.122 1283.528)">
		<path id="Trazado_16493-2" class="st0" d="M305.2,243.8c-3-2.1-6.7,3.2-3.6,5.3c1.4,1.1,3.4,0.9,4.5-0.5c1.1-1.4,0.9-3.4-0.5-4.5
			C305.5,243.9,305.4,243.9,305.2,243.8z"/>
	</g>
	<g id="Grupo_137-2" transform="translate(35.945 1288.884)">
		<path id="Trazado_16494-2" class="st0" d="M307.3,245.2c-3-2.1-6.7,3.2-3.6,5.3c1.4,1.1,3.4,0.9,4.5-0.5s0.9-3.4-0.5-4.5
			C307.5,245.3,307.4,245.3,307.3,245.2z"/>
	</g>
	<g id="Grupo_138-2" transform="translate(43.768 1294.239)">
		<path id="Trazado_16495-2" class="st0" d="M309.3,246.6c-3-2.1-6.7,3.2-3.6,5.3c1.4,1.1,3.4,0.9,4.5-0.5s0.9-3.4-0.5-4.5
			C309.6,246.7,309.4,246.6,309.3,246.6z"/>
	</g>
	<g id="Grupo_139-2" transform="translate(51.59 1299.595)">
		<path id="Trazado_16496-2" class="st0" d="M311.3,248c-3-2.1-6.7,3.2-3.6,5.3c1.4,1.1,3.4,0.9,4.5-0.5c1.1-1.4,0.9-3.4-0.5-4.5
			C311.6,248.1,311.5,248,311.3,248z"/>
	</g>
	<g id="Grupo_140-2" transform="translate(1.775 1254.884)">
		<path id="Trazado_16497-2" class="st0" d="M298.4,236.3c-3-2.1-6.7,3.2-3.6,5.3c1.4,1.1,3.4,0.9,4.5-0.5c1.1-1.4,0.9-3.4-0.5-4.5
			C298.6,236.5,298.5,236.4,298.4,236.3z"/>
	</g>
	<g id="Grupo_141-2" transform="translate(9.598 1260.24)">
		<path id="Trazado_16498-2" class="st0" d="M300.4,237.7c-3-2.1-6.7,3.2-3.6,5.3c1.4,1.1,3.4,0.9,4.5-0.5c1.1-1.4,0.9-3.4-0.5-4.5
			C300.7,237.9,300.5,237.8,300.4,237.7z"/>
	</g>
	<g id="Grupo_142-2" transform="translate(17.42 1265.595)">
		<path id="Trazado_16499-2" class="st0" d="M302.5,239.1c-3-2.1-6.7,3.2-3.6,5.3c1.4,1.1,3.4,0.9,4.5-0.5c1.1-1.4,0.9-3.4-0.5-4.5
			C302.7,239.3,302.6,239.2,302.5,239.1z"/>
	</g>
	<g id="Grupo_143-2" transform="translate(25.243 1270.951)">
		<path id="Trazado_16500-2" class="st0" d="M304.5,240.5c-3-2.1-6.7,3.2-3.6,5.3c1.4,1.1,3.4,0.9,4.5-0.5c1.1-1.4,0.9-3.4-0.5-4.5
			C304.7,240.7,304.6,240.6,304.5,240.5z"/>
	</g>
	<g id="Grupo_144-2" transform="translate(33.066 1276.307)">
		<path id="Trazado_16501-2" class="st0" d="M306.5,241.9c-3-2.1-6.7,3.2-3.6,5.3c1.4,1.1,3.4,0.9,4.5-0.5c1.1-1.4,0.9-3.4-0.5-4.5
			C306.8,242.1,306.7,242,306.5,241.9z"/>
	</g>
	<g id="Grupo_145-2" transform="translate(40.889 1281.663)">
		<path id="Trazado_16502-2" class="st0" d="M308.6,243.3c-3-2.1-6.7,3.2-3.6,5.3c1.4,1.1,3.4,0.9,4.5-0.5c1.1-1.4,0.9-3.4-0.5-4.5
			C308.8,243.5,308.7,243.4,308.6,243.3z"/>
	</g>
	<g id="Grupo_146-2" transform="translate(48.712 1287.018)">
		<path id="Trazado_16503-2" class="st0" d="M310.6,244.7c-3-2.1-6.7,3.2-3.6,5.3c1.4,1.1,3.4,0.9,4.5-0.5c1.1-1.4,0.9-3.4-0.5-4.5
			C310.8,244.8,310.7,244.8,310.6,244.7z"/>
	</g>
	<g id="Grupo_147-2" transform="translate(56.534 1292.374)">
		<path id="Trazado_16504-2" class="st0" d="M312.6,246.1c-3-2.1-6.7,3.2-3.6,5.3c1.4,1.1,3.4,0.9,4.5-0.5c1.1-1.4,0.9-3.4-0.5-4.5
			C312.9,246.2,312.8,246.2,312.6,246.1z"/>
	</g>
	<g id="Grupo_148-2" transform="translate(6.719 1247.663)">
		<path id="Trazado_16505-2" class="st0" d="M299.7,234.5c-3-2.1-6.7,3.2-3.6,5.3c1.4,1.1,3.4,0.9,4.5-0.5c1.1-1.4,0.9-3.4-0.5-4.5
			C299.9,234.6,299.8,234.5,299.7,234.5z"/>
	</g>
	<g id="Grupo_149-2" transform="translate(14.541 1253.019)">
		<path id="Trazado_16506-2" class="st0" d="M301.7,235.8c-3-2.1-6.7,3.2-3.6,5.3c1.4,1.1,3.4,0.9,4.5-0.5c1.1-1.4,0.9-3.4-0.5-4.5
			C302,236,301.8,235.9,301.7,235.8z"/>
	</g>
	<g id="Grupo_150-2" transform="translate(22.364 1258.374)">
		<path id="Trazado_16507-2" class="st0" d="M303.7,237.2c-3-2.1-6.7,3.2-3.6,5.3c1.4,1.1,3.4,0.9,4.5-0.5c1.1-1.4,0.9-3.4-0.5-4.5
			C304,237.4,303.9,237.3,303.7,237.2z"/>
	</g>
	<g id="Grupo_151-2" transform="translate(30.187 1263.73)">
		<path id="Trazado_16508-2" class="st0" d="M305.8,238.6c-3-2.1-6.7,3.2-3.6,5.3c1.4,1.1,3.4,0.9,4.5-0.5s0.9-3.4-0.5-4.5
			C306,238.8,305.9,238.7,305.8,238.6z"/>
	</g>
	<g id="Grupo_152-2" transform="translate(38.01 1269.086)">
		<path id="Trazado_16509-2" class="st0" d="M307.8,240c-3-2.1-6.7,3.2-3.6,5.3c1.4,1.1,3.4,0.9,4.5-0.5s0.9-3.4-0.5-4.5
			C308.1,240.2,307.9,240.1,307.8,240z"/>
	</g>
	<g id="Grupo_153-2" transform="translate(45.832 1274.441)">
		<path id="Trazado_16510-2" class="st0" d="M309.8,241.4c-3-2.1-6.7,3.2-3.6,5.3c1.4,1.1,3.4,0.9,4.5-0.5c1.1-1.4,0.9-3.4-0.5-4.5
			C310.1,241.6,310,241.5,309.8,241.4z"/>
	</g>
	<g id="Grupo_154-2" transform="translate(53.655 1279.797)">
		<path id="Trazado_16511-2" class="st0" d="M311.9,242.8c-3-2.1-6.7,3.2-3.6,5.3c1.4,1.1,3.4,0.9,4.5-0.5c1.1-1.4,0.9-3.4-0.5-4.5
			C312.1,243,312,242.9,311.9,242.8z"/>
	</g>
	<g id="Grupo_155-2" transform="translate(61.478 1285.153)">
		<path id="Trazado_16512-2" class="st0" d="M313.9,244.2c-3-2.1-6.7,3.2-3.6,5.3c1.4,1.1,3.4,0.9,4.5-0.5c1.1-1.4,0.9-3.4-0.5-4.5
			C314.2,244.4,314,244.3,313.9,244.2z"/>
	</g>
	<g id="Grupo_156-2" transform="translate(11.662 1240.442)">
		<path id="Trazado_16513-2" class="st0" d="M301,232.6c-3-2.1-6.7,3.2-3.6,5.3c1.4,1.1,3.4,0.9,4.5-0.5c1.1-1.4,0.9-3.4-0.5-4.5
			C301.2,232.7,301.1,232.6,301,232.6z"/>
	</g>
	<g id="Grupo_157-2" transform="translate(19.485 1245.798)">
		<path id="Trazado_16514-2" class="st0" d="M303,234c-3-2.1-6.7,3.2-3.6,5.3c1.4,1.1,3.4,0.9,4.5-0.5c1.1-1.4,0.9-3.4-0.5-4.5
			C303.2,234.1,303.1,234,303,234z"/>
	</g>
	<g id="Grupo_158-2" transform="translate(27.308 1251.153)">
		<path id="Trazado_16515-2" class="st0" d="M305,235.4c-3-2.1-6.7,3.2-3.6,5.3c1.4,1.1,3.4,0.9,4.5-0.5c1.1-1.4,0.9-3.4-0.5-4.5
			C305.3,235.5,305.2,235.4,305,235.4z"/>
	</g>
	<g id="Grupo_159-2" transform="translate(35.131 1256.509)">
		<path id="Trazado_16516-2" class="st0" d="M307.1,236.8c-3-2.1-6.7,3.2-3.6,5.3c1.4,1.1,3.4,0.9,4.5-0.5c1.1-1.4,0.9-3.4-0.5-4.5
			C307.3,236.9,307.2,236.8,307.1,236.8z"/>
	</g>
	<g id="Grupo_160-2" transform="translate(42.953 1261.865)">
		<path id="Trazado_16517-2" class="st0" d="M309.1,238.1c-3-2.1-6.7,3.2-3.6,5.3c1.4,1.1,3.4,0.9,4.5-0.5c1.1-1.4,0.9-3.4-0.5-4.5
			C309.3,238.3,309.2,238.2,309.1,238.1z"/>
	</g>
	<g id="Grupo_161-2" transform="translate(50.776 1267.221)">
		<path id="Trazado_16518-2" class="st0" d="M311.1,239.5c-3-2.1-6.7,3.2-3.6,5.3c1.4,1.1,3.4,0.9,4.5-0.5c1.1-1.4,0.9-3.4-0.5-4.5
			C311.4,239.7,311.3,239.6,311.1,239.5z"/>
	</g>
	<g id="Grupo_162-2" transform="translate(58.599 1272.576)">
		<path id="Trazado_16519-2" class="st0" d="M313.2,240.9c-3-2.1-6.7,3.2-3.6,5.3c1.4,1.1,3.4,0.9,4.5-0.5c1.1-1.4,0.9-3.4-0.5-4.5
			C313.4,241.1,313.3,241,313.2,240.9z"/>
	</g>
	<g id="Grupo_163-2" transform="translate(66.422 1277.932)">
		<path id="Trazado_16520-2" class="st0" d="M315.2,242.3c-3-2.1-6.7,3.2-3.6,5.3c1.4,1.1,3.4,0.9,4.5-0.5s0.9-3.4-0.5-4.5
			C315.5,242.5,315.3,242.4,315.2,242.3z"/>
	</g>
	<g id="Grupo_164-2" transform="translate(16.606 1233.221)">
		<path id="Trazado_16521-2" class="st0" d="M302.2,230.7c-3-2.1-6.7,3.2-3.6,5.3c1.4,1.1,3.4,0.9,4.5-0.5s0.9-3.4-0.5-4.5
			C302.5,230.9,302.4,230.8,302.2,230.7z"/>
	</g>
	<g id="Grupo_165-2" transform="translate(24.429 1238.577)">
		<path id="Trazado_16522-2" class="st0" d="M304.3,232.1c-3-2.1-6.7,3.2-3.6,5.3c1.4,1.1,3.4,0.9,4.5-0.5c1.1-1.4,0.9-3.4-0.5-4.5
			C304.5,232.3,304.4,232.2,304.3,232.1z"/>
	</g>
	<g id="Grupo_166-2" transform="translate(32.252 1243.932)">
		<path id="Trazado_16523-2" class="st0" d="M306.3,233.5c-3-2.1-6.7,3.2-3.6,5.3c1.4,1.1,3.4,0.9,4.5-0.5c1.1-1.4,0.9-3.4-0.5-4.5
			C306.6,233.6,306.4,233.6,306.3,233.5z"/>
	</g>
	<g id="Grupo_167-2" transform="translate(40.074 1249.288)">
		<path id="Trazado_16524-2" class="st0" d="M308.3,234.9c-3-2.1-6.7,3.2-3.6,5.3c1.4,1.1,3.4,0.9,4.5-0.5c1.1-1.4,0.9-3.4-0.5-4.5
			C308.6,235,308.5,235,308.3,234.9z"/>
	</g>
	<g id="Grupo_168-2" transform="translate(47.897 1254.644)">
		<path id="Trazado_16525-2" class="st0" d="M310.4,236.3c-3-2.1-6.7,3.2-3.6,5.3c1.4,1.1,3.4,0.9,4.5-0.5c1.1-1.4,0.9-3.4-0.5-4.5
			C310.6,236.4,310.5,236.3,310.4,236.3z"/>
	</g>
	<g id="Grupo_169-2" transform="translate(55.72 1260)">
		<path id="Trazado_16526-2" class="st0" d="M312.4,237.7c-3-2.1-6.7,3.2-3.6,5.3c1.4,1.1,3.4,0.9,4.5-0.5c1.1-1.4,0.9-3.4-0.5-4.5
			C312.7,237.8,312.5,237.7,312.4,237.7z"/>
	</g>
	<g id="Grupo_170-2" transform="translate(63.543 1265.355)">
		<path id="Trazado_16527-2" class="st0" d="M314.5,239.1c-3-2.1-6.7,3.2-3.6,5.3c1.4,1.1,3.4,0.9,4.5-0.5c1.1-1.4,0.9-3.4-0.5-4.5
			C314.7,239.2,314.6,239.1,314.5,239.1z"/>
	</g>
	<g id="Grupo_171-2" transform="translate(71.365 1270.711)">
		<path id="Trazado_16528-2" class="st0" d="M316.5,240.4c-3-2.1-6.7,3.2-3.6,5.3c1.4,1.1,3.4,0.9,4.5-0.5c1.1-1.4,0.9-3.4-0.5-4.5
			C316.7,240.6,316.6,240.5,316.5,240.4z"/>
	</g>
	<g id="Grupo_172-2" transform="translate(21.55 1226)">
		<path id="Trazado_16529-2" class="st0" d="M303.5,228.8c-3-2.1-6.7,3.2-3.6,5.3c1.4,1.1,3.4,0.9,4.5-0.5c1.1-1.4,0.9-3.4-0.5-4.5
			C303.8,229,303.7,228.9,303.5,228.8z"/>
	</g>
	<g id="Grupo_173-2" transform="translate(29.373 1231.356)">
		<path id="Trazado_16530-2" class="st0" d="M305.6,230.2c-3-2.1-6.7,3.2-3.6,5.3c1.4,1.1,3.4,0.9,4.5-0.5c1.1-1.4,0.9-3.4-0.5-4.5
			C305.8,230.4,305.7,230.3,305.6,230.2z"/>
	</g>
	<g id="Grupo_174-2" transform="translate(37.195 1236.712)">
		<path id="Trazado_16531-2" class="st0" d="M307.6,231.6c-3-2.1-6.7,3.2-3.6,5.3c1.4,1.1,3.4,0.9,4.5-0.5c1.1-1.4,0.9-3.4-0.5-4.5
			C307.8,231.8,307.7,231.7,307.6,231.6z"/>
	</g>
	<g id="Grupo_175-2" transform="translate(45.018 1242.067)">
		<path id="Trazado_16532-2" class="st0" d="M309.6,233c-3-2.1-6.7,3.2-3.6,5.3c1.4,1.1,3.4,0.9,4.5-0.5c1.1-1.4,0.9-3.4-0.5-4.5
			C309.9,233.1,309.8,233.1,309.6,233z"/>
	</g>
	<g id="Grupo_176-2" transform="translate(52.841 1247.423)">
		<path id="Trazado_16533-2" class="st0" d="M311.7,234.4c-3-2.1-6.7,3.2-3.6,5.3c1.4,1.1,3.4,0.9,4.5-0.5c1.1-1.4,0.9-3.4-0.5-4.5
			C311.9,234.5,311.8,234.5,311.7,234.4z"/>
	</g>
	<g id="Grupo_177-2" transform="translate(60.664 1252.779)">
		<path id="Trazado_16534-2" class="st0" d="M313.7,235.8c-3-2.1-6.7,3.2-3.6,5.3c1.4,1.1,3.4,0.9,4.5-0.5c1.1-1.4,0.9-3.4-0.5-4.5
			C313.9,235.9,313.8,235.9,313.7,235.8z"/>
	</g>
	<g id="Grupo_178-2" transform="translate(68.487 1258.134)">
		<path id="Trazado_16535-2" class="st0" d="M315.7,237.2c-3-2.1-6.7,3.2-3.6,5.3c1.4,1.1,3.4,0.9,4.5-0.5s0.9-3.4-0.5-4.5
			C316,237.3,315.9,237.3,315.7,237.2z"/>
	</g>
	<g id="Grupo_179-2" transform="translate(76.309 1263.49)">
		<path id="Trazado_16536-2" class="st0" d="M317.8,238.6c-3-2.1-6.7,3.2-3.6,5.3c1.4,1.1,3.4,0.9,4.5-0.5c1.1-1.4,0.9-3.4-0.5-4.5
			C318,238.7,317.9,238.6,317.8,238.6z"/>
	</g>
</g>
<g id="Memphis_1-2" transform="translate(230.701 74)">
	<g id="Grupo_89-2" transform="translate(313.656 606)">
		<path id="Trazado_16447-2" class="st0" d="M184.7,269.5c-1.7,0-3-1.3-3-3v-35.2c0-1.7,1.4-3,3.1-3c1.6,0,2.9,1.3,3,3v35.2
			C187.7,268.2,186.4,269.5,184.7,269.5z"/>
	</g>
	<g id="Grupo_90-2" transform="translate(299.299 620.356)">
		<path id="Trazado_16448-2" class="st0" d="M216.1,238.1H181c-1.7,0-3-1.4-3-3c0-1.7,1.4-3,3-3l0,0h35.2c1.7,0,3,1.4,3,3
			C219.1,236.8,217.8,238.1,216.1,238.1z"/>
	</g>
</g>
<g id="Memphis_1-3" transform="translate(284 9)">
	<g id="Grupo_89-3" transform="translate(313.656 606)">
		<path id="Trazado_16447-3" class="st0" d="M938.5,18.6c-1.7,0-3-1.3-3-3v-35.2c0-1.7,1.4-3,3.1-3c1.6,0,2.9,1.3,3,3v35.2
			C941.6,17.3,940.2,18.6,938.5,18.6z"/>
	</g>
	<g id="Grupo_90-3" transform="translate(299.299 620.356)">
		<path id="Trazado_16448-3" class="st0" d="M970-12.8h-35.2c-1.7,0-3-1.4-3-3s1.4-3,3-3l0,0H970c1.7,0,3,1.4,3,3
			S971.7-12.8,970-12.8z"/>
	</g>
</g>
<g id="Memphis_4-3" transform="translate(695.411 -735.383)">
	<g id="Grupo_108-3" transform="translate(-18 1283.768)">
		<path id="Trazado_16465-3" class="st0" d="M-70.9-25.4c-3-2.1-6.7,3.2-3.6,5.3c1.4,1.1,3.4,0.9,4.5-0.5c1.1-1.4,0.9-3.4-0.5-4.5
			C-70.7-25.3-70.8-25.3-70.9-25.4z"/>
	</g>
	<g id="Grupo_109-3" transform="translate(-10.177 1289.123)">
		<path id="Trazado_16466-3" class="st0" d="M-68.9-24c-3-2.1-6.7,3.2-3.6,5.3c1.4,1.1,3.4,0.9,4.5-0.5c1.1-1.4,0.9-3.4-0.5-4.5
			C-68.7-23.9-68.8-23.9-68.9-24z"/>
	</g>
	<g id="Grupo_110-3" transform="translate(-2.355 1294.479)">
		<path id="Trazado_16467-3" class="st0" d="M-66.9-22.6c-3-2.1-6.7,3.2-3.6,5.3c1.4,1.1,3.4,0.9,4.5-0.5c1.1-1.4,0.9-3.4-0.5-4.5
			C-66.6-22.5-66.8-22.6-66.9-22.6z"/>
	</g>
	<g id="Grupo_111-3" transform="translate(5.468 1299.835)">
		<path id="Trazado_16468-3" class="st0" d="M-64.8-21.2c-3-2.1-6.7,3.2-3.6,5.3c1.4,1.1,3.4,0.9,4.5-0.5c1.1-1.4,0.9-3.4-0.5-4.5
			C-64.6-21.1-64.7-21.2-64.8-21.2z"/>
	</g>
	<g id="Grupo_112-3" transform="translate(13.291 1305.191)">
		<path id="Trazado_16469-3" class="st0" d="M-62.8-19.8c-3-2.1-6.7,3.2-3.6,5.3c1.4,1.1,3.4,0.9,4.5-0.5c1.1-1.4,0.9-3.4-0.5-4.5
			C-62.6-19.7-62.7-19.8-62.8-19.8z"/>
	</g>
	<g id="Grupo_113-3" transform="translate(21.114 1310.547)">
		<path id="Trazado_16470-3" class="st0" d="M-60.8-18.4c-3-2.1-6.7,3.2-3.6,5.3c1.4,1.1,3.4,0.9,4.5-0.5c1.1-1.4,0.9-3.4-0.5-4.5
			C-60.5-18.3-60.6-18.4-60.8-18.4z"/>
	</g>
	<g id="Grupo_114-3" transform="translate(28.937 1315.902)">
		<path id="Trazado_16471-3" class="st0" d="M-58.7-17.1c-3-2.1-6.7,3.2-3.6,5.3c1.4,1.1,3.4,0.9,4.5-0.5s0.9-3.4-0.5-4.5
			C-58.5-16.9-58.6-17-58.7-17.1z"/>
	</g>
	<g id="Grupo_115-3" transform="translate(36.759 1321.258)">
		<path id="Trazado_16472-3" class="st0" d="M-56.7-15.7c-3-2.1-6.7,3.2-3.6,5.3c1.4,1.1,3.4,0.9,4.5-0.5c1.1-1.4,0.9-3.4-0.5-4.5
			C-56.4-15.5-56.6-15.6-56.7-15.7z"/>
	</g>
	<g id="Grupo_116-3" transform="translate(-13.056 1276.547)">
		<path id="Trazado_16473-3" class="st0" d="M-69.7-27.3c-3-2.1-6.7,3.2-3.6,5.3c1.4,1.1,3.4,0.9,4.5-0.5c1.1-1.4,0.9-3.4-0.5-4.5
			C-69.4-27.1-69.5-27.2-69.7-27.3z"/>
	</g>
	<g id="Grupo_117-3" transform="translate(-5.234 1281.903)">
		<path id="Trazado_16474-3" class="st0" d="M-67.6-25.9c-3-2.1-6.7,3.2-3.6,5.3c1.4,1.1,3.4,0.9,4.5-0.5c1.1-1.4,0.9-3.4-0.5-4.5
			C-67.4-25.7-67.5-25.8-67.6-25.9z"/>
	</g>
	<g id="Grupo_118-3" transform="translate(2.589 1287.258)">
		<path id="Trazado_16475-3" class="st0" d="M-65.6-24.5c-3-2.1-6.7,3.2-3.6,5.3c1.4,1.1,3.4,0.9,4.5-0.5c1.1-1.4,0.9-3.4-0.5-4.5
			C-65.3-24.3-65.5-24.4-65.6-24.5z"/>
	</g>
	<g id="Grupo_119-3" transform="translate(10.412 1292.614)">
		<path id="Trazado_16476-3" class="st0" d="M-63.6-23.1c-3-2.1-6.7,3.2-3.6,5.3c1.4,1.1,3.4,0.9,4.5-0.5c1.1-1.4,0.9-3.4-0.5-4.5
			C-63.3-22.9-63.4-23-63.6-23.1z"/>
	</g>
	<g id="Grupo_120-3" transform="translate(18.235 1297.97)">
		<path id="Trazado_16477-3" class="st0" d="M-61.5-21.7c-3-2.1-6.7,3.2-3.6,5.3c1.4,1.1,3.4,0.9,4.5-0.5s0.9-3.4-0.5-4.5
			C-61.3-21.6-61.4-21.6-61.5-21.7z"/>
	</g>
	<g id="Grupo_121-3" transform="translate(26.057 1303.325)">
		<path id="Trazado_16478-3" class="st0" d="M-59.5-20.3c-3-2.1-6.7,3.2-3.6,5.3c1.4,1.1,3.4,0.9,4.5-0.5c1.1-1.4,0.9-3.4-0.5-4.5
			C-59.2-20.2-59.4-20.2-59.5-20.3z"/>
	</g>
	<g id="Grupo_122-3" transform="translate(33.88 1308.681)">
		<path id="Trazado_16479-3" class="st0" d="M-57.5-18.9c-3-2.1-6.7,3.2-3.6,5.3c1.4,1.1,3.4,0.9,4.5-0.5c1.1-1.4,0.9-3.4-0.5-4.5
			C-57.2-18.8-57.3-18.9-57.5-18.9z"/>
	</g>
	<g id="Grupo_123-3" transform="translate(41.703 1314.037)">
		<path id="Trazado_16480-3" class="st0" d="M-55.4-17.5c-3-2.1-6.7,3.2-3.6,5.3c1.4,1.1,3.4,0.9,4.5-0.5s0.9-3.4-0.5-4.5
			C-55.2-17.4-55.3-17.5-55.4-17.5z"/>
	</g>
	<g id="Grupo_124-3" transform="translate(-8.112 1269.326)">
		<path id="Trazado_16481-3" class="st0" d="M-68.4-29.2c-3-2.1-6.7,3.2-3.6,5.3c1.4,1.1,3.4,0.9,4.5-0.5c1.1-1.4,0.9-3.4-0.5-4.5
			C-68.1-29-68.2-29.1-68.4-29.2z"/>
	</g>
	<g id="Grupo_125-3" transform="translate(-0.29 1274.682)">
		<path id="Trazado_16482-3" class="st0" d="M-66.3-27.8c-3-2.1-6.7,3.2-3.6,5.3c1.4,1.1,3.4,0.9,4.5-0.5c1.1-1.4,0.9-3.4-0.5-4.5
			C-66.1-27.6-66.2-27.7-66.3-27.8z"/>
	</g>
	<g id="Grupo_126-3" transform="translate(7.533 1280.037)">
		<path id="Trazado_16483-3" class="st0" d="M-64.3-26.4c-3-2.1-6.7,3.2-3.6,5.3c1.4,1.1,3.4,0.9,4.5-0.5c1.1-1.4,0.9-3.4-0.5-4.5
			C-64.1-26.2-64.2-26.3-64.3-26.4z"/>
	</g>
	<g id="Grupo_127-3" transform="translate(15.356 1285.393)">
		<path id="Trazado_16484-3" class="st0" d="M-62.3-25c-3-2.1-6.7,3.2-3.6,5.3c1.4,1.1,3.4,0.9,4.5-0.5c1.1-1.4,0.9-3.4-0.5-4.5
			C-62-24.8-62.1-24.9-62.3-25z"/>
	</g>
	<g id="Grupo_128-3" transform="translate(23.178 1290.749)">
		<path id="Trazado_16485-3" class="st0" d="M-60.2-23.6c-3-2.1-6.7,3.2-3.6,5.3c1.4,1.1,3.4,0.9,4.5-0.5c1.1-1.4,0.9-3.4-0.5-4.5
			C-60-23.4-60.1-23.5-60.2-23.6z"/>
	</g>
	<g id="Grupo_129-3" transform="translate(31.001 1296.105)">
		<path id="Trazado_16486-3" class="st0" d="M-58.2-22.2c-3-2.1-6.7,3.2-3.6,5.3c1.4,1.1,3.4,0.9,4.5-0.5c1.1-1.4,0.9-3.4-0.5-4.5
			C-58-22-58.1-22.1-58.2-22.2z"/>
	</g>
	<g id="Grupo_130-3" transform="translate(38.824 1301.46)">
		<path id="Trazado_16487-3" class="st0" d="M-56.2-20.8c-3-2.1-6.7,3.2-3.6,5.3c1.4,1.1,3.4,0.9,4.5-0.5s0.9-3.4-0.5-4.5
			C-55.9-20.6-56-20.7-56.2-20.8z"/>
	</g>
	<g id="Grupo_131-3" transform="translate(46.647 1306.816)">
		<path id="Trazado_16488-3" class="st0" d="M-54.1-19.4c-3-2.1-6.7,3.2-3.6,5.3c1.4,1.1,3.4,0.9,4.5-0.5s0.9-3.4-0.5-4.5
			C-53.9-19.3-54-19.3-54.1-19.4z"/>
	</g>
	<g id="Grupo_132-3" transform="translate(-3.169 1262.105)">
		<path id="Trazado_16489-3" class="st0" d="M-67.1-31c-3-2.1-6.7,3.2-3.6,5.3c1.4,1.1,3.4,0.9,4.5-0.5c1.1-1.4,0.9-3.4-0.5-4.5
			C-66.8-30.9-67-31-67.1-31z"/>
	</g>
	<g id="Grupo_133-3" transform="translate(4.654 1267.461)">
		<path id="Trazado_16490-3" class="st0" d="M-65.1-29.7c-3-2.1-6.7,3.2-3.6,5.3c1.4,1.1,3.4,0.9,4.5-0.5c1.1-1.4,0.9-3.4-0.5-4.5
			C-64.8-29.5-64.9-29.6-65.1-29.7z"/>
	</g>
	<g id="Grupo_134-3" transform="translate(12.477 1272.816)">
		<path id="Trazado_16491-3" class="st0" d="M-63-28.3c-3-2.1-6.7,3.2-3.6,5.3c1.4,1.1,3.4,0.9,4.5-0.5c1.1-1.4,0.9-3.4-0.5-4.5
			C-62.8-28.1-62.9-28.2-63-28.3z"/>
	</g>
	<g id="Grupo_135-3" transform="translate(20.3 1278.172)">
		<path id="Trazado_16492-3" class="st0" d="M-61-26.9c-3-2.1-6.7,3.2-3.6,5.3c1.4,1.1,3.4,0.9,4.5-0.5c1.1-1.4,0.9-3.4-0.5-4.5
			C-60.7-26.7-60.9-26.8-61-26.9z"/>
	</g>
	<g id="Grupo_136-3" transform="translate(28.122 1283.528)">
		<path id="Trazado_16493-3" class="st0" d="M-59-25.5c-3-2.1-6.7,3.2-3.6,5.3c1.4,1.1,3.4,0.9,4.5-0.5c1.1-1.4,0.9-3.4-0.5-4.5
			C-58.7-25.3-58.8-25.4-59-25.5z"/>
	</g>
	<g id="Grupo_137-3" transform="translate(35.945 1288.884)">
		<path id="Trazado_16494-3" class="st0" d="M-56.9-24.1c-3-2.1-6.7,3.2-3.6,5.3c1.4,1.1,3.4,0.9,4.5-0.5c1.1-1.4,0.9-3.4-0.5-4.5
			C-56.7-23.9-56.8-24-56.9-24.1z"/>
	</g>
	<g id="Grupo_138-3" transform="translate(43.768 1294.239)">
		<path id="Trazado_16495-3" class="st0" d="M-54.9-22.7c-3-2.1-6.7,3.2-3.6,5.3c1.4,1.1,3.4,0.9,4.5-0.5c1.1-1.4,0.9-3.4-0.5-4.5
			C-54.6-22.5-54.8-22.6-54.9-22.7z"/>
	</g>
	<g id="Grupo_139-3" transform="translate(51.59 1299.595)">
		<path id="Trazado_16496-3" class="st0" d="M-52.9-21.3c-3-2.1-6.7,3.2-3.6,5.3c1.4,1.1,3.4,0.9,4.5-0.5c1.1-1.4,0.9-3.4-0.5-4.5
			C-52.6-21.1-52.7-21.2-52.9-21.3z"/>
	</g>
	<g id="Grupo_140-3" transform="translate(1.775 1254.884)">
		<path id="Trazado_16497-3" class="st0" d="M-65.8-32.9c-3-2.1-6.7,3.2-3.6,5.3c1.4,1.1,3.4,0.9,4.5-0.5c1.1-1.4,0.9-3.4-0.5-4.5
			C-65.6-32.8-65.7-32.8-65.8-32.9z"/>
	</g>
	<g id="Grupo_141-3" transform="translate(9.598 1260.24)">
		<path id="Trazado_16498-3" class="st0" d="M-63.8-31.5c-3-2.1-6.7,3.2-3.6,5.3c1.4,1.1,3.4,0.9,4.5-0.5c1.1-1.4,0.9-3.4-0.5-4.5
			C-63.5-31.4-63.6-31.5-63.8-31.5z"/>
	</g>
	<g id="Grupo_142-3" transform="translate(17.42 1265.595)">
		<path id="Trazado_16499-3" class="st0" d="M-61.7-30.1c-3-2.1-6.7,3.2-3.6,5.3c1.4,1.1,3.4,0.9,4.5-0.5c1.1-1.4,0.9-3.4-0.5-4.5
			C-61.5-30-61.6-30.1-61.7-30.1z"/>
	</g>
	<g id="Grupo_143-3" transform="translate(25.243 1270.951)">
		<path id="Trazado_16500-3" class="st0" d="M-59.7-28.7c-3-2.1-6.7,3.2-3.6,5.3c1.4,1.1,3.4,0.9,4.5-0.5c1.1-1.4,0.9-3.4-0.5-4.5
			C-59.5-28.6-59.6-28.7-59.7-28.7z"/>
	</g>
	<g id="Grupo_144-3" transform="translate(33.066 1276.307)">
		<path id="Trazado_16501-3" class="st0" d="M-57.7-27.4c-3-2.1-6.7,3.2-3.6,5.3c1.4,1.1,3.4,0.9,4.5-0.5c1.1-1.4,0.9-3.4-0.5-4.5
			C-57.4-27.2-57.5-27.3-57.7-27.4z"/>
	</g>
	<g id="Grupo_145-3" transform="translate(40.889 1281.663)">
		<path id="Trazado_16502-3" class="st0" d="M-55.6-26c-3-2.1-6.7,3.2-3.6,5.3c1.4,1.1,3.4,0.9,4.5-0.5c1.1-1.4,0.9-3.4-0.5-4.5
			C-55.4-25.8-55.5-25.9-55.6-26z"/>
	</g>
	<g id="Grupo_146-3" transform="translate(48.712 1287.018)">
		<path id="Trazado_16503-3" class="st0" d="M-53.6-24.6c-3-2.1-6.7,3.2-3.6,5.3c1.4,1.1,3.4,0.9,4.5-0.5c1.1-1.4,0.9-3.4-0.5-4.5
			C-53.4-24.4-53.5-24.5-53.6-24.6z"/>
	</g>
	<g id="Grupo_147-3" transform="translate(56.534 1292.374)">
		<path id="Trazado_16504-3" class="st0" d="M-51.6-23.2c-3-2.1-6.7,3.2-3.6,5.3c1.4,1.1,3.4,0.9,4.5-0.5s0.9-3.4-0.5-4.5
			C-51.3-23-51.4-23.1-51.6-23.2z"/>
	</g>
	<g id="Grupo_148-3" transform="translate(6.719 1247.663)">
		<path id="Trazado_16505-3" class="st0" d="M-64.5-34.8c-3-2.1-6.7,3.2-3.6,5.3c1.4,1.1,3.4,0.9,4.5-0.5c1.1-1.4,0.9-3.4-0.5-4.5
			C-64.3-34.6-64.4-34.7-64.5-34.8z"/>
	</g>
	<g id="Grupo_149-3" transform="translate(14.541 1253.019)">
		<path id="Trazado_16506-3" class="st0" d="M-62.5-33.4c-3-2.1-6.7,3.2-3.6,5.3c1.4,1.1,3.4,0.9,4.5-0.5s0.9-3.4-0.5-4.5
			C-62.2-33.2-62.4-33.3-62.5-33.4z"/>
	</g>
	<g id="Grupo_150-3" transform="translate(22.364 1258.374)">
		<path id="Trazado_16507-3" class="st0" d="M-60.4-32c-3-2.1-6.7,3.2-3.6,5.3c1.4,1.1,3.4,0.9,4.5-0.5c1.1-1.4,0.9-3.4-0.5-4.5
			C-60.2-31.8-60.3-31.9-60.4-32z"/>
	</g>
	<g id="Grupo_151-3" transform="translate(30.187 1263.73)">
		<path id="Trazado_16508-3" class="st0" d="M-58.4-30.6c-3-2.1-6.7,3.2-3.6,5.3c1.4,1.1,3.4,0.9,4.5-0.5c1.1-1.4,0.9-3.4-0.5-4.5
			C-58.2-30.5-58.3-30.5-58.4-30.6z"/>
	</g>
	<g id="Grupo_152-3" transform="translate(38.01 1269.086)">
		<path id="Trazado_16509-3" class="st0" d="M-56.4-29.2c-3-2.1-6.7,3.2-3.6,5.3c1.4,1.1,3.4,0.9,4.5-0.5c1.1-1.4,0.9-3.4-0.5-4.5
			C-56.1-29.1-56.2-29.2-56.4-29.2z"/>
	</g>
	<g id="Grupo_153-3" transform="translate(45.832 1274.441)">
		<path id="Trazado_16510-3" class="st0" d="M-54.3-27.8c-3-2.1-6.7,3.2-3.6,5.3c1.4,1.1,3.4,0.9,4.5-0.5c1.1-1.4,0.9-3.4-0.5-4.5
			C-54.1-27.7-54.2-27.8-54.3-27.8z"/>
	</g>
	<g id="Grupo_154-3" transform="translate(53.655 1279.797)">
		<path id="Trazado_16511-3" class="st0" d="M-52.3-26.4c-3-2.1-6.7,3.2-3.6,5.3c1.4,1.1,3.4,0.9,4.5-0.5c1.1-1.4,0.9-3.4-0.5-4.5
			C-52.1-26.3-52.2-26.4-52.3-26.4z"/>
	</g>
	<g id="Grupo_155-3" transform="translate(61.478 1285.153)">
		<path id="Trazado_16512-3" class="st0" d="M-50.3-25.1c-3-2.1-6.7,3.2-3.6,5.3c1.4,1.1,3.4,0.9,4.5-0.5c1.1-1.4,0.9-3.4-0.5-4.5
			C-50-24.9-50.1-25-50.3-25.1z"/>
	</g>
	<g id="Grupo_156-3" transform="translate(11.662 1240.442)">
		<path id="Trazado_16513-3" class="st0" d="M-63.2-36.7c-3-2.1-6.7,3.2-3.6,5.3c1.4,1.1,3.4,0.9,4.5-0.5c1.1-1.4,0.9-3.4-0.5-4.5
			C-63-36.5-63.1-36.6-63.2-36.7z"/>
	</g>
	<g id="Grupo_157-3" transform="translate(19.485 1245.798)">
		<path id="Trazado_16514-3" class="st0" d="M-61.2-35.3c-3-2.1-6.7,3.2-3.6,5.3c1.4,1.1,3.4,0.9,4.5-0.5c1.1-1.4,0.9-3.4-0.5-4.5
			C-61-35.1-61.1-35.2-61.2-35.3z"/>
	</g>
	<g id="Grupo_158-3" transform="translate(27.308 1251.153)">
		<path id="Trazado_16515-3" class="st0" d="M-59.2-33.9c-3-2.1-6.7,3.2-3.6,5.3c1.4,1.1,3.4,0.9,4.5-0.5c1.1-1.4,0.9-3.4-0.5-4.5
			C-58.9-33.7-59-33.8-59.2-33.9z"/>
	</g>
	<g id="Grupo_159-3" transform="translate(35.131 1256.509)">
		<path id="Trazado_16516-3" class="st0" d="M-57.1-32.5c-3-2.1-6.7,3.2-3.6,5.3c1.4,1.1,3.4,0.9,4.5-0.5c1.1-1.4,0.9-3.4-0.5-4.5
			C-56.9-32.3-57-32.4-57.1-32.5z"/>
	</g>
	<g id="Grupo_160-3" transform="translate(42.953 1261.865)">
		<path id="Trazado_16517-3" class="st0" d="M-55.1-31.1c-3-2.1-6.7,3.2-3.6,5.3c1.4,1.1,3.4,0.9,4.5-0.5c1.1-1.4,0.9-3.4-0.5-4.5
			C-54.9-31-55-31-55.1-31.1z"/>
	</g>
	<g id="Grupo_161-3" transform="translate(50.776 1267.221)">
		<path id="Trazado_16518-3" class="st0" d="M-53.1-29.7c-3-2.1-6.7,3.2-3.6,5.3c1.4,1.1,3.4,0.9,4.5-0.5c1.1-1.4,0.9-3.4-0.5-4.5
			C-52.8-29.6-52.9-29.6-53.1-29.7z"/>
	</g>
	<g id="Grupo_162-3" transform="translate(58.599 1272.576)">
		<path id="Trazado_16519-3" class="st0" d="M-51-28.3c-3-2.1-6.7,3.2-3.6,5.3c1.4,1.1,3.4,0.9,4.5-0.5c1.1-1.4,0.9-3.4-0.5-4.5
			C-50.8-28.2-50.9-28.2-51-28.3z"/>
	</g>
	<g id="Grupo_163-3" transform="translate(66.422 1277.932)">
		<path id="Trazado_16520-3" class="st0" d="M-49-26.9c-3-2.1-6.7,3.2-3.6,5.3c1.4,1.1,3.4,0.9,4.5-0.5c1.1-1.4,0.9-3.4-0.5-4.5
			C-48.7-26.8-48.9-26.9-49-26.9z"/>
	</g>
	<g id="Grupo_164-3" transform="translate(16.606 1233.221)">
		<path id="Trazado_16521-3" class="st0" d="M-61.9-38.6c-3-2.1-6.7,3.2-3.6,5.3c1.4,1.1,3.4,0.9,4.5-0.5c1.1-1.4,0.9-3.4-0.5-4.5
			C-61.7-38.4-61.8-38.5-61.9-38.6z"/>
	</g>
	<g id="Grupo_165-3" transform="translate(24.429 1238.577)">
		<path id="Trazado_16522-3" class="st0" d="M-59.9-37.2c-3-2.1-6.7,3.2-3.6,5.3c1.4,1.1,3.4,0.9,4.5-0.5c1.1-1.4,0.9-3.4-0.5-4.5
			C-59.7-37-59.8-37.1-59.9-37.2z"/>
	</g>
	<g id="Grupo_166-3" transform="translate(32.252 1243.932)">
		<path id="Trazado_16523-3" class="st0" d="M-57.9-35.8c-3-2.1-6.7,3.2-3.6,5.3c1.4,1.1,3.4,0.9,4.5-0.5c1.1-1.4,0.9-3.4-0.5-4.5
			C-57.6-35.6-57.7-35.7-57.9-35.8z"/>
	</g>
	<g id="Grupo_167-3" transform="translate(40.074 1249.288)">
		<path id="Trazado_16524-3" class="st0" d="M-55.8-34.4c-3-2.1-6.7,3.2-3.6,5.3c1.4,1.1,3.4,0.9,4.5-0.5s0.9-3.4-0.5-4.5
			C-55.6-34.2-55.7-34.3-55.8-34.4z"/>
	</g>
	<g id="Grupo_168-3" transform="translate(47.897 1254.644)">
		<path id="Trazado_16525-3" class="st0" d="M-53.8-33c-3-2.1-6.7,3.2-3.6,5.3c1.4,1.1,3.4,0.9,4.5-0.5c1.1-1.4,0.9-3.4-0.5-4.5
			C-53.5-32.8-53.7-32.9-53.8-33z"/>
	</g>
	<g id="Grupo_169-3" transform="translate(55.72 1260)">
		<path id="Trazado_16526-3" class="st0" d="M-51.8-31.6c-3-2.1-6.7,3.2-3.6,5.3c1.4,1.1,3.4,0.9,4.5-0.5c1.1-1.4,0.9-3.4-0.5-4.5
			C-51.5-31.4-51.7-31.5-51.8-31.6z"/>
	</g>
	<g id="Grupo_170-3" transform="translate(63.543 1265.355)">
		<path id="Trazado_16527-3" class="st0" d="M-49.7-30.2c-3-2.1-6.7,3.2-3.6,5.3c1.4,1.1,3.4,0.9,4.5-0.5c1.1-1.4,0.9-3.4-0.5-4.5
			C-49.5-30-49.6-30.1-49.7-30.2z"/>
	</g>
	<g id="Grupo_171-3" transform="translate(71.365 1270.711)">
		<path id="Trazado_16528-3" class="st0" d="M-47.7-28.8c-3-2.1-6.7,3.2-3.6,5.3c1.4,1.1,3.4,0.9,4.5-0.5c1.1-1.4,0.9-3.4-0.5-4.5
			C-47.5-28.7-47.6-28.7-47.7-28.8z"/>
	</g>
	<g id="Grupo_172-3" transform="translate(21.55 1226)">
		<path id="Trazado_16529-3" class="st0" d="M-60.7-40.4c-3-2.1-6.7,3.2-3.6,5.3c1.4,1.1,3.4,0.9,4.5-0.5c1.1-1.4,0.9-3.4-0.5-4.5
			C-60.4-40.3-60.5-40.4-60.7-40.4z"/>
	</g>
	<g id="Grupo_173-3" transform="translate(29.373 1231.356)">
		<path id="Trazado_16530-3" class="st0" d="M-58.6-39c-3-2.1-6.7,3.2-3.6,5.3c1.4,1.1,3.4,0.9,4.5-0.5c1.1-1.4,0.9-3.4-0.5-4.5
			C-58.4-38.9-58.5-39-58.6-39z"/>
	</g>
	<g id="Grupo_174-3" transform="translate(37.195 1236.712)">
		<path id="Trazado_16531-3" class="st0" d="M-56.6-37.6c-3-2.1-6.7,3.2-3.6,5.3c1.4,1.1,3.4,0.9,4.5-0.5c1.1-1.4,0.9-3.4-0.5-4.5
			C-56.4-37.5-56.5-37.6-56.6-37.6z"/>
	</g>
	<g id="Grupo_175-3" transform="translate(45.018 1242.067)">
		<path id="Trazado_16532-3" class="st0" d="M-54.6-36.3c-3-2.1-6.7,3.2-3.6,5.3c1.4,1.1,3.4,0.9,4.5-0.5c1.1-1.4,0.9-3.4-0.5-4.5
			C-54.3-36.1-54.4-36.2-54.6-36.3z"/>
	</g>
	<g id="Grupo_176-3" transform="translate(52.841 1247.423)">
		<path id="Trazado_16533-3" class="st0" d="M-52.5-34.9c-3-2.1-6.7,3.2-3.6,5.3c1.4,1.1,3.4,0.9,4.5-0.5c1.1-1.4,0.9-3.4-0.5-4.5
			C-52.3-34.7-52.4-34.8-52.5-34.9z"/>
	</g>
	<g id="Grupo_177-3" transform="translate(60.664 1252.779)">
		<path id="Trazado_16534-3" class="st0" d="M-50.5-33.5c-3-2.1-6.7,3.2-3.6,5.3c1.4,1.1,3.4,0.9,4.5-0.5c1.1-1.4,0.9-3.4-0.5-4.5
			C-50.2-33.3-50.4-33.4-50.5-33.5z"/>
	</g>
	<g id="Grupo_178-3" transform="translate(68.487 1258.134)">
		<path id="Trazado_16535-3" class="st0" d="M-48.5-32.1c-3-2.1-6.7,3.2-3.6,5.3c1.4,1.1,3.4,0.9,4.5-0.5s0.9-3.4-0.5-4.5
			C-48.2-31.9-48.3-32-48.5-32.1z"/>
	</g>
	<g id="Grupo_179-3" transform="translate(76.309 1263.49)">
		<path id="Trazado_16536-3" class="st0" d="M-46.4-30.7c-3-2.1-6.7,3.2-3.6,5.3c1.4,1.1,3.4,0.9,4.5-0.5s0.9-3.4-0.5-4.5
			C-46.2-30.5-46.3-30.6-46.4-30.7z"/>
	</g>
</g>
<g id="Memphis_2-2" transform="translate(-2 -89)">
	<g id="Grupo_91-2" transform="translate(304.672 89)">
		<path id="Trazado_16449-2" class="st0" d="M123.9,59.2c4.3-1,2.5-8.6-1.8-7.6c-2.1,0.3-3.6,2.3-3.3,4.4c0.3,2.1,2.3,3.6,4.4,3.3
			C123.4,59.3,123.7,59.2,123.9,59.2z"/>
	</g>
	<g id="Grupo_92-2" transform="translate(293.512 91.651)">
		<path id="Trazado_16450-2" class="st0" d="M121,59.9c4.3-1,2.5-8.6-1.8-7.6c-2.1,0.3-3.6,2.3-3.3,4.4c0.3,2.1,2.3,3.6,4.4,3.3
			C120.6,60,120.8,59.9,121,59.9z"/>
	</g>
	<g id="Grupo_93-2" transform="translate(307.119 99.302)">
		<path id="Trazado_16451-2" class="st0" d="M124.5,61.8c4.3-1,2.5-8.6-1.8-7.6c-2.1,0.3-3.6,2.3-3.3,4.4c0.3,2.1,2.3,3.6,4.4,3.3
			C124.1,62,124.3,61.9,124.5,61.8z"/>
	</g>
	<g id="Grupo_94-2" transform="translate(295.959 101.953)">
		<path id="Trazado_16452-2" class="st0" d="M121.6,62.5c4.3-1,2.5-8.6-1.8-7.6c-2.1,0.3-3.6,2.3-3.3,4.4c0.3,2.1,2.3,3.6,4.4,3.3
			C121.2,62.7,121.4,62.6,121.6,62.5z"/>
	</g>
	<g id="Grupo_95-2" transform="translate(284.798 104.604)">
		<path id="Trazado_16453-2" class="st0" d="M118.7,63.2c4.3-1,2.5-8.6-1.8-7.6c-2.1,0.3-3.6,2.3-3.3,4.4c0.3,2.1,2.3,3.6,4.4,3.3
			C118.3,63.3,118.5,63.3,118.7,63.2z"/>
	</g>
	<g id="Grupo_96-2" transform="translate(309.567 109.604)">
		<path id="Trazado_16454-2" class="st0" d="M125.2,64.5c4.3-1,2.5-8.6-1.8-7.6c-2.1,0.3-3.6,2.3-3.3,4.4c0.3,2.1,2.3,3.6,4.4,3.3
			C124.7,64.6,124.9,64.6,125.2,64.5z"/>
	</g>
	<g id="Grupo_97-2" transform="translate(298.405 112.256)">
		<path id="Trazado_16455-2" class="st0" d="M122.3,65.2c4.3-1,2.5-8.6-1.8-7.6c-2.1,0.3-3.6,2.3-3.3,4.4c0.3,2.1,2.3,3.6,4.4,3.3
			C121.8,65.3,122,65.3,122.3,65.2z"/>
	</g>
	<g id="Grupo_98-2" transform="translate(287.245 114.906)">
		<path id="Trazado_16456-2" class="st0" d="M119.4,65.9c4.3-1,2.5-8.6-1.8-7.6c-2.1,0.3-3.6,2.3-3.3,4.4c0.3,2.1,2.3,3.6,4.4,3.3
			C118.9,66,119.1,66,119.4,65.9z"/>
	</g>
	<g id="Grupo_99-2" transform="translate(276.084 117.557)">
		<path id="Trazado_16457-2" class="st0" d="M116.4,66.6c4.3-1,2.5-8.6-1.8-7.6c-2.1,0.3-3.6,2.3-3.3,4.4c0.3,2.1,2.3,3.6,4.4,3.3
			C116,66.7,116.2,66.7,116.4,66.6z"/>
	</g>
	<g id="Grupo_100-2" transform="translate(312.013 119.907)">
		<path id="Trazado_16458-2" class="st0" d="M125.8,67.2c4.3-1,2.5-8.6-1.8-7.6c-2.1,0.3-3.6,2.3-3.3,4.4c0.3,2.1,2.3,3.6,4.4,3.3
			C125.4,67.3,125.6,67.3,125.8,67.2z"/>
	</g>
	<g id="Grupo_101-2" transform="translate(300.852 122.558)">
		<path id="Trazado_16459-2" class="st0" d="M122.9,67.9c4.3-1,2.5-8.6-1.8-7.6c-2.1,0.3-3.6,2.3-3.3,4.4c0.3,2.1,2.3,3.6,4.4,3.3
			C122.5,68,122.7,68,122.9,67.9z"/>
	</g>
	<g id="Grupo_102-2" transform="translate(289.692 125.209)">
		<path id="Trazado_16460-2" class="st0" d="M120,68.6c4.3-1,2.5-8.6-1.8-7.6c-2.1,0.3-3.6,2.3-3.3,4.4c0.3,2.1,2.3,3.6,4.4,3.3
			C119.5,68.7,119.8,68.7,120,68.6z"/>
	</g>
	<g id="Grupo_103-2" transform="translate(278.531 127.86)">
		<path id="Trazado_16461-2" class="st0" d="M117.1,69.3c4.3-1,2.5-8.6-1.8-7.6c-2.1,0.3-3.6,2.3-3.3,4.4c0.3,2.1,2.3,3.6,4.4,3.3
			C116.7,69.4,116.9,69.3,117.1,69.3z"/>
	</g>
</g>
<g id="Memphis_2-2_1_" transform="translate(-2 -89)">
	<g id="Grupo_91-2_1_" transform="translate(304.672 89)">
		<path id="Trazado_16449-2_1_" class="st0" d="M1500.9,927.2c4.3-1,2.5-8.6-1.8-7.6c-2.1,0.3-3.6,2.3-3.3,4.4
			c0.3,2.1,2.3,3.6,4.4,3.3C1500.4,927.3,1500.7,927.2,1500.9,927.2z"/>
	</g>
	<g id="Grupo_92-2_1_" transform="translate(293.512 91.651)">
		<path id="Trazado_16450-2_1_" class="st0" d="M1498,927.9c4.3-1,2.5-8.6-1.8-7.6c-2.1,0.3-3.6,2.3-3.3,4.4s2.3,3.6,4.4,3.3
			C1497.6,928,1497.8,927.9,1498,927.9z"/>
	</g>
	<g id="Grupo_93-2_1_" transform="translate(307.119 99.302)">
		<path id="Trazado_16451-2_1_" class="st0" d="M1501.5,929.8c4.3-1,2.5-8.6-1.8-7.6c-2.1,0.3-3.6,2.3-3.3,4.4s2.3,3.6,4.4,3.3
			C1501.1,930,1501.3,929.9,1501.5,929.8z"/>
	</g>
	<g id="Grupo_94-2_1_" transform="translate(295.959 101.953)">
		<path id="Trazado_16452-2_1_" class="st0" d="M1498.6,930.5c4.3-1,2.5-8.6-1.8-7.6c-2.1,0.3-3.6,2.3-3.3,4.4
			c0.3,2.1,2.3,3.6,4.4,3.3C1498.2,930.7,1498.4,930.6,1498.6,930.5z"/>
	</g>
	<g id="Grupo_95-2_1_" transform="translate(284.798 104.604)">
		<path id="Trazado_16453-2_1_" class="st0" d="M1495.7,931.2c4.3-1,2.5-8.6-1.8-7.6c-2.1,0.3-3.6,2.3-3.3,4.4
			c0.3,2.1,2.3,3.6,4.4,3.3C1495.3,931.3,1495.5,931.3,1495.7,931.2z"/>
	</g>
	<g id="Grupo_96-2_1_" transform="translate(309.567 109.604)">
		<path id="Trazado_16454-2_1_" class="st0" d="M1502.2,932.5c4.3-1,2.5-8.6-1.8-7.6c-2.1,0.3-3.6,2.3-3.3,4.4s2.3,3.6,4.4,3.3
			C1501.7,932.6,1501.9,932.6,1502.2,932.5z"/>
	</g>
	<g id="Grupo_97-2_1_" transform="translate(298.405 112.256)">
		<path id="Trazado_16455-2_1_" class="st0" d="M1499.3,933.2c4.3-1,2.5-8.6-1.8-7.6c-2.1,0.3-3.6,2.3-3.3,4.4s2.3,3.6,4.4,3.3
			C1498.8,933.3,1499,933.3,1499.3,933.2z"/>
	</g>
	<g id="Grupo_98-2_1_" transform="translate(287.245 114.906)">
		<path id="Trazado_16456-2_1_" class="st0" d="M1496.4,933.9c4.3-1,2.5-8.6-1.8-7.6c-2.1,0.3-3.6,2.3-3.3,4.4
			c0.3,2.1,2.3,3.6,4.4,3.3C1495.9,934,1496.1,934,1496.4,933.9z"/>
	</g>
	<g id="Grupo_99-2_1_" transform="translate(276.084 117.557)">
		<path id="Trazado_16457-2_1_" class="st0" d="M1493.4,934.6c4.3-1,2.5-8.6-1.8-7.6c-2.1,0.3-3.6,2.3-3.3,4.4s2.3,3.6,4.4,3.3
			C1493,934.7,1493.2,934.7,1493.4,934.6z"/>
	</g>
	<g id="Grupo_100-2_1_" transform="translate(312.013 119.907)">
		<path id="Trazado_16458-2_1_" class="st0" d="M1502.8,935.2c4.3-1,2.5-8.6-1.8-7.6c-2.1,0.3-3.6,2.3-3.3,4.4s2.3,3.6,4.4,3.3
			C1502.4,935.3,1502.6,935.3,1502.8,935.2z"/>
	</g>
	<g id="Grupo_101-2_1_" transform="translate(300.852 122.558)">
		<path id="Trazado_16459-2_1_" class="st0" d="M1499.9,935.9c4.3-1,2.5-8.6-1.8-7.6c-2.1,0.3-3.6,2.3-3.3,4.4
			c0.3,2.1,2.3,3.6,4.4,3.3C1499.5,936,1499.7,936,1499.9,935.9z"/>
	</g>
	<g id="Grupo_102-2_1_" transform="translate(289.692 125.209)">
		<path id="Trazado_16460-2_1_" class="st0" d="M1497,936.6c4.3-1,2.5-8.6-1.8-7.6c-2.1,0.3-3.6,2.3-3.3,4.4s2.3,3.6,4.4,3.3
			C1496.5,936.7,1496.8,936.7,1497,936.6z"/>
	</g>
	<g id="Grupo_103-2_1_" transform="translate(278.531 127.86)">
		<path id="Trazado_16461-2_1_" class="st0" d="M1494.1,937.3c4.3-1,2.5-8.6-1.8-7.6c-2.1,0.3-3.6,2.3-3.3,4.4s2.3,3.6,4.4,3.3
			C1493.7,937.4,1493.9,937.3,1494.1,937.3z"/>
	</g>
</g>
</svg>
