<svg xmlns="http://www.w3.org/2000/svg" viewBox="0 0 318.18 94.17"><title>logo-capybarastudio</title><g style="isolation:isolate"><path d="M34.25,28.24a2,2,0,0,1,.52,1.37,2.21,2.21,0,0,1-1.1,1.82,2.18,2.18,0,0,1-1.23.39,2.63,2.63,0,0,1-1.89-1,13.37,13.37,0,0,0-4.29-3.22,12.4,12.4,0,0,0-5.2-1.07,11.88,11.88,0,0,0-6.37,1.73,11.43,11.43,0,0,0-4.32,4.84,15.73,15.73,0,0,0-1.53,7,14.66,14.66,0,0,0,1.62,6.92A12.09,12.09,0,0,0,15,51.9a12.73,12.73,0,0,0,6.69,1.76,12.24,12.24,0,0,0,8.39-2.8,2.7,2.7,0,0,1,1.75-.71,2.21,2.21,0,0,1,1.43.52,2.26,2.26,0,0,1,.91,1.75,1.85,1.85,0,0,1-.65,1.43,16.65,16.65,0,0,1-11.83,4.36,17.53,17.53,0,0,1-9.1-2.38,17,17,0,0,1-6.34-6.5A18.47,18.47,0,0,1,4,40.14a19.48,19.48,0,0,1,2.21-9.33,16.51,16.51,0,0,1,6.12-6.47A16.68,16.68,0,0,1,21.06,22,16.17,16.17,0,0,1,34.25,28.24Z" transform="translate(-3.96 -7.12)" style="fill:#292929"/><path d="M70,24.38a17.2,17.2,0,0,1,6.5,6.53,18.31,18.31,0,0,1,2.37,9.23V55.41a2.37,2.37,0,0,1-.71,1.76,2.45,2.45,0,0,1-1.82.71,2.51,2.51,0,0,1-1.82-.68,2.34,2.34,0,0,1-.72-1.79v-3.9A16,16,0,0,1,68,56.42a16.83,16.83,0,0,1-7.74,1.79A17.16,17.16,0,0,1,45,49.33a18.47,18.47,0,0,1-2.31-9.19,18.31,18.31,0,0,1,2.38-9.23,17.13,17.13,0,0,1,6.5-6.53,19,19,0,0,1,18.39,0ZM67.47,51.9a12.66,12.66,0,0,0,4.71-4.84,13.93,13.93,0,0,0,1.72-6.92,14,14,0,0,0-1.72-6.93,13,13,0,0,0-4.71-4.87A13.14,13.14,0,0,0,49.3,33.21a14,14,0,0,0-1.72,6.93,13.93,13.93,0,0,0,1.72,6.92,12.55,12.55,0,0,0,4.75,4.84,13.67,13.67,0,0,0,13.42,0Z" transform="translate(-3.96 -7.12)" style="fill:#292929"/><path d="M115.86,24.38a17.2,17.2,0,0,1,6.5,6.53,18.31,18.31,0,0,1,2.37,9.23,18.57,18.57,0,0,1-2.3,9.19,17.16,17.16,0,0,1-15.25,8.88,16.82,16.82,0,0,1-7.73-1.79,16.11,16.11,0,0,1-5.79-4.91V70.56a2.43,2.43,0,0,1-2.53,2.53,2.39,2.39,0,0,1-1.79-.71,2.57,2.57,0,0,1-.68-1.82V56a1.78,1.78,0,0,1-.07-.59V40.14A18.21,18.21,0,0,1,91,30.91a17.13,17.13,0,0,1,6.5-6.53,19,19,0,0,1,18.39,0ZM113.39,51.9a12.55,12.55,0,0,0,4.75-4.84,14.8,14.8,0,0,0,0-13.85,12.84,12.84,0,0,0-4.75-4.87,13,13,0,0,0-6.73-1.79,12.83,12.83,0,0,0-11.4,6.66,14,14,0,0,0-1.73,6.93,14.81,14.81,0,0,0,.07,1.62.81.81,0,0,1,.06.33,13.11,13.11,0,0,0,4.26,8.32,12.59,12.59,0,0,0,8.74,3.25A13.15,13.15,0,0,0,113.39,51.9Z" transform="translate(-3.96 -7.12)" style="fill:#292929"/><path d="M161.91,24.41a2.76,2.76,0,0,1-.26,1.17L140.59,71.86a2,2,0,0,1-1.88,1.49,2.46,2.46,0,0,1-1.17-.26,2,2,0,0,1-1.5-2A2.91,2.91,0,0,1,136.3,70l6.44-14.23v-.07l-14.5-30a2.58,2.58,0,0,1-.26-1.17,2,2,0,0,1,1.43-1.95,2.64,2.64,0,0,1,1.17-.26,2,2,0,0,1,1.95,1.37l12.68,26.71L157.3,23.69a2.09,2.09,0,0,1,1.95-1.43,2.91,2.91,0,0,1,1.17.26A2,2,0,0,1,161.91,24.41Z" transform="translate(-3.96 -7.12)" style="fill:#292929"/><path d="M168.28,24.21V9.65A2.57,2.57,0,0,1,169,7.83a2.39,2.39,0,0,1,1.79-.71,2.45,2.45,0,0,1,2.54,2.53v19a16,16,0,0,1,5.78-4.91A16.83,16.83,0,0,1,186.81,22a17.13,17.13,0,0,1,15.24,8.88,18.47,18.47,0,0,1,2.31,9.19A18.31,18.31,0,0,1,202,49.3a17.27,17.27,0,0,1-6.5,6.53,19,19,0,0,1-18.4,0,17.2,17.2,0,0,1-6.5-6.53,18.31,18.31,0,0,1-2.37-9.23V24.8A2.17,2.17,0,0,1,168.28,24.21Zm18,29.45A13,13,0,0,0,197.76,47a14,14,0,0,0,1.72-6.93,14,14,0,0,0-1.72-6.92A12.55,12.55,0,0,0,193,28.31a13.12,13.12,0,0,0-6.72-1.76,12.65,12.65,0,0,0-8.75,3.25,13.05,13.05,0,0,0-4.25,8.32.81.81,0,0,1-.07.33,15.59,15.59,0,0,0-.06,1.62A14,14,0,0,0,174.88,47a13,13,0,0,0,4.71,4.87A12.82,12.82,0,0,0,186.29,53.66Z" transform="translate(-3.96 -7.12)" style="fill:#292929"/><path d="M239.55,24.38a17.13,17.13,0,0,1,6.5,6.53,18.21,18.21,0,0,1,2.38,9.23V55.41a2.38,2.38,0,0,1-.72,1.76,2.45,2.45,0,0,1-1.82.71,2.51,2.51,0,0,1-1.82-.68,2.34,2.34,0,0,1-.71-1.79v-3.9a16.11,16.11,0,0,1-5.79,4.91,16.82,16.82,0,0,1-7.73,1.79,17.16,17.16,0,0,1-15.25-8.88,18.57,18.57,0,0,1-2.3-9.19,18.31,18.31,0,0,1,2.37-9.23,17.2,17.2,0,0,1,6.5-6.53,19,19,0,0,1,18.39,0Zm-2.5,27.52a12.59,12.59,0,0,0,4.71-4.84,14.73,14.73,0,0,0,0-13.85,13.11,13.11,0,0,0-22.88,0,14.8,14.8,0,0,0,0,13.85,12.55,12.55,0,0,0,4.75,4.84,13.15,13.15,0,0,0,6.73,1.76A13,13,0,0,0,237.05,51.9Z" transform="translate(-3.96 -7.12)" style="fill:#292929"/><path d="M278.55,22.65a2.25,2.25,0,0,1,1.6,2,2,2,0,0,1-.07.58,2,2,0,0,1-.81,1.24,3,3,0,0,1-1.53.32c-.39,0-1.06,0-2-.13a14.92,14.92,0,0,0-1.56-.06,12,12,0,0,0-8,2.6A8.41,8.41,0,0,0,263.12,36V55.41a2.26,2.26,0,0,1-2.47,2.47,2.26,2.26,0,0,1-2.47-2.47V24.8A2.58,2.58,0,0,1,262.47,23a2.47,2.47,0,0,1,.65,1.82v2.86a12.89,12.89,0,0,1,4.81-4.23,13.72,13.72,0,0,1,6.3-1.49A10.85,10.85,0,0,1,278.55,22.65Z" transform="translate(-3.96 -7.12)" style="fill:#292929"/><path d="M310.73,24.38a17.2,17.2,0,0,1,6.5,6.53,18.31,18.31,0,0,1,2.37,9.23V55.41a2.38,2.38,0,0,1-.72,1.76,2.43,2.43,0,0,1-1.81.71,2.49,2.49,0,0,1-1.82-.68,2.34,2.34,0,0,1-.72-1.79v-3.9a16.17,16.17,0,0,1-5.78,4.91A16.83,16.83,0,0,1,301,58.21a17.13,17.13,0,0,1-15.24-8.88,18.47,18.47,0,0,1-2.31-9.19,18.31,18.31,0,0,1,2.37-9.23,17.2,17.2,0,0,1,6.5-6.53,19,19,0,0,1,18.4,0Zm-2.5,27.52a12.66,12.66,0,0,0,4.71-4.84,14.8,14.8,0,0,0,0-13.85,13.11,13.11,0,0,0-22.88,0,14.73,14.73,0,0,0,0,13.85,12.6,12.6,0,0,0,4.74,4.84,13.18,13.18,0,0,0,6.73,1.76A13,13,0,0,0,308.23,51.9Z" transform="translate(-3.96 -7.12)" style="fill:#292929"/></g><g style="isolation:isolate"><path d="M236.83,86.72a.78.78,0,0,1-.31,1.24,1.45,1.45,0,0,1-.47.12.94.94,0,0,1-.77-.4,5.31,5.31,0,0,0-4.43-2,5,5,0,0,0-3,.82,2.46,2.46,0,0,0-1.12,2,2.29,2.29,0,0,0,1.07,2,8.84,8.84,0,0,0,3.58,1.12,9,9,0,0,1,4.73,1.75,4,4,0,0,1,1.44,3.12,3.79,3.79,0,0,1-.91,2.51,5.9,5.9,0,0,1-2.43,1.67,9.2,9.2,0,0,1-3.32.59,9.77,9.77,0,0,1-3.5-.64,6.72,6.72,0,0,1-2.83-1.93.85.85,0,0,1-.21-.56.82.82,0,0,1,.4-.71.76.76,0,0,1,.53-.16.9.9,0,0,1,.71.34c1,1.26,2.7,1.89,5,1.89a6,6,0,0,0,3.61-.87,2.65,2.65,0,0,0,1.17-2.23c0-1.63-1.59-2.67-4.75-3.13a9.59,9.59,0,0,1-4.54-1.64,3.62,3.62,0,0,1-1.53-2.91,4.16,4.16,0,0,1,1.65-3.52,7,7,0,0,1,4.33-1.26A6.84,6.84,0,0,1,236.83,86.72Z" transform="translate(-3.96 -7.12)" style="fill:#0fa7b3"/><path d="M250.08,99.45a.92.92,0,0,1,.27.69.89.89,0,0,1-.27.67.92.92,0,0,1-.7.26h-.71a5.92,5.92,0,0,1-3-.77,5.48,5.48,0,0,1-2.07-2.12,6.19,6.19,0,0,1-.75-3.06V86.41h-2.42a.85.85,0,0,1-.6-.23.81.81,0,0,1-.23-.61.79.79,0,0,1,.23-.6.81.81,0,0,1,.6-.23h2.42V79.68a.92.92,0,0,1,.27-.69.87.87,0,0,1,.66-.27.94.94,0,0,1,.7.27.91.91,0,0,1,.26.69v5.06h4.1a.79.79,0,0,1,.83.83.81.81,0,0,1-.23.61.83.83,0,0,1-.6.23h-4.1v8.71a4,4,0,0,0,1.12,2.93,3.83,3.83,0,0,0,2.88,1.13h.68A.93.93,0,0,1,250.08,99.45Z" transform="translate(-3.96 -7.12)" style="fill:#0fa7b3"/><path d="M269.26,84.37a.92.92,0,0,1,.24.68v15.09a1,1,0,0,1-.24.67.9.9,0,0,1-.69.26.86.86,0,0,1-.66-.26.89.89,0,0,1-.27-.67V98.53a7.27,7.27,0,0,1-2.57,2,7.51,7.51,0,0,1-3.32.73,8.62,8.62,0,0,1-4-.93,6.68,6.68,0,0,1-2.79-2.71,8.55,8.55,0,0,1-1-4.26V85.05a.93.93,0,1,1,1.86,0v8.34a5.83,5.83,0,0,0,1.66,4.49,6.06,6.06,0,0,0,4.32,1.55,7,7,0,0,0,3-.63A5.35,5.35,0,0,0,266.87,97a4.39,4.39,0,0,0,.77-2.5V85.05a.87.87,0,0,1,.27-.68.89.89,0,0,1,.66-.25A.93.93,0,0,1,269.26,84.37Z" transform="translate(-3.96 -7.12)" style="fill:#0fa7b3"/><path d="M291.23,77.11a.91.91,0,0,1,.25.68v15a8.61,8.61,0,0,1-1.18,4.34,8.13,8.13,0,0,1-3.11,3,9.22,9.22,0,0,1-8.79,0A8.11,8.11,0,0,1,275.29,97a9.12,9.12,0,0,1,0-8.83,8.25,8.25,0,0,1,3.11-3.12,8.82,8.82,0,0,1,4.43-1.13,8.4,8.4,0,0,1,4,.95,7.19,7.19,0,0,1,2.8,2.58V77.79a.88.88,0,0,1,.27-.68,1,1,0,0,1,1.34,0Zm-4.92,21.5a6.56,6.56,0,0,0,2.43-2.5,7.52,7.52,0,0,0,0-7.06,6.44,6.44,0,0,0-2.43-2.48,7.16,7.16,0,0,0-6.95,0,6.56,6.56,0,0,0-2.45,2.48,7.37,7.37,0,0,0,0,7.06,6.93,6.93,0,0,0,9.4,2.5Z" transform="translate(-3.96 -7.12)" style="fill:#0fa7b3"/><path d="M299.62,78A1.34,1.34,0,0,1,300,79.1a1.43,1.43,0,0,1-1.46,1.45,1.36,1.36,0,0,1-1-.42,1.42,1.42,0,0,1-.4-1,1.32,1.32,0,0,1,.43-1.06,1.51,1.51,0,0,1,1-.37A1.47,1.47,0,0,1,299.62,78ZM298,84.37a.92.92,0,0,1,1.59.68v15.09a.91.91,0,0,1-.25.67,1,1,0,0,1-1.34,0,.89.89,0,0,1-.27-.67V85.05A.87.87,0,0,1,298,84.37Z" transform="translate(-3.96 -7.12)" style="fill:#0fa7b3"/><path d="M317.89,85.06A8.27,8.27,0,0,1,321,88.18,9.19,9.19,0,0,1,321,97a8.13,8.13,0,0,1-3.12,3.12,9.19,9.19,0,0,1-8.83,0A8.2,8.2,0,0,1,305.94,97a9.19,9.19,0,0,1,0-8.83,8.34,8.34,0,0,1,3.12-3.12,9.19,9.19,0,0,1,8.83,0ZM310,86.58a6.68,6.68,0,0,0-2.45,2.5,7.39,7.39,0,0,0,0,7.07A6.53,6.53,0,0,0,310,98.62a7.14,7.14,0,0,0,6.94,0,6.37,6.37,0,0,0,2.44-2.47,7.54,7.54,0,0,0,0-7.07,6.51,6.51,0,0,0-2.44-2.5,7.07,7.07,0,0,0-6.94,0Z" transform="translate(-3.96 -7.12)" style="fill:#0fa7b3"/></g></svg>